<?xml version="1.0" encoding="iso-8859-1"?>
<!-- Generator: Adobe Illustrator 23.0.2, SVG Export Plug-In . SVG Version: 6.00 Build 0)  -->
<svg version="1.1" id="Layer_1" xmlns="http://www.w3.org/2000/svg" xmlns:xlink="http://www.w3.org/1999/xlink" x="0px" y="0px"
	 viewBox="0 0 595.276 841.89" style="enable-background:new 0 0 595.276 841.89;" xml:space="preserve">
<g>
	<path style="fill:#347FC2;" d="M205.147,278.679l20.285,0.418c10.504,0,18.193-0.55,23.07-1.67c0.701,1.952,1.051,4.19,1.051,6.692
		c0,2.503-0.767,4.762-2.306,6.752c-1.539,2.004-3.395,2.999-5.578,2.999l-11.048-1.82c0,0.662-0.157,3.539-0.475,8.645
		c-0.902,12.55-1.35,25.132-1.35,37.771c0,12.634,0.675,25.273,2.014,37.904c-2.106,1.117-4.321,1.668-6.625,1.668
		c-2.304,0-4.293-0.946-5.963-2.847c-1.668-1.914-2.497-4.789-2.497-8.645s0.322-10.67,0.967-20.422
		c0.632-9.746,0.956-19.253,0.956-28.497c0-9.233-0.322-17.856-0.956-25.85c-7.757,0.556-13.815,2.142-18.165,4.74
		c-0.774-2.137-1.156-4.529-1.156-7.183c0-2.636,0.737-5.084,2.207-7.316C201.051,279.796,202.902,278.679,205.147,278.679z"/>
	<path style="fill:#347FC2;" d="M299.05,358.809c0.771,2.508,1.156,5.345,1.156,8.501c0,3.164-0.756,5.879-2.259,8.154
		c-1.504,2.281-3.35,3.411-5.529,3.411c-6.791,0-17.43-0.55-31.905-1.668c-1.16-0.084-2.183-0.629-3.081-1.597
		c-0.89-0.984-1.347-2.207-1.347-3.693c0-4.924,0.273-13.238,0.817-24.955c0.548-11.698,0.825-22.64,0.825-32.819
		c0-10.169-0.679-21.845-2.022-35.046c4.738,0.567,11.114,0.835,19.121,0.835c8.011,0,15.672-0.835,22.978-2.503
		c0.767,2.036,1.15,4.482,1.15,7.322c0,2.831-0.752,5.339-2.256,7.528c-1.508,2.186-3.369,3.265-5.578,3.265
		c-2.209,0-5.737-0.456-10.57-1.391c-4.842-0.927-8.413-1.386-10.719-1.386c-0.514,9.38-0.802,18.195-0.862,26.474
		c4.036,0.55,8.379,0.835,13.025,0.835c4.642,0,8.628-0.968,11.967-2.92c0.763,2.036,1.15,4.482,1.15,7.303
		c0,2.836-0.756,5.391-2.256,7.677c-1.508,2.27-3.303,3.409-5.383,3.409c-2.087,0-5.179-0.588-9.277-1.741
		c-4.102-1.169-7.209-1.741-9.326-1.741c0,14.686,0.226,25.449,0.675,32.331c3.077,0.366,5.478,0.561,7.209,0.561
		C285.215,364.951,292.644,362.898,299.05,358.809z"/>
	<path style="fill:#347FC2;" d="M348.64,280.499c2.052-1.486,4.216-2.237,6.49-2.237c2.271,0,4.132,1.017,5.574,3.07
		c1.438,2.053,2.16,4.507,2.16,7.381c0,2.882-0.284,9.217-0.862,19.02c-0.576,9.808-0.864,17.585-0.864,23.353
		c0,18.48,0.576,33.866,1.726,46.12c-2.048,1.117-4.339,1.668-6.872,1.668c-2.533,0-4.5-0.602-5.912-1.803
		c-4.098-3.438-13.68-25.189-28.739-65.229c-0.253,3.62-0.38,12.11-0.38,25.444c0,13.322,0.701,26.352,2.114,39.083
		c-1.988,1.117-4.128,1.668-6.442,1.668c-2.306,0-4.178-1.068-5.624-3.205c-1.438-2.137-2.157-4.688-2.157-7.66
		c0-2.975,0.299-9.201,0.913-18.678c0.606-9.48,0.909-16.628,0.909-21.46c0-18.48-0.61-33.817-1.822-45.987
		c1.788-1.302,4.42-1.952,7.876-1.952c3.46,0,5.897,2.001,7.304,5.99c9.487,27.976,18.553,51.663,27.198,71.076
		c-0.187-17.829-0.284-27.263-0.284-28.294C350.95,310.509,350.18,294.705,348.64,280.499z"/>
</g>
</svg>
