<?xml version="1.0" encoding="iso-8859-1"?>
<!-- Generator: Adobe Illustrator 23.0.2, SVG Export Plug-In . SVG Version: 6.00 Build 0)  -->
<svg version="1.1" id="Layer_1" xmlns="http://www.w3.org/2000/svg" xmlns:xlink="http://www.w3.org/1999/xlink" x="0px" y="0px"
	 viewBox="0 0 595.276 841.89" style="enable-background:new 0 0 595.276 841.89;" xml:space="preserve">
<g>
	<path style="fill:#347FC2;" d="M109.407,280.534c5.842-2.955,12.105-8.096,18.783-15.429c3.229-3.595,6.254-6.682,9.076-9.252
		c2.82-2.571,6.278-3.853,10.409-3.853c4.118,0,7.635,0.898,10.557,2.697c-2.501,24.423-3.751,47.308-3.751,68.65
		c0,21.345,0.938,39.723,2.813,55.158c-2.922,1.541-6.311,2.312-10.171,2.312c-3.858,0-6.99-1.541-9.388-4.63
		c-2.408-3.081-3.606-7.23-3.606-12.436c0-5.214,0.836-16.168,2.51-32.88c1.667-16.711,2.555-34.837,2.658-54.383
		c-1.148,1.288-3.077,3.853-5.794,7.706c-6.047,8.627-10.771,12.932-14.155,12.932c-3.396,0-5.897-1.541-7.518-4.63
		C110.212,289.402,109.407,285.423,109.407,280.534z"/>
	<path style="fill:#347FC2;" d="M254,312.939c0,19.282-4.122,35.606-12.357,48.975c-8.249,13.381-19.514,20.062-33.803,20.062
		c-8.457,0-15.422-2.805-20.897-8.398c-5.47-5.587-9.285-12.653-11.421-21.207c-2.141-8.548-3.21-18.613-3.21-30.183
		c0-19.408,4.146-35.961,12.441-49.662c8.295-13.689,19.54-20.526,33.724-20.526c8.449,0,15.41,2.885,20.888,8.674
		c5.48,5.778,9.29,13.052,11.431,21.791C252.931,291.215,254,301.362,254,312.939z M229.671,346.487
		c1.305-5.267,2.241-10.47,2.82-15.614c0.572-5.141,0.855-10.672,0.855-16.585c0-5.916-0.264-11.25-0.781-16.007
		c-0.522-4.757-1.46-9.378-2.813-13.888c-2.922-9.51-8.764-14.267-17.532-14.267c-5.53,0-10.224,2.629-14.084,7.902
		c-3.439,10.156-5.163,24.235-5.163,42.235c0,16.459,1.929,28.026,5.789,34.714c3.546,5.913,8.661,8.868,15.339,8.868
		c3.756,0,6.961-1.57,9.623-4.719C226.382,355.974,228.366,351.766,229.671,346.487z"/>
</g>
</svg>
