<svg xmlns="http://www.w3.org/2000/svg" xmlns:xlink="http://www.w3.org/1999/xlink" width="428" height="414" viewBox="0 0 428 414">
  <defs>
    <clipPath id="clip-path">
      <rect id="Rectangle_181" data-name="Rectangle 181" width="428" height="414" transform="translate(0)" fill="none"/>
    </clipPath>
  </defs>
  <g id="Group_913" data-name="Group 913" transform="translate(-0.051 -0.051)">
    <g id="BACKGROUND" transform="translate(0.051 0.051)">
      <g id="Group_875" data-name="Group 875">
        <g id="Group_874" data-name="Group 874" clip-path="url(#clip-path)">
          <g id="Group_872" data-name="Group 872" transform="translate(53.914 57.493)">
            <path id="Path_2717" data-name="Path 2717" d="M219.251,69.493c87.366-1.048,133.666,63.916,147.486,125.062s11.4,162.3-130.324,194.405S25.465,220,83.687,148.222c46.781-57.676,73.477-75.834,135.564-78.729" transform="translate(-63.029 -69.481)" fill="#fff" opacity="0.21"/>
            <path id="Path_2718" data-name="Path 2718" d="M213.075,127.562c69.553-10.981,110.1,37.816,121.628,107.566S298.838,361.2,230.34,381.642s-128.03-79.263-115.357-154.226S176.974,133.262,213.075,127.562Z" transform="translate(-70.253 -79.194)" fill="#fff" opacity="0.21"/>
          </g>
          <g id="Group_873" data-name="Group 873" transform="translate(-35.527 12.307)">
            <path id="Path_2719" data-name="Path 2719" d="M27.686,82.816s9.6-14.848,20.395-3.052c0,0,8.4-7.135,17.4.53s0,14.828,0,14.828,13.43-4.666,22.31,0,10.78,14.485,10.78,14.485,26.069-12.894,33.68-2.1-13.985,19.8-31.5,14.444h0s-16.009,11.414-31.339,4.14c0,0-2.133,9.318-16.529,8.222s-16.2-12.363-16.2-12.363,9.6,7.827-23.394,13.4-27.593-13.4-27.593-13.4-4.8,8.886-18.6,5.7-10.2-19.243,6-21.5c0,0-6.6-8.294,10.8-14.79S4.892,96.331,4.892,96.331-5.662,85.97,8.491,79.764,27.686,82.816,27.686,82.816Z" transform="translate(41.432 -25.279)" fill="#e3fffc"/>
            <path id="Path_2720" data-name="Path 2720" d="M172.946,259.183s8.008-12.389,17.018-2.547a11.137,11.137,0,0,1,14.514.442c7.508,6.4,0,12.373,0,12.373s11.206-3.893,18.617,0,8.994,12.086,8.994,12.086,21.753-10.758,28.1-1.751-11.669,16.519-26.282,12.052h0s-13.359,9.524-26.15,3.454c0,0-1.78,7.775-13.793,6.861s-13.514-10.315-13.514-10.315,8.008,6.531-19.521,11.185-23.024-11.185-23.024-11.185-4,7.415-15.516,4.761-8.508-16.057,5.005-17.939c0,0-5.505-6.92,9.009-12.341s17.518,4.14,17.518,4.14-8.805-8.646,3-13.824S172.946,259.183,172.946,259.183Z" transform="translate(18.9 -55.795)" fill="#e3fffc"/>
            <path id="Path_2721" data-name="Path 2721" d="M466.266,81.3s-6.641-10.274-14.112-2.112a9.237,9.237,0,0,0-12.037.367c-6.226,5.3,0,10.261,0,10.261s-9.292-3.228-15.438,0-7.458,10.024-7.458,10.024-18.039-8.922-23.306-1.453,9.678,13.7,21.8,9.995h0s11.079,7.9,21.686,2.865c0,0,1.476,6.448,11.438,5.69s11.207-8.555,11.207-8.555-6.642,5.416,16.188,9.276,19.093-9.276,19.093-9.276,3.32,6.149,12.867,3.948,7.056-13.316-4.151-14.877c0,0,4.566-5.739-7.471-10.234s-14.527,3.433-14.527,3.433,7.3-7.169-2.491-11.463S466.266,81.3,466.266,81.3Z" transform="translate(-21.01 -25.422)" fill="#e3fffc"/>
            <path id="Path_2722" data-name="Path 2722" d="M243.968,20.544s-7.095-10.975-15.075-2.256a9.865,9.865,0,0,0-12.858.392c-6.651,5.666,0,10.96,0,10.96s-9.927-3.449-16.491,0-7.967,10.707-7.967,10.707-19.27-9.531-24.9-1.551,10.337,14.633,23.282,10.676h0s11.834,8.438,23.165,3.061c0,0,1.576,6.887,12.217,6.077s11.972-9.138,11.972-9.138-7.094,5.786,17.292,9.909S275,49.471,275,49.471s3.547,6.568,13.745,4.217,7.538-14.224-4.433-15.891c0,0,4.877-6.13-7.981-10.932s-15.519,6.152-15.519,6.152,7.8-10.143-2.66-14.73S243.968,20.544,243.968,20.544Z" transform="translate(11.675 -14.922)" fill="#e3fffc"/>
          </g>
        </g>
      </g>
    </g>
  </g>
</svg>
