<svg xmlns="http://www.w3.org/2000/svg" xmlns:xlink="http://www.w3.org/1999/xlink" width="428" height="414" viewBox="0 0 428 414">
  <defs>
    <clipPath id="clip-path">
      <rect id="Rectangle_181" data-name="Rectangle 181" width="428" height="414" transform="translate(0)" fill="none"/>
    </clipPath>
  </defs>
  <g id="Group_913" data-name="Group 913" transform="translate(-0.051 -0.051)">
    <g id="BACKGROUND" transform="translate(0.051 0.051)">
      <g id="Group_875" data-name="Group 875">
        <g id="Group_874" data-name="Group 874" clip-path="url(#clip-path)">
          <g id="Group_872" data-name="Group 872" transform="translate(53.914 57.493)">
            <path id="Path_2717" data-name="Path 2717" d="M219.251,69.493c87.366-1.048,133.666,63.916,147.486,125.062s11.4,162.3-130.324,194.405S25.465,220,83.687,148.222c46.781-57.676,73.477-75.834,135.564-78.729" transform="translate(-63.029 -69.481)" fill="#fff" opacity="0.21"/>
            <path id="Path_2718" data-name="Path 2718" d="M213.075,127.562c69.553-10.981,110.1,37.816,121.628,107.566S298.838,361.2,230.34,381.642s-128.03-79.263-115.357-154.226S176.974,133.262,213.075,127.562Z" transform="translate(-70.253 -79.194)" fill="#fff" opacity="0.21"/>
          </g>
          <g id="Group_873" data-name="Group 873" transform="translate(-35.527 12.307)">
            <path id="Path_2719" data-name="Path 2719" d="M27.686,82.816s9.6-14.848,20.395-3.052c0,0,8.4-7.135,17.4.53s0,14.828,0,14.828,13.43-4.666,22.31,0,10.78,14.485,10.78,14.485,26.069-12.894,33.68-2.1-13.985,19.8-31.5,14.444h0s-16.009,11.414-31.339,4.14c0,0-2.133,9.318-16.529,8.222s-16.2-12.363-16.2-12.363,9.6,7.827-23.394,13.4-27.593-13.4-27.593-13.4-4.8,8.886-18.6,5.7-10.2-19.243,6-21.5c0,0-6.6-8.294,10.8-14.79S4.892,96.331,4.892,96.331-5.662,85.97,8.491,79.764,27.686,82.816,27.686,82.816Z" transform="translate(41.432 -25.279)" fill="#e3fffc"/>
            <path id="Path_2720" data-name="Path 2720" d="M172.946,259.183s8.008-12.389,17.018-2.547a11.137,11.137,0,0,1,14.514.442c7.508,6.4,0,12.373,0,12.373s11.206-3.893,18.617,0,8.994,12.086,8.994,12.086,21.753-10.758,28.1-1.751-11.669,16.519-26.282,12.052h0s-13.359,9.524-26.15,3.454c0,0-1.78,7.775-13.793,6.861s-13.514-10.315-13.514-10.315,8.008,6.531-19.521,11.185-23.024-11.185-23.024-11.185-4,7.415-15.516,4.761-8.508-16.057,5.005-17.939c0,0-5.505-6.92,9.009-12.341s17.518,4.14,17.518,4.14-8.805-8.646,3-13.824S172.946,259.183,172.946,259.183Z" transform="translate(18.9 -55.795)" fill="#e3fffc"/>
            <path id="Path_2721" data-name="Path 2721" d="M466.266,81.3s-6.641-10.274-14.112-2.112a9.237,9.237,0,0,0-12.037.367c-6.226,5.3,0,10.261,0,10.261s-9.292-3.228-15.438,0-7.458,10.024-7.458,10.024-18.039-8.922-23.306-1.453,9.678,13.7,21.8,9.995h0s11.079,7.9,21.686,2.865c0,0,1.476,6.448,11.438,5.69s11.207-8.555,11.207-8.555-6.642,5.416,16.188,9.276,19.093-9.276,19.093-9.276,3.32,6.149,12.867,3.948,7.056-13.316-4.151-14.877c0,0,4.566-5.739-7.471-10.234s-14.527,3.433-14.527,3.433,7.3-7.169-2.491-11.463S466.266,81.3,466.266,81.3Z" transform="translate(-21.01 -25.422)" fill="#e3fffc"/>
            <path id="Path_2722" data-name="Path 2722" d="M243.968,20.544s-7.095-10.975-15.075-2.256a9.865,9.865,0,0,0-12.858.392c-6.651,5.666,0,10.96,0,10.96s-9.927-3.449-16.491,0-7.967,10.707-7.967,10.707-19.27-9.531-24.9-1.551,10.337,14.633,23.282,10.676h0s11.834,8.438,23.165,3.061c0,0,1.576,6.887,12.217,6.077s11.972-9.138,11.972-9.138-7.094,5.786,17.292,9.909S275,49.471,275,49.471s3.547,6.568,13.745,4.217,7.538-14.224-4.433-15.891c0,0,4.877-6.13-7.981-10.932s-15.519,6.152-15.519,6.152,7.8-10.143-2.66-14.73S243.968,20.544,243.968,20.544Z" transform="translate(11.675 -14.922)" fill="#e3fffc"/>
          </g>
        </g>
      </g>
    </g>
    <g id="OBJECTS" transform="translate(18.986 8.86)">
      <g id="Group_877" data-name="Group 877" transform="translate(43.367 280.423)">
        <path id="Path_2723" data-name="Path 2723" d="M243.1,416.53c9.53-1.249,10.324-2.99,10.208-21.105s-19.994-4.45-19.994-4.45S228.041,418.5,243.1,416.53Z" transform="translate(-95.286 -355.601)" fill="#995504"/>
        <g id="Group_876" data-name="Group 876" transform="translate(1.752 39.823)">
          <path id="Path_2724" data-name="Path 2724" d="M77.4,433.42l6.015-9.3S141.967,385,209.593,401.383c0,0-1.9-.083-1.116,5.463l-5.245.709s-25.346-6.083-61.287,3.313A436.392,436.392,0,0,0,77.4,433.42Z" transform="translate(-77.404 -397.373)" fill="#995504"/>
          <path id="Path_2725" data-name="Path 2725" d="M385.892,433.42l-6.015-9.3S321.329,385,253.7,401.383c0,0,1.9-.083,1.116,5.463l5.245.709s25.346-6.083,61.287,3.313A436.392,436.392,0,0,1,385.892,433.42Z" transform="translate(-93.691 -397.373)" fill="#995504"/>
        </g>
        <path id="Path_2726" data-name="Path 2726" d="M216.4,389.079V372.517s-28.816-24.3-60.84-23.191-41.41,34.785-67.913,39.754L76.325,410.337s11.043,4.141,29.54-8.006,41.726-28.754,58.25-29.892S216.4,389.079,216.4,389.079Z" transform="translate(-75.466 -349.289)" fill="#fefefc"/>
        <path id="Path_2727" data-name="Path 2727" d="M270.536,405.918c-23.584-1.59-36.929,1.841-37.486,1.988l-1.275.336V409.5c0,2.89-.785,4.978-2.332,6.2-2.2,1.742-5.421,1.371-5.971,1.293l0-.013-.043.007-.043-.007,0,.013c-.549.078-3.77.449-5.97-1.293-1.548-1.225-2.333-3.313-2.333-6.2v-1.261l-1.274-.336c-.558-.147-13.9-3.578-37.486-1.988-21.662,1.459-56.406,7.658-98.913,28.9l1.617,2.933c41.873-20.923,76.041-27.053,97.33-28.512,19.081-1.306,31.5.8,35.295,1.587a9.937,9.937,0,0,0,3.567,7.451c2.922,2.294,6.679,2.209,8.214,2.056,1.535.153,5.292.239,8.214-2.056a9.94,9.94,0,0,0,3.567-7.451c3.792-.787,16.214-2.893,35.294-1.587,21.29,1.458,55.457,7.589,97.331,28.512l1.617-2.933C326.942,413.576,292.2,407.377,270.536,405.918Z" transform="translate(-75.652 -358.945)" fill="#ef9a01"/>
        <path id="Path_2728" data-name="Path 2728" d="M216.219,393.288s-32.129-25.4-59.183-18.221-54.109,38.65-80.888,39.478c0,0-1.932,6.626,0,9.663,0,0,9.663-1.933,33.956-13.8S175.256,391.182,209.212,399C209.212,399,210.25,394.945,216.219,393.288Z" transform="translate(-75.288 -353.498)" fill="#c6c6c6"/>
        <path id="Path_2729" data-name="Path 2729" d="M244.768,389.079V372.517s28.816-24.3,60.84-23.191,41.41,34.785,67.913,39.754l11.319,21.258s-11.043,4.141-29.54-8.006-41.726-28.754-58.25-29.892S244.768,389.079,244.768,389.079Z" transform="translate(-90.404 -349.289)" fill="#fefefc"/>
        <path id="Path_2730" data-name="Path 2730" d="M244.768,393.288s32.129-25.4,59.183-18.221,54.109,38.65,80.888,39.478c0,0,1.932,6.626,0,9.663,0,0-9.663-1.933-33.956-13.8S285.731,391.182,251.775,399C251.775,399,250.736,394.945,244.768,393.288Z" transform="translate(-90.404 -353.498)" fill="#c6c6c6"/>
      </g>
      <g id="Group_878" data-name="Group 878" transform="translate(0)">
        <circle id="Ellipse_13" data-name="Ellipse 13" cx="32.425" cy="32.425" r="32.425" transform="translate(147.739 45.856) rotate(-45)" fill="#fefefc" opacity="0.5"/>
        <circle id="Ellipse_14" data-name="Ellipse 14" cx="32.425" cy="32.425" r="32.425" transform="matrix(0.234, -0.972, 0.972, 0.234, 74.922, 97.684)" fill="#fefefc" opacity="0.5"/>
        <circle id="Ellipse_15" data-name="Ellipse 15" cx="32.425" cy="32.425" r="32.425" transform="translate(7.34 123.98) rotate(-45)" fill="#fefefc" opacity="0.5"/>
        <circle id="Ellipse_16" data-name="Ellipse 16" cx="32.425" cy="32.425" r="32.425" transform="translate(0 182.441) rotate(-23.598)" fill="#fefefc" opacity="0.5"/>
        <circle id="Ellipse_17" data-name="Ellipse 17" cx="32.425" cy="32.425" r="32.425" transform="translate(4.862 278.419) rotate(-45)" fill="#fefefc" opacity="0.5"/>
        <circle id="Ellipse_18" data-name="Ellipse 18" cx="32.425" cy="32.425" r="32.425" transform="translate(229.465 48.421) rotate(-11.497)" fill="#fefefc" opacity="0.5"/>
        <circle id="Ellipse_19" data-name="Ellipse 19" cx="32.425" cy="32.425" r="32.425" transform="matrix(0.972, -0.234, 0.234, 0.972, 289.599, 100.029)" fill="#fefefc" opacity="0.5"/>
        <circle id="Ellipse_20" data-name="Ellipse 20" cx="32.425" cy="32.425" r="32.425" transform="translate(293.35 199.174) rotate(-45)" fill="#fefefc" opacity="0.5"/>
        <circle id="Ellipse_21" data-name="Ellipse 21" cx="32.425" cy="32.425" r="32.425" transform="translate(293.049 252.951) rotate(-11.262)" fill="#fefefc" opacity="0.5"/>
      </g>
      <g id="Group_879" data-name="Group 879" transform="translate(97.481 45.713)">
        <path id="Path_2731" data-name="Path 2731" d="M171.986,83.94a17.963,17.963,0,0,1-5.276,12.746,14.539,14.539,0,0,0-4.207,8.953,11.445,11.445,0,0,0-.066,1.309v4.845H145.458v-4.845a14.475,14.475,0,0,0-4.249-10.237A18.043,18.043,0,0,1,152.8,65.927,18.044,18.044,0,0,1,171.986,83.94Z" transform="translate(-135.905 -65.893)" fill="#f9d41c"/>
        <path id="Path_2732" data-name="Path 2732" d="M162.5,105.639a11.445,11.445,0,0,0-.066,1.309v4.845H145.458v-4.845a14.475,14.475,0,0,0-4.249-10.237A18.043,18.043,0,0,1,152.8,65.927a18.165,18.165,0,0,1,5.6.522c-.53.108-13.409,2.75-14.618,14.378-1.234,11.868,9.707,15.421,10.17,21.649C154.171,105.54,158.329,105.979,162.5,105.639Z" transform="translate(-135.905 -65.893)" fill="#6b100b" opacity="0.22"/>
        <circle id="Ellipse_22" data-name="Ellipse 22" cx="7.1" cy="7.1" r="7.1" transform="translate(7.65 50.096) rotate(-51.611)" fill="#511815"/>
        <path id="Path_2733" data-name="Path 2733" d="M162.908,123.213H148.346a2.665,2.665,0,0,1-2.658-2.658h0a2.665,2.665,0,0,1,2.658-2.657h14.562a2.665,2.665,0,0,1,2.657,2.657h0A2.665,2.665,0,0,1,162.908,123.213Z" transform="translate(-137.586 -74.827)" fill="#511815"/>
        <rect id="Rectangle_182" data-name="Rectangle 182" width="17.392" height="4.201" rx="2.1" transform="translate(9.345 48.118)" fill="#702d27"/>
        <path id="Path_2734" data-name="Path 2734" d="M153.761,114.19l-3.085-11.428a5.114,5.114,0,0,1,4.938-6.447h1.634a5.113,5.113,0,0,1,4.9,6.578l-3.417,11.435Z" transform="translate(-138.412 -71.119)" fill="none" stroke="#562104" stroke-miterlimit="10" stroke-width="2"/>
        <path id="Path_2735" data-name="Path 2735" d="M166.656,72.426c4.028,2.155,9.8,13.773,3.845,18.139-2.492,1.826-8.054-1.018-10.917-6.39C155.934,77.324,157.175,67.355,166.656,72.426Z" transform="translate(-139.648 -66.777)" fill="#e3fffc" opacity="0.46"/>
      </g>
      <g id="Group_881" data-name="Group 881" transform="translate(169.892 23.325)">
        <path id="Path_2736" data-name="Path 2736" d="M265.868,62.008a22.623,22.623,0,0,1-.4,4.266,22.145,22.145,0,0,1-.883,3.324c0,.007-.007.007-.007.015A23.1,23.1,0,0,1,244.265,85.1c-.509.038-1.027.053-1.536.053a23.133,23.133,0,0,1-19.459-35.664v-.007c.046-.069.084-.137.137-.213a23.124,23.124,0,0,1,17.848-10.358c.486-.031.981-.046,1.475-.046.677,0,1.338.031,1.993.091h.007a23.151,23.151,0,0,1,21.064,21.194C265.845,60.754,265.868,61.385,265.868,62.008Z" transform="translate(-219.581 -38.861)" fill="#1cb0f6"/>
        <g id="Group_880" data-name="Group 880" transform="translate(3.651 0.002)">
          <path id="Path_2737" data-name="Path 2737" d="M245.871,81.079a40.638,40.638,0,0,0-.852,4.019c-.507.036-1.021.051-1.535.051-1.286-4.982-2.939-3.284-6.062-7.722s2.572-5.48,2.689-7.221c.081-1.227-.007-1.955-.889-2.028-.045,0-.1-.007-.147-.007a5.339,5.339,0,0,0-1.469.287c-2.388.735-4.775.368-4.225-.83S233.2,64.6,231.728,64.6s-.367,3.122-1.836,3.027.735-6.517,2.2-7.068-1.1-3.306-2.938-2.572-2.755,1.1-3.49,0,2.938-1.469,4.225-2.755.551-1.286-2.469-2.939-.47.735-2.124,1.1c-1.608.36-1.293-3.688-1.27-3.908v-.007c.044-.074.08-.14.132-.213a23.119,23.119,0,0,1,19.323-10.4c.676,0,1.344.03,2,.089h.007a.058.058,0,0,0,.022.007s-2.579,1.212-2.027,3.783,3.489,3.49,1.653,5.327-1.469,1.469-2.572,4.224c-1.058,2.645.933,1.734,1.095,1.661-.022.044-.228.4-1.867,3.3-1.873,3.306-1.984.184-3.453.918s1.469,1.469,2.572,2.388-.184.918-.8,1.448-1.22-.9-2.321-1.448-.368.918-.368,4.041c0,2.682,0,1.564,1.712,1.668.089.007.184.014.279.029a4.173,4.173,0,0,1,.7.14c2.689.735,1.352-.735,1.682-2.2s.221-1.286,1.69-.735-.184,3.306-.918,4.129-.184.83.918,2.579,4.775,2.292,2.388,4.283S246.606,79.111,245.871,81.079Z" transform="translate(-223.989 -38.864)" fill="#fcc300"/>
          <path id="Path_2738" data-name="Path 2738" d="M272.254,68.025a23.126,23.126,0,0,1-7.442,13.1V81.11c.977-6.363-3.365-5.944-4.151-7.413a3.728,3.728,0,0,1,.97-4.32c1.1-1.007,1.285-1.558,3.489-2.109s1.286-3.306,1-4.225-1.367-.735-2.792.713-4.269,2.042-4.269,0,2.02-3.835,2.02-3.835l1.778-.551c1.771-.552.427-1.653.059-4.225s.918-1.653,3.2-2.021,1.256-4.077,1.256-4.077a23.011,23.011,0,0,1,5.2,12.85,4.737,4.737,0,0,0-1.4.412c-1.367.727-.551,2.388-.184,4.768A1.035,1.035,0,0,0,272.254,68.025Z" transform="translate(-230.014 -40.614)" fill="#fcc300"/>
        </g>
        <path id="Path_2739" data-name="Path 2739" d="M260.613,45.2c5.143,2.751,12.515,17.588,4.909,23.162-3.183,2.332-10.285-1.3-13.939-8.159C246.921,51.459,248.506,38.729,260.613,45.2Z" transform="translate(-224.663 -39.647)" fill="#e3fffc" opacity="0.31"/>
        <path id="Path_2740" data-name="Path 2740" d="M264.583,69.622A23.1,23.1,0,0,1,244.265,85.1c-.509.038-1.027.053-1.536.053a23.133,23.133,0,0,1-19.459-35.664v-.007c.046-.069.084-.137.137-.213a23.124,23.124,0,0,1,17.848-10.358l-.007.007s-19.475,7.041-10.076,26.79C240.371,85.052,258.165,81.059,264.583,69.622Z" transform="translate(-219.581 -38.87)" fill="#6b100b" opacity="0.22"/>
      </g>
      <g id="Group_883" data-name="Group 883" transform="translate(27.455 99.67)">
        <g id="Group_882" data-name="Group 882" transform="translate(16.217 17.554)">
          <path id="Path_2741" data-name="Path 2741" d="M105.667,179.086c-.042.059-.084.118-.135.177a2.115,2.115,0,0,1-1.565.694,2.09,2.09,0,0,1-1.4-.533L82.347,161.274,76.356,155.9a2.228,2.228,0,0,1-.3-.33l-.017-.017a2.093,2.093,0,0,1,.152-2.615c.051-.06.11-.11.161-.161a2.064,2.064,0,0,1,1.388-.542,2.114,2.114,0,0,1,1.413.542l6,5.382L105.371,176.3A2.089,2.089,0,0,1,105.667,179.086Z" transform="translate(-75.656 -152.237)" fill="#702d27"/>
        </g>
        <path id="Path_2742" data-name="Path 2742" d="M75.793,149.137l-.44.4L72.7,151.929l-.033.034-.009.008s-8.224,2.243-11.719-5.72S59.707,134.3,56.39,132.011c-.441-.3-.4-.558-.009-.728a2.46,2.46,0,0,1,.584-.161C60.934,130.471,76.8,133.551,75.793,149.137Z" transform="translate(-56.075 -131.042)" fill="#ed9a5d"/>
        <path id="Path_2743" data-name="Path 2743" d="M75.978,149.137l-.44.4-2.658,2.394-.033.034a.071.071,0,0,0,.017-.051,5.545,5.545,0,0,0,.313-2.775,12.606,12.606,0,0,0-.415-2.277,28.114,28.114,0,0,0-3.08-7,17.184,17.184,0,0,0-12.532-8.741C61.119,130.471,76.985,133.551,75.978,149.137Z" transform="translate(-56.259 -131.042)" fill="#e14a2d"/>
        <path id="Path_2744" data-name="Path 2744" d="M72.719,152.171s-8.224,2.243-11.719-5.72-1.227-11.948-4.544-14.241c.262-.008.516-.008.745,0,3.351.127,4.51,1.878,5.609,5.39.551,1.752,1.083,3.951,1.862,6.608C67.117,152.544,72.719,152.171,72.719,152.171Z" transform="translate(-56.14 -131.242)" fill="#e14a2d"/>
        <path id="Path_2745" data-name="Path 2745" d="M108.29,181.355a2.738,2.738,0,0,1-.2.254c-4.865,5.424-19.7-11.288-24.208-16.636a2.337,2.337,0,0,1-.211-2.691,2.1,2.1,0,0,1,.287-.389l1.929-2.09.593-.634.287-.313a2.325,2.325,0,0,1,3.088-.3C95.386,162.612,112.41,175.787,108.29,181.355Z" transform="translate(-60.758 -135.692)" fill="#e14a2d"/>
        <path id="Path_2746" data-name="Path 2746" d="M103.606,176.755a2.738,2.738,0,0,1-.2.254c-4.865,5.424-19.7-11.288-24.208-16.636a2.337,2.337,0,0,1-.211-2.691l-5.991-5.373a2.228,2.228,0,0,1-.3-.33l-.033.034-.009.008s-8.224,2.243-11.719-5.72-1.227-11.948-4.544-14.241c-.441-.3-.4-.558-.009-.728l.754.728,5.609,5.39,9.832,9.46,1.8,1.735.973.939L81.2,155.2l21.1,20.291Z" transform="translate(-56.075 -131.092)" fill="#6b100b" opacity="0.22"/>
      </g>
      <g id="Group_885" data-name="Group 885" transform="translate(13.232 173.366)">
        <path id="Path_2747" data-name="Path 2747" d="M83.357,254.163l-2.975,3.814L73.6,253.949l2.556-4.107,2.761,1.654,2.057,1.234Z" transform="translate(-44.863 -225.148)" fill="#e14a2d"/>
        <path id="Path_2748" data-name="Path 2748" d="M83.357,254.163l-2.975,3.814L73.6,253.949l2.556-4.107,2.761,1.654-1.741,2.975,1.741.918,2.057-2.659Z" transform="translate(-44.863 -225.148)" fill="#330d06" opacity="0.25"/>
        <path id="Path_2749" data-name="Path 2749" d="M70.107,238.412a12.748,12.748,0,0,1-2.927,8.141l-.032.031a12.8,12.8,0,0,1-7.809,4.471,12.532,12.532,0,0,1-1.464.151c-.2.007-.4.016-.593.016a13.015,13.015,0,0,1-1.48-.087,12.177,12.177,0,0,1-3.141-.783,12.382,12.382,0,0,1-3.244-1.844,10.633,10.633,0,0,1-1.369-1.234A12.805,12.805,0,0,1,56.783,225.6c.166-.016.332-.016.5-.016a12.724,12.724,0,0,1,1.567.1,12.833,12.833,0,0,1,5.831,2.263l.007.008c.151.11.3.221.451.34a13.242,13.242,0,0,1,1.59,1.464l.759.91A12.7,12.7,0,0,1,70.107,238.412Z" transform="translate(-39.859 -220.981)" fill="#dff2f9" opacity="0.68"/>
        <g id="Group_884" data-name="Group 884" transform="translate(8.189 4.605)">
          <path id="Path_2750" data-name="Path 2750" d="M59.591,225.681l-9.432,22.827a10.633,10.633,0,0,1-1.369-1.234L57.525,225.6c.166-.016.332-.016.5-.016A12.724,12.724,0,0,1,59.591,225.681Z" transform="translate(-48.79 -225.586)" fill="#fcfcfc" opacity="0.68"/>
          <path id="Path_2751" data-name="Path 2751" d="M66.838,228.471,57.5,251.314a12.175,12.175,0,0,1-3.141-.783l9.234-23.9a12.431,12.431,0,0,1,2.785,1.5l.007.008C66.537,228.241,66.687,228.352,66.838,228.471Z" transform="translate(-49.747 -225.765)" fill="#fcfcfc" opacity="0.68"/>
          <path id="Path_2752" data-name="Path 2752" d="M69.509,230.621l-8.854,21.45a12.532,12.532,0,0,0,1.464-.151l8.15-20.39Z" transform="translate(-50.828 -226.451)" fill="#fcfcfc" opacity="0.68"/>
        </g>
        <path id="Path_2753" data-name="Path 2753" d="M105.61,268.678l-1.851,2.848a3.887,3.887,0,0,1-5.492,1.06L80.654,260.2a1.49,1.49,0,0,1-.372-2.057l1.535-2.247,1.7-2.477a1.5,1.5,0,0,1,1.947-.466l17.9,9.74.846.46A3.889,3.889,0,0,1,105.61,268.678Z" transform="translate(-45.966 -225.651)" fill="#702d27"/>
        <path id="Path_2754" data-name="Path 2754" d="M62.038,221a.1.1,0,0,1-.032-.016,17.115,17.115,0,0,0-5.681-.957,17.427,17.427,0,0,0,0,34.854,17.266,17.266,0,0,0,9.3-2.707h.008c.181-.118.364-.237.538-.356.008,0,.008-.007.016-.007A17.409,17.409,0,0,0,62.038,221Zm-5.713,29.268a12.818,12.818,0,1,1,12.826-12.81A12.822,12.822,0,0,1,56.325,250.267Z" transform="translate(-38.902 -220.026)" fill="#3b369e"/>
        <path id="Path_2755" data-name="Path 2755" d="M67.148,246.585a12.823,12.823,0,1,1-2.468-18.641c-.34-.15-11.339-4.985-17.313,5.159C41.449,243.167,56.427,256.769,67.148,246.585Z" transform="translate(-39.859 -220.981)" fill="#1d1d66" opacity="0.25"/>
        <path id="Path_2756" data-name="Path 2756" d="M66.176,251.817a17.422,17.422,0,1,1-9.851-31.791,17.115,17.115,0,0,1,5.681.957s-16.71-3.616-20.635,12.794C38.037,247.715,54.141,258.06,66.176,251.817Z" transform="translate(-38.902 -220.026)" fill="#1d1d66" opacity="0.64"/>
        <path id="Path_2757" data-name="Path 2757" d="M105.61,269.327l-1.851,2.848a3.887,3.887,0,0,1-5.492,1.06L80.654,260.844a1.49,1.49,0,0,1-.372-2.057l1.535-2.247s16.957,13.23,19.251,13.585,4.906-4.193,2.295-6.789l.846.46A3.889,3.889,0,0,1,105.61,269.327Z" transform="translate(-45.966 -226.299)" fill="#330d06" opacity="0.41"/>
        <path id="Path_2758" data-name="Path 2758" d="M78.555,237.659a17.425,17.425,0,0,1-7.565,14.353c-.007,0-.007.007-.016.007-.174.119-.356.238-.538.356l.031-.031c3.774-3.473,7.754-7.422,6.852-16.735-.765-7.908-9.875-14.036-10.483-14.408A17.452,17.452,0,0,1,78.555,237.659Z" transform="translate(-43.701 -220.228)" fill="#fcfca2" opacity="0.29"/>
      </g>
      <g id="Group_886" data-name="Group 886" transform="translate(29.163 253.243)">
        <path id="Path_2759" data-name="Path 2759" d="M92.953,339.18c-.033-.936-.091-1.863-.174-2.758a51.2,51.2,0,0,0-1.209-7.711c-.166-.687-.348-1.35-.53-1.988-1.855-6.253-4.853-10.245-8.29-10.253h-.008c-3.445,0-6.435,3.992-8.29,10.253-.19.646-.364,1.309-.53,2a51.025,51.025,0,0,0-1.209,7.686c-.083.894-.141,1.822-.174,2.758-.041.894-.058,1.805-.058,2.725s.017,1.83.058,2.725c.033.944.091,1.863.174,2.766a51.257,51.257,0,0,0,1.209,7.7c.166.687.348,1.35.53,1.988,1.855,6.253,4.845,10.245,8.29,10.245h.008c3.437-.008,6.435-3.992,8.29-10.245.182-.638.364-1.3.53-1.988a51.373,51.373,0,0,0,1.209-7.711q.124-1.354.174-2.758c.041-.894.058-1.805.058-2.725S92.995,340.067,92.953,339.18Zm-2.4,9.839a47.706,47.706,0,0,1-.952,5.441c-.166.7-.34,1.358-.522,2-1.623,5.5-4.05,8.8-6.327,8.812h-.008c-2.278,0-4.712-3.3-6.327-8.82-.19-.638-.364-1.3-.522-2a47.4,47.4,0,0,1-.952-5.425c-.1-.878-.19-1.789-.257-2.716-.1-1.416-.149-2.89-.149-4.414s.05-2.99.149-4.406c.066-.928.149-1.83.257-2.708a47.454,47.454,0,0,1,.944-5.425c.157-.7.34-1.358.53-2,1.615-5.524,4.042-8.837,6.327-8.837h.008c2.278.008,4.712,3.313,6.327,8.829.19.638.364,1.3.53,2a49.507,49.507,0,0,1,.944,5.433c.1.878.19,1.781.257,2.708.1,1.416.149,2.882.149,4.406s-.05,2.99-.149,4.406C90.742,347.23,90.651,348.142,90.551,349.019Z" transform="translate(-60.602 -316.471)" fill="#2557a0"/>
        <path id="Path_2760" data-name="Path 2760" d="M96.436,343.81c-.447-.489-.936-.977-1.441-1.466a51.333,51.333,0,0,0-4.679-4.025c-.712-.555-1.458-1.1-2.228-1.64-.729-.513-1.491-1.027-2.269-1.524q-1.665-1.068-3.313-1.979c-.745-.431-1.482-.828-2.22-1.193l-.008-.008a49.635,49.635,0,0,0-6.327-2.716c-.671-.24-1.317-.447-1.963-.638-6.27-1.814-11.255-1.449-13.11,1.449-2.013,3.139.2,8.357,5.251,13.732.456.48.936.969,1.441,1.458a51.332,51.332,0,0,0,4.679,4.025c.712.555,1.458,1.1,2.228,1.64q1.093.77,2.261,1.516c1.093.7,2.2,1.358,3.3,1.979.745.422,1.491.82,2.236,1.2h.008a52.894,52.894,0,0,0,6.327,2.733q.994.348,1.963.621c.845.257,1.681.464,2.485.638a21.738,21.738,0,0,0,4.356.505c3,0,5.168-.886,6.261-2.6a4.921,4.921,0,0,0,.737-2.692C102.415,351.786,100.229,347.844,96.436,343.81Zm3.52,12.6c-1.068,1.673-4.158,2.1-8.464,1.193-.77-.166-1.574-.364-2.385-.613-.646-.182-1.3-.4-1.971-.629a45.256,45.256,0,0,1-4.621-1.938c-.737-.34-1.482-.721-2.228-1.118h-.008c-1.474-.787-2.957-1.648-4.431-2.592-1.284-.82-2.493-1.665-3.628-2.5-.754-.563-1.466-1.126-2.145-1.69-1.11-.9-2.137-1.814-3.064-2.725-.505-.489-.986-.977-1.441-1.458-4.472-4.77-6.294-9.077-4.961-11.156.687-1.068,2.269-1.623,4.489-1.623a23.056,23.056,0,0,1,6.361,1.068c.638.174,1.292.389,1.963.629.091.025.182.058.273.091a44.066,44.066,0,0,1,4.356,1.83c.729.331,1.474.7,2.228,1.11h.008c1.441.762,2.924,1.632,4.423,2.592,1.284.82,2.493,1.665,3.636,2.509.745.563,1.466,1.118,2.145,1.69q1.665,1.354,3.056,2.725c.513.489.994.977,1.449,1.466C99.459,350.03,101.281,354.337,99.956,356.407Z" transform="translate(-58.138 -318.368)" fill="#2557a0"/>
        <path id="Path_2761" data-name="Path 2761" d="M101.679,330.07c-1.11-1.731-3.329-2.559-6.27-2.559a25.225,25.225,0,0,0-6.833,1.11c-.646.19-1.292.4-1.963.629a50.956,50.956,0,0,0-6.327,2.725h-.008c-.737.373-1.482.77-2.228,1.2q-1.652.907-3.313,1.979c-.779.5-1.532,1-2.261,1.524-.77.53-1.516,1.077-2.228,1.632a51.328,51.328,0,0,0-4.679,4.025c-.505.489-.994.977-1.441,1.466-5.06,5.375-7.255,10.584-5.251,13.715,1.1,1.714,3.263,2.6,6.261,2.6a21.738,21.738,0,0,0,4.356-.505c.812-.174,1.64-.381,2.493-.638.646-.182,1.3-.4,1.963-.629a51.493,51.493,0,0,0,6.327-2.725h.008v-.008c.737-.373,1.482-.77,2.228-1.193,1.1-.621,2.211-1.275,3.3-1.979.77-.5,1.532-1,2.269-1.524.762-.538,1.507-1.085,2.228-1.64A54.412,54.412,0,0,0,95,345.268c.505-.489.986-.969,1.441-1.458a34.57,34.57,0,0,0,2.717-3.213C102.366,336.273,103.261,332.538,101.679,330.07Zm-4.174,9.3A33.007,33.007,0,0,1,95,342.344c-.456.489-.944.977-1.449,1.458q-1.416,1.379-3.056,2.717c-.687.571-1.4,1.126-2.145,1.681-1.159.861-2.377,1.7-3.636,2.509-1.466.944-2.948,1.805-4.423,2.584v.008h-.008q-1.118.6-2.236,1.118a44.266,44.266,0,0,1-4.613,1.93c-.663.24-1.325.456-1.971.638-.812.248-1.607.447-2.385.613-4.315.911-7.4.472-8.464-1.193-1.333-2.079.489-6.377,4.961-11.148q.683-.733,1.441-1.466c.928-.9,1.955-1.814,3.064-2.725.679-.563,1.391-1.126,2.145-1.681,1.135-.845,2.344-1.69,3.628-2.509,1.5-.961,2.982-1.822,4.431-2.592h.008v-.008c.754-.4,1.491-.77,2.22-1.1a44.115,44.115,0,0,1,4.638-1.93c.671-.24,1.325-.456,1.963-.638,5.516-1.615,9.615-1.35,10.849.571C101.024,332.853,100.13,335.834,97.5,339.371Z" transform="translate(-58.138 -318.368)" fill="#2557a0"/>
        <path id="Path_2762" data-name="Path 2762" d="M89.169,346.046A5.425,5.425,0,1,1,82.5,340.77h.008a5.085,5.085,0,0,1,1.234-.149,5.434,5.434,0,0,1,5.292,4.232A5.112,5.112,0,0,1,89.169,346.046Z" transform="translate(-61.605 -320.62)" fill="#c73fe8"/>
        <path id="Path_2763" data-name="Path 2763" d="M86.381,342.012c1.264.341,3.628,3.213,2.247,4.818-.578.671-2.315.237-3.462-1.078C83.7,344.074,83.4,341.21,86.381,342.012Z" transform="translate(-62.596 -320.835)" fill="#e3fffc" opacity="0.23"/>
        <path id="Path_2764" data-name="Path 2764" d="M89.169,346.077A5.425,5.425,0,1,1,82.5,340.8a5.163,5.163,0,0,0-1.342,6.485c1.939,3.586,6.9,2.481,7.876-2.4A5.112,5.112,0,0,1,89.169,346.077Z" transform="translate(-61.605 -320.651)" fill="#230335" opacity="0.25"/>
        <path id="Path_2765" data-name="Path 2765" d="M80.277,318.525h.008v-2.054h-.008c-3.445,0-6.435,3.992-8.29,10.253-6.27-1.814-11.255-1.449-13.11,1.449-2.013,3.139.2,8.357,5.251,13.732-5.06,5.375-7.255,10.584-5.251,13.715,1.1,1.714,3.263,2.6,6.261,2.6a21.738,21.738,0,0,0,4.356-.505c.812-.174,1.64-.381,2.493-.638,1.855,6.253,4.845,10.245,8.29,10.245h.008v-2.054h-.008c-2.278,0-4.712-3.3-6.327-8.82a51.493,51.493,0,0,0,6.327-2.725h.008V351.4h-.008c-1.474-.787-2.957-1.648-4.431-2.592-1.284-.82-2.493-1.665-3.628-2.5-.1-1.416-.149-2.89-.149-4.414s.05-2.99.149-4.406c1.135-.845,2.344-1.69,3.628-2.509,1.5-.961,2.982-1.822,4.431-2.592h.008v-2.311h-.008a49.635,49.635,0,0,0-6.327-2.716C75.565,321.838,77.992,318.525,80.277,318.525Zm-19.67,10.758c.687-1.068,2.269-1.623,4.489-1.623a23.056,23.056,0,0,1,6.361,1.068,51.025,51.025,0,0,0-1.209,7.686,51.328,51.328,0,0,0-4.679,4.025C61.1,335.669,59.274,331.362,60.608,329.283Zm8.464,26.42c-4.315.911-7.4.472-8.464-1.193-1.333-2.079.489-6.377,4.961-11.148a51.332,51.332,0,0,0,4.679,4.025,51.257,51.257,0,0,0,1.209,7.7C70.645,355.339,69.85,355.537,69.072,355.7Zm5.665-5.16c1.093.7,2.2,1.358,3.3,1.979a44.266,44.266,0,0,1-4.613,1.93,47.4,47.4,0,0,1-.952-5.425Q73.569,349.8,74.737,350.543Zm-4.663-5.922c-1.11-.9-2.137-1.814-3.064-2.725.928-.9,1.955-1.814,3.064-2.725-.041.894-.058,1.805-.058,2.725S70.033,343.727,70.074,344.622Zm3.619-15.173a44.066,44.066,0,0,1,4.356,1.83q-1.652.907-3.313,1.979c-.779.5-1.532,1-2.261,1.524a47.454,47.454,0,0,1,.944-5.425C73.511,329.383,73.6,329.416,73.693,329.449Z" transform="translate(-58.138 -316.471)" fill="#230335" opacity="0.43"/>
      </g>
      <g id="Group_896" data-name="Group 896" transform="translate(238.886 53.367)">
        <g id="Group_895" data-name="Group 895">
          <path id="Path_2766" data-name="Path 2766" d="M338.741,79.166C315.158,65.29,301.42,91.691,301.42,91.691l42.607,28.69S365.71,95.033,338.741,79.166Zm3.953,29.455L314.97,89.95c2.852-2.931,5.662-6.215,10.512-6.154a18.165,18.165,0,0,1,8.866,2.841c5.4,3.165,8.372,6.721,9.078,10.867C344.053,101.1,344.186,105.38,342.694,108.621Z" transform="translate(-299.594 -75.135)" fill="#8618a0"/>
          <path id="Path_2767" data-name="Path 2767" d="M336.536,79.166c-23.583-13.876-37.321,12.525-37.321,12.525l42.606,28.69S363.5,95.033,336.536,79.166Zm2.721,29.044L311.532,89.539c2.852-2.931,6.895-5.8,11.746-5.743a18.164,18.164,0,0,1,8.865,2.841c5.4,3.165,8.372,6.721,9.078,10.867C341.847,101.1,340.748,104.969,339.256,108.21Z" transform="translate(-299.215 -75.135)" fill="#c73fe8"/>
          <g id="Group_894" data-name="Group 894" transform="translate(4.266 15.525)">
            <g id="Group_887" data-name="Group 887">
              <line id="Line_1" data-name="Line 1" y1="3.89" x2="2.751" transform="translate(0.442 0.313)" fill="#fefefc"/>
              <rect id="Rectangle_183" data-name="Rectangle 183" width="4.764" height="1.083" transform="matrix(0.577, -0.817, 0.817, 0.577, 0, 3.89)" fill="#fefefc"/>
            </g>
            <g id="Group_888" data-name="Group 888" transform="translate(6.678 4.045)">
              <line id="Line_2" data-name="Line 2" y1="3.89" x2="2.751" transform="translate(0.443 0.313)" fill="#fefefc"/>
              <rect id="Rectangle_184" data-name="Rectangle 184" width="4.764" height="1.083" transform="matrix(0.577, -0.816, 0.816, 0.577, 0, 3.89)" fill="#fefefc"/>
            </g>
            <g id="Group_889" data-name="Group 889" transform="translate(12.349 8.041)">
              <line id="Line_3" data-name="Line 3" y1="3.89" x2="2.751" transform="translate(0.442 0.313)" fill="#fefefc"/>
              <rect id="Rectangle_185" data-name="Rectangle 185" width="4.763" height="1.083" transform="matrix(0.577, -0.816, 0.816, 0.577, 0, 3.889)" fill="#fefefc"/>
            </g>
            <g id="Group_890" data-name="Group 890" transform="translate(17.944 11.498)">
              <line id="Line_4" data-name="Line 4" y1="3.89" x2="2.751" transform="translate(0.442 0.313)" fill="#fefefc"/>
              <rect id="Rectangle_186" data-name="Rectangle 186" width="4.764" height="1.083" transform="translate(0 3.89) rotate(-54.74)" fill="#fefefc"/>
            </g>
            <g id="Group_891" data-name="Group 891" transform="translate(23.08 15.154)">
              <line id="Line_5" data-name="Line 5" y1="3.89" x2="2.751" transform="translate(0.443 0.313)" fill="#fefefc"/>
              <rect id="Rectangle_187" data-name="Rectangle 187" width="4.764" height="1.083" transform="translate(0 3.89) rotate(-54.737)" fill="#fefefc"/>
            </g>
            <g id="Group_892" data-name="Group 892" transform="translate(28.268 19.295)">
              <line id="Line_6" data-name="Line 6" y1="3.89" x2="2.751" transform="translate(0.443 0.313)" fill="#fefefc"/>
              <rect id="Rectangle_188" data-name="Rectangle 188" width="4.764" height="1.083" transform="matrix(0.577, -0.817, 0.817, 0.577, 0, 3.89)" fill="#fefefc"/>
            </g>
            <g id="Group_893" data-name="Group 893" transform="translate(33.253 22.394)">
              <line id="Line_7" data-name="Line 7" y1="3.89" x2="2.751" transform="translate(0.442 0.313)" fill="#fefefc"/>
              <rect id="Rectangle_189" data-name="Rectangle 189" width="4.764" height="1.083" transform="matrix(0.577, -0.817, 0.817, 0.577, 0, 3.89)" fill="#fefefc"/>
            </g>
          </g>
          <path id="Path_2768" data-name="Path 2768" d="M350.659,129.118h1.827l.451-3.124Z" transform="translate(-308.053 -83.872)" fill="#8618a0"/>
        </g>
        <path id="Path_2769" data-name="Path 2769" d="M345.363,83.623c-.663-.457-1.333.73-.728,1.262a27.17,27.17,0,0,1,7.523,11.531c2.363,6.681-.866,13.548-2.336,16.149a1.375,1.375,0,0,0,.431,1.82h0a1.374,1.374,0,0,0,1.968-.472C354.68,109.5,361.283,94.58,345.363,83.623Z" transform="translate(-306.977 -76.575)" fill="#e3fffc" opacity="0.31"/>
      </g>
      <g id="Group_897" data-name="Group 897" transform="translate(308.171 248.689)">
        <path id="Path_2770" data-name="Path 2770" d="M425.9,323.672l-12.816,12.816A18.93,18.93,0,0,1,397.059,365.5a18.008,18.008,0,0,1-2.217-.135h-.007a10.5,10.5,0,0,1-1.108-.165.127.127,0,0,1-.052-.007,17.853,17.853,0,0,1-2.7-.7,18.937,18.937,0,1,1,12.883-35.608l13.625-13.625,1.438-1.445,1.034,1.041,7.385,7.385Z" transform="translate(-378.117 -311.461)" fill="#dff2f9" stroke="#7886a0" stroke-miterlimit="10" stroke-width="0.904"/>
        <path id="Path_2771" data-name="Path 2771" d="M437.1,322.045l-1.078,1.078a1.51,1.51,0,0,1-2.075.06.494.494,0,0,1-.067-.06l-6.479-6.472-1.88-1.88-.128-.127a1.525,1.525,0,0,1,0-2.15l1.078-1.078a1.514,1.514,0,0,1,2.143,0l1.91,1.91L437.1,319.9A1.514,1.514,0,0,1,437.1,322.045Z" transform="translate(-386.163 -310.973)" fill="#dff2f9" stroke="#7180ad" stroke-miterlimit="10" stroke-width="0.904"/>
        <path id="Path_2772" data-name="Path 2772" d="M413.132,352.889a15.383,15.383,0,1,1-30.668-1.75l30.575.044A15.472,15.472,0,0,1,413.132,352.889Z" transform="translate(-378.847 -317.873)" fill="#3d76d1"/>
        <ellipse id="Ellipse_23" data-name="Ellipse 23" cx="15.189" cy="1.717" rx="15.189" ry="1.717" transform="translate(3.908 31.582)" fill="#2862b5"/>
        <path id="Path_2773" data-name="Path 2773" d="M407.575,355.926c-.922-2.264,6.7-1.237,6.977,0s-1.512,6.947-6.323,9.384S409.533,360.736,407.575,355.926Z" transform="translate(-382.965 -318.465)" fill="#e3fffc" opacity="0.31"/>
        <path id="Path_2774" data-name="Path 2774" d="M396.964,375.855a6.734,6.734,0,0,1,1.108.165A10.5,10.5,0,0,1,396.964,375.855Z" transform="translate(-381.355 -322.119)" fill="#230335" opacity="0.25"/>
        <path id="Path_2775" data-name="Path 2775" d="M419.949,314.368a2.308,2.308,0,0,0-.591,2.284l-14.973,14.741s-9.092-4.495-17.837,5.284c-7.67,8.577-3.247,24.047,4.423,27.327A18.937,18.937,0,1,1,403.853,328.4l13.625-13.625-.128-.127a1.525,1.525,0,0,1,0-2.15l1.078-1.078a1.514,1.514,0,0,1,2.143,0l1.91,1.91A4.55,4.55,0,0,0,419.949,314.368Z" transform="translate(-378.117 -310.973)" fill="#230335" opacity="0.14"/>
      </g>
      <g id="Group_899" data-name="Group 899" transform="translate(320.96 181.348)">
        <g id="Group_898" data-name="Group 898">
          <path id="Path_2776" data-name="Path 2776" d="M430.438,237.263a3.35,3.35,0,0,1-1.549,2.816l-2,1.259a.008.008,0,0,0-.008.008l-28.217,17.848a3.332,3.332,0,0,1-3.561-5.632l11.355-7.181a.38.38,0,0,0,.05-.033l18.817-11.9a3.337,3.337,0,0,1,5.11,2.816Z" transform="translate(-393.558 -230.396)" fill="#702d27"/>
          <path id="Path_2777" data-name="Path 2777" d="M409.4,240.016a5.612,5.612,0,1,1,1.739-7.744A5.559,5.559,0,0,1,409.4,240.016Z" transform="translate(-394.8 -229.663)" fill="#702d27"/>
          <path id="Path_2778" data-name="Path 2778" d="M428.3,259.4a5.608,5.608,0,1,1-7.738-1.742A5.608,5.608,0,0,1,428.3,259.4Z" transform="translate(-397.748 -234.324)" fill="#702d27"/>
        </g>
        <path id="Path_2779" data-name="Path 2779" d="M409.942,240.016a5.559,5.559,0,0,1-2.609.853c.389-.24,4.174-2.708,2.278-6.742-1.988-4.249-5.673-3.594-5.673-3.594a5.612,5.612,0,1,1,6,9.483Z" transform="translate(-395.341 -229.663)" fill="#fcfca2" opacity="0.35"/>
        <path id="Path_2780" data-name="Path 2780" d="M427.271,267.151a5.56,5.56,0,0,1-2.609.853c.389-.24,4.174-2.708,2.278-6.742-1.988-4.249-5.673-3.594-5.673-3.594a5.612,5.612,0,0,1,6,9.483Z" transform="translate(-398.318 -234.325)" fill="#fcfca2" opacity="0.35"/>
        <path id="Path_2781" data-name="Path 2781" d="M433.125,237.263a3.35,3.35,0,0,1-1.549,2.816l-2,1.259c1.251-.8,3.545-3.859.663-5.3-1.69-.853-19.943,9.682-21.045,10.311l18.817-11.9a3.337,3.337,0,0,1,5.11,2.816Z" transform="translate(-396.245 -230.396)" fill="#fcfca2" opacity="0.35"/>
      </g>
      <g id="Group_902" data-name="Group 902" transform="translate(295.398 103.266)">
        <g id="Group_900" data-name="Group 900" transform="translate(23.024 3.755)">
          <path id="Path_2782" data-name="Path 2782" d="M409.245,182.708l1.3.7,1.236-1.074Z" transform="translate(-393.715 -147.205)" fill="#124582"/>
          <path id="Path_2783" data-name="Path 2783" d="M407.589,176.266s4.579-6.341,1.762-8.983c0,0-16.379,1.233-17.261-12.152s17.261-16.379,26.947-13.209,12.857,8.982,12.329,14.441-7.75,11.1-13.562,11.8C417.8,168.163,416.571,175.737,407.589,176.266Z" transform="translate(-390.763 -140.063)" fill="#124582"/>
          <path id="Path_2784" data-name="Path 2784" d="M406.024,175.422s4.579-6.341,1.761-8.983c0,0-16.379,1.233-17.26-12.152s17.26-16.379,26.947-13.209,12.857,8.982,12.329,14.442-7.75,11.1-13.562,11.8C416.239,167.319,415.005,174.893,406.024,175.422Z" transform="translate(-390.494 -139.918)" fill="#3c77bc"/>
        </g>
        <g id="Group_901" data-name="Group 901">
          <path id="Path_2785" data-name="Path 2785" d="M402.4,140.945l1.189,1.585-1.562,2.707Z" transform="translate(-369.452 -136.339)" fill="#bf2510"/>
          <path id="Path_2786" data-name="Path 2786" d="M384.364,173.777l9.654,3.364,3.064-35.238-12.3-4.606-20.654,28.33,10.243,3.869,7.118-12.749,4.655,1.721Zm-.945-20.926,4.207-5.317.125,6.612Z" transform="translate(-362.94 -135.713)" fill="#bf2510"/>
          <path id="Path_2787" data-name="Path 2787" d="M382.929,171.863l9.654,3.364,3.064-35.238-12.3-4.606-20.653,28.33,10.242,3.869,7.118-12.749,4.655,1.721Zm-.946-20.926,4.207-5.316.125,6.611Z" transform="translate(-362.694 -135.384)" fill="#e14a2d"/>
          <path id="Path_2788" data-name="Path 2788" d="M363.882,171.176l-1.189-1.585,4.2,1.585Z" transform="translate(-362.694 -141.261)" fill="#bf2510"/>
          <path id="Path_2789" data-name="Path 2789" d="M388.315,181.015l-1.189-1.585,2.621.913Z" transform="translate(-366.891 -142.951)" fill="#bf2510"/>
        </g>
        <path id="Path_2790" data-name="Path 2790" d="M389.067,137.3l9.014,3.913L395.5,173.777l-1.658-.886,2.707-31.125Z" transform="translate(-367.224 -135.713)" fill="#e3fffc" opacity="0.31"/>
        <path id="Path_2791" data-name="Path 2791" d="M418.052,142.35s12.288,1.18,14.506,9.358-6.243,12.493-6.243,12.493S443.759,150.154,418.052,142.35Z" transform="translate(-372.204 -136.581)" fill="#e3fffc" opacity="0.31"/>
      </g>
      <g id="Group_912" data-name="Group 912" transform="translate(104.419 111.866)">
        <path id="Path_2792" data-name="Path 2792" d="M330.485,196.91c.613.828,6.609,1.731,5.035,3.371s-8.282-.083-8.282-.083c-.787.77-3.031,2.435-4.514,3.528-.1.066-.19.141-.282.207a37.155,37.155,0,0,0-4.4,4.862l-8.216-7.114s5.483-7.487,6.344-11.3-1.516-5.947-2.543-6.369-.6-2.7,2.609-2.352,3.578,4.7,5.027,4.8,3.594-7.3,6.071-6.551-1.938,7.338-1.217,7.76,6.187-6.617,8.125-5.3c2.783,1.888-5.98,8.423-5.16,9.152s6.974-3.354,8.3-.853S329.873,196.082,330.485,196.91Z" transform="translate(-169.91 -151.623)" fill="#fcb67a"/>
        <path id="Path_2793" data-name="Path 2793" d="M168.568,201.681l-8.216,7.114a37.551,37.551,0,0,0-4.389-4.862c-1.458-1.077-3.967-2.915-4.8-3.735,0,0-6.708,1.723-8.282.083s4.431-2.543,5.044-3.371-8.224-3.76-6.9-6.253,7.47,1.574,8.29.853-7.934-7.263-5.16-9.152c1.946-1.317,7.4,5.723,8.125,5.3s-3.694-7.015-1.217-7.76,4.63,6.65,6.079,6.551,1.814-4.456,5.027-4.8,3.636,1.93,2.609,2.352-3.42,2.551-2.551,6.369a20.642,20.642,0,0,0,2.186,4.9C166.266,198.534,168.568,201.681,168.568,201.681Z" transform="translate(-140.886 -151.623)" fill="#fcb67a"/>
        <path id="Path_2794" data-name="Path 2794" d="M168.568,202.2l-8.216,7.114a37.551,37.551,0,0,0-4.389-4.862c-1.458-1.077-3.967-2.915-4.8-3.735,0,0-6.708,1.723-8.282.083s4.431-2.543,5.044-3.371-8.224-3.76-6.9-6.253,7.47,1.574,8.29.853-7.934-7.263-5.16-9.152c0,0,6.795,8.829,10.165,12.39s3.7,7.272,10.092.53C166.266,199.055,168.568,202.2,168.568,202.2Z" transform="translate(-140.886 -152.144)" fill="#6b100b" opacity="0.22"/>
        <path id="Path_2795" data-name="Path 2795" d="M322.725,203.726c-.1.066-.19.141-.282.207a37.155,37.155,0,0,0-4.4,4.862l-8.216-7.114s5.483-7.487,6.344-11.3-1.516-5.947-2.543-6.369-.6-2.7,2.609-2.352,3.578,4.7,5.027,4.8,3.594-7.3,6.071-6.551-1.938,7.338-1.217,7.76,6.187-6.617,8.125-5.3c0,0-9.458,9.475-11.893,11.959C320.125,196.6,316.249,198.095,322.725,203.726Z" transform="translate(-169.91 -151.623)" fill="#6b100b" opacity="0.22"/>
        <path id="Path_2796" data-name="Path 2796" d="M269.371,214.428q-.807,1.7-1.805,3.42c-8.646,14.8-27.612,29.335-39.091,28.813a11.465,11.465,0,0,1-1.8-.215c-11.628-2.41-6.3-11.156-5.955-11.7-.406.5-7.81,9.442-16.266,7.288-8.7-2.211-4.555-9.8-4.837-9.938s-3.313,4.282-10.071,3.04-6.626-8.978-2.625-13.665,8.895-11.711,6-34.627,11.28-35.638,19.951-33.7c4.34.961,4.373,1.035,4.373,1.035s8.257-4.8,15.189-4.216a12.174,12.174,0,0,1,6.162,2.559c2,1.441,3.329,2.774,4.315,1.913a3.62,3.62,0,0,0,.886-1.706c1.433-4.787,7.951-6.5,9.657-6.874.265-.058.414-.083.414-.083a10.658,10.658,0,0,1,2.808.812h.008A15.1,15.1,0,0,1,260,148.611l.008.008c7.379,5.789,12.63,18.593,13.4,23.745C274.382,178.848,277.239,197.723,269.371,214.428Z" transform="translate(-148.318 -145.769)" fill="#702d27"/>
        <path id="Path_2797" data-name="Path 2797" d="M285.109,215.019q-.807,1.7-1.805,3.42c16.432-39.505-7.007-68.559-7.553-69.23,7.379,5.789,12.63,18.593,13.4,23.745C290.119,179.439,292.977,198.314,285.109,215.019Z" transform="translate(-164.055 -146.36)" fill="#fcfca2" opacity="0.35"/>
        <path id="Path_2798" data-name="Path 2798" d="M256.675,146.581c-.041.008-.2.033-.464.091-2.1.456-10.51,2.733-10.692,10.212a12.994,12.994,0,0,0-2.609-2.451,11.123,11.123,0,0,0-4.315-1.913c-2.957-.571-6.675.174-10.791,4.365-10.03,10.2-7.131,21.343,4.671,13.384a2.616,2.616,0,0,1,1.325-.5.973.973,0,0,1,.439.05c1.1.315,1.789,1.988,2.153,4.663,2.021,14.643-5.582,59.109-7.918,72.178a11.465,11.465,0,0,1-1.8-.215c-11.628-2.41-6.3-11.156-5.955-11.7-.406.5-7.81,9.442-16.266,7.288-8.7-2.211-4.555-9.8-4.837-9.938s-3.313,4.282-10.071,3.04-6.626-8.978-2.625-13.665,8.895-11.711,6-34.627,11.28-35.638,19.951-33.7c4.34.961,4.373,1.035,4.373,1.035,5.955-4.191,11.479-7.131,16.887-5.731,8.009,2.071,6.766,4.828,8.009,2.9.969-1.507,5.648-6.261,11.313-5.491.265-.058.414-.083.414-.083A10.658,10.658,0,0,1,256.675,146.581Z" transform="translate(-148.318 -145.769)" fill="#3a0604" opacity="0.87"/>
        <path id="Path_2799" data-name="Path 2799" d="M310.94,216.117c-.058,1.234-1.623,5.458-4.779,11.09-3.412,6.112-9,8.7-18.005,14.046-4.878,2.9-10.079,9.027-13.806,14.038-3.172,4.232-5.284,7.669-5.284,7.669a.6.6,0,0,0-.066-.017,4.684,4.684,0,0,1-.779-.273c-1.565-.687-4.82-2.907-5.168-9.475a42.531,42.531,0,0,1,.008-5.5c.29-3.76,1.176-4.414,1.176-4.414,10.849-11.081,12.771-18.916,15.388-24.68.373-.8.754-1.574,1.176-2.294a15.585,15.585,0,0,1,2.112-2.907,31,31,0,0,1,3.164-2.932l.248-.2c.356-.29.721-.571,1.085-.828.24-.2.489-.373.729-.547.621-.431,1.234-.845,1.83-1.217a27.66,27.66,0,0,1,7.454-3.545,1.086,1.086,0,0,1,.456-.017,58.838,58.838,0,0,1,5.7,4.721c2.8,2.493,5.8,5.267,6.907,6.468a2.613,2.613,0,0,1,.447.563A.768.768,0,0,1,310.94,216.117Z" transform="translate(-161.86 -155.79)" fill="#afacef"/>
        <path id="Path_2800" data-name="Path 2800" d="M207.352,265.925s-12.307-19.322-21.31-24.672-14.6-7.942-18.013-14.046-4.969-10.56-4.762-11.338,12.108-11.437,13.044-11.752c.5-.166,3.172.787,6.41,2.65a37.376,37.376,0,0,1,8.555,6.634c5.35,5.748,7.023,17.061,16.523,30.089.489.679,1,1.367,1.54,2.054,0,0,2.162.389,3.122,9.044C213.77,266.43,207.352,265.925,207.352,265.925Z" transform="translate(-144.728 -155.789)" fill="#afacef"/>
        <path id="Path_2801" data-name="Path 2801" d="M207.352,265.925s-12.307-19.322-21.31-24.672-14.6-7.942-18.013-14.046-4.969-10.56-4.762-11.338,12.108-11.437,13.044-11.752c.5-.166,3.172.787,6.41,2.65-1.8.6-3.893,2.013-5.947,4.978-5.243,7.595,2,14.634,12.557,20.3,8.568,4.6,17.035,28.29,18.873,27.047s1.01-7.04-.853-9.524c0,0-.364-3.984.447-6.079.489.679,1,1.367,1.54,2.054,0,0,2.162.389,3.122,9.044C213.77,266.43,207.352,265.925,207.352,265.925Z" transform="translate(-144.728 -155.789)" fill="#88d65a" opacity="0.25"/>
        <g id="Group_903" data-name="Group 903" transform="translate(15.167 44.347)">
          <path id="Path_2802" data-name="Path 2802" d="M320.586,213.962a6.711,6.711,0,0,1-1.375.994,2.875,2.875,0,0,1-2.071.265,2.726,2.726,0,0,1-.969-.48c-1.126-.886-2.866-2.261-4.7-3.818a60.334,60.334,0,0,1-6.145-5.839,3.115,3.115,0,0,1-.754-1.772,3.074,3.074,0,0,1,.58-2.054,6.284,6.284,0,0,1,1.35-1.342,3.117,3.117,0,0,1,3.47-.141c.489.3,1.077.679,1.739,1.135a38.006,38.006,0,0,1,4.025,3.205h.008a28.992,28.992,0,0,1,4.2,4.7c.406.58.8,1.184,1.151,1.814A2.742,2.742,0,0,1,320.586,213.962Z" transform="translate(-184.172 -199.314)" fill="#1cb0f6"/>
          <path id="Path_2803" data-name="Path 2803" d="M175.325,205.083a55.436,55.436,0,0,1-5.342,5.151h-.008c-2.12,1.839-4.207,3.5-5.5,4.505a2.762,2.762,0,0,1-3.048.215,7.2,7.2,0,0,1-1.375-.994,2.74,2.74,0,0,1-.5-3.338,29.5,29.5,0,0,1,7.487-8.323,39.014,39.014,0,0,1,3.628-2.526,3.132,3.132,0,0,1,3.478.141,6.052,6.052,0,0,1,1.342,1.342A3.089,3.089,0,0,1,175.325,205.083Z" transform="translate(-159.2 -199.314)" fill="#1cb0f6"/>
        </g>
        <path id="Path_2804" data-name="Path 2804" d="M303.577,208.015a5.21,5.21,0,0,0,.745,2.907s-8.589-2.029-17.367,9.889-9.342,20.481-14.444,25.724c-3.6,3.71-3.793,9.309-1.54,9.781.82.182,1.963-.323,3.379-1.847-3.172,4.232-5.284,7.669-5.284,7.669a.6.6,0,0,0-.066-.017,4.686,4.686,0,0,1-.779-.273c-1.565-.687-4.82-2.907-5.168-9.475a42.531,42.531,0,0,1,.008-5.5c.29-3.76,1.176-4.414,1.176-4.414,10.849-11.081,12.771-18.916,15.388-24.68.373-.8.754-1.574,1.176-2.294a15.586,15.586,0,0,1,2.112-2.907,31,31,0,0,1,3.164-2.932l.248-.2c.356-.29.721-.571,1.085-.828.24-.2.489-.373.729-.547.621-.431,1.234-.845,1.83-1.217a27.66,27.66,0,0,1,7.454-3.545,3.074,3.074,0,0,1,.58-2.054,6.284,6.284,0,0,1,1.35-1.342,3.117,3.117,0,0,1,3.47-.141c.489.3,1.077.679,1.739,1.135a38.009,38.009,0,0,1,4.025,3.205c-.207.025-3.6.563-4.688,2.75A3,3,0,0,0,303.577,208.015Z" transform="translate(-161.86 -154.968)" fill="#88d65a" opacity="0.25"/>
        <path id="Path_2805" data-name="Path 2805" d="M234.191,319.913H212.7l24.91,22.638,32.512-22.638-12.7-9.524Z" transform="translate(-153.224 -174.05)" fill="#1c1c63"/>
        <path id="Path_2806" data-name="Path 2806" d="M268.95,303.6s-.166.19-.489.538c-.456.472-1.209,1.226-2.261,2.153-.779.687-1.723,1.474-2.832,2.3h-.008a48.568,48.568,0,0,1-19.115,8.671,29.555,29.555,0,0,1-18.436-2.294,36.907,36.907,0,0,1-8.323-5.251c-.646-.538-.986-.878-.986-.878a16.675,16.675,0,0,0,1.524-3.247c4.207-11.951-1.524-31.6-1.524-31.6,4.282-4.828,5.11-10.974,3.594-14.419-.174-.4-.331-.779-.464-1.143a17.04,17.04,0,0,1-1.143-4.82l1.607-.248a2.967,2.967,0,0,1,.812-.157c.845-.1,2.311-.215,4.166-.34.389-.025.8-.05,1.234-.083.986-.058,2.054-.124,3.189-.19.919-.058,1.872-.108,2.857-.166,1.242-.066,2.526-.141,3.826-.207,4.249-.232,8.588-.456,11.992-.638.282-.017.555-.033.828-.041,1.723-.1,3.155-.182,4.141-.248a12.759,12.759,0,0,0,1.458-.141,2.235,2.235,0,0,1,1.656.2,24.806,24.806,0,0,0-.687,4.042,43.611,43.611,0,0,0-.141,7.214c.306,5.267,3.329,7.371,4.82,8.1a7.572,7.572,0,0,0,.77.306.612.612,0,0,1,.066.017v9.11c0,4.828,4.423,16.564,5.938,17.939a6.286,6.286,0,0,1,1.441,2.907A18.551,18.551,0,0,1,268.95,303.6Z" transform="translate(-153.876 -163.858)" fill="#1cb0f6"/>
        <path id="Path_2807" data-name="Path 2807" d="M254.593,252.686c-.464,2.584-2.882,9.607-15.736,9.8a24.275,24.275,0,0,1-10.427-1.822,11.922,11.922,0,0,1-6.584-6.51,1.729,1.729,0,0,1-.041-1.118,1.889,1.889,0,0,1,.613-.928,5.325,5.325,0,0,1,1.681-.977,2.306,2.306,0,0,1,2.725.911c.108.174.232.373.381.571a10.467,10.467,0,0,0,2.228,2.344c1.946,1.507,4.944,2.766,9.425,2.336,7.106-.671,9.458-4.033,10.212-5.88a.626.626,0,0,0,.05-.108,2.061,2.061,0,0,1,2.087-1.234,5.132,5.132,0,0,1,2.65.9,1.585,1.585,0,0,1,.182.149A1.718,1.718,0,0,1,254.593,252.686Z" transform="translate(-154.775 -163.686)" fill="#6525c1"/>
        <path id="Path_2808" data-name="Path 2808" d="M263.36,308.617a48.568,48.568,0,0,1-19.115,8.671c-15.877,3.313-27.745-8.423-27.745-8.423,6.9-11.181,0-34.851,0-34.851,4.282-4.828,5.11-10.974,3.594-14.419a18,18,0,0,1-1.607-5.963l1.607-.248a2.967,2.967,0,0,1,.812-.157,1.888,1.888,0,0,1,.613-.928,5.325,5.325,0,0,1,1.681-.977,2.306,2.306,0,0,1,2.725.911c.108.174.232.373.381.571a10.467,10.467,0,0,0,2.228,2.344s-5.665,2.021-1,5.706l.017.017s-.422,9.632-2.766,13.144S224.79,324.784,263.36,308.617Z" transform="translate(-153.876 -163.879)" fill="#5b055b" opacity="0.25"/>
        <g id="Group_905" data-name="Group 905" transform="translate(39.258 43.652)">
          <path id="Path_2809" data-name="Path 2809" d="M204.912,216.426c-6.319,2.882-12.034.431-14.792-3.992s-2.485-10.485,1.383-13.251c2.162-1.549,4.977-.273,7.04,1.143.6.422,1.143.853,1.582,1.226.721.621,1.168,1.085,1.168,1.085Z" transform="translate(-188.288 -198.476)" fill="#fcb67a"/>
          <g id="Group_904" data-name="Group 904" transform="translate(3.614 4.161)" opacity="0.66">
            <path id="Path_2810" data-name="Path 2810" d="M192.664,211.644a10.224,10.224,0,0,1,3.45-8.144" transform="translate(-192.651 -203.5)" fill="none" stroke="#a8500f" stroke-linecap="round" stroke-linejoin="round" stroke-width="1"/>
            <path id="Path_2811" data-name="Path 2811" d="M199.424,211.793s-3.975-.61-5.991-3.411" transform="translate(-192.786 -204.339)" fill="none" stroke="#a8500f" stroke-linecap="round" stroke-linejoin="round" stroke-width="1"/>
          </g>
        </g>
        <path id="Path_2812" data-name="Path 2812" d="M204.912,216.426c-6.319,2.882-12.034.431-14.792-3.992s-2.485-10.485,1.383-13.251c2.162-1.549,4.977-.273,7.04,1.143,0,0-5.358-1.458-6,4.5a7.3,7.3,0,0,0,.025,1.805.34.34,0,0,0,.008.091c.671,5.1,6,9.1,8.473,8.183,2.228-.82-3.3-8.928-.928-13.351.721.621,1.168,1.085,1.168,1.085Z" transform="translate(-149.03 -154.824)" fill="#6b100b" opacity="0.13"/>
        <g id="Group_907" data-name="Group 907" transform="translate(111.504 43.654)">
          <path id="Path_2813" data-name="Path 2813" d="M290.32,212.435a11.221,11.221,0,0,1-4.489,4.1,11.749,11.749,0,0,1-10.311-.108l3.619-13.79s4.066-4.257,7.661-4.158a3.847,3.847,0,0,1,2.137.7,7.113,7.113,0,0,1,1.93,2.087l.017.017C292.788,204.4,292.506,208.94,290.32,212.435Z" transform="translate(-275.52 -198.478)" fill="#fcb67a"/>
          <g id="Group_906" data-name="Group 906" transform="translate(6.377 4.159)" opacity="0.74">
            <path id="Path_2814" data-name="Path 2814" d="M290.5,211.644a10.223,10.223,0,0,0-3.451-8.144" transform="translate(-283.879 -203.5)" fill="none" stroke="#a8500f" stroke-linecap="round" stroke-linejoin="round" stroke-width="1"/>
            <path id="Path_2815" data-name="Path 2815" d="M283.22,211.793s3.975-.61,5.99-3.411" transform="translate(-283.22 -204.339)" fill="none" stroke="#a8500f" stroke-linecap="round" stroke-linejoin="round" stroke-width="1"/>
          </g>
        </g>
        <path id="Path_2816" data-name="Path 2816" d="M281.9,203.971c-4.274,7.719,1.251,17.028,8.423,8.464-2.766,4.423-8.473,6.874-14.8,3.992l3.619-13.79s5.93-6.212,9.8-3.454a7.113,7.113,0,0,1,1.93,2.087C290.552,200.948,286.022,196.525,281.9,203.971Z" transform="translate(-164.016 -154.824)" fill="#6b100b" opacity="0.13"/>
        <path id="Path_2817" data-name="Path 2817" d="M250.791,248.249a6.863,6.863,0,0,1-.174,1.325c-.505,2.41-2.576,7.3-10.907,7.5-11.09.282-13.21-7.454-13.21-7.454a12.179,12.179,0,0,0,7.031-5.657c.82-1.516,0-6.559,0-6.559,3.586-1.863,8.564,0,8.564,0a8.465,8.465,0,0,0-.033,2.4,14.347,14.347,0,0,0,1,3.884C244.58,247.421,250.791,248.249,250.791,248.249Z" transform="translate(-155.594 -161.37)" fill="#e0935a"/>
        <path id="Path_2818" data-name="Path 2818" d="M250.617,249.575c-.505,2.41-2.576,7.3-10.907,7.5-11.09.282-13.21-7.454-13.21-7.454a12.179,12.179,0,0,0,7.031-5.657c.82-1.516,0-6.559,0-6.559,3.586-1.863,8.564,0,8.564,0a8.465,8.465,0,0,0-.033,2.4c-1.4.24-3.106.538-4.282.787-2.311.472,1.425,5.358-2.576,7.429s2.816,9.234,13.823,2.377A10.6,10.6,0,0,1,250.617,249.575Z" transform="translate(-155.594 -161.37)" fill="#6b100b" opacity="0.22"/>
        <path id="Path_2819" data-name="Path 2819" d="M267.819,191.2l-.008.133c-.041.9-.108,1.83-.207,2.774-.133,1.317-.323,2.667-.58,4.025a34.354,34.354,0,0,1-5.474,13.624,25.944,25.944,0,0,1-8.729,7.876l-.008.008c-4.514,2.526-10.3,4.124-17.724,4.274-14.137.282-22.047-5.317-26.378-12.556a35.078,35.078,0,0,1-4.29-12.15,59.71,59.71,0,0,1-.058-18.08c1.93-13.119,10.079-24.382,33.269-24.3,14.535.058,21.765,4.961,25.558,11.214a32.614,32.614,0,0,1,3.975,11.7A55.187,55.187,0,0,1,267.819,191.2Z" transform="translate(-151.677 -147.669)" fill="#fcb67a"/>
        <g id="Group_908" data-name="Group 908" transform="translate(52.743 47.813)" opacity="0.53">
          <path id="Path_2820" data-name="Path 2820" d="M219.561,211.641a8.154,8.154,0,0,1-8.15,8.15,7.88,7.88,0,0,1-2.551-.414,35.077,35.077,0,0,1-4.29-12.15,8.147,8.147,0,0,1,14.99,4.414Z" transform="translate(-204.57 -203.5)" fill="#f75e74"/>
          <path id="Path_2821" data-name="Path 2821" d="M277.224,206.15a34.354,34.354,0,0,1-5.474,13.624c-.182.008-.356.017-.538.017a8.145,8.145,0,1,1,6.013-13.641Z" transform="translate(-214.62 -203.5)" fill="#f75e74"/>
        </g>
        <path id="Path_2822" data-name="Path 2822" d="M267.819,191.2l-.008.133-.207,2.774s.5-20.158-7.561-27.612c0,0-3.777,5.541-13.168,9.4s-10.843.991-9.808-1.221c0,0-7.485,6.6-14.484,8.675-6.816,2.029-5.36-3.6-5.236-3.989-.141.248-.8,2.766-5.324,5.632,0,0-8.34,46.658,40.764,34.657a.03.03,0,0,0,.025-.008c-4.514,2.526-10.3,4.124-17.724,4.274-37.369.737-31.207-39.538-30.726-42.785,1.93-13.119,10.079-24.382,33.269-24.3,23.09.091,27.745,12.423,29.534,22.916A55.187,55.187,0,0,1,267.819,191.2Z" transform="translate(-151.677 -147.669)" fill="#6b100b" opacity="0.22"/>
        <g id="Group_909" data-name="Group 909" transform="translate(55.446 35.683)">
          <path id="Path_2823" data-name="Path 2823" d="M225.332,198.223a.705.705,0,0,1-.692-.651c-.02-.28-.051-.563-.089-.841a11.355,11.355,0,0,0-.292-1.462,10.2,10.2,0,0,0-.467-1.388,8.48,8.48,0,0,0-.668-1.259l-.432-.542a5.859,5.859,0,0,0-.491-.471,2.6,2.6,0,0,0-.546-.393,2.155,2.155,0,0,0-.594-.312c-.213-.075-.412-.181-.633-.238l-.678-.127a2.83,2.83,0,0,0-.7-.05l-.647-.015-.783.111a2.565,2.565,0,0,0-.712.153l-.613.2-.6.311a2.422,2.422,0,0,0-.557.376,2.566,2.566,0,0,0-.505.447,5.528,5.528,0,0,0-.446.515l-.385.578a8.727,8.727,0,0,0-.566,1.307,9.065,9.065,0,0,0-.353,1.419,13.383,13.383,0,0,0-.18,1.475,11.349,11.349,0,0,0-.011,1.47h0l.042.706-.6.076a2.069,2.069,0,0,1-.453.008,3.294,3.294,0,0,1-.391-.049,3.761,3.761,0,0,1-.728-.21,4.328,4.328,0,0,1-1.227-.75,4.607,4.607,0,0,1-.485-.493,5.332,5.332,0,0,1-.408-.537,7.452,7.452,0,0,1-.615-1.159,7.228,7.228,0,0,0,.885.919,4.784,4.784,0,0,0,.5.37,3.976,3.976,0,0,0,.524.3,3.4,3.4,0,0,0,1.1.3,2.573,2.573,0,0,0,.536,0,2.254,2.254,0,0,0,.25-.042.585.585,0,0,0,.184-.062l-.553.783h0a12.612,12.612,0,0,1-.064-1.691,11.218,11.218,0,0,1,.149-1.668,10.741,10.741,0,0,1,.388-1.652,10.11,10.11,0,0,1,.651-1.56.758.758,0,0,1,.044-.076l.456-.71a4.672,4.672,0,0,1,.474-.57,7.926,7.926,0,0,1,.793-.745,3.574,3.574,0,0,1,.719-.5c.249-.132.494-.272.75-.393a.871.871,0,0,1,.109-.041l.84-.258a3.623,3.623,0,0,1,.832-.165l.784-.1.025,0,.078-.007h.069l.109,0,.219,0,.436.012a4,4,0,0,1,.873.075l.83.171c.029.006.058.012.086.021.233.07.46.172.687.266a5.772,5.772,0,0,1,.963.513,3.539,3.539,0,0,1,.67.5,7.545,7.545,0,0,1,.639.632l.516.667c.018.024.036.049.051.075a9.794,9.794,0,0,1,1.281,3.117,12.756,12.756,0,0,1,.275,1.647c.031.307.056.61.07.918a.714.714,0,0,1-.724.745Z" transform="translate(-207.833 -188.854)" fill="#471714"/>
          <path id="Path_2824" data-name="Path 2824" d="M258.053,198.223a.7.7,0,0,0,.692-.651c.021-.28.052-.563.089-.841a11.358,11.358,0,0,1,.292-1.462,10.193,10.193,0,0,1,.467-1.388,8.485,8.485,0,0,1,.668-1.259l.432-.542a6,6,0,0,1,.491-.471,2.62,2.62,0,0,1,.546-.393,2.167,2.167,0,0,1,.594-.312c.213-.075.413-.181.634-.238l.677-.127a2.833,2.833,0,0,1,.7-.05l.647-.015.783.111a2.558,2.558,0,0,1,.712.153l.613.2.6.311a2.458,2.458,0,0,1,.557.376,2.587,2.587,0,0,1,.5.447,5.538,5.538,0,0,1,.447.515l.384.578a8.643,8.643,0,0,1,.566,1.307,9.065,9.065,0,0,1,.353,1.419,13.375,13.375,0,0,1,.18,1.475,11.343,11.343,0,0,1,.011,1.47h0l-.042.706.6.076a2.07,2.07,0,0,0,.453.008,3.293,3.293,0,0,0,.391-.049,3.76,3.76,0,0,0,.728-.21,4.328,4.328,0,0,0,1.227-.75,4.537,4.537,0,0,0,.485-.493,5.453,5.453,0,0,0,.408-.537,7.517,7.517,0,0,0,.614-1.159,7.23,7.23,0,0,1-.885.919,4.781,4.781,0,0,1-.5.37,3.871,3.871,0,0,1-.524.3,3.4,3.4,0,0,1-1.1.3,2.573,2.573,0,0,1-.536,0,2.288,2.288,0,0,1-.25-.042.585.585,0,0,1-.184-.062l.553.783h0a12.609,12.609,0,0,0,.064-1.691,11.1,11.1,0,0,0-.149-1.668,10.738,10.738,0,0,0-.388-1.652,10.03,10.03,0,0,0-.651-1.56.761.761,0,0,0-.043-.076l-.457-.71a4.671,4.671,0,0,0-.474-.57,7.836,7.836,0,0,0-.793-.745,3.593,3.593,0,0,0-.718-.5c-.25-.132-.494-.272-.751-.393a.871.871,0,0,0-.109-.041l-.84-.258a3.623,3.623,0,0,0-.832-.165l-.784-.1-.025,0-.078-.007h-.068l-.109,0-.218,0-.436.012a4,4,0,0,0-.873.075l-.83.171c-.029.006-.057.012-.085.021-.234.07-.46.172-.688.266a5.732,5.732,0,0,0-.962.513,3.519,3.519,0,0,0-.671.5,7.548,7.548,0,0,0-.639.632l-.516.667c-.018.024-.036.049-.051.075a9.845,9.845,0,0,0-1.281,3.117,12.754,12.754,0,0,0-.275,1.647c-.031.307-.056.61-.069.918a.713.713,0,0,0,.723.745Z" transform="translate(-216.336 -188.854)" fill="#471714"/>
        </g>
        <path id="Path_2825" data-name="Path 2825" d="M244.905,205.145c-.141.215-.273.414-.414.6-1.367,1.83-2.634,2.112-4.141.232-1.656-2.071-2.824-3.951,1.1-4.108.845-.033,1.549-.033,2.12,0C246.677,202.047,246.181,203.165,244.905,205.145Z" transform="translate(-157.709 -155.402)" fill="#cc7e48"/>
        <path id="Path_2826" data-name="Path 2826" d="M255.574,165.887c-4.282,3.594-9.094,7.545-13.922,8.506a6.457,6.457,0,0,1-2.294.091c-2.071-.34-3-2.021-2.153-4.663a10.422,10.422,0,0,1,.638-1.549c-.315.464-.679.969-1.077,1.5-2.866,3.785-7.727,8.87-13.334,9.044-6.236.19-4.737-4.083-2.079-8.058-3.4,3.835-8.812,8.663-14.626,8.746-9.657.141-4.969-11.868,4.555-18.775,3.1-2.244,6.062-4.547,8.928-6.551,5.955-4.191,11.479-7.131,16.887-5.731,8.009,2.071,6.766,4.828,8.009,2.9.969-1.507,5.648-6.261,11.313-5.491a9.488,9.488,0,0,1,2.758.82,12.3,12.3,0,0,1,2.211,1.35C269.165,153.961,259.856,162.3,255.574,165.887Z" transform="translate(-151.284 -145.769)" fill="#702d27"/>
        <path id="Path_2827" data-name="Path 2827" d="M246.719,179.473c-2.071-.34-3-2.021-2.153-4.663C245.667,175.125,246.354,176.8,246.719,179.473Z" transform="translate(-158.644 -150.758)" fill="#3a0604"/>
        <path id="Path_2828" data-name="Path 2828" d="M259.641,146.581c-.041.008-.2.033-.464.091-2.1.456-10.51,2.733-10.692,10.212a12.994,12.994,0,0,0-2.609-2.451,11.123,11.123,0,0,0-4.315-1.913c-2.957-.571-6.675.174-10.791,4.365-10.03,10.2-7.131,21.343,4.671,13.384a2.616,2.616,0,0,1,1.325-.5c-2.866,3.785-7.727,8.87-13.334,9.044-6.236.19-4.737-4.083-2.079-8.058-3.4,3.835-8.812,8.663-14.626,8.746-9.657.141-4.969-11.868,4.555-18.775,3.1-2.244,6.062-4.547,8.928-6.551,5.955-4.191,11.479-7.131,16.887-5.731,8.009,2.071,6.766,4.828,8.009,2.9.969-1.507,5.648-6.261,11.313-5.491.265-.058.414-.083.414-.083A10.658,10.658,0,0,1,259.641,146.581Z" transform="translate(-151.284 -145.769)" fill="#3a0604" opacity="0.59"/>
        <g id="Group_910" data-name="Group 910" transform="translate(60.347 22.411)">
          <path id="Path_2829" data-name="Path 2829" d="M262.5,175.869c4.872-.734,5.657-.85,9.168.81,3.353,1.585.77-3.019-3.992-3.709C260.967,172,259.2,176.366,262.5,175.869Z" transform="translate(-221.848 -172.829)" fill="#491613"/>
          <path id="Path_2830" data-name="Path 2830" d="M224.438,175.869c-4.871-.734-5.657-.85-9.167.81-3.353,1.585-.771-3.019,3.991-3.709C225.97,172,227.737,176.366,224.438,175.869Z" transform="translate(-213.751 -172.829)" fill="#491613"/>
        </g>
        <path id="Path_2831" data-name="Path 2831" d="M220.5,215.333h36.441s-.967,12.975-18.22,12.975S220.5,215.333,220.5,215.333Z" transform="translate(-154.564 -157.72)" fill="#6b100b"/>
        <path id="Path_2832" data-name="Path 2832" d="M255.951,216.8c-.215,2.253-1.706,3.222-2.509,3.222-.969,0-28.159.555-29.956,0-1.077-.331-1.458-1.971-1.582-3.222a10.371,10.371,0,0,1-.075-1.474h34.1A6.346,6.346,0,0,1,255.951,216.8Z" transform="translate(-154.791 -157.719)" fill="#fff"/>
        <path id="Path_2833" data-name="Path 2833" d="M262.579,341.171c-.514.215-1.027.431-1.549.629q-1.826.733-3.719,1.358c-.017.008-.033.008-.05.017l-2.576-4.82-1.64-3.056-.547-1.027s.066-.05.182-.149c1.516-1.217,12.075-9.839,16.871-16.6.712-1,1.367-1.988,1.988-2.94.729-1.118,1.408-2.186,2.079-3.2.34-.505.679-1,1.027-1.474,2.576-3.619,5.342-6.187,10.51-6.7h.041c5.913-.58,8.555.3,9.889,2.791a12.193,12.193,0,0,1,1.1,3.835C296.95,314.809,283.094,332.458,262.579,341.171Z" transform="translate(-160.061 -172.788)" fill="#3b369e"/>
        <path id="Path_2834" data-name="Path 2834" d="M295.086,306.005s-7.976-3.52-12.241,6.543S257.478,330.33,259.9,335.8c.8,1.789,1.739,3.644,2.675,5.367-.514.215-1.027.431-1.549.629q-1.826.733-3.719,1.358c-.017.008-.033.008-.05.017l-2.576-4.82-1.64-3.056-.547-1.027s.066-.05.182-.149c1.516-1.217,12.075-9.839,16.871-16.6.712-1,1.367-1.988,1.988-2.94.729-1.118,1.408-2.186,2.079-3.2.34-.505.679-1,1.027-1.474,2.576-3.619,5.342-6.187,10.51-6.7h.041C291.111,302.635,293.753,303.513,295.086,306.005Z" transform="translate(-160.061 -172.788)" fill="#230335" opacity="0.25"/>
        <path id="Path_2835" data-name="Path 2835" d="M245.059,337.25s4.555,4.348,7.454,13.458c0,0-19.256,6.419-21.119,8.489s.414,9.938-2.485,11.181-9.351-14.286-7.264-18.842S231.393,353.193,245.059,337.25Z" transform="translate(-154.69 -178.665)" fill="#152447"/>
        <g id="Group_911" data-name="Group 911" transform="translate(56.872 48.295)" opacity="0.39">
          <circle id="Ellipse_24" data-name="Ellipse 24" cx="0.853" cy="0.853" r="0.853" transform="translate(0 5.267)" fill="#702d27"/>
          <path id="Path_2836" data-name="Path 2836" d="M217.176,208.205a.853.853,0,1,1-.853-.853A.853.853,0,0,1,217.176,208.205Z" transform="translate(-210.572 -204.643)" fill="#702d27"/>
          <path id="Path_2837" data-name="Path 2837" d="M265.176,204.934a.853.853,0,1,1-.853-.852A.853.853,0,0,1,265.176,204.934Z" transform="translate(-218.818 -204.082)" fill="#702d27"/>
          <path id="Path_2838" data-name="Path 2838" d="M264.146,210.264a.853.853,0,1,1-.853-.853A.852.852,0,0,1,264.146,210.264Z" transform="translate(-218.641 -204.997)" fill="#702d27"/>
          <path id="Path_2839" data-name="Path 2839" d="M271.375,209.234a.853.853,0,1,1-.852-.852A.853.853,0,0,1,271.375,209.234Z" transform="translate(-219.883 -204.82)" fill="#702d27"/>
          <path id="Path_2840" data-name="Path 2840" d="M221.176,211.293a.853.853,0,1,1-.853-.852A.853.853,0,0,1,221.176,211.293Z" transform="translate(-211.259 -205.174)" fill="#702d27"/>
          <circle id="Ellipse_25" data-name="Ellipse 25" cx="0.853" cy="0.853" r="0.853" transform="translate(53.782)" fill="#702d27"/>
          <path id="Path_2841" data-name="Path 2841" d="M216.146,215.156a.853.853,0,1,1-.853-.852A.853.853,0,0,1,216.146,215.156Z" transform="translate(-210.395 -205.838)" fill="#702d27"/>
        </g>
        <path id="Path_2842" data-name="Path 2842" d="M242.385,293.175s-13.948-10.454-8.355-14.712,8.745,3.39,8.745,3.39,1.974-7.36,6.824-4.122S249.043,289.161,242.385,293.175Z" transform="translate(-156.661 -168.298)" fill="#ef9a01"/>
        <path id="Path_2843" data-name="Path 2843" d="M278.009,193.527l-.008.133c-.041.9-.108,1.83-.207,2.774-.132,1.317-.323,2.667-.58,4.025a34.354,34.354,0,0,1-5.474,13.624,25.944,25.944,0,0,1-8.729,7.876c.5-.431,21.249-15.454,10.369-51.589a32.615,32.615,0,0,1,3.975,11.7A55.188,55.188,0,0,1,278.009,193.527Z" transform="translate(-161.867 -149.995)" fill="#fcfca2" opacity="0.52"/>
        <path id="Path_2844" data-name="Path 2844" d="M292.459,212.435a11.221,11.221,0,0,1-4.489,4.1l.025-.025c9.524-9.93.944-18.03.944-18.03a3.847,3.847,0,0,1,2.137.7,7.113,7.113,0,0,1,1.93,2.087l.017.017C294.927,204.4,294.645,208.94,292.459,212.435Z" transform="translate(-166.155 -154.824)" fill="#fcfca2" opacity="0.52"/>
        <path id="Path_2845" data-name="Path 2845" d="M255.951,216.8H221.9a10.371,10.371,0,0,1-.075-1.474h34.1A6.346,6.346,0,0,1,255.951,216.8Z" transform="translate(-154.791 -157.719)" fill="#6b100b" opacity="0.11"/>
        <path id="Path_2846" data-name="Path 2846" d="M244.491,205.741c-1.367,1.83-2.634,2.112-4.141.232-1.656-2.071-2.824-3.951,1.1-4.108.845-.033,1.549-.033,2.12,0,0,0-4.3,1.281-2.468,3.094C243.125,206.963,243.125,206.552,244.491,205.741Z" transform="translate(-157.709 -155.402)" fill="#3a0604" opacity="0.26"/>
        <path id="Path_2847" data-name="Path 2847" d="M169.975,210.854c-2.12,1.839-4.207,3.5-5.5,4.505a2.762,2.762,0,0,1-3.048.215,7.205,7.205,0,0,1-1.375-.994,2.74,2.74,0,0,1-.5-3.338,29.5,29.5,0,0,1,7.487-8.323C165.693,205.769,163.01,212.693,169.975,210.854Z" transform="translate(-144.032 -155.587)" fill="#5b055b" opacity="0.25"/>
        <path id="Path_2848" data-name="Path 2848" d="M235.131,335.872l-4.265,9.152c-23.786-6.361-41.228-25.724-40.7-31.14s2.278-7.595,10.651-7.222c4.828.207,7.677,2.319,10.3,5.416v.008c1.921,2.261,3.71,5.044,6.062,8,3.652,4.588,10.237,9.947,14.328,13.086C233.665,334.829,235.131,335.872,235.131,335.872Z" transform="translate(-149.351 -173.403)" fill="#3b369e"/>
        <path id="Path_2849" data-name="Path 2849" d="M235.131,335.872l-4.265,9.152c-23.786-6.361-41.228-25.724-40.7-31.14s2.278-7.595,10.651-7.222c4.828.207,7.677,2.319,10.3,5.416v.008s-5.715-5.276-9.748,3.959,22.055,22.362,25.368,22.635c2.957.248,1.847-.613,4.77-5.508C233.665,334.829,235.131,335.872,235.131,335.872Z" transform="translate(-149.351 -173.403)" fill="#230335" opacity="0.25"/>
        <path id="Path_2850" data-name="Path 2850" d="M245.374,338.309s-4.309,4.592-6.7,13.848c0,0,19.58,5.35,21.554,7.315s.133,9.946,3.1,11.028,8.551-14.779,6.216-19.213S259.895,353.477,245.374,338.309Z" transform="translate(-157.685 -178.846)" fill="#152447"/>
        <path id="Path_2851" data-name="Path 2851" d="M314.985,212.97a39.038,39.038,0,0,0-3.462,3.859,8.671,8.671,0,0,0-.489.737c-1.234,2.013-.779,3.1-4.141,9.019-5.077,8.945-18.378,12.655-24.945,19.827-3.106,3.387-7.023,7.512-9.938,12.249a30.964,30.964,0,0,0-2.741,5.5c-.008.008-.008.017-.008.033a20.34,20.34,0,0,0-.828,12.481,76.121,76.121,0,0,0,7,17.441A13.576,13.576,0,0,1,276.443,292a2.886,2.886,0,0,0-.4-.462c-1.516-1.375-5.938-13.11-5.938-17.939v-9.11s2.112-3.437,5.284-7.669c3.727-5.011,8.928-11.139,13.806-14.038,9-5.35,14.593-7.934,18.005-14.046,3.155-5.632,4.721-9.856,4.779-11.09a2.618,2.618,0,0,0,1.126-.34,6.712,6.712,0,0,0,1.375-.994A2.742,2.742,0,0,0,314.985,212.97Z" transform="translate(-162.691 -157.314)" fill="#f9f8ca" opacity="0.47"/>
      </g>
    </g>
  </g>
</svg>
