<svg xmlns="http://www.w3.org/2000/svg" xmlns:xlink="http://www.w3.org/1999/xlink" width="428" height="414" viewBox="0 0 428 414">
  <defs>
    <clipPath id="clip-path">
      <rect id="Rectangle_181" data-name="Rectangle 181" width="428" height="414" transform="translate(0)" fill="none"/>
    </clipPath>
  </defs>
  <g id="Group_956" data-name="Group 956" transform="translate(0 -59)">
    <g id="Group_913" data-name="Group 913" transform="translate(-0.051 58.949)">
      <g id="BACKGROUND" transform="translate(0.051 0.051)">
        <g id="Group_875" data-name="Group 875">
          <g id="Group_874" data-name="Group 874" clip-path="url(#clip-path)">
            <g id="Group_872" data-name="Group 872" transform="translate(53.914 57.493)">
              <path id="Path_2717" data-name="Path 2717" d="M219.251,69.493c87.366-1.048,133.666,63.916,147.486,125.062s11.4,162.3-130.324,194.405S25.465,220,83.687,148.222c46.781-57.676,73.477-75.834,135.564-78.729" transform="translate(-63.029 -69.481)" fill="#fff" opacity="0.21"/>
              <path id="Path_2718" data-name="Path 2718" d="M213.075,127.562c69.553-10.981,110.1,37.816,121.628,107.566S298.838,361.2,230.34,381.642s-128.03-79.263-115.357-154.226S176.974,133.262,213.075,127.562Z" transform="translate(-70.253 -79.194)" fill="#fff" opacity="0.21"/>
            </g>
            <g id="Group_873" data-name="Group 873" transform="translate(-35.527 12.307)">
              <path id="Path_2719" data-name="Path 2719" d="M27.686,82.816s9.6-14.848,20.395-3.052c0,0,8.4-7.135,17.4.53s0,14.828,0,14.828,13.43-4.666,22.31,0,10.78,14.485,10.78,14.485,26.069-12.894,33.68-2.1-13.985,19.8-31.5,14.444h0s-16.009,11.414-31.339,4.14c0,0-2.133,9.318-16.529,8.222s-16.2-12.363-16.2-12.363,9.6,7.827-23.394,13.4-27.593-13.4-27.593-13.4-4.8,8.886-18.6,5.7-10.2-19.243,6-21.5c0,0-6.6-8.294,10.8-14.79S4.892,96.331,4.892,96.331-5.662,85.97,8.491,79.764,27.686,82.816,27.686,82.816Z" transform="translate(41.432 -25.279)" fill="#e3fffc"/>
              <path id="Path_2720" data-name="Path 2720" d="M172.946,259.183s8.008-12.389,17.018-2.547a11.137,11.137,0,0,1,14.514.442c7.508,6.4,0,12.373,0,12.373s11.206-3.893,18.617,0,8.994,12.086,8.994,12.086,21.753-10.758,28.1-1.751-11.669,16.519-26.282,12.052h0s-13.359,9.524-26.15,3.454c0,0-1.78,7.775-13.793,6.861s-13.514-10.315-13.514-10.315,8.008,6.531-19.521,11.185-23.024-11.185-23.024-11.185-4,7.415-15.516,4.761-8.508-16.057,5.005-17.939c0,0-5.505-6.92,9.009-12.341s17.518,4.14,17.518,4.14-8.805-8.646,3-13.824S172.946,259.183,172.946,259.183Z" transform="translate(18.9 -55.795)" fill="#e3fffc"/>
              <path id="Path_2721" data-name="Path 2721" d="M466.266,81.3s-6.641-10.274-14.112-2.112a9.237,9.237,0,0,0-12.037.367c-6.226,5.3,0,10.261,0,10.261s-9.292-3.228-15.438,0-7.458,10.024-7.458,10.024-18.039-8.922-23.306-1.453,9.678,13.7,21.8,9.995h0s11.079,7.9,21.686,2.865c0,0,1.476,6.448,11.438,5.69s11.207-8.555,11.207-8.555-6.642,5.416,16.188,9.276,19.093-9.276,19.093-9.276,3.32,6.149,12.867,3.948,7.056-13.316-4.151-14.877c0,0,4.566-5.739-7.471-10.234s-14.527,3.433-14.527,3.433,7.3-7.169-2.491-11.463S466.266,81.3,466.266,81.3Z" transform="translate(-21.01 -25.422)" fill="#e3fffc"/>
              <path id="Path_2722" data-name="Path 2722" d="M243.968,20.544s-7.095-10.975-15.075-2.256a9.865,9.865,0,0,0-12.858.392c-6.651,5.666,0,10.96,0,10.96s-9.927-3.449-16.491,0-7.967,10.707-7.967,10.707-19.27-9.531-24.9-1.551,10.337,14.633,23.282,10.676h0s11.834,8.438,23.165,3.061c0,0,1.576,6.887,12.217,6.077s11.972-9.138,11.972-9.138-7.094,5.786,17.292,9.909S275,49.471,275,49.471s3.547,6.568,13.745,4.217,7.538-14.224-4.433-15.891c0,0,4.877-6.13-7.981-10.932s-15.519,6.152-15.519,6.152,7.8-10.143-2.66-14.73S243.968,20.544,243.968,20.544Z" transform="translate(11.675 -14.922)" fill="#e3fffc"/>
            </g>
          </g>
        </g>
      </g>
    </g>
    <g id="Group_955" data-name="Group 955" transform="translate(12.02 -1.2)">
      <g id="Group_928" data-name="Group 928">
        <path id="Path_2852" data-name="Path 2852" d="M149.512,425.2H311.433l-.026-72.793,9.454-85.875c0-9.913-8.758-16.222-17.95-19.946-15.124-6.123-49.769-19.939-49.769-19.939s-3.554,21.764-23.281,21.764c-17.965,0-22.766-21.764-22.766-21.764s-36.807,12.484-49.765,19.939c-8.593,4.944-18.921,11.617-18.921,16.273l11.455,88.783Z" fill="#78a9dc"/>
        <path id="Path_2853" data-name="Path 2853" d="M253.142,226.7s-2.578,22.108-23.4,22.108c-19.206,0-22.646-22.108-22.646-22.108V204.15h46.047Z" fill="#e07569"/>
        <path id="Path_2854" data-name="Path 2854" d="M279.176,178.178c0,17.426-23.238,41.247-49.055,41.247-24.833,0-49-20.612-49-41.247l-1.96-38.243a50.945,50.945,0,0,1,50.955-50.951h0a50.947,50.947,0,0,1,50.965,50.951Z" fill="#ef8372"/>
        <path id="Path_2855" data-name="Path 2855" d="M287.113,163.267c-.211,5.926-3.931,10.6-8.319,10.46-4.4-.164-7.8-5.079-7.593-11s3.911-10.6,8.308-10.446S287.308,157.344,287.113,163.267Z" fill="#ef8372"/>
        <path id="Path_2856" data-name="Path 2856" d="M188.964,162.253c.185,5.927-3.224,10.842-7.61,10.986-4.4.128-8.115-4.551-8.3-10.476s3.2-10.83,7.6-10.972S188.769,156.331,188.964,162.253Z" fill="#ef8372"/>
        <path id="Path_2857" data-name="Path 2857" d="M319.921,425.2h39.571c-3.439-35.94-11.962-112.745-14.2-122.662-9.066-40.1-33.882-51.436-33.882-51.436s.249,39.624,0,97.047C311.371,356.37,316.817,400.646,319.921,425.2Z" fill="#78a9dc"/>
        <path id="Path_2858" data-name="Path 2858" d="M141.833,425.2c3.136-24.249,8.584-67.8,8.543-77.44-.25-57.423,0-97.048,0-97.048s-33.452,13.613-42.518,53.707c-2.217,9.81-6.669,85.2-8.378,120.781Z" fill="#78a9dc"/>
        <g id="Group_927" data-name="Group 927">
          <g id="Group_919" data-name="Group 919">
            <g id="Group_918" data-name="Group 918">
              <path id="Path_2859" data-name="Path 2859" d="M231.514,183.844c-.242,0-.5-.015-.747-.028a.784.784,0,0,1-.7-.852.747.747,0,0,1,.857-.719c1.576.154,2.778-.3,2.909-.652.066-.151-.1-.694-1.4-1.58-3.935-2.676-4.4-12-4.418-12.377a.8.8,0,0,1,.769-.825.757.757,0,0,1,.8.745c.118,2.477,1,9.311,3.72,11.163,1.737,1.155,2.4,2.306,2.01,3.4C234.868,183.348,233.184,183.844,231.514,183.844Z" fill="#10182b"/>
            </g>
          </g>
          <g id="Group_922" data-name="Group 922">
            <g id="Group_921" data-name="Group 921">
              <g id="Group_920" data-name="Group 920">
                <path id="Path_2860" data-name="Path 2860" d="M205.372,161.464a3.971,3.971,0,0,0-3,1.325,4.274,4.274,0,0,0-.946,2.753,3.993,3.993,0,0,0,6.981,2.779,4.181,4.181,0,0,0,.988-2.779A3.92,3.92,0,0,0,205.372,161.464Z" fill="#10182b"/>
              </g>
            </g>
          </g>
          <g id="Group_925" data-name="Group 925">
            <g id="Group_924" data-name="Group 924">
              <g id="Group_923" data-name="Group 923">
                <path id="Path_2861" data-name="Path 2861" d="M254.727,161.464a3.966,3.966,0,0,1,3,1.325,4.281,4.281,0,0,1,.947,2.753,3.992,3.992,0,0,1-6.979,2.779,4.144,4.144,0,0,1-.986-2.779A3.917,3.917,0,0,1,254.727,161.464Z" fill="#10182b"/>
              </g>
            </g>
          </g>
          <g id="Group_926" data-name="Group 926">
            <path id="Path_2862" data-name="Path 2862" d="M264.156,151.15s-4.423-5.484-14.287-2.153" fill="none" stroke="#10182b" stroke-linecap="round" stroke-linejoin="round" stroke-width="2.22"/>
            <path id="Path_2863" data-name="Path 2863" d="M197.038,151.15s4.422-5.484,14.282-2.153" fill="none" stroke="#10182b" stroke-linecap="round" stroke-linejoin="round" stroke-width="2.22"/>
          </g>
          <path id="Path_2864" data-name="Path 2864" d="M217.7,195.41c.219,6.872,6.4,12.4,14.023,12.4s13.807-5.531,14.011-12.4Z" fill="#fff"/>
        </g>
        <path id="Path_2865" data-name="Path 2865" d="M272.8,105.718s9.862-2.819-2.834-10.529a44.593,44.593,0,0,0-26.37-5.879s6.841-14.069-25.883-3.207c-26.731,8.872-41.411,28.491-38.553,68.344a148.625,148.625,0,0,0,1.848,15.22s2.639-16.184,13.2-21.744c9.862-5.194,8.937-18.582,7.628-22.1,4.48,5.136,18.44-3.1,33.587,9.336,9.852,8.085,20.291,7.961,34.1,7.424-1.282,11.772,9.645,26.444,9.645,26.444C288.519,132.011,272.8,105.718,272.8,105.718Z" fill="#10182b"/>
      </g>
      <g id="Group_931" data-name="Group 931">
        <g id="Group_929" data-name="Group 929">
          <path id="Path_2866" data-name="Path 2866" d="M316.828,203.732v40.693H278.307" fill="none" stroke="#fff" stroke-linecap="round" stroke-linejoin="round" stroke-width="2.932"/>
          <path id="Path_2867" data-name="Path 2867" d="M146.6,115.3V74.2h48.724" fill="none" stroke="#fff" stroke-linecap="round" stroke-linejoin="round" stroke-width="2.932"/>
          <path id="Path_2868" data-name="Path 2868" d="M276.136,74.2h40.692v38.521" fill="none" stroke="#fff" stroke-linecap="round" stroke-linejoin="round" stroke-width="2.932"/>
          <path id="Path_2869" data-name="Path 2869" d="M187.7,244.425H146.6V195.7" fill="none" stroke="#fff" stroke-linecap="round" stroke-linejoin="round" stroke-width="2.932"/>
        </g>
        <g id="Group_930" data-name="Group 930">
          <path id="Path_2870" data-name="Path 2870" d="M302.5,196.254V230.1H270.462" fill="none" stroke="#fff" stroke-linecap="round" stroke-linejoin="round" stroke-width="2.438"/>
          <path id="Path_2871" data-name="Path 2871" d="M160.93,122.707V88.527h40.522" fill="none" stroke="#fff" stroke-linecap="round" stroke-linejoin="round" stroke-width="2.438"/>
          <path id="Path_2872" data-name="Path 2872" d="M268.657,88.526H302.5v32.038" fill="none" stroke="#fff" stroke-linecap="round" stroke-linejoin="round" stroke-width="2.438"/>
          <path id="Path_2873" data-name="Path 2873" d="M195.11,230.1H160.93V189.575" fill="none" stroke="#fff" stroke-linecap="round" stroke-linejoin="round" stroke-width="2.438"/>
        </g>
      </g>
      <g id="Group_932" data-name="Group 932">
        <path id="Path_2874" data-name="Path 2874" d="M277.008,136.17a3.721,3.721,0,1,1-3.722-3.722A3.722,3.722,0,0,1,277.008,136.17Z" fill="#fff"/>
        <path id="Path_2875" data-name="Path 2875" d="M189.878,138.6a3.722,3.722,0,1,1-3.724-3.722A3.722,3.722,0,0,1,189.878,138.6Z" fill="#fff"/>
        <path id="Path_2876" data-name="Path 2876" d="M232.4,149.509a3.722,3.722,0,1,1-3.724-3.722A3.724,3.724,0,0,1,232.4,149.509Z" fill="#fff"/>
        <path id="Path_2877" data-name="Path 2877" d="M183.331,171.249a3.722,3.722,0,1,1-3.722-3.722A3.724,3.724,0,0,1,183.331,171.249Z" fill="#fff"/>
        <path id="Path_2878" data-name="Path 2878" d="M234.857,221.539a3.723,3.723,0,1,1-3.723-3.723A3.724,3.724,0,0,1,234.857,221.539Z" fill="#fff"/>
        <path id="Path_2879" data-name="Path 2879" d="M233.372,184.22a3.723,3.723,0,1,1-3.723-3.723A3.722,3.722,0,0,1,233.372,184.22Z" fill="#fff"/>
        <path id="Path_2880" data-name="Path 2880" d="M278.06,173.053a3.723,3.723,0,1,1-3.723-3.723A3.722,3.722,0,0,1,278.06,173.053Z" fill="#fff"/>
        <path id="Path_2881" data-name="Path 2881" d="M198.848,202.837a3.723,3.723,0,1,1-3.722-3.722A3.723,3.723,0,0,1,198.848,202.837Z" fill="#fff"/>
        <path id="Path_2882" data-name="Path 2882" d="M263.923,205.03a3.722,3.722,0,1,1-3.722-3.722A3.722,3.722,0,0,1,263.923,205.03Z" fill="#fff"/>
        <path id="Path_2883" data-name="Path 2883" d="M195.126,202.837l36.009,18.7L260.2,205.03l13.943-31.469-.858-37.391H186.45l-6.841,35.079Z" fill="none" stroke="#fff" stroke-miterlimit="10" stroke-width="0.875"/>
        <path id="Path_2884" data-name="Path 2884" d="M195.126,202.837,228.9,185.871l31.3,19.159" fill="none" stroke="#fff" stroke-miterlimit="10" stroke-width="0.875"/>
        <path id="Path_2885" data-name="Path 2885" d="M228.9,181.85l-.225-32.34,44.607-13.339" fill="none" stroke="#fff" stroke-miterlimit="10" stroke-width="0.875"/>
        <path id="Path_2886" data-name="Path 2886" d="M273.494,171.824l-44.815-23.305-47.462,21.927,48.433,13.774,43.637-10.658" fill="none" stroke="#fff" stroke-miterlimit="10" stroke-width="0.875"/>
        <path id="Path_2887" data-name="Path 2887" d="M196.4,201.357l32.274-51.848-43.8-10.389" fill="none" stroke="#fff" stroke-miterlimit="10" stroke-width="0.875"/>
        <line id="Line_8" data-name="Line 8" x1="31.211" y1="53.788" transform="translate(228.679 149.509)" fill="none" stroke="#fff" stroke-miterlimit="10" stroke-width="0.875"/>
        <line id="Line_9" data-name="Line 9" x1="1.485" y1="37.319" transform="translate(229.649 184.22)" fill="none" stroke="#fff" stroke-miterlimit="10" stroke-width="0.875"/>
      </g>
      <g id="Group_954" data-name="Group 954">
        <rect id="Rectangle_191" data-name="Rectangle 191" width="5.564" height="24.369" transform="translate(44.98 182.985)" fill="#10182b"/>
        <rect id="Rectangle_192" data-name="Rectangle 192" width="5.564" height="12.184" transform="translate(44.98 212.727)" fill="#10182b"/>
        <path id="Path_2888" data-name="Path 2888" d="M162.281,345.863a3.78,3.78,0,0,1-3.784,3.783H51.669a3.782,3.782,0,0,1-3.786-3.783V164.343a3.784,3.784,0,0,1,3.786-3.782H158.5a3.781,3.781,0,0,1,3.784,3.782Z" fill="#10182b"/>
        <rect id="Rectangle_193" data-name="Rectangle 193" width="114.399" height="167.81" transform="translate(47.882 171.201)" fill="#00a2cf"/>
        <g id="Group_934" data-name="Group 934">
          <g id="Group_933" data-name="Group 933">
            <path id="Path_2889" data-name="Path 2889" d="M115.306,166.589a1.242,1.242,0,0,1-1.241,1.243H96.1a1.242,1.242,0,0,1-1.243-1.243h0a1.246,1.246,0,0,1,1.243-1.245h17.963a1.246,1.246,0,0,1,1.241,1.245Z" fill="#fff"/>
            <path id="Path_2890" data-name="Path 2890" d="M111.26,343.916a1.378,1.378,0,0,1-1.384,1.376h-9.59a1.377,1.377,0,0,1-1.381-1.376h0a1.378,1.378,0,0,1,1.381-1.38h9.59a1.38,1.38,0,0,1,1.384,1.38Z" fill="#fff"/>
          </g>
        </g>
        <g id="Group_937" data-name="Group 937">
          <path id="Rectangle_194" data-name="Rectangle 194" d="M1.634,0h42.9a1.634,1.634,0,0,1,1.634,1.634v16.75a1.635,1.635,0,0,1-1.635,1.635H1.634A1.634,1.634,0,0,1,0,18.385V1.634A1.634,1.634,0,0,1,1.634,0Z" transform="translate(80.496 285.075)" fill="#1f2b48"/>
          <g id="Group_936" data-name="Group 936">
            <g id="Group_935" data-name="Group 935">
              <path id="Path_2891" data-name="Path 2891" d="M91.665,292.875a.557.557,0,0,1-.442-.167.63.63,0,0,1-.147-.432v-2.72a.646.646,0,0,0-.147-.442.674.674,0,0,0-.888,0,.66.66,0,0,0-.143.442A11.776,11.776,0,0,0,90,291.221a10,10,0,0,0,.289,1.37,11.711,11.711,0,0,0,.412,1.188q.228.558.461,1.112t.462,1.132a11.392,11.392,0,0,1,.7,2.751,14.148,14.148,0,0,1,.107,1.827,1.815,1.815,0,0,1-.138.726,1.5,1.5,0,0,1-.4.548,1.788,1.788,0,0,1-.619.351,2.482,2.482,0,0,1-.8.122,2.051,2.051,0,0,1-1.436-.468,1.642,1.642,0,0,1-.513-1.279v-3.106a.232.232,0,0,1,.051-.153.187.187,0,0,1,.152-.06h.569a.554.554,0,0,1,.441.167.631.631,0,0,1,.147.431V300.6a.646.646,0,0,0,.147.442.672.672,0,0,0,.889,0,.659.659,0,0,0,.142-.442,11.575,11.575,0,0,0-.66-4.045q-.284-.8-.609-1.513t-.609-1.508a12,12,0,0,1-.472-1.746,11.7,11.7,0,0,1-.188-2.233,1.832,1.832,0,0,1,.137-.726,1.522,1.522,0,0,1,.4-.548,1.8,1.8,0,0,1,.614-.351,2.471,2.471,0,0,1,.8-.121,2.059,2.059,0,0,1,1.437.466,1.645,1.645,0,0,1,.513,1.28v3.106a.232.232,0,0,1-.051.152.187.187,0,0,1-.153.061Z" fill="#fff"/>
              <path id="Path_2892" data-name="Path 2892" d="M100.05,296.571a.645.645,0,0,1,.142-.431.557.557,0,0,1,.427-.178h.589a.186.186,0,0,1,.152.061.227.227,0,0,1,.051.152V300.6a1.642,1.642,0,0,1-.513,1.279,2.055,2.055,0,0,1-1.437.468,2.474,2.474,0,0,1-.8-.122,1.8,1.8,0,0,1-.614-.351,1.525,1.525,0,0,1-.4-.548,1.832,1.832,0,0,1-.137-.726V289.556a1.645,1.645,0,0,1,.513-1.28,2.056,2.056,0,0,1,1.436-.466,2.483,2.483,0,0,1,.8.121,1.778,1.778,0,0,1,.619.351,1.51,1.51,0,0,1,.4.548,1.815,1.815,0,0,1,.138.726V294.1a.227.227,0,0,1-.051.152.186.186,0,0,1-.152.061h-.569a.557.557,0,0,1-.442-.168.628.628,0,0,1-.147-.431v-4.162a.659.659,0,0,0-.142-.442.674.674,0,0,0-.888,0,.641.641,0,0,0-.147.442V300.6a.659.659,0,0,0,.142.442.671.671,0,0,0,.888,0,.646.646,0,0,0,.147-.442Z" fill="#fff"/>
              <path id="Path_2893" data-name="Path 2893" d="M108.811,287.972a.174.174,0,0,1,.142.061.272.272,0,0,1,.061.142l1.218,13.756a.226.226,0,0,1-.055.173.256.256,0,0,1-.209.081h-.5a.616.616,0,0,1-.421-.147.535.535,0,0,1-.188-.361l-.112-1.939h-1.025l-.112,1.939a.531.531,0,0,1-.188.361.616.616,0,0,1-.421.147h-.5a.255.255,0,0,1-.209-.081.226.226,0,0,1-.055-.173l1.218-13.756a.272.272,0,0,1,.061-.142.174.174,0,0,1,.142-.061Zm-1.025,10.63h.893l-.447-7.6Z" fill="#fff"/>
              <path id="Path_2894" data-name="Path 2894" d="M118.76,287.972a.185.185,0,0,1,.152.061.229.229,0,0,1,.051.152v13.787a.229.229,0,0,1-.051.152.185.185,0,0,1-.152.061h-.569a.588.588,0,0,1-.406-.127.537.537,0,0,1-.172-.34,4.836,4.836,0,0,0-.076-.569q-.077-.445-.193-1.081t-.26-1.4q-.141-.76-.284-1.528c-.094-.51-.184-1-.269-1.466s-.154-.87-.208-1.209l.1,7.117a.584.584,0,0,1-.142.432.577.577,0,0,1-.447.167h-.569a.186.186,0,0,1-.152-.061.229.229,0,0,1-.051-.152V288.185a.229.229,0,0,1,.051-.152.186.186,0,0,1,.152-.061h.569a.605.605,0,0,1,.411.137.523.523,0,0,1,.178.36c.013.109.044.33.091.665s.108.735.183,1.2.156.968.243,1.513.178,1.08.269,1.6.18,1.014.265,1.467.16.826.228,1.117l-.1-7.543a.476.476,0,0,1,.162-.376.621.621,0,0,1,.426-.142Z" fill="#fff"/>
            </g>
          </g>
        </g>
        <g id="Group_938" data-name="Group 938" opacity="0.3">
          <path id="Path_2895" data-name="Path 2895" d="M162.181,171.2h-9.795L74.5,339.011H98.175l64.006-142.685Z" fill="#abddf9"/>
          <path id="Path_2896" data-name="Path 2896" d="M145.97,171.2H125.509S47.976,330.418,47.844,330.419v8.592H66.976Z" fill="#abddf9"/>
        </g>
        <g id="Group_949" data-name="Group 949">
          <path id="Path_2897" data-name="Path 2897" d="M82.53,278.672h45.66l-.007-20.527,2.667-24.216c0-2.795-2.47-4.574-5.062-5.625-4.266-1.726-14.035-5.621-14.035-5.621s-1,6.136-6.565,6.136c-5.066,0-6.419-6.136-6.419-6.136S88.39,226.2,84.735,228.3c-2.422,1.4-5.335,3.277-5.335,4.59l3.23,25.035Z" fill="#fff"/>
          <path id="Path_2898" data-name="Path 2898" d="M111.753,222.7s-.727,6.234-6.6,6.234c-5.416,0-6.385-6.234-6.385-6.234v-6.359h12.984Z" fill="#e07569"/>
          <path id="Path_2899" data-name="Path 2899" d="M119.1,209.015c0,4.914-6.554,11.63-13.833,11.63-7,0-13.819-5.811-13.819-11.63l-.552-10.784a14.365,14.365,0,0,1,14.368-14.368h0a14.367,14.367,0,0,1,14.373,14.368Z" fill="#ef8372"/>
          <path id="Path_2900" data-name="Path 2900" d="M121.333,204.81c-.06,1.671-1.108,2.99-2.346,2.95s-2.2-1.433-2.141-3.1,1.1-2.986,2.342-2.945S121.387,203.14,121.333,204.81Z" fill="#ef8372"/>
          <path id="Path_2901" data-name="Path 2901" d="M93.656,204.524c.052,1.671-.909,3.058-2.146,3.1s-2.288-1.283-2.341-2.954.9-3.054,2.143-3.094S93.6,202.854,93.656,204.524Z" fill="#ef8372"/>
          <path id="Path_2902" data-name="Path 2902" d="M130.584,278.672h11.158c-.97-10.135-3.372-31.793-4.005-34.589-2.556-11.306-9.554-14.5-9.554-14.5s.07,11.174,0,27.367C128.173,259.263,129.709,271.748,130.584,278.672Z" fill="#fff"/>
          <path id="Path_2903" data-name="Path 2903" d="M80.365,278.672c.885-6.838,2.421-19.119,2.409-21.837-.07-16.192,0-27.367,0-27.367a22.02,22.02,0,0,0-11.989,15.145c-.625,2.766-1.88,24.026-2.362,34.059Z" fill="#fff"/>
          <g id="Group_948" data-name="Group 948">
            <g id="Group_940" data-name="Group 940">
              <g id="Group_939" data-name="Group 939">
                <path id="Path_2904" data-name="Path 2904" d="M105.655,210.612c-.069,0-.143,0-.211-.008a.221.221,0,0,1-.2-.24.21.21,0,0,1,.242-.2c.444.043.784-.086.821-.184.018-.043-.028-.2-.395-.446-1.109-.755-1.24-3.383-1.246-3.491a.226.226,0,0,1,.217-.231.213.213,0,0,1,.225.209c.033.7.281,2.625,1.049,3.148.489.326.676.651.567.958C106.6,210.473,106.126,210.612,105.655,210.612Z" fill="#10182b"/>
              </g>
            </g>
            <g id="Group_943" data-name="Group 943">
              <g id="Group_942" data-name="Group 942">
                <g id="Group_941" data-name="Group 941">
                  <path id="Path_2905" data-name="Path 2905" d="M98.283,204.3a1.115,1.115,0,0,0-.845.375,1.2,1.2,0,0,0-.267.775,1.125,1.125,0,0,0,1.968.784,1.183,1.183,0,0,0,.279-.784A1.106,1.106,0,0,0,98.283,204.3Z" fill="#10182b"/>
                </g>
              </g>
            </g>
            <g id="Group_946" data-name="Group 946">
              <g id="Group_945" data-name="Group 945">
                <g id="Group_944" data-name="Group 944">
                  <path id="Path_2906" data-name="Path 2906" d="M112.2,204.3a1.12,1.12,0,0,1,.847.375,1.2,1.2,0,0,1,.266.775,1.108,1.108,0,0,1-1.113,1.164,1.094,1.094,0,0,1-.854-.38,1.168,1.168,0,0,1-.279-.784A1.105,1.105,0,0,1,112.2,204.3Z" fill="#10182b"/>
                </g>
              </g>
            </g>
            <g id="Group_947" data-name="Group 947">
              <path id="Path_2907" data-name="Path 2907" d="M114.858,201.393s-1.246-1.546-4.028-.607" fill="none" stroke="#10182b" stroke-linecap="round" stroke-linejoin="round" stroke-width="0.626"/>
              <path id="Path_2908" data-name="Path 2908" d="M95.933,201.393s1.247-1.546,4.026-.607" fill="none" stroke="#10182b" stroke-linecap="round" stroke-linejoin="round" stroke-width="0.626"/>
            </g>
            <path id="Path_2909" data-name="Path 2909" d="M101.758,213.874a3.983,3.983,0,0,0,7.906,0Z" fill="#fff"/>
          </g>
          <path id="Path_2910" data-name="Path 2910" d="M117.3,188.582s2.781-.795-.8-2.97a12.578,12.578,0,0,0-7.437-1.657s1.93-3.967-7.3-.9c-7.538,2.5-11.678,8.035-10.871,19.273a41.862,41.862,0,0,0,.521,4.292s.744-4.564,3.721-6.132c2.781-1.464,2.52-5.24,2.15-6.233,1.264,1.448,5.2-.873,9.472,2.633,2.778,2.279,5.722,2.244,9.615,2.094-.361,3.318,2.72,7.457,2.72,7.457A24.986,24.986,0,0,0,117.3,188.582Z" fill="#10182b"/>
        </g>
        <g id="Group_952" data-name="Group 952">
          <g id="Group_950" data-name="Group 950">
            <path id="Path_2911" data-name="Path 2911" d="M129.712,216.221V227.7H118.849" fill="none" stroke="#fff" stroke-linecap="round" stroke-linejoin="round" stroke-width="0.827"/>
            <path id="Path_2912" data-name="Path 2912" d="M81.711,191.283V179.694H95.449" fill="none" stroke="#fff" stroke-linecap="round" stroke-linejoin="round" stroke-width="0.827"/>
            <path id="Path_2913" data-name="Path 2913" d="M118.237,179.694h11.475v10.862" fill="none" stroke="#fff" stroke-linecap="round" stroke-linejoin="round" stroke-width="0.827"/>
            <path id="Path_2914" data-name="Path 2914" d="M93.3,227.7H81.711v-13.74" fill="none" stroke="#fff" stroke-linecap="round" stroke-linejoin="round" stroke-width="0.827"/>
          </g>
          <g id="Group_951" data-name="Group 951">
            <path id="Path_2915" data-name="Path 2915" d="M125.672,214.112v9.543h-9.035" fill="none" stroke="#fff" stroke-linecap="round" stroke-linejoin="round" stroke-width="0.687"/>
            <path id="Path_2916" data-name="Path 2916" d="M85.75,193.373v-9.639H97.178" fill="none" stroke="#fff" stroke-linecap="round" stroke-linejoin="round" stroke-width="0.687"/>
            <path id="Path_2917" data-name="Path 2917" d="M116.128,183.734h9.544v9.034" fill="none" stroke="#fff" stroke-linecap="round" stroke-linejoin="round" stroke-width="0.687"/>
            <path id="Path_2918" data-name="Path 2918" d="M95.389,223.655H85.75V212.229" fill="none" stroke="#fff" stroke-linecap="round" stroke-linejoin="round" stroke-width="0.687"/>
          </g>
        </g>
        <g id="Group_953" data-name="Group 953">
          <path id="Path_2919" data-name="Path 2919" d="M118.483,197.169a1.049,1.049,0,1,1-1.05-1.049A1.05,1.05,0,0,1,118.483,197.169Z" fill="#fff"/>
          <path id="Path_2920" data-name="Path 2920" d="M93.914,197.855a1.05,1.05,0,1,1-1.051-1.049A1.049,1.049,0,0,1,93.914,197.855Z" fill="#fff"/>
          <path id="Path_2921" data-name="Path 2921" d="M105.9,200.931a1.049,1.049,0,1,1-1.05-1.05A1.05,1.05,0,0,1,105.9,200.931Z" fill="#fff"/>
          <path id="Path_2922" data-name="Path 2922" d="M92.067,207.061a1.049,1.049,0,1,1-1.05-1.05A1.049,1.049,0,0,1,92.067,207.061Z" fill="#fff"/>
          <path id="Path_2923" data-name="Path 2923" d="M106.6,221.242a1.05,1.05,0,1,1-1.05-1.05A1.05,1.05,0,0,1,106.6,221.242Z" fill="#fff"/>
          <path id="Path_2924" data-name="Path 2924" d="M106.178,210.718a1.049,1.049,0,1,1-1.05-1.05A1.049,1.049,0,0,1,106.178,210.718Z" fill="#fff"/>
          <path id="Path_2925" data-name="Path 2925" d="M118.78,207.57a1.05,1.05,0,1,1-1.05-1.051A1.05,1.05,0,0,1,118.78,207.57Z" fill="#fff"/>
          <path id="Path_2926" data-name="Path 2926" d="M96.443,215.969a1.05,1.05,0,1,1-1.05-1.051A1.049,1.049,0,0,1,96.443,215.969Z" fill="#fff"/>
          <path id="Path_2927" data-name="Path 2927" d="M114.793,216.587a1.049,1.049,0,1,1-1.049-1.05A1.048,1.048,0,0,1,114.793,216.587Z" fill="#fff"/>
          <path id="Path_2928" data-name="Path 2928" d="M95.393,215.969l10.154,5.273,8.2-4.655,3.932-8.874-.243-10.544H92.947l-1.929,9.892Z" fill="none" stroke="#fff" stroke-miterlimit="10" stroke-width="0.247"/>
          <path id="Path_2929" data-name="Path 2929" d="M95.393,215.969l9.525-4.785,8.825,5.4" fill="none" stroke="#fff" stroke-miterlimit="10" stroke-width="0.247"/>
          <path id="Path_2930" data-name="Path 2930" d="M104.918,210.05l-.064-9.119,12.578-3.761" fill="none" stroke="#fff" stroke-miterlimit="10" stroke-width="0.247"/>
          <path id="Path_2931" data-name="Path 2931" d="M117.492,207.223l-12.637-6.572-13.384,6.183,13.657,3.884,12.305-3.005" fill="none" stroke="#fff" stroke-miterlimit="10" stroke-width="0.247"/>
          <path id="Path_2932" data-name="Path 2932" d="M95.753,215.551l9.1-14.62L92.505,198" fill="none" stroke="#fff" stroke-miterlimit="10" stroke-width="0.247"/>
          <line id="Line_10" data-name="Line 10" x1="8.801" y1="15.167" transform="translate(104.855 200.931)" fill="none" stroke="#fff" stroke-miterlimit="10" stroke-width="0.247"/>
          <line id="Line_11" data-name="Line 11" x1="0.419" y1="10.524" transform="translate(105.128 210.718)" fill="none" stroke="#fff" stroke-miterlimit="10" stroke-width="0.247"/>
        </g>
      </g>
    </g>
  </g>
</svg>
