<?xml version="1.0" encoding="iso-8859-1"?>
<!-- Generator: Adobe Illustrator 23.0.2, SVG Export Plug-In . SVG Version: 6.00 Build 0)  -->
<svg version="1.1" id="Layer_1" xmlns="http://www.w3.org/2000/svg" xmlns:xlink="http://www.w3.org/1999/xlink" x="0px" y="0px"
	 viewBox="0 0 595.276 841.89" style="enable-background:new 0 0 595.276 841.89;" xml:space="preserve">
<g>
	<path style="fill:#1099A0;" d="M85.978,393.854v-3.599c4.661-0.829,5.21-1.939,5.21-11.436v-21.948
		c0-9.407-2.249-15.035-7.239-15.035c-3.071,0-6.088,3.229-8.555,6.642v31.174c0,9.224,0.439,9.774,5.155,10.607v3.599H62.452
		v-3.599c5.428-1.105,5.868-1.75,5.868-10.791v-27.116c0-8.762-0.549-9.314-4.827-10.607v-3.41c3.894-1.015,8.116-2.765,11.9-5.349
		v10.886c1.645-2.029,3.4-4.149,5.484-6.454c2.303-2.489,4.332-3.968,6.745-3.968c6.471,0,10.583,7.654,10.583,21.032v25.18
		c0,9.224,0.494,9.593,5.21,10.607v3.599H85.976v-0.015H85.978z"/>
	<path style="fill:#1099A0;" d="M107.808,393.854v-3.599c5.101-0.829,5.704-1.66,5.704-11.067v-27.116
		c0-8.485-0.274-9.131-5.1-10.514v-3.229c4.387-1.2,8.5-2.765,12.175-5.166v46.023c0,9.314,0.548,10.052,5.758,11.067v3.599h-18.537
		v0.003H107.808z M112.085,314.718c0-4.337,2.084-7.564,4.497-7.564c2.412,0,4.278,3.227,4.278,7.564
		c0,3.875-1.865,7.288-4.387,7.288C114.169,322.005,112.085,318.587,112.085,314.718z"/>
	<path style="fill:#1099A0;" d="M153.546,393.854v-3.599c4.661-0.829,5.21-1.939,5.21-11.436v-21.948
		c0-9.407-2.249-15.035-7.239-15.035c-3.071,0-6.088,3.229-8.554,6.642v31.174c0,9.224,0.439,9.774,5.155,10.607v3.599h-18.097
		v-3.599c5.428-1.105,5.868-1.75,5.868-10.791v-27.116c0-8.762-0.549-9.314-4.827-10.607v-3.41c3.894-1.015,8.116-2.765,11.9-5.349
		v10.886c1.644-2.029,3.399-4.149,5.483-6.454c2.303-2.489,4.332-3.968,6.745-3.968c6.471,0,10.584,7.654,10.584,21.032v25.18
		c0,9.224,0.494,9.593,5.21,10.607v3.599h-17.441v-0.015H153.546z"/>
	<path style="fill:#1099A0;" d="M191.991,393.575c-1.48,1.384-2.743,1.846-3.455,1.846c-5.428,0-8.445-5.166-8.445-16.044v-38.738
		h-5.538l-0.383-1.567l2.249-4.058h3.674v-9.776l5.977-9.407l1.096,0.372v18.817h9.104c0.822,1.474,0.548,4.425-0.549,5.625h-8.555
		v34.035c0,10.884,2.798,12.727,4.827,12.727c1.921,0,3.728-1.293,4.936-2.305l0.713,3.689L191.991,393.575z"/>
	<path style="fill:#1099A0;" d="M230.875,381.863c-5.265,11.162-11.133,13.558-13.765,13.558c-10.036,0-15.959-13.558-15.959-28.59
		c0-8.947,1.921-17.061,5.21-23.058c3.51-6.454,7.951-10.331,12.283-10.331h0.054c6.965,0,12.504,10.052,12.504,20.753
		c0,2.584-0.44,3.782-1.921,4.337c-1.48,0.367-11.681,1.75-21.114,2.305c0.165,17.43,6.251,24.813,11.9,24.813
		c3.345,0,6.471-2.122,9.432-6.733L230.875,381.863z M216.726,338.512c-3.51,0-7.02,5.259-8.172,16.511
		c4.333,0,8.664,0,13.216-0.279c1.425-0.093,1.921-0.829,1.921-2.582c0-7.102-2.632-13.651-6.91-13.651H216.726z"/>
	<path style="fill:#1099A0;" d="M265.865,381.863c-5.264,11.162-11.132,13.558-13.764,13.558c-10.036,0-15.958-13.558-15.958-28.59
		c0-8.947,1.919-17.061,5.21-23.058c3.51-6.454,7.951-10.331,12.283-10.331h0.055c6.965,0,12.503,10.052,12.503,20.753
		c0,2.584-0.439,3.782-1.921,4.337c-1.48,0.367-11.68,1.75-21.113,2.305c0.165,17.43,6.251,24.813,11.899,24.813
		c3.345,0,6.471-2.122,9.432-6.733L265.865,381.863z M251.717,338.512c-3.51,0-7.02,5.259-8.172,16.511
		c4.333,0,8.666,0,13.216-0.279c1.427-0.093,1.921-0.829,1.921-2.582c0-7.102-2.633-13.651-6.911-13.651H251.717z"/>
	<path style="fill:#1099A0;" d="M294.111,393.854v-3.599c4.661-0.829,5.21-1.939,5.21-11.436v-21.948
		c0-9.407-2.249-15.035-7.239-15.035c-3.072,0-6.088,3.229-8.555,6.642v31.174c0,9.224,0.439,9.774,5.155,10.607v3.599h-18.097
		v-3.599c5.429-1.105,5.868-1.75,5.868-10.791v-27.116c0-8.762-0.549-9.314-4.827-10.607v-3.41c3.894-1.015,8.116-2.765,11.9-5.349
		v10.886c1.644-2.029,3.399-4.149,5.483-6.454c2.304-2.489,4.333-3.968,6.745-3.968c6.471,0,10.584,7.654,10.584,21.032v25.18
		c0,9.224,0.494,9.593,5.21,10.607v3.599h-17.44v-0.015H294.111z"/>
</g>
</svg>
