<?xml version="1.0" encoding="iso-8859-1"?>
<!-- Generator: Adobe Illustrator 23.0.2, SVG Export Plug-In . SVG Version: 6.00 Build 0)  -->
<svg version="1.1" id="Layer_1" xmlns="http://www.w3.org/2000/svg" xmlns:xlink="http://www.w3.org/1999/xlink" x="0px" y="0px"
	 viewBox="0 0 595.276 841.89" style="enable-background:new 0 0 595.276 841.89;" xml:space="preserve">
<g>
	<path style="fill:#1099A0;" d="M292.093,284.096c-6.545,7.584-13.916,11.368-22.097,11.368c-8.175,0-14.601-3.011-19.266-9.052
		c-4.678-6.027-7.006-14.375-7.006-25.031c0-13.457,3.479-24.898,10.464-34.289C261.16,217.697,269.637,213,279.597,213
		c9.964,0,17.685,5.148,23.178,15.452c5.479,10.317,8.225,23.221,8.225,38.72c0,15.495-1.558,29.63-4.696,42.379
		c-3.125,12.775-8.077,23.495-14.872,32.195c-6.783,8.695-14.701,13.041-23.746,13.041c-6.065,0-11.291-1.93-15.666-5.787
		c-4.38-3.861-6.567-9.498-6.567-16.945c0-5.324,1.319-9.601,3.969-12.827c2.646-3.222,5.489-4.843,8.516-4.843
		c3.034,0,5.323,0.352,6.862,1.064c-0.674,2.797-1.015,5.534-1.015,8.202c0,7.563,2.836,11.355,8.518,11.355
		c3.661,0,6.833-1.574,9.526-4.727c2.693-3.157,4.769-7.327,6.211-12.522C290.74,307.518,292.093,296.305,292.093,284.096z
		 M292.232,266.216c0-9.815-1.251-17.841-3.749-24.079c-2.509-6.25-6.549-9.365-12.126-9.365c-3.558,0-6.987,1.613-10.257,4.839
		c-2.116,5.191-3.172,10.939-3.172,17.249c0,6.302,1.056,11.565,3.172,15.765c2.116,4.217,5.053,6.323,8.815,6.323
		C281.257,276.949,287.038,273.371,292.232,266.216z"/>
</g>
<path style="fill:#1099A0;" d="M186.888,244.758c5.391-3.222,11.168-8.829,17.329-16.829c2.979-3.917,5.768-7.288,8.373-10.094
	c2.6-2.806,5.791-4.2,9.606-4.2c3.799,0,7.044,0.978,9.74,2.939c-2.307,26.64-3.461,51.607-3.461,74.888s0.865,43.332,2.596,60.169
	c-2.693,1.677-5.822,2.522-9.383,2.522s-6.447-1.677-8.661-5.049c-2.221-3.363-3.327-7.889-3.327-13.569
	c0-5.684,0.772-17.64,2.316-35.867c1.537-18.228,2.357-38.004,2.45-59.324c-1.06,1.407-2.839,4.2-5.346,8.408
	c-5.579,9.412-9.937,14.109-13.06,14.109c-3.131,0-5.439-1.677-6.937-5.049C187.631,254.431,186.888,250.09,186.888,244.758z"/>
</svg>
