<?xml version="1.0" encoding="iso-8859-1"?>
<!-- Generator: Adobe Illustrator 23.0.2, SVG Export Plug-In . SVG Version: 6.00 Build 0)  -->
<svg version="1.1" id="Layer_1" xmlns="http://www.w3.org/2000/svg" xmlns:xlink="http://www.w3.org/1999/xlink" x="0px" y="0px"
	 viewBox="0 0 595.276 841.89" style="enable-background:new 0 0 595.276 841.89;" xml:space="preserve">
<g>
	<path style="fill:#1B75BC;" d="M123.783,229.831c1.651,1.374,4.534,2.858,7.263,2.858c4.001,0,5.855-2.619,5.855-5.975
		c0-3.509-1.594-5.347-5.599-7.346c-5.443-2.624-8.021-6.57-8.007-11.377c0-6.463,3.943-11.765,10.423-11.765
		c3.066,0,5.705,1.105,7.38,2.468l-1.362,5.305c-1.159-0.968-3.367-2.362-6.181-2.362c-3.233,0-4.991,2.482-4.991,5.507
		c0,3.32,1.771,4.802,5.721,6.843c5.194,2.576,7.891,6.063,7.905,12.055c0,7.111-4.15,12.089-11.269,12.089
		c-3.298,0-6.347-1.137-8.467-2.796L123.783,229.831z"/>
	<path style="fill:#1B75BC;" d="M152.294,218.517c0.108,9.863,4.809,13.929,10.312,13.929c3.92,0,6.319-0.937,8.345-2.055
		l0.96,5.183c-1.917,1.167-5.266,2.557-10.052,2.557c-9.258,0-14.826-8.213-14.826-20.25c0-12.159,5.379-21.655,14.177-21.655
		c9.83,0,12.4,11.484,12.4,18.87c0,1.532-0.065,2.628-0.187,3.421H152.294z M168.332,213.268c0.055-4.598-1.414-11.812-7.558-11.812
		c-5.593,0-7.975,6.733-8.413,11.812H168.332z"/>
	<path style="fill:#1B75BC;" d="M182.548,197.139l5.91,22.495c1.015,3.718,1.795,7.03,2.467,10.361h0.164
		c0.689-3.331,1.554-6.67,2.522-10.361l5.895-22.495h5.729L193.38,237.26h-5.227l-11.474-40.121H182.548z"/>
	<path style="fill:#1B75BC;" d="M213.469,218.517c0.108,9.863,4.809,13.929,10.312,13.929c3.92,0,6.319-0.937,8.345-2.055
		l0.96,5.183c-1.917,1.167-5.266,2.557-10.052,2.557c-9.258,0-14.826-8.213-14.826-20.25c0-12.159,5.379-21.655,14.177-21.655
		c9.83,0,12.4,11.484,12.4,18.87c0,1.532-0.065,2.628-0.187,3.421H213.469z M229.506,213.268c0.055-4.598-1.414-11.812-7.558-11.812
		c-5.593,0-7.975,6.733-8.413,11.812H229.506z"/>
	<path style="fill:#1B75BC;" d="M241.613,207.975c0-4.187-0.103-7.511-0.249-10.836h4.842l0.302,6.598h0.153
		c1.48-3.769,4.986-7.51,9.962-7.51c4.139,0,10.618,3.316,10.618,17.099v23.935h-5.452v-23.133c0-6.486-1.835-11.918-6.965-11.918
		c-3.596,0-6.401,3.404-7.383,7.489c-0.227,0.892-0.376,2.184-0.376,3.384v24.178h-5.452V207.975z"/>
	<path style="fill:#1B75BC;" d="M282.764,185.588v11.551h7.874v5.527h-7.874v21.623c0,4.998,1.081,7.822,4.144,7.822
		c1.42,0,2.454-0.232,3.175-0.528l0.25,5.544c-1.064,0.558-2.766,1.004-4.896,1.004c-2.518,0-4.61-1.106-5.915-3.089
		c-1.509-2.213-2.126-5.752-2.126-10.466v-21.91h-4.667v-5.527h4.667v-9.666L282.764,185.588z"/>
	<path style="fill:#1B75BC;" d="M299.874,218.517c0.108,9.863,4.809,13.929,10.312,13.929c3.921,0,6.319-0.937,8.345-2.055
		l0.96,5.183c-1.916,1.167-5.266,2.557-10.052,2.557c-9.259,0-14.826-8.213-14.826-20.25c0-12.159,5.378-21.655,14.177-21.655
		c9.829,0,12.399,11.484,12.399,18.87c0,1.532-0.065,2.628-0.187,3.421H299.874z M315.912,213.268
		c0.054-4.598-1.414-11.812-7.559-11.812c-5.594,0-7.976,6.733-8.412,11.812H315.912z"/>
	<path style="fill:#1B75BC;" d="M331.085,218.517c0.107,9.863,4.809,13.929,10.311,13.929c3.921,0,6.32-0.937,8.346-2.055
		l0.96,5.183c-1.916,1.167-5.266,2.557-10.053,2.557c-9.258,0-14.825-8.213-14.825-20.25c0-12.159,5.379-21.655,14.177-21.655
		c9.83,0,12.4,11.484,12.4,18.87c0,1.532-0.065,2.628-0.188,3.421H331.085z M347.122,213.268c0.055-4.598-1.413-11.812-7.558-11.812
		c-5.594,0-7.976,6.733-8.413,11.812H347.122z"/>
	<path style="fill:#1B75BC;" d="M359.229,207.975c0-4.187-0.103-7.511-0.249-10.836h4.842l0.302,6.598h0.153
		c1.48-3.769,4.986-7.51,9.963-7.51c4.139,0,10.618,3.316,10.618,17.099v23.935h-5.452v-23.133c0-6.486-1.836-11.918-6.965-11.918
		c-3.597,0-6.4,3.404-7.383,7.489c-0.228,0.892-0.377,2.184-0.377,3.384v24.178h-5.452V207.975z"/>
</g>
</svg>
