<?xml version="1.0" encoding="iso-8859-1"?>
<!-- Generator: Adobe Illustrator 23.0.2, SVG Export Plug-In . SVG Version: 6.00 Build 0)  -->
<svg version="1.1" id="Layer_1" xmlns="http://www.w3.org/2000/svg" xmlns:xlink="http://www.w3.org/1999/xlink" x="0px" y="0px"
	 viewBox="0 0 595.276 841.89" style="enable-background:new 0 0 595.276 841.89;" xml:space="preserve">
<g>
	<path style="fill:#1E9C48;" d="M153.47,272.336c-0.707-8.547-1.249-13.261-2.444-17.529c-1.413-6.04-3.152-7.957-9.181-7.957
		h-5.922c-2.553,0-2.771,0.591-2.771,7.073v50.385h8.149c7.442,0,7.877-2.062,8.909-16.058h2.39v42.428h-2.444
		c-0.977-15.025-1.413-17.38-8.855-17.38h-8.149v37.569c0,19.152,0.706,20.475,8.149,21.945v6.189h-22.871v-6.189
		c6.465-1.326,7.17-2.797,7.17-21.945v-84.12c0-19-0.707-20.181-6.954-21.359v-6.482h36.398c0.109,7.953,0.488,21.656,0.869,32.41
		L153.47,272.336z"/>
	<path style="fill:#1E9C48;" d="M161.338,378.989v-5.746c5.052-1.326,5.65-2.652,5.65-17.678v-43.312
		c0-13.555-0.272-14.587-5.052-16.794v-5.156c4.347-1.913,8.42-4.416,12.061-8.246v73.511c0,14.877,0.544,16.054,5.705,17.678v5.746
		h-18.364V378.989z M165.574,252.593c0-6.924,2.065-12.08,4.455-12.08c2.39,0,4.238,5.156,4.238,12.08
		c0,6.189-1.846,11.642-4.345,11.642C167.639,264.231,165.574,258.782,165.574,252.593z"/>
	<path style="fill:#1E9C48;" d="M222.83,378.84c-1.521,2.062-2.716,2.656-3.424,2.656c-5.377,0-8.365-8.25-8.365-25.634v-61.874
		h-14.886v62.464c0,13.555,0.435,15.174,5.814,16.5v6.04h-18.58v-6.04c5.161-1.475,5.703-2.946,5.703-16.207v-62.758h-5.759
		l-0.435-2.504l2.228-6.482h3.966v-5.301c0-6.775,0.381-12.522,0.87-16.942c0.542-4.859,1.955-15.761,6.465-25.63
		c3.097-6.631,5.977-10.315,9.072-11.344c2.988,0.149,5.052,3.243,6.302,6.631c0.87,2.652,1.033,5.598,0.49,8.395
		c-0.326,1.768-1.033,4.127-2.009,5.746c-0.707,1.326-1.249,1.326-2.009-0.587c-1.467-4.272-4.292-8.395-6.41-8.395
		c-1.848,0-3.206,2.206-4.238,6.482c-1.032,4.272-1.739,13.555-1.576,34.913l0.109,6.04h14.886v-14.435l5.922-15.025l1.086,0.884
		v28.58h9.018c0.814,2.21,0.544,7.366-0.544,8.985h-8.474v54.066c0,17.38,2.716,20.921,4.78,20.921c1.955,0,3.748-2.21,4.889-3.681
		l0.761,6.04L222.83,378.84z"/>
	<path style="fill:#1E9C48;" d="M261.173,359.84c-5.215,17.826-11.029,21.656-13.635,21.656c-9.941,0-15.809-21.656-15.809-45.671
		c0-14.286,1.902-27.254,5.161-36.826c3.476-10.315,7.877-16.5,12.17-16.5h0.054c6.898,0,12.386,16.054,12.386,33.145
		c0,4.127-0.434,6.04-1.901,6.928c-1.467,0.587-11.571,2.797-20.916,3.681c0.163,27.841,6.193,39.627,11.789,39.627
		c3.313,0,6.41-3.388,9.344-10.754L261.173,359.84z M247.157,290.605c-3.476,0-6.954,8.395-8.095,26.366
		c4.292,0,8.583,0,13.093-0.442c1.413-0.145,1.902-1.326,1.902-4.123c0-11.344-2.608-21.801-6.845-21.801H247.157z"/>
	<path style="fill:#1E9C48;" d="M295.824,359.84c-5.215,17.826-11.029,21.656-13.635,21.656c-9.941,0-15.809-21.656-15.809-45.671
		c0-14.286,1.902-27.254,5.161-36.826c3.476-10.315,7.877-16.5,12.17-16.5h0.054c6.898,0,12.386,16.054,12.386,33.145
		c0,4.127-0.434,6.04-1.901,6.928c-1.467,0.587-11.571,2.797-20.916,3.681c0.163,27.841,6.193,39.627,11.789,39.627
		c3.313,0,6.41-3.388,9.344-10.754L295.824,359.84z M281.808,290.605c-3.476,0-6.954,8.395-8.095,26.366
		c4.292,0,8.583,0,13.093-0.442c1.413-0.145,1.902-1.326,1.902-4.123c0-11.344-2.608-21.801-6.845-21.801H281.808z"/>
	<path style="fill:#1E9C48;" d="M323.795,378.989v-5.746c4.617-1.326,5.161-3.094,5.161-18.268v-35.062
		c0-15.025-2.227-24.011-7.17-24.011c-3.043,0-6.03,5.152-8.476,10.605V356.3c0,14.736,0.435,15.616,5.107,16.942v5.746h-17.927
		v-5.746c5.378-1.768,5.814-2.801,5.814-17.236v-43.308c0-13.997-0.544-14.881-4.782-16.942v-5.453
		c3.857-1.62,8.041-4.416,11.789-8.543v17.38c1.63-3.239,3.368-6.627,5.433-10.312c2.281-3.978,4.292-6.333,6.682-6.333
		c6.41,0,10.483,12.224,10.483,33.587v40.214c0,14.736,0.49,15.323,5.161,16.942v5.746h-17.275V378.989z"/>
</g>
</svg>
