<?xml version="1.0" encoding="iso-8859-1"?>
<!-- Generator: Adobe Illustrator 23.0.2, SVG Export Plug-In . SVG Version: 6.00 Build 0)  -->
<svg version="1.1" id="Layer_1" xmlns="http://www.w3.org/2000/svg" xmlns:xlink="http://www.w3.org/1999/xlink" x="0px" y="0px"
	 viewBox="0 0 595.276 841.89" style="enable-background:new 0 0 595.276 841.89;" xml:space="preserve">
<g>
	<path style="fill:#1E9C48;" d="M256.487,409.556c3.473,3.301,8.261,4.955,14.361,4.955c6.103,0,11.123-2.799,15.062-8.393
		c3.945-5.591,5.911-12.969,5.911-22.12c0-19.328-6.771-28.986-20.281-28.986c-2.495,0-6.988,0.888-13.482,2.672
		c-6.503,1.777-11.887,2.669-16.146,2.669c-4.276,0-8.249-1.015-11.917-3.048c3.018-22.545,4.529-43.907,4.529-64.082
		c0-13.731,5.838-20.596,17.521-20.596c24.674,0,43.836-2.542,57.493-7.627c1.574,6.781,2.359,12.888,2.359,18.306
		c0,5.429-1.55,9.622-4.629,12.589c-3.079,2.964-6.958,4.453-11.617,4.453c-4.665,0-11.583-0.643-20.765-1.914
		c-9.2-1.271-14.773-1.988-16.742-2.16c-1.574,9.327-2.359,22.717-2.359,40.174c9.447-2.539,16.666-3.814,21.653-3.814
		c12.083,0,21.855,3.729,29.339,11.192c7.478,7.459,11.222,18.307,11.222,32.546c0,18.479-5.348,33.438-16.046,44.883
		c-10.699,11.438-23.594,17.165-38.693,17.165c-10.103,0-18.8-2.63-26.089-7.887c-7.283-5.25-10.915-13.137-10.915-23.648
		c0-6.774,1.77-12.203,5.315-16.27c3.539-4.067,8.002-6.103,13.38-6.103c2.883,0,5.45,0.425,7.689,1.275
		c-0.921,3.389-1.381,6.605-1.381,9.664C251.262,401.542,252.996,406.244,256.487,409.556z"/>
</g>
<g>
	<path style="fill:#1E9C48;" d="M166.281,304.391c6.178-3.185,12.923-9.046,20.224-17.569c3.536-4.189,6.834-7.761,9.88-10.714
		c3.049-2.953,6.69-4.27,10.924-3.944c4.234,0.327,7.794,1.717,10.693,4.168c-4.042,29.972-6.702,58.136-7.981,84.488
		c-1.282,26.362-1.42,49.139-0.418,68.345c-3.094,1.672-6.624,2.356-10.59,2.051c-3.966-0.306-7.09-2.455-9.368-6.454
		c-2.281-4.003-3.262-9.215-2.949-15.648c0.313-6.43,1.827-19.901,4.547-40.413c2.715-20.505,4.716-42.822,5.998-66.954
		c-1.258,1.5-3.395,4.52-6.41,9.071c-6.735,10.159-11.848,15.107-15.33,14.84c-3.485-0.267-5.965-2.37-7.442-6.311
		C166.579,315.414,165.989,310.431,166.281,304.391z"/>
</g>
</svg>
