<?xml version="1.0" encoding="iso-8859-1"?>
<!-- Generator: Adobe Illustrator 23.0.2, SVG Export Plug-In . SVG Version: 6.00 Build 0)  -->
<svg version="1.1" id="Layer_1" xmlns="http://www.w3.org/2000/svg" xmlns:xlink="http://www.w3.org/1999/xlink" x="0px" y="0px"
	 viewBox="0 0 595.276 841.89" style="enable-background:new 0 0 595.276 841.89;" xml:space="preserve">
<g>
	<g>
		<path style="fill:#F8D50E;" d="M365.265,225.421c1.496-5.391,2.889-10.978,0.462-16.243c-1.893-4.1-7.223-9.244-11.642-4.782
			c-3.736,3.774-5.248,10.839-7.918,15.543c-2.74,4.828-5.549,10.656-9.651,14.391c-4.332,3.945-10.811,5.344-15.477,8.815
			c-8.458,6.293-11.246,17.561-9.132,27.433c1.217,5.693,1.777,11.1,7.355,14.342c8.796,5.112,24.257,4.941,32.014-1.822
			c3.607-3.145,7.129-6.688,9.468-10.87c2.36-4.226,1.742-6.55,1.198-10.933c-1.142-9.234-0.101-21.432,1.919-30.544
			C364.25,229.01,364.764,227.226,365.265,225.421z"/>
		<path style="opacity:0.54;fill:#FFF18D;enable-background:new    ;" d="M329.344,255.077c0.077,0.059,0.153,0.123,0.228,0.191
			c3.377,3.03,2.505,2.08,5.882-0.829c2.747-2.366,3.56-0.873,6.739-0.48c7.74,0.955,8.937-8.836,9.376-14.289
			c0.23-2.904,0.282-5.896,1.047-8.73c0.732-2.725,2.236-4.634,2.505-7.447c0.327-3.435,3.645-8.226,2.536-11.636
			c-1.662-5.108-5.29,3.001-6.206,4.975c-1.212,2.616-2.992,2.374-3.867,5.57c-1.48,5.427-3.311,10.228-8.252,13.22
			c-4.171,2.524-10.607,4.92-13.261,9.154c-1.216,1.939-0.751,2.654-3.093,3.835c-2.262,1.14-7.597,4.436-2.682,6.481
			C323.116,256.266,326.66,253.027,329.344,255.077z"/>
		<path style="opacity:0.3;fill:#EAA424;enable-background:new    ;" d="M365.727,209.178c-1.763-3.816-6.5-8.531-10.708-5.571
			c1.289,0.061,2.583,0.455,3.377,1.046c3.318,2.462,2.653,7.635,2.095,11.104c-1.017,6.347-3.311,12.561-3.365,19.035
			c-0.035,4.313,1.456,9.565-1.975,13.043c-1.085,1.1-2.388,1.918-3.567,2.91c-1.438,1.208-2.377,2.524-2.983,4.293
			c-0.995,2.921-1.695,6.105-3.572,8.642c-4.081,5.514-11.225,7.784-17.445,10.11c-2.773,1.035-5.473,1.741-8.298,0.392
			c-2.722-1.3-4.83-3.683-6.303-6.238c-0.752-1.306-1.348-2.683-1.745-4.107c-0.028,2.27,0.199,4.541,0.671,6.743
			c1.217,5.693,1.777,11.1,7.355,14.342c8.796,5.112,24.257,4.941,32.014-1.822c3.607-3.145,7.129-6.688,9.468-10.87
			c2.36-4.226,1.742-6.55,1.198-10.933c-1.142-9.234-0.101-21.432,1.919-30.544c0.387-1.741,0.901-3.525,1.402-5.33
			C366.761,220.03,368.154,214.443,365.727,209.178z"/>
		<path style="opacity:0.37;fill:#EAA424;enable-background:new    ;" d="M363.334,233.331c-0.174,0.144-0.348,0.288-0.524,0.43
			c-1.083,0.882-2.175,1.786-3.071,2.858c-1.724,2.063-2.985,6.269-2.593,8.918c0.465,3.135,4.22,6.068,1.705,9.283
			c-1.423,1.822-6.19,0.585-6.493,3.465c-0.195,1.837,1.036,2.058-0.18,3.658c-0.717,0.944-1.557,1.969-2.802,1.793
			c-2.583-0.362-2.29-7.112-6.131-4.022c-1.548,1.242-0.329,3.167-1.371,4.58c-1.482,2.005-1.148-0.719-2.052-1.038
			c-1.806-0.64-3.144,3.411-5.189,2.828c-2.591-0.737-1.263-6.502-5.303-4.011c-1.365,0.842-1.124,2.698-1.919,3.943
			c-0.566,0.881-1.447,1.733-2.588,1.441c-0.65-0.165-0.923-0.94-1.592-1.119c-1.55-0.413-3.717,1.154-3.468-1.608
			c0.082-0.93,0.536-1.778,0.34-2.79c-0.265-1.351-0.578-1.161-1.651-1.457c-2.499-0.69-2.25-2.18-2.29-4.456
			c-0.018-0.982-1.893-4.834-1.656-5.269c-3.222,5.954-4.017,13.2-2.597,19.822c1.217,5.693,1.777,11.1,7.355,14.342
			c8.796,5.112,24.257,4.941,32.014-1.822c3.607-3.145,7.129-6.688,9.468-10.87c2.36-4.226,1.742-6.55,1.198-10.933
			C360.905,252.907,361.668,242.076,363.334,233.331z"/>
		<path style="opacity:0.59;fill:#EAA424;enable-background:new    ;" d="M362.464,238.7c-0.36,1.545-0.536,3.113-0.792,4.678
			c-0.242,1.493-0.832,2.907-1.09,4.397c-0.677,3.904,1.101,7.703-0.354,11.561c-0.263,0.699-0.773,1.33-0.963,2.05
			c-0.169,0.641-0.145,1.301-0.268,1.948c-0.209,1.1-0.643,1.91-1.395,2.74c-0.648,0.714-1.526,1.613-1.721,2.586
			c-0.418,2.094-0.88,2.594-2.851,3.249c-1.388,0.464-1.965,0.666-2.566,2.001c-0.558,1.245-0.516,2.181-1.876,2.939
			c-1.334,0.746-2.872,0.66-3.889-0.54c-0.765-0.902-0.529-1.903-1.895-2.06c-1.198-0.137-2.111,0.937-2.719,1.721
			c-0.861,1.107-1.063,2.771-2.362,3.552c-1.099,0.657-2.318,0.393-3.586,0.439c-2.917,0.108-5.441,4.666-8.068,1.423
			c-0.772-0.954-0.7-1.973-1.308-2.898c-0.401-0.609-0.81-0.575-1.381-1.007c-1.489-1.123-1.552-1.996-1.937-3.669
			c-0.305-1.345-1.296-2.699-2.848-1.582c-1.054,0.758-1.301,3.743-3.323,1.778c-0.663-0.645-0.36-1.778-0.989-2.443
			c-0.204-0.214-2.363-0.939-2.257-0.421c1.143,5.483,1.845,10.643,7.237,13.777c8.796,5.112,24.257,4.941,32.014-1.822
			c3.607-3.145,7.129-6.688,9.468-10.87c2.36-4.226,1.742-6.55,1.198-10.933C361.111,254.557,361.44,246.244,362.464,238.7z"/>
		<path style="opacity:0.59;fill:#EAA424;enable-background:new    ;" d="M326.36,260.474c0.585-0.459,0.808-0.04,1.054-1.011
			c0.185-0.734-0.188-1.87-0.775-2.352c-2.475-2.034-4.824,2.289-4.882,4.363C321.653,265.367,325.39,261.232,326.36,260.474z"/>
		<path style="opacity:0.59;fill:#EAA424;enable-background:new    ;" d="M336.252,258.556c1.238,0.279,2.595-1.419,2.365-2.584
			C337.939,252.503,335.128,258.302,336.252,258.556z"/>
		<path style="opacity:0.59;fill:#EAA424;enable-background:new    ;" d="M351.288,248.471c0.289-1.253,0.127-2.728-1.015-3.482
			c-1.953-1.289-3.862,1.65-3.107,3.403C348.022,250.385,350.717,250.944,351.288,248.471z"/>
		<path style="opacity:0.59;fill:#EAA424;enable-background:new    ;" d="M326.467,271.877c-0.15,1.283,0,2.508,0.533,3.187
			c1.009,1.28,2.937,2.211,4.415,1.229c1.19-0.79,1.524-2.448,2.644-3.34c1.503-1.195,4.783-0.756,4.417-3.427
			c-0.317-2.321-3.341-1.4-4.645-0.586c-2.344,1.462-1.203-0.023-3.013-1.282C328.524,266.062,326.794,269.105,326.467,271.877z"/>
		<path style="opacity:0.59;fill:#EAA424;enable-background:new    ;" d="M345.995,266.737c-1.654,0.81-0.785,2.431-0.681,3.714
			c0.064,0.835-0.014,0.563-0.129,1.165c-0.08,0.419-0.824,0.522-0.442,1.14c0.456,0.738,2.236,0.291,2.834-0.001
			C350.485,271.329,349.412,265.062,345.995,266.737z"/>
		<path style="opacity:0.3;fill:#EAA424;enable-background:new    ;" d="M326.998,248.883c-0.218,0.803,0.118,1.49,1.351,1.572
			c1.808,0.12,3.09-1.393,4.72-1.879c1.527-0.454,2.578,0.073,2.233-2.648c-0.322-2.555-2.775-3.908-4.48-2.315
			c-1.125,1.053-1.658,2.634-2.776,3.679C327.522,247.779,327.141,248.356,326.998,248.883z"/>
		<path style="opacity:0.3;fill:#EAA424;enable-background:new    ;" d="M315.421,249.204c0.888,1.013,3.173,2.43,4.173,2.432
			c3.264,0.007,5.049-5.03,6.225-7.308c0.629-1.222,1.613-2.86,1.099-4.342c-0.014-0.044-0.031-0.084-0.049-0.126
			c-2.059,0.966-4.074,1.978-5.829,3.285C318.758,244.843,316.891,246.906,315.421,249.204z"/>
		<path style="opacity:0.3;fill:#EAA424;enable-background:new    ;" d="M340.568,252.724c0.458-0.031,0.745-0.527,1.294-0.522
			c0.171,0,0.232,0.728,0.575,0.698c1.879-0.166,3.621-2.447,2.35-4.318C342.182,244.748,333.871,253.193,340.568,252.724z"/>
		<path style="opacity:0.59;fill:#EAA424;enable-background:new    ;" d="M350.819,258.411c0.582-1.303-0.528-4.138-2.433-2.876
			C346.493,256.787,349.457,261.459,350.819,258.411z"/>
		<path style="opacity:0.59;fill:#EAA424;enable-background:new    ;" d="M354.085,204.396c-0.5,0.505-0.961,1.073-1.39,1.684
			c0.11,0.442,0.44,0.549,1.049,0.841c0.911,0.44,0.959-0.095,0.984,1.093c0.016,0.825-0.676,1.576-0.096,2.369
			c0.516,0.705,1.825,0.744,2.531,0.337c1.376-0.79,0.439-2.49,1.829-3.187c1.468-0.736,1.568,0.484,2.534,1.015
			c1.155,0.637,2.466,0.048,3.431-0.786C362.637,204.037,358.004,200.438,354.085,204.396z"/>
		<g>
			<path style="fill:#605B27;" d="M351.516,195.707c-0.19,0.722-0.117,1.592,0.232,2.243c0.5,0.93,1.432,0.932,2.259,1.41
				c0.902,0.522,1.921,1.096,2.432,2.035c0.719,1.324-1.221,4.077,0.812,4.672c1.134,0.331,2.766-0.685,2.876-1.851
				c0.221-2.321-0.819-4.752-2.311-6.497c-0.746-0.873-1.662-1.689-2.499-2.433C353.906,194.032,352.108,193.474,351.516,195.707z"
				/>
			<path style="fill:#7C752E;" d="M357.814,197.72c-0.178-0.207-0.366-0.41-0.559-0.61c0.591,0.817,1.104,1.685,1.515,2.479
				c0.599,1.153,1.482,3.055,0.401,4.119c-0.126,0.361-0.477,0.801-0.805,0.802c-0.538,0.003-1.179,0.427-1.679,0.294
				c-0.155-0.043-0.284-0.118-0.394-0.214c-0.024,0.68,0.162,1.246,0.956,1.48c1.134,0.331,2.766-0.685,2.876-1.851
				C360.347,201.895,359.307,199.465,357.814,197.72z"/>
			<path style="fill:#5B471B;" d="M356.438,201.395c0.007,0.014,0.014,0.03,0.021,0.045c0.011-0.225-0.04-0.447-0.193-0.658
				c-0.324-0.449-0.752-0.754-1.104-1.173c-0.307-0.366-0.632-0.847-0.404-1.256c0-0.054-0.003-0.107,0.002-0.163
				c0.017-0.189,0.162-0.29,0.348-0.261c0.226,0.035,0.43,0.086,0.631,0.149c-0.228-0.569-0.214-1.013,0.705-1.178
				c0.185-0.034,0.388-0.035,0.594-0.011c-0.561-0.563-1.156-1.101-1.723-1.602c-1.409-1.254-3.206-1.812-3.799,0.42
				c-0.19,0.722-0.117,1.592,0.232,2.243c0.5,0.93,1.432,0.932,2.259,1.41C354.909,199.882,355.928,200.456,356.438,201.395z"/>
		</g>
	</g>
	<g>
		<path style="fill:#F8D50E;" d="M296.042,224.51c1.496-5.391,2.889-10.978,0.462-16.244c-1.893-4.1-7.223-9.244-11.641-4.782
			c-3.736,3.774-5.248,10.839-7.918,15.543c-2.74,4.828-5.549,10.656-9.651,14.391c-4.332,3.945-10.811,5.344-15.477,8.815
			c-8.458,6.293-11.246,17.561-9.132,27.433c1.218,5.693,1.777,11.1,7.355,14.342c8.796,5.112,24.257,4.941,32.014-1.822
			c3.607-3.145,7.129-6.688,9.468-10.87c2.36-4.226,1.742-6.55,1.198-10.933c-1.142-9.234-0.101-21.432,1.919-30.544
			C295.027,228.099,295.54,226.314,296.042,224.51z"/>
		<path style="opacity:0.54;fill:#FFF18D;enable-background:new    ;" d="M260.121,254.165c0.077,0.059,0.153,0.123,0.228,0.191
			c3.377,3.03,2.505,2.08,5.882-0.829c2.747-2.366,3.56-0.873,6.739-0.481c7.74,0.955,8.937-8.836,9.375-14.289
			c0.23-2.904,0.282-5.896,1.047-8.73c0.732-2.725,2.236-4.634,2.505-7.447c0.328-3.435,3.645-8.226,2.536-11.636
			c-1.661-5.108-5.29,3.001-6.206,4.975c-1.212,2.616-2.992,2.374-3.866,5.57c-1.481,5.427-3.311,10.228-8.252,13.22
			c-4.171,2.524-10.607,4.92-13.261,9.154c-1.216,1.939-0.751,2.654-3.093,3.835c-2.262,1.141-7.597,4.436-2.682,6.482
			C253.893,255.354,257.437,252.115,260.121,254.165z"/>
		<path style="opacity:0.3;fill:#EAA424;enable-background:new    ;" d="M296.504,208.266c-1.763-3.816-6.5-8.531-10.708-5.571
			c1.289,0.061,2.583,0.455,3.377,1.046c3.318,2.462,2.653,7.635,2.095,11.103c-1.017,6.347-3.311,12.561-3.365,19.035
			c-0.035,4.313,1.456,9.565-1.975,13.042c-1.085,1.1-2.388,1.918-3.567,2.91c-1.438,1.208-2.377,2.524-2.983,4.293
			c-0.994,2.922-1.695,6.105-3.572,8.642c-4.081,5.515-11.225,7.784-17.445,10.11c-2.773,1.035-5.473,1.741-8.298,0.392
			c-2.722-1.3-4.83-3.683-6.303-6.238c-0.752-1.305-1.348-2.683-1.745-4.106c-0.028,2.27,0.199,4.541,0.67,6.743
			c1.218,5.693,1.777,11.1,7.355,14.342c8.796,5.112,24.257,4.941,32.014-1.822c3.607-3.145,7.129-6.688,9.468-10.87
			c2.36-4.226,1.742-6.55,1.198-10.933c-1.142-9.234-0.101-21.432,1.919-30.544c0.387-1.741,0.901-3.525,1.402-5.33
			C297.538,219.118,298.931,213.531,296.504,208.266z"/>
		<path style="opacity:0.37;fill:#EAA424;enable-background:new    ;" d="M294.11,232.419c-0.174,0.144-0.348,0.288-0.524,0.43
			c-1.083,0.882-2.176,1.786-3.071,2.858c-1.724,2.063-2.985,6.269-2.593,8.918c0.465,3.135,4.22,6.068,1.705,9.283
			c-1.423,1.822-6.19,0.585-6.493,3.465c-0.195,1.837,1.036,2.058-0.18,3.657c-0.717,0.944-1.557,1.969-2.802,1.793
			c-2.583-0.362-2.29-7.112-6.131-4.022c-1.548,1.242-0.329,3.166-1.371,4.579c-1.482,2.005-1.148-0.719-2.052-1.038
			c-1.806-0.641-3.144,3.411-5.189,2.828c-2.592-0.738-1.263-6.502-5.304-4.011c-1.365,0.842-1.123,2.698-1.919,3.943
			c-0.566,0.881-1.447,1.733-2.588,1.441c-0.65-0.165-0.923-0.94-1.592-1.118c-1.55-0.413-3.717,1.153-3.468-1.609
			c0.082-0.93,0.536-1.778,0.34-2.79c-0.265-1.351-0.578-1.161-1.651-1.457c-2.499-0.69-2.25-2.179-2.29-4.456
			c-0.017-0.982-1.893-4.834-1.656-5.269c-3.222,5.954-4.017,13.2-2.597,19.822c1.218,5.693,1.777,11.1,7.355,14.342
			c8.796,5.112,24.257,4.941,32.014-1.822c3.607-3.145,7.129-6.688,9.468-10.87c2.36-4.226,1.742-6.55,1.198-10.933
			C291.683,251.996,292.445,241.164,294.11,232.419z"/>
		<path style="opacity:0.59;fill:#EAA424;enable-background:new    ;" d="M293.241,237.789c-0.361,1.545-0.537,3.113-0.793,4.678
			c-0.242,1.493-0.832,2.907-1.09,4.397c-0.677,3.904,1.101,7.703-0.354,11.561c-0.263,0.699-0.773,1.33-0.963,2.05
			c-0.169,0.641-0.144,1.301-0.268,1.948c-0.209,1.101-0.643,1.911-1.395,2.74c-0.648,0.714-1.526,1.614-1.721,2.586
			c-0.418,2.094-0.88,2.594-2.851,3.249c-1.388,0.464-1.965,0.666-2.566,2.001c-0.557,1.245-0.516,2.18-1.876,2.939
			c-1.334,0.746-2.872,0.66-3.889-0.54c-0.765-0.901-0.529-1.903-1.895-2.06c-1.198-0.138-2.111,0.937-2.719,1.721
			c-0.861,1.107-1.063,2.771-2.362,3.552c-1.099,0.657-2.318,0.393-3.586,0.44c-2.917,0.108-5.441,4.666-8.068,1.423
			c-0.772-0.954-0.7-1.973-1.308-2.898c-0.401-0.609-0.81-0.576-1.381-1.008c-1.489-1.123-1.552-1.996-1.937-3.668
			c-0.305-1.346-1.296-2.699-2.848-1.582c-1.053,0.758-1.301,3.743-3.323,1.778c-0.664-0.645-0.361-1.778-0.989-2.443
			c-0.204-0.214-2.363-0.939-2.257-0.421c1.143,5.483,1.845,10.643,7.237,13.777c8.796,5.112,24.257,4.941,32.014-1.822
			c3.607-3.145,7.129-6.688,9.468-10.87c2.36-4.226,1.742-6.55,1.198-10.933C291.888,253.645,292.217,245.332,293.241,237.789z"/>
		<path style="opacity:0.59;fill:#EAA424;enable-background:new    ;" d="M257.137,259.562c0.585-0.459,0.808-0.04,1.054-1.011
			c0.185-0.734-0.188-1.87-0.775-2.352c-2.475-2.034-4.824,2.289-4.882,4.363C252.43,264.455,256.167,260.32,257.137,259.562z"/>
		<path style="opacity:0.59;fill:#EAA424;enable-background:new    ;" d="M267.028,257.644c1.238,0.279,2.595-1.419,2.365-2.584
			C268.716,251.592,265.905,257.39,267.028,257.644z"/>
		<path style="opacity:0.59;fill:#EAA424;enable-background:new    ;" d="M282.065,247.56c0.289-1.253,0.127-2.728-1.015-3.482
			c-1.953-1.289-3.862,1.65-3.107,3.403C278.799,249.474,281.493,250.033,282.065,247.56z"/>
		<path style="opacity:0.59;fill:#EAA424;enable-background:new    ;" d="M257.244,270.966c-0.15,1.283,0,2.508,0.533,3.187
			c1.009,1.28,2.936,2.211,4.415,1.229c1.19-0.79,1.524-2.448,2.644-3.34c1.503-1.195,4.783-0.756,4.417-3.427
			c-0.317-2.322-3.341-1.4-4.645-0.586c-2.344,1.463-1.204-0.023-3.013-1.282C259.301,265.151,257.571,268.194,257.244,270.966z"/>
		<path style="opacity:0.59;fill:#EAA424;enable-background:new    ;" d="M276.772,265.825c-1.655,0.81-0.786,2.432-0.681,3.714
			c0.064,0.835-0.014,0.564-0.129,1.165c-0.08,0.419-0.824,0.522-0.442,1.14c0.456,0.738,2.236,0.291,2.834-0.001
			C281.262,270.418,280.189,264.15,276.772,265.825z"/>
		<path style="opacity:0.3;fill:#EAA424;enable-background:new    ;" d="M257.775,247.971c-0.218,0.803,0.118,1.49,1.352,1.572
			c1.808,0.12,3.09-1.393,4.72-1.879c1.527-0.454,2.578,0.073,2.233-2.648c-0.322-2.555-2.775-3.908-4.48-2.315
			c-1.125,1.053-1.658,2.635-2.776,3.679C258.299,246.867,257.918,247.445,257.775,247.971z"/>
		<path style="opacity:0.3;fill:#EAA424;enable-background:new    ;" d="M246.198,248.292c0.888,1.013,3.173,2.43,4.173,2.432
			c3.264,0.007,5.049-5.03,6.225-7.308c0.629-1.222,1.613-2.86,1.099-4.342c-0.014-0.045-0.031-0.085-0.049-0.126
			c-2.059,0.966-4.074,1.978-5.83,3.285C249.535,243.931,247.668,245.994,246.198,248.292z"/>
		<path style="opacity:0.3;fill:#EAA424;enable-background:new    ;" d="M271.345,251.812c0.458-0.031,0.745-0.527,1.294-0.522
			c0.171,0,0.232,0.728,0.575,0.698c1.879-0.166,3.621-2.447,2.35-4.318C272.959,243.837,264.648,252.282,271.345,251.812z"/>
		<path style="opacity:0.59;fill:#EAA424;enable-background:new    ;" d="M281.596,257.5c0.582-1.303-0.528-4.138-2.433-2.876
			C277.27,255.876,280.234,260.548,281.596,257.5z"/>
		<path style="opacity:0.59;fill:#EAA424;enable-background:new    ;" d="M284.862,203.485c-0.5,0.505-0.961,1.072-1.39,1.684
			c0.11,0.442,0.44,0.549,1.049,0.841c0.911,0.44,0.959-0.095,0.984,1.093c0.016,0.825-0.676,1.576-0.096,2.369
			c0.516,0.705,1.825,0.744,2.531,0.337c1.376-0.79,0.439-2.49,1.829-3.187c1.468-0.736,1.568,0.484,2.534,1.015
			c1.155,0.637,2.466,0.048,3.431-0.785C293.414,203.125,288.781,199.527,284.862,203.485z"/>
		<g>
			<path style="fill:#605B27;" d="M282.293,194.795c-0.19,0.722-0.117,1.592,0.232,2.244c0.5,0.93,1.432,0.932,2.259,1.41
				c0.902,0.522,1.921,1.096,2.432,2.035c0.719,1.324-1.221,4.077,0.812,4.672c1.134,0.331,2.766-0.685,2.876-1.851
				c0.221-2.321-0.819-4.752-2.311-6.497c-0.745-0.873-1.662-1.689-2.499-2.433C284.683,193.121,282.885,192.563,282.293,194.795z"
				/>
			<path style="fill:#7C752E;" d="M288.591,196.808c-0.177-0.207-0.366-0.41-0.559-0.61c0.591,0.817,1.104,1.685,1.515,2.478
				c0.599,1.153,1.482,3.055,0.401,4.119c-0.125,0.361-0.477,0.801-0.805,0.802c-0.538,0.003-1.179,0.427-1.679,0.294
				c-0.155-0.044-0.284-0.118-0.394-0.214c-0.024,0.68,0.162,1.247,0.956,1.48c1.134,0.331,2.766-0.685,2.876-1.851
				C291.123,200.984,290.084,198.553,288.591,196.808z"/>
			<path style="fill:#5B471B;" d="M287.215,200.484c0.007,0.015,0.014,0.03,0.021,0.045c0.011-0.225-0.04-0.447-0.193-0.658
				c-0.324-0.449-0.753-0.754-1.104-1.173c-0.307-0.366-0.632-0.847-0.404-1.256c0-0.053-0.003-0.107,0.002-0.163
				c0.018-0.189,0.162-0.291,0.348-0.261c0.227,0.035,0.43,0.086,0.631,0.149c-0.228-0.569-0.214-1.013,0.705-1.178
				c0.185-0.033,0.388-0.035,0.594-0.011c-0.561-0.563-1.156-1.1-1.723-1.601c-1.409-1.254-3.206-1.813-3.799,0.42
				c-0.19,0.722-0.117,1.592,0.232,2.244c0.5,0.93,1.432,0.932,2.259,1.41C285.686,198.971,286.705,199.545,287.215,200.484z"/>
		</g>
	</g>
	<g>
		<path style="fill:#F8D50E;" d="M395.276,297.535c1.496-5.391,2.89-10.978,0.462-16.244c-1.893-4.1-7.223-9.244-11.642-4.782
			c-3.736,3.774-5.248,10.839-7.918,15.543c-2.74,4.828-5.549,10.656-9.651,14.391c-4.332,3.945-10.811,5.344-15.477,8.815
			c-8.458,6.293-11.246,17.561-9.132,27.433c1.217,5.693,1.777,11.1,7.355,14.342c8.796,5.112,24.257,4.941,32.014-1.822
			c3.607-3.145,7.129-6.688,9.468-10.87c2.36-4.226,1.742-6.55,1.198-10.933c-1.142-9.234-0.101-21.431,1.919-30.544
			C394.26,301.124,394.774,299.34,395.276,297.535z"/>
		<path style="opacity:0.54;fill:#FFF18D;enable-background:new    ;" d="M359.355,327.191c0.077,0.059,0.153,0.123,0.228,0.191
			c3.377,3.03,2.505,2.08,5.882-0.829c2.746-2.366,3.56-0.874,6.739-0.481c7.74,0.955,8.937-8.836,9.376-14.289
			c0.23-2.904,0.282-5.896,1.047-8.73c0.732-2.725,2.236-4.634,2.505-7.447c0.327-3.435,3.645-8.226,2.536-11.636
			c-1.662-5.108-5.29,3.001-6.206,4.975c-1.212,2.616-2.992,2.374-3.867,5.57c-1.48,5.427-3.311,10.228-8.252,13.22
			c-4.172,2.524-10.607,4.92-13.261,9.154c-1.216,1.939-0.751,2.654-3.093,3.835c-2.263,1.141-7.597,4.436-2.682,6.482
			C353.127,328.38,356.671,325.141,359.355,327.191z"/>
		<path style="opacity:0.3;fill:#EAA424;enable-background:new    ;" d="M395.738,281.292c-1.763-3.816-6.5-8.531-10.708-5.571
			c1.289,0.061,2.583,0.455,3.377,1.046c3.318,2.462,2.653,7.635,2.095,11.103c-1.017,6.347-3.311,12.561-3.365,19.035
			c-0.035,4.313,1.456,9.565-1.975,13.042c-1.085,1.1-2.388,1.918-3.567,2.91c-1.439,1.208-2.377,2.525-2.983,4.293
			c-0.995,2.922-1.695,6.105-3.572,8.642c-4.081,5.515-11.225,7.784-17.445,10.11c-2.773,1.035-5.472,1.741-8.298,0.392
			c-2.722-1.3-4.83-3.683-6.303-6.238c-0.753-1.305-1.348-2.683-1.745-4.106c-0.028,2.27,0.199,4.541,0.671,6.743
			c1.217,5.693,1.777,11.1,7.355,14.342c8.796,5.112,24.257,4.941,32.014-1.822c3.607-3.145,7.129-6.688,9.468-10.87
			c2.36-4.226,1.742-6.55,1.198-10.933c-1.142-9.234-0.101-21.431,1.919-30.544c0.387-1.741,0.901-3.525,1.402-5.33
			C396.772,292.144,398.165,286.557,395.738,281.292z"/>
		<path style="opacity:0.37;fill:#EAA424;enable-background:new    ;" d="M393.344,305.445c-0.174,0.144-0.348,0.288-0.524,0.43
			c-1.083,0.882-2.175,1.786-3.071,2.858c-1.724,2.063-2.985,6.269-2.593,8.918c0.465,3.135,4.22,6.068,1.705,9.283
			c-1.423,1.822-6.19,0.585-6.493,3.465c-0.195,1.837,1.036,2.058-0.179,3.657c-0.717,0.944-1.557,1.969-2.802,1.793
			c-2.583-0.362-2.29-7.112-6.131-4.022c-1.548,1.242-0.329,3.166-1.371,4.579c-1.482,2.005-1.148-0.719-2.052-1.038
			c-1.806-0.64-3.144,3.411-5.189,2.828c-2.591-0.738-1.263-6.502-5.303-4.011c-1.365,0.842-1.124,2.698-1.919,3.943
			c-0.566,0.881-1.447,1.733-2.588,1.441c-0.65-0.165-0.923-0.94-1.592-1.118c-1.55-0.413-3.717,1.154-3.468-1.608
			c0.082-0.93,0.536-1.778,0.34-2.79c-0.265-1.351-0.578-1.161-1.651-1.457c-2.499-0.69-2.25-2.179-2.29-4.456
			c-0.018-0.982-1.893-4.834-1.656-5.269c-3.222,5.954-4.017,13.2-2.597,19.822c1.217,5.693,1.777,11.1,7.355,14.342
			c8.796,5.112,24.257,4.941,32.014-1.822c3.607-3.145,7.129-6.688,9.468-10.87c2.36-4.226,1.742-6.55,1.198-10.933
			C390.916,325.021,391.679,314.19,393.344,305.445z"/>
		<path style="opacity:0.59;fill:#EAA424;enable-background:new    ;" d="M392.475,310.814c-0.36,1.545-0.536,3.113-0.792,4.678
			c-0.242,1.493-0.832,2.907-1.091,4.397c-0.677,3.904,1.101,7.703-0.353,11.561c-0.263,0.699-0.773,1.33-0.963,2.05
			c-0.169,0.641-0.145,1.301-0.268,1.948c-0.209,1.1-0.643,1.911-1.395,2.74c-0.648,0.714-1.526,1.614-1.721,2.586
			c-0.418,2.094-0.88,2.594-2.851,3.249c-1.388,0.464-1.965,0.666-2.565,2.001c-0.558,1.245-0.516,2.18-1.876,2.939
			c-1.334,0.746-2.872,0.66-3.889-0.54c-0.765-0.901-0.529-1.903-1.895-2.06c-1.198-0.138-2.111,0.937-2.719,1.721
			c-0.861,1.107-1.063,2.771-2.362,3.552c-1.099,0.657-2.318,0.393-3.586,0.44c-2.917,0.108-5.441,4.666-8.068,1.423
			c-0.772-0.954-0.7-1.973-1.308-2.898c-0.401-0.609-0.81-0.576-1.381-1.008c-1.489-1.123-1.552-1.996-1.937-3.668
			c-0.305-1.346-1.296-2.699-2.848-1.582c-1.054,0.758-1.301,3.743-3.323,1.778c-0.663-0.645-0.36-1.778-0.989-2.443
			c-0.204-0.214-2.363-0.939-2.257-0.421c1.143,5.483,1.845,10.643,7.237,13.777c8.796,5.112,24.257,4.941,32.014-1.822
			c3.607-3.145,7.129-6.688,9.468-10.87c2.36-4.226,1.742-6.55,1.198-10.933C391.122,326.671,391.451,318.358,392.475,310.814z"/>
		<path style="opacity:0.59;fill:#EAA424;enable-background:new    ;" d="M356.371,332.588c0.585-0.459,0.808-0.04,1.054-1.011
			c0.185-0.734-0.188-1.87-0.775-2.352c-2.475-2.034-4.824,2.289-4.882,4.363C351.664,337.481,355.401,333.346,356.371,332.588z"/>
		<path style="opacity:0.59;fill:#EAA424;enable-background:new    ;" d="M366.262,330.67c1.238,0.279,2.595-1.419,2.365-2.584
			C367.95,324.617,365.139,330.416,366.262,330.67z"/>
		<path style="opacity:0.59;fill:#EAA424;enable-background:new    ;" d="M381.299,320.585c0.289-1.253,0.127-2.728-1.015-3.482
			c-1.953-1.289-3.862,1.65-3.107,3.403C378.033,322.499,380.727,323.058,381.299,320.585z"/>
		<path style="opacity:0.59;fill:#EAA424;enable-background:new    ;" d="M356.478,343.991c-0.15,1.283,0,2.508,0.533,3.187
			c1.009,1.28,2.937,2.211,4.415,1.229c1.19-0.79,1.524-2.448,2.644-3.34c1.503-1.195,4.783-0.756,4.417-3.427
			c-0.317-2.322-3.341-1.4-4.645-0.586c-2.344,1.463-1.203-0.023-3.013-1.282C358.535,338.177,356.805,341.219,356.478,343.991z"/>
		<path style="opacity:0.59;fill:#EAA424;enable-background:new    ;" d="M376.006,338.851c-1.654,0.81-0.785,2.432-0.681,3.714
			c0.064,0.835-0.014,0.563-0.129,1.165c-0.08,0.419-0.824,0.522-0.442,1.14c0.456,0.738,2.236,0.291,2.834-0.001
			C380.496,343.443,379.423,337.176,376.006,338.851z"/>
		<path style="opacity:0.3;fill:#EAA424;enable-background:new    ;" d="M357.009,320.997c-0.218,0.803,0.118,1.49,1.351,1.572
			c1.808,0.12,3.09-1.393,4.72-1.879c1.527-0.454,2.578,0.073,2.233-2.648c-0.322-2.555-2.775-3.908-4.48-2.315
			c-1.125,1.053-1.658,2.635-2.776,3.679C357.533,319.893,357.152,320.47,357.009,320.997z"/>
		<path style="opacity:0.3;fill:#EAA424;enable-background:new    ;" d="M345.431,321.318c0.888,1.013,3.173,2.43,4.173,2.432
			c3.264,0.007,5.049-5.03,6.225-7.308c0.629-1.222,1.613-2.86,1.099-4.342c-0.014-0.045-0.031-0.085-0.049-0.126
			c-2.059,0.966-4.074,1.978-5.83,3.285C348.769,316.957,346.902,319.019,345.431,321.318z"/>
		<path style="opacity:0.3;fill:#EAA424;enable-background:new    ;" d="M370.579,324.838c0.458-0.031,0.745-0.527,1.294-0.522
			c0.171,0,0.232,0.728,0.575,0.698c1.879-0.166,3.621-2.447,2.35-4.318C372.193,316.862,363.882,325.307,370.579,324.838z"/>
		<path style="opacity:0.59;fill:#EAA424;enable-background:new    ;" d="M380.83,330.525c0.582-1.303-0.528-4.138-2.433-2.876
			C376.504,328.901,379.468,333.573,380.83,330.525z"/>
		<path style="opacity:0.59;fill:#EAA424;enable-background:new    ;" d="M384.096,276.51c-0.5,0.505-0.961,1.072-1.39,1.684
			c0.11,0.442,0.44,0.549,1.049,0.841c0.911,0.44,0.959-0.095,0.984,1.093c0.016,0.825-0.676,1.576-0.096,2.369
			c0.515,0.705,1.825,0.744,2.531,0.337c1.376-0.79,0.439-2.49,1.829-3.187c1.468-0.736,1.568,0.484,2.534,1.015
			c1.155,0.637,2.466,0.048,3.431-0.785C392.648,276.151,388.015,272.552,384.096,276.51z"/>
		<g>
			<path style="fill:#605B27;" d="M381.527,267.821c-0.19,0.722-0.117,1.592,0.232,2.244c0.5,0.93,1.432,0.932,2.259,1.41
				c0.902,0.522,1.921,1.096,2.432,2.036c0.719,1.324-1.221,4.077,0.812,4.672c1.134,0.331,2.766-0.685,2.876-1.851
				c0.221-2.321-0.819-4.752-2.311-6.497c-0.746-0.874-1.662-1.689-2.499-2.433C383.917,266.146,382.119,265.588,381.527,267.821z"
				/>
			<path style="fill:#7C752E;" d="M387.825,269.834c-0.178-0.207-0.366-0.41-0.559-0.61c0.591,0.817,1.104,1.685,1.515,2.478
				c0.599,1.153,1.482,3.055,0.401,4.119c-0.125,0.361-0.477,0.801-0.805,0.802c-0.538,0.003-1.179,0.427-1.679,0.294
				c-0.155-0.044-0.284-0.118-0.394-0.214c-0.024,0.68,0.162,1.247,0.956,1.48c1.134,0.331,2.766-0.685,2.876-1.851
				C390.357,274.01,389.318,271.579,387.825,269.834z"/>
			<path style="fill:#5B471B;" d="M386.449,273.509c0.007,0.014,0.014,0.03,0.021,0.044c0.011-0.225-0.04-0.447-0.193-0.658
				c-0.324-0.449-0.752-0.754-1.104-1.173c-0.307-0.366-0.632-0.847-0.404-1.256c0-0.054-0.003-0.107,0.002-0.163
				c0.017-0.189,0.162-0.29,0.348-0.261c0.226,0.035,0.43,0.086,0.631,0.149c-0.228-0.569-0.214-1.013,0.705-1.178
				c0.185-0.033,0.388-0.035,0.594-0.011c-0.561-0.563-1.156-1.1-1.723-1.601c-1.409-1.254-3.206-1.813-3.799,0.42
				c-0.19,0.722-0.117,1.592,0.232,2.244c0.5,0.93,1.432,0.932,2.259,1.41C384.92,271.996,385.939,272.57,386.449,273.509z"/>
		</g>
	</g>
	<g>
		<path style="fill:#F8D50E;" d="M226.933,272.192c1.496-5.391,2.889-10.978,0.462-16.243c-1.893-4.1-7.223-9.244-11.641-4.782
			c-3.736,3.774-5.248,10.839-7.918,15.543c-2.74,4.828-5.549,10.656-9.651,14.391c-4.332,3.945-10.811,5.344-15.477,8.815
			c-8.458,6.293-11.246,17.56-9.132,27.433c1.217,5.693,1.776,11.1,7.355,14.342c8.796,5.112,24.257,4.941,32.014-1.822
			c3.607-3.145,7.129-6.688,9.468-10.87c2.36-4.226,1.742-6.55,1.198-10.933c-1.143-9.234-0.101-21.432,1.919-30.544
			C225.917,275.782,226.431,273.997,226.933,272.192z"/>
		<path style="opacity:0.54;fill:#FFF18D;enable-background:new    ;" d="M191.012,301.848c0.077,0.059,0.153,0.123,0.228,0.191
			c3.377,3.03,2.505,2.08,5.882-0.829c2.747-2.366,3.56-0.873,6.739-0.481c7.74,0.955,8.937-8.836,9.375-14.289
			c0.23-2.904,0.282-5.896,1.047-8.73c0.732-2.725,2.237-4.634,2.505-7.447c0.328-3.435,3.645-8.226,2.536-11.636
			c-1.661-5.108-5.29,3.001-6.206,4.975c-1.212,2.616-2.992,2.374-3.866,5.57c-1.481,5.427-3.311,10.228-8.252,13.22
			c-4.171,2.525-10.607,4.92-13.261,9.154c-1.216,1.939-0.75,2.654-3.093,3.835c-2.262,1.14-7.597,4.436-2.682,6.482
			C184.783,303.037,188.328,299.798,191.012,301.848z"/>
		<path style="opacity:0.3;fill:#EAA424;enable-background:new    ;" d="M227.394,255.949c-1.763-3.816-6.5-8.531-10.708-5.571
			c1.289,0.061,2.583,0.455,3.377,1.046c3.318,2.462,2.653,7.635,2.095,11.104c-1.017,6.347-3.311,12.561-3.365,19.035
			c-0.035,4.313,1.456,9.565-1.975,13.042c-1.085,1.1-2.388,1.918-3.567,2.91c-1.438,1.208-2.377,2.524-2.983,4.293
			c-0.995,2.922-1.695,6.105-3.572,8.642c-4.081,5.515-11.225,7.784-17.445,10.11c-2.773,1.035-5.473,1.741-8.298,0.392
			c-2.722-1.3-4.83-3.683-6.303-6.238c-0.752-1.306-1.348-2.683-1.745-4.106c-0.028,2.27,0.199,4.541,0.671,6.743
			c1.217,5.693,1.776,11.1,7.355,14.342c8.796,5.112,24.257,4.941,32.014-1.822c3.607-3.145,7.129-6.688,9.468-10.87
			c2.36-4.226,1.742-6.55,1.198-10.933c-1.143-9.234-0.101-21.432,1.919-30.544c0.387-1.741,0.901-3.525,1.402-5.33
			C228.429,266.801,229.822,261.214,227.394,255.949z"/>
		<path style="opacity:0.37;fill:#EAA424;enable-background:new    ;" d="M225.001,280.102c-0.174,0.144-0.348,0.288-0.524,0.43
			c-1.083,0.882-2.176,1.786-3.071,2.858c-1.724,2.063-2.985,6.269-2.593,8.918c0.465,3.135,4.22,6.068,1.705,9.283
			c-1.423,1.822-6.19,0.585-6.493,3.465c-0.195,1.837,1.036,2.058-0.179,3.657c-0.718,0.944-1.557,1.969-2.802,1.793
			c-2.583-0.362-2.29-7.112-6.131-4.022c-1.548,1.242-0.329,3.166-1.371,4.579c-1.482,2.005-1.148-0.719-2.052-1.038
			c-1.806-0.641-3.144,3.411-5.189,2.828c-2.592-0.738-1.263-6.502-5.304-4.011c-1.365,0.842-1.123,2.698-1.919,3.943
			c-0.566,0.881-1.447,1.733-2.588,1.441c-0.65-0.165-0.923-0.94-1.592-1.118c-1.55-0.413-3.717,1.153-3.468-1.609
			c0.082-0.93,0.536-1.778,0.34-2.79c-0.265-1.351-0.578-1.161-1.651-1.457c-2.499-0.69-2.251-2.179-2.291-4.456
			c-0.017-0.982-1.893-4.834-1.656-5.269c-3.222,5.954-4.016,13.201-2.597,19.822c1.217,5.693,1.776,11.1,7.355,14.342
			c8.796,5.112,24.257,4.941,32.014-1.822c3.607-3.145,7.129-6.688,9.468-10.87c2.36-4.226,1.742-6.55,1.198-10.933
			C222.573,299.679,223.336,288.847,225.001,280.102z"/>
		<path style="opacity:0.59;fill:#EAA424;enable-background:new    ;" d="M224.132,285.472c-0.361,1.545-0.536,3.113-0.792,4.678
			c-0.242,1.493-0.833,2.907-1.09,4.397c-0.677,3.904,1.101,7.703-0.354,11.561c-0.263,0.699-0.773,1.33-0.963,2.05
			c-0.169,0.641-0.144,1.301-0.268,1.948c-0.209,1.101-0.643,1.91-1.395,2.74c-0.648,0.714-1.526,1.614-1.721,2.586
			c-0.418,2.094-0.88,2.594-2.851,3.249c-1.388,0.463-1.965,0.666-2.565,2.001c-0.557,1.245-0.516,2.18-1.876,2.939
			c-1.334,0.746-2.872,0.66-3.889-0.54c-0.765-0.902-0.529-1.903-1.895-2.06c-1.198-0.138-2.111,0.937-2.719,1.721
			c-0.861,1.107-1.063,2.771-2.362,3.552c-1.099,0.657-2.318,0.393-3.586,0.44c-2.917,0.108-5.441,4.666-8.068,1.423
			c-0.772-0.954-0.7-1.973-1.308-2.898c-0.401-0.609-0.81-0.576-1.381-1.008c-1.489-1.123-1.552-1.996-1.937-3.668
			c-0.305-1.346-1.296-2.699-2.848-1.582c-1.054,0.758-1.301,3.743-3.323,1.778c-0.664-0.645-0.361-1.778-0.989-2.443
			c-0.204-0.214-2.363-0.939-2.257-0.421c1.143,5.483,1.845,10.642,7.237,13.777c8.796,5.112,24.257,4.941,32.014-1.822
			c3.607-3.145,7.129-6.688,9.468-10.87c2.36-4.226,1.742-6.55,1.198-10.933C222.779,301.328,223.108,293.015,224.132,285.472z"/>
		<path style="opacity:0.59;fill:#EAA424;enable-background:new    ;" d="M188.028,307.245c0.585-0.459,0.808-0.04,1.054-1.011
			c0.185-0.734-0.188-1.87-0.775-2.352c-2.475-2.034-4.824,2.289-4.882,4.363C183.32,312.138,187.058,308.003,188.028,307.245z"/>
		<path style="opacity:0.59;fill:#EAA424;enable-background:new    ;" d="M197.919,305.327c1.238,0.279,2.595-1.419,2.365-2.584
			C199.607,299.275,196.796,305.073,197.919,305.327z"/>
		<path style="opacity:0.59;fill:#EAA424;enable-background:new    ;" d="M212.956,295.243c0.289-1.253,0.127-2.728-1.015-3.482
			c-1.953-1.289-3.862,1.65-3.107,3.403C209.69,297.157,212.384,297.716,212.956,295.243z"/>
		<path style="opacity:0.59;fill:#EAA424;enable-background:new    ;" d="M188.134,318.649c-0.15,1.283,0,2.508,0.533,3.187
			c1.009,1.28,2.936,2.211,4.415,1.229c1.19-0.79,1.524-2.448,2.644-3.34c1.503-1.195,4.783-0.756,4.417-3.427
			c-0.317-2.322-3.341-1.4-4.645-0.586c-2.344,1.462-1.204-0.023-3.013-1.282C190.191,312.834,188.462,315.877,188.134,318.649z"/>
		<path style="opacity:0.59;fill:#EAA424;enable-background:new    ;" d="M207.663,313.508c-1.655,0.81-0.786,2.431-0.681,3.714
			c0.064,0.835-0.014,0.563-0.129,1.165c-0.08,0.419-0.824,0.522-0.442,1.14c0.456,0.738,2.236,0.291,2.834-0.001
			C212.153,318.101,211.08,311.833,207.663,313.508z"/>
		<path style="opacity:0.3;fill:#EAA424;enable-background:new    ;" d="M188.666,295.654c-0.218,0.803,0.118,1.49,1.352,1.572
			c1.808,0.12,3.09-1.393,4.72-1.879c1.527-0.454,2.578,0.073,2.233-2.648c-0.322-2.555-2.775-3.908-4.48-2.315
			c-1.125,1.053-1.658,2.635-2.776,3.679C189.19,294.55,188.808,295.127,188.666,295.654z"/>
		<path style="opacity:0.3;fill:#EAA424;enable-background:new    ;" d="M177.088,295.975c0.888,1.013,3.173,2.43,4.173,2.432
			c3.264,0.007,5.049-5.03,6.225-7.308c0.629-1.222,1.613-2.86,1.099-4.342c-0.014-0.045-0.031-0.085-0.049-0.126
			c-2.059,0.966-4.074,1.978-5.83,3.285C180.426,291.614,178.559,293.677,177.088,295.975z"/>
		<path style="opacity:0.3;fill:#EAA424;enable-background:new    ;" d="M202.235,299.495c0.458-0.031,0.745-0.527,1.294-0.522
			c0.171,0,0.232,0.728,0.575,0.698c1.879-0.166,3.621-2.447,2.35-4.318C203.85,291.519,195.538,299.965,202.235,299.495z"/>
		<path style="opacity:0.59;fill:#EAA424;enable-background:new    ;" d="M212.487,305.183c0.582-1.303-0.528-4.138-2.433-2.876
			C208.161,303.559,211.125,308.231,212.487,305.183z"/>
		<path style="opacity:0.59;fill:#EAA424;enable-background:new    ;" d="M215.753,251.168c-0.5,0.505-0.961,1.072-1.39,1.684
			c0.11,0.442,0.44,0.549,1.049,0.841c0.911,0.44,0.96-0.095,0.984,1.093c0.016,0.825-0.676,1.576-0.096,2.369
			c0.516,0.705,1.825,0.744,2.531,0.337c1.376-0.79,0.439-2.49,1.829-3.187c1.468-0.736,1.567,0.484,2.534,1.015
			c1.155,0.637,2.466,0.048,3.431-0.785C224.305,250.808,219.672,247.209,215.753,251.168z"/>
		<g>
			<path style="fill:#605B27;" d="M213.184,242.478c-0.19,0.722-0.117,1.592,0.232,2.244c0.5,0.93,1.432,0.932,2.259,1.409
				c0.902,0.522,1.921,1.096,2.431,2.035c0.719,1.324-1.221,4.077,0.812,4.672c1.134,0.331,2.766-0.685,2.876-1.851
				c0.221-2.321-0.819-4.752-2.311-6.497c-0.745-0.873-1.662-1.689-2.499-2.433C215.573,240.804,213.776,240.245,213.184,242.478z"
				/>
			<path style="fill:#7C752E;" d="M219.482,244.491c-0.177-0.207-0.366-0.41-0.559-0.61c0.591,0.817,1.104,1.685,1.515,2.478
				c0.599,1.153,1.482,3.055,0.401,4.119c-0.125,0.361-0.477,0.801-0.805,0.802c-0.538,0.003-1.179,0.427-1.679,0.294
				c-0.155-0.044-0.284-0.118-0.394-0.214c-0.024,0.68,0.162,1.247,0.956,1.48c1.134,0.331,2.766-0.685,2.876-1.851
				C222.014,248.667,220.975,246.236,219.482,244.491z"/>
			<path style="fill:#5B471B;" d="M218.106,248.166c0.007,0.015,0.014,0.03,0.021,0.045c0.011-0.225-0.04-0.447-0.193-0.658
				c-0.324-0.449-0.753-0.754-1.104-1.173c-0.307-0.366-0.632-0.847-0.404-1.256c0-0.053-0.003-0.107,0.002-0.163
				c0.018-0.188,0.162-0.29,0.348-0.261c0.227,0.035,0.43,0.086,0.631,0.149c-0.228-0.569-0.214-1.013,0.705-1.178
				c0.185-0.033,0.388-0.035,0.594-0.011c-0.561-0.563-1.157-1.101-1.723-1.601c-1.409-1.254-3.206-1.813-3.799,0.42
				c-0.19,0.722-0.117,1.592,0.232,2.244c0.5,0.93,1.432,0.932,2.259,1.409C216.577,246.654,217.596,247.228,218.106,248.166z"/>
		</g>
	</g>
	<g>
		<path style="fill:#F8D50E;" d="M301.877,327.135c1.496-5.391,2.89-10.978,0.462-16.243c-1.893-4.1-7.223-9.244-11.641-4.782
			c-3.736,3.774-5.248,10.839-7.918,15.543c-2.74,4.828-5.549,10.656-9.651,14.391c-4.332,3.945-10.811,5.344-15.477,8.815
			c-8.458,6.293-11.246,17.561-9.132,27.433c1.217,5.693,1.777,11.1,7.355,14.342c8.796,5.112,24.257,4.941,32.014-1.822
			c3.607-3.145,7.129-6.688,9.468-10.87c2.36-4.226,1.742-6.55,1.198-10.933c-1.142-9.234-0.101-21.432,1.919-30.544
			C300.862,330.725,301.376,328.94,301.877,327.135z"/>
		<path style="opacity:0.54;fill:#FFF18D;enable-background:new    ;" d="M265.956,356.791c0.077,0.059,0.153,0.123,0.228,0.191
			c3.377,3.03,2.505,2.08,5.882-0.829c2.747-2.366,3.56-0.873,6.739-0.48c7.74,0.955,8.937-8.836,9.376-14.289
			c0.23-2.904,0.282-5.896,1.047-8.73c0.732-2.725,2.236-4.634,2.505-7.447c0.327-3.435,3.645-8.226,2.536-11.636
			c-1.662-5.108-5.29,3.001-6.206,4.975c-1.212,2.616-2.992,2.374-3.867,5.57c-1.48,5.427-3.311,10.228-8.252,13.22
			c-4.172,2.524-10.607,4.92-13.261,9.154c-1.216,1.939-0.751,2.654-3.093,3.835c-2.262,1.14-7.597,4.436-2.682,6.481
			C259.728,357.98,263.272,354.741,265.956,356.791z"/>
		<path style="opacity:0.3;fill:#EAA424;enable-background:new    ;" d="M302.339,310.892c-1.763-3.816-6.5-8.531-10.708-5.571
			c1.289,0.061,2.583,0.455,3.377,1.046c3.318,2.462,2.653,7.635,2.095,11.104c-1.017,6.347-3.311,12.561-3.365,19.035
			c-0.035,4.313,1.456,9.565-1.975,13.043c-1.085,1.1-2.388,1.918-3.567,2.909c-1.439,1.208-2.377,2.524-2.983,4.293
			c-0.995,2.921-1.695,6.105-3.572,8.642c-4.081,5.514-11.225,7.784-17.445,10.11c-2.773,1.035-5.472,1.741-8.298,0.392
			c-2.722-1.3-4.83-3.683-6.303-6.238c-0.753-1.306-1.348-2.683-1.745-4.107c-0.028,2.27,0.199,4.541,0.671,6.743
			c1.217,5.693,1.777,11.1,7.355,14.342c8.796,5.112,24.257,4.941,32.014-1.822c3.607-3.145,7.129-6.688,9.468-10.87
			c2.36-4.226,1.742-6.55,1.198-10.933c-1.142-9.234-0.101-21.432,1.919-30.544c0.387-1.741,0.901-3.525,1.402-5.33
			C303.374,321.744,304.767,316.157,302.339,310.892z"/>
		<path style="opacity:0.37;fill:#EAA424;enable-background:new    ;" d="M299.946,335.045c-0.174,0.144-0.348,0.288-0.524,0.43
			c-1.083,0.882-2.175,1.786-3.071,2.858c-1.724,2.063-2.985,6.269-2.593,8.918c0.465,3.135,4.22,6.068,1.705,9.283
			c-1.423,1.822-6.19,0.585-6.493,3.465c-0.195,1.837,1.036,2.058-0.179,3.658c-0.717,0.944-1.557,1.969-2.802,1.793
			c-2.583-0.362-2.29-7.112-6.131-4.022c-1.548,1.242-0.329,3.167-1.371,4.579c-1.482,2.005-1.148-0.719-2.052-1.038
			c-1.806-0.64-3.144,3.411-5.189,2.828c-2.591-0.737-1.263-6.502-5.303-4.011c-1.365,0.842-1.124,2.698-1.919,3.942
			c-0.566,0.881-1.447,1.733-2.588,1.441c-0.65-0.165-0.923-0.94-1.592-1.119c-1.55-0.413-3.717,1.154-3.468-1.608
			c0.082-0.93,0.537-1.778,0.34-2.79c-0.265-1.351-0.578-1.161-1.651-1.457c-2.499-0.69-2.25-2.18-2.29-4.456
			c-0.018-0.982-1.893-4.834-1.656-5.269c-3.222,5.954-4.016,13.2-2.597,19.822c1.217,5.693,1.777,11.1,7.355,14.342
			c8.796,5.112,24.257,4.941,32.014-1.822c3.607-3.145,7.129-6.688,9.468-10.87c2.36-4.226,1.742-6.55,1.198-10.933
			C297.518,354.621,298.281,343.79,299.946,335.045z"/>
		<path style="opacity:0.59;fill:#EAA424;enable-background:new    ;" d="M299.077,340.414c-0.36,1.545-0.536,3.113-0.792,4.678
			c-0.242,1.493-0.832,2.907-1.09,4.397c-0.677,3.904,1.101,7.703-0.353,11.561c-0.263,0.699-0.773,1.33-0.963,2.05
			c-0.169,0.641-0.145,1.301-0.268,1.949c-0.209,1.1-0.643,1.91-1.395,2.74c-0.648,0.714-1.526,1.613-1.721,2.586
			c-0.418,2.094-0.88,2.594-2.851,3.249c-1.388,0.463-1.965,0.666-2.566,2.001c-0.557,1.245-0.516,2.181-1.876,2.939
			c-1.334,0.746-2.872,0.66-3.889-0.54c-0.765-0.902-0.53-1.903-1.895-2.06c-1.198-0.137-2.111,0.937-2.719,1.721
			c-0.861,1.107-1.063,2.771-2.362,3.552c-1.099,0.657-2.318,0.393-3.586,0.439c-2.918,0.108-5.441,4.666-8.068,1.423
			c-0.772-0.954-0.7-1.973-1.308-2.898c-0.401-0.609-0.81-0.575-1.381-1.007c-1.489-1.123-1.552-1.996-1.937-3.669
			c-0.305-1.345-1.296-2.699-2.848-1.582c-1.054,0.758-1.301,3.743-3.323,1.778c-0.663-0.645-0.36-1.778-0.989-2.443
			c-0.204-0.214-2.363-0.939-2.257-0.421c1.143,5.483,1.845,10.643,7.237,13.777c8.796,5.112,24.257,4.941,32.014-1.822
			c3.607-3.145,7.129-6.688,9.468-10.87c2.36-4.226,1.742-6.55,1.198-10.933C297.724,356.271,298.053,347.958,299.077,340.414z"/>
		<path style="opacity:0.59;fill:#EAA424;enable-background:new    ;" d="M262.973,362.188c0.585-0.459,0.808-0.04,1.054-1.011
			c0.185-0.734-0.188-1.87-0.775-2.352c-2.475-2.034-4.824,2.289-4.882,4.363C258.265,367.081,262.003,362.946,262.973,362.188z"/>
		<path style="opacity:0.59;fill:#EAA424;enable-background:new    ;" d="M272.864,360.27c1.238,0.279,2.595-1.419,2.365-2.584
			C274.552,354.218,271.741,360.016,272.864,360.27z"/>
		<path style="opacity:0.59;fill:#EAA424;enable-background:new    ;" d="M287.9,350.185c0.289-1.253,0.127-2.728-1.015-3.482
			c-1.952-1.289-3.861,1.65-3.107,3.403C284.635,352.1,287.329,352.659,287.9,350.185z"/>
		<path style="opacity:0.59;fill:#EAA424;enable-background:new    ;" d="M263.079,373.592c-0.15,1.283,0,2.508,0.533,3.187
			c1.009,1.28,2.937,2.211,4.415,1.229c1.19-0.79,1.524-2.448,2.644-3.34c1.503-1.195,4.783-0.756,4.417-3.427
			c-0.317-2.321-3.34-1.4-4.645-0.586c-2.344,1.462-1.203-0.023-3.013-1.282C265.136,367.777,263.407,370.819,263.079,373.592z"/>
		<path style="opacity:0.59;fill:#EAA424;enable-background:new    ;" d="M282.607,368.451c-1.655,0.81-0.785,2.431-0.681,3.714
			c0.064,0.835-0.014,0.563-0.129,1.165c-0.08,0.419-0.824,0.522-0.442,1.14c0.456,0.738,2.236,0.291,2.834-0.001
			C287.097,373.044,286.024,366.776,282.607,368.451z"/>
		<path style="opacity:0.3;fill:#EAA424;enable-background:new    ;" d="M263.61,350.597c-0.218,0.803,0.118,1.49,1.352,1.572
			c1.808,0.12,3.09-1.393,4.72-1.879c1.527-0.454,2.578,0.073,2.233-2.648c-0.322-2.555-2.775-3.908-4.48-2.315
			c-1.125,1.053-1.658,2.634-2.776,3.679C264.135,349.493,263.753,350.07,263.61,350.597z"/>
		<path style="opacity:0.3;fill:#EAA424;enable-background:new    ;" d="M252.033,350.918c0.888,1.013,3.173,2.43,4.173,2.432
			c3.264,0.007,5.049-5.03,6.225-7.308c0.629-1.222,1.613-2.86,1.099-4.342c-0.014-0.044-0.031-0.085-0.049-0.126
			c-2.059,0.966-4.074,1.978-5.83,3.285C255.37,346.557,253.503,348.62,252.033,350.918z"/>
		<path style="opacity:0.3;fill:#EAA424;enable-background:new    ;" d="M277.18,354.438c0.458-0.031,0.745-0.527,1.294-0.522
			c0.171,0,0.232,0.728,0.575,0.698c1.879-0.166,3.621-2.447,2.35-4.318C278.794,346.462,270.483,354.907,277.18,354.438z"/>
		<path style="opacity:0.59;fill:#EAA424;enable-background:new    ;" d="M287.432,360.125c0.582-1.303-0.528-4.138-2.433-2.876
			C283.105,358.502,286.07,363.173,287.432,360.125z"/>
		<path style="opacity:0.59;fill:#EAA424;enable-background:new    ;" d="M290.698,306.11c-0.5,0.505-0.961,1.072-1.39,1.684
			c0.11,0.442,0.44,0.549,1.048,0.841c0.911,0.44,0.96-0.095,0.984,1.093c0.016,0.825-0.676,1.576-0.096,2.369
			c0.516,0.705,1.825,0.744,2.531,0.337c1.376-0.79,0.439-2.49,1.829-3.187c1.468-0.736,1.568,0.484,2.534,1.015
			c1.155,0.637,2.466,0.048,3.431-0.786C299.249,305.751,294.616,302.152,290.698,306.11z"/>
		<g>
			<path style="fill:#605B27;" d="M288.128,297.421c-0.19,0.722-0.117,1.592,0.232,2.243c0.5,0.93,1.432,0.932,2.259,1.41
				c0.902,0.522,1.921,1.096,2.432,2.035c0.719,1.324-1.221,4.077,0.812,4.672c1.134,0.331,2.766-0.685,2.876-1.851
				c0.221-2.321-0.819-4.752-2.311-6.497c-0.746-0.873-1.662-1.689-2.499-2.433C290.518,295.747,288.721,295.188,288.128,297.421z"
				/>
			<path style="fill:#7C752E;" d="M294.427,299.434c-0.178-0.207-0.366-0.41-0.559-0.61c0.591,0.817,1.104,1.685,1.515,2.479
				c0.599,1.153,1.482,3.055,0.401,4.119c-0.125,0.361-0.477,0.801-0.805,0.802c-0.538,0.003-1.179,0.427-1.679,0.294
				c-0.155-0.043-0.284-0.118-0.394-0.214c-0.024,0.68,0.162,1.246,0.956,1.48c1.134,0.331,2.766-0.685,2.876-1.851
				C296.959,303.61,295.919,301.179,294.427,299.434z"/>
			<path style="fill:#5B471B;" d="M293.051,303.109c0.007,0.014,0.014,0.03,0.021,0.044c0.011-0.225-0.04-0.447-0.193-0.658
				c-0.324-0.449-0.752-0.754-1.104-1.173c-0.307-0.366-0.632-0.847-0.404-1.256c0-0.054-0.004-0.107,0.002-0.163
				c0.018-0.189,0.162-0.29,0.348-0.261c0.226,0.035,0.43,0.086,0.63,0.149c-0.228-0.569-0.214-1.013,0.706-1.178
				c0.185-0.034,0.388-0.035,0.594-0.011c-0.561-0.563-1.156-1.1-1.723-1.602c-1.409-1.254-3.206-1.812-3.799,0.42
				c-0.19,0.722-0.117,1.592,0.232,2.243c0.5,0.93,1.432,0.932,2.259,1.41C291.521,301.596,292.54,302.17,293.051,303.109z"/>
		</g>
	</g>
	<g>
		<path style="fill:#F8D50E;" d="M228.712,380.001c1.496-5.391,2.889-10.978,0.462-16.243c-1.893-4.1-7.223-9.244-11.642-4.782
			c-3.736,3.774-5.248,10.839-7.918,15.543c-2.74,4.828-5.549,10.656-9.651,14.391c-4.332,3.945-10.811,5.343-15.477,8.815
			c-8.458,6.293-11.246,17.56-9.132,27.433c1.217,5.693,1.777,11.1,7.355,14.342c8.796,5.112,24.257,4.941,32.014-1.822
			c3.607-3.145,7.129-6.688,9.468-10.87c2.36-4.226,1.742-6.55,1.198-10.933c-1.142-9.234-0.101-21.432,1.919-30.544
			C227.696,383.59,228.21,381.806,228.712,380.001z"/>
		<path style="opacity:0.54;fill:#FFF18D;enable-background:new    ;" d="M192.791,409.657c0.077,0.059,0.153,0.123,0.228,0.191
			c3.377,3.03,2.504,2.08,5.882-0.829c2.747-2.366,3.56-0.873,6.739-0.481c7.74,0.955,8.937-8.836,9.376-14.289
			c0.23-2.904,0.282-5.896,1.047-8.73c0.732-2.725,2.236-4.634,2.505-7.447c0.327-3.435,3.645-8.226,2.536-11.636
			c-1.662-5.108-5.29,3.001-6.206,4.975c-1.212,2.616-2.992,2.374-3.867,5.57c-1.48,5.427-3.311,10.228-8.252,13.22
			c-4.171,2.525-10.607,4.92-13.261,9.154c-1.216,1.939-0.751,2.654-3.093,3.835c-2.262,1.14-7.597,4.436-2.682,6.482
			C186.562,410.846,190.107,407.607,192.791,409.657z"/>
		<path style="opacity:0.3;fill:#EAA424;enable-background:new    ;" d="M229.174,363.758c-1.763-3.816-6.5-8.531-10.708-5.571
			c1.289,0.061,2.583,0.455,3.377,1.046c3.318,2.462,2.653,7.635,2.095,11.104c-1.017,6.347-3.311,12.561-3.365,19.035
			c-0.035,4.313,1.456,9.565-1.975,13.042c-1.085,1.1-2.388,1.918-3.567,2.91c-1.438,1.208-2.377,2.524-2.983,4.293
			c-0.995,2.922-1.695,6.105-3.572,8.642c-4.081,5.515-11.225,7.784-17.445,10.11c-2.773,1.035-5.473,1.741-8.298,0.392
			c-2.722-1.3-4.83-3.683-6.303-6.238c-0.752-1.306-1.348-2.683-1.745-4.106c-0.028,2.27,0.199,4.541,0.671,6.743
			c1.217,5.693,1.777,11.1,7.355,14.342c8.796,5.112,24.257,4.941,32.014-1.822c3.607-3.145,7.129-6.688,9.468-10.87
			c2.36-4.226,1.742-6.55,1.198-10.933c-1.142-9.234-0.101-21.432,1.919-30.544c0.387-1.741,0.901-3.525,1.402-5.33
			C230.208,374.61,231.601,369.023,229.174,363.758z"/>
		<path style="opacity:0.37;fill:#EAA424;enable-background:new    ;" d="M226.78,387.911c-0.174,0.144-0.348,0.288-0.524,0.43
			c-1.083,0.882-2.175,1.786-3.071,2.858c-1.724,2.063-2.985,6.269-2.593,8.918c0.465,3.135,4.22,6.068,1.705,9.283
			c-1.423,1.822-6.19,0.585-6.493,3.465c-0.195,1.837,1.036,2.058-0.18,3.657c-0.717,0.944-1.557,1.969-2.802,1.793
			c-2.583-0.362-2.29-7.112-6.131-4.022c-1.548,1.242-0.329,3.166-1.371,4.579c-1.482,2.005-1.148-0.719-2.052-1.038
			c-1.806-0.64-3.144,3.411-5.189,2.828c-2.591-0.738-1.263-6.502-5.303-4.011c-1.365,0.842-1.124,2.698-1.919,3.943
			c-0.566,0.881-1.447,1.733-2.588,1.441c-0.65-0.165-0.923-0.94-1.592-1.118c-1.55-0.413-3.717,1.153-3.468-1.609
			c0.082-0.929,0.536-1.778,0.34-2.79c-0.265-1.351-0.578-1.161-1.651-1.457c-2.499-0.69-2.25-2.179-2.29-4.456
			c-0.018-0.982-1.893-4.834-1.656-5.269c-3.222,5.954-4.017,13.201-2.597,19.822c1.217,5.693,1.777,11.1,7.355,14.342
			c8.796,5.112,24.257,4.941,32.014-1.822c3.607-3.145,7.129-6.688,9.468-10.87c2.36-4.226,1.742-6.55,1.198-10.933
			C224.352,407.488,225.115,396.656,226.78,387.911z"/>
		<path style="opacity:0.59;fill:#EAA424;enable-background:new    ;" d="M225.911,393.281c-0.36,1.545-0.536,3.113-0.792,4.678
			c-0.242,1.493-0.832,2.907-1.09,4.397c-0.677,3.904,1.101,7.703-0.354,11.561c-0.263,0.699-0.773,1.33-0.963,2.05
			c-0.169,0.641-0.145,1.301-0.268,1.948c-0.209,1.101-0.643,1.91-1.395,2.74c-0.648,0.714-1.526,1.614-1.721,2.586
			c-0.418,2.094-0.88,2.594-2.851,3.249c-1.388,0.463-1.965,0.666-2.566,2.001c-0.558,1.245-0.516,2.18-1.876,2.939
			c-1.334,0.746-2.872,0.66-3.889-0.54c-0.765-0.902-0.529-1.903-1.895-2.06c-1.198-0.137-2.111,0.937-2.719,1.721
			c-0.861,1.107-1.063,2.771-2.362,3.552c-1.099,0.657-2.318,0.393-3.586,0.44c-2.917,0.108-5.441,4.666-8.068,1.423
			c-0.772-0.954-0.7-1.973-1.308-2.898c-0.401-0.609-0.81-0.576-1.381-1.008c-1.489-1.123-1.552-1.996-1.937-3.668
			c-0.305-1.346-1.296-2.699-2.848-1.582c-1.054,0.758-1.301,3.743-3.323,1.778c-0.663-0.645-0.36-1.778-0.989-2.443
			c-0.204-0.214-2.363-0.939-2.257-0.421c1.143,5.483,1.845,10.643,7.237,13.777c8.796,5.112,24.257,4.941,32.014-1.822
			c3.607-3.145,7.129-6.688,9.468-10.87c2.36-4.226,1.742-6.55,1.198-10.933C224.558,409.137,224.887,400.824,225.911,393.281z"/>
		<path style="opacity:0.59;fill:#EAA424;enable-background:new    ;" d="M189.807,415.054c0.585-0.459,0.808-0.04,1.054-1.011
			c0.185-0.734-0.188-1.871-0.775-2.352c-2.475-2.034-4.824,2.289-4.882,4.364C185.099,419.947,188.837,415.812,189.807,415.054z"/>
		<path style="opacity:0.59;fill:#EAA424;enable-background:new    ;" d="M199.698,413.136c1.238,0.279,2.595-1.419,2.365-2.584
			C201.386,407.084,198.575,412.882,199.698,413.136z"/>
		<path style="opacity:0.59;fill:#EAA424;enable-background:new    ;" d="M214.735,403.052c0.289-1.253,0.127-2.728-1.015-3.482
			c-1.953-1.289-3.862,1.65-3.107,3.403C211.469,404.965,214.163,405.525,214.735,403.052z"/>
		<path style="opacity:0.59;fill:#EAA424;enable-background:new    ;" d="M189.914,426.458c-0.15,1.283,0,2.508,0.533,3.187
			c1.009,1.28,2.937,2.211,4.415,1.229c1.19-0.79,1.524-2.448,2.644-3.34c1.503-1.195,4.783-0.756,4.417-3.427
			c-0.317-2.322-3.341-1.4-4.645-0.586c-2.344,1.462-1.203-0.023-3.013-1.282C191.97,420.643,190.241,423.685,189.914,426.458z"/>
		<path style="opacity:0.59;fill:#EAA424;enable-background:new    ;" d="M209.441,421.317c-1.654,0.81-0.785,2.431-0.681,3.714
			c0.064,0.835-0.014,0.563-0.129,1.165c-0.08,0.419-0.824,0.522-0.442,1.14c0.456,0.738,2.236,0.291,2.834-0.001
			C213.932,425.909,212.859,419.642,209.441,421.317z"/>
		<path style="opacity:0.3;fill:#EAA424;enable-background:new    ;" d="M190.445,403.463c-0.218,0.803,0.118,1.49,1.351,1.572
			c1.808,0.12,3.09-1.393,4.72-1.879c1.527-0.454,2.578,0.073,2.233-2.648c-0.322-2.555-2.775-3.908-4.48-2.315
			c-1.125,1.053-1.658,2.635-2.776,3.679C190.969,402.359,190.588,402.936,190.445,403.463z"/>
		<path style="opacity:0.3;fill:#EAA424;enable-background:new    ;" d="M178.868,403.784c0.888,1.013,3.173,2.43,4.173,2.432
			c3.264,0.007,5.049-5.03,6.225-7.308c0.629-1.222,1.613-2.86,1.099-4.342c-0.014-0.045-0.031-0.085-0.049-0.126
			c-2.059,0.966-4.074,1.978-5.83,3.285C182.205,399.423,180.338,401.486,178.868,403.784z"/>
		<path style="opacity:0.3;fill:#EAA424;enable-background:new    ;" d="M204.014,407.304c0.458-0.031,0.745-0.527,1.294-0.522
			c0.171,0,0.232,0.728,0.575,0.698c1.879-0.166,3.621-2.447,2.35-4.318C205.629,399.328,197.318,407.774,204.014,407.304z"/>
		<path style="opacity:0.59;fill:#EAA424;enable-background:new    ;" d="M214.266,412.992c0.582-1.303-0.528-4.138-2.433-2.876
			C209.94,411.368,212.904,416.039,214.266,412.992z"/>
		<path style="opacity:0.59;fill:#EAA424;enable-background:new    ;" d="M217.532,358.976c-0.5,0.505-0.961,1.072-1.39,1.683
			c0.11,0.442,0.44,0.549,1.049,0.841c0.911,0.44,0.959-0.095,0.984,1.093c0.016,0.825-0.676,1.576-0.096,2.369
			c0.516,0.705,1.825,0.744,2.531,0.337c1.376-0.79,0.439-2.49,1.829-3.187c1.468-0.736,1.567,0.484,2.534,1.015
			c1.155,0.637,2.466,0.048,3.431-0.785C226.084,358.617,221.451,355.018,217.532,358.976z"/>
		<g>
			<path style="fill:#605B27;" d="M214.963,350.287c-0.19,0.722-0.117,1.592,0.232,2.244c0.5,0.93,1.432,0.932,2.259,1.409
				c0.902,0.522,1.921,1.096,2.432,2.035c0.719,1.324-1.221,4.077,0.812,4.672c1.134,0.331,2.766-0.685,2.876-1.851
				c0.221-2.321-0.819-4.752-2.311-6.497c-0.746-0.873-1.662-1.689-2.499-2.433C217.352,348.613,215.555,348.054,214.963,350.287z"
				/>
			<path style="fill:#7C752E;" d="M221.261,352.3c-0.178-0.207-0.366-0.41-0.559-0.61c0.591,0.817,1.104,1.684,1.515,2.478
				c0.599,1.153,1.482,3.055,0.401,4.119c-0.126,0.361-0.477,0.801-0.805,0.802c-0.538,0.003-1.179,0.427-1.679,0.294
				c-0.155-0.044-0.284-0.118-0.394-0.214c-0.024,0.68,0.162,1.247,0.956,1.48c1.134,0.331,2.766-0.685,2.876-1.851
				C223.793,356.476,222.753,354.045,221.261,352.3z"/>
			<path style="fill:#5B471B;" d="M219.885,355.975c0.007,0.015,0.014,0.03,0.021,0.045c0.011-0.225-0.04-0.447-0.193-0.658
				c-0.324-0.449-0.752-0.754-1.104-1.173c-0.307-0.366-0.632-0.847-0.404-1.256c0-0.054-0.003-0.107,0.002-0.163
				c0.017-0.188,0.162-0.29,0.348-0.261c0.226,0.035,0.43,0.086,0.631,0.149c-0.228-0.569-0.214-1.013,0.705-1.178
				c0.185-0.033,0.388-0.035,0.594-0.011c-0.561-0.563-1.156-1.101-1.723-1.601c-1.409-1.254-3.206-1.813-3.799,0.42
				c-0.19,0.722-0.117,1.592,0.232,2.244c0.5,0.93,1.432,0.932,2.259,1.409C218.356,354.463,219.375,355.037,219.885,355.975z"/>
		</g>
	</g>
	<g>
		<path style="fill:#F8D50E;" d="M397.31,440.453c1.496-5.391,2.889-10.978,0.462-16.243c-1.893-4.101-7.223-9.244-11.642-4.782
			c-3.736,3.774-5.248,10.839-7.918,15.543c-2.74,4.828-5.549,10.656-9.651,14.391c-4.332,3.945-10.811,5.344-15.477,8.815
			c-8.458,6.293-11.246,17.561-9.132,27.433c1.217,5.693,1.777,11.1,7.355,14.342c8.796,5.112,24.257,4.941,32.014-1.822
			c3.607-3.145,7.129-6.688,9.468-10.87c2.36-4.226,1.742-6.55,1.198-10.933c-1.142-9.234-0.101-21.431,1.919-30.544
			C396.294,444.042,396.808,442.257,397.31,440.453z"/>
		<path style="opacity:0.54;fill:#FFF18D;enable-background:new    ;" d="M361.389,470.108c0.077,0.059,0.153,0.123,0.228,0.191
			c3.377,3.03,2.504,2.08,5.882-0.829c2.747-2.366,3.56-0.873,6.739-0.481c7.74,0.955,8.937-8.835,9.376-14.289
			c0.23-2.904,0.282-5.896,1.047-8.73c0.732-2.725,2.236-4.634,2.505-7.447c0.327-3.435,3.645-8.226,2.536-11.636
			c-1.662-5.108-5.29,3.001-6.206,4.975c-1.212,2.616-2.992,2.374-3.867,5.57c-1.48,5.427-3.311,10.228-8.252,13.22
			c-4.171,2.524-10.607,4.92-13.261,9.154c-1.216,1.939-0.751,2.654-3.093,3.835c-2.262,1.141-7.597,4.436-2.682,6.482
			C355.161,471.297,358.705,468.058,361.389,470.108z"/>
		<path style="opacity:0.3;fill:#EAA424;enable-background:new    ;" d="M397.772,424.209c-1.763-3.816-6.5-8.531-10.708-5.571
			c1.289,0.061,2.583,0.455,3.377,1.046c3.318,2.462,2.653,7.635,2.095,11.103c-1.017,6.347-3.311,12.561-3.365,19.035
			c-0.035,4.313,1.456,9.565-1.975,13.042c-1.085,1.1-2.388,1.918-3.567,2.91c-1.438,1.208-2.377,2.525-2.983,4.293
			c-0.995,2.922-1.695,6.105-3.572,8.642c-4.081,5.515-11.225,7.785-17.445,10.11c-2.773,1.035-5.473,1.741-8.298,0.392
			c-2.722-1.299-4.83-3.683-6.303-6.238c-0.752-1.305-1.348-2.683-1.745-4.106c-0.028,2.27,0.199,4.541,0.671,6.743
			c1.217,5.693,1.777,11.1,7.355,14.342c8.796,5.112,24.257,4.941,32.014-1.822c3.607-3.145,7.129-6.688,9.468-10.87
			c2.36-4.226,1.742-6.55,1.198-10.933c-1.142-9.234-0.101-21.431,1.919-30.544c0.387-1.741,0.901-3.525,1.402-5.33
			C398.806,435.061,400.199,429.474,397.772,424.209z"/>
		<path style="opacity:0.37;fill:#EAA424;enable-background:new    ;" d="M395.378,448.362c-0.174,0.144-0.348,0.288-0.524,0.43
			c-1.083,0.882-2.175,1.786-3.071,2.858c-1.724,2.063-2.985,6.269-2.593,8.918c0.465,3.135,4.22,6.068,1.705,9.283
			c-1.423,1.822-6.19,0.585-6.493,3.465c-0.195,1.837,1.036,2.058-0.18,3.657c-0.717,0.944-1.557,1.969-2.802,1.793
			c-2.583-0.362-2.29-7.112-6.131-4.022c-1.548,1.242-0.329,3.166-1.371,4.579c-1.482,2.005-1.148-0.719-2.052-1.038
			c-1.806-0.64-3.144,3.411-5.189,2.828c-2.592-0.738-1.263-6.502-5.303-4.011c-1.365,0.842-1.124,2.698-1.919,3.943
			c-0.566,0.881-1.447,1.733-2.588,1.441c-0.65-0.165-0.923-0.94-1.592-1.118c-1.55-0.413-3.717,1.154-3.468-1.608
			c0.082-0.93,0.536-1.778,0.34-2.79c-0.265-1.351-0.578-1.161-1.651-1.457c-2.499-0.69-2.25-2.18-2.29-4.456
			c-0.018-0.982-1.893-4.834-1.656-5.269c-3.222,5.954-4.017,13.2-2.597,19.822c1.217,5.693,1.777,11.1,7.355,14.342
			c8.796,5.112,24.257,4.941,32.014-1.822c3.607-3.145,7.129-6.688,9.468-10.87c2.36-4.226,1.742-6.55,1.198-10.933
			C392.95,467.939,393.713,457.107,395.378,448.362z"/>
		<path style="opacity:0.59;fill:#EAA424;enable-background:new    ;" d="M394.509,453.732c-0.36,1.545-0.536,3.113-0.792,4.678
			c-0.242,1.493-0.832,2.907-1.09,4.397c-0.677,3.904,1.101,7.703-0.354,11.561c-0.263,0.699-0.773,1.33-0.963,2.05
			c-0.169,0.641-0.145,1.301-0.268,1.948c-0.209,1.1-0.643,1.911-1.395,2.74c-0.648,0.714-1.526,1.614-1.721,2.586
			c-0.418,2.094-0.88,2.594-2.851,3.249c-1.388,0.464-1.965,0.666-2.566,2.001c-0.558,1.245-0.516,2.18-1.876,2.939
			c-1.334,0.746-2.872,0.66-3.889-0.54c-0.765-0.902-0.529-1.903-1.895-2.06c-1.198-0.138-2.111,0.937-2.719,1.721
			c-0.861,1.107-1.063,2.771-2.362,3.552c-1.099,0.657-2.318,0.393-3.586,0.44c-2.917,0.108-5.441,4.666-8.068,1.423
			c-0.772-0.954-0.7-1.973-1.308-2.898c-0.401-0.609-0.81-0.576-1.381-1.008c-1.489-1.123-1.552-1.996-1.937-3.668
			c-0.305-1.346-1.296-2.699-2.848-1.582c-1.054,0.758-1.301,3.743-3.323,1.778c-0.663-0.645-0.36-1.778-0.989-2.443
			c-0.204-0.214-2.363-0.939-2.257-0.421c1.143,5.483,1.845,10.643,7.237,13.777c8.796,5.112,24.257,4.941,32.014-1.822
			c3.607-3.145,7.129-6.688,9.468-10.87c2.36-4.226,1.742-6.55,1.198-10.933C393.156,469.588,393.485,461.275,394.509,453.732z"/>
		<path style="opacity:0.59;fill:#EAA424;enable-background:new    ;" d="M358.405,475.505c0.585-0.459,0.808-0.04,1.054-1.011
			c0.185-0.734-0.188-1.87-0.775-2.352c-2.475-2.034-4.824,2.289-4.882,4.363C353.697,480.398,357.435,476.264,358.405,475.505z"/>
		<path style="opacity:0.59;fill:#EAA424;enable-background:new    ;" d="M368.296,473.587c1.238,0.279,2.595-1.419,2.365-2.584
			C369.984,467.535,367.173,473.333,368.296,473.587z"/>
		<path style="opacity:0.59;fill:#EAA424;enable-background:new    ;" d="M383.333,463.503c0.289-1.253,0.127-2.728-1.015-3.482
			c-1.953-1.289-3.862,1.65-3.107,3.403C380.067,465.417,382.761,465.976,383.333,463.503z"/>
		<path style="opacity:0.59;fill:#EAA424;enable-background:new    ;" d="M358.512,486.909c-0.15,1.283,0,2.508,0.533,3.187
			c1.009,1.28,2.937,2.211,4.415,1.23c1.19-0.79,1.524-2.448,2.644-3.34c1.503-1.195,4.783-0.756,4.417-3.427
			c-0.317-2.322-3.341-1.4-4.645-0.586c-2.344,1.463-1.203-0.023-3.013-1.282C360.568,481.094,358.839,484.137,358.512,486.909z"/>
		<path style="opacity:0.59;fill:#EAA424;enable-background:new    ;" d="M378.039,481.768c-1.654,0.81-0.785,2.432-0.681,3.714
			c0.064,0.835-0.014,0.563-0.129,1.165c-0.08,0.419-0.824,0.522-0.442,1.14c0.456,0.738,2.236,0.291,2.834-0.001
			C382.53,486.361,381.457,480.093,378.039,481.768z"/>
		<path style="opacity:0.3;fill:#EAA424;enable-background:new    ;" d="M359.043,463.914c-0.218,0.803,0.118,1.49,1.351,1.572
			c1.808,0.12,3.09-1.393,4.72-1.879c1.527-0.454,2.578,0.073,2.233-2.648c-0.322-2.555-2.775-3.908-4.48-2.315
			c-1.125,1.053-1.658,2.635-2.776,3.679C359.567,462.81,359.186,463.387,359.043,463.914z"/>
		<path style="opacity:0.3;fill:#EAA424;enable-background:new    ;" d="M347.466,464.235c0.888,1.012,3.173,2.43,4.173,2.432
			c3.264,0.007,5.049-5.03,6.225-7.308c0.629-1.222,1.613-2.86,1.099-4.342c-0.014-0.044-0.031-0.085-0.049-0.126
			c-2.059,0.966-4.074,1.978-5.829,3.285C350.803,459.874,348.936,461.937,347.466,464.235z"/>
		<path style="opacity:0.3;fill:#EAA424;enable-background:new    ;" d="M372.613,467.755c0.458-0.031,0.745-0.527,1.294-0.522
			c0.171,0,0.232,0.728,0.575,0.698c1.879-0.166,3.621-2.447,2.35-4.318C374.227,459.779,365.916,468.225,372.613,467.755z"/>
		<path style="opacity:0.59;fill:#EAA424;enable-background:new    ;" d="M382.864,473.443c0.582-1.303-0.528-4.138-2.433-2.876
			C378.538,471.819,381.502,476.491,382.864,473.443z"/>
		<path style="opacity:0.59;fill:#EAA424;enable-background:new    ;" d="M386.13,419.428c-0.5,0.505-0.961,1.072-1.39,1.684
			c0.11,0.442,0.44,0.549,1.049,0.841c0.911,0.44,0.959-0.095,0.984,1.093c0.016,0.825-0.676,1.576-0.096,2.369
			c0.516,0.705,1.825,0.744,2.531,0.337c1.376-0.79,0.439-2.49,1.829-3.187c1.468-0.736,1.568,0.484,2.534,1.015
			c1.155,0.637,2.466,0.048,3.431-0.785C394.682,419.068,390.049,415.469,386.13,419.428z"/>
		<g>
			<path style="fill:#605B27;" d="M383.561,410.738c-0.19,0.722-0.117,1.592,0.232,2.244c0.5,0.93,1.432,0.932,2.259,1.41
				c0.902,0.522,1.921,1.096,2.432,2.036c0.719,1.324-1.221,4.077,0.812,4.672c1.134,0.331,2.766-0.685,2.876-1.851
				c0.221-2.321-0.819-4.752-2.311-6.497c-0.746-0.873-1.662-1.689-2.499-2.433C385.95,409.064,384.153,408.506,383.561,410.738z"/>
			<path style="fill:#7C752E;" d="M389.859,412.751c-0.178-0.207-0.366-0.41-0.559-0.61c0.591,0.817,1.104,1.685,1.515,2.478
				c0.599,1.153,1.482,3.055,0.401,4.119c-0.126,0.361-0.477,0.801-0.805,0.802c-0.538,0.003-1.179,0.427-1.679,0.294
				c-0.155-0.044-0.284-0.118-0.394-0.214c-0.024,0.681,0.162,1.246,0.956,1.48c1.134,0.331,2.766-0.685,2.876-1.851
				C392.391,416.927,391.351,414.496,389.859,412.751z"/>
			<path style="fill:#5B471B;" d="M388.483,416.427c0.007,0.014,0.014,0.03,0.021,0.044c0.011-0.225-0.04-0.447-0.193-0.658
				c-0.324-0.449-0.752-0.754-1.104-1.173c-0.306-0.366-0.632-0.847-0.404-1.256c0-0.054-0.003-0.107,0.002-0.163
				c0.017-0.189,0.162-0.29,0.348-0.261c0.226,0.035,0.43,0.086,0.631,0.149c-0.228-0.569-0.214-1.012,0.705-1.178
				c0.185-0.033,0.388-0.035,0.594-0.011c-0.561-0.563-1.156-1.101-1.723-1.602c-1.409-1.254-3.206-1.812-3.799,0.42
				c-0.19,0.722-0.117,1.592,0.232,2.244c0.5,0.93,1.432,0.932,2.259,1.41C386.954,414.914,387.973,415.488,388.483,416.427z"/>
		</g>
	</g>
	<g>
		<path style="fill:#F8D50E;" d="M335.564,383.051c1.496-5.391,2.889-10.978,0.462-16.243c-1.893-4.1-7.223-9.244-11.641-4.782
			c-3.736,3.774-5.248,10.839-7.918,15.543c-2.74,4.828-5.549,10.656-9.651,14.391c-4.332,3.945-10.811,5.344-15.477,8.815
			c-8.458,6.293-11.246,17.56-9.132,27.433c1.217,5.693,1.777,11.1,7.355,14.342c8.796,5.112,24.257,4.941,32.014-1.822
			c3.607-3.145,7.129-6.688,9.468-10.87c2.36-4.226,1.742-6.55,1.198-10.933c-1.142-9.234-0.101-21.432,1.919-30.544
			C334.548,386.64,335.062,384.856,335.564,383.051z"/>
		<path style="opacity:0.54;fill:#FFF18D;enable-background:new    ;" d="M299.643,412.707c0.077,0.059,0.153,0.123,0.228,0.191
			c3.377,3.03,2.505,2.08,5.882-0.829c2.747-2.366,3.56-0.873,6.739-0.481c7.74,0.955,8.937-8.836,9.375-14.289
			c0.23-2.904,0.282-5.896,1.047-8.73c0.732-2.725,2.236-4.634,2.504-7.447c0.328-3.435,3.646-8.226,2.536-11.636
			c-1.661-5.108-5.29,3.001-6.206,4.975c-1.212,2.616-2.992,2.374-3.867,5.57c-1.481,5.427-3.311,10.228-8.252,13.22
			c-4.171,2.525-10.607,4.92-13.261,9.154c-1.216,1.939-0.751,2.654-3.093,3.835c-2.263,1.14-7.597,4.436-2.682,6.482
			C293.414,413.896,296.959,410.657,299.643,412.707z"/>
		<path style="opacity:0.3;fill:#EAA424;enable-background:new    ;" d="M336.025,366.808c-1.763-3.816-6.5-8.531-10.708-5.571
			c1.289,0.061,2.583,0.455,3.377,1.046c3.318,2.462,2.653,7.635,2.095,11.104c-1.017,6.347-3.311,12.561-3.365,19.035
			c-0.035,4.313,1.456,9.565-1.975,13.043c-1.085,1.1-2.388,1.918-3.567,2.91c-1.438,1.208-2.377,2.524-2.983,4.293
			c-0.995,2.922-1.695,6.105-3.572,8.642c-4.081,5.515-11.225,7.784-17.445,10.11c-2.773,1.035-5.472,1.741-8.298,0.392
			c-2.722-1.3-4.83-3.683-6.303-6.238c-0.753-1.306-1.348-2.683-1.745-4.106c-0.028,2.27,0.199,4.541,0.671,6.743
			c1.217,5.693,1.777,11.1,7.355,14.342c8.796,5.112,24.257,4.941,32.014-1.822c3.607-3.145,7.129-6.688,9.468-10.87
			c2.36-4.226,1.742-6.55,1.198-10.933c-1.142-9.234-0.101-21.432,1.919-30.544c0.387-1.741,0.9-3.525,1.402-5.33
			C337.06,377.66,338.453,372.073,336.025,366.808z"/>
		<path style="opacity:0.37;fill:#EAA424;enable-background:new    ;" d="M333.632,390.961c-0.174,0.144-0.348,0.288-0.524,0.43
			c-1.083,0.882-2.176,1.786-3.071,2.858c-1.724,2.063-2.985,6.269-2.593,8.918c0.465,3.135,4.22,6.068,1.705,9.283
			c-1.423,1.822-6.19,0.585-6.493,3.465c-0.195,1.837,1.036,2.058-0.179,3.657c-0.717,0.944-1.557,1.968-2.802,1.793
			c-2.583-0.362-2.29-7.112-6.131-4.022c-1.548,1.242-0.329,3.166-1.371,4.579c-1.482,2.005-1.148-0.719-2.052-1.038
			c-1.806-0.64-3.144,3.411-5.189,2.828c-2.592-0.737-1.263-6.502-5.304-4.011c-1.365,0.842-1.123,2.698-1.919,3.943
			c-0.566,0.881-1.447,1.733-2.588,1.441c-0.65-0.165-0.923-0.94-1.592-1.118c-1.55-0.413-3.717,1.153-3.468-1.609
			c0.082-0.929,0.536-1.778,0.34-2.79c-0.265-1.351-0.578-1.161-1.651-1.457c-2.499-0.69-2.251-2.18-2.29-4.456
			c-0.018-0.982-1.893-4.834-1.656-5.269c-3.222,5.954-4.016,13.201-2.597,19.822c1.217,5.693,1.777,11.1,7.355,14.342
			c8.796,5.112,24.257,4.941,32.014-1.822c3.607-3.145,7.129-6.688,9.468-10.87c2.36-4.226,1.742-6.55,1.198-10.933
			C331.204,410.537,331.967,399.706,333.632,390.961z"/>
		<path style="opacity:0.59;fill:#EAA424;enable-background:new    ;" d="M332.763,396.33c-0.36,1.545-0.536,3.113-0.792,4.678
			c-0.242,1.493-0.833,2.907-1.09,4.397c-0.677,3.904,1.101,7.703-0.354,11.561c-0.263,0.699-0.773,1.33-0.963,2.05
			c-0.169,0.641-0.145,1.301-0.268,1.948c-0.209,1.101-0.643,1.91-1.395,2.74c-0.648,0.714-1.526,1.614-1.721,2.586
			c-0.418,2.094-0.88,2.594-2.851,3.249c-1.388,0.464-1.965,0.666-2.565,2.001c-0.557,1.245-0.516,2.18-1.876,2.939
			c-1.334,0.746-2.872,0.66-3.889-0.54c-0.765-0.902-0.529-1.903-1.895-2.06c-1.198-0.138-2.111,0.937-2.719,1.721
			c-0.861,1.107-1.063,2.771-2.362,3.552c-1.099,0.657-2.318,0.393-3.586,0.44c-2.917,0.108-5.441,4.666-8.067,1.423
			c-0.772-0.954-0.7-1.973-1.308-2.898c-0.401-0.609-0.81-0.576-1.381-1.008c-1.489-1.123-1.552-1.996-1.937-3.668
			c-0.305-1.346-1.296-2.699-2.848-1.582c-1.054,0.758-1.301,3.743-3.323,1.778c-0.664-0.645-0.36-1.778-0.989-2.443
			c-0.204-0.214-2.364-0.939-2.258-0.421c1.143,5.483,1.845,10.643,7.237,13.777c8.796,5.112,24.257,4.941,32.014-1.822
			c3.607-3.145,7.129-6.688,9.468-10.87c2.36-4.226,1.742-6.55,1.198-10.933C331.409,412.187,331.739,403.874,332.763,396.33z"/>
		<path style="opacity:0.59;fill:#EAA424;enable-background:new    ;" d="M296.659,418.104c0.585-0.459,0.808-0.04,1.054-1.011
			c0.185-0.734-0.188-1.871-0.775-2.352c-2.475-2.034-4.825,2.289-4.882,4.364C291.951,422.997,295.689,418.862,296.659,418.104z"/>
		<path style="opacity:0.59;fill:#EAA424;enable-background:new    ;" d="M306.55,416.186c1.238,0.279,2.595-1.419,2.365-2.584
			C308.238,410.134,305.427,415.932,306.55,416.186z"/>
		<path style="opacity:0.59;fill:#EAA424;enable-background:new    ;" d="M321.586,406.102c0.289-1.253,0.127-2.728-1.015-3.482
			c-1.953-1.289-3.861,1.65-3.107,3.403C318.321,408.015,321.015,408.575,321.586,406.102z"/>
		<path style="opacity:0.59;fill:#EAA424;enable-background:new    ;" d="M296.765,429.508c-0.15,1.283,0,2.508,0.533,3.187
			c1.009,1.28,2.936,2.211,4.415,1.229c1.19-0.79,1.524-2.448,2.644-3.34c1.503-1.195,4.783-0.756,4.417-3.427
			c-0.317-2.322-3.341-1.4-4.645-0.586c-2.344,1.462-1.204-0.023-3.013-1.282C298.822,423.693,297.093,426.735,296.765,429.508z"/>
		<path style="opacity:0.59;fill:#EAA424;enable-background:new    ;" d="M316.293,424.367c-1.655,0.81-0.785,2.431-0.681,3.714
			c0.064,0.835-0.014,0.563-0.129,1.165c-0.08,0.419-0.824,0.522-0.442,1.14c0.456,0.738,2.236,0.291,2.834-0.001
			C320.783,428.959,319.71,422.692,316.293,424.367z"/>
		<path style="opacity:0.3;fill:#EAA424;enable-background:new    ;" d="M297.296,406.513c-0.218,0.803,0.118,1.49,1.352,1.572
			c1.808,0.12,3.09-1.393,4.72-1.879c1.527-0.454,2.578,0.073,2.233-2.648c-0.322-2.555-2.775-3.908-4.48-2.315
			c-1.125,1.053-1.658,2.635-2.776,3.679C297.821,405.409,297.439,405.986,297.296,406.513z"/>
		<path style="opacity:0.3;fill:#EAA424;enable-background:new    ;" d="M285.719,406.834c0.888,1.013,3.173,2.43,4.173,2.432
			c3.264,0.007,5.049-5.03,6.225-7.308c0.629-1.222,1.613-2.86,1.099-4.342c-0.014-0.045-0.031-0.085-0.049-0.126
			c-2.059,0.966-4.074,1.978-5.83,3.285C289.056,402.473,287.189,404.536,285.719,406.834z"/>
		<path style="opacity:0.3;fill:#EAA424;enable-background:new    ;" d="M310.866,410.354c0.458-0.031,0.745-0.527,1.294-0.522
			c0.171,0,0.232,0.728,0.575,0.698c1.879-0.166,3.621-2.447,2.35-4.318C312.481,402.378,304.169,410.824,310.866,410.354z"/>
		<path style="opacity:0.59;fill:#EAA424;enable-background:new    ;" d="M321.118,416.042c0.582-1.303-0.528-4.138-2.433-2.876
			C316.791,414.418,319.756,419.089,321.118,416.042z"/>
		<path style="opacity:0.59;fill:#EAA424;enable-background:new    ;" d="M324.384,362.026c-0.5,0.505-0.961,1.072-1.39,1.683
			c0.11,0.442,0.441,0.549,1.049,0.841c0.911,0.44,0.96-0.095,0.984,1.093c0.016,0.825-0.676,1.576-0.096,2.369
			c0.516,0.705,1.825,0.744,2.531,0.337c1.376-0.79,0.439-2.49,1.829-3.187c1.468-0.736,1.568,0.484,2.534,1.015
			c1.155,0.637,2.466,0.048,3.431-0.785C332.935,361.667,328.302,358.068,324.384,362.026z"/>
		<g>
			<path style="fill:#605B27;" d="M321.814,353.337c-0.19,0.722-0.117,1.592,0.232,2.243c0.5,0.93,1.432,0.932,2.259,1.41
				c0.902,0.522,1.921,1.096,2.431,2.035c0.719,1.324-1.221,4.077,0.812,4.672c1.134,0.331,2.766-0.685,2.876-1.851
				c0.221-2.321-0.819-4.752-2.311-6.497c-0.745-0.873-1.662-1.689-2.499-2.433C324.204,351.663,322.407,351.104,321.814,353.337z"
				/>
			<path style="fill:#7C752E;" d="M328.112,355.35c-0.177-0.207-0.366-0.41-0.559-0.61c0.591,0.817,1.104,1.684,1.515,2.478
				c0.599,1.153,1.482,3.055,0.4,4.119c-0.125,0.361-0.477,0.801-0.804,0.802c-0.538,0.003-1.179,0.427-1.679,0.294
				c-0.155-0.044-0.284-0.118-0.394-0.214c-0.024,0.68,0.162,1.247,0.956,1.48c1.134,0.331,2.766-0.685,2.876-1.851
				C330.645,359.526,329.605,357.095,328.112,355.35z"/>
			<path style="fill:#5B471B;" d="M326.736,359.025c0.007,0.015,0.014,0.03,0.021,0.045c0.011-0.225-0.04-0.447-0.193-0.658
				c-0.324-0.449-0.753-0.754-1.104-1.173c-0.307-0.366-0.632-0.847-0.404-1.256c0-0.054-0.004-0.107,0.002-0.163
				c0.018-0.188,0.162-0.29,0.348-0.261c0.226,0.035,0.43,0.086,0.63,0.149c-0.228-0.569-0.214-1.013,0.705-1.178
				c0.185-0.034,0.388-0.035,0.594-0.011c-0.561-0.563-1.157-1.101-1.723-1.602c-1.409-1.254-3.206-1.812-3.799,0.42
				c-0.19,0.722-0.117,1.592,0.232,2.243c0.5,0.93,1.432,0.932,2.259,1.41C325.207,357.513,326.226,358.086,326.736,359.025z"/>
		</g>
	</g>
</g>
</svg>
