<?xml version="1.0" encoding="iso-8859-1"?>
<!-- Generator: Adobe Illustrator 23.0.2, SVG Export Plug-In . SVG Version: 6.00 Build 0)  -->
<svg version="1.1" id="Layer_1" xmlns="http://www.w3.org/2000/svg" xmlns:xlink="http://www.w3.org/1999/xlink" x="0px" y="0px"
	 viewBox="0 0 595.276 841.89" style="enable-background:new 0 0 595.276 841.89;" xml:space="preserve">
<g>
	<path style="fill:#C53393;" d="M157.517,352.705c0.781,3.505,1.176,7.467,1.176,11.877c0,4.406-0.765,8.216-2.289,11.392
		c-1.524,3.172-3.383,4.763-5.582,4.763c-6.875,0-17.635-0.77-32.271-2.333c-1.176-0.118-2.211-0.877-3.12-2.246
		c-0.908-1.359-1.354-3.071-1.354-5.145c0-6.878,0.275-18.512,0.823-34.865c0.551-16.346,0.823-31.63,0.823-45.854
		c0-14.207-0.675-30.535-2.038-48.961c4.795,0.777,11.236,1.165,19.347,1.165c8.094,0,15.846-1.165,23.231-3.498
		c0.781,2.867,1.164,6.264,1.164,10.227c0,3.956-0.76,7.46-2.277,10.515c-1.532,3.03-3.402,4.562-5.645,4.562
		c-2.235,0-5.796-0.652-10.69-1.945c-4.888-1.297-8.506-1.952-10.841-1.952c-0.516,13.118-0.808,25.435-0.865,37
		c4.077,0.77,8.462,1.165,13.165,1.165c4.698,0,8.733-1.369,12.102-4.094c0.775,2.86,1.164,6.257,1.164,10.22
		s-0.765,7.53-2.289,10.709c-1.514,3.186-3.329,4.781-5.437,4.781c-2.107,0-5.235-0.825-9.378-2.434
		c-4.155-1.633-7.291-2.434-9.432-2.434c0,20.495,0.226,35.555,0.687,45.168c3.1,0.513,5.533,0.77,7.279,0.77
		C143.52,361.271,151.04,358.418,157.517,352.705z"/>
	<path style="fill:#C53393;" d="M182.799,377.242c-2.08,1.563-4.279,2.333-6.612,2.333c-2.336,0-4.357-1.491-6.073-4.476
		c-1.719-2.985-2.584-7.065-2.584-12.265c0-5.2,0.326-15.146,0.974-29.883c0.652-14.744,0.971-26.51,0.971-35.347
		c0-22.711-0.679-40.692-2.041-53.935c2.077-1.553,4.276-2.33,6.612-2.33c2.331,0,4.361,1.491,6.073,4.475
		c1.722,2.985,2.581,7.072,2.581,12.272c0,5.19-0.326,15.163-0.971,29.883c-0.648,14.737-0.974,26.503-0.974,35.34
		C180.754,346.021,181.43,364,182.799,377.242z"/>
	<path style="fill:#C53393;" d="M229.257,314.935l10.406-1.563c3.887,0,5.832,3.962,5.832,11.867c0,4.545-0.299,11.634-0.881,21.223
		c-0.582,9.606-0.872,17.41-0.872,23.387c-1.619,0.513-5.235,2.465-10.837,5.828c-5.606,3.38-10.286,5.061-14.046,5.061
		c-9.209,0-16.154-5.713-20.843-17.136c-4.704-11.409-7.05-26.985-7.05-46.732c0-14.013,1.276-26.86,3.838-38.547
		c2.56-11.666,6.371-21.147,11.428-28.42c5.051-7.259,10.644-10.896,16.759-10.896c6.127,0,11.248,2.867,15.358,8.556
		c4.122,5.72,6.178,13.437,6.178,23.182c0,5.457-0.799,10.019-2.382,13.718c-1.583,3.706-3.606,5.55-6.073,5.55
		s-4.179-0.589-5.157-1.758c0.199-2.333,0.29-4.663,0.29-7.01c0-6.861-0.965-12.491-2.91-16.834
		c-1.945-4.337-4.704-6.521-8.265-6.521c-3.565,0-6.93,2.402-10.108,7.204c-1.885,5.325-3.341,12.574-4.378,21.806
		c-1.035,9.211-1.559,18.169-1.559,26.867c0,14.013,1.369,25.539,4.086,34.546c2.723,9.048,7.032,13.538,12.933,13.538
		c4.334,0,8.386-2.527,12.152-7.585c0.248-5.061,0.389-12.335,0.389-21.823c-2.596,1.563-4.61,2.354-6.03,2.354
		c-3.562,0-5.347-3.775-5.347-11.291c0-3.255,0.326-6.684,0.977-10.32C224.888,314.352,226.928,314.935,229.257,314.935z"/>
	<path style="fill:#C53393;" d="M271.543,377.242c-2.072,1.563-4.276,2.333-6.604,2.333c-2.34,0-4.361-1.491-6.08-4.476
		c-1.715-2.985-2.569-7.065-2.569-12.265c0-5.2,0.314-15.146,0.965-29.883c0.645-14.744,0.965-26.51,0.965-35.347
		c0-22.711-0.675-40.692-2.038-53.935c2.072-1.553,4.284-2.33,6.612-2.33c2.331,0,4.361,1.491,6.073,4.475
		c1.722,2.985,2.581,6.66,2.581,10.996c0,4.361-0.078,8.549-0.241,12.56c-0.171,4.035-0.377,8.649-0.636,13.825
		c-0.263,5.2-0.453,9.745-0.582,13.624c2.588,0.527,7.065,0.787,13.413,0.787c6.348,0,11.236-0.513,14.682-1.563
		c0-20.634-0.687-38.477-2.041-53.54c2.065-1.56,4.276-2.33,6.604-2.33s4.361,1.491,6.08,4.475
		c1.715,2.985,2.569,7.103,2.569,12.355c0,5.263-0.322,14.581-0.974,27.938c-0.645,13.382-0.971,24.083-0.971,32.137
		c0,25.435,0.687,45.886,2.048,61.326c-2.08,1.563-4.284,2.333-6.612,2.333c-2.331,0-4.361-1.491-6.073-4.476
		c-1.722-2.985-2.588-6.947-2.588-11.867c0-4.944,0.268-12.986,0.787-24.139c0.516-11.166,0.842-18.824,0.971-22.988
		c-6.356-0.894-15.812-1.352-28.384-1.352v5.058C269.505,343.938,270.181,362.706,271.543,377.242z"/>
	<path style="fill:#C53393;" d="M325.596,240.754l20.502,0.582c10.627,0,18.407-0.77,23.331-2.333
		c0.709,2.728,1.071,5.838,1.071,9.35c0,3.498-0.781,6.639-2.34,9.433c-1.547,2.798-3.434,4.188-5.633,4.188l-11.179-2.527
		c0,0.894-0.163,4.926-0.489,12.061c-0.908,17.531-1.361,35.111-1.361,52.771c0,17.649,0.687,35.305,2.048,52.958
		c-2.141,1.563-4.378,2.333-6.716,2.333c-2.328,0-4.334-1.321-6.019-3.994c-1.688-2.642-2.53-6.677-2.53-12.061
		s0.326-14.89,0.971-28.531c0.652-13.617,0.974-26.898,0.974-39.815c0-12.917-0.322-24.947-0.974-36.116
		c-7.838,0.777-13.961,2.992-18.373,6.621c-0.781-2.985-1.164-6.327-1.164-10.033c0-3.685,0.745-7.103,2.235-10.203
		C321.441,242.317,323.328,240.754,325.596,240.754z"/>
</g>
</svg>
