<?xml version="1.0" encoding="iso-8859-1"?>
<!-- Generator: Adobe Illustrator 23.0.2, SVG Export Plug-In . SVG Version: 6.00 Build 0)  -->
<svg version="1.1" id="Layer_1" xmlns="http://www.w3.org/2000/svg" xmlns:xlink="http://www.w3.org/1999/xlink" x="0px" y="0px"
	 viewBox="0 0 595.276 841.89" style="enable-background:new 0 0 595.276 841.89;" xml:space="preserve">
<g>
	<path style="fill:#C53393;" d="M379.712,345.116c0,20.157-8.949,36.494-26.792,49.002c-17.875,12.5-37.968,18.75-60.27,18.75
		c-22.325,0-40.741-4.578-55.294-13.776c-14.521-9.169-21.793-21.926-21.793-38.267c0-11.687,3.495-22.473,10.485-32.358
		c6.995-9.876,16.93-17.845,29.797-23.888c-19.539-9.282-29.287-22.284-29.287-39.025c0-16.729,8.649-30.353,25.961-40.844
		C269.825,214.231,288.032,209,307.121,209c19.084,0,34.296,3.871,45.604,11.641c11.33,7.762,16.971,19.053,16.971,33.878
		c0,14.817-9.085,29.486-27.292,43.999c11.326,4.043,20.37,10.036,27.138,18.005C376.317,324.495,379.712,334.031,379.712,345.116z
		 M279.824,313.958c-14.653,10.689-21.979,24.095-21.979,40.221c0,9.489,3.681,16.948,10.994,22.385
		c7.317,5.437,16.648,8.166,27.97,8.166c11.308,0,21.475-2.919,30.46-8.773c8.99-5.846,13.489-13.115,13.489-21.783
		c0-8.668-3.836-15.882-11.494-21.631C321.606,326.808,305.13,320.604,279.824,313.958z M268.176,262.833
		c0,11.304,16.744,20.376,50.262,27.22c11.33-7.648,17.003-17.731,17.003-30.244c0-7.261-2.963-12.803-8.835-16.628
		c-5.895-3.833-13.998-5.749-24.32-5.749c-10.299,0-19.798,2.624-28.447,7.855C270.057,250.539,268.176,256.385,268.176,262.833z"/>
</g>
</svg>
