<?xml version="1.0" encoding="iso-8859-1"?>
<!-- Generator: Adobe Illustrator 23.0.2, SVG Export Plug-In . SVG Version: 6.00 Build 0)  -->
<svg version="1.1" id="Layer_1" xmlns="http://www.w3.org/2000/svg" xmlns:xlink="http://www.w3.org/1999/xlink" x="0px" y="0px"
	 viewBox="0 0 595.276 841.89" style="enable-background:new 0 0 595.276 841.89;" xml:space="preserve">
<g>
	<path style="fill:#DD549E;" d="M373.314,511.431c0,16.41-13.572,29.717-30.316,29.717H127.819
		c-16.744,0-30.316-13.307-30.316-29.717V216.868c0-16.415,13.572-29.72,30.316-29.72h215.179c16.744,0,30.316,13.305,30.316,29.72
		V511.431z"/>
	<path style="fill:#FFFFFF;" d="M360.746,504.45c0,13.133-10.858,23.777-24.249,23.777H134.325
		c-13.396,0-24.253-10.644-24.253-23.777V223.847c0-13.133,10.857-23.779,24.253-23.779h202.172
		c13.391,0,24.249,10.646,24.249,23.779V504.45z"/>
</g>
<g>
	<path style="fill:#C43293;" d="M151.016,508.653c0.46,1.011,0.693,2.154,0.693,3.426c0,1.271-0.451,2.37-1.349,3.286
		c-0.898,0.915-1.994,1.374-3.29,1.374c-4.052,0-10.393-0.222-19.019-0.673c-0.693-0.034-1.303-0.253-1.839-0.648
		c-0.535-0.392-0.798-0.886-0.798-1.484c0-1.984,0.162-5.34,0.485-10.057c0.325-4.715,0.485-9.124,0.485-13.227
		c0-4.098-0.398-8.808-1.201-14.123c2.826,0.224,6.622,0.336,11.402,0.336c4.77,0,9.339-0.336,13.691-1.009
		c0.46,0.827,0.686,1.807,0.686,2.95c0,1.141-0.448,2.152-1.342,3.033c-0.903,0.874-2.005,1.316-3.327,1.316
		c-1.317,0-3.416-0.188-6.3-0.561c-2.881-0.374-5.013-0.563-6.389-0.563c-0.304,3.784-0.476,7.337-0.51,10.673
		c2.403,0.222,4.987,0.336,7.759,0.336c2.769,0,5.147-0.395,7.132-1.181c0.457,0.825,0.686,1.805,0.686,2.948
		c0,1.143-0.451,2.172-1.349,3.089c-0.892,0.919-1.962,1.379-3.204,1.379c-1.242,0-3.085-0.238-5.527-0.702
		c-2.449-0.471-4.297-0.702-5.559-0.702c0,5.912,0.133,10.256,0.405,13.029c1.827,0.148,3.261,0.222,4.29,0.222
		C142.767,511.124,147.199,510.301,151.016,508.653z"/>
	<path style="fill:#C43293;" d="M165.916,515.731c-1.226,0.451-2.522,0.673-3.897,0.673c-1.377,0-2.568-0.43-3.579-1.291
		c-1.013-0.861-1.523-2.038-1.523-3.538c0-1.5,0.192-4.369,0.574-8.62c0.384-4.253,0.572-7.647,0.572-10.196
		c0-6.551-0.4-11.738-1.203-15.558c1.224-0.448,2.52-0.672,3.897-0.672c1.374,0,2.57,0.43,3.579,1.291
		c1.015,0.861,1.521,2.04,1.521,3.54c0,1.497-0.192,4.374-0.572,8.62c-0.382,4.251-0.574,7.645-0.574,10.194
		C164.711,506.725,165.109,511.911,165.916,515.731z"/>
	<path style="fill:#C43293;" d="M193.296,497.758l6.133-0.451c2.291,0,3.437,1.143,3.437,3.423c0,1.311-0.176,3.356-0.519,6.122
		c-0.343,2.771-0.514,5.022-0.514,6.746c-0.954,0.148-3.085,0.711-6.387,1.681c-3.304,0.975-6.062,1.46-8.278,1.46
		c-5.427,0-9.52-1.648-12.284-4.943c-2.772-3.291-4.155-7.784-4.155-13.48c0-4.042,0.752-7.748,2.262-11.119
		c1.509-3.365,3.755-6.1,6.735-8.198c2.977-2.094,6.273-3.143,9.877-3.143c3.611,0,6.629,0.827,9.051,2.468
		c2.429,1.65,3.641,3.876,3.641,6.687c0,1.574-0.471,2.89-1.404,3.957c-0.933,1.069-2.125,1.601-3.579,1.601
		c-1.454,0-2.463-0.17-3.039-0.507c0.117-0.673,0.171-1.345,0.171-2.022c0-1.979-0.569-3.603-1.715-4.856
		c-1.146-1.251-2.772-1.881-4.871-1.881c-2.101,0-4.084,0.693-5.957,2.078c-1.111,1.536-1.969,3.627-2.58,6.29
		c-0.61,2.657-0.919,5.241-0.919,7.75c0,4.042,0.807,7.367,2.408,9.965c1.605,2.61,4.144,3.905,7.622,3.905
		c2.554,0,4.942-0.729,7.162-2.188c0.146-1.46,0.229-3.558,0.229-6.295c-1.53,0.451-2.717,0.679-3.554,0.679
		c-2.099,0-3.151-1.089-3.151-3.257c0-0.939,0.192-1.928,0.576-2.977C190.721,497.59,191.923,497.758,193.296,497.758z"/>
	<path style="fill:#C43293;" d="M218.217,515.731c-1.221,0.451-2.52,0.673-3.892,0.673c-1.379,0-2.57-0.43-3.583-1.291
		c-1.011-0.861-1.514-2.038-1.514-3.538c0-1.5,0.185-4.369,0.569-8.62c0.38-4.253,0.569-7.647,0.569-10.196
		c0-6.551-0.398-11.738-1.201-15.558c1.221-0.448,2.525-0.672,3.897-0.672c1.374,0,2.57,0.43,3.579,1.291
		c1.015,0.861,1.521,1.921,1.521,3.172c0,1.258-0.046,2.466-0.142,3.623c-0.101,1.164-0.222,2.495-0.375,3.988
		c-0.155,1.5-0.267,2.811-0.343,3.93c1.525,0.152,4.164,0.227,7.905,0.227c3.741,0,6.622-0.148,8.653-0.451
		c0-5.952-0.405-11.099-1.203-15.444c1.217-0.45,2.52-0.672,3.892-0.672c1.372,0,2.57,0.43,3.583,1.291
		c1.011,0.861,1.514,2.049,1.514,3.564c0,1.518-0.19,4.206-0.574,8.059c-0.38,3.86-0.572,6.947-0.572,9.27
		c0,7.337,0.405,13.236,1.207,17.69c-1.226,0.451-2.525,0.673-3.897,0.673c-1.374,0-2.57-0.43-3.579-1.291
		c-1.015-0.861-1.525-2.004-1.525-3.423c0-1.426,0.158-3.746,0.464-6.963c0.304-3.221,0.496-5.43,0.572-6.631
		c-3.746-0.258-9.319-0.39-16.728-0.39v1.459C217.016,506.124,217.414,511.538,218.217,515.731z"/>
	<path style="fill:#C43293;" d="M250.073,476.36l12.083,0.168c6.263,0,10.848-0.222,13.75-0.673
		c0.418,0.787,0.631,1.684,0.631,2.697c0,1.009-0.46,1.915-1.379,2.721c-0.912,0.807-2.024,1.208-3.32,1.208l-6.588-0.729
		c0,0.258-0.096,1.421-0.288,3.479c-0.535,5.057-0.802,10.128-0.802,15.222c0,5.091,0.405,10.184,1.207,15.276
		c-1.262,0.451-2.58,0.673-3.958,0.673c-1.372,0-2.554-0.381-3.547-1.152c-0.995-0.762-1.491-1.926-1.491-3.479
		s0.192-4.295,0.572-8.23c0.384-3.928,0.574-7.759,0.574-11.485c0-3.726-0.19-7.196-0.574-10.418
		c-4.619,0.224-8.228,0.863-10.828,1.91c-0.46-0.861-0.686-1.825-0.686-2.894c0-1.063,0.439-2.049,1.317-2.943
		C247.624,476.811,248.736,476.36,250.073,476.36z"/>
</g>
<g>
	<path style="fill:#C43293;" d="M159.968,243.781c0,4.786-1.969,8.665-5.895,11.635c-3.933,2.968-8.354,4.452-13.261,4.452
		c-4.912,0-8.964-1.087-12.166-3.271c-3.195-2.177-4.795-5.206-4.795-9.086c0-2.775,0.769-5.336,2.307-7.683
		c1.539-2.345,3.725-4.237,6.556-5.672c-4.299-2.204-6.444-5.291-6.444-9.266c0-3.972,1.903-7.207,5.712-9.698
		c3.808-2.488,7.814-3.73,12.014-3.73c4.199,0,7.546,0.919,10.034,2.764c2.493,1.843,3.734,4.524,3.734,8.044
		c0,3.518-1.999,7.001-6.005,10.447c2.492,0.96,4.482,2.383,5.971,4.275C159.221,238.885,159.968,241.149,159.968,243.781z
		 M137.99,236.383c-3.224,2.538-4.836,5.721-4.836,9.55c0,2.253,0.81,4.024,2.419,5.315c1.61,1.291,3.663,1.939,6.154,1.939
		c2.488,0,4.725-0.693,6.702-2.083c1.978-1.388,2.968-3.114,2.968-5.172c0-2.058-0.844-3.771-2.529-5.136
		C147.183,239.434,143.558,237.961,137.99,236.383z M135.427,224.244c0,2.684,3.684,4.838,11.059,6.463
		c2.493-1.816,3.741-4.21,3.741-7.181c0-1.724-0.652-3.04-1.944-3.948c-1.297-0.91-3.08-1.365-5.351-1.365
		c-2.266,0-4.356,0.623-6.259,1.865C135.841,221.325,135.427,222.713,135.427,224.244z"/>
</g>
<g>
	<g>
		<path style="fill:#F8D508;" d="M314.664,242.949c1.496-5.391,2.889-10.978,0.462-16.243c-1.893-4.1-7.223-9.244-11.642-4.782
			c-3.736,3.774-5.248,10.839-7.918,15.543c-2.74,4.828-5.549,10.656-9.651,14.391c-4.332,3.945-10.811,5.344-15.477,8.815
			c-8.458,6.293-11.246,17.561-9.132,27.433c1.217,5.693,1.777,11.1,7.355,14.342c8.796,5.112,24.257,4.941,32.014-1.822
			c3.607-3.145,7.129-6.688,9.468-10.87c2.36-4.226,1.742-6.55,1.198-10.933c-1.142-9.234-0.101-21.432,1.919-30.544
			C313.649,246.538,314.163,244.754,314.664,242.949z"/>
		<path style="opacity:0.54;fill:#FFF18C;" d="M278.743,272.605c0.077,0.059,0.153,0.123,0.228,0.191
			c3.377,3.03,2.505,2.08,5.882-0.829c2.747-2.366,3.56-0.873,6.739-0.48c7.74,0.955,8.937-8.836,9.376-14.289
			c0.23-2.904,0.282-5.896,1.047-8.73c0.732-2.725,2.236-4.634,2.505-7.447c0.327-3.435,3.645-8.226,2.536-11.636
			c-1.662-5.108-5.29,3.001-6.206,4.975c-1.212,2.616-2.992,2.374-3.867,5.57c-1.48,5.427-3.311,10.228-8.252,13.22
			c-4.171,2.524-10.607,4.92-13.261,9.154c-1.216,1.939-0.751,2.654-3.093,3.835c-2.262,1.14-7.597,4.436-2.682,6.481
			C272.515,273.794,276.059,270.555,278.743,272.605z"/>
		<path style="opacity:0.3;fill:#EAA422;" d="M315.126,226.706c-1.763-3.816-6.5-8.531-10.708-5.571
			c1.289,0.061,2.583,0.455,3.377,1.046c3.318,2.462,2.653,7.635,2.095,11.104c-1.017,6.347-3.311,12.561-3.365,19.035
			c-0.035,4.313,1.456,9.565-1.975,13.043c-1.085,1.1-2.388,1.918-3.567,2.91c-1.438,1.208-2.377,2.524-2.983,4.293
			c-0.995,2.921-1.695,6.105-3.572,8.642c-4.081,5.514-11.225,7.784-17.445,10.11c-2.773,1.035-5.473,1.741-8.298,0.392
			c-2.722-1.3-4.83-3.683-6.303-6.238c-0.752-1.306-1.348-2.683-1.745-4.107c-0.028,2.27,0.199,4.541,0.671,6.743
			c1.217,5.693,1.777,11.1,7.355,14.342c8.796,5.112,24.257,4.941,32.014-1.822c3.607-3.145,7.129-6.688,9.468-10.87
			c2.36-4.226,1.742-6.55,1.198-10.933c-1.142-9.234-0.101-21.432,1.919-30.544c0.387-1.741,0.901-3.525,1.402-5.33
			C316.16,237.558,317.553,231.971,315.126,226.706z"/>
		<path style="opacity:0.37;fill:#EAA422;" d="M312.733,250.859c-0.174,0.144-0.348,0.288-0.524,0.43
			c-1.083,0.882-2.175,1.786-3.071,2.858c-1.724,2.063-2.985,6.269-2.593,8.918c0.465,3.135,4.22,6.068,1.705,9.283
			c-1.423,1.822-6.19,0.585-6.493,3.465c-0.195,1.837,1.036,2.058-0.18,3.658c-0.717,0.944-1.557,1.969-2.802,1.793
			c-2.583-0.362-2.29-7.112-6.131-4.022c-1.548,1.242-0.329,3.167-1.371,4.58c-1.482,2.005-1.148-0.719-2.052-1.038
			c-1.806-0.64-3.144,3.411-5.189,2.828c-2.591-0.737-1.263-6.502-5.303-4.011c-1.365,0.842-1.124,2.698-1.919,3.943
			c-0.566,0.881-1.447,1.733-2.588,1.441c-0.65-0.165-0.923-0.94-1.592-1.119c-1.55-0.413-3.717,1.154-3.468-1.608
			c0.082-0.93,0.536-1.778,0.34-2.79c-0.265-1.351-0.578-1.161-1.651-1.457c-2.499-0.69-2.25-2.18-2.29-4.456
			c-0.018-0.982-1.893-4.834-1.656-5.269c-3.222,5.954-4.017,13.2-2.597,19.822c1.217,5.693,1.777,11.1,7.355,14.342
			c8.796,5.112,24.257,4.941,32.014-1.822c3.607-3.145,7.129-6.688,9.468-10.87c2.36-4.226,1.742-6.55,1.198-10.933
			C310.304,270.435,311.067,259.604,312.733,250.859z"/>
		<path style="opacity:0.59;fill:#EAA422;" d="M311.863,256.228c-0.36,1.545-0.536,3.113-0.792,4.678
			c-0.242,1.493-0.832,2.907-1.09,4.397c-0.677,3.904,1.101,7.703-0.354,11.561c-0.263,0.699-0.773,1.33-0.963,2.05
			c-0.169,0.641-0.145,1.301-0.268,1.948c-0.209,1.1-0.643,1.91-1.395,2.74c-0.648,0.714-1.526,1.613-1.721,2.586
			c-0.418,2.094-0.88,2.594-2.851,3.249c-1.388,0.464-1.965,0.666-2.566,2.001c-0.558,1.245-0.516,2.181-1.876,2.939
			c-1.334,0.746-2.872,0.66-3.889-0.54c-0.765-0.902-0.529-1.903-1.895-2.06c-1.198-0.137-2.111,0.937-2.719,1.721
			c-0.861,1.107-1.063,2.771-2.362,3.552c-1.099,0.657-2.318,0.393-3.586,0.439c-2.917,0.108-5.441,4.666-8.068,1.423
			c-0.772-0.954-0.7-1.973-1.308-2.898c-0.401-0.609-0.81-0.575-1.381-1.007c-1.489-1.123-1.552-1.996-1.937-3.669
			c-0.305-1.345-1.296-2.699-2.848-1.582c-1.054,0.758-1.301,3.743-3.323,1.778c-0.663-0.645-0.36-1.778-0.989-2.443
			c-0.204-0.214-2.363-0.939-2.257-0.421c1.143,5.483,1.845,10.643,7.237,13.777c8.796,5.112,24.257,4.941,32.014-1.822
			c3.607-3.145,7.129-6.688,9.468-10.87c2.36-4.226,1.742-6.55,1.198-10.933C310.51,272.085,310.839,263.772,311.863,256.228z"/>
		<path style="opacity:0.59;fill:#EAA422;" d="M275.759,278.002c0.585-0.459,0.808-0.04,1.054-1.011
			c0.185-0.734-0.188-1.87-0.775-2.352c-2.475-2.034-4.824,2.289-4.882,4.363C271.052,282.895,274.789,278.76,275.759,278.002z"/>
		<path style="opacity:0.59;fill:#EAA422;" d="M285.651,276.084c1.238,0.279,2.595-1.419,2.365-2.584
			C287.338,270.031,284.527,275.83,285.651,276.084z"/>
		<path style="opacity:0.59;fill:#EAA422;" d="M300.687,265.999c0.289-1.253,0.127-2.728-1.015-3.482
			c-1.953-1.289-3.862,1.65-3.107,3.403C297.421,267.913,300.116,268.472,300.687,265.999z"/>
		<path style="opacity:0.59;fill:#EAA422;" d="M275.866,289.405c-0.15,1.283,0,2.508,0.533,3.187
			c1.009,1.28,2.937,2.211,4.415,1.229c1.19-0.79,1.524-2.448,2.644-3.34c1.503-1.195,4.783-0.756,4.417-3.427
			c-0.317-2.321-3.341-1.4-4.645-0.586c-2.344,1.462-1.203-0.023-3.013-1.282C277.923,283.59,276.193,286.633,275.866,289.405z"/>
		<path style="opacity:0.59;fill:#EAA422;" d="M295.394,284.265c-1.654,0.81-0.785,2.431-0.681,3.714
			c0.064,0.835-0.014,0.563-0.129,1.165c-0.08,0.419-0.824,0.522-0.442,1.14c0.456,0.738,2.236,0.291,2.834-0.001
			C299.884,288.857,298.811,282.59,295.394,284.265z"/>
		<path style="opacity:0.3;fill:#EAA422;" d="M276.397,266.411c-0.218,0.803,0.118,1.49,1.351,1.572
			c1.808,0.12,3.09-1.393,4.72-1.879c1.527-0.454,2.578,0.073,2.233-2.648c-0.322-2.555-2.775-3.908-4.48-2.315
			c-1.125,1.053-1.658,2.634-2.776,3.679C276.921,265.307,276.54,265.884,276.397,266.411z"/>
		<path style="opacity:0.3;fill:#EAA422;" d="M264.82,266.732c0.888,1.013,3.173,2.43,4.173,2.432
			c3.264,0.007,5.049-5.03,6.225-7.308c0.629-1.222,1.613-2.86,1.099-4.342c-0.014-0.044-0.031-0.084-0.049-0.126
			c-2.059,0.966-4.074,1.978-5.829,3.285C268.157,262.371,266.29,264.434,264.82,266.732z"/>
		<path style="opacity:0.3;fill:#EAA422;" d="M289.967,270.252c0.458-0.031,0.745-0.527,1.294-0.522
			c0.171,0,0.232,0.728,0.575,0.698c1.879-0.166,3.621-2.447,2.35-4.318C291.581,262.276,283.27,270.721,289.967,270.252z"/>
		<path style="opacity:0.59;fill:#EAA422;" d="M300.218,275.939c0.582-1.303-0.528-4.138-2.433-2.876
			C295.892,274.315,298.856,278.987,300.218,275.939z"/>
		<path style="opacity:0.59;fill:#EAA422;" d="M303.484,221.924c-0.5,0.505-0.961,1.073-1.39,1.684
			c0.11,0.442,0.44,0.549,1.049,0.841c0.911,0.44,0.959-0.095,0.984,1.093c0.016,0.825-0.676,1.576-0.096,2.369
			c0.516,0.705,1.825,0.744,2.531,0.337c1.376-0.79,0.439-2.49,1.829-3.187c1.468-0.736,1.568,0.484,2.534,1.015
			c1.155,0.637,2.466,0.048,3.431-0.786C312.036,221.565,307.403,217.966,303.484,221.924z"/>
		<g>
			<path style="fill:#605B26;" d="M300.915,213.235c-0.19,0.722-0.117,1.592,0.232,2.243c0.5,0.93,1.432,0.932,2.259,1.41
				c0.902,0.522,1.921,1.096,2.432,2.035c0.719,1.324-1.221,4.077,0.812,4.672c1.134,0.331,2.766-0.685,2.876-1.851
				c0.221-2.321-0.819-4.752-2.311-6.497c-0.746-0.873-1.662-1.689-2.499-2.433C303.305,211.56,301.507,211.002,300.915,213.235z"/>
			<path style="fill:#7C742E;" d="M307.213,215.248c-0.178-0.207-0.366-0.41-0.559-0.61c0.591,0.817,1.104,1.685,1.515,2.479
				c0.599,1.153,1.482,3.055,0.401,4.119c-0.126,0.361-0.477,0.801-0.805,0.802c-0.538,0.003-1.179,0.427-1.679,0.294
				c-0.155-0.043-0.284-0.118-0.394-0.214c-0.024,0.68,0.162,1.246,0.956,1.48c1.134,0.331,2.766-0.685,2.876-1.851
				C309.746,219.423,308.706,216.993,307.213,215.248z"/>
			<path style="fill:#5A461B;" d="M305.837,218.923c0.007,0.014,0.014,0.03,0.021,0.045c0.011-0.225-0.04-0.447-0.193-0.658
				c-0.324-0.449-0.752-0.754-1.104-1.173c-0.307-0.366-0.632-0.847-0.404-1.256c0-0.054-0.003-0.107,0.002-0.163
				c0.017-0.189,0.162-0.29,0.348-0.261c0.226,0.035,0.43,0.086,0.631,0.149c-0.228-0.569-0.214-1.013,0.705-1.178
				c0.185-0.034,0.388-0.035,0.594-0.011c-0.561-0.563-1.156-1.101-1.723-1.602c-1.409-1.254-3.206-1.812-3.799,0.42
				c-0.19,0.722-0.117,1.592,0.232,2.243c0.5,0.93,1.432,0.932,2.259,1.41C304.308,217.41,305.327,217.984,305.837,218.923z"/>
		</g>
	</g>
	<g>
		<path style="fill:#F8D508;" d="M245.441,242.038c1.496-5.391,2.889-10.978,0.462-16.244c-1.893-4.1-7.223-9.244-11.641-4.782
			c-3.736,3.774-5.248,10.839-7.918,15.543c-2.74,4.828-5.549,10.656-9.651,14.391c-4.332,3.945-10.811,5.344-15.477,8.815
			c-8.458,6.293-11.246,17.561-9.132,27.433c1.218,5.693,1.777,11.1,7.355,14.342c8.796,5.112,24.257,4.941,32.014-1.822
			c3.607-3.145,7.129-6.688,9.468-10.87c2.36-4.226,1.742-6.55,1.198-10.933c-1.142-9.234-0.101-21.432,1.919-30.544
			C244.426,245.627,244.939,243.842,245.441,242.038z"/>
		<path style="opacity:0.54;fill:#FFF18C;" d="M209.52,271.693c0.077,0.059,0.153,0.123,0.228,0.191
			c3.377,3.03,2.505,2.08,5.882-0.829c2.747-2.366,3.56-0.873,6.739-0.481c7.74,0.955,8.937-8.836,9.375-14.289
			c0.23-2.904,0.282-5.896,1.047-8.73c0.732-2.725,2.236-4.634,2.505-7.447c0.328-3.435,3.645-8.226,2.536-11.636
			c-1.661-5.108-5.29,3.001-6.206,4.975c-1.212,2.616-2.992,2.374-3.866,5.57c-1.481,5.427-3.311,10.228-8.252,13.22
			c-4.171,2.524-10.607,4.92-13.261,9.154c-1.216,1.939-0.751,2.654-3.093,3.835c-2.262,1.141-7.597,4.436-2.682,6.482
			C203.292,272.882,206.836,269.643,209.52,271.693z"/>
		<path style="opacity:0.3;fill:#EAA422;" d="M245.903,225.794c-1.763-3.816-6.5-8.531-10.708-5.571
			c1.289,0.061,2.583,0.455,3.377,1.046c3.318,2.462,2.653,7.635,2.095,11.103c-1.017,6.347-3.311,12.561-3.365,19.035
			c-0.035,4.313,1.456,9.565-1.975,13.042c-1.085,1.1-2.388,1.918-3.567,2.91c-1.438,1.208-2.377,2.524-2.983,4.293
			c-0.994,2.922-1.695,6.105-3.572,8.642c-4.081,5.515-11.225,7.784-17.445,10.11c-2.773,1.035-5.473,1.741-8.298,0.392
			c-2.722-1.3-4.83-3.683-6.303-6.238c-0.752-1.305-1.348-2.683-1.745-4.106c-0.028,2.27,0.199,4.541,0.67,6.743
			c1.218,5.693,1.777,11.1,7.355,14.342c8.796,5.112,24.257,4.941,32.014-1.822c3.607-3.145,7.129-6.688,9.468-10.87
			c2.36-4.226,1.742-6.55,1.198-10.933c-1.142-9.234-0.101-21.432,1.919-30.544c0.387-1.741,0.901-3.525,1.402-5.33
			C246.937,236.646,248.33,231.059,245.903,225.794z"/>
		<path style="opacity:0.37;fill:#EAA422;" d="M243.509,249.947c-0.174,0.144-0.348,0.288-0.524,0.43
			c-1.083,0.882-2.176,1.786-3.071,2.858c-1.724,2.063-2.985,6.269-2.593,8.918c0.465,3.135,4.22,6.068,1.705,9.283
			c-1.423,1.822-6.19,0.585-6.493,3.465c-0.195,1.837,1.036,2.058-0.18,3.657c-0.717,0.944-1.557,1.969-2.802,1.793
			c-2.583-0.362-2.29-7.112-6.131-4.022c-1.548,1.242-0.329,3.166-1.371,4.579c-1.482,2.005-1.148-0.719-2.052-1.038
			c-1.806-0.641-3.144,3.411-5.189,2.828c-2.592-0.738-1.263-6.502-5.304-4.011c-1.365,0.842-1.123,2.698-1.919,3.943
			c-0.566,0.881-1.447,1.733-2.588,1.441c-0.65-0.165-0.923-0.94-1.592-1.118c-1.55-0.413-3.717,1.153-3.468-1.609
			c0.082-0.93,0.536-1.778,0.34-2.79c-0.265-1.351-0.578-1.161-1.651-1.457c-2.499-0.69-2.25-2.179-2.29-4.456
			c-0.017-0.982-1.893-4.834-1.656-5.269c-3.222,5.954-4.017,13.2-2.597,19.822c1.218,5.693,1.777,11.1,7.355,14.342
			c8.796,5.112,24.257,4.941,32.014-1.822c3.607-3.145,7.129-6.688,9.468-10.87c2.36-4.226,1.742-6.55,1.198-10.933
			C241.082,269.524,241.844,258.692,243.509,249.947z"/>
		<path style="opacity:0.59;fill:#EAA422;" d="M242.64,255.317c-0.361,1.545-0.537,3.113-0.793,4.678
			c-0.242,1.493-0.832,2.907-1.09,4.397c-0.677,3.904,1.101,7.703-0.354,11.561c-0.263,0.699-0.773,1.33-0.963,2.05
			c-0.169,0.641-0.144,1.301-0.268,1.948c-0.209,1.101-0.643,1.911-1.395,2.74c-0.648,0.714-1.526,1.614-1.721,2.586
			c-0.418,2.094-0.88,2.594-2.851,3.249c-1.388,0.464-1.965,0.666-2.566,2.001c-0.557,1.245-0.516,2.18-1.876,2.939
			c-1.334,0.746-2.872,0.66-3.889-0.54c-0.765-0.901-0.529-1.903-1.895-2.06c-1.198-0.138-2.111,0.937-2.719,1.721
			c-0.861,1.107-1.063,2.771-2.362,3.552c-1.099,0.657-2.318,0.393-3.586,0.44c-2.917,0.108-5.441,4.666-8.068,1.423
			c-0.772-0.954-0.7-1.973-1.308-2.898c-0.401-0.609-0.81-0.576-1.381-1.008c-1.489-1.123-1.552-1.996-1.937-3.668
			c-0.305-1.346-1.296-2.699-2.848-1.582c-1.053,0.758-1.301,3.743-3.323,1.778c-0.664-0.645-0.361-1.778-0.989-2.443
			c-0.204-0.214-2.363-0.939-2.257-0.421c1.143,5.483,1.845,10.643,7.237,13.777c8.796,5.112,24.257,4.941,32.014-1.822
			c3.607-3.145,7.129-6.688,9.468-10.87c2.36-4.226,1.742-6.55,1.198-10.933C241.287,271.173,241.616,262.86,242.64,255.317z"/>
		<path style="opacity:0.59;fill:#EAA422;" d="M206.536,277.09c0.585-0.459,0.808-0.04,1.054-1.011
			c0.185-0.734-0.188-1.87-0.775-2.352c-2.475-2.034-4.824,2.289-4.882,4.363C201.829,281.983,205.566,277.848,206.536,277.09z"/>
		<path style="opacity:0.59;fill:#EAA422;" d="M216.427,275.172c1.238,0.279,2.595-1.419,2.365-2.584
			C218.115,269.12,215.304,274.918,216.427,275.172z"/>
		<path style="opacity:0.59;fill:#EAA422;" d="M231.464,265.088c0.289-1.253,0.127-2.728-1.015-3.482
			c-1.953-1.289-3.862,1.65-3.107,3.403C228.198,267.002,230.892,267.561,231.464,265.088z"/>
		<path style="opacity:0.59;fill:#EAA422;" d="M206.643,288.494c-0.15,1.283,0,2.508,0.533,3.187
			c1.009,1.28,2.936,2.211,4.415,1.229c1.19-0.79,1.524-2.448,2.644-3.34c1.503-1.195,4.783-0.756,4.417-3.427
			c-0.317-2.322-3.341-1.4-4.645-0.586c-2.344,1.463-1.204-0.023-3.013-1.282C208.7,282.679,206.97,285.722,206.643,288.494z"/>
		<path style="opacity:0.59;fill:#EAA422;" d="M226.171,283.353c-1.655,0.81-0.786,2.432-0.681,3.714
			c0.064,0.835-0.014,0.564-0.129,1.165c-0.08,0.419-0.824,0.522-0.442,1.14c0.456,0.738,2.236,0.291,2.834-0.001
			C230.661,287.946,229.588,281.678,226.171,283.353z"/>
		<path style="opacity:0.3;fill:#EAA422;" d="M207.174,265.499c-0.218,0.803,0.118,1.49,1.352,1.572
			c1.808,0.12,3.09-1.393,4.72-1.879c1.527-0.454,2.578,0.073,2.233-2.648c-0.322-2.555-2.775-3.908-4.48-2.315
			c-1.125,1.053-1.658,2.635-2.776,3.679C207.698,264.395,207.317,264.973,207.174,265.499z"/>
		<path style="opacity:0.3;fill:#EAA422;" d="M195.597,265.82c0.888,1.013,3.173,2.43,4.173,2.432
			c3.264,0.007,5.049-5.03,6.225-7.308c0.629-1.222,1.613-2.86,1.099-4.342c-0.014-0.045-0.031-0.085-0.049-0.126
			c-2.059,0.966-4.074,1.978-5.83,3.285C198.934,261.459,197.067,263.522,195.597,265.82z"/>
		<path style="opacity:0.3;fill:#EAA422;" d="M220.744,269.34c0.458-0.031,0.745-0.527,1.294-0.522c0.171,0,0.232,0.728,0.575,0.698
			c1.879-0.166,3.621-2.447,2.35-4.318C222.358,261.365,214.047,269.81,220.744,269.34z"/>
		<path style="opacity:0.59;fill:#EAA422;" d="M230.995,275.028c0.582-1.303-0.528-4.138-2.433-2.876
			C226.669,273.404,229.633,278.076,230.995,275.028z"/>
		<path style="opacity:0.59;fill:#EAA422;" d="M234.261,221.013c-0.5,0.505-0.961,1.072-1.39,1.684
			c0.11,0.442,0.44,0.549,1.049,0.841c0.911,0.44,0.959-0.095,0.984,1.093c0.016,0.825-0.676,1.576-0.096,2.369
			c0.516,0.705,1.825,0.744,2.531,0.337c1.376-0.79,0.439-2.49,1.829-3.187c1.468-0.736,1.568,0.484,2.534,1.015
			c1.155,0.637,2.466,0.048,3.431-0.785C242.813,220.653,238.18,217.055,234.261,221.013z"/>
		<g>
			<path style="fill:#605B26;" d="M231.692,212.323c-0.19,0.722-0.117,1.592,0.232,2.244c0.5,0.93,1.432,0.932,2.259,1.41
				c0.902,0.522,1.921,1.096,2.432,2.035c0.719,1.324-1.221,4.077,0.812,4.672c1.134,0.331,2.766-0.685,2.876-1.851
				c0.221-2.321-0.819-4.752-2.311-6.497c-0.745-0.873-1.662-1.689-2.499-2.433C234.082,210.649,232.284,210.091,231.692,212.323z"
				/>
			<path style="fill:#7C742E;" d="M237.99,214.336c-0.177-0.207-0.366-0.41-0.559-0.61c0.591,0.817,1.104,1.685,1.515,2.478
				c0.599,1.153,1.482,3.055,0.401,4.119c-0.125,0.361-0.477,0.801-0.805,0.802c-0.538,0.003-1.179,0.427-1.679,0.294
				c-0.155-0.044-0.284-0.118-0.394-0.214c-0.024,0.68,0.162,1.247,0.956,1.48c1.134,0.331,2.766-0.685,2.876-1.851
				C240.522,218.512,239.483,216.081,237.99,214.336z"/>
			<path style="fill:#5A461B;" d="M236.614,218.012c0.007,0.015,0.014,0.03,0.021,0.045c0.011-0.225-0.04-0.447-0.193-0.658
				c-0.324-0.449-0.753-0.754-1.104-1.173c-0.307-0.366-0.632-0.847-0.404-1.256c0-0.053-0.003-0.107,0.002-0.163
				c0.018-0.189,0.162-0.291,0.348-0.261c0.227,0.035,0.43,0.086,0.631,0.149c-0.228-0.569-0.214-1.013,0.705-1.178
				c0.185-0.033,0.388-0.035,0.594-0.011c-0.561-0.563-1.156-1.1-1.723-1.601c-1.409-1.254-3.206-1.813-3.799,0.42
				c-0.19,0.722-0.117,1.592,0.232,2.244c0.5,0.93,1.432,0.932,2.259,1.41C235.085,216.499,236.104,217.073,236.614,218.012z"/>
		</g>
	</g>
	<g>
		<path style="fill:#F8D508;" d="M344.675,315.063c1.496-5.391,2.89-10.978,0.462-16.244c-1.893-4.1-7.223-9.244-11.642-4.782
			c-3.736,3.774-5.248,10.839-7.918,15.543c-2.74,4.828-5.549,10.656-9.651,14.391c-4.332,3.945-10.811,5.344-15.477,8.815
			c-8.458,6.293-11.246,17.561-9.132,27.433c1.217,5.693,1.777,11.1,7.355,14.342c8.796,5.112,24.257,4.941,32.014-1.822
			c3.607-3.145,7.129-6.688,9.468-10.87c2.36-4.226,1.742-6.55,1.198-10.933c-1.142-9.234-0.101-21.431,1.919-30.544
			C343.659,318.652,344.173,316.868,344.675,315.063z"/>
		<path style="opacity:0.54;fill:#FFF18C;" d="M308.754,344.719c0.077,0.059,0.153,0.123,0.228,0.191
			c3.377,3.03,2.505,2.08,5.882-0.829c2.746-2.366,3.56-0.874,6.739-0.481c7.74,0.955,8.937-8.836,9.376-14.289
			c0.23-2.904,0.282-5.896,1.047-8.73c0.732-2.725,2.236-4.634,2.505-7.447c0.327-3.435,3.645-8.226,2.536-11.636
			c-1.662-5.108-5.29,3.001-6.206,4.975c-1.212,2.616-2.992,2.374-3.867,5.57c-1.48,5.427-3.311,10.228-8.252,13.22
			c-4.172,2.524-10.607,4.92-13.261,9.154c-1.216,1.939-0.751,2.654-3.093,3.835c-2.263,1.141-7.597,4.436-2.682,6.482
			C302.526,345.908,306.07,342.669,308.754,344.719z"/>
		<path style="opacity:0.3;fill:#EAA422;" d="M345.137,298.82c-1.763-3.816-6.5-8.531-10.708-5.571
			c1.289,0.061,2.583,0.455,3.377,1.046c3.318,2.462,2.653,7.635,2.095,11.103c-1.017,6.347-3.311,12.561-3.365,19.035
			c-0.035,4.313,1.456,9.565-1.975,13.042c-1.085,1.1-2.388,1.918-3.567,2.91c-1.439,1.208-2.377,2.525-2.983,4.293
			c-0.995,2.922-1.695,6.105-3.572,8.642c-4.081,5.515-11.225,7.784-17.445,10.11c-2.773,1.035-5.472,1.741-8.298,0.392
			c-2.722-1.3-4.83-3.683-6.303-6.238c-0.753-1.305-1.348-2.683-1.745-4.106c-0.028,2.27,0.199,4.541,0.671,6.743
			c1.217,5.693,1.777,11.1,7.355,14.342c8.796,5.112,24.257,4.941,32.014-1.822c3.607-3.145,7.129-6.688,9.468-10.87
			c2.36-4.226,1.742-6.55,1.198-10.933c-1.142-9.234-0.101-21.431,1.919-30.544c0.387-1.741,0.901-3.525,1.402-5.33
			C346.171,309.672,347.564,304.085,345.137,298.82z"/>
		<path style="opacity:0.37;fill:#EAA422;" d="M342.743,322.973c-0.174,0.144-0.348,0.288-0.524,0.43
			c-1.083,0.882-2.175,1.786-3.071,2.858c-1.724,2.063-2.985,6.269-2.593,8.918c0.465,3.135,4.22,6.068,1.705,9.283
			c-1.423,1.822-6.19,0.585-6.493,3.465c-0.195,1.837,1.036,2.058-0.179,3.657c-0.717,0.944-1.557,1.969-2.802,1.793
			c-2.583-0.362-2.29-7.112-6.131-4.022c-1.548,1.242-0.329,3.166-1.371,4.579c-1.482,2.005-1.148-0.719-2.052-1.038
			c-1.806-0.64-3.144,3.411-5.189,2.828c-2.591-0.738-1.263-6.502-5.303-4.011c-1.365,0.842-1.124,2.698-1.919,3.943
			c-0.566,0.881-1.447,1.733-2.588,1.441c-0.65-0.165-0.923-0.94-1.592-1.118c-1.55-0.413-3.717,1.154-3.468-1.608
			c0.082-0.93,0.536-1.778,0.34-2.79c-0.265-1.351-0.578-1.161-1.651-1.457c-2.499-0.69-2.25-2.179-2.29-4.456
			c-0.018-0.982-1.893-4.834-1.656-5.269c-3.222,5.954-4.017,13.2-2.597,19.822c1.217,5.693,1.777,11.1,7.355,14.342
			c8.796,5.112,24.257,4.941,32.014-1.822c3.607-3.145,7.129-6.688,9.468-10.87c2.36-4.226,1.742-6.55,1.198-10.933
			C340.315,342.549,341.078,331.718,342.743,322.973z"/>
		<path style="opacity:0.59;fill:#EAA422;" d="M341.874,328.342c-0.36,1.545-0.536,3.113-0.792,4.678
			c-0.242,1.493-0.832,2.907-1.091,4.397c-0.677,3.904,1.101,7.703-0.353,11.561c-0.263,0.699-0.773,1.33-0.963,2.05
			c-0.169,0.641-0.145,1.301-0.268,1.948c-0.209,1.1-0.643,1.911-1.395,2.74c-0.648,0.714-1.526,1.614-1.721,2.586
			c-0.418,2.094-0.88,2.594-2.851,3.249c-1.388,0.464-1.965,0.666-2.565,2.001c-0.558,1.245-0.516,2.18-1.876,2.939
			c-1.334,0.746-2.872,0.66-3.889-0.54c-0.765-0.901-0.529-1.903-1.895-2.06c-1.198-0.138-2.111,0.937-2.719,1.721
			c-0.861,1.107-1.063,2.771-2.362,3.552c-1.099,0.657-2.318,0.393-3.586,0.44c-2.917,0.108-5.441,4.666-8.068,1.423
			c-0.772-0.954-0.7-1.973-1.308-2.898c-0.401-0.609-0.81-0.576-1.381-1.008c-1.489-1.123-1.552-1.996-1.937-3.668
			c-0.305-1.346-1.296-2.699-2.848-1.582c-1.054,0.758-1.301,3.743-3.323,1.778c-0.663-0.645-0.36-1.778-0.989-2.443
			c-0.204-0.214-2.363-0.939-2.257-0.421c1.143,5.483,1.845,10.643,7.237,13.777c8.796,5.112,24.257,4.941,32.014-1.822
			c3.607-3.145,7.129-6.688,9.468-10.87c2.36-4.226,1.742-6.55,1.198-10.933C340.521,344.199,340.85,335.886,341.874,328.342z"/>
		<path style="opacity:0.59;fill:#EAA422;" d="M305.77,350.116c0.585-0.459,0.808-0.04,1.054-1.011
			c0.185-0.734-0.188-1.87-0.775-2.352c-2.475-2.034-4.824,2.289-4.882,4.363C301.063,355.009,304.8,350.874,305.77,350.116z"/>
		<path style="opacity:0.59;fill:#EAA422;" d="M315.661,348.198c1.238,0.279,2.595-1.419,2.365-2.584
			C317.349,342.145,314.538,347.944,315.661,348.198z"/>
		<path style="opacity:0.59;fill:#EAA422;" d="M330.698,338.113c0.289-1.253,0.127-2.728-1.015-3.482
			c-1.953-1.289-3.862,1.65-3.107,3.403C327.432,340.027,330.126,340.586,330.698,338.113z"/>
		<path style="opacity:0.59;fill:#EAA422;" d="M305.877,361.519c-0.15,1.283,0,2.508,0.533,3.187
			c1.009,1.28,2.937,2.211,4.415,1.229c1.19-0.79,1.524-2.448,2.644-3.34c1.503-1.195,4.783-0.756,4.417-3.427
			c-0.317-2.322-3.341-1.4-4.645-0.586c-2.344,1.463-1.203-0.023-3.013-1.282C307.934,355.705,306.204,358.747,305.877,361.519z"/>
		<path style="opacity:0.59;fill:#EAA422;" d="M325.405,356.379c-1.654,0.81-0.785,2.432-0.681,3.714
			c0.064,0.835-0.014,0.563-0.129,1.165c-0.08,0.419-0.824,0.522-0.442,1.14c0.456,0.738,2.236,0.291,2.834-0.001
			C329.895,360.971,328.822,354.704,325.405,356.379z"/>
		<path style="opacity:0.3;fill:#EAA422;" d="M306.408,338.525c-0.218,0.803,0.118,1.49,1.351,1.572
			c1.808,0.12,3.09-1.393,4.72-1.879c1.527-0.454,2.578,0.073,2.233-2.648c-0.322-2.555-2.775-3.908-4.48-2.315
			c-1.125,1.053-1.658,2.635-2.776,3.679C306.932,337.421,306.551,337.998,306.408,338.525z"/>
		<path style="opacity:0.3;fill:#EAA422;" d="M294.83,338.846c0.888,1.013,3.173,2.43,4.173,2.432
			c3.264,0.007,5.049-5.03,6.225-7.308c0.629-1.222,1.613-2.86,1.099-4.342c-0.014-0.045-0.031-0.085-0.049-0.126
			c-2.059,0.966-4.074,1.978-5.83,3.285C298.168,334.485,296.301,336.547,294.83,338.846z"/>
		<path style="opacity:0.3;fill:#EAA422;" d="M319.978,342.366c0.458-0.031,0.745-0.527,1.294-0.522
			c0.171,0,0.232,0.728,0.575,0.698c1.879-0.166,3.621-2.447,2.35-4.318C321.592,334.39,313.281,342.835,319.978,342.366z"/>
		<path style="opacity:0.59;fill:#EAA422;" d="M330.229,348.053c0.582-1.303-0.528-4.138-2.433-2.876
			C325.903,346.429,328.867,351.101,330.229,348.053z"/>
		<path style="opacity:0.59;fill:#EAA422;" d="M333.495,294.038c-0.5,0.505-0.961,1.072-1.39,1.684
			c0.11,0.442,0.44,0.549,1.049,0.841c0.911,0.44,0.959-0.095,0.984,1.093c0.016,0.825-0.676,1.576-0.096,2.369
			c0.515,0.705,1.825,0.744,2.531,0.337c1.376-0.79,0.439-2.49,1.829-3.187c1.468-0.736,1.568,0.484,2.534,1.015
			c1.155,0.637,2.466,0.048,3.431-0.785C342.047,293.679,337.414,290.08,333.495,294.038z"/>
		<g>
			<path style="fill:#605B26;" d="M330.926,285.349c-0.19,0.722-0.117,1.592,0.232,2.244c0.5,0.93,1.432,0.932,2.259,1.41
				c0.902,0.522,1.921,1.096,2.432,2.036c0.719,1.324-1.221,4.077,0.812,4.672c1.134,0.331,2.766-0.685,2.876-1.851
				c0.221-2.321-0.819-4.752-2.311-6.497c-0.746-0.874-1.662-1.689-2.499-2.433C333.316,283.674,331.518,283.116,330.926,285.349z"
				/>
			<path style="fill:#7C742E;" d="M337.224,287.362c-0.178-0.207-0.366-0.41-0.559-0.61c0.591,0.817,1.104,1.685,1.515,2.478
				c0.599,1.153,1.482,3.055,0.401,4.119c-0.125,0.361-0.477,0.801-0.805,0.802c-0.538,0.003-1.179,0.427-1.679,0.294
				c-0.155-0.044-0.284-0.118-0.394-0.214c-0.024,0.68,0.162,1.247,0.956,1.48c1.134,0.331,2.766-0.685,2.876-1.851
				C339.756,291.538,338.717,289.107,337.224,287.362z"/>
			<path style="fill:#5A461B;" d="M335.848,291.037c0.007,0.014,0.014,0.03,0.021,0.044c0.011-0.225-0.04-0.447-0.193-0.658
				c-0.324-0.449-0.752-0.754-1.104-1.173c-0.307-0.366-0.632-0.847-0.404-1.256c0-0.054-0.003-0.107,0.002-0.163
				c0.017-0.189,0.162-0.29,0.348-0.261c0.226,0.035,0.43,0.086,0.631,0.149c-0.228-0.569-0.214-1.013,0.705-1.178
				c0.185-0.033,0.388-0.035,0.594-0.011c-0.561-0.563-1.156-1.1-1.723-1.601c-1.409-1.254-3.206-1.813-3.799,0.42
				c-0.19,0.722-0.117,1.592,0.232,2.244c0.5,0.93,1.432,0.932,2.259,1.41C334.319,289.524,335.338,290.098,335.848,291.037z"/>
		</g>
	</g>
	<g>
		<path style="fill:#F8D508;" d="M176.332,289.72c1.496-5.391,2.889-10.978,0.462-16.243c-1.893-4.1-7.223-9.244-11.641-4.782
			c-3.736,3.774-5.248,10.839-7.918,15.543c-2.74,4.828-5.549,10.656-9.651,14.391c-4.332,3.945-10.811,5.344-15.477,8.815
			c-8.458,6.293-11.246,17.56-9.132,27.433c1.217,5.693,1.776,11.1,7.355,14.342c8.796,5.112,24.257,4.941,32.014-1.822
			c3.607-3.145,7.129-6.688,9.468-10.87c2.36-4.226,1.742-6.55,1.198-10.933c-1.143-9.234-0.101-21.432,1.919-30.544
			C175.316,293.31,175.83,291.525,176.332,289.72z"/>
		<path style="opacity:0.54;fill:#FFF18C;" d="M140.411,319.376c0.077,0.059,0.153,0.123,0.228,0.191
			c3.377,3.03,2.505,2.08,5.882-0.829c2.747-2.366,3.56-0.873,6.739-0.481c7.74,0.955,8.937-8.836,9.375-14.289
			c0.23-2.904,0.282-5.896,1.047-8.73c0.732-2.725,2.237-4.634,2.505-7.447c0.328-3.435,3.645-8.226,2.536-11.636
			c-1.661-5.108-5.29,3.001-6.206,4.975c-1.212,2.616-2.992,2.374-3.866,5.57c-1.481,5.427-3.311,10.228-8.252,13.22
			c-4.171,2.525-10.607,4.92-13.261,9.154c-1.216,1.939-0.75,2.654-3.093,3.835c-2.262,1.14-7.597,4.436-2.682,6.482
			C134.182,320.565,137.727,317.326,140.411,319.376z"/>
		<path style="opacity:0.3;fill:#EAA422;" d="M176.793,273.477c-1.763-3.816-6.5-8.531-10.708-5.571
			c1.289,0.061,2.583,0.455,3.377,1.046c3.318,2.462,2.653,7.635,2.095,11.104c-1.017,6.347-3.311,12.561-3.365,19.035
			c-0.035,4.313,1.456,9.565-1.975,13.042c-1.085,1.1-2.388,1.918-3.567,2.91c-1.438,1.208-2.377,2.524-2.983,4.293
			c-0.995,2.922-1.695,6.105-3.572,8.642c-4.081,5.515-11.225,7.784-17.445,10.11c-2.773,1.035-5.473,1.741-8.298,0.392
			c-2.722-1.3-4.83-3.683-6.303-6.238c-0.752-1.306-1.348-2.683-1.745-4.106c-0.028,2.27,0.199,4.541,0.671,6.743
			c1.217,5.693,1.776,11.1,7.355,14.342c8.796,5.112,24.257,4.941,32.014-1.822c3.607-3.145,7.129-6.688,9.468-10.87
			c2.36-4.226,1.742-6.55,1.198-10.933c-1.143-9.234-0.101-21.432,1.919-30.544c0.387-1.741,0.901-3.525,1.402-5.33
			C177.828,284.329,179.221,278.742,176.793,273.477z"/>
		<path style="opacity:0.37;fill:#EAA422;" d="M174.4,297.63c-0.174,0.144-0.348,0.288-0.524,0.43
			c-1.083,0.882-2.176,1.786-3.071,2.858c-1.724,2.063-2.985,6.269-2.593,8.918c0.465,3.135,4.22,6.068,1.705,9.283
			c-1.423,1.822-6.19,0.585-6.493,3.465c-0.195,1.837,1.036,2.058-0.179,3.657c-0.718,0.944-1.557,1.969-2.802,1.793
			c-2.583-0.362-2.29-7.112-6.131-4.022c-1.548,1.242-0.329,3.166-1.371,4.579c-1.482,2.005-1.148-0.719-2.052-1.038
			c-1.806-0.641-3.144,3.411-5.189,2.828c-2.592-0.738-1.263-6.502-5.304-4.011c-1.365,0.842-1.123,2.698-1.919,3.943
			c-0.566,0.881-1.447,1.733-2.588,1.441c-0.65-0.165-0.923-0.94-1.592-1.118c-1.55-0.413-3.717,1.153-3.468-1.609
			c0.082-0.93,0.536-1.778,0.34-2.79c-0.265-1.351-0.578-1.161-1.651-1.457c-2.499-0.69-2.251-2.179-2.291-4.456
			c-0.017-0.982-1.893-4.834-1.656-5.269c-3.222,5.954-4.016,13.201-2.597,19.822c1.217,5.693,1.776,11.1,7.355,14.342
			c8.796,5.112,24.257,4.941,32.014-1.822c3.607-3.145,7.129-6.688,9.468-10.87c2.36-4.226,1.742-6.55,1.198-10.933
			C171.972,317.207,172.735,306.375,174.4,297.63z"/>
		<path style="opacity:0.59;fill:#EAA422;" d="M173.531,303c-0.361,1.545-0.536,3.113-0.792,4.678
			c-0.242,1.493-0.833,2.907-1.09,4.397c-0.677,3.904,1.101,7.703-0.354,11.561c-0.263,0.699-0.773,1.33-0.963,2.05
			c-0.169,0.641-0.144,1.301-0.268,1.948c-0.209,1.101-0.643,1.91-1.395,2.74c-0.648,0.714-1.526,1.614-1.721,2.586
			c-0.418,2.094-0.88,2.594-2.851,3.249c-1.388,0.463-1.965,0.666-2.565,2.001c-0.557,1.245-0.516,2.18-1.876,2.939
			c-1.334,0.746-2.872,0.66-3.889-0.54c-0.765-0.902-0.529-1.903-1.895-2.06c-1.198-0.138-2.111,0.937-2.719,1.721
			c-0.861,1.107-1.063,2.771-2.362,3.552c-1.099,0.657-2.318,0.393-3.586,0.44c-2.917,0.108-5.441,4.666-8.068,1.423
			c-0.772-0.954-0.7-1.973-1.308-2.898c-0.401-0.609-0.81-0.576-1.381-1.008c-1.489-1.123-1.552-1.996-1.937-3.668
			c-0.305-1.346-1.296-2.699-2.848-1.582c-1.054,0.758-1.301,3.743-3.323,1.778c-0.664-0.645-0.361-1.778-0.989-2.443
			c-0.204-0.214-2.363-0.939-2.257-0.421c1.143,5.483,1.845,10.642,7.237,13.777c8.796,5.112,24.257,4.941,32.014-1.822
			c3.607-3.145,7.129-6.688,9.468-10.87c2.36-4.226,1.742-6.55,1.198-10.933C172.178,318.856,172.507,310.543,173.531,303z"/>
		<path style="opacity:0.59;fill:#EAA422;" d="M137.427,324.773c0.585-0.459,0.808-0.04,1.054-1.011
			c0.185-0.734-0.188-1.87-0.775-2.352c-2.475-2.034-4.824,2.289-4.882,4.363C132.719,329.666,136.457,325.531,137.427,324.773z"/>
		<path style="opacity:0.59;fill:#EAA422;" d="M147.318,322.855c1.238,0.279,2.595-1.419,2.365-2.584
			C149.006,316.803,146.195,322.601,147.318,322.855z"/>
		<path style="opacity:0.59;fill:#EAA422;" d="M162.355,312.771c0.289-1.253,0.127-2.728-1.015-3.482
			c-1.953-1.289-3.862,1.65-3.107,3.403C159.089,314.685,161.783,315.244,162.355,312.771z"/>
		<path style="opacity:0.59;fill:#EAA422;" d="M137.533,336.177c-0.15,1.283,0,2.508,0.533,3.187
			c1.009,1.28,2.936,2.211,4.415,1.229c1.19-0.79,1.524-2.448,2.644-3.34c1.503-1.195,4.783-0.756,4.417-3.427
			c-0.317-2.322-3.341-1.4-4.645-0.586c-2.344,1.462-1.204-0.023-3.013-1.282C139.59,330.362,137.861,333.405,137.533,336.177z"/>
		<path style="opacity:0.59;fill:#EAA422;" d="M157.062,331.036c-1.655,0.81-0.786,2.431-0.681,3.714
			c0.064,0.835-0.014,0.563-0.129,1.165c-0.08,0.419-0.824,0.522-0.442,1.14c0.456,0.738,2.236,0.291,2.834-0.001
			C161.552,335.629,160.479,329.361,157.062,331.036z"/>
		<path style="opacity:0.3;fill:#EAA422;" d="M138.065,313.182c-0.218,0.803,0.118,1.49,1.352,1.572
			c1.808,0.12,3.09-1.393,4.72-1.879c1.527-0.454,2.578,0.073,2.233-2.648c-0.322-2.555-2.775-3.908-4.48-2.315
			c-1.125,1.053-1.658,2.635-2.776,3.679C138.589,312.078,138.207,312.655,138.065,313.182z"/>
		<path style="opacity:0.3;fill:#EAA422;" d="M126.487,313.503c0.888,1.013,3.173,2.43,4.173,2.432
			c3.264,0.007,5.049-5.03,6.225-7.308c0.629-1.222,1.613-2.86,1.099-4.342c-0.014-0.045-0.031-0.085-0.049-0.126
			c-2.059,0.966-4.074,1.978-5.83,3.285C129.825,309.142,127.958,311.205,126.487,313.503z"/>
		<path style="opacity:0.3;fill:#EAA422;" d="M151.634,317.023c0.458-0.031,0.745-0.527,1.294-0.522
			c0.171,0,0.232,0.728,0.575,0.698c1.879-0.166,3.621-2.447,2.35-4.318C153.249,309.047,144.937,317.493,151.634,317.023z"/>
		<path style="opacity:0.59;fill:#EAA422;" d="M161.886,322.711c0.582-1.303-0.528-4.138-2.433-2.876
			C157.56,321.087,160.524,325.759,161.886,322.711z"/>
		<path style="opacity:0.59;fill:#EAA422;" d="M165.152,268.696c-0.5,0.505-0.961,1.072-1.39,1.684
			c0.11,0.442,0.44,0.549,1.049,0.841c0.911,0.44,0.96-0.095,0.984,1.093c0.016,0.825-0.676,1.576-0.096,2.369
			c0.516,0.705,1.825,0.744,2.531,0.337c1.376-0.79,0.439-2.49,1.829-3.187c1.468-0.736,1.567,0.484,2.534,1.015
			c1.155,0.637,2.466,0.048,3.431-0.785C173.704,268.336,169.071,264.737,165.152,268.696z"/>
		<g>
			<path style="fill:#605B26;" d="M162.583,260.006c-0.19,0.722-0.117,1.592,0.232,2.244c0.5,0.93,1.432,0.932,2.259,1.409
				c0.902,0.522,1.921,1.096,2.431,2.035c0.719,1.324-1.221,4.077,0.812,4.672c1.134,0.331,2.766-0.685,2.876-1.851
				c0.221-2.321-0.819-4.752-2.311-6.497c-0.745-0.873-1.662-1.689-2.499-2.433C164.972,258.332,163.175,257.773,162.583,260.006z"
				/>
			<path style="fill:#7C742E;" d="M168.881,262.019c-0.177-0.207-0.366-0.41-0.559-0.61c0.591,0.817,1.104,1.685,1.515,2.478
				c0.599,1.153,1.482,3.055,0.401,4.119c-0.125,0.361-0.477,0.801-0.805,0.802c-0.538,0.003-1.179,0.427-1.679,0.294
				c-0.155-0.044-0.284-0.118-0.394-0.214c-0.024,0.68,0.162,1.247,0.956,1.48c1.134,0.331,2.766-0.685,2.876-1.851
				C171.413,266.195,170.374,263.764,168.881,262.019z"/>
			<path style="fill:#5A461B;" d="M167.505,265.694c0.007,0.015,0.014,0.03,0.021,0.045c0.011-0.225-0.04-0.447-0.193-0.658
				c-0.324-0.449-0.753-0.754-1.104-1.173c-0.307-0.366-0.632-0.847-0.404-1.256c0-0.053-0.003-0.107,0.002-0.163
				c0.018-0.188,0.162-0.29,0.348-0.261c0.227,0.035,0.43,0.086,0.631,0.149c-0.228-0.569-0.214-1.013,0.705-1.178
				c0.185-0.033,0.388-0.035,0.594-0.011c-0.561-0.563-1.157-1.101-1.723-1.601c-1.409-1.254-3.206-1.813-3.799,0.42
				c-0.19,0.722-0.117,1.592,0.232,2.244c0.5,0.93,1.432,0.932,2.259,1.409C165.976,264.182,166.995,264.756,167.505,265.694z"/>
		</g>
	</g>
	<g>
		<path style="fill:#F8D508;" d="M251.276,344.663c1.496-5.391,2.89-10.978,0.462-16.243c-1.893-4.1-7.223-9.244-11.641-4.782
			c-3.736,3.774-5.248,10.839-7.918,15.543c-2.74,4.828-5.549,10.656-9.651,14.391c-4.332,3.945-10.811,5.344-15.477,8.815
			c-8.458,6.293-11.246,17.561-9.132,27.433c1.217,5.693,1.777,11.1,7.355,14.342c8.796,5.112,24.257,4.941,32.014-1.822
			c3.607-3.145,7.129-6.688,9.468-10.87c2.36-4.226,1.742-6.55,1.198-10.933c-1.142-9.234-0.101-21.432,1.919-30.544
			C250.261,348.253,250.775,346.468,251.276,344.663z"/>
		<path style="opacity:0.54;fill:#FFF18C;" d="M215.355,374.319c0.077,0.059,0.153,0.123,0.228,0.191
			c3.377,3.03,2.505,2.08,5.882-0.829c2.747-2.366,3.56-0.873,6.739-0.48c7.74,0.955,8.937-8.836,9.376-14.289
			c0.23-2.904,0.282-5.896,1.047-8.73c0.732-2.725,2.236-4.634,2.505-7.447c0.327-3.435,3.645-8.226,2.536-11.636
			c-1.662-5.108-5.29,3.001-6.206,4.975c-1.212,2.616-2.992,2.374-3.867,5.57c-1.48,5.427-3.311,10.228-8.252,13.22
			c-4.172,2.524-10.607,4.92-13.261,9.154c-1.216,1.939-0.751,2.654-3.093,3.835c-2.262,1.14-7.597,4.436-2.682,6.481
			C209.127,375.508,212.671,372.269,215.355,374.319z"/>
		<path style="opacity:0.3;fill:#EAA422;" d="M251.738,328.42c-1.763-3.816-6.5-8.531-10.708-5.571
			c1.289,0.061,2.583,0.455,3.377,1.046c3.318,2.462,2.653,7.635,2.095,11.104c-1.017,6.347-3.311,12.561-3.365,19.035
			c-0.035,4.313,1.456,9.565-1.975,13.043c-1.085,1.1-2.388,1.918-3.567,2.909c-1.439,1.208-2.377,2.524-2.983,4.293
			c-0.995,2.921-1.695,6.105-3.572,8.642c-4.081,5.514-11.225,7.784-17.445,10.11c-2.773,1.035-5.472,1.741-8.298,0.392
			c-2.722-1.3-4.83-3.683-6.303-6.238c-0.753-1.306-1.348-2.683-1.745-4.107c-0.028,2.27,0.199,4.541,0.671,6.743
			c1.217,5.693,1.777,11.1,7.355,14.342c8.796,5.112,24.257,4.941,32.014-1.822c3.607-3.145,7.129-6.688,9.468-10.87
			c2.36-4.226,1.742-6.55,1.198-10.933c-1.142-9.234-0.101-21.432,1.919-30.544c0.387-1.741,0.901-3.525,1.402-5.33
			C252.773,339.272,254.166,333.685,251.738,328.42z"/>
		<path style="opacity:0.37;fill:#EAA422;" d="M249.345,352.573c-0.174,0.144-0.348,0.288-0.524,0.43
			c-1.083,0.882-2.175,1.786-3.071,2.858c-1.724,2.063-2.985,6.269-2.593,8.918c0.465,3.135,4.22,6.068,1.705,9.283
			c-1.423,1.822-6.19,0.585-6.493,3.465c-0.195,1.837,1.036,2.058-0.179,3.658c-0.717,0.944-1.557,1.969-2.802,1.793
			c-2.583-0.362-2.29-7.112-6.131-4.022c-1.548,1.242-0.329,3.167-1.371,4.579c-1.482,2.005-1.148-0.719-2.052-1.038
			c-1.806-0.64-3.144,3.411-5.189,2.828c-2.591-0.737-1.263-6.502-5.303-4.011c-1.365,0.842-1.124,2.698-1.919,3.942
			c-0.566,0.881-1.447,1.733-2.588,1.441c-0.65-0.165-0.923-0.94-1.592-1.119c-1.55-0.413-3.717,1.154-3.468-1.608
			c0.082-0.93,0.537-1.778,0.34-2.79c-0.265-1.351-0.578-1.161-1.651-1.457c-2.499-0.69-2.25-2.18-2.29-4.456
			c-0.018-0.982-1.893-4.834-1.656-5.269c-3.222,5.954-4.016,13.2-2.597,19.822c1.217,5.693,1.777,11.1,7.355,14.342
			c8.796,5.112,24.257,4.941,32.014-1.822c3.607-3.145,7.129-6.688,9.468-10.87c2.36-4.226,1.742-6.55,1.198-10.933
			C246.917,372.149,247.68,361.318,249.345,352.573z"/>
		<path style="opacity:0.59;fill:#EAA422;" d="M248.476,357.942c-0.36,1.545-0.536,3.113-0.792,4.678
			c-0.242,1.493-0.832,2.907-1.09,4.397c-0.677,3.904,1.101,7.703-0.353,11.561c-0.263,0.699-0.773,1.33-0.963,2.05
			c-0.169,0.641-0.145,1.301-0.268,1.949c-0.209,1.1-0.643,1.91-1.395,2.74c-0.648,0.714-1.526,1.613-1.721,2.586
			c-0.418,2.094-0.88,2.594-2.851,3.249c-1.388,0.463-1.965,0.666-2.566,2.001c-0.557,1.245-0.516,2.181-1.876,2.939
			c-1.334,0.746-2.872,0.66-3.889-0.54c-0.765-0.902-0.53-1.903-1.895-2.06c-1.198-0.137-2.111,0.937-2.719,1.721
			c-0.861,1.107-1.063,2.771-2.362,3.552c-1.099,0.657-2.318,0.393-3.586,0.439c-2.918,0.108-5.441,4.666-8.068,1.423
			c-0.772-0.954-0.7-1.973-1.308-2.898c-0.401-0.609-0.81-0.575-1.381-1.007c-1.489-1.123-1.552-1.996-1.937-3.669
			c-0.305-1.345-1.296-2.699-2.848-1.582c-1.054,0.758-1.301,3.743-3.323,1.778c-0.663-0.645-0.36-1.778-0.989-2.443
			c-0.204-0.214-2.363-0.939-2.257-0.421c1.143,5.483,1.845,10.643,7.237,13.777c8.796,5.112,24.257,4.941,32.014-1.822
			c3.607-3.145,7.129-6.688,9.468-10.87c2.36-4.226,1.742-6.55,1.198-10.933C247.123,373.799,247.452,365.486,248.476,357.942z"/>
		<path style="opacity:0.59;fill:#EAA422;" d="M212.372,379.716c0.585-0.459,0.808-0.04,1.054-1.011
			c0.185-0.734-0.188-1.87-0.775-2.352c-2.475-2.034-4.824,2.289-4.882,4.363C207.664,384.609,211.402,380.474,212.372,379.716z"/>
		<path style="opacity:0.59;fill:#EAA422;" d="M222.263,377.798c1.238,0.279,2.595-1.419,2.365-2.584
			C223.951,371.746,221.14,377.544,222.263,377.798z"/>
		<path style="opacity:0.59;fill:#EAA422;" d="M237.299,367.713c0.289-1.253,0.127-2.728-1.015-3.482
			c-1.952-1.289-3.861,1.65-3.107,3.403C234.034,369.628,236.728,370.187,237.299,367.713z"/>
		<path style="opacity:0.59;fill:#EAA422;" d="M212.478,391.12c-0.15,1.283,0,2.508,0.533,3.187c1.009,1.28,2.937,2.211,4.415,1.229
			c1.19-0.79,1.524-2.448,2.644-3.34c1.503-1.195,4.783-0.756,4.417-3.427c-0.317-2.321-3.34-1.4-4.645-0.586
			c-2.344,1.462-1.203-0.023-3.013-1.282C214.535,385.305,212.806,388.347,212.478,391.12z"/>
		<path style="opacity:0.59;fill:#EAA422;" d="M232.006,385.979c-1.655,0.81-0.785,2.431-0.681,3.714
			c0.064,0.835-0.014,0.563-0.129,1.165c-0.08,0.419-0.824,0.522-0.442,1.14c0.456,0.738,2.236,0.291,2.834-0.001
			C236.496,390.572,235.423,384.304,232.006,385.979z"/>
		<path style="opacity:0.3;fill:#EAA422;" d="M213.009,368.125c-0.218,0.803,0.118,1.49,1.352,1.572
			c1.808,0.12,3.09-1.393,4.72-1.879c1.527-0.454,2.578,0.073,2.233-2.648c-0.322-2.555-2.775-3.908-4.48-2.315
			c-1.125,1.053-1.658,2.634-2.776,3.679C213.534,367.021,213.152,367.598,213.009,368.125z"/>
		<path style="opacity:0.3;fill:#EAA422;" d="M201.432,368.446c0.888,1.013,3.173,2.43,4.173,2.432
			c3.264,0.007,5.049-5.03,6.225-7.308c0.629-1.222,1.613-2.86,1.099-4.342c-0.014-0.044-0.031-0.085-0.049-0.126
			c-2.059,0.966-4.074,1.978-5.83,3.285C204.769,364.085,202.902,366.148,201.432,368.446z"/>
		<path style="opacity:0.3;fill:#EAA422;" d="M226.579,371.966c0.458-0.031,0.745-0.527,1.294-0.522
			c0.171,0,0.232,0.728,0.575,0.698c1.879-0.166,3.621-2.447,2.35-4.318C228.193,363.99,219.882,372.435,226.579,371.966z"/>
		<path style="opacity:0.59;fill:#EAA422;" d="M236.831,377.653c0.582-1.303-0.528-4.138-2.433-2.876
			C232.504,376.03,235.469,380.701,236.831,377.653z"/>
		<path style="opacity:0.59;fill:#EAA422;" d="M240.097,323.638c-0.5,0.505-0.961,1.072-1.39,1.684
			c0.11,0.442,0.44,0.549,1.048,0.841c0.911,0.44,0.96-0.095,0.984,1.093c0.016,0.825-0.676,1.576-0.096,2.369
			c0.516,0.705,1.825,0.744,2.531,0.337c1.376-0.79,0.439-2.49,1.829-3.187c1.468-0.736,1.568,0.484,2.534,1.015
			c1.155,0.637,2.466,0.048,3.431-0.786C248.648,323.279,244.015,319.68,240.097,323.638z"/>
		<g>
			<path style="fill:#605B26;" d="M237.527,314.949c-0.19,0.722-0.117,1.592,0.232,2.243c0.5,0.93,1.432,0.932,2.259,1.41
				c0.902,0.522,1.921,1.096,2.432,2.035c0.719,1.324-1.221,4.077,0.812,4.672c1.134,0.331,2.766-0.685,2.876-1.851
				c0.221-2.321-0.819-4.752-2.311-6.497c-0.746-0.873-1.662-1.689-2.499-2.433C239.917,313.275,238.12,312.716,237.527,314.949z"/>
			<path style="fill:#7C742E;" d="M243.826,316.962c-0.178-0.207-0.366-0.41-0.559-0.61c0.591,0.817,1.104,1.685,1.515,2.479
				c0.599,1.153,1.482,3.055,0.401,4.119c-0.125,0.361-0.477,0.801-0.805,0.802c-0.538,0.003-1.179,0.427-1.679,0.294
				c-0.155-0.043-0.284-0.118-0.394-0.214c-0.024,0.68,0.162,1.246,0.956,1.48c1.134,0.331,2.766-0.685,2.876-1.851
				C246.358,321.138,245.318,318.707,243.826,316.962z"/>
			<path style="fill:#5A461B;" d="M242.45,320.637c0.007,0.014,0.014,0.03,0.021,0.044c0.011-0.225-0.04-0.447-0.193-0.658
				c-0.324-0.449-0.752-0.754-1.104-1.173c-0.307-0.366-0.632-0.847-0.404-1.256c0-0.054-0.004-0.107,0.002-0.163
				c0.018-0.189,0.162-0.29,0.348-0.261c0.226,0.035,0.43,0.086,0.63,0.149c-0.228-0.569-0.214-1.013,0.706-1.178
				c0.185-0.034,0.388-0.035,0.594-0.011c-0.561-0.563-1.156-1.1-1.723-1.602c-1.409-1.254-3.206-1.812-3.799,0.42
				c-0.19,0.722-0.117,1.592,0.232,2.243c0.5,0.93,1.432,0.932,2.259,1.41C240.92,319.124,241.939,319.698,242.45,320.637z"/>
		</g>
	</g>
	<g>
		<path style="fill:#F8D508;" d="M178.111,397.529c1.496-5.391,2.889-10.978,0.462-16.243c-1.893-4.1-7.223-9.244-11.642-4.782
			c-3.736,3.774-5.248,10.839-7.918,15.543c-2.74,4.828-5.549,10.656-9.651,14.391c-4.332,3.945-10.811,5.343-15.477,8.815
			c-8.458,6.293-11.246,17.56-9.132,27.433c1.217,5.693,1.777,11.1,7.355,14.342c8.796,5.112,24.257,4.941,32.014-1.822
			c3.607-3.145,7.129-6.688,9.468-10.87c2.36-4.226,1.742-6.55,1.198-10.933c-1.142-9.234-0.101-21.432,1.919-30.544
			C177.095,401.118,177.609,399.334,178.111,397.529z"/>
		<path style="opacity:0.54;fill:#FFF18C;" d="M142.19,427.185c0.077,0.059,0.153,0.123,0.228,0.191
			c3.377,3.03,2.504,2.08,5.882-0.829c2.747-2.366,3.56-0.873,6.739-0.481c7.74,0.955,8.937-8.836,9.376-14.289
			c0.23-2.904,0.282-5.896,1.047-8.73c0.732-2.725,2.236-4.634,2.505-7.447c0.327-3.435,3.645-8.226,2.536-11.636
			c-1.662-5.108-5.29,3.001-6.206,4.975c-1.212,2.616-2.992,2.374-3.867,5.57c-1.48,5.427-3.311,10.228-8.252,13.22
			c-4.171,2.525-10.607,4.92-13.261,9.154c-1.216,1.939-0.751,2.654-3.093,3.835c-2.262,1.14-7.597,4.436-2.682,6.482
			C135.961,428.374,139.506,425.135,142.19,427.185z"/>
		<path style="opacity:0.3;fill:#EAA422;" d="M178.573,381.286c-1.763-3.816-6.5-8.531-10.708-5.571
			c1.289,0.061,2.583,0.455,3.377,1.046c3.318,2.462,2.653,7.635,2.095,11.104c-1.017,6.347-3.311,12.561-3.365,19.035
			c-0.035,4.313,1.456,9.565-1.975,13.042c-1.085,1.1-2.388,1.918-3.567,2.91c-1.438,1.208-2.377,2.524-2.983,4.293
			c-0.995,2.922-1.695,6.105-3.572,8.642c-4.081,5.515-11.225,7.784-17.445,10.11c-2.773,1.035-5.473,1.741-8.298,0.392
			c-2.722-1.3-4.83-3.683-6.303-6.238c-0.752-1.306-1.348-2.683-1.745-4.106c-0.028,2.27,0.199,4.541,0.671,6.743
			c1.217,5.693,1.777,11.1,7.355,14.342c8.796,5.112,24.257,4.941,32.014-1.822c3.607-3.145,7.129-6.688,9.468-10.87
			c2.36-4.226,1.742-6.55,1.198-10.933c-1.142-9.234-0.101-21.432,1.919-30.544c0.387-1.741,0.901-3.525,1.402-5.33
			C179.607,392.138,181,386.551,178.573,381.286z"/>
		<path style="opacity:0.37;fill:#EAA422;" d="M176.179,405.439c-0.174,0.144-0.348,0.288-0.524,0.43
			c-1.083,0.882-2.175,1.786-3.071,2.858c-1.724,2.063-2.985,6.269-2.593,8.918c0.465,3.135,4.22,6.068,1.705,9.283
			c-1.423,1.822-6.19,0.585-6.493,3.465c-0.195,1.837,1.036,2.058-0.18,3.657c-0.717,0.944-1.557,1.969-2.802,1.793
			c-2.583-0.362-2.29-7.112-6.131-4.022c-1.548,1.242-0.329,3.166-1.371,4.579c-1.482,2.005-1.148-0.719-2.052-1.038
			c-1.806-0.64-3.144,3.411-5.189,2.828c-2.591-0.738-1.263-6.502-5.303-4.011c-1.365,0.842-1.124,2.698-1.919,3.943
			c-0.566,0.881-1.447,1.733-2.588,1.441c-0.65-0.165-0.923-0.94-1.592-1.118c-1.55-0.413-3.717,1.153-3.468-1.609
			c0.082-0.929,0.536-1.778,0.34-2.79c-0.265-1.351-0.578-1.161-1.651-1.457c-2.499-0.69-2.25-2.179-2.29-4.456
			c-0.018-0.982-1.893-4.834-1.656-5.269c-3.222,5.954-4.017,13.201-2.597,19.822c1.217,5.693,1.777,11.1,7.355,14.342
			c8.796,5.112,24.257,4.941,32.014-1.822c3.607-3.145,7.129-6.688,9.468-10.87c2.36-4.226,1.742-6.55,1.198-10.933
			C173.751,425.016,174.514,414.184,176.179,405.439z"/>
		<path style="opacity:0.59;fill:#EAA422;" d="M175.31,410.809c-0.36,1.545-0.536,3.113-0.792,4.678
			c-0.242,1.493-0.832,2.907-1.09,4.397c-0.677,3.904,1.101,7.703-0.354,11.561c-0.263,0.699-0.773,1.33-0.963,2.05
			c-0.169,0.641-0.145,1.301-0.268,1.948c-0.209,1.101-0.643,1.91-1.395,2.74c-0.648,0.714-1.526,1.614-1.721,2.586
			c-0.418,2.094-0.88,2.594-2.851,3.249c-1.388,0.463-1.965,0.666-2.566,2.001c-0.558,1.245-0.516,2.18-1.876,2.939
			c-1.334,0.746-2.872,0.66-3.889-0.54c-0.765-0.902-0.529-1.903-1.895-2.06c-1.198-0.137-2.111,0.937-2.719,1.721
			c-0.861,1.107-1.063,2.771-2.362,3.552c-1.099,0.657-2.318,0.393-3.586,0.44c-2.917,0.108-5.441,4.666-8.068,1.423
			c-0.772-0.954-0.7-1.973-1.308-2.898c-0.401-0.609-0.81-0.576-1.381-1.008c-1.489-1.123-1.552-1.996-1.937-3.668
			c-0.305-1.346-1.296-2.699-2.848-1.582c-1.054,0.758-1.301,3.743-3.323,1.778c-0.663-0.645-0.36-1.778-0.989-2.443
			c-0.204-0.214-2.363-0.939-2.257-0.421c1.143,5.483,1.845,10.643,7.237,13.777c8.796,5.112,24.257,4.941,32.014-1.822
			c3.607-3.145,7.129-6.688,9.468-10.87c2.36-4.226,1.742-6.55,1.198-10.933C173.957,426.665,174.286,418.352,175.31,410.809z"/>
		<path style="opacity:0.59;fill:#EAA422;" d="M139.206,432.582c0.585-0.459,0.808-0.04,1.054-1.011
			c0.185-0.734-0.188-1.871-0.775-2.352c-2.475-2.034-4.824,2.289-4.882,4.364C134.498,437.475,138.236,433.34,139.206,432.582z"/>
		<path style="opacity:0.59;fill:#EAA422;" d="M149.097,430.664c1.238,0.279,2.595-1.419,2.365-2.584
			C150.785,424.612,147.974,430.41,149.097,430.664z"/>
		<path style="opacity:0.59;fill:#EAA422;" d="M164.134,420.58c0.289-1.253,0.127-2.728-1.015-3.482
			c-1.953-1.289-3.862,1.65-3.107,3.403C160.868,422.493,163.562,423.053,164.134,420.58z"/>
		<path style="opacity:0.59;fill:#EAA422;" d="M139.313,443.986c-0.15,1.283,0,2.508,0.533,3.187
			c1.009,1.28,2.937,2.211,4.415,1.229c1.19-0.79,1.524-2.448,2.644-3.34c1.503-1.195,4.783-0.756,4.417-3.427
			c-0.317-2.322-3.341-1.4-4.645-0.586c-2.344,1.462-1.203-0.023-3.013-1.282C141.369,438.171,139.64,441.213,139.313,443.986z"/>
		<path style="opacity:0.59;fill:#EAA422;" d="M158.84,438.845c-1.654,0.81-0.785,2.431-0.681,3.714
			c0.064,0.835-0.014,0.563-0.129,1.165c-0.08,0.419-0.824,0.522-0.442,1.14c0.456,0.738,2.236,0.291,2.834-0.001
			C163.331,443.437,162.258,437.17,158.84,438.845z"/>
		<path style="opacity:0.3;fill:#EAA422;" d="M139.844,420.991c-0.218,0.803,0.118,1.49,1.351,1.572
			c1.808,0.12,3.09-1.393,4.72-1.879c1.527-0.454,2.578,0.073,2.233-2.648c-0.322-2.555-2.775-3.908-4.48-2.315
			c-1.125,1.053-1.658,2.635-2.776,3.679C140.368,419.887,139.987,420.464,139.844,420.991z"/>
		<path style="opacity:0.3;fill:#EAA422;" d="M128.267,421.312c0.888,1.013,3.173,2.43,4.173,2.432
			c3.264,0.007,5.049-5.03,6.225-7.308c0.629-1.222,1.613-2.86,1.099-4.342c-0.014-0.045-0.031-0.085-0.049-0.126
			c-2.059,0.966-4.074,1.978-5.83,3.285C131.604,416.951,129.737,419.014,128.267,421.312z"/>
		<path style="opacity:0.3;fill:#EAA422;" d="M153.413,424.832c0.458-0.031,0.745-0.527,1.294-0.522
			c0.171,0,0.232,0.728,0.575,0.698c1.879-0.166,3.621-2.447,2.35-4.318C155.028,416.856,146.717,425.302,153.413,424.832z"/>
		<path style="opacity:0.59;fill:#EAA422;" d="M163.665,430.52c0.582-1.303-0.528-4.138-2.433-2.876
			C159.339,428.896,162.303,433.567,163.665,430.52z"/>
		<path style="opacity:0.59;fill:#EAA422;" d="M166.931,376.504c-0.5,0.505-0.961,1.072-1.39,1.683
			c0.11,0.442,0.44,0.549,1.049,0.841c0.911,0.44,0.959-0.095,0.984,1.093c0.016,0.825-0.676,1.576-0.096,2.369
			c0.516,0.705,1.825,0.744,2.531,0.337c1.376-0.79,0.439-2.49,1.829-3.187c1.468-0.736,1.567,0.484,2.534,1.015
			c1.155,0.637,2.466,0.048,3.431-0.785C175.483,376.145,170.85,372.546,166.931,376.504z"/>
		<g>
			<path style="fill:#605B26;" d="M164.362,367.815c-0.19,0.722-0.117,1.592,0.232,2.244c0.5,0.93,1.432,0.932,2.259,1.409
				c0.902,0.522,1.921,1.096,2.432,2.035c0.719,1.324-1.221,4.077,0.812,4.672c1.134,0.331,2.766-0.685,2.876-1.851
				c0.221-2.321-0.819-4.752-2.311-6.497c-0.746-0.873-1.662-1.689-2.499-2.433C166.751,366.141,164.954,365.582,164.362,367.815z"
				/>
			<path style="fill:#7C742E;" d="M170.66,369.828c-0.178-0.207-0.366-0.41-0.559-0.61c0.591,0.817,1.104,1.684,1.515,2.478
				c0.599,1.153,1.482,3.055,0.401,4.119c-0.126,0.361-0.477,0.801-0.805,0.802c-0.538,0.003-1.179,0.427-1.679,0.294
				c-0.155-0.044-0.284-0.118-0.394-0.214c-0.024,0.68,0.162,1.247,0.956,1.48c1.134,0.331,2.766-0.685,2.876-1.851
				C173.192,374.004,172.152,371.573,170.66,369.828z"/>
			<path style="fill:#5A461B;" d="M169.284,373.503c0.007,0.015,0.014,0.03,0.021,0.045c0.011-0.225-0.04-0.447-0.193-0.658
				c-0.324-0.449-0.752-0.754-1.104-1.173c-0.307-0.366-0.632-0.847-0.404-1.256c0-0.054-0.003-0.107,0.002-0.163
				c0.017-0.188,0.162-0.29,0.348-0.261c0.226,0.035,0.43,0.086,0.631,0.149c-0.228-0.569-0.214-1.013,0.705-1.178
				c0.185-0.033,0.388-0.035,0.594-0.011c-0.561-0.563-1.156-1.101-1.723-1.601c-1.409-1.254-3.206-1.813-3.799,0.42
				c-0.19,0.722-0.117,1.592,0.232,2.244c0.5,0.93,1.432,0.932,2.259,1.409C167.755,371.991,168.774,372.565,169.284,373.503z"/>
		</g>
	</g>
	<g>
		<path style="fill:#F8D508;" d="M346.709,457.981c1.496-5.391,2.889-10.978,0.462-16.243c-1.893-4.101-7.223-9.244-11.642-4.782
			c-3.736,3.774-5.248,10.839-7.918,15.543c-2.74,4.828-5.549,10.656-9.651,14.391c-4.332,3.945-10.811,5.344-15.477,8.815
			c-8.458,6.293-11.246,17.561-9.132,27.433c1.217,5.693,1.777,11.1,7.355,14.342c8.796,5.112,24.257,4.941,32.014-1.822
			c3.607-3.145,7.129-6.688,9.468-10.87c2.36-4.226,1.742-6.55,1.198-10.933c-1.142-9.234-0.101-21.431,1.919-30.544
			C345.693,461.57,346.207,459.785,346.709,457.981z"/>
		<path style="opacity:0.54;fill:#FFF18C;" d="M310.788,487.636c0.077,0.059,0.153,0.123,0.228,0.191
			c3.377,3.03,2.504,2.08,5.882-0.829c2.747-2.366,3.56-0.873,6.739-0.481c7.74,0.955,8.937-8.835,9.376-14.289
			c0.23-2.904,0.282-5.896,1.047-8.73c0.732-2.725,2.236-4.634,2.505-7.447c0.327-3.435,3.645-8.226,2.536-11.636
			c-1.662-5.108-5.29,3.001-6.206,4.975c-1.212,2.616-2.992,2.374-3.867,5.57c-1.48,5.427-3.311,10.228-8.252,13.22
			c-4.171,2.524-10.607,4.92-13.261,9.154c-1.216,1.939-0.751,2.654-3.093,3.835c-2.262,1.141-7.597,4.436-2.682,6.482
			C304.56,488.825,308.104,485.586,310.788,487.636z"/>
		<path style="opacity:0.3;fill:#EAA422;" d="M347.171,441.737c-1.763-3.816-6.5-8.531-10.708-5.571
			c1.289,0.061,2.583,0.455,3.377,1.046c3.318,2.462,2.653,7.635,2.095,11.103c-1.017,6.347-3.311,12.561-3.365,19.035
			c-0.035,4.313,1.456,9.565-1.975,13.042c-1.085,1.1-2.388,1.918-3.567,2.91c-1.438,1.208-2.377,2.525-2.983,4.293
			c-0.995,2.922-1.695,6.105-3.572,8.642c-4.081,5.515-11.225,7.785-17.445,10.11c-2.773,1.035-5.473,1.741-8.298,0.392
			c-2.722-1.299-4.83-3.683-6.303-6.238c-0.752-1.305-1.348-2.683-1.745-4.106c-0.028,2.27,0.199,4.541,0.671,6.743
			c1.217,5.693,1.777,11.1,7.355,14.342c8.796,5.112,24.257,4.941,32.014-1.822c3.607-3.145,7.129-6.688,9.468-10.87
			c2.36-4.226,1.742-6.55,1.198-10.933c-1.142-9.234-0.101-21.431,1.919-30.544c0.387-1.741,0.901-3.525,1.402-5.33
			C348.205,452.589,349.598,447.002,347.171,441.737z"/>
		<path style="opacity:0.37;fill:#EAA422;" d="M344.777,465.89c-0.174,0.144-0.348,0.288-0.524,0.43
			c-1.083,0.882-2.175,1.786-3.071,2.858c-1.724,2.063-2.985,6.269-2.593,8.918c0.465,3.135,4.22,6.068,1.705,9.283
			c-1.423,1.822-6.19,0.585-6.493,3.465c-0.195,1.837,1.036,2.058-0.18,3.657c-0.717,0.944-1.557,1.969-2.802,1.793
			c-2.583-0.362-2.29-7.112-6.131-4.022c-1.548,1.242-0.329,3.166-1.371,4.579c-1.482,2.005-1.148-0.719-2.052-1.038
			c-1.806-0.64-3.144,3.411-5.189,2.828c-2.592-0.738-1.263-6.502-5.303-4.011c-1.365,0.842-1.124,2.698-1.919,3.943
			c-0.566,0.881-1.447,1.733-2.588,1.441c-0.65-0.165-0.923-0.94-1.592-1.118c-1.55-0.413-3.717,1.154-3.468-1.608
			c0.082-0.93,0.536-1.778,0.34-2.79c-0.265-1.351-0.578-1.161-1.651-1.457c-2.499-0.69-2.25-2.18-2.29-4.456
			c-0.018-0.982-1.893-4.834-1.656-5.269c-3.222,5.954-4.017,13.2-2.597,19.822c1.217,5.693,1.777,11.1,7.355,14.342
			c8.796,5.112,24.257,4.941,32.014-1.822c3.607-3.145,7.129-6.688,9.468-10.87c2.36-4.226,1.742-6.55,1.198-10.933
			C342.349,485.467,343.112,474.635,344.777,465.89z"/>
		<path style="opacity:0.59;fill:#EAA422;" d="M343.908,471.26c-0.36,1.545-0.536,3.113-0.792,4.678
			c-0.242,1.493-0.832,2.907-1.09,4.397c-0.677,3.904,1.101,7.703-0.354,11.561c-0.263,0.699-0.773,1.33-0.963,2.05
			c-0.169,0.641-0.145,1.301-0.268,1.948c-0.209,1.1-0.643,1.911-1.395,2.74c-0.648,0.714-1.526,1.614-1.721,2.586
			c-0.418,2.094-0.88,2.594-2.851,3.249c-1.388,0.464-1.965,0.666-2.566,2.001c-0.558,1.245-0.516,2.18-1.876,2.939
			c-1.334,0.746-2.872,0.66-3.889-0.54c-0.765-0.902-0.529-1.903-1.895-2.06c-1.198-0.138-2.111,0.937-2.719,1.721
			c-0.861,1.107-1.063,2.771-2.362,3.552c-1.099,0.657-2.318,0.393-3.586,0.44c-2.917,0.108-5.441,4.666-8.068,1.423
			c-0.772-0.954-0.7-1.973-1.308-2.898c-0.401-0.609-0.81-0.576-1.381-1.008c-1.489-1.123-1.552-1.996-1.937-3.668
			c-0.305-1.346-1.296-2.699-2.848-1.582c-1.054,0.758-1.301,3.743-3.323,1.778c-0.663-0.645-0.36-1.778-0.989-2.443
			c-0.204-0.214-2.363-0.939-2.257-0.421c1.143,5.483,1.845,10.643,7.237,13.777c8.796,5.112,24.257,4.941,32.014-1.822
			c3.607-3.145,7.129-6.688,9.468-10.87c2.36-4.226,1.742-6.55,1.198-10.933C342.555,487.116,342.884,478.803,343.908,471.26z"/>
		<path style="opacity:0.59;fill:#EAA422;" d="M307.804,493.033c0.585-0.459,0.808-0.04,1.054-1.011
			c0.185-0.734-0.188-1.87-0.775-2.352c-2.475-2.034-4.824,2.289-4.882,4.363C303.096,497.926,306.834,493.792,307.804,493.033z"/>
		<path style="opacity:0.59;fill:#EAA422;" d="M317.695,491.115c1.238,0.279,2.595-1.419,2.365-2.584
			C319.383,485.063,316.572,490.861,317.695,491.115z"/>
		<path style="opacity:0.59;fill:#EAA422;" d="M332.732,481.031c0.289-1.253,0.127-2.728-1.015-3.482
			c-1.953-1.289-3.862,1.65-3.107,3.403C329.466,482.945,332.16,483.504,332.732,481.031z"/>
		<path style="opacity:0.59;fill:#EAA422;" d="M307.911,504.437c-0.15,1.283,0,2.508,0.533,3.187c1.009,1.28,2.937,2.211,4.415,1.23
			c1.19-0.79,1.524-2.448,2.644-3.34c1.503-1.195,4.783-0.756,4.417-3.427c-0.317-2.322-3.341-1.4-4.645-0.586
			c-2.344,1.463-1.203-0.023-3.013-1.282C309.967,498.622,308.238,501.665,307.911,504.437z"/>
		<path style="opacity:0.59;fill:#EAA422;" d="M327.438,499.296c-1.654,0.81-0.785,2.432-0.681,3.714
			c0.064,0.835-0.014,0.563-0.129,1.165c-0.08,0.419-0.824,0.522-0.442,1.14c0.456,0.738,2.236,0.291,2.834-0.001
			C331.929,503.889,330.856,497.621,327.438,499.296z"/>
		<path style="opacity:0.3;fill:#EAA422;" d="M308.442,481.442c-0.218,0.803,0.118,1.49,1.351,1.572
			c1.808,0.12,3.09-1.393,4.72-1.879c1.527-0.454,2.578,0.073,2.233-2.648c-0.322-2.555-2.775-3.908-4.48-2.315
			c-1.125,1.053-1.658,2.635-2.776,3.679C308.966,480.338,308.585,480.915,308.442,481.442z"/>
		<path style="opacity:0.3;fill:#EAA422;" d="M296.865,481.763c0.888,1.012,3.173,2.43,4.173,2.432
			c3.264,0.007,5.049-5.03,6.225-7.308c0.629-1.222,1.613-2.86,1.099-4.342c-0.014-0.044-0.031-0.085-0.049-0.126
			c-2.059,0.966-4.074,1.978-5.829,3.285C300.202,477.402,298.335,479.465,296.865,481.763z"/>
		<path style="opacity:0.3;fill:#EAA422;" d="M322.012,485.283c0.458-0.031,0.745-0.527,1.294-0.522
			c0.171,0,0.232,0.728,0.575,0.698c1.879-0.166,3.621-2.447,2.35-4.318C323.626,477.307,315.315,485.753,322.012,485.283z"/>
		<path style="opacity:0.59;fill:#EAA422;" d="M332.263,490.971c0.582-1.303-0.528-4.138-2.433-2.876
			C327.937,489.347,330.901,494.019,332.263,490.971z"/>
		<path style="opacity:0.59;fill:#EAA422;" d="M335.529,436.956c-0.5,0.505-0.961,1.072-1.39,1.684
			c0.11,0.442,0.44,0.549,1.049,0.841c0.911,0.44,0.959-0.095,0.984,1.093c0.016,0.825-0.676,1.576-0.096,2.369
			c0.516,0.705,1.825,0.744,2.531,0.337c1.376-0.79,0.439-2.49,1.829-3.187c1.468-0.736,1.568,0.484,2.534,1.015
			c1.155,0.637,2.466,0.048,3.431-0.785C344.081,436.596,339.448,432.997,335.529,436.956z"/>
		<g>
			<path style="fill:#605B26;" d="M332.96,428.266c-0.19,0.722-0.117,1.592,0.232,2.244c0.5,0.93,1.432,0.932,2.259,1.41
				c0.902,0.522,1.921,1.096,2.432,2.036c0.719,1.324-1.221,4.077,0.812,4.672c1.134,0.331,2.766-0.685,2.876-1.851
				c0.221-2.321-0.819-4.752-2.311-6.497c-0.746-0.873-1.662-1.689-2.499-2.433C335.349,426.592,333.552,426.034,332.96,428.266z"/>
			<path style="fill:#7C742E;" d="M339.258,430.279c-0.178-0.207-0.366-0.41-0.559-0.61c0.591,0.817,1.104,1.685,1.515,2.478
				c0.599,1.153,1.482,3.055,0.401,4.119c-0.126,0.361-0.477,0.801-0.805,0.802c-0.538,0.003-1.179,0.427-1.679,0.294
				c-0.155-0.044-0.284-0.118-0.394-0.214c-0.024,0.681,0.162,1.246,0.956,1.48c1.134,0.331,2.766-0.685,2.876-1.851
				C341.79,434.455,340.75,432.024,339.258,430.279z"/>
			<path style="fill:#5A461B;" d="M337.882,433.955c0.007,0.014,0.014,0.03,0.021,0.044c0.011-0.225-0.04-0.447-0.193-0.658
				c-0.324-0.449-0.752-0.754-1.104-1.173c-0.306-0.366-0.632-0.847-0.404-1.256c0-0.054-0.003-0.107,0.002-0.163
				c0.017-0.189,0.162-0.29,0.348-0.261c0.226,0.035,0.43,0.086,0.631,0.149c-0.228-0.569-0.214-1.012,0.705-1.178
				c0.185-0.033,0.388-0.035,0.594-0.011c-0.561-0.563-1.156-1.101-1.723-1.602c-1.409-1.254-3.206-1.812-3.799,0.42
				c-0.19,0.722-0.117,1.592,0.232,2.244c0.5,0.93,1.432,0.932,2.259,1.41C336.353,432.442,337.372,433.016,337.882,433.955z"/>
		</g>
	</g>
	<g>
		<path style="fill:#F8D508;" d="M284.963,400.579c1.496-5.391,2.889-10.978,0.462-16.243c-1.893-4.1-7.223-9.244-11.641-4.782
			c-3.736,3.774-5.248,10.839-7.918,15.543c-2.74,4.828-5.549,10.656-9.651,14.391c-4.332,3.945-10.811,5.344-15.477,8.815
			c-8.458,6.293-11.246,17.56-9.132,27.433c1.217,5.693,1.777,11.1,7.355,14.342c8.796,5.112,24.257,4.941,32.014-1.822
			c3.607-3.145,7.129-6.688,9.468-10.87c2.36-4.226,1.742-6.55,1.198-10.933c-1.142-9.234-0.101-21.432,1.919-30.544
			C283.947,404.168,284.461,402.384,284.963,400.579z"/>
		<path style="opacity:0.54;fill:#FFF18C;" d="M249.042,430.235c0.077,0.059,0.153,0.123,0.228,0.191
			c3.377,3.03,2.505,2.08,5.882-0.829c2.747-2.366,3.56-0.873,6.739-0.481c7.74,0.955,8.937-8.836,9.375-14.289
			c0.23-2.904,0.282-5.896,1.047-8.73c0.732-2.725,2.236-4.634,2.504-7.447c0.328-3.435,3.646-8.226,2.536-11.636
			c-1.661-5.108-5.29,3.001-6.206,4.975c-1.212,2.616-2.992,2.374-3.867,5.57c-1.481,5.427-3.311,10.228-8.252,13.22
			c-4.171,2.525-10.607,4.92-13.261,9.154c-1.216,1.939-0.751,2.654-3.093,3.835c-2.263,1.14-7.597,4.436-2.682,6.482
			C242.813,431.424,246.358,428.185,249.042,430.235z"/>
		<path style="opacity:0.3;fill:#EAA422;" d="M285.424,384.336c-1.763-3.816-6.5-8.531-10.708-5.571
			c1.289,0.061,2.583,0.455,3.377,1.046c3.318,2.462,2.653,7.635,2.095,11.104c-1.017,6.347-3.311,12.561-3.365,19.035
			c-0.035,4.313,1.456,9.565-1.975,13.043c-1.085,1.1-2.388,1.918-3.567,2.91c-1.438,1.208-2.377,2.524-2.983,4.293
			c-0.995,2.922-1.695,6.105-3.572,8.642c-4.081,5.515-11.225,7.784-17.445,10.11c-2.773,1.035-5.472,1.741-8.298,0.392
			c-2.722-1.3-4.83-3.683-6.303-6.238c-0.753-1.306-1.348-2.683-1.745-4.106c-0.028,2.27,0.199,4.541,0.671,6.743
			c1.217,5.693,1.777,11.1,7.355,14.342c8.796,5.112,24.257,4.941,32.014-1.822c3.607-3.145,7.129-6.688,9.468-10.87
			c2.36-4.226,1.742-6.55,1.198-10.933c-1.142-9.234-0.101-21.432,1.919-30.544c0.387-1.741,0.9-3.525,1.402-5.33
			C286.459,395.188,287.852,389.601,285.424,384.336z"/>
		<path style="opacity:0.37;fill:#EAA422;" d="M283.031,408.489c-0.174,0.144-0.348,0.288-0.524,0.43
			c-1.083,0.882-2.176,1.786-3.071,2.858c-1.724,2.063-2.985,6.269-2.593,8.918c0.465,3.135,4.22,6.068,1.705,9.283
			c-1.423,1.822-6.19,0.585-6.493,3.465c-0.195,1.837,1.036,2.058-0.179,3.657c-0.717,0.944-1.557,1.968-2.802,1.793
			c-2.583-0.362-2.29-7.112-6.131-4.022c-1.548,1.242-0.329,3.166-1.371,4.579c-1.482,2.005-1.148-0.719-2.052-1.038
			c-1.806-0.64-3.144,3.411-5.189,2.828c-2.592-0.737-1.263-6.502-5.304-4.011c-1.365,0.842-1.123,2.698-1.919,3.943
			c-0.566,0.881-1.447,1.733-2.588,1.441c-0.65-0.165-0.923-0.94-1.592-1.118c-1.55-0.413-3.717,1.153-3.468-1.609
			c0.082-0.929,0.536-1.778,0.34-2.79c-0.265-1.351-0.578-1.161-1.651-1.457c-2.499-0.69-2.251-2.18-2.29-4.456
			c-0.018-0.982-1.893-4.834-1.656-5.269c-3.222,5.954-4.016,13.201-2.597,19.822c1.217,5.693,1.777,11.1,7.355,14.342
			c8.796,5.112,24.257,4.941,32.014-1.822c3.607-3.145,7.129-6.688,9.468-10.87c2.36-4.226,1.742-6.55,1.198-10.933
			C280.603,428.065,281.366,417.234,283.031,408.489z"/>
		<path style="opacity:0.59;fill:#EAA422;" d="M282.162,413.858c-0.36,1.545-0.536,3.113-0.792,4.678
			c-0.242,1.493-0.833,2.907-1.09,4.397c-0.677,3.904,1.101,7.703-0.354,11.561c-0.263,0.699-0.773,1.33-0.963,2.05
			c-0.169,0.641-0.145,1.301-0.268,1.948c-0.209,1.101-0.643,1.91-1.395,2.74c-0.648,0.714-1.526,1.614-1.721,2.586
			c-0.418,2.094-0.88,2.594-2.851,3.249c-1.388,0.464-1.965,0.666-2.565,2.001c-0.557,1.245-0.516,2.18-1.876,2.939
			c-1.334,0.746-2.872,0.66-3.889-0.54c-0.765-0.902-0.529-1.903-1.895-2.06c-1.198-0.138-2.111,0.937-2.719,1.721
			c-0.861,1.107-1.063,2.771-2.362,3.552c-1.099,0.657-2.318,0.393-3.586,0.44c-2.917,0.108-5.441,4.666-8.067,1.423
			c-0.772-0.954-0.7-1.973-1.308-2.898c-0.401-0.609-0.81-0.576-1.381-1.008c-1.489-1.123-1.552-1.996-1.937-3.668
			c-0.305-1.346-1.296-2.699-2.848-1.582c-1.054,0.758-1.301,3.743-3.323,1.778c-0.664-0.645-0.36-1.778-0.989-2.443
			c-0.204-0.214-2.364-0.939-2.258-0.421c1.143,5.483,1.845,10.643,7.237,13.777c8.796,5.112,24.257,4.941,32.014-1.822
			c3.607-3.145,7.129-6.688,9.468-10.87c2.36-4.226,1.742-6.55,1.198-10.933C280.808,429.715,281.138,421.402,282.162,413.858z"/>
		<path style="opacity:0.59;fill:#EAA422;" d="M246.058,435.632c0.585-0.459,0.808-0.04,1.054-1.011
			c0.185-0.734-0.188-1.871-0.775-2.352c-2.475-2.034-4.825,2.289-4.882,4.364C241.35,440.525,245.088,436.39,246.058,435.632z"/>
		<path style="opacity:0.59;fill:#EAA422;" d="M255.949,433.714c1.238,0.279,2.595-1.419,2.365-2.584
			C257.637,427.662,254.826,433.46,255.949,433.714z"/>
		<path style="opacity:0.59;fill:#EAA422;" d="M270.985,423.63c0.289-1.253,0.127-2.728-1.015-3.482
			c-1.953-1.289-3.861,1.65-3.107,3.403C267.72,425.543,270.414,426.103,270.985,423.63z"/>
		<path style="opacity:0.59;fill:#EAA422;" d="M246.164,447.036c-0.15,1.283,0,2.508,0.533,3.187
			c1.009,1.28,2.936,2.211,4.415,1.229c1.19-0.79,1.524-2.448,2.644-3.34c1.503-1.195,4.783-0.756,4.417-3.427
			c-0.317-2.322-3.341-1.4-4.645-0.586c-2.344,1.462-1.204-0.023-3.013-1.282C248.221,441.221,246.492,444.263,246.164,447.036z"/>
		<path style="opacity:0.59;fill:#EAA422;" d="M265.692,441.895c-1.655,0.81-0.785,2.431-0.681,3.714
			c0.064,0.835-0.014,0.563-0.129,1.165c-0.08,0.419-0.824,0.522-0.442,1.14c0.456,0.738,2.236,0.291,2.834-0.001
			C270.182,446.487,269.109,440.22,265.692,441.895z"/>
		<path style="opacity:0.3;fill:#EAA422;" d="M246.695,424.041c-0.218,0.803,0.118,1.49,1.352,1.572
			c1.808,0.12,3.09-1.393,4.72-1.879c1.527-0.454,2.578,0.073,2.233-2.648c-0.322-2.555-2.775-3.908-4.48-2.315
			c-1.125,1.053-1.658,2.635-2.776,3.679C247.22,422.937,246.838,423.514,246.695,424.041z"/>
		<path style="opacity:0.3;fill:#EAA422;" d="M235.118,424.362c0.888,1.013,3.173,2.43,4.173,2.432
			c3.264,0.007,5.049-5.03,6.225-7.308c0.629-1.222,1.613-2.86,1.099-4.342c-0.014-0.045-0.031-0.085-0.049-0.126
			c-2.059,0.966-4.074,1.978-5.83,3.285C238.455,420.001,236.588,422.064,235.118,424.362z"/>
		<path style="opacity:0.3;fill:#EAA422;" d="M260.265,427.882c0.458-0.031,0.745-0.527,1.294-0.522
			c0.171,0,0.232,0.728,0.575,0.698c1.879-0.166,3.621-2.447,2.35-4.318C261.88,419.906,253.568,428.352,260.265,427.882z"/>
		<path style="opacity:0.59;fill:#EAA422;" d="M270.517,433.57c0.582-1.303-0.528-4.138-2.433-2.876
			C266.19,431.946,269.155,436.617,270.517,433.57z"/>
		<path style="opacity:0.59;fill:#EAA422;" d="M273.783,379.554c-0.5,0.505-0.961,1.072-1.39,1.683
			c0.11,0.442,0.441,0.549,1.049,0.841c0.911,0.44,0.96-0.095,0.984,1.093c0.016,0.825-0.676,1.576-0.096,2.369
			c0.516,0.705,1.825,0.744,2.531,0.337c1.376-0.79,0.439-2.49,1.829-3.187c1.468-0.736,1.568,0.484,2.534,1.015
			c1.155,0.637,2.466,0.048,3.431-0.785C282.334,379.195,277.701,375.596,273.783,379.554z"/>
		<g>
			<path style="fill:#605B26;" d="M271.213,370.865c-0.19,0.722-0.117,1.592,0.232,2.243c0.5,0.93,1.432,0.932,2.259,1.41
				c0.902,0.522,1.921,1.096,2.431,2.035c0.719,1.324-1.221,4.077,0.812,4.672c1.134,0.331,2.766-0.685,2.876-1.851
				c0.221-2.321-0.819-4.752-2.311-6.497c-0.745-0.873-1.662-1.689-2.499-2.433C273.603,369.191,271.806,368.632,271.213,370.865z"
				/>
			<path style="fill:#7C742E;" d="M277.511,372.878c-0.177-0.207-0.366-0.41-0.559-0.61c0.591,0.817,1.104,1.684,1.515,2.478
				c0.599,1.153,1.482,3.055,0.4,4.119c-0.125,0.361-0.477,0.801-0.804,0.802c-0.538,0.003-1.179,0.427-1.679,0.294
				c-0.155-0.044-0.284-0.118-0.394-0.214c-0.024,0.68,0.162,1.247,0.956,1.48c1.134,0.331,2.766-0.685,2.876-1.851
				C280.044,377.054,279.004,374.623,277.511,372.878z"/>
			<path style="fill:#5A461B;" d="M276.135,376.553c0.007,0.015,0.014,0.03,0.021,0.045c0.011-0.225-0.04-0.447-0.193-0.658
				c-0.324-0.449-0.753-0.754-1.104-1.173c-0.307-0.366-0.632-0.847-0.404-1.256c0-0.054-0.004-0.107,0.002-0.163
				c0.018-0.188,0.162-0.29,0.348-0.261c0.226,0.035,0.43,0.086,0.63,0.149c-0.228-0.569-0.214-1.013,0.705-1.178
				c0.185-0.034,0.388-0.035,0.594-0.011c-0.561-0.563-1.157-1.101-1.723-1.602c-1.409-1.254-3.206-1.812-3.799,0.42
				c-0.19,0.722-0.117,1.592,0.232,2.243c0.5,0.93,1.432,0.932,2.259,1.41C274.606,375.041,275.625,375.614,276.135,376.553z"/>
		</g>
	</g>
</g>
</svg>
