<?xml version="1.0" encoding="iso-8859-1"?>
<!-- Generator: Adobe Illustrator 23.0.2, SVG Export Plug-In . SVG Version: 6.00 Build 0)  -->
<svg version="1.1" id="Layer_1" xmlns="http://www.w3.org/2000/svg" xmlns:xlink="http://www.w3.org/1999/xlink" x="0px" y="0px"
	 viewBox="0 0 595.276 841.89" style="enable-background:new 0 0 595.276 841.89;" xml:space="preserve">
<g>
	<path style="fill:#7E499D;" d="M141.293,357.697c-1.325-7.292-3.705-12.466-7.044-12.466c-2.47,0-4.208,3.392-4.208,8.226
		c0,5.087,2.562,8.056,5.626,10.261c5.169,3.816,8.692,8.31,8.692,17.044c0,11.616-5.764,17.384-11.39,17.384
		c-3.523,0-6.723-2.289-7.867-4.07c-0.457-1.611-1.098-10.345-1.189-15.262l1.875-0.51c1.28,8.31,4.345,15.686,8.371,15.686
		c2.47,0,4.667-3.476,4.667-8.394c0-5.087-1.784-7.886-5.262-10.769c-3.934-3.306-8.646-7.546-8.646-17.378
		c0-8.82,4.117-16.28,10.521-16.28c2.928,0,4.758,1.101,6.129,2.205c0.595,2.712,1.419,10.345,1.556,13.314L141.293,357.697z"/>
	<path style="fill:#7E499D;" d="M148.345,396.702v-3.306c4.253-0.764,4.758-1.528,4.758-10.175v-24.93
		c0-7.803-0.229-8.394-4.253-9.668v-2.969c3.659-1.101,7.09-2.545,10.156-4.747v42.308c0,8.564,0.457,9.244,4.803,10.175v3.306
		h-15.462v0.005H148.345z M151.912,323.952c0-3.986,1.739-6.952,3.751-6.952c2.014,0,3.568,2.969,3.568,6.952
		c0,3.563-1.555,6.699-3.659,6.699C153.651,330.651,151.912,327.512,151.912,323.952z"/>
	<path style="fill:#7E499D;" d="M182.563,396.702v-3.306c2.837-0.764,3.43-1.781,2.287-5.087l-4.942-13.991
		c-1.509,4.24-3.064,8.82-4.253,12.634c-1.325,4.07-1.144,5.428,2.241,6.445v3.306h-12.762v-3.306
		c4.208-1.101,4.986-2.119,7.64-8.056c1.966-4.324,3.75-9.157,5.809-14.585l-5.992-16.868c-2.059-5.935-2.881-7.039-6.678-7.97
		v-3.306h14.135v3.306c-2.881,0.764-3.112,1.865-1.875,5.341l3.889,11.02c1.372-3.9,2.744-7.546,3.842-11.279
		c1.235-3.73,0.731-4.324-2.197-5.087v-3.306h12.627v3.306c-4.208,0.934-5.032,1.528-7.549,6.615
		c-1.419,2.882-3.019,7.209-5.353,13.144l6.817,18.571c2.471,6.785,3.384,8.056,7.411,9.152v3.306h-15.096L182.563,396.702
		L182.563,396.702z"/>
	<path style="fill:#7E499D;" d="M213.266,396.448c-1.235,1.271-2.287,1.695-2.883,1.695c-4.528,0-7.044-4.747-7.044-14.755v-35.61
		h-4.621l-0.32-1.441l1.875-3.73h3.064v-8.987l4.987-8.645l0.914,0.34v17.297h7.593c0.686,1.358,0.456,4.07-0.458,5.174h-7.137
		v31.286c0,10.005,2.333,11.702,4.026,11.702c1.6,0,3.11-1.188,4.117-2.119l0.595,3.392L213.266,396.448z"/>
	<path style="fill:#7E499D;" d="M245.702,385.679c-4.392,10.261-9.286,12.466-11.481,12.466c-8.371,0-13.311-12.466-13.311-26.287
		c0-8.226,1.6-15.686,4.346-21.2c2.928-5.935,6.633-9.497,10.246-9.497h0.045c5.81,0,10.429,9.244,10.429,19.079
		c0,2.375-0.366,3.476-1.6,3.986c-1.235,0.34-9.745,1.611-17.612,2.119c0.136,16.026,5.214,22.811,9.926,22.811
		c2.789,0,5.398-1.951,7.867-6.191L245.702,385.679z M233.9,345.83c-2.928,0-5.856,4.834-6.817,15.173c3.614,0,7.228,0,11.025-0.254
		c1.189-0.084,1.6-0.764,1.6-2.375c0-6.529-2.195-12.55-5.764-12.55H233.9L233.9,345.83L233.9,345.83z"/>
	<path style="fill:#7E499D;" d="M274.893,385.679c-4.392,10.261-9.286,12.466-11.481,12.466c-8.371,0-13.311-12.466-13.311-26.287
		c0-8.226,1.6-15.686,4.346-21.2c2.928-5.935,6.633-9.497,10.246-9.497h0.045c5.81,0,10.429,9.244,10.429,19.079
		c0,2.375-0.366,3.476-1.6,3.986c-1.235,0.34-9.745,1.611-17.612,2.119c0.136,16.026,5.214,22.811,9.926,22.811
		c2.789,0,5.398-1.951,7.867-6.191L274.893,385.679z M263.09,345.83c-2.928,0-5.856,4.834-6.817,15.173
		c3.614,0,7.228,0,11.025-0.254c1.189-0.084,1.6-0.764,1.6-2.375c0-6.529-2.195-12.55-5.764-12.55h-0.045L263.09,345.83
		L263.09,345.83z"/>
	<path style="fill:#7E499D;" d="M298.457,396.702v-3.306c3.889-0.764,4.345-1.781,4.345-10.51v-20.182
		c0-8.65-1.875-13.821-6.039-13.821c-2.561,0-5.078,2.969-7.137,6.105v28.662c0,8.48,0.366,8.987,4.3,9.751v3.306H278.83v-3.306
		c4.528-1.018,4.894-1.611,4.894-9.921v-24.93c0-8.056-0.457-8.564-4.026-9.751v-3.136c3.248-0.934,6.771-2.545,9.926-4.917v10.005
		c1.373-1.865,2.836-3.816,4.574-5.935c1.92-2.289,3.614-3.646,5.628-3.646c5.397,0,8.828,7.039,8.828,19.33v23.149
		c0,8.48,0.412,8.82,4.346,9.751v3.306L298.457,396.702L298.457,396.702z"/>
</g>
</svg>
