<?xml version="1.0" encoding="iso-8859-1"?>
<!-- Generator: Adobe Illustrator 23.0.2, SVG Export Plug-In . SVG Version: 6.00 Build 0)  -->
<svg version="1.1" id="Layer_1" xmlns="http://www.w3.org/2000/svg" xmlns:xlink="http://www.w3.org/1999/xlink" x="0px" y="0px"
	 viewBox="0 0 595.276 841.89" style="enable-background:new 0 0 595.276 841.89;" xml:space="preserve">
<g>
	<path style="fill:#7E499D;" d="M242.375,318.199c8.098-7.967,17.414-11.94,27.962-11.94c10.545,0,18.791,3.169,24.743,9.508
		c5.945,6.337,8.921,15.108,8.921,26.308c0,14.88-4.448,27.601-13.34,38.142c-8.892,10.529-19.773,15.805-32.647,15.805
		c-12.878,0-22.72-5.527-29.526-16.577c-6.806-11.056-10.209-24.909-10.209-41.577c0-16.65,1.931-31.58,5.793-44.772
		c3.865-13.198,10.146-24.172,18.854-32.937c8.705-8.777,19.067-13.16,31.093-13.16c7.841,0,14.407,2.098,19.678,6.302
		c5.274,4.204,7.911,10.357,7.911,18.47c0,5.743-1.656,10.351-4.967,13.821c-3.311,3.455-6.93,5.199-10.855,5.199
		c-3.929,0-6.869-0.366-8.832-1.121c0.858-2.94,1.292-5.743,1.292-8.394c0-8.988-3.618-13.487-10.855-13.487
		c-5.644,0-10.912,2.142-15.822,6.401c-2.7,5.009-4.904,11.84-6.626,20.459C243.233,303.275,242.375,311.119,242.375,318.199z
		 M241.824,336.982c0,25.509,6.255,38.259,18.766,38.259c5.638,0,10.209-2.575,13.704-7.738c3.495-5.164,5.242-11.314,5.242-18.47
		c0-7.144-1.44-12.826-4.321-17.022c-2.884-4.195-7.082-6.302-12.606-6.302C254.762,325.715,247.832,329.478,241.824,336.982z"/>
</g>
<g>
	<path style="fill:#7E499D;" d="M157.33,287.983c6.151-3.084,12.742-8.461,19.773-16.118c3.403-3.762,6.594-6.984,9.557-9.669
		c2.966-2.686,6.616-4.034,10.959-4.034c4.34,0,8.044,0.942,11.124,2.817c-2.637,25.521-3.957,49.432-3.957,71.723
		c0,22.302,0.985,41.504,2.966,57.627c-3.074,1.609-6.648,2.414-10.713,2.414c-4.065,0-7.36-1.609-9.886-4.833
		c-2.526-3.224-3.786-7.557-3.786-12.999s0.877-16.887,2.637-34.353c1.751-17.455,2.691-36.395,2.802-56.817
		c-1.209,1.349-3.238,4.029-6.094,8.06c-6.372,8.999-11.346,13.499-14.913,13.499c-3.571,0-6.208-1.609-7.911-4.839
		C158.178,297.254,157.33,293.094,157.33,287.983z"/>
</g>
</svg>
