<svg version="1.2" xmlns="http://www.w3.org/2000/svg" viewBox="0 0 193 56" width="193" height="56"><style>.a{fill:#868686}</style><path class="a" d="m9.9 53.3q-4.4-2.4-6.7-6.9-2.3-4.6-2.3-11v-15q0-6.4 2.3-11 2.3-4.5 6.7-6.9 4.5-2.4 10.7-2.4 5.1 0 9.1 2.2 4.1 2.2 6.7 6.4 2.7 4.2 3.7 10.2h-10.7q-0.6-2.7-1.8-4.6-1.3-1.9-3-2.9-1.8-1-4-1-2.9 0-4.9 1.1-2.1 1.2-3.1 3.5-1.1 2.2-1.1 5.4v15q0 3.1 1.1 5.4 1 2.2 3.1 3.4 2 1.2 4.9 1.2 2.2 0 4-1 1.8-1 3-2.9 1.3-1.9 1.8-4.6h10.7q-1.1 5.9-3.7 10.1-2.7 4.2-6.7 6.4-4 2.3-9.1 2.3-6.2 0-10.7-2.4z"/><path class="a" d="m48.1 0.7h10.3v10.2h-10.3zm0 15.6h10.3v38.8h-10.3z"/><path class="a" d="m67.9 16.2h11v38.9h-11zm20 9.7q-1-0.4-2.5-0.4-3.1 0-4.8 2-1.7 2-1.7 5.6l-0.8-10.1q1.6-3.5 4.2-5.4 2.6-2 5.6-2 2.5 0 4.4 0.8 2 0.8 3.5 2.3l-6 8.3q-0.8-0.7-1.9-1.1z"/><path class="a" d="m106.8 53.5q-3.9-2.1-6-6.1-2-4.1-2-9.8v-4.1q0-5.7 2-9.6 2.1-4 6-6.1 4-2.1 9.5-2.1 3.2 0 6 0.7 2.9 0.7 5.1 2.1 2.2 1.4 3.7 3.4l-6.6 6.4q-1.4-1.3-3.3-2-1.9-0.7-4-0.7-3.9 0-6 2-2.2 2.1-2.2 5.9v4.1q0 3.9 2.2 6.1 2.1 2.1 6 2.1 2.1 0 4-0.8 1.9-0.8 3.3-2.3l6.6 6.9q-1.5 1.9-3.7 3.3-2.3 1.3-5.1 2-2.8 0.8-6 0.8-5.5 0-9.5-2.2z"/><path class="a" d="m148.3 42.3q0 1.4 0.8 2.1 0.8 0.8 2.3 0.8h1.8v9.9h-5.3q-4.7 0-7.2-2.7-2.6-2.7-2.6-7.6v-44.1h10.2z"/><path class="a" d="m167.3 53.6q-4-2-6.1-5.9-2.1-4-2.1-9.5v-4.3q0-5.8 2-9.9 2.1-4.1 5.9-6.2 3.8-2.1 9.3-2.1 5 0 8.7 2.5 3.6 2.6 5.5 7.4 1.9 4.9 1.9 11.7v2.6h-26.6v-7h17.2l-0.1-0.9q-0.4-3.3-2.1-5.2-1.7-1.8-4.5-1.8-3.8 0-5.8 2.2-2 2.2-2 6.3v4.9q0 4 2.2 6.1 2.2 2.2 6.2 2.2 2.1 0 4.1-0.7 2-0.8 3.7-2.1l6.7 6q-3.1 2.7-6.8 4.2-3.8 1.6-7.7 1.6-5.6 0-9.6-2.1z"/></svg>