<svg version="1.2" xmlns="http://www.w3.org/2000/svg" viewBox="0 0 183 55" width="183" height="55"><style>.a{fill:#868686}</style><path class="a" d="m0.9 0.1h10.2v54.4h-10.2zm4.7 22.5h31.7v9.9h-31.7zm25.1-22.5h10.2v54.4h-10.2z"/><path class="a" d="m59.2 53q-4-2-6.1-5.9-2.1-3.9-2.1-9.4v-4.4q0-5.8 2-9.9 2-4 5.9-6.2 3.8-2.1 9.2-2.1 5.1 0 8.8 2.5 3.6 2.6 5.5 7.4 1.9 4.9 1.9 11.7v2.6h-26.6v-6.9h17.2l-0.1-0.9q-0.4-3.4-2.1-5.3-1.7-1.8-4.6-1.8-3.7 0-5.7 2.2-2.1 2.2-2.1 6.3v4.9q0 4 2.3 6.2 2.2 2.1 6.2 2.1 2.1 0 4.1-0.7 2-0.7 3.7-2.1l6.7 6q-3.1 2.7-6.9 4.3-3.7 1.5-7.6 1.5-5.6 0-9.6-2.1z"/><path class="a" d="m94.5 52.1q-3.1-3-3.1-9 0-5.8 3.4-8.7 3.5-2.9 10.4-2.9h9.8l0.5 7.9h-10.2q-2.4 0-3.5 0.9-1.2 0.9-1.2 2.8 0 1.9 1.5 2.8 1.4 0.9 4.4 0.9 4.1 0 6.1-0.9 2-1 2-3l0.8 5.7q-0.2 2.1-1.9 3.6-1.7 1.4-4.3 2.1-2.5 0.8-5.4 0.8-6.2 0-9.3-3zm20.1-22.2q0-2.7-1.8-4.2-1.8-1.4-5.1-1.4-2.1 0-4.3 0.7-2.1 0.7-3.7 2l-6.4-6.3q2.3-2.6 6.1-4.1 3.8-1.5 8.5-1.5 5.1 0 8.7 1.7 3.6 1.7 5.5 4.9 1.8 3.3 1.8 7.8v25h-9.3z"/><path class="a" d="m134.1 15.7h11v38.8h-11zm20 9.7q-1.1-0.4-2.5-0.4-3.1 0-4.8 2-1.7 2-1.7 5.6l-0.8-10.1q1.6-3.5 4.1-5.4 2.6-1.9 5.7-1.9 2.4 0 4.4 0.7 1.9 0.8 3.4 2.3l-6 8.3q-0.7-0.7-1.8-1.1z"/><path class="a" d="m163.8 15.7h19v8.7h-19zm6.4 36.5q-2.4-2.6-2.4-7.7v-40.1h10.2v37.5q0 1.4 0.6 2.2 0.6 0.8 1.6 0.8h2.6v9.9h-5.2q-5.1 0-7.4-2.6z"/></svg>