<svg version="1.2" xmlns="http://www.w3.org/2000/svg" viewBox="0 0 126 56" width="126" height="56"><style>.a{fill:#868686}</style><path class="a" d="m1 0.2h10.3v54.4h-10.3zm6.2 33.2l21.8-33.2h12.9l-33.4 46.5zm9-6.3l8.9-5.6 19.1 33.2h-12.2z"/><path class="a" d="m48.9 0.2h10.2v10.2h-10.2zm0 15.6h10.2v38.9h-10.2z"/><path class="a" d="m65.7 15.8h19v8.7h-19zm6.4 36.5q-2.4-2.6-2.4-7.7v-40.1h10.2v37.5q0 1.4 0.6 2.2 0.6 0.8 1.7 0.8h2.5v9.9h-5.2q-5.1 0-7.4-2.6z"/><path class="a" d="m100.7 53.1q-3.9-2-6-5.9-2.1-3.9-2.1-9.4v-4.4q0-5.8 2-9.9 2-4 5.8-6.2 3.8-2.1 9.3-2.1 5.1 0 8.7 2.5 3.6 2.6 5.5 7.4 1.9 4.9 1.9 11.7v2.6h-26.6v-6.9h17.2l-0.1-0.9q-0.4-3.4-2.1-5.3-1.7-1.8-4.5-1.8-3.7 0-5.8 2.2-2 2.2-2 6.3v4.9q0 4 2.2 6.2 2.2 2.1 6.2 2.1 2.1 0 4.1-0.7 2-0.7 3.7-2.1l6.7 6q-3 2.7-6.8 4.3-3.8 1.5-7.7 1.5-5.6 0-9.6-2.1z"/></svg>