<svg version="1.2" xmlns="http://www.w3.org/2000/svg" viewBox="0 0 270 72" width="270" height="72"><style>.a{fill:#868686}</style><path fill-rule="evenodd" class="a" d="m9.8 53.7q-4.5-2.5-6.9-7.1-2.5-4.5-2.5-10.5v-15.4q0-6 2.5-10.6 2.4-4.5 6.9-7 4.5-2.5 10.5-2.5 5.9 0 10.4 2.5 4.5 2.5 7 7 2.4 4.6 2.4 10.6v15.4q0 6-2.4 10.5-2.5 4.6-7 7.1-4.5 2.5-10.4 2.5-6 0-10.5-2.5zm15.3-9q2.1-1.1 3.3-3.3 1.1-2.2 1.1-5v-16q0-2.8-1.1-5-1.2-2.2-3.3-3.3-2.1-1.2-4.8-1.2-2.8 0-4.9 1.2-2.1 1.1-3.2 3.3-1.2 2.2-1.2 5v16q0 2.8 1.2 5 1.1 2.2 3.2 3.3 2.1 1.2 4.9 1.2 2.7 0 4.8-1.2z"/><path class="a" d="m57.2 54.1q-4-2.2-6-6.2-2.1-4-2.1-9.7v-4.2q0-5.6 2.1-9.6 2-4 6-6.1 3.9-2.1 9.5-2.1 3.2 0 6 0.7 2.8 0.8 5.1 2.1 2.2 1.4 3.7 3.4l-6.6 6.4q-1.4-1.3-3.4-2-1.9-0.7-4-0.7-3.9 0-6 2.1-2.1 2-2.1 5.8v4.2q0 3.9 2.1 6 2.1 2.1 6 2.1 2.2 0 4.1-0.8 1.9-0.8 3.3-2.2l6.6 6.8q-1.5 1.9-3.8 3.3-2.2 1.4-5 2.1-2.8 0.7-6 0.7-5.6 0-9.5-2.1z"/><path class="a" d="m85.4 16.8h19v8.7h-19zm6.4 36.5q-2.4-2.6-2.4-7.7v-40.1h10.3v37.5q0 1.4 0.6 2.2 0.5 0.8 1.6 0.8h2.5v9.9h-5.1q-5.1 0-7.5-2.6z"/><path class="a" d="m114.6 53.2q-3-3-3-9 0-5.8 3.4-8.7 3.5-2.9 10.4-2.9h9.7l0.6 7.9h-10.3q-2.3 0-3.4 0.9-1.2 0.9-1.2 2.8 0 1.9 1.5 2.8 1.4 0.9 4.4 0.9 4.1 0 6.1-0.9 2-1 2-3l0.8 5.7q-0.2 2.1-1.9 3.6-1.7 1.4-4.3 2.1-2.6 0.8-5.4 0.8-6.3 0-9.4-3zm20.2-22.2q0-2.7-1.8-4.2-1.8-1.4-5.1-1.4-2.2 0-4.3 0.7-2.1 0.7-3.8 2l-6.3-6.3q2.3-2.6 6.1-4.1 3.8-1.5 8.5-1.5 5.1 0 8.7 1.7 3.5 1.7 5.4 4.9 1.9 3.3 1.9 7.8v25h-9.3z"/><path class="a" d="m159.1 54.2q-2.9-2-4.5-5.8-1.5-3.7-1.5-9v-6.2q0-5.4 1.5-9.2 1.6-3.8 4.5-5.8 3-2 7.1-2 3.1 0 5.6 1.8 2.6 1.9 4.2 5.3l-0.8 8.6q0-2-0.7-3.4-0.6-1.3-1.9-2.1-1.3-0.7-3.2-0.7-2.8 0-4.4 2-1.6 1.9-1.6 5.5v6.2q0 3.4 1.6 5.4 1.6 1.9 4.4 1.9 1.9 0 3.2-0.7 1.3-0.8 1.9-2.1 0.7-1.4 0.7-3.3l0.5 8.9q-1.2 3.2-3.6 4.9-2.5 1.8-5.9 1.8-4.1 0-7.1-2zm0.6 15.6q-3.6-1.6-5.7-4.6l6.9-6.3q1.3 1.4 3.2 2.2 1.8 0.7 3.8 0.7 3.2 0 5.3-1.7 2-1.8 2-4.9v-38.4h10.3v37.7q0 5.3-2.1 9.1-2 3.8-5.9 5.8-3.9 2-9.5 2-4.6 0-8.3-1.6z"/><path fill-rule="evenodd" class="a" d="m202.1 54.2q-3.7-2-5.7-5.8-2-3.8-2-9.1v-6.4q0-5.3 2-9 2-3.8 5.7-5.7 3.8-2 9.1-2 5.3 0 9.1 2 3.8 1.9 5.7 5.7 2 3.7 2 9v6.5q0 5.3-2 9-1.9 3.8-5.7 5.8-3.8 2-9.1 2-5.3 0-9.1-2zm13.9-9.7q1.7-1.8 1.7-5.1v-6.5q0-3.2-1.7-5-1.7-1.8-4.8-1.8-3.1 0-4.8 1.8-1.7 1.8-1.7 5v6.5q0 3.3 1.7 5.1 1.7 1.8 4.8 1.8 3.1 0 4.8-1.8z"/><path class="a" d="m237.3 16.8h10.3v38.8h-10.3zm22.5 15.3q0-2.8-1.6-4.4-1.7-1.6-4.7-1.6-2.8 0-4.3 1.6-1.6 1.6-1.6 4.5l-0.8-8.6q1.8-3.7 4.2-5.5 2.5-1.9 6.2-1.9 6.1 0.1 9.5 4.2 3.4 4.1 3.4 11.7v23.6h-10.3z"/></svg>