<svg version="1.2" xmlns="http://www.w3.org/2000/svg" viewBox="0 0 310 71" width="310" height="71"><style>.a{fill:#868686}</style><path class="a" d="m0 0.1h10.3v54.4h-10.3zm4.7 23.4h17.4q1.8 0 3.3-0.8 1.4-0.8 2.1-2.4 0.8-1.5 0.8-3.5 0-2-0.7-3.6-0.8-1.5-2.2-2.4-1.4-0.8-3.3-0.8h-17.4v-9.9h17.2q5 0 8.9 2.1 3.9 2.1 6 5.8 2.2 3.8 2.2 8.8 0 5-2.2 8.8-2.1 3.7-6 5.8-3.9 2-8.9 2h-17.2z"/><path class="a" d="m50.7 53q-4-2-6.1-5.9-2.1-3.9-2.1-9.4v-4.4q0-5.8 2-9.9 2-4 5.9-6.2 3.8-2.1 9.2-2.1 5.1 0 8.7 2.5 3.7 2.6 5.6 7.4 1.9 4.9 1.9 11.7v2.6h-26.6v-6.9h17.2l-0.1-0.9q-0.4-3.4-2.1-5.3-1.7-1.8-4.6-1.8-3.7 0-5.7 2.2-2.1 2.2-2.1 6.3v4.9q0 4 2.3 6.2 2.2 2.1 6.2 2.1 2.1 0 4.1-0.7 2-0.7 3.6-2.1l6.7 6q-3 2.7-6.8 4.3-3.7 1.5-7.6 1.5-5.6 0-9.6-2.1z"/><path class="a" d="m84.7 15.7h10.3v38.8h-10.3zm22.5 15.3q0-2.8-1.6-4.4-1.7-1.6-4.6-1.6-2.9 0-4.4 1.6-1.6 1.6-1.6 4.5l-0.8-8.6q1.8-3.7 4.2-5.5 2.5-1.8 6.2-1.8 6.1 0 9.5 4.1 3.4 4.1 3.4 11.7v23.6h-10.3z"/><path class="a" d="m124.6 15.7h19v8.7h-19zm6.4 36.5q-2.4-2.6-2.4-7.7v-40.1h10.2v37.5q0 1.4 0.6 2.2 0.6 0.8 1.6 0.8h2.6v9.9h-5.2q-5.1 0-7.4-2.6z"/><path class="a" d="m153.8 52.1q-3.1-3-3.1-9 0-5.8 3.5-8.7 3.4-2.9 10.4-2.9h9.7l0.5 7.9h-10.2q-2.3 0-3.5 0.9-1.2 0.9-1.2 2.8 0 1.9 1.5 2.8 1.5 0.9 4.4 0.9 4.1 0 6.1-0.9 2-1 2-3l0.8 5.7q-0.2 2.1-1.9 3.6-1.7 1.4-4.3 2.1-2.5 0.8-5.4 0.8-6.2 0-9.3-3zm20.1-22.2q0-2.7-1.7-4.2-1.8-1.4-5.1-1.4-2.2 0-4.3 0.7-2.2 0.7-3.8 2l-6.4-6.3q2.3-2.6 6.1-4.1 3.9-1.5 8.5-1.5 5.1 0 8.7 1.7 3.6 1.7 5.5 4.9 1.9 3.3 1.9 7.8v25h-9.4z"/><path class="a" d="m198.3 53.1q-3-2-4.5-5.8-1.5-3.7-1.5-9v-6.2q0-5.4 1.5-9.2 1.5-3.8 4.5-5.8 2.9-2 7-2 3.1 0 5.7 1.8 2.6 1.9 4.1 5.3l-0.8 8.6q0-2-0.6-3.4-0.7-1.3-2-2.1-1.3-0.7-3.1-0.7-2.9 0-4.5 2-1.6 1.9-1.6 5.5v6.2q0 3.4 1.6 5.4 1.6 1.9 4.5 1.9 1.8 0 3.1-0.7 1.3-0.8 2-2.1 0.6-1.4 0.6-3.3l0.6 8.9q-1.2 3.2-3.7 4.9-2.5 1.8-5.9 1.8-4.1 0-7-2zm0.6 15.6q-3.7-1.6-5.7-4.6l6.9-6.3q1.3 1.4 3.1 2.2 1.9 0.7 3.8 0.7 3.3 0 5.3-1.7 2-1.8 2-4.9v-38.4h10.3v37.7q0 5.3-2 9.1-2.1 3.8-6 5.8-3.9 2-9.4 2-4.7 0-8.3-1.6z"/><path fill-rule="evenodd" class="a" d="m241.3 53.1q-3.8-2-5.8-5.8-1.9-3.8-1.9-9.1v-6.4q0-5.3 1.9-9 2-3.8 5.8-5.7 3.7-2 9.1-2 5.3 0 9 2 3.8 1.9 5.8 5.7 1.9 3.7 1.9 9v6.5q0 5.3-1.9 9-2 3.8-5.8 5.8-3.7 2-9 2-5.4 0-9.1-2zm13.8-9.7q1.8-1.8 1.8-5.1v-6.5q0-3.2-1.8-5-1.7-1.8-4.8-1.8-3.1 0-4.8 1.8-1.7 1.8-1.7 5v6.5q0 3.3 1.7 5.1 1.7 1.8 4.8 1.8 3.1 0 4.8-1.8z"/><path class="a" d="m276.5 15.7h10.2v38.8h-10.2zm22.4 15.3q0-2.8-1.6-4.4-1.6-1.6-4.6-1.6-2.9 0-4.4 1.6-1.6 1.6-1.6 4.5l-0.7-8.6q1.7-3.7 4.2-5.5 2.4-1.8 6.1-1.8 6.2 0 9.5 4.1 3.4 4.1 3.4 11.7v23.6h-10.3z"/></svg>