<svg version="1.2" xmlns="http://www.w3.org/2000/svg" viewBox="0 0 332 71" width="332" height="71"><style>.a{fill:#868686}</style><path class="a" d="m0.8 0h10.3v54.5h-10.3zm4.1 22.7h18.9q1.6 0 2.8-0.8 1.2-0.8 1.8-2.3 0.7-1.4 0.7-3.3 0-1.9-0.6-3.4-0.7-1.5-1.9-2.3-1.2-0.7-2.8-0.7h-18.9v-9.9h19.7q4.5 0 7.9 2 3.5 2 5.3 5.7 1.9 3.7 1.9 8.6 0 4.8-1.9 8.5-1.8 3.7-5.3 5.7-3.4 2-7.9 2h-19.7zm11.4 8.2l11-1.7 14.7 25.3h-12.4z"/><path class="a" d="m55.6 53q-4-2-6.1-6-2.1-3.9-2.1-9.4v-4.3q0-5.8 2-9.9 2-4.1 5.9-6.2 3.8-2.1 9.2-2.1 5.1 0 8.7 2.5 3.7 2.6 5.6 7.4 1.8 4.8 1.8 11.7v2.5h-26.5v-6.9h17.2l-0.1-0.9q-0.4-3.3-2.1-5.2-1.7-1.8-4.6-1.8-3.7 0-5.7 2.2-2.1 2.2-2.1 6.2v5q0 4 2.3 6.1 2.2 2.2 6.2 2.2 2 0 4.1-0.7 2-0.8 3.6-2.1l6.7 5.9q-3 2.8-6.8 4.3-3.8 1.5-7.6 1.5-5.6 0-9.6-2z"/><path class="a" d="m96.6 52.9q-4-2.1-6-6.1-2.1-4.1-2.1-9.8v-4.1q0-5.7 2.1-9.7 2-3.9 6-6 3.9-2.1 9.5-2.1 3.1 0 6 0.7 2.8 0.7 5 2.1 2.3 1.4 3.8 3.4l-6.6 6.4q-1.5-1.3-3.4-2-1.9-0.8-4-0.8-3.9 0-6 2.1-2.1 2.1-2.1 5.9v4.1q0 3.9 2.1 6 2.1 2.2 6 2.2 2.2 0 4.1-0.8 1.9-0.8 3.3-2.3l6.6 6.8q-1.5 2-3.8 3.4-2.2 1.3-5 2-2.9 0.7-6 0.7-5.6 0-9.5-2.1z"/><path class="a" d="m124.8 15.6h19v8.8h-19zm6.4 36.4q-2.4-2.6-2.4-7.7v-40h10.3v37.5q0 1.4 0.5 2.2 0.6 0.7 1.7 0.7h2.5v9.9h-5.1q-5.1 0-7.5-2.6z"/><path class="a" d="m154 52.1q-3-3-3-9.1 0-5.7 3.4-8.6 3.5-2.9 10.4-2.9h9.7l0.6 7.8h-10.3q-2.3 0-3.4 0.9-1.2 1-1.2 2.8 0 1.9 1.5 2.9 1.4 0.9 4.4 0.9 4.1 0 6.1-1 2-0.9 2-2.9l0.8 5.7q-0.2 2.1-1.9 3.5-1.7 1.5-4.3 2.2-2.6 0.7-5.4 0.7-6.3 0-9.4-2.9zm20.2-22.3q0-2.6-1.8-4.1-1.8-1.5-5.1-1.5-2.2 0-4.3 0.7-2.1 0.8-3.8 2l-6.3-6.2q2.3-2.7 6.1-4.2 3.8-1.4 8.5-1.4 5.1 0 8.6 1.7 3.6 1.7 5.5 4.9 1.9 3.2 1.9 7.8v25h-9.3z"/><path class="a" d="m193.6 15.6h10.3v38.9h-10.3zm22.5 15.3q0-2.9-1.6-4.4-1.7-1.6-4.7-1.6-2.8 0-4.4 1.6-1.5 1.6-1.5 4.5l-0.8-8.6q1.8-3.7 4.2-5.5 2.5-1.9 6.2-1.9 6.1 0 9.5 4.2 3.3 4.1 3.3 11.7v23.5h-10.2z"/><path class="a" d="m241.3 53.1q-2.9-2-4.4-5.8-1.6-3.8-1.6-9.1v-6.2q0-5.3 1.6-9.2 1.5-3.8 4.4-5.8 3-1.9 7.1-1.9 3.1 0 5.7 1.8 2.5 1.9 4.1 5.3l-0.8 8.6q0-2-0.7-3.4-0.6-1.4-1.9-2.1-1.3-0.7-3.2-0.7-2.8 0-4.4 1.9-1.6 2-1.6 5.6v6.1q0 3.5 1.6 5.4 1.6 1.9 4.4 1.9 1.9 0 3.2-0.7 1.3-0.7 1.9-2 0.7-1.4 0.7-3.3l0.5 8.9q-1.2 3.2-3.6 4.9-2.5 1.7-5.9 1.7-4.1 0-7.1-1.9zm0.6 15.5q-3.6-1.6-5.6-4.5l6.9-6.4q1.3 1.5 3.1 2.2 1.8 0.8 3.8 0.8 3.2 0 5.3-1.8 2-1.7 2-4.8v-38.5h10.3v37.7q0 5.4-2.1 9.2-2 3.8-5.9 5.8-3.9 2-9.5 2-4.6 0-8.3-1.7z"/><path class="a" d="m288 41.6q0 1.5 0.8 2.2 0.8 0.8 2.3 0.8h1.8v9.9h-5.3q-4.7 0-7.2-2.7-2.6-2.7-2.6-7.6v-44.1h10.2z"/><path class="a" d="m307 53q-4-2-6-6-2.1-3.9-2.1-9.4v-4.3q0-5.8 2-9.9 2-4.1 5.8-6.2 3.8-2.1 9.3-2.1 5.1 0 8.7 2.5 3.6 2.6 5.5 7.4 1.9 4.8 1.9 11.7v2.5h-26.6v-6.9h17.2l-0.1-0.9q-0.4-3.3-2.1-5.2-1.7-1.8-4.5-1.8-3.7 0-5.8 2.2-2 2.2-2 6.2v5q0 4 2.2 6.1 2.2 2.2 6.2 2.2 2.1 0 4.1-0.7 2-0.8 3.7-2.1l6.7 5.9q-3 2.8-6.8 4.3-3.8 1.5-7.7 1.5-5.6 0-9.6-2z"/></svg>