<svg version="1.2" xmlns="http://www.w3.org/2000/svg" viewBox="0 0 239 72" width="239" height="72"><style>.a{fill:#868686}</style><path class="a" d="m12.8 55.3q-3.7-0.8-7-2.3-3.2-1.6-5.8-3.7l4.7-8.5q3.2 2.6 7.3 4 4.1 1.4 8.5 1.4 5 0 7.7-1.7 2.8-1.7 2.8-4.8 0-2.2-1.2-3.5-1.3-1.2-3.2-1.8-2-0.6-5.1-1.1-0.1-0.1-0.2-0.1-0.1 0-0.2 0l-0.9-0.1q-5.4-0.9-9-2.2-3.6-1.2-6.1-4.5-2.5-3.2-2.5-9.2 0-5.3 2.3-9 2.4-3.8 6.9-5.7 4.5-2 10.8-2 2.9 0 6 0.7 3 0.6 6 1.9 2.9 1.3 5.5 3.1l-4.3 8.7q-3.2-2.2-6.6-3.4-3.4-1.2-6.6-1.2-4.7 0-7.3 1.6-2.6 1.5-2.6 4.3 0 2.4 1.4 3.8 1.3 1.3 3.3 2 2 0.6 5.6 1.3 0.1 0.1 0.3 0.1 0.1 0 0.3 0 0.2 0.1 0.4 0.1 0.2 0.1 0.5 0.1 5.1 1 8.6 2.5 3.5 1.4 5.8 4.6 2.3 3.2 2.3 8.8 0 5.2-2.4 8.9-2.5 3.7-7.1 5.7-4.7 1.9-11.2 1.9-3.9 0-7.7-0.7z"/><path class="a" d="m54.7 54.1q-3-2-4.5-5.8-1.5-3.8-1.5-9.1v-6.2q0-5.3 1.5-9.2 1.5-3.8 4.5-5.8 2.9-1.9 7-1.9 3.2 0 5.7 1.8 2.6 1.9 4.2 5.3l-0.8 8.6q0-2-0.7-3.4-0.7-1.4-2-2.1-1.3-0.7-3.1-0.7-2.9 0-4.5 1.9-1.6 2-1.6 5.6v6.1q0 3.5 1.6 5.4 1.6 1.9 4.5 1.9 1.8 0 3.1-0.7 1.3-0.7 2-2 0.7-1.4 0.7-3.3l0.5 8.9q-1.2 3.2-3.7 4.9-2.4 1.7-5.9 1.7-4.1 0-7-1.9zm16.1-37.5h10.2v54.7h-10.2z"/><path class="a" d="m101.4 40.2q0 2.9 1.6 4.4 1.6 1.6 4.5 1.6 2.8 0 4.4-1.6 1.5-1.6 1.5-4.6l0.6 8.5q-1.1 3.2-3.6 5.4-2.6 2.1-6.2 2.1-6.3 0-9.7-4-3.4-4-3.4-11.4v-24h10.3zm12-23.6h10.3v38.9h-10.3z"/><path class="a" d="m135 53.1q-3.1-3-3.1-9.1 0-5.7 3.5-8.6 3.4-2.9 10.3-2.9h9.8l0.5 7.8h-10.2q-2.3 0-3.5 0.9-1.2 1-1.2 2.8 0 1.9 1.5 2.9 1.5 0.9 4.4 0.9 4.1 0 6.1-1 2-0.9 2-2.9l0.8 5.7q-0.2 2.1-1.9 3.5-1.7 1.5-4.3 2.2-2.5 0.7-5.4 0.7-6.2 0-9.3-2.9zm20.1-22.3q0-2.6-1.8-4.1-1.8-1.5-5-1.5-2.2 0-4.3 0.7-2.2 0.8-3.8 2l-6.4-6.2q2.3-2.7 6.1-4.2 3.9-1.4 8.5-1.4 5.1 0 8.7 1.7 3.6 1.7 5.5 4.9 1.9 3.2 1.9 7.8v25h-9.4z"/><path class="a" d="m174.6 16.6h11v38.9h-11zm20 9.7q-1.1-0.4-2.5-0.4-3.1 0-4.8 2-1.7 2-1.7 5.6l-0.8-10.1q1.6-3.5 4.2-5.5 2.5-1.9 5.6-1.9 2.4 0 4.4 0.8 2 0.8 3.4 2.3l-6 8.3q-0.7-0.7-1.8-1.1z"/><path class="a" d="m213.6 54q-4-2-6.1-6-2.1-3.9-2.1-9.4v-4.3q0-5.8 2-9.9 2-4.1 5.9-6.2 3.8-2.1 9.2-2.1 5.1 0 8.7 2.5 3.7 2.6 5.6 7.4 1.9 4.8 1.9 11.7v2.5h-26.6v-6.9h17.2l-0.1-0.9q-0.4-3.3-2.1-5.2-1.7-1.8-4.6-1.8-3.7 0-5.7 2.2-2.1 2.2-2.1 6.2v5q0 4 2.3 6.1 2.2 2.2 6.2 2.2 2.1 0 4.1-0.7 2-0.8 3.6-2.1l6.7 5.9q-3 2.8-6.8 4.3-3.7 1.5-7.6 1.5-5.6 0-9.6-2z"/></svg>