<svg version="1.2" xmlns="http://www.w3.org/2000/svg" viewBox="0 0 144 56" width="144" height="56"><style>.a{fill:#868686}</style><path class="a" d="m13.2 55.3q-3.8-0.8-7-2.3-3.3-1.5-5.9-3.7l4.8-8.4q3.1 2.6 7.2 4 4.1 1.4 8.5 1.4 5 0 7.8-1.7 2.7-1.7 2.7-4.8v-0.1q0-2.2-1.2-3.4-1.2-1.3-3.2-1.9-2-0.6-5.1-1.1-0.1 0-0.2 0-0.1 0-0.2-0.1l-0.8-0.1q-5.5-0.8-9.1-2.1-3.6-1.3-6.1-4.6-2.5-3.2-2.5-9.1v-0.1q0-5.3 2.4-9 2.3-3.7 6.8-5.7 4.5-2 10.9-2 2.9 0 5.9 0.7 3.1 0.7 6 1.9 2.9 1.3 5.5 3.1l-4.3 8.7q-3.1-2.2-6.6-3.4-3.4-1.2-6.5-1.2-4.8 0-7.3 1.6-2.6 1.5-2.6 4.3v0.1q0 2.3 1.3 3.7 1.4 1.4 3.4 2 1.9 0.6 5.5 1.4 0.2 0 0.3 0 0.2 0 0.3 0.1 0.3 0 0.5 0.1 0.2 0 0.4 0.1 5.2 1 8.6 2.4 3.5 1.4 5.8 4.6 2.3 3.3 2.3 8.8v0.1q0 5.2-2.4 8.9-2.4 3.7-7.1 5.6-4.7 2-11.2 2-3.9 0-7.6-0.8z"/><path class="a" d="m47.1 16.7h19.1v8.7h-19.1zm6.4 36.5q-2.4-2.6-2.4-7.7v-40.1h10.3v37.5q0 1.4 0.6 2.2 0.5 0.8 1.6 0.8h2.6v9.9h-5.2q-5.1 0-7.5-2.6z"/><path class="a" d="m76.4 53.1q-3.1-3-3.1-9 0-5.8 3.4-8.7 3.5-2.9 10.4-2.9h9.8l0.5 7.9h-10.2q-2.4 0-3.5 0.9-1.2 0.9-1.2 2.8 0 1.9 1.5 2.8 1.4 0.9 4.4 0.9 4.1 0 6.1-0.9 2-1 2-3l0.8 5.7q-0.2 2.1-1.9 3.6-1.7 1.4-4.3 2.1-2.6 0.8-5.4 0.8-6.3 0-9.3-3zm20.1-22.2q0-2.7-1.8-4.2-1.8-1.4-5.1-1.4-2.1 0-4.3 0.7-2.1 0.7-3.8 2l-6.3-6.3q2.3-2.6 6.1-4.1 3.8-1.5 8.5-1.5 5.1 0 8.7 1.7 3.6 1.7 5.5 4.9 1.8 3.3 1.8 7.8v25h-9.3z"/><path class="a" d="m115.9 16.7h11.1v38.8h-11.1zm20.1 9.7q-1.1-0.4-2.5-0.4-3.1 0-4.8 2-1.7 2-1.7 5.6l-0.8-10.1q1.6-3.5 4.1-5.4 2.6-1.9 5.7-1.9 2.4 0 4.4 0.7 1.9 0.8 3.4 2.3l-6 8.3q-0.7-0.7-1.8-1.1z"/></svg>