<svg version="1.2" xmlns="http://www.w3.org/2000/svg" viewBox="0 0 328 71" width="328" height="71"><style>.a{fill:#868686}</style><path class="a" d="m0.8 0.1h39.9v9.9h-39.9zm14.8 4.5h10.3v49.9h-10.3z"/><path class="a" d="m41.5 15.7h11v38.9h-11zm20 9.7q-1.1-0.4-2.5-0.4-3.1 0-4.8 2-1.7 2-1.7 5.5l-0.8-10.1q1.6-3.4 4.2-5.4 2.5-1.9 5.6-1.9 2.4 0 4.4 0.8 2 0.7 3.4 2.2l-6 8.4q-0.7-0.8-1.8-1.1z"/><path class="a" d="m75.4 52.1q-3.1-2.9-3.1-9 0-5.8 3.5-8.6 3.4-2.9 10.4-2.9h9.7l0.5 7.8h-10.2q-2.3 0-3.5 0.9-1.1 0.9-1.1 2.8 0 1.9 1.4 2.8 1.5 0.9 4.4 0.9 4.2 0 6.2-0.9 2-0.9 2-2.9l0.8 5.6q-0.3 2.1-2 3.6-1.7 1.5-4.2 2.2-2.6 0.7-5.5 0.7-6.2 0-9.3-3zm20.2-22.2q0-2.7-1.8-4.1-1.8-1.5-5.1-1.5-2.2 0-4.3 0.7-2.2 0.7-3.8 2l-6.4-6.2q2.4-2.7 6.2-4.2 3.8-1.5 8.4-1.5 5.1 0 8.7 1.7 3.6 1.7 5.5 5 1.9 3.2 1.9 7.8v25h-9.3z"/><path class="a" d="m115 15.7h10.3v54.7h-10.3zm13.4 37.6q-2.5-1.7-3.7-4.9l0.6-8.9q0 1.9 0.6 3.3 0.7 1.3 2 2.1 1.3 0.7 3.1 0.7 2.9 0 4.5-1.9 1.6-2 1.6-5.4v-6.2q0-3.6-1.6-5.5-1.6-2-4.5-2-1.8 0-3.1 0.7-1.3 0.8-2 2.1-0.6 1.4-0.6 3.4l-0.8-8.6q1.5-3.4 4.1-5.3 2.6-1.8 5.7-1.8 4.1 0 7 2 3 2 4.5 5.8 1.5 3.8 1.5 9.2v6.2q0 5.3-1.5 9-1.5 3.8-4.5 5.8-2.9 2-7 2-3.4 0-5.9-1.8z"/><path class="a" d="m163.8 53.1q-4-2.1-6.1-6-2.1-3.9-2.1-9.4v-4.4q0-5.7 2-9.8 2-4.1 5.8-6.2 3.9-2.2 9.3-2.2 5.1 0 8.7 2.6 3.6 2.5 5.5 7.4 1.9 4.8 1.9 11.7v2.5h-26.6v-6.9h17.3l-0.2-0.9q-0.4-3.4-2.1-5.2-1.7-1.8-4.5-1.8-3.7 0-5.8 2.2-2 2.2-2 6.2v5q0 3.9 2.2 6.1 2.2 2.2 6.3 2.2 2 0 4-0.8 2.1-0.7 3.7-2l6.7 5.9q-3 2.8-6.8 4.3-3.8 1.5-7.6 1.5-5.7 0-9.6-2z"/><path class="a" d="m226.1 24.4l-17.2 20.8h18.2v9.4h-30.4v-8.9l17.6-20.7h-17.1v-9.3h28.9z"/><path fill-rule="evenodd" class="a" d="m242.3 53.1q-3.8-1.9-5.7-5.7-2-3.8-2-9.2v-6.3q0-5.3 2-9.1 1.9-3.7 5.7-5.7 3.8-2 9.1-2 5.3 0 9 2 3.8 2 5.8 5.7 1.9 3.8 1.9 9.1v6.4q0 5.3-1.9 9.1-2 3.8-5.8 5.7-3.7 2-9 2-5.3 0-9.1-2zm13.9-9.7q1.7-1.8 1.7-5.1v-6.4q0-3.3-1.7-5.1-1.8-1.8-4.9-1.8-3 0-4.7 1.8-1.7 1.8-1.7 5.1v6.4q0 3.3 1.6 5.1 1.7 1.8 4.8 1.8 3.1 0 4.9-1.8z"/><path class="a" d="m276.9 0.1h10.3v10.3h-10.3zm0 15.6h10.3v38.8h-10.3z"/><path class="a" d="m301.6 53.1q-2.9-1.9-4.4-5.7-1.6-3.8-1.6-9.1v-6.2q0-5.4 1.6-9.2 1.5-3.8 4.4-5.8 3-2 7.1-2 3.1 0 5.7 1.9 2.5 1.8 4.1 5.3l-0.8 8.6q0-2-0.7-3.4-0.6-1.4-1.9-2.1-1.3-0.8-3.2-0.8-2.8 0-4.4 2-1.6 2-1.6 5.5v6.2q0 3.5 1.6 5.4 1.6 1.9 4.4 1.9 1.9 0 3.2-0.7 1.3-0.7 1.9-2.1 0.7-1.3 0.7-3.2l0.5 8.9q-1.2 3.1-3.6 4.9-2.5 1.7-5.9 1.7-4.1 0-7.1-2zm16.1-53h10.3v54.5h-10.3z"/></svg>