<svg version="1.2" xmlns="http://www.w3.org/2000/svg" viewBox="0 0 273 71" width="273" height="71"><style>.a{fill:#868686}</style><path class="a" d="m0.3 0.1h39.9v9.8h-39.9zm14.9 4.5h10.2v50h-10.2z"/><path class="a" d="m41 15.6h11v38.9h-11zm20 9.7q-1.1-0.4-2.5-0.4-3.1 0-4.8 2-1.7 2-1.7 5.6l-0.8-10.1q1.6-3.5 4.2-5.5 2.5-1.9 5.6-1.9 2.4 0 4.4 0.8 2 0.8 3.4 2.3l-6 8.3q-0.7-0.7-1.8-1.1z"/><path class="a" d="m73.1 0.1h10.3v10.2h-10.3zm0 15.6h10.3v38.8h-10.3z"/><path class="a" d="m94.2 52.1q-3.1-3-3.1-9.1 0-5.7 3.4-8.6 3.5-2.9 10.4-2.9h9.8l0.5 7.8h-10.2q-2.4 0-3.5 0.9-1.2 1-1.2 2.8 0 1.9 1.5 2.9 1.4 0.9 4.4 0.9 4.1 0 6.1-1 2-0.9 2-2.9l0.8 5.7q-0.2 2.1-1.9 3.5-1.7 1.5-4.3 2.2-2.6 0.7-5.4 0.7-6.3 0-9.3-2.9zm20.1-22.3q0-2.6-1.8-4.1-1.8-1.5-5.1-1.5-2.1 0-4.3 0.7-2.1 0.8-3.8 2l-6.3-6.2q2.3-2.7 6.1-4.2 3.8-1.4 8.5-1.4 5.1 0 8.7 1.7 3.6 1.7 5.4 4.9 1.9 3.2 1.9 7.8v25h-9.3z"/><path class="a" d="m133.7 15.6h10.3v38.9h-10.3zm22.5 15.3q0-2.9-1.6-4.4-1.7-1.6-4.6-1.6-2.9 0-4.4 1.6-1.6 1.6-1.6 4.5l-0.8-8.6q1.8-3.7 4.2-5.5 2.5-1.9 6.2-1.9 6.1 0 9.5 4.2 3.4 4.1 3.4 11.7v23.5h-10.3z"/><path class="a" d="m181.5 53.1q-3-2-4.5-5.8-1.6-3.8-1.6-9.1v-6.2q0-5.3 1.6-9.2 1.5-3.8 4.5-5.8 2.9-1.9 7-1.9 3.1 0 5.7 1.8 2.5 1.9 4.1 5.3l-0.8 8.6q0-2-0.6-3.4-0.7-1.4-2-2.1-1.3-0.7-3.1-0.7-2.9 0-4.5 1.9-1.6 2-1.6 5.6v6.1q0 3.5 1.6 5.4 1.6 1.9 4.5 1.9 1.8 0 3.1-0.7 1.3-0.7 2-2 0.6-1.4 0.6-3.3l0.6 8.9q-1.2 3.2-3.7 4.9-2.5 1.7-5.9 1.7-4.1 0-7-1.9zm0.6 15.5q-3.7-1.6-5.7-4.5l6.9-6.4q1.3 1.5 3.1 2.2 1.8 0.8 3.8 0.8 3.3 0 5.3-1.8 2-1.7 2-4.8v-38.5h10.3v37.7q0 5.4-2 9.2-2.1 3.8-6 5.8-3.9 2-9.5 2-4.6 0-8.2-1.7z"/><path class="a" d="m228.2 41.6q0 1.5 0.8 2.2 0.8 0.8 2.3 0.8h1.7v9.9h-5.3q-4.6 0-7.2-2.7-2.6-2.7-2.6-7.6v-44.1h10.3z"/><path class="a" d="m247.2 53q-4-2-6.1-6-2.1-3.9-2.1-9.4v-4.3q0-5.8 2-9.9 2-4.1 5.8-6.2 3.9-2.1 9.3-2.1 5.1 0 8.7 2.5 3.6 2.6 5.5 7.4 1.9 4.8 1.9 11.7v2.5h-26.6v-6.9h17.3l-0.2-0.9q-0.4-3.3-2.1-5.2-1.7-1.8-4.5-1.8-3.7 0-5.8 2.2-2 2.2-2 6.2v5q0 4 2.2 6.1 2.2 2.2 6.3 2.2 2 0 4-0.7 2.1-0.8 3.7-2.1l6.7 5.9q-3 2.8-6.8 4.3-3.8 1.5-7.6 1.5-5.7 0-9.6-2z"/></svg>