<?xml version="1.0" encoding="iso-8859-1"?>
<!-- Generator: Adobe Illustrator 23.0.2, SVG Export Plug-In . SVG Version: 6.00 Build 0)  -->
<svg version="1.1" id="Layer_1" xmlns="http://www.w3.org/2000/svg" xmlns:xlink="http://www.w3.org/1999/xlink" x="0px" y="0px"
	 viewBox="0 0 595.276 841.89" style="enable-background:new 0 0 595.276 841.89;" xml:space="preserve">
<g>
	<g>
		<g>
			<path style="fill:#D8DC41;" d="M286.814,382.392c-0.607-1.339-4.9-5.514-6.042-6.268c-5.492-3.628-14.764-3.228-17.753-1.561
				c-6.411,3.575-7.778,9.078-8.486,10.472c-0.69,1.358-1.841,1.714-2.826,2.743c-2.917,3.04,2.285,4.944,3.749,6.556
				c1.002,1.105,2.144,5.365,9.083,9.38c3.292,1.904,12.252,1.466,15.838-0.209c2.637-1.231,5.879-5.634,6.621-6.951
				c0.738-1.308,1.946-1.788,2.924-2.821c1.031-1.087,1.172-2.87,0.826-4.414C290.917,386.599,288.58,386.286,286.814,382.392z"/>
			<path style="fill:#D3D331;" d="M290.748,389.315c0.17-2.716-2.168-3.029-3.934-6.925c-0.264-0.581-1.221-1.693-2.312-2.829
				c-1.823,6.822-8.736,12.19-14.75,13.448c-4.016,0.84-8.934,0.486-11.429-3.667c-1.654-2.755-1.92-6.14-1.293-9.325
				c-1.514,2.245-2.108,4.25-2.497,5.016c-0.69,1.358-1.841,1.714-2.826,2.743c-2.917,3.04,2.285,4.944,3.749,6.556
				c1.002,1.105,2.144,5.365,9.083,9.38c3.292,1.904,12.252,1.466,15.838-0.209c2.637-1.231,5.879-5.634,6.621-6.951
				c0.738-1.308,1.946-1.788,2.924-2.821C290.953,392.642,291.094,390.859,290.748,389.315z"/>
			<path style="opacity:0.43;fill:#C3BE30;enable-background:new    ;" d="M254.533,385.033c-0.69,1.358-1.841,1.714-2.826,2.743
				c-2.917,3.04,2.285,4.944,3.749,6.556c1.002,1.105,2.144,5.365,9.083,9.38c3.292,1.904,12.252,1.466,15.838-0.209
				c2.637-1.231,5.879-5.634,6.621-6.951c0.738-1.308,1.946-1.788,2.924-2.821c1.031-1.087,1.172-2.87,0.826-4.414
				c0.17-2.716-2.168-3.029-3.934-6.925c-0.607-1.339-4.9-5.514-6.042-6.268c-0.412-0.271-0.845-0.518-1.293-0.745
				c0.654,0.84,1.183,1.846,1.544,3.057c1.455,4.889,0.168,9.816-2.943,13.49c-2.641,3.12-6.305,5.572-10.126,6.363
				c-3.597,0.745-7.712,0.143-10.138-3.223c-1.619-2.244-2.657-5.156-2.609-8.057c0.037-2.165,0.572-4.187,1.285-6.152
				C255.366,382.75,254.873,384.365,254.533,385.033z"/>
			<path style="opacity:0.69;fill:#B8B533;enable-background:new    ;" d="M254.533,385.033c-0.165,0.327-0.358,0.594-0.569,0.829
				c0.014,0.084,0.024,0.171,0.027,0.264c0.064,1.994-0.735,4.428-2.866,4.46h-0.002c0.855,1.526,3.383,2.699,4.334,3.745
				c1.002,1.105,2.144,5.365,9.083,9.38c3.292,1.904,12.252,1.466,15.838-0.209c2.637-1.231,5.879-5.634,6.621-6.951
				c0.738-1.308,1.946-1.788,2.924-2.821c1.031-1.087,1.172-2.87,0.826-4.414c0.147-2.37-1.611-2.911-3.235-5.593
				c0.083,1.238,0.049,2.479-0.102,3.686c-0.682,5.457-4.106,8.964-8.519,11.038c-3.495,1.644-7.376,2.787-11.151,2.269
				c-12.274-1.682-14.089-9.617-12.899-16.396C254.723,384.614,254.624,384.857,254.533,385.033z"/>
			<path style="opacity:0.56;fill:#B99E30;enable-background:new    ;" d="M275.219,401.209c-4.748,1.436-9.922,1.472-14.251-1.409
				c-3.485-2.319-6.371-6.017-6.68-10.576c-0.189,0.589-0.172,1.724-0.54,2.193c-0.424,0.539-1.227,0.201-1.768,0.207
				c1.118,1.043,2.754,1.911,3.477,2.708c0.83,0.915,1.758,3.989,5.983,7.298c2.04,1.073,4.509,2.05,6.729,2.249
				c3.54,0.317,7.018,0.59,10.315-0.929c5.668-2.61,8.254-7.265,9.285-8.294c1.129-1.124,2.458-2.123,2.741-3.904
				c0.233-1.471-0.287-2.974-0.862-4.29c-0.26-0.306-0.547-0.622-0.853-0.982c0.008,0.075,0.018,0.15,0.027,0.226
				c0.261,2.746-0.218,5.256-1.72,7.49C284.334,397.312,279.609,399.881,275.219,401.209z"/>
			
				<linearGradient id="SVGID_1_" gradientUnits="userSpaceOnUse" x1="271.0138" y1="452.8838" x2="272.2563" y2="467.0868" gradientTransform="matrix(1 0 0 -1 0 842.11)">
				<stop  offset="0.0364" style="stop-color:#EEEA4C"/>
				<stop  offset="0.8545" style="stop-color:#FCF5A7"/>
			</linearGradient>
			<path style="opacity:0.44;fill:url(#SVGID_1_);enable-background:new    ;" d="M275.905,383.08
				c1.717,0.475,3.675,1.109,5.159,2.196c1.313,0.96,2.404,2.353,3.533,3.402c1.577-0.607,2.049-2.418,1.409-3.904
				c-2.792-6.479-8.359-9.758-14.589-9.758c-3.414,0-5.506,0.348-8.582,1.785c-2.369,1.108-6.344,4.056-6.702,11.123
				c2.58-4.201,5.857-5.661,8.91-5.824C268.639,381.908,272.469,382.129,275.905,383.08z"/>
			<path style="opacity:0.52;fill:#FAF9D5;enable-background:new    ;" d="M260.433,381.47c1.056-0.678,2.216-1.203,3.345-1.589
				c2.355-0.806,4.827-1.373,7.449-1.373c1.613,0,3.142,0.2,4.679,0.447c1.066,0.172,3.507,1.476,4.495,1.041
				c1.541-0.681-1.677-2.281-2.276-2.57c-1.293-0.628-2.869-0.915-4.325-1.133c-3.009-0.45-6.198-0.065-9.07,0.95
				c-2.3,0.812-6.38,2.91-6.779,6.028l0.096,0.106C258.131,383.056,259.834,381.856,260.433,381.47z"/>
		</g>
	</g>
	<g>
		<g>
			<path style="fill:#D8DC41;" d="M331.499,394.573c-0.607-1.339-4.9-5.514-6.042-6.268c-5.492-3.628-14.764-3.228-17.753-1.561
				c-6.411,3.575-7.778,9.078-8.486,10.472c-0.69,1.358-1.841,1.714-2.826,2.743c-2.917,3.04,2.285,4.944,3.749,6.556
				c1.002,1.105,2.144,5.365,9.083,9.38c3.292,1.904,12.252,1.466,15.838-0.209c2.637-1.231,5.879-5.634,6.621-6.951
				c0.738-1.308,1.946-1.788,2.924-2.821c1.031-1.087,1.172-2.87,0.826-4.414C335.602,398.781,333.265,398.469,331.499,394.573z"/>
			<path style="fill:#D3D331;" d="M335.433,401.497c0.169-2.716-2.168-3.029-3.934-6.925c-0.264-0.581-1.221-1.693-2.313-2.829
				c-1.823,6.822-8.736,12.19-14.75,13.448c-4.016,0.84-8.934,0.486-11.429-3.667c-1.655-2.755-1.921-6.14-1.293-9.325
				c-1.514,2.245-2.109,4.25-2.497,5.016c-0.69,1.358-1.841,1.714-2.826,2.743c-2.917,3.04,2.285,4.944,3.749,6.556
				c1.002,1.105,2.144,5.365,9.083,9.38c3.292,1.904,12.252,1.466,15.838-0.209c2.637-1.231,5.879-5.634,6.621-6.951
				c0.738-1.308,1.946-1.788,2.924-2.821C335.638,404.824,335.779,403.04,335.433,401.497z"/>
			<path style="opacity:0.43;fill:#C3BE30;enable-background:new    ;" d="M299.218,397.214c-0.69,1.358-1.841,1.714-2.826,2.743
				c-2.917,3.04,2.285,4.944,3.749,6.556c1.002,1.105,2.144,5.365,9.083,9.38c3.292,1.904,12.252,1.466,15.838-0.209
				c2.637-1.231,5.879-5.634,6.621-6.951c0.738-1.308,1.946-1.788,2.924-2.821c1.031-1.087,1.172-2.87,0.826-4.414
				c0.169-2.716-2.168-3.029-3.934-6.925c-0.607-1.339-4.9-5.514-6.042-6.268c-0.412-0.271-0.845-0.518-1.293-0.745
				c0.654,0.84,1.183,1.846,1.544,3.057c1.455,4.889,0.168,9.816-2.943,13.49c-2.641,3.12-6.305,5.572-10.126,6.363
				c-3.597,0.745-7.712,0.143-10.138-3.223c-1.619-2.244-2.657-5.156-2.609-8.057c0.037-2.165,0.572-4.187,1.285-6.152
				C300.051,394.932,299.558,396.547,299.218,397.214z"/>
			<path style="opacity:0.69;fill:#B8B533;enable-background:new    ;" d="M299.218,397.214c-0.165,0.327-0.358,0.594-0.569,0.829
				c0.014,0.084,0.024,0.171,0.027,0.264c0.064,1.994-0.735,4.428-2.866,4.46h-0.002c0.855,1.526,3.383,2.699,4.334,3.745
				c1.002,1.105,2.144,5.365,9.083,9.38c3.292,1.904,12.252,1.466,15.838-0.209c2.637-1.231,5.879-5.634,6.621-6.951
				c0.738-1.308,1.946-1.788,2.924-2.821c1.031-1.087,1.172-2.87,0.826-4.414c0.147-2.37-1.611-2.911-3.236-5.593
				c0.083,1.238,0.049,2.479-0.102,3.686c-0.682,5.457-4.106,8.964-8.519,11.038c-3.495,1.644-7.376,2.787-11.151,2.269
				c-12.274-1.682-14.089-9.616-12.899-16.396C299.407,396.795,299.309,397.038,299.218,397.214z"/>
			<path style="opacity:0.56;fill:#B99E30;enable-background:new    ;" d="M319.904,413.39c-4.748,1.436-9.922,1.472-14.251-1.409
				c-3.485-2.319-6.371-6.017-6.68-10.576c-0.189,0.589-0.172,1.723-0.54,2.193c-0.424,0.539-1.227,0.201-1.768,0.207
				c1.118,1.043,2.754,1.911,3.477,2.708c0.829,0.915,1.758,3.989,5.983,7.298c2.04,1.073,4.509,2.05,6.729,2.249
				c3.54,0.317,7.018,0.59,10.315-0.929c5.668-2.61,8.254-7.265,9.285-8.294c1.129-1.124,2.458-2.123,2.741-3.904
				c0.233-1.471-0.287-2.974-0.862-4.29c-0.26-0.306-0.547-0.622-0.853-0.982c0.008,0.075,0.018,0.15,0.026,0.226
				c0.261,2.746-0.218,5.256-1.72,7.49C329.019,409.494,324.293,412.062,319.904,413.39z"/>
			
				<linearGradient id="SVGID_2_" gradientUnits="userSpaceOnUse" x1="315.6988" y1="440.7027" x2="316.9414" y2="454.9058" gradientTransform="matrix(1 0 0 -1 0 842.11)">
				<stop  offset="0.0364" style="stop-color:#EEEA4C"/>
				<stop  offset="0.8545" style="stop-color:#FCF5A7"/>
			</linearGradient>
			<path style="opacity:0.44;fill:url(#SVGID_2_);enable-background:new    ;" d="M320.59,395.261
				c1.717,0.475,3.675,1.109,5.159,2.196c1.314,0.96,2.404,2.353,3.533,3.402c1.577-0.607,2.049-2.418,1.409-3.904
				c-2.792-6.479-8.358-9.758-14.589-9.758c-3.414,0-5.506,0.348-8.582,1.785c-2.369,1.108-6.344,4.056-6.702,11.123
				c2.58-4.201,5.857-5.661,8.91-5.824C313.324,394.089,317.154,394.311,320.59,395.261z"/>
			<path style="opacity:0.52;fill:#FAF9D5;enable-background:new    ;" d="M305.118,393.652c1.056-0.678,2.216-1.203,3.344-1.589
				c2.355-0.806,4.827-1.373,7.449-1.373c1.613,0,3.142,0.2,4.679,0.447c1.066,0.172,3.507,1.476,4.495,1.041
				c1.541-0.681-1.677-2.281-2.276-2.57c-1.293-0.628-2.869-0.915-4.325-1.133c-3.009-0.45-6.198-0.065-9.07,0.95
				c-2.3,0.812-6.381,2.91-6.779,6.028l0.096,0.106C302.816,395.237,304.519,394.037,305.118,393.652z"/>
		</g>
	</g>
	<g>
		<g>
			<path style="fill:#D8DC41;" d="M352.758,430.993c-0.607-1.339-4.9-5.514-6.042-6.268c-5.492-3.628-14.764-3.228-17.753-1.561
				c-6.411,3.575-7.778,9.078-8.486,10.472c-0.69,1.358-1.841,1.714-2.826,2.743c-2.917,3.04,2.285,4.944,3.749,6.556
				c1.002,1.105,2.144,5.365,9.083,9.38c3.292,1.904,12.252,1.466,15.838-0.209c2.637-1.231,5.879-5.634,6.621-6.951
				c0.738-1.308,1.946-1.788,2.924-2.821c1.031-1.087,1.172-2.87,0.826-4.414C356.862,435.201,354.524,434.889,352.758,430.993z"/>
			<path style="fill:#D3D331;" d="M356.692,437.918c0.169-2.716-2.168-3.029-3.934-6.925c-0.264-0.581-1.221-1.693-2.313-2.829
				c-1.823,6.822-8.736,12.19-14.75,13.448c-4.016,0.84-8.934,0.486-11.429-3.667c-1.655-2.755-1.921-6.14-1.293-9.326
				c-1.514,2.245-2.109,4.25-2.497,5.016c-0.69,1.358-1.841,1.714-2.826,2.743c-2.917,3.04,2.285,4.944,3.749,6.556
				c1.002,1.105,2.144,5.365,9.083,9.38c3.292,1.904,12.252,1.466,15.838-0.209c2.637-1.231,5.879-5.634,6.621-6.951
				c0.738-1.308,1.946-1.788,2.924-2.821C356.897,441.245,357.038,439.462,356.692,437.918z"/>
			<path style="opacity:0.43;fill:#C3BE30;enable-background:new    ;" d="M320.477,433.635c-0.69,1.358-1.841,1.714-2.826,2.743
				c-2.917,3.04,2.285,4.944,3.749,6.556c1.002,1.105,2.144,5.365,9.083,9.38c3.292,1.904,12.252,1.466,15.838-0.209
				c2.637-1.231,5.879-5.634,6.621-6.951c0.738-1.308,1.946-1.788,2.924-2.821c1.031-1.087,1.172-2.87,0.826-4.414
				c0.169-2.716-2.168-3.029-3.934-6.925c-0.607-1.339-4.9-5.514-6.042-6.268c-0.412-0.271-0.845-0.518-1.293-0.745
				c0.654,0.84,1.183,1.846,1.544,3.057c1.455,4.889,0.168,9.816-2.943,13.49c-2.641,3.12-6.305,5.572-10.126,6.363
				c-3.597,0.745-7.712,0.143-10.138-3.223c-1.619-2.244-2.657-5.156-2.609-8.057c0.037-2.165,0.572-4.187,1.285-6.152
				C321.31,431.353,320.817,432.967,320.477,433.635z"/>
			<path style="opacity:0.69;fill:#B8B533;enable-background:new    ;" d="M320.477,433.635c-0.165,0.327-0.358,0.595-0.569,0.829
				c0.014,0.084,0.024,0.171,0.027,0.264c0.064,1.994-0.735,4.428-2.866,4.46h-0.002c0.855,1.526,3.383,2.699,4.334,3.745
				c1.002,1.105,2.144,5.365,9.083,9.38c3.292,1.904,12.252,1.466,15.838-0.209c2.637-1.231,5.879-5.634,6.621-6.951
				c0.738-1.308,1.946-1.788,2.924-2.821c1.031-1.087,1.172-2.87,0.826-4.414c0.147-2.37-1.611-2.911-3.236-5.593
				c0.083,1.238,0.049,2.479-0.102,3.686c-0.682,5.457-4.106,8.964-8.519,11.038c-3.495,1.644-7.376,2.787-11.151,2.269
				c-12.274-1.682-14.089-9.617-12.899-16.396C320.667,433.217,320.568,433.459,320.477,433.635z"/>
			<path style="opacity:0.56;fill:#B99E30;enable-background:new    ;" d="M341.163,449.811c-4.748,1.436-9.922,1.472-14.251-1.409
				c-3.485-2.319-6.371-6.017-6.68-10.576c-0.189,0.589-0.172,1.724-0.54,2.193c-0.424,0.539-1.227,0.201-1.768,0.207
				c1.118,1.043,2.754,1.911,3.477,2.708c0.829,0.913,1.758,3.989,5.983,7.298c2.04,1.073,4.509,2.05,6.729,2.25
				c3.54,0.317,7.018,0.59,10.315-0.929c5.668-2.61,8.254-7.265,9.285-8.294c1.129-1.124,2.458-2.123,2.741-3.904
				c0.233-1.471-0.287-2.974-0.862-4.29c-0.26-0.306-0.547-0.622-0.853-0.982c0.008,0.075,0.018,0.15,0.026,0.226
				c0.261,2.746-0.218,5.256-1.72,7.49C350.278,445.914,345.553,448.483,341.163,449.811z"/>
			
				<linearGradient id="SVGID_3_" gradientUnits="userSpaceOnUse" x1="336.9578" y1="404.281" x2="338.2004" y2="418.4841" gradientTransform="matrix(1 0 0 -1 0 842.11)">
				<stop  offset="0.0364" style="stop-color:#EEEA4C"/>
				<stop  offset="0.8545" style="stop-color:#FCF5A7"/>
			</linearGradient>
			<path style="opacity:0.44;fill:url(#SVGID_3_);enable-background:new    ;" d="M341.849,431.683
				c1.717,0.475,3.675,1.109,5.159,2.196c1.314,0.96,2.404,2.353,3.533,3.402c1.577-0.607,2.049-2.418,1.409-3.904
				c-2.792-6.479-8.358-9.758-14.589-9.758c-3.414,0-5.506,0.348-8.582,1.785c-2.369,1.108-6.344,4.056-6.702,11.123
				c2.58-4.201,5.857-5.662,8.91-5.825C334.583,430.51,338.413,430.732,341.849,431.683z"/>
			<path style="opacity:0.52;fill:#FAF9D5;enable-background:new    ;" d="M326.377,430.073c1.056-0.678,2.216-1.203,3.345-1.589
				c2.355-0.807,4.827-1.373,7.449-1.373c1.613,0,3.142,0.2,4.679,0.447c1.066,0.172,3.507,1.476,4.495,1.041
				c1.541-0.681-1.677-2.281-2.276-2.57c-1.293-0.628-2.869-0.915-4.325-1.133c-3.009-0.45-6.198-0.065-9.07,0.95
				c-2.3,0.812-6.38,2.91-6.779,6.028l0.096,0.106C324.075,431.658,325.778,430.457,326.377,430.073z"/>
		</g>
	</g>
	<g>
		<g>
			<path style="fill:#D8DC41;" d="M294.647,421.093c-0.607-1.339-4.9-5.514-6.042-6.268c-5.492-3.628-14.764-3.228-17.753-1.561
				c-6.411,3.575-7.778,9.078-8.486,10.472c-0.69,1.358-1.841,1.714-2.826,2.743c-2.917,3.04,2.285,4.944,3.749,6.556
				c1.002,1.105,2.144,5.365,9.083,9.38c3.292,1.904,12.252,1.466,15.838-0.209c2.637-1.231,5.879-5.634,6.621-6.951
				c0.738-1.308,1.946-1.788,2.924-2.821c1.031-1.087,1.172-2.87,0.826-4.414C298.751,425.3,296.413,424.987,294.647,421.093z"/>
			<path style="fill:#D3D331;" d="M298.581,428.016c0.169-2.716-2.168-3.029-3.934-6.925c-0.264-0.581-1.221-1.693-2.312-2.829
				c-1.823,6.822-8.736,12.19-14.75,13.448c-4.016,0.84-8.934,0.486-11.429-3.667c-1.655-2.755-1.921-6.14-1.293-9.326
				c-1.514,2.245-2.108,4.25-2.497,5.016c-0.69,1.358-1.841,1.714-2.826,2.743c-2.917,3.04,2.285,4.944,3.749,6.556
				c1.002,1.105,2.144,5.365,9.083,9.38c3.292,1.904,12.252,1.466,15.838-0.209c2.637-1.231,5.879-5.634,6.621-6.951
				c0.738-1.308,1.946-1.788,2.924-2.821C298.786,431.343,298.928,429.561,298.581,428.016z"/>
			<path style="opacity:0.43;fill:#C3BE30;enable-background:new    ;" d="M262.367,423.734c-0.69,1.358-1.841,1.714-2.826,2.743
				c-2.917,3.04,2.285,4.944,3.749,6.556c1.002,1.105,2.144,5.365,9.083,9.38c3.292,1.904,12.252,1.466,15.838-0.209
				c2.637-1.231,5.879-5.634,6.621-6.951c0.738-1.308,1.946-1.788,2.924-2.821c1.031-1.087,1.172-2.87,0.826-4.414
				c0.169-2.716-2.168-3.029-3.934-6.925c-0.607-1.339-4.9-5.514-6.042-6.268c-0.412-0.271-0.845-0.518-1.293-0.745
				c0.654,0.84,1.183,1.846,1.544,3.057c1.455,4.889,0.168,9.816-2.943,13.49c-2.641,3.12-6.305,5.572-10.126,6.363
				c-3.597,0.745-7.712,0.143-10.138-3.223c-1.619-2.244-2.657-5.156-2.609-8.057c0.037-2.165,0.572-4.187,1.285-6.152
				C263.199,421.451,262.706,423.066,262.367,423.734z"/>
			<path style="opacity:0.69;fill:#B8B533;enable-background:new    ;" d="M262.367,423.734c-0.165,0.327-0.358,0.595-0.569,0.829
				c0.014,0.084,0.024,0.171,0.027,0.264c0.064,1.994-0.735,4.428-2.866,4.46h-0.002c0.855,1.526,3.383,2.699,4.334,3.745
				c1.002,1.105,2.144,5.365,9.083,9.38c3.292,1.904,12.252,1.466,15.838-0.209c2.637-1.231,5.879-5.634,6.621-6.951
				c0.738-1.308,1.946-1.788,2.924-2.821c1.031-1.087,1.172-2.87,0.826-4.414c0.147-2.37-1.611-2.911-3.235-5.593
				c0.083,1.238,0.049,2.479-0.102,3.686c-0.682,5.457-4.106,8.964-8.519,11.038c-3.495,1.644-7.376,2.787-11.151,2.269
				c-12.274-1.682-14.089-9.617-12.899-16.396C262.556,423.315,262.457,423.557,262.367,423.734z"/>
			<path style="opacity:0.56;fill:#B99E30;enable-background:new    ;" d="M283.052,439.91c-4.748,1.436-9.922,1.472-14.251-1.409
				c-3.485-2.319-6.371-6.017-6.68-10.576c-0.189,0.589-0.172,1.724-0.54,2.193c-0.424,0.539-1.227,0.201-1.768,0.207
				c1.118,1.043,2.754,1.911,3.477,2.708c0.829,0.913,1.758,3.989,5.983,7.298c2.04,1.073,4.509,2.05,6.729,2.25
				c3.54,0.317,7.018,0.59,10.315-0.929c5.668-2.61,8.254-7.265,9.285-8.294c1.129-1.125,2.458-2.123,2.741-3.904
				c0.233-1.472-0.287-2.974-0.862-4.29c-0.26-0.306-0.547-0.622-0.853-0.982c0.008,0.075,0.018,0.15,0.027,0.226
				c0.261,2.746-0.218,5.256-1.72,7.49C292.167,436.013,287.442,438.582,283.052,439.91z"/>
			
				<linearGradient id="SVGID_4_" gradientUnits="userSpaceOnUse" x1="278.8478" y1="414.1826" x2="280.0904" y2="428.3857" gradientTransform="matrix(1 0 0 -1 0 842.11)">
				<stop  offset="0.0364" style="stop-color:#EEEA4C"/>
				<stop  offset="0.8545" style="stop-color:#FCF5A7"/>
			</linearGradient>
			<path style="opacity:0.44;fill:url(#SVGID_4_);enable-background:new    ;" d="M283.739,421.782
				c1.717,0.475,3.674,1.109,5.159,2.196c1.314,0.96,2.404,2.353,3.533,3.402c1.577-0.607,2.049-2.418,1.409-3.904
				c-2.792-6.479-8.358-9.758-14.589-9.758c-3.414,0-5.506,0.348-8.582,1.785c-2.369,1.108-6.344,4.056-6.702,11.123
				c2.58-4.201,5.857-5.661,8.91-5.825C276.473,420.608,280.303,420.83,283.739,421.782z"/>
			<path style="opacity:0.52;fill:#FAF9D5;enable-background:new    ;" d="M268.266,420.171c1.056-0.678,2.216-1.203,3.345-1.589
				c2.355-0.806,4.827-1.373,7.449-1.373c1.613,0,3.142,0.2,4.679,0.447c1.066,0.172,3.507,1.475,4.495,1.041
				c1.541-0.681-1.677-2.281-2.276-2.57c-1.293-0.628-2.869-0.915-4.325-1.133c-3.009-0.45-6.198-0.065-9.07,0.95
				c-2.3,0.812-6.38,2.91-6.779,6.028l0.096,0.106C265.965,421.757,267.668,420.556,268.266,420.171z"/>
		</g>
	</g>
	<g>
		<g>
			<path style="fill:#D8DC41;" d="M252.622,442.43c-0.607-1.339-4.9-5.514-6.042-6.268c-5.492-3.628-14.764-3.228-17.753-1.561
				c-6.411,3.575-7.778,9.078-8.486,10.472c-0.69,1.358-1.841,1.714-2.826,2.743c-2.917,3.04,2.285,4.944,3.749,6.556
				c1.002,1.105,2.144,5.365,9.083,9.38c3.292,1.904,12.252,1.466,15.838-0.209c2.637-1.231,5.879-5.634,6.621-6.951
				c0.738-1.308,1.946-1.788,2.924-2.821c1.031-1.087,1.172-2.87,0.826-4.414C256.726,446.639,254.388,446.325,252.622,442.43z"/>
			<path style="fill:#D3D331;" d="M256.556,449.355c0.17-2.717-2.168-3.029-3.934-6.925c-0.264-0.581-1.221-1.693-2.312-2.829
				c-1.823,6.822-8.736,12.19-14.75,13.448c-4.016,0.84-8.934,0.486-11.429-3.667c-1.655-2.753-1.92-6.14-1.293-9.325
				c-1.514,2.245-2.108,4.25-2.497,5.016c-0.69,1.358-1.841,1.714-2.826,2.743c-2.917,3.04,2.285,4.944,3.749,6.556
				c1.002,1.105,2.144,5.365,9.083,9.38c3.292,1.904,12.252,1.466,15.838-0.209c2.637-1.231,5.879-5.634,6.621-6.951
				c0.738-1.308,1.946-1.788,2.924-2.821C256.761,452.681,256.902,450.898,256.556,449.355z"/>
			<path style="opacity:0.43;fill:#C3BE30;enable-background:new    ;" d="M220.341,445.072c-0.69,1.358-1.841,1.714-2.826,2.743
				c-2.917,3.04,2.285,4.944,3.749,6.556c1.002,1.105,2.144,5.365,9.083,9.38c3.292,1.904,12.252,1.466,15.838-0.209
				c2.637-1.231,5.879-5.634,6.621-6.951c0.738-1.308,1.946-1.788,2.924-2.821c1.031-1.087,1.172-2.87,0.826-4.414
				c0.17-2.717-2.168-3.029-3.934-6.925c-0.607-1.339-4.9-5.514-6.042-6.268c-0.412-0.271-0.845-0.518-1.293-0.745
				c0.654,0.84,1.183,1.846,1.544,3.057c1.455,4.889,0.168,9.816-2.943,13.49c-2.641,3.12-6.305,5.572-10.126,6.363
				c-3.597,0.745-7.712,0.143-10.138-3.223c-1.619-2.244-2.657-5.156-2.609-8.057c0.037-2.165,0.572-4.187,1.285-6.152
				C221.174,442.789,220.681,444.405,220.341,445.072z"/>
			<path style="opacity:0.69;fill:#B8B533;enable-background:new    ;" d="M220.341,445.072c-0.165,0.327-0.358,0.595-0.569,0.829
				c0.014,0.084,0.024,0.171,0.027,0.264c0.064,1.994-0.735,4.428-2.866,4.46h-0.002c0.855,1.526,3.383,2.699,4.334,3.745
				c1.002,1.105,2.144,5.365,9.083,9.38c3.292,1.904,12.252,1.466,15.838-0.209c2.637-1.231,5.879-5.634,6.621-6.951
				c0.738-1.308,1.946-1.788,2.924-2.821c1.031-1.087,1.172-2.87,0.826-4.414c0.147-2.37-1.611-2.911-3.235-5.593
				c0.083,1.238,0.049,2.479-0.102,3.687c-0.682,5.457-4.106,8.964-8.519,11.038c-3.495,1.644-7.376,2.787-11.151,2.269
				c-12.274-1.682-14.089-9.616-12.899-16.396C220.531,444.653,220.432,444.896,220.341,445.072z"/>
			<path style="opacity:0.56;fill:#B99E30;enable-background:new    ;" d="M241.027,461.248c-4.748,1.436-9.922,1.473-14.251-1.409
				c-3.485-2.319-6.371-6.017-6.68-10.576c-0.189,0.589-0.172,1.723-0.54,2.193c-0.424,0.539-1.227,0.201-1.768,0.207
				c1.118,1.043,2.754,1.911,3.477,2.708c0.83,0.915,1.758,3.989,5.983,7.298c2.04,1.073,4.509,2.05,6.729,2.25
				c3.54,0.317,7.018,0.59,10.315-0.929c5.668-2.61,8.254-7.265,9.285-8.294c1.129-1.124,2.458-2.123,2.741-3.904
				c0.233-1.471-0.287-2.974-0.862-4.29c-0.26-0.306-0.547-0.622-0.853-0.982c0.008,0.075,0.018,0.15,0.027,0.226
				c0.261,2.746-0.218,5.256-1.72,7.49C250.142,457.35,245.417,459.92,241.027,461.248z"/>
			
				<linearGradient id="SVGID_5_" gradientUnits="userSpaceOnUse" x1="236.8212" y1="392.8447" x2="238.0638" y2="407.0479" gradientTransform="matrix(1 0 0 -1 0 842.11)">
				<stop  offset="0.0364" style="stop-color:#EEEA4C"/>
				<stop  offset="0.8545" style="stop-color:#FCF5A7"/>
			</linearGradient>
			<path style="opacity:0.44;fill:url(#SVGID_5_);enable-background:new    ;" d="M241.713,443.119
				c1.717,0.475,3.675,1.109,5.159,2.196c1.313,0.96,2.404,2.353,3.533,3.402c1.577-0.607,2.049-2.418,1.408-3.904
				c-2.792-6.479-8.358-9.758-14.589-9.758c-3.414,0-5.506,0.348-8.582,1.785c-2.369,1.108-6.344,4.056-6.702,11.123
				c2.58-4.201,5.857-5.661,8.91-5.825C234.448,441.947,238.278,442.169,241.713,443.119z"/>
			<path style="opacity:0.52;fill:#FAF9D5;enable-background:new    ;" d="M226.241,441.51c1.056-0.678,2.216-1.203,3.345-1.589
				c2.355-0.807,4.827-1.373,7.449-1.373c1.613,0,3.142,0.2,4.679,0.447c1.066,0.172,3.507,1.475,4.495,1.041
				c1.541-0.681-1.677-2.281-2.276-2.57c-1.293-0.63-2.869-0.915-4.325-1.133c-3.009-0.45-6.198-0.065-9.07,0.95
				c-2.3,0.812-6.38,2.91-6.779,6.028l0.096,0.106C223.939,443.094,225.643,441.895,226.241,441.51z"/>
		</g>
	</g>
	<g>
		<g>
			<path style="fill:#D8DC41;" d="M190.419,427.326c-0.607-1.339-4.9-5.514-6.042-6.268c-5.492-3.628-14.764-3.228-17.753-1.561
				c-6.411,3.575-7.778,9.078-8.486,10.472c-0.69,1.358-1.841,1.714-2.826,2.741c-2.917,3.04,2.285,4.944,3.749,6.556
				c1.002,1.105,2.144,5.365,9.083,9.38c3.291,1.904,12.252,1.466,15.838-0.209c2.637-1.231,5.88-5.634,6.621-6.951
				c0.738-1.308,1.946-1.788,2.924-2.821c1.031-1.087,1.172-2.87,0.826-4.414C194.522,431.535,192.184,431.222,190.419,427.326z"/>
			<path style="fill:#D3D331;" d="M194.352,434.251c0.169-2.717-2.168-3.029-3.934-6.925c-0.264-0.581-1.221-1.693-2.313-2.829
				c-1.823,6.822-8.736,12.19-14.75,13.448c-4.016,0.84-8.934,0.486-11.429-3.667c-1.655-2.753-1.921-6.14-1.293-9.325
				c-1.514,2.245-2.108,4.25-2.497,5.016c-0.69,1.358-1.841,1.714-2.826,2.741c-2.917,3.04,2.285,4.944,3.749,6.556
				c1.002,1.105,2.144,5.365,9.083,9.38c3.291,1.904,12.252,1.466,15.838-0.209c2.637-1.231,5.88-5.634,6.621-6.951
				c0.738-1.308,1.946-1.788,2.924-2.821C194.557,437.578,194.699,435.795,194.352,434.251z"/>
			<path style="opacity:0.43;fill:#C3BE30;enable-background:new    ;" d="M158.138,429.968c-0.69,1.358-1.841,1.714-2.826,2.741
				c-2.917,3.04,2.285,4.944,3.749,6.556c1.002,1.105,2.144,5.365,9.083,9.38c3.291,1.904,12.252,1.466,15.838-0.209
				c2.637-1.231,5.88-5.634,6.621-6.951c0.738-1.308,1.946-1.788,2.924-2.821c1.031-1.087,1.172-2.87,0.826-4.414
				c0.169-2.717-2.168-3.029-3.934-6.925c-0.607-1.339-4.9-5.514-6.042-6.268c-0.412-0.271-0.845-0.518-1.293-0.745
				c0.654,0.84,1.183,1.846,1.544,3.057c1.455,4.889,0.168,9.816-2.943,13.49c-2.641,3.12-6.305,5.572-10.126,6.363
				c-3.597,0.745-7.712,0.143-10.138-3.223c-1.618-2.244-2.657-5.156-2.609-8.057c0.037-2.165,0.572-4.187,1.285-6.152
				C158.97,427.686,158.477,429.3,158.138,429.968z"/>
			<path style="opacity:0.69;fill:#B8B533;enable-background:new    ;" d="M158.138,429.968c-0.165,0.327-0.358,0.594-0.569,0.829
				c0.014,0.084,0.024,0.171,0.027,0.264c0.064,1.994-0.735,4.428-2.866,4.46h-0.002c0.855,1.526,3.383,2.699,4.334,3.745
				c1.002,1.105,2.144,5.365,9.083,9.38c3.291,1.904,12.252,1.466,15.838-0.209c2.637-1.231,5.88-5.634,6.621-6.951
				c0.738-1.308,1.946-1.788,2.924-2.821c1.031-1.087,1.172-2.87,0.826-4.414c0.147-2.37-1.611-2.911-3.235-5.593
				c0.083,1.238,0.049,2.479-0.102,3.687c-0.682,5.457-4.106,8.964-8.519,11.038c-3.495,1.644-7.376,2.787-11.151,2.269
				c-12.274-1.682-14.089-9.616-12.899-16.396C158.327,429.55,158.228,429.792,158.138,429.968z"/>
			<path style="opacity:0.56;fill:#B99E30;enable-background:new    ;" d="M178.823,446.145c-4.748,1.436-9.922,1.473-14.251-1.409
				c-3.485-2.319-6.371-6.017-6.68-10.576c-0.189,0.589-0.172,1.723-0.54,2.193c-0.424,0.539-1.227,0.201-1.768,0.207
				c1.118,1.043,2.754,1.911,3.477,2.708c0.829,0.915,1.758,3.989,5.983,7.298c2.04,1.073,4.509,2.05,6.729,2.25
				c3.541,0.317,7.018,0.59,10.315-0.929c5.668-2.61,8.254-7.265,9.285-8.294c1.129-1.124,2.457-2.123,2.741-3.904
				c0.233-1.471-0.287-2.974-0.862-4.29c-0.26-0.306-0.547-0.622-0.853-0.982c0.008,0.075,0.018,0.15,0.026,0.226
				c0.261,2.746-0.218,5.256-1.72,7.49C187.938,442.248,183.213,444.816,178.823,446.145z"/>
			
				<linearGradient id="SVGID_6_" gradientUnits="userSpaceOnUse" x1="174.6187" y1="407.9466" x2="175.8614" y2="422.1497" gradientTransform="matrix(1 0 0 -1 0 842.11)">
				<stop  offset="0.0364" style="stop-color:#EEEA4C"/>
				<stop  offset="0.8545" style="stop-color:#FCF5A7"/>
			</linearGradient>
			<path style="opacity:0.44;fill:url(#SVGID_6_);enable-background:new    ;" d="M179.51,428.016
				c1.717,0.475,3.675,1.109,5.159,2.196c1.314,0.96,2.404,2.353,3.533,3.402c1.577-0.607,2.049-2.418,1.409-3.904
				c-2.792-6.479-8.359-9.757-14.589-9.757c-3.414,0-5.506,0.348-8.582,1.785c-2.369,1.108-6.344,4.056-6.702,11.123
				c2.58-4.201,5.857-5.661,8.91-5.825C172.244,426.843,176.074,427.065,179.51,428.016z"/>
			<path style="opacity:0.52;fill:#FAF9D5;enable-background:new    ;" d="M164.037,426.406c1.056-0.678,2.216-1.203,3.345-1.589
				c2.355-0.807,4.827-1.373,7.449-1.373c1.613,0,3.142,0.2,4.679,0.447c1.066,0.172,3.507,1.476,4.495,1.041
				c1.541-0.681-1.677-2.281-2.276-2.57c-1.293-0.628-2.869-0.915-4.325-1.133c-3.009-0.45-6.198-0.065-9.07,0.95
				c-2.3,0.812-6.38,2.91-6.779,6.028l0.096,0.106C161.736,427.991,163.439,426.791,164.037,426.406z"/>
		</g>
	</g>
</g>
<g>
	<g>
		<g>
			<path style="fill:#D8DC41;" d="M170.727,290.383c-0.607-1.339-4.9-5.514-6.042-6.268c-5.492-3.628-14.764-3.228-17.753-1.561
				c-6.411,3.575-7.778,9.078-8.486,10.472c-0.69,1.358-1.841,1.714-2.826,2.743c-2.917,3.04,2.285,4.944,3.749,6.556
				c1.002,1.105,2.144,5.365,9.083,9.38c3.292,1.904,12.252,1.466,15.838-0.209c2.637-1.231,5.879-5.634,6.621-6.951
				c0.738-1.308,1.946-1.788,2.924-2.821c1.031-1.087,1.172-2.87,0.826-4.414C174.83,294.591,172.493,294.279,170.727,290.383z"/>
			<path style="fill:#D3D331;" d="M174.661,297.308c0.17-2.717-2.168-3.029-3.934-6.925c-0.264-0.581-1.221-1.693-2.312-2.829
				c-1.823,6.822-8.736,12.19-14.75,13.448c-4.016,0.84-8.934,0.486-11.429-3.667c-1.654-2.755-1.92-6.14-1.293-9.325
				c-1.514,2.245-2.108,4.25-2.497,5.016c-0.69,1.358-1.841,1.714-2.826,2.743c-2.917,3.04,2.285,4.944,3.749,6.556
				c1.002,1.105,2.144,5.365,9.083,9.38c3.292,1.904,12.252,1.466,15.838-0.209c2.637-1.231,5.879-5.634,6.621-6.951
				c0.738-1.308,1.946-1.788,2.924-2.821C174.866,300.635,175.007,298.851,174.661,297.308z"/>
			<path style="opacity:0.43;fill:#C3BE30;enable-background:new    ;" d="M138.446,293.025c-0.69,1.358-1.841,1.714-2.826,2.743
				c-2.917,3.04,2.285,4.944,3.749,6.556c1.002,1.105,2.144,5.365,9.083,9.38c3.292,1.904,12.252,1.466,15.838-0.209
				c2.637-1.231,5.879-5.634,6.621-6.951c0.738-1.308,1.946-1.788,2.924-2.821c1.031-1.087,1.172-2.87,0.826-4.414
				c0.17-2.716-2.168-3.029-3.934-6.925c-0.607-1.339-4.9-5.514-6.042-6.268c-0.412-0.271-0.845-0.518-1.293-0.745
				c0.654,0.84,1.183,1.846,1.544,3.057c1.455,4.889,0.168,9.816-2.943,13.49c-2.641,3.12-6.305,5.572-10.126,6.363
				c-3.597,0.745-7.712,0.143-10.138-3.223c-1.619-2.244-2.657-5.156-2.609-8.057c0.037-2.165,0.572-4.187,1.285-6.152
				C139.279,290.743,138.786,292.357,138.446,293.025z"/>
			<path style="opacity:0.69;fill:#B8B533;enable-background:new    ;" d="M138.446,293.025c-0.165,0.327-0.358,0.594-0.569,0.829
				c0.014,0.084,0.024,0.171,0.027,0.264c0.064,1.994-0.735,4.428-2.866,4.46h-0.002c0.855,1.526,3.383,2.699,4.334,3.745
				c1.002,1.105,2.144,5.365,9.083,9.38c3.292,1.904,12.252,1.466,15.838-0.209c2.637-1.231,5.879-5.634,6.621-6.951
				c0.738-1.308,1.946-1.788,2.924-2.821c1.031-1.087,1.172-2.87,0.826-4.414c0.147-2.37-1.611-2.911-3.235-5.593
				c0.083,1.238,0.049,2.479-0.102,3.686c-0.682,5.457-4.106,8.964-8.519,11.038c-3.495,1.644-7.376,2.787-11.151,2.269
				c-12.274-1.682-14.089-9.616-12.899-16.396C138.636,292.605,138.537,292.849,138.446,293.025z"/>
			<path style="opacity:0.56;fill:#B99E30;enable-background:new    ;" d="M159.132,309.201c-4.748,1.436-9.922,1.472-14.251-1.409
				c-3.485-2.319-6.371-6.017-6.68-10.576c-0.189,0.589-0.172,1.723-0.54,2.193c-0.424,0.539-1.227,0.201-1.768,0.207
				c1.118,1.043,2.754,1.911,3.477,2.708c0.83,0.915,1.758,3.989,5.983,7.298c2.04,1.073,4.509,2.05,6.729,2.249
				c3.54,0.317,7.018,0.59,10.315-0.929c5.668-2.61,8.254-7.265,9.285-8.294c1.129-1.124,2.458-2.123,2.741-3.904
				c0.233-1.471-0.287-2.974-0.862-4.29c-0.26-0.306-0.547-0.622-0.853-0.982c0.008,0.075,0.018,0.15,0.027,0.226
				c0.261,2.746-0.218,5.256-1.72,7.49C168.247,305.304,163.522,307.872,159.132,309.201z"/>
			
				<linearGradient id="SVGID_7_" gradientUnits="userSpaceOnUse" x1="154.9268" y1="544.8923" x2="156.1694" y2="559.0955" gradientTransform="matrix(1 0 0 -1 0 842.11)">
				<stop  offset="0.0364" style="stop-color:#EEEA4C"/>
				<stop  offset="0.8545" style="stop-color:#FCF5A7"/>
			</linearGradient>
			<path style="opacity:0.44;fill:url(#SVGID_7_);enable-background:new    ;" d="M159.818,291.072
				c1.717,0.475,3.675,1.109,5.159,2.196c1.313,0.96,2.404,2.353,3.533,3.402c1.577-0.607,2.049-2.418,1.409-3.904
				c-2.792-6.479-8.359-9.758-14.589-9.758c-3.414,0-5.506,0.348-8.582,1.785c-2.369,1.108-6.344,4.056-6.702,11.123
				c2.58-4.201,5.857-5.661,8.91-5.824C152.552,289.899,156.382,290.122,159.818,291.072z"/>
			<path style="opacity:0.52;fill:#FAF9D5;enable-background:new    ;" d="M144.346,289.462c1.056-0.678,2.216-1.203,3.345-1.589
				c2.355-0.806,4.827-1.373,7.449-1.373c1.613,0,3.142,0.2,4.679,0.447c1.066,0.172,3.507,1.476,4.495,1.041
				c1.541-0.681-1.677-2.281-2.276-2.57c-1.293-0.628-2.869-0.915-4.325-1.133c-3.009-0.45-6.198-0.065-9.07,0.95
				c-2.3,0.812-6.38,2.91-6.779,6.028l0.096,0.106C142.044,291.048,143.747,289.847,144.346,289.462z"/>
		</g>
	</g>
	<g>
		<g>
			<path style="fill:#D8DC41;" d="M215.412,302.565c-0.607-1.339-4.9-5.514-6.042-6.268c-5.492-3.628-14.764-3.228-17.753-1.561
				c-6.411,3.575-7.778,9.078-8.486,10.472c-0.69,1.358-1.841,1.714-2.826,2.743c-2.917,3.04,2.285,4.944,3.749,6.556
				c1.002,1.105,2.144,5.365,9.083,9.38c3.292,1.904,12.252,1.466,15.838-0.209c2.637-1.231,5.879-5.634,6.621-6.951
				c0.738-1.308,1.946-1.788,2.924-2.821c1.031-1.087,1.172-2.87,0.826-4.414C219.515,306.773,217.178,306.46,215.412,302.565z"/>
			<path style="fill:#D3D331;" d="M219.346,309.49c0.169-2.717-2.168-3.029-3.934-6.925c-0.264-0.581-1.221-1.693-2.313-2.829
				c-1.823,6.822-8.736,12.19-14.75,13.448c-4.016,0.84-8.934,0.486-11.429-3.667c-1.655-2.755-1.921-6.14-1.293-9.325
				c-1.514,2.245-2.109,4.25-2.497,5.016c-0.69,1.358-1.841,1.714-2.826,2.743c-2.917,3.04,2.285,4.944,3.749,6.556
				c1.002,1.105,2.144,5.365,9.083,9.38c3.292,1.904,12.252,1.466,15.838-0.209c2.637-1.231,5.879-5.634,6.621-6.951
				c0.738-1.308,1.946-1.788,2.924-2.821C219.551,312.816,219.692,311.033,219.346,309.49z"/>
			<path style="opacity:0.43;fill:#C3BE30;enable-background:new    ;" d="M183.131,305.207c-0.69,1.358-1.841,1.714-2.826,2.743
				c-2.917,3.04,2.285,4.944,3.749,6.556c1.002,1.105,2.144,5.365,9.083,9.38c3.292,1.904,12.252,1.466,15.838-0.209
				c2.637-1.231,5.879-5.634,6.621-6.951c0.738-1.308,1.946-1.788,2.924-2.821c1.031-1.087,1.172-2.87,0.826-4.414
				c0.169-2.717-2.168-3.029-3.934-6.925c-0.607-1.339-4.9-5.514-6.042-6.268c-0.412-0.271-0.845-0.518-1.293-0.745
				c0.654,0.84,1.183,1.846,1.544,3.057c1.455,4.889,0.168,9.816-2.943,13.49c-2.641,3.12-6.305,5.572-10.126,6.363
				c-3.597,0.745-7.712,0.143-10.138-3.223c-1.619-2.244-2.657-5.156-2.609-8.057c0.037-2.165,0.572-4.187,1.285-6.152
				C183.964,302.924,183.471,304.538,183.131,305.207z"/>
			<path style="opacity:0.69;fill:#B8B533;enable-background:new    ;" d="M183.131,305.207c-0.165,0.327-0.358,0.594-0.569,0.829
				c0.014,0.084,0.024,0.171,0.027,0.264c0.064,1.994-0.735,4.428-2.866,4.46h-0.002c0.855,1.526,3.383,2.699,4.334,3.745
				c1.002,1.105,2.144,5.365,9.083,9.38c3.292,1.904,12.252,1.466,15.838-0.209c2.637-1.231,5.879-5.634,6.621-6.951
				c0.738-1.308,1.946-1.788,2.924-2.821c1.031-1.087,1.172-2.87,0.826-4.414c0.147-2.37-1.611-2.911-3.236-5.593
				c0.083,1.238,0.049,2.479-0.102,3.686c-0.682,5.457-4.106,8.964-8.519,11.038c-3.495,1.644-7.376,2.787-11.151,2.269
				c-12.274-1.682-14.089-9.616-12.899-16.396C183.32,304.787,183.222,305.031,183.131,305.207z"/>
			<path style="opacity:0.56;fill:#B99E30;enable-background:new    ;" d="M203.817,321.382c-4.748,1.436-9.922,1.472-14.251-1.409
				c-3.485-2.319-6.371-6.017-6.68-10.576c-0.189,0.589-0.172,1.723-0.54,2.193c-0.424,0.539-1.227,0.201-1.768,0.207
				c1.118,1.043,2.754,1.911,3.477,2.708c0.829,0.915,1.758,3.989,5.983,7.298c2.04,1.073,4.509,2.05,6.729,2.249
				c3.54,0.317,7.018,0.59,10.315-0.929c5.668-2.61,8.254-7.265,9.285-8.294c1.129-1.124,2.458-2.123,2.741-3.904
				c0.233-1.471-0.287-2.974-0.862-4.29c-0.26-0.306-0.547-0.622-0.853-0.982c0.008,0.075,0.018,0.15,0.026,0.226
				c0.261,2.746-0.218,5.256-1.72,7.49C212.932,317.485,208.206,320.054,203.817,321.382z"/>
			
				<linearGradient id="SVGID_8_" gradientUnits="userSpaceOnUse" x1="199.6118" y1="532.7091" x2="200.8543" y2="546.9121" gradientTransform="matrix(1 0 0 -1 0 842.11)">
				<stop  offset="0.0364" style="stop-color:#EEEA4C"/>
				<stop  offset="0.8545" style="stop-color:#FCF5A7"/>
			</linearGradient>
			<path style="opacity:0.44;fill:url(#SVGID_8_);enable-background:new    ;" d="M204.503,303.254
				c1.717,0.475,3.675,1.109,5.159,2.196c1.314,0.96,2.404,2.353,3.533,3.402c1.577-0.607,2.049-2.418,1.409-3.904
				c-2.792-6.479-8.359-9.757-14.589-9.757c-3.414,0-5.506,0.348-8.582,1.785c-2.369,1.108-6.344,4.056-6.702,11.123
				c2.58-4.201,5.857-5.661,8.91-5.824C197.237,302.082,201.067,302.304,204.503,303.254z"/>
			<path style="opacity:0.52;fill:#FAF9D5;enable-background:new    ;" d="M189.031,301.643c1.056-0.678,2.216-1.203,3.344-1.589
				c2.355-0.807,4.827-1.373,7.449-1.373c1.613,0,3.142,0.2,4.679,0.447c1.066,0.172,3.507,1.476,4.495,1.041
				c1.541-0.681-1.677-2.281-2.276-2.57c-1.293-0.628-2.869-0.915-4.325-1.133c-3.009-0.45-6.198-0.065-9.07,0.95
				c-2.3,0.812-6.381,2.91-6.779,6.028l0.096,0.106C186.729,303.229,188.432,302.029,189.031,301.643z"/>
		</g>
	</g>
	<g>
		<g>
			<path style="fill:#D8DC41;" d="M236.671,338.986c-0.607-1.339-4.9-5.514-6.042-6.268c-5.492-3.628-14.764-3.228-17.753-1.561
				c-6.411,3.575-7.778,9.078-8.486,10.472c-0.69,1.358-1.841,1.714-2.826,2.743c-2.917,3.04,2.285,4.944,3.749,6.556
				c1.002,1.105,2.144,5.365,9.083,9.38c3.292,1.904,12.252,1.466,15.838-0.209c2.637-1.231,5.879-5.634,6.621-6.951
				c0.738-1.308,1.946-1.788,2.924-2.821c1.031-1.087,1.172-2.87,0.826-4.414C240.775,343.194,238.437,342.88,236.671,338.986z"/>
			<path style="fill:#D3D331;" d="M240.605,345.91c0.169-2.716-2.168-3.029-3.934-6.925c-0.264-0.581-1.221-1.693-2.312-2.829
				c-1.823,6.822-8.736,12.19-14.75,13.448c-4.016,0.84-8.934,0.486-11.429-3.667c-1.655-2.753-1.921-6.14-1.293-9.325
				c-1.514,2.245-2.108,4.25-2.497,5.016c-0.69,1.358-1.841,1.714-2.826,2.743c-2.917,3.04,2.285,4.944,3.749,6.556
				c1.002,1.105,2.144,5.365,9.083,9.38c3.292,1.904,12.252,1.466,15.838-0.209c2.637-1.231,5.879-5.634,6.621-6.951
				c0.738-1.308,1.946-1.788,2.924-2.821C240.81,349.237,240.951,347.453,240.605,345.91z"/>
			<path style="opacity:0.43;fill:#C3BE30;enable-background:new    ;" d="M204.39,341.627c-0.69,1.358-1.841,1.714-2.826,2.743
				c-2.917,3.04,2.285,4.944,3.749,6.556c1.002,1.105,2.144,5.365,9.083,9.38c3.292,1.904,12.252,1.466,15.838-0.209
				c2.637-1.231,5.879-5.634,6.621-6.951c0.738-1.308,1.946-1.788,2.924-2.821c1.031-1.087,1.172-2.87,0.826-4.414
				c0.169-2.716-2.168-3.029-3.934-6.925c-0.607-1.339-4.9-5.514-6.042-6.268c-0.412-0.271-0.845-0.518-1.293-0.745
				c0.654,0.84,1.183,1.846,1.544,3.057c1.455,4.889,0.168,9.816-2.943,13.49c-2.641,3.12-6.305,5.572-10.126,6.363
				c-3.597,0.745-7.712,0.143-10.138-3.223c-1.619-2.244-2.657-5.156-2.609-8.057c0.037-2.165,0.572-4.187,1.285-6.152
				C205.223,339.344,204.73,340.96,204.39,341.627z"/>
			<path style="opacity:0.69;fill:#B8B533;enable-background:new    ;" d="M204.39,341.627c-0.165,0.327-0.358,0.595-0.569,0.829
				c0.014,0.084,0.024,0.171,0.027,0.264c0.064,1.994-0.735,4.428-2.866,4.46h-0.002c0.855,1.526,3.383,2.699,4.334,3.745
				c1.002,1.105,2.144,5.365,9.083,9.38c3.292,1.904,12.252,1.466,15.838-0.209c2.637-1.231,5.879-5.634,6.621-6.951
				c0.738-1.308,1.946-1.788,2.924-2.821c1.031-1.087,1.172-2.87,0.826-4.414c0.147-2.37-1.611-2.911-3.236-5.593
				c0.083,1.238,0.049,2.479-0.102,3.686c-0.682,5.457-4.106,8.964-8.519,11.038c-3.495,1.644-7.376,2.787-11.151,2.269
				c-12.274-1.682-14.089-9.616-12.899-16.396C204.58,341.208,204.481,341.451,204.39,341.627z"/>
			<path style="opacity:0.56;fill:#B99E30;enable-background:new    ;" d="M225.076,357.803c-4.748,1.436-9.922,1.472-14.251-1.409
				c-3.485-2.319-6.371-6.017-6.68-10.576c-0.189,0.589-0.172,1.723-0.54,2.193c-0.424,0.539-1.227,0.201-1.768,0.207
				c1.118,1.043,2.754,1.911,3.477,2.708c0.829,0.913,1.758,3.989,5.983,7.298c2.04,1.073,4.509,2.05,6.729,2.25
				c3.54,0.317,7.018,0.59,10.315-0.929c5.668-2.61,8.254-7.265,9.285-8.294c1.129-1.124,2.458-2.123,2.741-3.904
				c0.233-1.471-0.287-2.974-0.862-4.29c-0.26-0.306-0.547-0.622-0.853-0.982c0.008,0.075,0.018,0.15,0.026,0.226
				c0.261,2.746-0.218,5.256-1.72,7.49C234.191,353.907,229.466,356.475,225.076,357.803z"/>
			
				<linearGradient id="SVGID_9_" gradientUnits="userSpaceOnUse" x1="220.8708" y1="496.2898" x2="222.1134" y2="510.4928" gradientTransform="matrix(1 0 0 -1 0 842.11)">
				<stop  offset="0.0364" style="stop-color:#EEEA4C"/>
				<stop  offset="0.8545" style="stop-color:#FCF5A7"/>
			</linearGradient>
			<path style="opacity:0.44;fill:url(#SVGID_9_);enable-background:new    ;" d="M225.762,339.674
				c1.717,0.475,3.675,1.109,5.159,2.196c1.314,0.96,2.404,2.353,3.533,3.402c1.577-0.607,2.049-2.418,1.409-3.904
				c-2.792-6.479-8.358-9.758-14.589-9.758c-3.414,0-5.506,0.348-8.582,1.785c-2.369,1.108-6.344,4.056-6.702,11.123
				c2.58-4.201,5.857-5.662,8.91-5.825C218.496,338.502,222.327,338.724,225.762,339.674z"/>
			<path style="opacity:0.52;fill:#FAF9D5;enable-background:new    ;" d="M210.29,338.065c1.056-0.678,2.216-1.203,3.345-1.59
				c2.355-0.806,4.827-1.373,7.449-1.373c1.613,0,3.142,0.2,4.679,0.447c1.066,0.172,3.507,1.476,4.495,1.041
				c1.541-0.681-1.677-2.281-2.276-2.57c-1.293-0.628-2.869-0.915-4.325-1.133c-3.009-0.45-6.198-0.065-9.07,0.95
				c-2.3,0.812-6.38,2.91-6.779,6.028l0.096,0.106C207.988,339.65,209.691,338.45,210.29,338.065z"/>
		</g>
	</g>
	<g>
		<g>
			<path style="fill:#D8DC41;" d="M178.56,329.084c-0.607-1.339-4.9-5.514-6.042-6.268c-5.492-3.628-14.764-3.228-17.753-1.561
				c-6.411,3.575-7.778,9.078-8.486,10.472c-0.69,1.358-1.841,1.714-2.826,2.743c-2.917,3.04,2.285,4.944,3.749,6.556
				c1.002,1.105,2.144,5.365,9.083,9.38c3.292,1.904,12.252,1.466,15.838-0.209c2.637-1.231,5.879-5.634,6.621-6.951
				c0.738-1.308,1.946-1.788,2.924-2.821c1.031-1.087,1.172-2.87,0.826-4.414C182.664,333.292,180.326,332.98,178.56,329.084z"/>
			<path style="fill:#D3D331;" d="M182.494,336.009c0.17-2.717-2.168-3.029-3.934-6.925c-0.264-0.581-1.221-1.693-2.312-2.829
				c-1.823,6.822-8.736,12.19-14.75,13.448c-4.016,0.84-8.934,0.486-11.429-3.667c-1.655-2.755-1.921-6.14-1.293-9.325
				c-1.514,2.245-2.108,4.25-2.497,5.016c-0.69,1.358-1.841,1.714-2.826,2.743c-2.917,3.04,2.285,4.944,3.749,6.556
				c1.002,1.105,2.144,5.365,9.083,9.38c3.292,1.904,12.252,1.466,15.838-0.209c2.637-1.231,5.879-5.634,6.621-6.951
				c0.738-1.308,1.946-1.788,2.924-2.821C182.699,339.336,182.841,337.552,182.494,336.009z"/>
			<path style="opacity:0.43;fill:#C3BE30;enable-background:new    ;" d="M146.28,331.726c-0.69,1.358-1.841,1.714-2.826,2.743
				c-2.917,3.04,2.285,4.944,3.749,6.556c1.002,1.105,2.144,5.365,9.083,9.38c3.292,1.904,12.252,1.466,15.838-0.209
				c2.637-1.231,5.879-5.634,6.621-6.951c0.738-1.308,1.946-1.788,2.924-2.821c1.031-1.087,1.172-2.87,0.826-4.414
				c0.17-2.716-2.168-3.029-3.934-6.925c-0.607-1.339-4.9-5.514-6.042-6.268c-0.412-0.271-0.845-0.518-1.293-0.745
				c0.654,0.84,1.183,1.846,1.544,3.057c1.455,4.889,0.168,9.816-2.943,13.49c-2.641,3.12-6.305,5.572-10.126,6.363
				c-3.597,0.745-7.712,0.143-10.138-3.223c-1.619-2.244-2.657-5.156-2.609-8.057c0.037-2.165,0.572-4.187,1.285-6.152
				C147.112,329.443,146.619,331.058,146.28,331.726z"/>
			<path style="opacity:0.69;fill:#B8B533;enable-background:new    ;" d="M146.28,331.726c-0.165,0.327-0.358,0.595-0.569,0.829
				c0.014,0.084,0.024,0.171,0.027,0.264c0.064,1.994-0.735,4.428-2.866,4.46h-0.002c0.855,1.526,3.383,2.699,4.334,3.745
				c1.002,1.105,2.144,5.365,9.083,9.38c3.292,1.904,12.252,1.466,15.838-0.209c2.637-1.231,5.879-5.634,6.621-6.951
				c0.738-1.308,1.946-1.788,2.924-2.821c1.031-1.087,1.172-2.87,0.826-4.414c0.147-2.37-1.611-2.911-3.235-5.593
				c0.083,1.238,0.049,2.479-0.102,3.686c-0.682,5.457-4.106,8.964-8.519,11.038c-3.495,1.644-7.376,2.787-11.151,2.269
				c-12.274-1.682-14.089-9.616-12.899-16.396C146.469,331.306,146.37,331.55,146.28,331.726z"/>
			<path style="opacity:0.56;fill:#B99E30;enable-background:new    ;" d="M166.965,347.901c-4.748,1.436-9.922,1.472-14.251-1.409
				c-3.485-2.319-6.371-6.017-6.68-10.576c-0.189,0.589-0.172,1.723-0.54,2.193c-0.424,0.539-1.227,0.201-1.768,0.207
				c1.118,1.043,2.754,1.911,3.477,2.708c0.829,0.913,1.758,3.989,5.983,7.298c2.04,1.073,4.509,2.05,6.729,2.25
				c3.54,0.317,7.018,0.59,10.315-0.929c5.668-2.61,8.254-7.265,9.285-8.294c1.129-1.124,2.458-2.123,2.741-3.904
				c0.233-1.471-0.287-2.974-0.862-4.29c-0.26-0.306-0.547-0.622-0.853-0.982c0.008,0.075,0.018,0.15,0.027,0.226
				c0.261,2.746-0.218,5.256-1.72,7.49C176.08,344.005,171.355,346.573,166.965,347.901z"/>
			
				<linearGradient id="SVGID_10_" gradientUnits="userSpaceOnUse" x1="162.7602" y1="506.1912" x2="164.0028" y2="520.3943" gradientTransform="matrix(1 0 0 -1 0 842.11)">
				<stop  offset="0.0364" style="stop-color:#EEEA4C"/>
				<stop  offset="0.8545" style="stop-color:#FCF5A7"/>
			</linearGradient>
			<path style="opacity:0.44;fill:url(#SVGID_10_);enable-background:new    ;" d="M167.652,329.773
				c1.717,0.475,3.674,1.109,5.159,2.196c1.314,0.96,2.404,2.353,3.533,3.402c1.577-0.607,2.049-2.418,1.408-3.904
				c-2.792-6.479-8.358-9.758-14.589-9.758c-3.414,0-5.506,0.348-8.582,1.785c-2.369,1.108-6.344,4.056-6.702,11.123
				c2.58-4.201,5.857-5.661,8.91-5.825C160.386,328.601,164.216,328.823,167.652,329.773z"/>
			<path style="opacity:0.52;fill:#FAF9D5;enable-background:new    ;" d="M152.179,328.163c1.056-0.678,2.216-1.203,3.345-1.589
				c2.355-0.806,4.827-1.373,7.449-1.373c1.613,0,3.142,0.2,4.679,0.447c1.066,0.172,3.507,1.475,4.495,1.041
				c1.541-0.681-1.677-2.281-2.276-2.57c-1.293-0.628-2.869-0.915-4.325-1.133c-3.009-0.45-6.198-0.065-9.07,0.95
				c-2.3,0.812-6.38,2.91-6.779,6.028l0.096,0.106C149.878,329.748,151.581,328.548,152.179,328.163z"/>
		</g>
	</g>
	<g>
		<g>
			<path style="fill:#D8DC41;" d="M202.69,363.463c-0.607-1.339-4.9-5.514-6.042-6.268c-5.492-3.628-14.764-3.228-17.753-1.561
				c-6.411,3.575-7.778,9.078-8.486,10.472c-0.69,1.358-1.841,1.714-2.826,2.743c-2.917,3.04,2.285,4.944,3.749,6.556
				c1.002,1.105,2.144,5.365,9.083,9.38c3.292,1.904,12.252,1.466,15.838-0.209c2.637-1.231,5.879-5.634,6.621-6.951
				c0.738-1.308,1.946-1.788,2.924-2.821c1.031-1.087,1.172-2.87,0.826-4.414C206.793,367.671,204.455,367.359,202.69,363.463z"/>
			<path style="fill:#D3D331;" d="M206.623,370.388c0.17-2.716-2.168-3.029-3.934-6.925c-0.264-0.581-1.221-1.693-2.312-2.829
				c-1.823,6.822-8.736,12.19-14.75,13.448c-4.016,0.84-8.934,0.486-11.429-3.667c-1.655-2.753-1.92-6.14-1.293-9.326
				c-1.514,2.245-2.108,4.25-2.497,5.016c-0.69,1.358-1.841,1.714-2.826,2.743c-2.917,3.04,2.285,4.944,3.749,6.556
				c1.002,1.105,2.144,5.365,9.083,9.38c3.292,1.904,12.252,1.466,15.838-0.209c2.637-1.231,5.879-5.634,6.621-6.951
				c0.738-1.308,1.946-1.788,2.924-2.821C206.828,373.715,206.97,371.932,206.623,370.388z"/>
			<path style="opacity:0.43;fill:#C3BE30;enable-background:new    ;" d="M170.409,366.104c-0.69,1.358-1.841,1.714-2.826,2.743
				c-2.917,3.04,2.285,4.944,3.749,6.556c1.002,1.105,2.144,5.365,9.083,9.38c3.292,1.904,12.252,1.466,15.838-0.209
				c2.637-1.231,5.879-5.634,6.621-6.951c0.738-1.308,1.946-1.788,2.924-2.821c1.031-1.087,1.172-2.87,0.826-4.414
				c0.17-2.716-2.168-3.029-3.934-6.925c-0.607-1.339-4.9-5.514-6.042-6.268c-0.412-0.271-0.845-0.518-1.293-0.745
				c0.654,0.84,1.183,1.846,1.544,3.057c1.455,4.889,0.168,9.816-2.943,13.49c-2.641,3.12-6.305,5.572-10.126,6.363
				c-3.597,0.745-7.712,0.143-10.138-3.223c-1.619-2.244-2.657-5.156-2.609-8.057c0.037-2.165,0.572-4.187,1.285-6.152
				C171.241,363.823,170.748,365.437,170.409,366.104z"/>
			<path style="opacity:0.69;fill:#B8B533;enable-background:new    ;" d="M170.409,366.104c-0.165,0.327-0.358,0.595-0.569,0.829
				c0.014,0.084,0.024,0.171,0.027,0.264c0.064,1.994-0.735,4.428-2.866,4.46h-0.002c0.855,1.526,3.383,2.699,4.334,3.745
				c1.002,1.105,2.144,5.365,9.083,9.38c3.292,1.904,12.252,1.466,15.838-0.209c2.637-1.231,5.879-5.634,6.621-6.951
				c0.738-1.308,1.946-1.788,2.924-2.821c1.031-1.087,1.172-2.87,0.826-4.414c0.147-2.37-1.611-2.911-3.235-5.593
				c0.083,1.238,0.049,2.479-0.102,3.686c-0.682,5.457-4.106,8.964-8.519,11.038c-3.495,1.644-7.376,2.787-11.151,2.269
				c-12.274-1.682-14.089-9.617-12.899-16.396C170.598,365.685,170.499,365.929,170.409,366.104z"/>
			<path style="opacity:0.56;fill:#B99E30;enable-background:new    ;" d="M191.094,382.28c-4.748,1.436-9.922,1.473-14.251-1.409
				c-3.485-2.319-6.371-6.017-6.68-10.576c-0.189,0.589-0.172,1.724-0.54,2.193c-0.424,0.539-1.227,0.201-1.768,0.207
				c1.118,1.043,2.754,1.911,3.477,2.708c0.83,0.915,1.758,3.989,5.983,7.298c2.04,1.073,4.509,2.05,6.729,2.25
				c3.54,0.317,7.018,0.59,10.315-0.929c5.668-2.61,8.254-7.265,9.285-8.294c1.129-1.124,2.458-2.123,2.741-3.904
				c0.233-1.471-0.287-2.974-0.862-4.29c-0.26-0.306-0.547-0.622-0.853-0.982c0.008,0.075,0.018,0.15,0.027,0.226
				c0.261,2.746-0.218,5.256-1.72,7.49C200.209,378.384,195.484,380.952,191.094,382.28z"/>
			
				<linearGradient id="SVGID_11_" gradientUnits="userSpaceOnUse" x1="186.8892" y1="471.8125" x2="188.1318" y2="486.0157" gradientTransform="matrix(1 0 0 -1 0 842.11)">
				<stop  offset="0.0364" style="stop-color:#EEEA4C"/>
				<stop  offset="0.8545" style="stop-color:#FCF5A7"/>
			</linearGradient>
			<path style="opacity:0.44;fill:url(#SVGID_11_);enable-background:new    ;" d="M191.781,364.152
				c1.717,0.475,3.675,1.109,5.159,2.196c1.314,0.96,2.404,2.353,3.533,3.402c1.577-0.607,2.049-2.418,1.408-3.904
				c-2.792-6.479-8.358-9.758-14.589-9.758c-3.414,0-5.506,0.348-8.582,1.785c-2.369,1.108-6.344,4.056-6.702,11.123
				c2.58-4.201,5.857-5.661,8.91-5.825C184.515,362.979,188.345,363.201,191.781,364.152z"/>
			<path style="opacity:0.52;fill:#FAF9D5;enable-background:new    ;" d="M176.308,362.542c1.056-0.678,2.216-1.203,3.345-1.59
				c2.355-0.807,4.827-1.372,7.449-1.372c1.613,0,3.142,0.2,4.679,0.447c1.066,0.172,3.507,1.475,4.495,1.041
				c1.541-0.681-1.677-2.281-2.276-2.57c-1.293-0.63-2.869-0.915-4.325-1.133c-3.009-0.45-6.198-0.065-9.07,0.95
				c-2.3,0.812-6.38,2.91-6.779,6.028l0.096,0.106C174.007,364.128,175.71,362.927,176.308,362.542z"/>
		</g>
	</g>
	<g>
		<g>
			<path style="fill:#D8DC41;" d="M173.92,391.947c-0.607-1.339-4.9-5.514-6.042-6.268c-5.492-3.628-14.764-3.228-17.753-1.561
				c-6.411,3.575-7.778,9.078-8.486,10.472c-0.69,1.358-1.841,1.714-2.826,2.741c-2.917,3.04,2.285,4.944,3.749,6.556
				c1.002,1.103,2.144,5.365,9.083,9.38c3.291,1.904,12.252,1.466,15.838-0.209c2.637-1.231,5.879-5.634,6.621-6.951
				c0.738-1.308,1.946-1.788,2.924-2.821c1.031-1.087,1.172-2.87,0.826-4.414C178.023,396.156,175.686,395.843,173.92,391.947z"/>
			<path style="fill:#D3D331;" d="M177.854,398.872c0.169-2.716-2.168-3.029-3.934-6.925c-0.264-0.581-1.221-1.693-2.313-2.829
				c-1.823,6.822-8.736,12.19-14.75,13.448c-4.016,0.84-8.934,0.486-11.429-3.667c-1.655-2.753-1.921-6.14-1.293-9.325
				c-1.514,2.245-2.109,4.25-2.497,5.016c-0.69,1.358-1.841,1.714-2.826,2.741c-2.917,3.04,2.285,4.944,3.749,6.556
				c1.002,1.103,2.144,5.365,9.083,9.38c3.291,1.904,12.252,1.466,15.838-0.209c2.637-1.231,5.879-5.634,6.621-6.951
				c0.738-1.308,1.946-1.788,2.924-2.821C178.059,402.199,178.2,400.417,177.854,398.872z"/>
			<path style="opacity:0.43;fill:#C3BE30;enable-background:new    ;" d="M141.639,394.589c-0.69,1.358-1.841,1.714-2.826,2.741
				c-2.917,3.04,2.285,4.944,3.749,6.556c1.002,1.103,2.144,5.365,9.083,9.38c3.291,1.904,12.252,1.466,15.838-0.209
				c2.637-1.231,5.879-5.634,6.621-6.951c0.738-1.308,1.946-1.788,2.924-2.821c1.031-1.087,1.172-2.87,0.826-4.414
				c0.169-2.716-2.168-3.029-3.934-6.925c-0.607-1.339-4.9-5.514-6.042-6.268c-0.412-0.271-0.845-0.518-1.293-0.745
				c0.654,0.84,1.183,1.846,1.544,3.057c1.455,4.889,0.168,9.816-2.943,13.49c-2.641,3.12-6.305,5.572-10.126,6.363
				c-3.597,0.745-7.712,0.143-10.138-3.223c-1.618-2.244-2.657-5.156-2.609-8.057c0.037-2.165,0.572-4.187,1.285-6.152
				C142.472,392.307,141.979,393.922,141.639,394.589z"/>
			<path style="opacity:0.69;fill:#B8B533;enable-background:new    ;" d="M141.639,394.589c-0.165,0.327-0.358,0.594-0.569,0.829
				c0.014,0.084,0.024,0.171,0.027,0.264c0.064,1.994-0.735,4.428-2.866,4.46h-0.002c0.855,1.526,3.383,2.699,4.334,3.745
				c1.002,1.103,2.144,5.365,9.083,9.38c3.291,1.904,12.252,1.466,15.838-0.209c2.637-1.231,5.879-5.634,6.621-6.951
				c0.738-1.308,1.946-1.788,2.924-2.821c1.031-1.087,1.172-2.87,0.826-4.414c0.147-2.37-1.611-2.911-3.235-5.593
				c0.083,1.238,0.049,2.479-0.102,3.686c-0.682,5.457-4.106,8.964-8.519,11.038c-3.495,1.644-7.376,2.787-11.151,2.269
				c-12.274-1.682-14.089-9.616-12.899-16.396C141.829,394.171,141.73,394.413,141.639,394.589z"/>
			<path style="opacity:0.56;fill:#B99E30;enable-background:new    ;" d="M162.325,410.766c-4.748,1.436-9.922,1.473-14.251-1.409
				c-3.485-2.319-6.371-6.017-6.68-10.576c-0.189,0.589-0.172,1.723-0.54,2.193c-0.424,0.539-1.227,0.201-1.768,0.207
				c1.118,1.043,2.754,1.911,3.477,2.708c0.829,0.915,1.758,3.989,5.983,7.298c2.04,1.073,4.509,2.05,6.729,2.25
				c3.541,0.317,7.018,0.59,10.315-0.929c5.668-2.61,8.254-7.265,9.285-8.294c1.129-1.124,2.457-2.123,2.741-3.904
				c0.233-1.471-0.287-2.974-0.862-4.29c-0.26-0.306-0.547-0.622-0.853-0.982c0.008,0.075,0.018,0.15,0.026,0.226
				c0.261,2.746-0.218,5.256-1.72,7.49C171.44,406.869,166.715,409.437,162.325,410.766z"/>
			
				<linearGradient id="SVGID_12_" gradientUnits="userSpaceOnUse" x1="158.1198" y1="443.3267" x2="159.3624" y2="457.5297" gradientTransform="matrix(1 0 0 -1 0 842.11)">
				<stop  offset="0.0364" style="stop-color:#EEEA4C"/>
				<stop  offset="0.8545" style="stop-color:#FCF5A7"/>
			</linearGradient>
			<path style="opacity:0.44;fill:url(#SVGID_12_);enable-background:new    ;" d="M163.011,392.638
				c1.717,0.475,3.675,1.109,5.159,2.196c1.314,0.96,2.404,2.353,3.533,3.402c1.577-0.607,2.049-2.418,1.409-3.904
				c-2.792-6.479-8.359-9.758-14.589-9.758c-3.414,0-5.506,0.348-8.582,1.785c-2.369,1.108-6.344,4.056-6.702,11.123
				c2.58-4.201,5.857-5.661,8.91-5.825C155.745,391.464,159.575,391.686,163.011,392.638z"/>
			<path style="opacity:0.52;fill:#FAF9D5;enable-background:new    ;" d="M147.539,391.027c1.056-0.678,2.216-1.203,3.345-1.589
				c2.355-0.807,4.827-1.373,7.449-1.373c1.613,0,3.142,0.2,4.679,0.447c1.066,0.172,3.507,1.475,4.495,1.041
				c1.541-0.681-1.677-2.281-2.276-2.57c-1.293-0.628-2.869-0.915-4.325-1.133c-3.009-0.45-6.198-0.065-9.07,0.95
				c-2.3,0.812-6.38,2.91-6.779,6.028l0.096,0.106C145.237,392.613,146.94,391.412,147.539,391.027z"/>
		</g>
	</g>
	<g>
		<g>
			<path style="fill:#D8DC41;" d="M235.424,388.373c-0.607-1.339-4.9-5.514-6.042-6.268c-5.492-3.628-14.764-3.228-17.753-1.561
				c-6.411,3.575-7.778,9.078-8.486,10.472c-0.69,1.358-1.841,1.714-2.826,2.743c-2.917,3.04,2.285,4.944,3.749,6.556
				c1.002,1.105,2.144,5.365,9.083,9.38c3.292,1.904,12.252,1.466,15.838-0.209c2.637-1.231,5.879-5.634,6.621-6.951
				c0.738-1.308,1.946-1.788,2.924-2.821c1.031-1.087,1.172-2.87,0.826-4.414C239.528,392.582,237.19,392.268,235.424,388.373z"/>
			<path style="fill:#D3D331;" d="M239.358,395.298c0.17-2.716-2.168-3.029-3.934-6.925c-0.264-0.581-1.221-1.693-2.312-2.829
				c-1.823,6.822-8.736,12.19-14.75,13.448c-4.016,0.84-8.934,0.486-11.429-3.667c-1.655-2.755-1.92-6.14-1.293-9.327
				c-1.514,2.245-2.108,4.25-2.497,5.016c-0.69,1.358-1.841,1.714-2.826,2.743c-2.917,3.04,2.285,4.944,3.749,6.556
				c1.002,1.105,2.144,5.365,9.083,9.38c3.292,1.904,12.252,1.466,15.838-0.209c2.637-1.231,5.879-5.634,6.621-6.951
				c0.738-1.308,1.946-1.788,2.924-2.821C239.563,398.624,239.705,396.841,239.358,395.298z"/>
			<path style="opacity:0.43;fill:#C3BE30;enable-background:new    ;" d="M203.144,391.015c-0.69,1.358-1.841,1.714-2.826,2.743
				c-2.917,3.04,2.285,4.944,3.749,6.556c1.002,1.105,2.144,5.365,9.083,9.38c3.292,1.904,12.252,1.466,15.838-0.209
				c2.637-1.231,5.879-5.634,6.621-6.951c0.738-1.308,1.946-1.788,2.924-2.821c1.031-1.087,1.172-2.87,0.826-4.414
				c0.17-2.716-2.168-3.029-3.934-6.925c-0.607-1.339-4.9-5.514-6.042-6.268c-0.412-0.271-0.845-0.518-1.293-0.745
				c0.654,0.84,1.183,1.846,1.544,3.057c1.455,4.889,0.168,9.816-2.943,13.49c-2.641,3.12-6.305,5.572-10.126,6.363
				c-3.597,0.745-7.712,0.143-10.138-3.223c-1.619-2.244-2.657-5.156-2.609-8.057c0.037-2.165,0.572-4.187,1.285-6.152
				C203.976,388.732,203.483,390.348,203.144,391.015z"/>
			<path style="opacity:0.69;fill:#B8B533;enable-background:new    ;" d="M203.144,391.015c-0.165,0.327-0.358,0.595-0.569,0.829
				c0.014,0.084,0.024,0.171,0.027,0.264c0.064,1.994-0.735,4.428-2.866,4.46h-0.002c0.855,1.526,3.383,2.699,4.334,3.745
				c1.002,1.105,2.144,5.365,9.083,9.38c3.292,1.904,12.252,1.466,15.838-0.209c2.637-1.231,5.879-5.634,6.621-6.951
				c0.738-1.308,1.946-1.788,2.924-2.821c1.031-1.087,1.172-2.87,0.826-4.414c0.147-2.37-1.611-2.911-3.235-5.593
				c0.083,1.238,0.049,2.479-0.102,3.686c-0.682,5.457-4.106,8.964-8.519,11.038c-3.495,1.644-7.376,2.787-11.151,2.269
				c-12.274-1.682-14.089-9.616-12.899-16.396C203.333,390.596,203.234,390.839,203.144,391.015z"/>
			<path style="opacity:0.56;fill:#B99E30;enable-background:new    ;" d="M223.829,407.191c-4.748,1.436-9.922,1.472-14.251-1.409
				c-3.485-2.319-6.371-6.017-6.68-10.576c-0.189,0.589-0.172,1.723-0.54,2.193c-0.424,0.539-1.227,0.201-1.768,0.207
				c1.118,1.043,2.754,1.911,3.477,2.708c0.83,0.913,1.758,3.989,5.983,7.298c2.04,1.073,4.509,2.05,6.729,2.249
				c3.54,0.317,7.018,0.59,10.315-0.928c5.668-2.61,8.254-7.265,9.285-8.294c1.129-1.124,2.458-2.123,2.741-3.904
				c0.233-1.471-0.287-2.974-0.862-4.29c-0.26-0.306-0.547-0.622-0.853-0.982c0.008,0.075,0.018,0.15,0.027,0.226
				c0.261,2.746-0.218,5.256-1.72,7.49C232.944,403.293,228.219,405.863,223.829,407.191z"/>
			
				<linearGradient id="SVGID_13_" gradientUnits="userSpaceOnUse" x1="219.6242" y1="446.9019" x2="220.8667" y2="461.1049" gradientTransform="matrix(1 0 0 -1 0 842.11)">
				<stop  offset="0.0364" style="stop-color:#EEEA4C"/>
				<stop  offset="0.8545" style="stop-color:#FCF5A7"/>
			</linearGradient>
			<path style="opacity:0.44;fill:url(#SVGID_13_);enable-background:new    ;" d="M224.516,389.062
				c1.717,0.475,3.674,1.109,5.159,2.196c1.313,0.96,2.404,2.353,3.533,3.402c1.577-0.607,2.049-2.418,1.408-3.904
				c-2.792-6.479-8.358-9.758-14.589-9.758c-3.414,0-5.506,0.348-8.582,1.785c-2.369,1.108-6.344,4.056-6.702,11.123
				c2.58-4.201,5.857-5.662,8.91-5.825C217.25,387.89,221.08,388.112,224.516,389.062z"/>
			<path style="opacity:0.52;fill:#FAF9D5;enable-background:new    ;" d="M209.043,387.453c1.056-0.678,2.216-1.203,3.345-1.59
				c2.355-0.806,4.827-1.373,7.449-1.373c1.613,0,3.142,0.2,4.679,0.447c1.066,0.172,3.507,1.476,4.495,1.041
				c1.541-0.681-1.677-2.281-2.276-2.57c-1.293-0.628-2.869-0.915-4.325-1.133c-3.009-0.45-6.198-0.065-9.07,0.95
				c-2.3,0.812-6.38,2.91-6.779,6.028l0.096,0.106C206.742,389.037,208.445,387.838,209.043,387.453z"/>
		</g>
	</g>
</g>
<g>
	<g>
		<g>
			<path style="fill:#D8DC41;" d="M272.738,243.176c-0.607-1.339-4.9-5.514-6.042-6.268c-5.492-3.628-14.764-3.228-17.753-1.561
				c-6.411,3.575-7.778,9.078-8.486,10.472c-0.69,1.358-1.841,1.714-2.826,2.743c-2.917,3.04,2.285,4.944,3.749,6.555
				c1.002,1.105,2.144,5.365,9.083,9.38c3.292,1.904,12.252,1.466,15.838-0.209c2.637-1.231,5.879-5.634,6.621-6.951
				c0.738-1.308,1.946-1.788,2.924-2.821c1.031-1.087,1.172-2.87,0.826-4.414C276.842,247.384,274.504,247.071,272.738,243.176z"/>
			<path style="fill:#D3D331;" d="M276.672,250.1c0.17-2.717-2.168-3.029-3.934-6.925c-0.264-0.581-1.221-1.693-2.312-2.829
				c-1.823,6.822-8.736,12.19-14.75,13.448c-4.016,0.84-8.934,0.486-11.429-3.667c-1.654-2.755-1.92-6.14-1.293-9.325
				c-1.514,2.245-2.108,4.25-2.497,5.016c-0.69,1.358-1.841,1.714-2.826,2.743c-2.917,3.04,2.285,4.944,3.749,6.556
				c1.002,1.105,2.144,5.365,9.083,9.38c3.292,1.904,12.252,1.466,15.838-0.209c2.637-1.231,5.879-5.634,6.621-6.951
				c0.738-1.308,1.946-1.788,2.924-2.821C276.877,253.427,277.019,251.644,276.672,250.1z"/>
			<path style="opacity:0.43;fill:#C3BE30;enable-background:new    ;" d="M240.458,245.818c-0.69,1.358-1.841,1.714-2.826,2.743
				c-2.917,3.04,2.285,4.944,3.749,6.556c1.002,1.105,2.144,5.365,9.083,9.38c3.292,1.904,12.252,1.466,15.838-0.209
				c2.637-1.231,5.879-5.634,6.621-6.951c0.738-1.308,1.946-1.788,2.924-2.821c1.031-1.087,1.172-2.87,0.826-4.414
				c0.17-2.717-2.168-3.029-3.934-6.925c-0.607-1.339-4.9-5.514-6.042-6.268c-0.412-0.271-0.845-0.518-1.293-0.745
				c0.654,0.84,1.183,1.846,1.544,3.057c1.455,4.889,0.168,9.816-2.943,13.49c-2.641,3.12-6.305,5.572-10.126,6.363
				c-3.597,0.745-7.712,0.143-10.138-3.223c-1.619-2.244-2.657-5.156-2.609-8.057c0.037-2.165,0.572-4.187,1.285-6.152
				C241.29,243.535,240.797,245.149,240.458,245.818z"/>
			<path style="opacity:0.69;fill:#B8B533;enable-background:new    ;" d="M240.458,245.818c-0.165,0.327-0.358,0.594-0.569,0.829
				c0.014,0.084,0.024,0.171,0.027,0.264c0.064,1.994-0.735,4.428-2.866,4.46h-0.002c0.855,1.526,3.383,2.699,4.334,3.745
				c1.002,1.105,2.144,5.365,9.083,9.38c3.292,1.904,12.252,1.466,15.838-0.209c2.637-1.231,5.879-5.634,6.621-6.951
				c0.738-1.308,1.946-1.788,2.924-2.821c1.031-1.087,1.172-2.87,0.826-4.414c0.147-2.37-1.611-2.911-3.235-5.593
				c0.083,1.238,0.049,2.479-0.102,3.686c-0.682,5.457-4.106,8.964-8.519,11.038c-3.495,1.644-7.376,2.787-11.151,2.269
				c-12.274-1.682-14.089-9.616-12.899-16.396C240.647,245.398,240.548,245.642,240.458,245.818z"/>
			<path style="opacity:0.56;fill:#B99E30;enable-background:new    ;" d="M261.143,261.993c-4.748,1.436-9.922,1.472-14.251-1.409
				c-3.485-2.319-6.371-6.017-6.68-10.576c-0.189,0.589-0.172,1.724-0.54,2.193c-0.424,0.539-1.227,0.201-1.768,0.207
				c1.118,1.043,2.754,1.911,3.477,2.708c0.83,0.915,1.758,3.989,5.983,7.298c2.04,1.073,4.509,2.05,6.729,2.249
				c3.54,0.317,7.018,0.59,10.315-0.929c5.668-2.61,8.254-7.265,9.285-8.294c1.129-1.124,2.458-2.123,2.741-3.904
				c0.233-1.471-0.287-2.974-0.862-4.29c-0.26-0.306-0.547-0.622-0.853-0.982c0.008,0.075,0.018,0.15,0.027,0.226
				c0.261,2.746-0.218,5.256-1.72,7.49C270.258,258.096,265.533,260.665,261.143,261.993z"/>
			
				<linearGradient id="SVGID_14_" gradientUnits="userSpaceOnUse" x1="256.9388" y1="592.0994" x2="258.1815" y2="606.3025" gradientTransform="matrix(1 0 0 -1 0 842.11)">
				<stop  offset="0.0364" style="stop-color:#EEEA4C"/>
				<stop  offset="0.8545" style="stop-color:#FCF5A7"/>
			</linearGradient>
			<path style="opacity:0.44;fill:url(#SVGID_14_);enable-background:new    ;" d="M261.83,243.865
				c1.717,0.475,3.675,1.109,5.159,2.196c1.313,0.96,2.404,2.353,3.533,3.402c1.577-0.607,2.049-2.418,1.409-3.904
				c-2.792-6.479-8.359-9.758-14.589-9.758c-3.414,0-5.506,0.348-8.582,1.785c-2.369,1.108-6.344,4.056-6.702,11.123
				c2.58-4.201,5.857-5.661,8.91-5.824C254.564,242.692,258.394,242.913,261.83,243.865z"/>
			<path style="opacity:0.52;fill:#FAF9D5;enable-background:new    ;" d="M246.357,242.254c1.056-0.678,2.216-1.203,3.345-1.589
				c2.355-0.807,4.827-1.373,7.449-1.373c1.613,0,3.142,0.2,4.679,0.447c1.066,0.172,3.507,1.476,4.495,1.041
				c1.541-0.681-1.677-2.281-2.276-2.57c-1.293-0.628-2.869-0.915-4.325-1.133c-3.009-0.45-6.198-0.065-9.07,0.95
				c-2.3,0.812-6.38,2.91-6.779,6.028l0.096,0.106C244.056,243.84,245.759,242.64,246.357,242.254z"/>
		</g>
	</g>
	<g>
		<g>
			<path style="fill:#D8DC41;" d="M327.04,243.65c-0.607-1.339-4.9-5.514-6.042-6.268c-5.492-3.628-14.764-3.228-17.753-1.561
				c-6.411,3.575-7.778,9.078-8.486,10.472c-0.69,1.358-1.841,1.714-2.826,2.743c-2.917,3.04,2.285,4.944,3.749,6.555
				c1.002,1.105,2.144,5.365,9.083,9.38c3.292,1.904,12.252,1.466,15.838-0.209c2.637-1.231,5.879-5.634,6.621-6.951
				c0.738-1.308,1.946-1.788,2.924-2.821c1.031-1.087,1.172-2.87,0.826-4.414C331.143,247.858,328.806,247.545,327.04,243.65z"/>
			<path style="fill:#D3D331;" d="M330.974,250.575c0.169-2.717-2.168-3.029-3.934-6.925c-0.264-0.581-1.221-1.693-2.313-2.829
				c-1.823,6.822-8.736,12.19-14.75,13.448c-4.016,0.84-8.934,0.486-11.429-3.667c-1.655-2.755-1.921-6.14-1.293-9.325
				c-1.514,2.245-2.108,4.25-2.497,5.016c-0.69,1.358-1.841,1.714-2.826,2.743c-2.917,3.04,2.285,4.944,3.749,6.555
				c1.002,1.105,2.144,5.365,9.083,9.38c3.292,1.904,12.252,1.466,15.838-0.209c2.637-1.231,5.879-5.634,6.621-6.951
				c0.738-1.308,1.946-1.788,2.924-2.821C331.179,253.901,331.32,252.118,330.974,250.575z"/>
			<path style="opacity:0.43;fill:#C3BE30;enable-background:new    ;" d="M294.759,246.292c-0.69,1.358-1.841,1.714-2.826,2.743
				c-2.917,3.04,2.285,4.944,3.749,6.556c1.002,1.105,2.144,5.365,9.083,9.38c3.292,1.904,12.252,1.466,15.838-0.209
				c2.637-1.231,5.879-5.634,6.621-6.951c0.738-1.308,1.946-1.788,2.924-2.821c1.031-1.087,1.172-2.87,0.826-4.414
				c0.169-2.717-2.168-3.029-3.934-6.925c-0.607-1.339-4.9-5.514-6.042-6.268c-0.412-0.271-0.845-0.518-1.293-0.745
				c0.654,0.84,1.183,1.846,1.544,3.057c1.455,4.889,0.168,9.816-2.943,13.49c-2.641,3.12-6.305,5.572-10.126,6.363
				c-3.597,0.745-7.712,0.143-10.138-3.223c-1.619-2.244-2.657-5.156-2.609-8.057c0.037-2.165,0.572-4.187,1.285-6.152
				C295.591,244.009,295.099,245.623,294.759,246.292z"/>
			<path style="opacity:0.69;fill:#B8B533;enable-background:new    ;" d="M294.759,246.292c-0.165,0.327-0.358,0.594-0.569,0.829
				c0.014,0.084,0.024,0.171,0.027,0.264c0.064,1.994-0.735,4.428-2.866,4.46h-0.002c0.855,1.526,3.383,2.699,4.334,3.745
				c1.002,1.105,2.144,5.365,9.083,9.38c3.292,1.904,12.252,1.466,15.838-0.209c2.637-1.231,5.879-5.634,6.621-6.951
				c0.738-1.308,1.946-1.788,2.924-2.821c1.031-1.087,1.172-2.87,0.826-4.414c0.147-2.37-1.611-2.911-3.236-5.593
				c0.083,1.238,0.049,2.479-0.102,3.686c-0.682,5.457-4.106,8.964-8.519,11.038c-3.495,1.644-7.376,2.787-11.151,2.269
				c-12.274-1.682-14.089-9.616-12.899-16.396C294.948,245.872,294.85,246.116,294.759,246.292z"/>
			<path style="opacity:0.56;fill:#B99E30;enable-background:new    ;" d="M315.444,262.467c-4.748,1.436-9.922,1.472-14.251-1.409
				c-3.485-2.319-6.371-6.017-6.68-10.576c-0.189,0.589-0.172,1.724-0.54,2.193c-0.424,0.539-1.227,0.201-1.768,0.207
				c1.118,1.043,2.754,1.911,3.477,2.708c0.829,0.915,1.758,3.989,5.983,7.298c2.04,1.073,4.509,2.05,6.729,2.249
				c3.54,0.317,7.018,0.59,10.315-0.929c5.668-2.61,8.254-7.265,9.285-8.294c1.129-1.124,2.458-2.123,2.741-3.904
				c0.233-1.471-0.287-2.974-0.862-4.29c-0.26-0.306-0.547-0.622-0.853-0.982c0.008,0.075,0.018,0.15,0.026,0.226
				c0.261,2.746-0.218,5.256-1.72,7.49C324.559,258.57,319.834,261.139,315.444,262.467z"/>
			
				<linearGradient id="SVGID_15_" gradientUnits="userSpaceOnUse" x1="311.2398" y1="591.6254" x2="312.4825" y2="605.8286" gradientTransform="matrix(1 0 0 -1 0 842.11)">
				<stop  offset="0.0364" style="stop-color:#EEEA4C"/>
				<stop  offset="0.8545" style="stop-color:#FCF5A7"/>
			</linearGradient>
			<path style="opacity:0.44;fill:url(#SVGID_15_);enable-background:new    ;" d="M316.131,244.339
				c1.717,0.475,3.675,1.109,5.159,2.196c1.314,0.96,2.404,2.353,3.533,3.402c1.577-0.607,2.049-2.418,1.409-3.904
				c-2.792-6.479-8.358-9.758-14.589-9.758c-3.414,0-5.506,0.348-8.582,1.785c-2.369,1.108-6.344,4.056-6.702,11.123
				c2.58-4.201,5.857-5.661,8.91-5.824C308.865,243.166,312.695,243.389,316.131,244.339z"/>
			<path style="opacity:0.52;fill:#FAF9D5;enable-background:new    ;" d="M300.658,242.728c1.056-0.678,2.216-1.203,3.344-1.589
				c2.355-0.807,4.827-1.373,7.449-1.373c1.613,0,3.142,0.2,4.679,0.447c1.066,0.172,3.507,1.476,4.495,1.041
				c1.541-0.681-1.677-2.281-2.276-2.57c-1.293-0.628-2.869-0.915-4.325-1.133c-3.009-0.45-6.198-0.065-9.07,0.95
				c-2.3,0.812-6.381,2.91-6.779,6.028l0.096,0.106C298.357,244.314,300.06,243.114,300.658,242.728z"/>
		</g>
	</g>
	<g>
		<g>
			<path style="fill:#D8DC41;" d="M338.683,291.779c-0.607-1.339-4.9-5.514-6.042-6.268c-5.492-3.628-14.764-3.228-17.753-1.561
				c-6.411,3.575-7.778,9.078-8.486,10.472c-0.69,1.358-1.841,1.714-2.826,2.743c-2.917,3.04,2.285,4.944,3.749,6.556
				c1.002,1.105,2.144,5.365,9.083,9.38c3.292,1.904,12.252,1.466,15.838-0.209c2.637-1.231,5.879-5.634,6.621-6.951
				c0.738-1.308,1.946-1.788,2.924-2.821c1.031-1.087,1.172-2.87,0.826-4.413C342.786,295.986,340.448,295.673,338.683,291.779z"/>
			<path style="fill:#D3D331;" d="M342.616,298.702c0.169-2.717-2.168-3.029-3.934-6.925c-0.264-0.581-1.221-1.693-2.313-2.829
				c-1.823,6.822-8.736,12.19-14.75,13.448c-4.016,0.84-8.934,0.486-11.429-3.667c-1.655-2.753-1.921-6.14-1.293-9.325
				c-1.514,2.245-2.108,4.25-2.497,5.016c-0.69,1.358-1.841,1.714-2.826,2.743c-2.917,3.04,2.285,4.944,3.749,6.556
				c1.002,1.105,2.144,5.365,9.083,9.38c3.292,1.904,12.252,1.466,15.838-0.209c2.637-1.231,5.879-5.634,6.621-6.951
				c0.738-1.308,1.946-1.788,2.924-2.821C342.821,302.029,342.963,300.246,342.616,298.702z"/>
			<path style="opacity:0.43;fill:#C3BE30;enable-background:new    ;" d="M306.402,294.42c-0.69,1.358-1.841,1.714-2.826,2.743
				c-2.917,3.04,2.285,4.944,3.749,6.556c1.002,1.105,2.144,5.365,9.083,9.38c3.292,1.904,12.252,1.466,15.838-0.209
				c2.637-1.231,5.879-5.634,6.621-6.951c0.738-1.308,1.946-1.788,2.924-2.821c1.031-1.087,1.172-2.87,0.826-4.413
				c0.169-2.716-2.168-3.029-3.934-6.925c-0.607-1.339-4.9-5.514-6.042-6.268c-0.412-0.271-0.845-0.518-1.293-0.745
				c0.654,0.84,1.183,1.846,1.544,3.057c1.455,4.889,0.168,9.816-2.943,13.49c-2.641,3.12-6.305,5.572-10.126,6.363
				c-3.597,0.745-7.712,0.143-10.138-3.223c-1.619-2.244-2.657-5.156-2.609-8.057c0.037-2.165,0.572-4.187,1.285-6.152
				C307.234,292.137,306.741,293.751,306.402,294.42z"/>
			<path style="opacity:0.69;fill:#B8B533;enable-background:new    ;" d="M306.402,294.42c-0.165,0.327-0.358,0.595-0.569,0.829
				c0.014,0.084,0.024,0.171,0.027,0.264c0.064,1.994-0.735,4.428-2.866,4.46h-0.002c0.855,1.526,3.383,2.699,4.334,3.745
				c1.002,1.105,2.144,5.365,9.083,9.38c3.292,1.904,12.252,1.466,15.838-0.209c2.637-1.231,5.879-5.634,6.621-6.951
				c0.738-1.308,1.946-1.788,2.924-2.821c1.031-1.087,1.172-2.87,0.826-4.413c0.147-2.37-1.611-2.911-3.236-5.593
				c0.083,1.238,0.049,2.479-0.102,3.686c-0.682,5.457-4.106,8.964-8.519,11.038c-3.495,1.644-7.376,2.787-11.151,2.269
				c-12.274-1.682-14.089-9.616-12.899-16.396C306.591,294.001,306.492,294.243,306.402,294.42z"/>
			<path style="opacity:0.56;fill:#B99E30;enable-background:new    ;" d="M327.087,310.596c-4.748,1.436-9.922,1.472-14.251-1.409
				c-3.485-2.319-6.371-6.017-6.68-10.576c-0.189,0.589-0.172,1.723-0.54,2.193c-0.424,0.539-1.227,0.201-1.768,0.207
				c1.118,1.043,2.754,1.911,3.477,2.708c0.829,0.913,1.758,3.989,5.983,7.298c2.04,1.073,4.509,2.05,6.729,2.25
				c3.54,0.317,7.018,0.59,10.315-0.929c5.668-2.61,8.254-7.265,9.285-8.294c1.129-1.124,2.458-2.123,2.741-3.904
				c0.233-1.471-0.287-2.974-0.862-4.29c-0.26-0.306-0.547-0.622-0.853-0.982c0.008,0.075,0.018,0.15,0.026,0.226
				c0.261,2.746-0.218,5.256-1.72,7.49C336.202,306.699,331.477,309.268,327.087,310.596z"/>
			
				<linearGradient id="SVGID_16_" gradientUnits="userSpaceOnUse" x1="322.8828" y1="543.4966" x2="324.1255" y2="557.6998" gradientTransform="matrix(1 0 0 -1 0 842.11)">
				<stop  offset="0.0364" style="stop-color:#EEEA4C"/>
				<stop  offset="0.8545" style="stop-color:#FCF5A7"/>
			</linearGradient>
			<path style="opacity:0.44;fill:url(#SVGID_16_);enable-background:new    ;" d="M327.774,292.467
				c1.717,0.475,3.675,1.109,5.159,2.196c1.314,0.96,2.404,2.353,3.533,3.402c1.577-0.607,2.049-2.418,1.409-3.904
				c-2.792-6.479-8.358-9.758-14.589-9.758c-3.414,0-5.506,0.348-8.582,1.785c-2.369,1.108-6.344,4.056-6.702,11.123
				c2.58-4.201,5.857-5.662,8.91-5.825C320.508,291.294,324.338,291.516,327.774,292.467z"/>
			<path style="opacity:0.52;fill:#FAF9D5;enable-background:new    ;" d="M312.301,290.857c1.056-0.678,2.216-1.203,3.345-1.589
				c2.355-0.807,4.827-1.373,7.449-1.373c1.613,0,3.142,0.2,4.679,0.447c1.066,0.172,3.507,1.476,4.495,1.041
				c1.541-0.681-1.677-2.281-2.276-2.57c-1.293-0.628-2.869-0.915-4.325-1.133c-3.009-0.45-6.198-0.065-9.07,0.95
				c-2.3,0.812-6.38,2.91-6.779,6.028l0.096,0.106C310,292.443,311.703,291.243,312.301,290.857z"/>
		</g>
	</g>
	<g>
		<g>
			<path style="fill:#D8DC41;" d="M294.647,276.254c-0.607-1.339-4.9-5.514-6.042-6.268c-5.492-3.628-14.764-3.228-17.753-1.561
				c-6.411,3.575-7.778,9.078-8.486,10.472c-0.69,1.358-1.841,1.714-2.826,2.743c-2.917,3.04,2.285,4.944,3.749,6.556
				c1.002,1.105,2.144,5.365,9.083,9.38c3.292,1.904,12.252,1.466,15.838-0.209c2.637-1.231,5.879-5.634,6.621-6.951
				c0.738-1.308,1.946-1.788,2.924-2.821c1.031-1.087,1.172-2.87,0.826-4.414C298.751,280.462,296.413,280.15,294.647,276.254z"/>
			<path style="fill:#D3D331;" d="M298.581,283.179c0.169-2.716-2.168-3.029-3.934-6.925c-0.264-0.581-1.221-1.693-2.312-2.829
				c-1.823,6.822-8.736,12.19-14.75,13.448c-4.016,0.84-8.934,0.486-11.429-3.667c-1.655-2.755-1.921-6.14-1.293-9.326
				c-1.514,2.245-2.108,4.25-2.497,5.016c-0.69,1.358-1.841,1.714-2.826,2.743c-2.917,3.04,2.285,4.944,3.749,6.556
				c1.002,1.105,2.144,5.365,9.083,9.38c3.292,1.904,12.252,1.466,15.838-0.209c2.637-1.231,5.879-5.634,6.621-6.951
				c0.738-1.308,1.946-1.788,2.924-2.821C298.786,286.506,298.928,284.723,298.581,283.179z"/>
			<path style="opacity:0.43;fill:#C3BE30;enable-background:new    ;" d="M262.367,278.896c-0.69,1.358-1.841,1.714-2.826,2.743
				c-2.917,3.04,2.285,4.944,3.749,6.556c1.002,1.105,2.144,5.365,9.083,9.38c3.292,1.904,12.252,1.466,15.838-0.209
				c2.637-1.231,5.879-5.634,6.621-6.951c0.738-1.308,1.946-1.788,2.924-2.821c1.031-1.087,1.172-2.87,0.826-4.414
				c0.169-2.716-2.168-3.029-3.934-6.925c-0.607-1.339-4.9-5.514-6.042-6.268c-0.412-0.271-0.845-0.518-1.293-0.745
				c0.654,0.84,1.183,1.846,1.544,3.057c1.455,4.889,0.168,9.816-2.943,13.49c-2.641,3.12-6.305,5.572-10.126,6.363
				c-3.597,0.745-7.712,0.143-10.138-3.223c-1.619-2.244-2.657-5.156-2.609-8.057c0.037-2.165,0.572-4.187,1.285-6.152
				C263.199,276.614,262.706,278.228,262.367,278.896z"/>
			<path style="opacity:0.69;fill:#B8B533;enable-background:new    ;" d="M262.367,278.896c-0.165,0.327-0.358,0.595-0.569,0.829
				c0.014,0.084,0.024,0.171,0.027,0.264c0.064,1.994-0.735,4.428-2.866,4.46h-0.002c0.855,1.526,3.383,2.699,4.334,3.745
				c1.002,1.105,2.144,5.365,9.083,9.38c3.292,1.904,12.252,1.466,15.838-0.209c2.637-1.231,5.879-5.634,6.621-6.951
				c0.738-1.308,1.946-1.788,2.924-2.821c1.031-1.087,1.172-2.87,0.826-4.414c0.147-2.37-1.611-2.911-3.235-5.593
				c0.083,1.238,0.049,2.479-0.102,3.686c-0.682,5.457-4.106,8.964-8.519,11.038c-3.495,1.644-7.376,2.787-11.151,2.269
				c-12.274-1.682-14.089-9.617-12.899-16.396C262.556,278.478,262.457,278.72,262.367,278.896z"/>
			<path style="opacity:0.56;fill:#B99E30;enable-background:new    ;" d="M283.052,295.072c-4.748,1.436-9.922,1.472-14.251-1.409
				c-3.485-2.319-6.371-6.017-6.68-10.576c-0.189,0.589-0.172,1.724-0.54,2.193c-0.424,0.539-1.227,0.201-1.768,0.207
				c1.118,1.043,2.754,1.911,3.477,2.708c0.829,0.913,1.758,3.989,5.983,7.298c2.04,1.073,4.509,2.05,6.729,2.25
				c3.54,0.317,7.018,0.59,10.315-0.929c5.668-2.61,8.254-7.265,9.285-8.294c1.129-1.125,2.458-2.123,2.741-3.904
				c0.233-1.471-0.287-2.974-0.862-4.29c-0.26-0.306-0.547-0.622-0.853-0.982c0.008,0.075,0.018,0.15,0.027,0.226
				c0.261,2.746-0.218,5.256-1.72,7.49C292.167,291.175,287.442,293.743,283.052,295.072z"/>
			
				<linearGradient id="SVGID_17_" gradientUnits="userSpaceOnUse" x1="278.8478" y1="559.0202" x2="280.0904" y2="573.2232" gradientTransform="matrix(1 0 0 -1 0 842.11)">
				<stop  offset="0.0364" style="stop-color:#EEEA4C"/>
				<stop  offset="0.8545" style="stop-color:#FCF5A7"/>
			</linearGradient>
			<path style="opacity:0.44;fill:url(#SVGID_17_);enable-background:new    ;" d="M283.739,276.944
				c1.717,0.475,3.674,1.109,5.159,2.196c1.314,0.96,2.404,2.353,3.533,3.402c1.577-0.607,2.049-2.418,1.409-3.904
				c-2.792-6.479-8.358-9.758-14.589-9.758c-3.414,0-5.506,0.348-8.582,1.785c-2.369,1.108-6.344,4.056-6.702,11.123
				c2.58-4.201,5.857-5.661,8.91-5.825C276.473,275.771,280.303,275.993,283.739,276.944z"/>
			<path style="opacity:0.52;fill:#FAF9D5;enable-background:new    ;" d="M268.266,275.333c1.056-0.678,2.216-1.203,3.345-1.589
				c2.355-0.807,4.827-1.373,7.449-1.373c1.613,0,3.142,0.2,4.679,0.447c1.066,0.172,3.507,1.475,4.495,1.041
				c1.541-0.681-1.677-2.281-2.276-2.57c-1.293-0.628-2.869-0.915-4.325-1.133c-3.009-0.45-6.198-0.065-9.07,0.95
				c-2.3,0.812-6.38,2.91-6.779,6.028l0.096,0.106C265.965,276.919,267.668,275.718,268.266,275.333z"/>
		</g>
	</g>
	<g>
		<g>
			<path style="fill:#D8DC41;" d="M291.59,338.986c-0.607-1.339-4.9-5.514-6.042-6.268c-5.492-3.628-14.764-3.228-17.753-1.561
				c-6.411,3.575-7.778,9.078-8.486,10.472c-0.69,1.358-1.841,1.714-2.826,2.743c-2.917,3.04,2.285,4.944,3.749,6.556
				c1.002,1.105,2.144,5.365,9.083,9.38c3.292,1.904,12.252,1.466,15.838-0.209c2.637-1.231,5.879-5.634,6.621-6.951
				c0.738-1.308,1.946-1.788,2.924-2.821c1.031-1.087,1.172-2.87,0.826-4.414C295.694,343.194,293.356,342.88,291.59,338.986z"/>
			<path style="fill:#D3D331;" d="M295.524,345.91c0.17-2.716-2.168-3.029-3.934-6.925c-0.264-0.581-1.221-1.693-2.312-2.829
				c-1.823,6.822-8.736,12.19-14.75,13.448c-4.016,0.84-8.934,0.486-11.429-3.667c-1.655-2.753-1.92-6.14-1.293-9.325
				c-1.514,2.245-2.108,4.25-2.497,5.016c-0.69,1.358-1.841,1.714-2.826,2.743c-2.917,3.04,2.285,4.944,3.749,6.556
				c1.002,1.105,2.144,5.365,9.083,9.38c3.292,1.904,12.252,1.466,15.838-0.209c2.637-1.231,5.879-5.634,6.621-6.951
				c0.738-1.308,1.946-1.788,2.924-2.821C295.729,349.237,295.871,347.453,295.524,345.91z"/>
			<path style="opacity:0.43;fill:#C3BE30;enable-background:new    ;" d="M259.31,341.627c-0.69,1.358-1.841,1.714-2.826,2.743
				c-2.917,3.04,2.285,4.944,3.749,6.556c1.002,1.105,2.144,5.365,9.083,9.38c3.292,1.904,12.252,1.466,15.838-0.209
				c2.637-1.231,5.879-5.634,6.621-6.951c0.738-1.308,1.946-1.788,2.924-2.821c1.031-1.087,1.172-2.87,0.826-4.414
				c0.17-2.716-2.168-3.029-3.934-6.925c-0.607-1.339-4.9-5.514-6.042-6.268c-0.412-0.271-0.845-0.518-1.293-0.745
				c0.654,0.84,1.183,1.846,1.544,3.057c1.455,4.889,0.168,9.816-2.943,13.49c-2.641,3.12-6.305,5.572-10.126,6.363
				c-3.597,0.745-7.712,0.143-10.138-3.223c-1.619-2.244-2.657-5.156-2.609-8.057c0.037-2.165,0.572-4.187,1.285-6.152
				C260.142,339.344,259.649,340.96,259.31,341.627z"/>
			<path style="opacity:0.69;fill:#B8B533;enable-background:new    ;" d="M259.31,341.627c-0.165,0.327-0.358,0.595-0.569,0.829
				c0.014,0.084,0.024,0.171,0.027,0.264c0.064,1.994-0.735,4.428-2.866,4.46H255.9c0.855,1.526,3.383,2.699,4.334,3.745
				c1.002,1.105,2.144,5.365,9.083,9.38c3.292,1.904,12.252,1.466,15.838-0.209c2.637-1.231,5.879-5.634,6.621-6.951
				c0.738-1.308,1.946-1.788,2.924-2.821c1.031-1.087,1.172-2.87,0.826-4.414c0.147-2.37-1.611-2.911-3.235-5.593
				c0.083,1.238,0.049,2.479-0.102,3.687c-0.682,5.457-4.106,8.964-8.519,11.038c-3.495,1.644-7.376,2.787-11.151,2.269
				c-12.274-1.682-14.089-9.616-12.899-16.396C259.499,341.208,259.4,341.451,259.31,341.627z"/>
			<path style="opacity:0.56;fill:#B99E30;enable-background:new    ;" d="M279.995,357.803c-4.748,1.436-9.922,1.473-14.251-1.409
				c-3.485-2.319-6.371-6.017-6.68-10.576c-0.189,0.589-0.172,1.723-0.54,2.193c-0.424,0.539-1.227,0.201-1.768,0.207
				c1.118,1.043,2.754,1.911,3.477,2.708c0.83,0.915,1.758,3.989,5.983,7.298c2.04,1.073,4.509,2.05,6.729,2.25
				c3.54,0.317,7.018,0.59,10.315-0.929c5.668-2.61,8.254-7.265,9.285-8.294c1.129-1.124,2.458-2.123,2.741-3.904
				c0.233-1.471-0.287-2.974-0.862-4.29c-0.26-0.306-0.547-0.622-0.853-0.982c0.008,0.075,0.018,0.15,0.027,0.226
				c0.261,2.746-0.218,5.256-1.72,7.49C289.11,353.907,284.385,356.475,279.995,357.803z"/>
			
				<linearGradient id="SVGID_18_" gradientUnits="userSpaceOnUse" x1="275.7902" y1="496.2897" x2="277.0327" y2="510.4928" gradientTransform="matrix(1 0 0 -1 0 842.11)">
				<stop  offset="0.0364" style="stop-color:#EEEA4C"/>
				<stop  offset="0.8545" style="stop-color:#FCF5A7"/>
			</linearGradient>
			<path style="opacity:0.44;fill:url(#SVGID_18_);enable-background:new    ;" d="M280.682,339.674
				c1.717,0.475,3.674,1.109,5.159,2.196c1.314,0.96,2.404,2.353,3.533,3.402c1.577-0.607,2.049-2.418,1.408-3.904
				c-2.792-6.479-8.358-9.758-14.589-9.758c-3.414,0-5.506,0.348-8.582,1.785c-2.369,1.108-6.344,4.056-6.702,11.123
				c2.58-4.201,5.857-5.661,8.91-5.825C273.416,338.502,277.246,338.724,280.682,339.674z"/>
			<path style="opacity:0.52;fill:#FAF9D5;enable-background:new    ;" d="M265.209,338.065c1.056-0.678,2.216-1.203,3.345-1.589
				c2.355-0.806,4.827-1.373,7.449-1.373c1.613,0,3.142,0.2,4.679,0.447c1.066,0.172,3.507,1.475,4.495,1.041
				c1.541-0.681-1.677-2.281-2.276-2.57c-1.293-0.63-2.869-0.915-4.325-1.133c-3.009-0.45-6.198-0.065-9.07,0.95
				c-2.3,0.812-6.38,2.91-6.779,6.028l0.096,0.106C262.908,339.65,264.611,338.45,265.209,338.065z"/>
		</g>
	</g>
	<g>
		<g>
			<path style="fill:#D8DC41;" d="M268.03,302.098c-0.607-1.339-4.9-5.514-6.042-6.268c-5.492-3.628-14.764-3.228-17.753-1.561
				c-6.411,3.575-7.778,9.078-8.486,10.472c-0.69,1.358-1.841,1.714-2.826,2.741c-2.917,3.04,2.285,4.944,3.749,6.556
				c1.002,1.105,2.144,5.365,9.083,9.38c3.291,1.904,12.252,1.466,15.838-0.209c2.637-1.231,5.879-5.634,6.62-6.951
				c0.738-1.308,1.946-1.788,2.924-2.821c1.031-1.087,1.172-2.87,0.826-4.414C272.133,306.307,269.795,305.993,268.03,302.098z"/>
			<path style="fill:#D3D331;" d="M271.963,309.023c0.169-2.716-2.168-3.029-3.934-6.925c-0.264-0.581-1.221-1.693-2.312-2.829
				c-1.823,6.822-8.736,12.19-14.75,13.448c-4.016,0.84-8.934,0.486-11.429-3.667c-1.655-2.753-1.921-6.14-1.293-9.326
				c-1.514,2.245-2.109,4.25-2.497,5.016c-0.69,1.358-1.841,1.714-2.826,2.741c-2.917,3.04,2.285,4.944,3.749,6.556
				c1.002,1.105,2.144,5.365,9.083,9.38c3.291,1.904,12.252,1.466,15.838-0.209c2.637-1.231,5.879-5.634,6.62-6.951
				c0.738-1.308,1.946-1.788,2.924-2.821C272.168,312.349,272.31,310.566,271.963,309.023z"/>
			<path style="opacity:0.43;fill:#C3BE30;enable-background:new    ;" d="M235.749,304.74c-0.69,1.358-1.841,1.714-2.826,2.741
				c-2.917,3.04,2.285,4.944,3.749,6.556c1.002,1.105,2.144,5.365,9.083,9.38c3.291,1.904,12.252,1.466,15.838-0.209
				c2.637-1.231,5.879-5.634,6.62-6.951c0.738-1.308,1.946-1.788,2.924-2.821c1.031-1.087,1.172-2.87,0.826-4.414
				c0.169-2.716-2.168-3.029-3.934-6.925c-0.607-1.339-4.9-5.514-6.042-6.268c-0.412-0.271-0.845-0.518-1.293-0.745
				c0.654,0.84,1.183,1.846,1.544,3.057c1.455,4.889,0.168,9.816-2.943,13.49c-2.641,3.12-6.305,5.572-10.126,6.363
				c-3.597,0.745-7.712,0.143-10.138-3.223c-1.618-2.244-2.657-5.156-2.609-8.057c0.037-2.165,0.572-4.187,1.285-6.152
				C236.581,302.457,236.088,304.071,235.749,304.74z"/>
			<path style="opacity:0.69;fill:#B8B533;enable-background:new    ;" d="M235.749,304.74c-0.165,0.327-0.358,0.594-0.569,0.829
				c0.014,0.084,0.024,0.171,0.027,0.264c0.064,1.994-0.735,4.428-2.866,4.46h-0.002c0.855,1.526,3.383,2.699,4.334,3.745
				c1.002,1.105,2.144,5.365,9.083,9.38c3.291,1.904,12.252,1.466,15.838-0.209c2.637-1.231,5.879-5.634,6.62-6.951
				c0.738-1.308,1.946-1.788,2.924-2.821c1.031-1.087,1.172-2.87,0.826-4.414c0.147-2.37-1.611-2.911-3.235-5.593
				c0.083,1.238,0.048,2.479-0.102,3.686c-0.682,5.457-4.106,8.964-8.519,11.038c-3.495,1.644-7.376,2.787-11.151,2.269
				c-12.274-1.682-14.089-9.616-12.899-16.396C235.938,304.321,235.839,304.564,235.749,304.74z"/>
			<path style="opacity:0.56;fill:#B99E30;enable-background:new    ;" d="M256.434,320.915c-4.748,1.436-9.922,1.473-14.251-1.409
				c-3.485-2.319-6.371-6.017-6.68-10.576c-0.189,0.589-0.172,1.723-0.54,2.193c-0.424,0.539-1.227,0.201-1.768,0.207
				c1.118,1.043,2.754,1.911,3.477,2.708c0.829,0.915,1.758,3.989,5.983,7.298c2.04,1.073,4.509,2.05,6.729,2.25
				c3.541,0.317,7.018,0.59,10.315-0.929c5.668-2.61,8.254-7.265,9.285-8.294c1.129-1.124,2.457-2.123,2.741-3.904
				c0.233-1.47-0.287-2.974-0.862-4.29c-0.26-0.306-0.547-0.622-0.853-0.982c0.008,0.075,0.018,0.15,0.026,0.226
				c0.261,2.746-0.218,5.256-1.72,7.49C265.549,317.018,260.824,319.587,256.434,320.915z"/>
			
				<linearGradient id="SVGID_19_" gradientUnits="userSpaceOnUse" x1="252.2298" y1="533.177" x2="253.4724" y2="547.3801" gradientTransform="matrix(1 0 0 -1 0 842.11)">
				<stop  offset="0.0364" style="stop-color:#EEEA4C"/>
				<stop  offset="0.8545" style="stop-color:#FCF5A7"/>
			</linearGradient>
			<path style="opacity:0.44;fill:url(#SVGID_19_);enable-background:new    ;" d="M257.121,302.787
				c1.717,0.475,3.675,1.109,5.159,2.196c1.314,0.96,2.404,2.353,3.533,3.402c1.577-0.607,2.049-2.418,1.409-3.904
				c-2.792-6.479-8.359-9.758-14.589-9.758c-3.414,0-5.506,0.348-8.582,1.785c-2.369,1.108-6.344,4.056-6.702,11.123
				c2.58-4.201,5.857-5.661,8.91-5.825C249.855,301.615,253.685,301.836,257.121,302.787z"/>
			<path style="opacity:0.52;fill:#FAF9D5;enable-background:new    ;" d="M241.648,301.176c1.056-0.678,2.216-1.203,3.345-1.589
				c2.355-0.806,4.827-1.373,7.449-1.373c1.613,0,3.142,0.2,4.679,0.447c1.066,0.172,3.507,1.475,4.495,1.041
				c1.541-0.681-1.677-2.281-2.276-2.57c-1.293-0.628-2.869-0.915-4.325-1.133c-3.009-0.45-6.198-0.065-9.07,0.95
				c-2.3,0.812-6.38,2.91-6.779,6.028l0.096,0.106C239.347,302.762,241.05,301.563,241.648,301.176z"/>
		</g>
	</g>
	<g>
		<g>
			<path style="fill:#D8DC41;" d="M337.436,341.165c-0.607-1.339-4.9-5.514-6.042-6.268c-5.492-3.628-14.764-3.228-17.753-1.561
				c-6.411,3.575-7.778,9.078-8.486,10.472c-0.69,1.358-1.841,1.714-2.826,2.743c-2.917,3.04,2.285,4.944,3.749,6.556
				c1.002,1.105,2.144,5.365,9.083,9.38c3.292,1.904,12.252,1.466,15.838-0.209c2.637-1.231,5.879-5.634,6.621-6.951
				c0.738-1.308,1.946-1.788,2.924-2.821c1.031-1.087,1.172-2.87,0.826-4.414C341.539,345.374,339.202,345.061,337.436,341.165z"/>
			<path style="fill:#D3D331;" d="M341.37,348.09c0.17-2.716-2.168-3.029-3.934-6.925c-0.264-0.581-1.221-1.693-2.312-2.829
				c-1.823,6.822-8.736,12.19-14.75,13.448c-4.016,0.84-8.934,0.486-11.429-3.667c-1.655-2.753-1.92-6.14-1.293-9.325
				c-1.514,2.245-2.108,4.25-2.497,5.016c-0.69,1.358-1.841,1.714-2.826,2.743c-2.917,3.04,2.285,4.944,3.749,6.556
				c1.002,1.105,2.144,5.365,9.083,9.38c3.292,1.904,12.252,1.466,15.838-0.209c2.637-1.231,5.879-5.634,6.621-6.951
				c0.738-1.308,1.946-1.788,2.924-2.821C341.575,351.417,341.716,349.634,341.37,348.09z"/>
			<path style="opacity:0.43;fill:#C3BE30;enable-background:new    ;" d="M305.155,343.807c-0.69,1.358-1.841,1.714-2.826,2.743
				c-2.917,3.04,2.285,4.944,3.749,6.556c1.002,1.105,2.144,5.365,9.083,9.38c3.292,1.904,12.252,1.466,15.838-0.209
				c2.637-1.231,5.879-5.634,6.621-6.951c0.738-1.308,1.946-1.788,2.924-2.821c1.031-1.087,1.172-2.87,0.826-4.414
				c0.17-2.717-2.168-3.029-3.934-6.925c-0.607-1.339-4.9-5.514-6.042-6.268c-0.412-0.271-0.845-0.518-1.293-0.745
				c0.654,0.84,1.183,1.846,1.544,3.057c1.455,4.889,0.168,9.816-2.943,13.49c-2.641,3.12-6.305,5.572-10.126,6.363
				c-3.597,0.745-7.712,0.143-10.138-3.223c-1.619-2.244-2.657-5.156-2.609-8.057c0.037-2.165,0.572-4.187,1.285-6.152
				C305.987,341.525,305.495,343.139,305.155,343.807z"/>
			<path style="opacity:0.69;fill:#B8B533;enable-background:new    ;" d="M305.155,343.807c-0.165,0.327-0.358,0.595-0.569,0.829
				c0.014,0.084,0.024,0.171,0.027,0.264c0.064,1.994-0.735,4.428-2.866,4.46h-0.002c0.855,1.526,3.383,2.699,4.334,3.745
				c1.002,1.105,2.144,5.365,9.083,9.38c3.292,1.904,12.252,1.466,15.838-0.209c2.637-1.231,5.879-5.634,6.621-6.951
				c0.738-1.308,1.946-1.788,2.924-2.821c1.031-1.087,1.172-2.87,0.826-4.414c0.147-2.37-1.611-2.911-3.235-5.593
				c0.083,1.238,0.049,2.479-0.102,3.686c-0.682,5.457-4.106,8.964-8.519,11.038c-3.495,1.644-7.376,2.787-11.151,2.269
				c-12.274-1.682-14.089-9.616-12.899-16.396C305.344,343.388,305.246,343.631,305.155,343.807z"/>
			<path style="opacity:0.56;fill:#B99E30;enable-background:new    ;" d="M325.84,359.984c-4.748,1.436-9.922,1.472-14.251-1.409
				c-3.485-2.319-6.371-6.017-6.68-10.576c-0.189,0.589-0.172,1.723-0.54,2.193c-0.424,0.539-1.227,0.201-1.768,0.207
				c1.118,1.043,2.754,1.911,3.477,2.708c0.83,0.913,1.758,3.989,5.983,7.298c2.04,1.073,4.509,2.05,6.729,2.249
				c3.54,0.317,7.018,0.59,10.315-0.928c5.668-2.61,8.254-7.265,9.285-8.294c1.129-1.124,2.458-2.123,2.741-3.904
				c0.233-1.471-0.287-2.974-0.862-4.29c-0.26-0.306-0.547-0.622-0.853-0.982c0.008,0.075,0.018,0.15,0.027,0.226
				c0.261,2.746-0.218,5.256-1.72,7.49C334.955,356.086,330.23,358.654,325.84,359.984z"/>
			
				<linearGradient id="SVGID_20_" gradientUnits="userSpaceOnUse" x1="321.6352" y1="494.11" x2="322.8778" y2="508.3132" gradientTransform="matrix(1 0 0 -1 0 842.11)">
				<stop  offset="0.0364" style="stop-color:#EEEA4C"/>
				<stop  offset="0.8545" style="stop-color:#FCF5A7"/>
			</linearGradient>
			<path style="opacity:0.44;fill:url(#SVGID_20_);enable-background:new    ;" d="M326.527,341.854
				c1.717,0.475,3.674,1.109,5.159,2.196c1.314,0.96,2.404,2.353,3.533,3.402c1.577-0.607,2.049-2.418,1.408-3.904
				c-2.792-6.479-8.358-9.758-14.589-9.758c-3.414,0-5.506,0.348-8.582,1.785c-2.369,1.108-6.344,4.056-6.702,11.123
				c2.58-4.201,5.857-5.662,8.91-5.825C319.261,340.682,323.091,340.904,326.527,341.854z"/>
			<path style="opacity:0.52;fill:#FAF9D5;enable-background:new    ;" d="M311.054,340.245c1.056-0.678,2.216-1.203,3.345-1.59
				c2.355-0.807,4.827-1.373,7.449-1.373c1.613,0,3.142,0.2,4.679,0.447c1.066,0.172,3.507,1.476,4.495,1.041
				c1.541-0.681-1.677-2.281-2.276-2.57c-1.293-0.628-2.869-0.915-4.325-1.133c-3.009-0.45-6.198-0.065-9.07,0.95
				c-2.3,0.812-6.38,2.91-6.779,6.028l0.096,0.106C308.753,341.83,310.456,340.629,311.054,340.245z"/>
		</g>
	</g>
</g>
</svg>
