<?xml version="1.0" encoding="iso-8859-1"?>
<!-- Generator: Adobe Illustrator 23.0.2, SVG Export Plug-In . SVG Version: 6.00 Build 0)  -->
<svg version="1.1" id="Layer_1" xmlns="http://www.w3.org/2000/svg" xmlns:xlink="http://www.w3.org/1999/xlink" x="0px" y="0px"
	 viewBox="0 0 595.276 841.89" style="enable-background:new 0 0 595.276 841.89;" xml:space="preserve">
<g>
	<path style="fill:#70B744;" d="M181.398,278.786c-0.571-5.564-1.143-8.537-1.822-10.442c-0.892-2.593-1.821-3.428-5.892-3.428
		h-3.642v54.343c0,8.842,0.464,10.137,5.535,10.822v3.201h-15.819v-3.201c4.892-0.685,5.356-1.905,5.356-10.822v-54.343h-3.107
		c-4.642,0-5.749,1.068-6.464,3.428c-0.678,1.905-1.143,5.184-1.821,10.442h-1.607c0.251-7.239,0.5-14.633,0.607-20.807h1.143
		c0.786,2.821,1.464,2.821,3.035,2.821h21.64c1.464,0,1.965-0.685,2.786-2.821h1.143c0,5.106,0.286,13.718,0.535,20.427
		L181.398,278.786z"/>
	<path style="fill:#70B744;" d="M221.645,287.631c-2.679,0.913-3.142,2.21-4.25,8.154c-1.607,8.764-4,23.705-6.499,38.718h-1.571
		c-2.214-11.965-4.429-22.939-6.535-33.992c-2.035,11.127-4.178,22.102-6.249,33.992h-1.679
		c-1.928-13.185-3.999-26.292-6.177-39.633c-0.929-5.638-1.392-6.554-3.892-7.239v-2.973h11.32v2.973
		c-3.178,1.143-3.428,1.828-2.643,6.781c1.179,8.232,2.5,16.768,3.785,24.847h0.107c1.999-10.364,3.964-21.647,6.142-34.069h1.499
		c1.999,11.205,4.178,22.864,6.392,34.527h0.107c1.036-6.936,2.607-16.996,3.536-24.848c0.678-5.411,0.322-6.249-3.071-7.239v-2.973
		h9.677v2.973H221.645z"/>
	<path style="fill:#70B744;" d="M242.215,323.375c-3.428,9.222-7.249,11.202-8.963,11.202c-6.535,0-10.391-11.202-10.391-23.627
		c0-7.394,1.249-14.1,3.393-19.054c2.285-5.336,5.177-8.537,7.999-8.537h0.036c4.535,0,8.142,8.307,8.142,17.151
		c0,2.133-0.286,3.123-1.249,3.581c-0.964,0.305-7.607,1.448-13.748,1.908c0.107,14.403,4.071,20.501,7.748,20.501
		c2.178,0,4.214-1.753,6.142-5.564L242.215,323.375z M233.003,287.553c-2.285,0-4.57,4.343-5.32,13.643c2.82,0,5.642,0,8.605-0.23
		c0.929-0.075,1.251-0.685,1.251-2.136c0-5.866-1.714-11.277-4.499-11.277H233.003z"/>
	<path style="fill:#70B744;" d="M260.607,333.285v-2.97c3.035-0.688,3.393-1.6,3.393-9.452v-18.138
		c0-7.777-1.464-12.422-4.713-12.422c-1.999,0-3.964,2.668-5.571,5.489v25.76c0,7.621,0.286,8.079,3.357,8.767v2.97h-11.784v-2.97
		c3.536-0.915,3.821-1.448,3.821-8.919v-22.407c0-7.241-0.358-7.696-3.142-8.764v-2.823c2.535-0.838,5.285-2.285,7.749-4.421v8.994
		c1.072-1.675,2.214-3.431,3.57-5.336c1.499-2.058,2.82-3.278,4.393-3.278c4.214,0,6.891,6.326,6.891,17.378v20.807
		c0,7.621,0.322,7.927,3.393,8.767v2.97H260.607z"/>
	<path style="fill:#70B744;" d="M285.641,333.057c-0.964,1.143-1.786,1.523-2.249,1.523c-3.536,0-5.499-4.266-5.499-13.26v-32.011
		h-3.606l-0.25-1.298l1.464-3.353h2.392v-8.079l3.892-7.774l0.714,0.302v15.548h5.928c0.536,1.22,0.358,3.658-0.356,4.651h-5.571
		v28.126c0,8.992,1.822,10.517,3.142,10.517c1.249,0,2.428-1.068,3.214-1.905l0.464,3.048L285.641,333.057z"/>
	<path style="fill:#70B744;" d="M315.316,287.631c-2.82,0.913-3.285,1.828-4.713,8.232c-1.321,5.638-3.035,15.016-6.714,33.079
		c-3.606,17.758-4.749,24.085-5.642,30.411c-0.25,2.136-0.928,2.668-1.642,2.668c-1.535,0-3.178-2.743-3.178-5.719
		c0-1.828,0.464-2.821,1.357-4.113c1.822-2.285,2.858-4.801,4.143-9.832c0.929-3.658,1.357-5.869,1.571-7.164
		c0.322-1.678,0.215-3.201-0.107-5.031c-2.249-13.185-4.713-27.058-6.177-34.374c-1.143-5.794-1.714-7.241-4.57-8.154v-2.973h11.213
		l0.071,2.973c-2.464,0.913-2.786,1.905-2.107,5.946l4.785,27.285c1.428-7.011,3.713-20.196,4.749-26.905
		c0.679-4.113,0.251-5.411-2.714-6.324v-2.973h9.677v2.968H315.316z"/>
</g>
</svg>
