<?xml version="1.0" encoding="iso-8859-1"?>
<!-- Generator: Adobe Illustrator 23.0.2, SVG Export Plug-In . SVG Version: 6.00 Build 0)  -->
<svg version="1.1" id="Layer_1" xmlns="http://www.w3.org/2000/svg" xmlns:xlink="http://www.w3.org/1999/xlink" x="0px" y="0px"
	 viewBox="0 0 595.276 841.89" style="enable-background:new 0 0 595.276 841.89;" xml:space="preserve">
<path style="fill:#70B744;" d="M297.637,289.104c-0.058,22.78-3.118,42.051-9.173,57.816c-6.064,15.779-14.311,23.631-24.744,23.577
	c-6.174-0.034-11.253-3.374-15.233-10.002c-3.978-6.621-6.742-14.986-8.275-25.099c-1.536-10.106-2.288-22.001-2.252-35.67
	c0.058-22.929,3.136-42.47,9.235-58.626c6.098-16.14,14.329-24.177,24.688-24.123c6.17,0.034,11.245,3.465,15.225,10.329
	c3.984,6.85,6.744,15.455,8.281,25.787C296.921,263.431,297.671,275.427,297.637,289.104z M277.539,329.694
	c1.356-6.104,2.44-12.158,3.258-18.178c0.812-6.01,1.446-12.505,1.904-19.463c0.458-6.968,0.676-13.268,0.668-18.903
	c-0.014-5.639-0.338-11.152-0.974-16.561c-1.392-11.415-5.276-17.452-11.657-18.103c-4.024-0.412-7.645,2.335-10.861,8.257
	c-3.288,11.702-5.63,28.152-7.02,49.347c-1.272,19.379-0.76,33.146,1.53,41.306c2.124,7.224,5.618,11.085,10.479,11.584
	c2.734,0.28,5.188-1.333,7.369-4.842C274.413,340.62,276.181,335.811,277.539,329.694z"/>
<g>
	<path style="fill:#70B744;" d="M229.422,356.415c0,5.659-1.084,10.528-3.25,14.608c-2.17,4.08-5.19,6.114-9.071,6.114
		c-3.876,0-10.657-0.499-20.351-1.498c-9.691-0.999-17.171-1.498-22.426-1.498c-2.13-5.659-3.19-11.615-3.19-17.854
		c0-6.243,1.434-12.819,4.296-19.73c2.856-6.907,6.318-13.4,10.377-19.48c4.066-6.077,8.099-12.192,12.119-18.353
		c4.014-6.158,7.455-12.985,10.317-20.476c2.856-7.491,4.288-14.611,4.288-21.35c0-6.745-1.012-12.276-3.042-16.609
		c-2.032-4.329-4.796-6.492-8.311-6.492c-3.504,0-6.41,1.745-8.717,5.247c-1.85,4.994-2.766,10.693-2.766,17.101
		c0,6.411,0.276,11.365,0.83,14.861c-1.85,0.833-3.376,1.245-4.572,1.245c-3.69,0-6.81-1.873-9.349-5.615
		c-2.536-3.749-3.802-8.78-3.802-15.114c0-12.144,3.138-22.051,9.413-29.715c6.28-7.653,13.243-11.486,20.909-11.486
		c7.659,0,13.981,3.708,18.969,11.112c4.978,7.41,7.473,17.607,7.473,30.592c0,7.66-1.34,15.404-4.014,23.222
		c-2.676,7.832-5.908,15.033-9.685,21.603c-3.79,6.58-7.619,13.028-11.497,19.352c-9.141,14.82-13.709,27.309-13.709,37.459
		c14.491-0.331,26.864-4.495,37.107-12.485C228.87,345.678,229.422,350.757,229.422,356.415z"/>
</g>
</svg>
