<?xml version="1.0" encoding="iso-8859-1"?>
<!-- Generator: Adobe Illustrator 23.0.2, SVG Export Plug-In . SVG Version: 6.00 Build 0)  -->
<svg version="1.1" id="Layer_1" xmlns="http://www.w3.org/2000/svg" xmlns:xlink="http://www.w3.org/1999/xlink" x="0px" y="0px"
	 viewBox="0 0 595.276 841.89" style="enable-background:new 0 0 595.276 841.89;" xml:space="preserve">
<g>
	<path style="fill:#1CB24B;" d="M358.632,488.477c0,14.349-12.567,25.976-28.07,25.976H131.308c-15.502,0-28.07-11.627-28.07-25.976
		V231.023c0-14.347,12.567-25.974,28.07-25.974h199.255c15.502,0,28.07,11.627,28.07,25.974V488.477z"/>
	<path style="fill:#FFFFFF;" d="M346.997,482.378c0,11.478-10.054,20.783-22.458,20.783H137.332
		c-12.404,0-22.457-9.305-22.457-20.783V237.122c0-11.478,10.053-20.782,22.457-20.782h187.206c12.404,0,22.458,9.303,22.458,20.782
		V482.378z"/>
</g>
<path style="fill:#70B744;" d="M190.743,241.726c-0.029,6.751-1.559,12.462-4.586,17.134c-3.032,4.676-7.155,7.003-12.371,6.987
	c-3.087-0.01-5.626-1-7.616-2.964c-1.989-1.962-3.371-4.441-4.137-7.438c-0.768-2.995-1.144-6.52-1.126-10.571
	c0.029-6.795,1.568-12.586,4.617-17.374c3.049-4.783,7.164-7.165,12.343-7.149c3.085,0.01,5.622,1.027,7.612,3.061
	c1.992,2.03,3.372,4.58,4.14,7.642C190.385,234.118,190.76,237.673,190.743,241.726z M180.695,253.755
	c0.678-1.809,1.22-3.603,1.629-5.387c0.406-1.781,0.723-3.706,0.952-5.768c0.229-2.065,0.338-3.932,0.334-5.602
	c-0.007-1.671-0.169-3.305-0.487-4.908c-0.696-3.383-2.638-5.172-5.828-5.365c-2.012-0.122-3.822,0.692-5.43,2.447
	c-1.644,3.468-2.815,8.343-3.51,14.624c-0.636,5.743-0.38,9.823,0.765,12.241c1.062,2.141,2.809,3.285,5.239,3.433
	c1.367,0.083,2.594-0.395,3.684-1.435C179.132,256.993,180.016,255.568,180.695,253.755z"/>
<g>
	<path style="fill:#70B744;" d="M156.638,261.674c0,1.677-0.542,3.12-1.625,4.329c-1.085,1.209-2.595,1.812-4.535,1.812
		c-1.938,0-5.328-0.148-10.175-0.444c-4.845-0.296-8.585-0.444-11.212-0.444c-1.065-1.677-1.595-3.442-1.595-5.291
		c0-1.85,0.717-3.799,2.148-5.847c1.428-2.047,3.159-3.971,5.188-5.773c2.033-1.801,4.049-3.613,6.059-5.439
		c2.007-1.825,3.727-3.848,5.158-6.068c1.428-2.22,2.144-4.33,2.144-6.327c0-1.999-0.506-3.638-1.521-4.922
		c-1.016-1.283-2.398-1.924-4.155-1.924c-1.752,0-3.205,0.517-4.358,1.555c-0.925,1.48-1.383,3.169-1.383,5.068
		c0,1.9,0.138,3.368,0.415,4.404c-0.925,0.247-1.688,0.369-2.286,0.369c-1.845,0-3.405-0.555-4.674-1.664
		c-1.268-1.111-1.901-2.602-1.901-4.479c0-3.599,1.569-6.535,4.706-8.806c3.14-2.268,6.621-3.404,10.454-3.404
		c3.829,0,6.99,1.099,9.484,3.293c2.489,2.196,3.736,5.218,3.736,9.066c0,2.27-0.67,4.565-2.007,6.882
		c-1.338,2.321-2.954,4.455-4.842,6.402c-1.895,1.95-3.809,3.861-5.748,5.735c-4.57,4.392-6.854,8.093-6.854,11.101
		c7.245-0.098,13.431-1.332,18.552-3.7C156.362,258.492,156.638,259.997,156.638,261.674z"/>
</g>
<g>
	<path style="fill:#70B744;" d="M154.836,464.03c-0.508-2.006-1.016-3.078-1.62-3.765c-0.793-0.935-1.619-1.236-5.239-1.236h-3.239
		v19.594c0,3.188,0.413,3.655,4.922,3.902v1.154h-14.067v-1.154c4.35-0.247,4.763-0.687,4.763-3.902v-19.594h-2.763
		c-4.128,0-5.112,0.385-5.748,1.236c-0.603,0.687-1.016,1.869-1.619,3.765h-1.429c0.223-2.61,0.445-5.276,0.54-7.502h1.016
		c0.699,1.017,1.302,1.017,2.699,1.017h19.243c1.302,0,1.747-0.247,2.477-1.017h1.016c0,1.841,0.254,4.946,0.476,7.365
		L154.836,464.03z"/>
	<path style="fill:#70B744;" d="M190.625,467.219c-2.382,0.329-2.794,0.797-3.779,2.94c-1.429,3.16-3.557,8.547-5.779,13.96h-1.397
		c-1.969-4.314-3.938-8.271-5.811-12.256c-1.81,4.012-3.715,7.969-5.557,12.256h-1.493c-1.714-4.754-3.556-9.48-5.493-14.29
		c-0.826-2.033-1.238-2.363-3.461-2.61v-1.072h10.066v1.072c-2.826,0.412-3.048,0.659-2.35,2.445
		c1.048,2.968,2.223,6.046,3.366,8.959h0.095c1.778-3.737,3.525-7.805,5.462-12.284h1.333c1.778,4.04,3.715,8.244,5.684,12.449
		h0.095c0.921-2.501,2.318-6.128,3.144-8.959c0.603-1.951,0.286-2.253-2.731-2.61v-1.072h8.605V467.219z"/>
	<path style="fill:#70B744;" d="M208.917,480.107c-3.048,3.325-6.446,4.039-7.97,4.039c-5.811,0-9.24-4.039-9.24-8.519
		c0-2.666,1.111-5.084,3.017-6.87c2.032-1.924,4.604-3.078,7.113-3.078h0.032c4.033,0,7.24,2.995,7.24,6.184
		c0,0.769-0.254,1.126-1.111,1.291c-0.857,0.11-6.764,0.522-12.225,0.688c0.095,5.193,3.62,7.392,6.89,7.392
		c1.937,0,3.747-0.632,5.462-2.006L208.917,480.107z M200.725,467.191c-2.032,0-4.064,1.566-4.731,4.919
		c2.508,0,5.017,0,7.652-0.083c0.826-0.027,1.112-0.247,1.112-0.77c0-2.115-1.524-4.066-4.001-4.066H200.725z"/>
	<path style="fill:#70B744;" d="M225.272,483.68v-1.071c2.699-0.248,3.017-0.577,3.017-3.408v-6.54c0-2.804-1.302-4.479-4.191-4.479
		c-1.778,0-3.525,0.962-4.954,1.979v9.288c0,2.748,0.254,2.913,2.985,3.161v1.071h-10.479v-1.071
		c3.144-0.33,3.398-0.522,3.398-3.216v-8.079c0-2.611-0.318-2.775-2.794-3.16v-1.018c2.254-0.302,4.7-0.824,6.891-1.594v3.243
		c0.953-0.604,1.969-1.237,3.175-1.924c1.333-0.742,2.508-1.182,3.906-1.182c3.747,0,6.128,2.281,6.128,6.266v7.502
		c0,2.748,0.286,2.858,3.017,3.161v1.071H225.272z"/>
	<path style="fill:#70B744;" d="M247.533,483.598c-0.857,0.412-1.588,0.549-2,0.549c-3.144,0-4.89-1.538-4.89-4.781v-11.542h-3.207
		l-0.222-0.468l1.302-1.209h2.127v-2.913l3.461-2.803l0.635,0.109v5.606h5.271c0.477,0.44,0.318,1.319-0.317,1.677h-4.954v10.141
		c0,3.242,1.62,3.792,2.794,3.792c1.111,0,2.159-0.385,2.858-0.687l0.413,1.099L247.533,483.598z"/>
	<path style="fill:#70B744;" d="M273.921,467.219c-2.508,0.329-2.921,0.659-4.191,2.968c-1.175,2.033-2.699,5.414-5.97,11.927
		c-3.207,6.403-4.223,8.684-5.017,10.965c-0.222,0.77-0.825,0.962-1.46,0.962c-1.365,0-2.826-0.989-2.826-2.062
		c0-0.659,0.413-1.017,1.207-1.483c1.62-0.824,2.541-1.731,3.684-3.545c0.826-1.319,1.207-2.116,1.397-2.583
		c0.286-0.605,0.191-1.154-0.095-1.814c-2-4.754-4.191-9.756-5.493-12.394c-1.016-2.089-1.524-2.611-4.064-2.94v-1.072h9.971
		l0.063,1.072c-2.191,0.329-2.477,0.687-1.874,2.144l4.255,9.838c1.27-2.528,3.302-7.282,4.223-9.701
		c0.604-1.483,0.223-1.951-2.413-2.28v-1.072h8.605V467.219z"/>
</g>
<g>
	<g>
		<g>
			<path style="fill:#D7DC43;" d="M274.878,362.044c-0.607-1.127-4.9-4.642-6.042-5.277c-5.492-3.054-14.764-2.718-17.753-1.314
				c-6.411,3.01-7.778,7.643-8.486,8.816c-0.69,1.143-1.841,1.443-2.826,2.309c-2.917,2.559,2.285,4.162,3.749,5.519
				c1.002,0.93,2.144,4.517,9.083,7.897c3.292,1.603,12.252,1.234,15.838-0.176c2.637-1.036,5.879-4.743,6.621-5.852
				c0.738-1.101,1.946-1.505,2.924-2.375c1.031-0.915,1.172-2.416,0.826-3.716C278.981,365.586,276.644,365.323,274.878,362.044z"/>
			<path style="fill:#D3D332;" d="M278.812,367.873c0.17-2.287-2.168-2.55-3.934-5.83c-0.264-0.489-1.221-1.425-2.312-2.382
				c-1.823,5.743-8.736,10.263-14.75,11.322c-4.016,0.707-8.934,0.409-11.429-3.087c-1.654-2.319-1.92-5.169-1.293-7.851
				c-1.514,1.89-2.108,3.578-2.497,4.223c-0.69,1.143-1.841,1.443-2.826,2.309c-2.917,2.559,2.285,4.162,3.749,5.519
				c1.002,0.93,2.144,4.517,9.083,7.897c3.292,1.603,12.252,1.234,15.838-0.176c2.637-1.036,5.879-4.743,6.621-5.852
				c0.738-1.101,1.946-1.505,2.924-2.375C279.017,370.674,279.158,369.173,278.812,367.873z"/>
			<path style="opacity:0.43;fill:#C2BD30;" d="M242.597,364.268c-0.69,1.143-1.841,1.443-2.826,2.309
				c-2.917,2.559,2.285,4.162,3.749,5.519c1.002,0.93,2.144,4.517,9.083,7.897c3.292,1.603,12.252,1.234,15.838-0.176
				c2.637-1.036,5.879-4.743,6.621-5.852c0.738-1.101,1.946-1.505,2.924-2.375c1.031-0.915,1.172-2.416,0.826-3.716
				c0.17-2.287-2.168-2.55-3.934-5.83c-0.607-1.127-4.9-4.642-6.042-5.277c-0.412-0.228-0.845-0.436-1.293-0.627
				c0.654,0.707,1.183,1.554,1.544,2.574c1.455,4.116,0.168,8.264-2.943,11.357c-2.641,2.627-6.305,4.691-10.126,5.357
				c-3.597,0.627-7.712,0.12-10.138-2.713c-1.619-1.889-2.657-4.341-2.609-6.783c0.037-1.823,0.572-3.525,1.285-5.179
				C243.43,362.346,242.937,363.705,242.597,364.268z"/>
			<path style="opacity:0.69;fill:#B8B433;" d="M242.597,364.268c-0.165,0.275-0.358,0.5-0.569,0.698
				c0.014,0.071,0.024,0.144,0.027,0.222c0.064,1.679-0.735,3.728-2.866,3.755h-0.002c0.855,1.285,3.383,2.272,4.334,3.153
				c1.002,0.93,2.144,4.517,9.083,7.897c3.292,1.603,12.252,1.234,15.838-0.176c2.637-1.036,5.879-4.743,6.621-5.852
				c0.738-1.101,1.946-1.505,2.924-2.375c1.031-0.915,1.172-2.416,0.826-3.716c0.147-1.995-1.611-2.451-3.235-4.709
				c0.083,1.042,0.049,2.087-0.102,3.103c-0.682,4.594-4.106,7.547-8.519,9.293c-3.495,1.384-7.376,2.346-11.151,1.91
				c-12.274-1.416-14.089-8.096-12.899-13.804C242.787,363.915,242.688,364.12,242.597,364.268z"/>
			<path style="opacity:0.56;fill:#B99E30;" d="M263.283,377.886c-4.748,1.209-9.922,1.239-14.251-1.186
				c-3.485-1.952-6.371-5.066-6.68-8.904c-0.189,0.496-0.172,1.451-0.54,1.846c-0.424,0.454-1.227,0.169-1.768,0.174
				c1.118,0.878,2.754,1.609,3.477,2.28c0.83,0.77,1.758,3.358,5.983,6.144c2.04,0.903,4.509,1.726,6.729,1.893
				c3.54,0.267,7.018,0.497,10.315-0.782c5.668-2.197,8.254-6.116,9.285-6.983c1.129-0.946,2.458-1.787,2.741-3.287
				c0.233-1.238-0.287-2.504-0.862-3.612c-0.26-0.258-0.547-0.524-0.853-0.827c0.008,0.063,0.018,0.126,0.027,0.19
				c0.261,2.312-0.218,4.425-1.72,6.306C272.398,374.605,267.673,376.768,263.283,377.886z"/>
			<linearGradient id="SVGID_1_" gradientUnits="userSpaceOnUse" x1="259.0929" y1="368.005" x2="260.1593" y2="355.8153">
				<stop  offset="0.0364" style="stop-color:#EFEA48"/>
				<stop  offset="0.8545" style="stop-color:#FCF5A5"/>
			</linearGradient>
			<path style="opacity:0.44;fill:url(#SVGID_1_);" d="M263.969,362.624c1.717,0.4,3.675,0.934,5.159,1.849
				c1.313,0.808,2.404,1.981,3.533,2.864c1.577-0.511,2.049-2.036,1.409-3.287c-2.792-5.455-8.359-8.215-14.589-8.215
				c-3.414,0-5.506,0.293-8.582,1.503c-2.369,0.933-6.344,3.415-6.702,9.364c2.58-3.537,5.857-4.766,8.91-4.903
				C256.703,361.637,260.533,361.823,263.969,362.624z"/>
			<path style="opacity:0.52;fill:#FAF8D3;" d="M248.497,361.268c1.056-0.571,2.216-1.013,3.345-1.338
				c2.355-0.679,4.827-1.156,7.449-1.156c1.613,0,3.142,0.168,4.679,0.376c1.066,0.145,3.507,1.243,4.495,0.876
				c1.541-0.573-1.677-1.92-2.276-2.164c-1.293-0.529-2.869-0.77-4.325-0.954c-3.009-0.379-6.198-0.055-9.07,0.8
				c-2.3,0.684-6.38,2.45-6.779,5.075l0.096,0.089C246.195,362.603,247.898,361.593,248.497,361.268z"/>
		</g>
	</g>
	<g>
		<g>
			<path style="fill:#D7DC43;" d="M319.563,372.299c-0.607-1.127-4.9-4.642-6.042-5.277c-5.492-3.054-14.764-2.718-17.753-1.314
				c-6.411,3.01-7.778,7.643-8.486,8.816c-0.69,1.143-1.841,1.443-2.826,2.309c-2.917,2.559,2.285,4.162,3.749,5.519
				c1.002,0.93,2.144,4.517,9.083,7.897c3.292,1.603,12.252,1.234,15.838-0.176c2.637-1.036,5.879-4.743,6.621-5.852
				c0.738-1.101,1.946-1.505,2.924-2.375c1.031-0.915,1.172-2.416,0.826-3.716C323.666,375.842,321.329,375.579,319.563,372.299z"/>
			<path style="fill:#D3D332;" d="M323.497,378.129c0.169-2.287-2.168-2.55-3.934-5.83c-0.264-0.489-1.221-1.425-2.313-2.382
				c-1.823,5.743-8.736,10.263-14.75,11.322c-4.016,0.707-8.934,0.409-11.429-3.087c-1.655-2.319-1.921-5.169-1.293-7.851
				c-1.514,1.89-2.109,3.578-2.497,4.223c-0.69,1.143-1.841,1.443-2.826,2.309c-2.917,2.559,2.285,4.162,3.749,5.519
				c1.002,0.93,2.144,4.517,9.083,7.897c3.292,1.603,12.252,1.234,15.838-0.176c2.637-1.036,5.879-4.743,6.621-5.852
				c0.738-1.101,1.946-1.505,2.924-2.375C323.702,380.93,323.843,379.428,323.497,378.129z"/>
			<path style="opacity:0.43;fill:#C2BD30;" d="M287.282,374.523c-0.69,1.143-1.841,1.443-2.826,2.309
				c-2.917,2.559,2.285,4.162,3.749,5.519c1.002,0.93,2.144,4.517,9.083,7.897c3.292,1.603,12.252,1.234,15.838-0.176
				c2.637-1.036,5.879-4.743,6.621-5.852c0.738-1.101,1.946-1.505,2.924-2.375c1.031-0.915,1.172-2.416,0.826-3.716
				c0.169-2.287-2.168-2.55-3.934-5.83c-0.607-1.127-4.9-4.642-6.042-5.277c-0.412-0.228-0.845-0.436-1.293-0.627
				c0.654,0.707,1.183,1.554,1.544,2.574c1.455,4.116,0.168,8.264-2.943,11.357c-2.641,2.627-6.305,4.691-10.126,5.357
				c-3.597,0.627-7.712,0.12-10.138-2.713c-1.619-1.889-2.657-4.341-2.609-6.783c0.037-1.823,0.572-3.525,1.285-5.179
				C288.115,372.602,287.622,373.961,287.282,374.523z"/>
			<path style="opacity:0.69;fill:#B8B433;" d="M287.282,374.523c-0.165,0.275-0.358,0.5-0.569,0.698
				c0.014,0.071,0.024,0.144,0.027,0.222c0.064,1.679-0.735,3.728-2.866,3.755h-0.002c0.855,1.285,3.383,2.272,4.334,3.153
				c1.002,0.93,2.144,4.517,9.083,7.897c3.292,1.603,12.252,1.234,15.838-0.176c2.637-1.036,5.879-4.743,6.621-5.852
				c0.738-1.101,1.946-1.505,2.924-2.375c1.031-0.915,1.172-2.416,0.826-3.716c0.147-1.995-1.611-2.451-3.236-4.709
				c0.083,1.042,0.049,2.087-0.102,3.103c-0.682,4.594-4.106,7.547-8.519,9.293c-3.495,1.384-7.376,2.346-11.151,1.91
				c-12.274-1.416-14.089-8.096-12.899-13.804C287.471,374.17,287.373,374.375,287.282,374.523z"/>
			<path style="opacity:0.56;fill:#B99E30;" d="M307.968,388.141c-4.748,1.209-9.922,1.239-14.251-1.186
				c-3.485-1.952-6.371-5.066-6.68-8.904c-0.189,0.496-0.172,1.451-0.54,1.846c-0.424,0.454-1.227,0.169-1.768,0.174
				c1.118,0.878,2.754,1.609,3.477,2.28c0.829,0.77,1.758,3.358,5.983,6.144c2.04,0.903,4.509,1.726,6.729,1.893
				c3.54,0.267,7.018,0.497,10.315-0.782c5.668-2.197,8.254-6.116,9.285-6.983c1.129-0.946,2.458-1.787,2.741-3.287
				c0.233-1.238-0.287-2.504-0.862-3.612c-0.26-0.258-0.547-0.524-0.853-0.827c0.008,0.063,0.018,0.126,0.026,0.19
				c0.261,2.312-0.218,4.425-1.72,6.306C317.083,384.861,312.357,387.023,307.968,388.141z"/>
			<linearGradient id="SVGID_2_" gradientUnits="userSpaceOnUse" x1="303.7777" y1="378.2606" x2="304.8442" y2="366.0709">
				<stop  offset="0.0364" style="stop-color:#EFEA48"/>
				<stop  offset="0.8545" style="stop-color:#FCF5A5"/>
			</linearGradient>
			<path style="opacity:0.44;fill:url(#SVGID_2_);" d="M308.654,372.879c1.717,0.4,3.675,0.934,5.159,1.849
				c1.314,0.808,2.404,1.981,3.533,2.864c1.577-0.511,2.049-2.036,1.409-3.287c-2.792-5.455-8.358-8.215-14.589-8.215
				c-3.414,0-5.506,0.293-8.582,1.503c-2.369,0.933-6.344,3.415-6.702,9.364c2.58-3.537,5.857-4.766,8.91-4.903
				C301.388,371.892,305.218,372.079,308.654,372.879z"/>
			<path style="opacity:0.52;fill:#FAF8D3;" d="M293.182,371.524c1.056-0.571,2.216-1.013,3.344-1.338
				c2.355-0.679,4.827-1.156,7.449-1.156c1.613,0,3.142,0.168,4.679,0.376c1.066,0.145,3.507,1.243,4.495,0.876
				c1.541-0.573-1.677-1.92-2.276-2.164c-1.293-0.529-2.869-0.77-4.325-0.954c-3.009-0.379-6.198-0.055-9.07,0.8
				c-2.3,0.684-6.381,2.45-6.779,5.075l0.096,0.089C290.88,372.858,292.583,371.848,293.182,371.524z"/>
		</g>
	</g>
	<g>
		<g>
			<path style="fill:#D7DC43;" d="M340.822,402.961c-0.607-1.127-4.9-4.642-6.042-5.277c-5.492-3.054-14.764-2.718-17.753-1.314
				c-6.411,3.01-7.778,7.643-8.486,8.816c-0.69,1.143-1.841,1.443-2.826,2.309c-2.917,2.559,2.285,4.162,3.749,5.519
				c1.002,0.93,2.144,4.517,9.083,7.897c3.292,1.603,12.252,1.234,15.838-0.176c2.637-1.036,5.879-4.743,6.621-5.852
				c0.738-1.101,1.946-1.505,2.924-2.375c1.031-0.915,1.172-2.416,0.826-3.716C344.926,406.504,342.588,406.241,340.822,402.961z"/>
			<path style="fill:#D3D332;" d="M344.756,408.791c0.169-2.287-2.168-2.55-3.934-5.83c-0.264-0.489-1.221-1.425-2.313-2.382
				c-1.823,5.743-8.736,10.263-14.75,11.322c-4.016,0.707-8.934,0.409-11.429-3.087c-1.655-2.319-1.921-5.169-1.293-7.851
				c-1.514,1.89-2.109,3.578-2.497,4.223c-0.69,1.143-1.841,1.443-2.826,2.309c-2.917,2.559,2.285,4.162,3.749,5.519
				c1.002,0.93,2.144,4.517,9.083,7.897c3.292,1.603,12.252,1.234,15.838-0.176c2.637-1.036,5.879-4.743,6.621-5.852
				c0.738-1.101,1.946-1.505,2.924-2.375C344.961,411.592,345.102,410.091,344.756,408.791z"/>
			<path style="opacity:0.43;fill:#C2BD30;" d="M308.541,405.185c-0.69,1.143-1.841,1.443-2.826,2.309
				c-2.917,2.559,2.285,4.162,3.749,5.519c1.002,0.93,2.144,4.517,9.083,7.897c3.292,1.603,12.252,1.234,15.838-0.176
				c2.637-1.036,5.879-4.743,6.621-5.852c0.738-1.101,1.946-1.505,2.924-2.375c1.031-0.915,1.172-2.416,0.826-3.716
				c0.169-2.287-2.168-2.55-3.934-5.83c-0.607-1.127-4.9-4.642-6.042-5.277c-0.412-0.228-0.845-0.436-1.293-0.627
				c0.654,0.707,1.183,1.554,1.544,2.574c1.455,4.116,0.168,8.264-2.943,11.357c-2.641,2.627-6.305,4.691-10.126,5.357
				c-3.597,0.627-7.712,0.12-10.138-2.713c-1.619-1.889-2.657-4.341-2.609-6.783c0.037-1.823,0.572-3.525,1.285-5.179
				C309.374,403.264,308.881,404.623,308.541,405.185z"/>
			<path style="opacity:0.69;fill:#B8B433;" d="M308.541,405.185c-0.165,0.275-0.358,0.501-0.569,0.698
				c0.014,0.071,0.024,0.144,0.027,0.222c0.064,1.679-0.735,3.728-2.866,3.755h-0.002c0.855,1.285,3.383,2.272,4.334,3.153
				c1.002,0.93,2.144,4.517,9.083,7.897c3.292,1.603,12.252,1.234,15.838-0.176c2.637-1.036,5.879-4.743,6.621-5.852
				c0.738-1.101,1.946-1.505,2.924-2.375c1.031-0.915,1.172-2.416,0.826-3.716c0.147-1.995-1.611-2.451-3.236-4.709
				c0.083,1.042,0.049,2.087-0.102,3.103c-0.682,4.594-4.106,7.547-8.519,9.293c-3.495,1.384-7.376,2.346-11.151,1.91
				c-12.274-1.416-14.089-8.096-12.899-13.804C308.731,404.833,308.632,405.037,308.541,405.185z"/>
			<path style="opacity:0.56;fill:#B99E30;" d="M329.227,418.804c-4.748,1.209-9.922,1.239-14.251-1.186
				c-3.485-1.952-6.371-5.066-6.68-8.904c-0.189,0.496-0.172,1.451-0.54,1.846c-0.424,0.454-1.227,0.169-1.768,0.174
				c1.118,0.878,2.754,1.609,3.477,2.28c0.829,0.769,1.758,3.358,5.983,6.144c2.04,0.903,4.509,1.726,6.729,1.894
				c3.54,0.267,7.018,0.497,10.315-0.782c5.668-2.197,8.254-6.116,9.285-6.983c1.129-0.946,2.458-1.787,2.741-3.287
				c0.233-1.238-0.287-2.504-0.862-3.612c-0.26-0.258-0.547-0.524-0.853-0.827c0.008,0.063,0.018,0.126,0.026,0.19
				c0.261,2.312-0.218,4.425-1.72,6.306C338.342,415.523,333.617,417.686,329.227,418.804z"/>
			<linearGradient id="SVGID_3_" gradientUnits="userSpaceOnUse" x1="325.0369" y1="408.9229" x2="326.1034" y2="396.7331">
				<stop  offset="0.0364" style="stop-color:#EFEA48"/>
				<stop  offset="0.8545" style="stop-color:#FCF5A5"/>
			</linearGradient>
			<path style="opacity:0.44;fill:url(#SVGID_3_);" d="M329.913,403.542c1.717,0.4,3.675,0.934,5.159,1.849
				c1.314,0.808,2.404,1.981,3.533,2.864c1.577-0.511,2.049-2.036,1.409-3.287c-2.792-5.455-8.358-8.215-14.589-8.215
				c-3.414,0-5.506,0.293-8.582,1.503c-2.369,0.933-6.344,3.415-6.702,9.364c2.58-3.537,5.857-4.767,8.91-4.904
				C322.647,402.554,326.477,402.741,329.913,403.542z"/>
			<path style="opacity:0.52;fill:#FAF8D3;" d="M314.441,402.186c1.056-0.571,2.216-1.013,3.345-1.338
				c2.355-0.679,4.827-1.156,7.449-1.156c1.613,0,3.142,0.168,4.679,0.376c1.066,0.145,3.507,1.243,4.495,0.876
				c1.541-0.573-1.677-1.92-2.276-2.164c-1.293-0.529-2.869-0.77-4.325-0.954c-3.009-0.379-6.198-0.055-9.07,0.8
				c-2.3,0.684-6.38,2.45-6.779,5.075l0.096,0.089C312.139,403.521,313.842,402.51,314.441,402.186z"/>
		</g>
	</g>
	<g>
		<g>
			<path style="fill:#D7DC43;" d="M282.711,394.626c-0.607-1.127-4.9-4.642-6.042-5.277c-5.492-3.054-14.764-2.718-17.753-1.314
				c-6.411,3.01-7.778,7.643-8.486,8.816c-0.69,1.143-1.841,1.443-2.826,2.309c-2.917,2.559,2.285,4.162,3.749,5.519
				c1.002,0.93,2.144,4.517,9.083,7.897c3.292,1.603,12.252,1.234,15.838-0.176c2.637-1.036,5.879-4.743,6.621-5.852
				c0.738-1.101,1.946-1.505,2.924-2.375c1.031-0.915,1.172-2.416,0.826-3.716C286.815,398.168,284.477,397.905,282.711,394.626z"/>
			<path style="fill:#D3D332;" d="M286.645,400.455c0.169-2.287-2.168-2.55-3.934-5.83c-0.264-0.489-1.221-1.425-2.312-2.382
				c-1.823,5.743-8.736,10.263-14.75,11.322c-4.016,0.707-8.934,0.409-11.429-3.087c-1.655-2.319-1.921-5.169-1.293-7.851
				c-1.514,1.89-2.108,3.578-2.497,4.223c-0.69,1.143-1.841,1.443-2.826,2.309c-2.917,2.559,2.285,4.162,3.749,5.519
				c1.002,0.93,2.144,4.517,9.083,7.897c3.292,1.603,12.252,1.234,15.838-0.176c2.637-1.036,5.879-4.743,6.621-5.852
				c0.738-1.101,1.946-1.505,2.924-2.375C286.85,403.256,286.992,401.755,286.645,400.455z"/>
			<path style="opacity:0.43;fill:#C2BD30;" d="M250.431,396.85c-0.69,1.143-1.841,1.443-2.826,2.309
				c-2.917,2.559,2.285,4.162,3.749,5.519c1.002,0.93,2.144,4.517,9.083,7.897c3.292,1.603,12.252,1.234,15.838-0.176
				c2.637-1.036,5.879-4.743,6.621-5.852c0.738-1.101,1.946-1.505,2.924-2.375c1.031-0.915,1.172-2.416,0.826-3.716
				c0.169-2.287-2.168-2.55-3.934-5.83c-0.607-1.127-4.9-4.642-6.042-5.277c-0.412-0.228-0.845-0.436-1.293-0.627
				c0.654,0.707,1.183,1.554,1.544,2.574c1.455,4.116,0.168,8.264-2.943,11.357c-2.641,2.627-6.305,4.691-10.126,5.357
				c-3.597,0.627-7.712,0.12-10.138-2.713c-1.619-1.889-2.657-4.341-2.609-6.783c0.037-1.823,0.572-3.525,1.285-5.179
				C251.263,394.928,250.77,396.287,250.431,396.85z"/>
			<path style="opacity:0.69;fill:#B8B433;" d="M250.431,396.85c-0.165,0.275-0.358,0.501-0.569,0.698
				c0.014,0.071,0.024,0.144,0.027,0.222c0.064,1.679-0.735,3.728-2.866,3.755h-0.002c0.855,1.285,3.383,2.272,4.334,3.153
				c1.002,0.93,2.144,4.517,9.083,7.897c3.292,1.603,12.252,1.234,15.838-0.176c2.637-1.036,5.879-4.743,6.621-5.852
				c0.738-1.101,1.946-1.505,2.924-2.375c1.031-0.915,1.172-2.416,0.826-3.716c0.147-1.995-1.611-2.451-3.235-4.709
				c0.083,1.042,0.049,2.087-0.102,3.103c-0.682,4.594-4.106,7.547-8.519,9.293c-3.495,1.384-7.376,2.346-11.151,1.91
				c-12.274-1.416-14.089-8.096-12.899-13.804C250.62,396.497,250.521,396.701,250.431,396.85z"/>
			<path style="opacity:0.56;fill:#B99E30;" d="M271.116,410.468c-4.748,1.209-9.922,1.239-14.251-1.186
				c-3.485-1.952-6.371-5.066-6.68-8.904c-0.189,0.496-0.172,1.451-0.54,1.846c-0.424,0.454-1.227,0.169-1.768,0.174
				c1.118,0.878,2.754,1.609,3.477,2.28c0.829,0.769,1.758,3.358,5.983,6.144c2.04,0.903,4.509,1.726,6.729,1.894
				c3.54,0.267,7.018,0.497,10.315-0.782c5.668-2.197,8.254-6.116,9.285-6.983c1.129-0.947,2.458-1.787,2.741-3.287
				c0.233-1.239-0.287-2.504-0.862-3.612c-0.26-0.258-0.547-0.524-0.853-0.827c0.008,0.063,0.018,0.126,0.027,0.19
				c0.261,2.312-0.218,4.425-1.72,6.306C280.231,407.187,275.506,409.35,271.116,410.468z"/>
			<linearGradient id="SVGID_4_" gradientUnits="userSpaceOnUse" x1="266.9262" y1="400.587" x2="267.9926" y2="388.3973">
				<stop  offset="0.0364" style="stop-color:#EFEA48"/>
				<stop  offset="0.8545" style="stop-color:#FCF5A5"/>
			</linearGradient>
			<path style="opacity:0.44;fill:url(#SVGID_4_);" d="M271.803,395.206c1.717,0.4,3.674,0.934,5.159,1.849
				c1.314,0.808,2.404,1.981,3.533,2.864c1.577-0.511,2.049-2.036,1.409-3.287c-2.792-5.455-8.358-8.215-14.589-8.215
				c-3.414,0-5.506,0.293-8.582,1.503c-2.369,0.933-6.344,3.415-6.702,9.364c2.58-3.537,5.857-4.766,8.91-4.904
				C264.537,394.218,268.367,394.405,271.803,395.206z"/>
			<path style="opacity:0.52;fill:#FAF8D3;" d="M256.33,393.85c1.056-0.571,2.216-1.013,3.345-1.338
				c2.355-0.679,4.827-1.156,7.449-1.156c1.613,0,3.142,0.168,4.679,0.376c1.066,0.145,3.507,1.242,4.495,0.876
				c1.541-0.573-1.677-1.92-2.276-2.164c-1.293-0.529-2.869-0.77-4.325-0.954c-3.009-0.379-6.198-0.055-9.07,0.8
				c-2.3,0.684-6.38,2.45-6.779,5.075l0.096,0.089C254.029,395.185,255.732,394.174,256.33,393.85z"/>
		</g>
	</g>
	<g>
		<g>
			<path style="fill:#D7DC43;" d="M240.686,412.59c-0.607-1.127-4.9-4.642-6.042-5.277c-5.492-3.054-14.764-2.718-17.753-1.314
				c-6.411,3.01-7.778,7.643-8.486,8.816c-0.69,1.143-1.841,1.443-2.826,2.309c-2.917,2.559,2.285,4.162,3.749,5.519
				c1.002,0.93,2.144,4.517,9.083,7.897c3.292,1.603,12.252,1.234,15.838-0.176c2.637-1.036,5.879-4.743,6.621-5.852
				c0.738-1.101,1.946-1.505,2.924-2.375c1.031-0.915,1.172-2.416,0.826-3.716C244.79,416.133,242.452,415.869,240.686,412.59z"/>
			<path style="fill:#D3D332;" d="M244.62,418.42c0.17-2.287-2.168-2.55-3.934-5.83c-0.264-0.489-1.221-1.425-2.312-2.382
				c-1.823,5.743-8.736,10.263-14.75,11.322c-4.016,0.707-8.934,0.409-11.429-3.087c-1.655-2.318-1.92-5.169-1.293-7.851
				c-1.514,1.89-2.108,3.578-2.497,4.223c-0.69,1.143-1.841,1.443-2.826,2.309c-2.917,2.559,2.285,4.162,3.749,5.519
				c1.002,0.93,2.144,4.517,9.083,7.897c3.292,1.603,12.252,1.234,15.838-0.176c2.637-1.036,5.879-4.743,6.621-5.852
				c0.738-1.101,1.946-1.505,2.924-2.375C244.825,421.22,244.966,419.719,244.62,418.42z"/>
			<path style="opacity:0.43;fill:#C2BD30;" d="M208.405,414.814c-0.69,1.143-1.841,1.443-2.826,2.309
				c-2.917,2.559,2.285,4.162,3.749,5.519c1.002,0.93,2.144,4.517,9.083,7.897c3.292,1.603,12.252,1.234,15.838-0.176
				c2.637-1.036,5.879-4.743,6.621-5.852c0.738-1.101,1.946-1.505,2.924-2.375c1.031-0.915,1.172-2.416,0.826-3.716
				c0.17-2.287-2.168-2.55-3.934-5.83c-0.607-1.127-4.9-4.642-6.042-5.277c-0.412-0.228-0.845-0.436-1.293-0.627
				c0.654,0.707,1.183,1.554,1.544,2.574c1.455,4.116,0.168,8.264-2.943,11.357c-2.641,2.627-6.305,4.691-10.126,5.357
				c-3.597,0.627-7.712,0.12-10.138-2.713c-1.619-1.889-2.657-4.341-2.609-6.783c0.037-1.823,0.572-3.525,1.285-5.179
				C209.238,412.892,208.745,414.252,208.405,414.814z"/>
			<path style="opacity:0.69;fill:#B8B433;" d="M208.405,414.814c-0.165,0.275-0.358,0.501-0.569,0.698
				c0.014,0.071,0.024,0.144,0.027,0.222c0.064,1.679-0.735,3.728-2.866,3.755h-0.002c0.855,1.285,3.383,2.272,4.334,3.153
				c1.002,0.93,2.144,4.517,9.083,7.897c3.292,1.603,12.252,1.234,15.838-0.176c2.637-1.036,5.879-4.743,6.621-5.852
				c0.738-1.101,1.946-1.505,2.924-2.375c1.031-0.915,1.172-2.416,0.826-3.716c0.147-1.995-1.611-2.451-3.235-4.709
				c0.083,1.042,0.049,2.087-0.102,3.104c-0.682,4.594-4.106,7.547-8.519,9.293c-3.495,1.384-7.376,2.346-11.151,1.91
				c-12.274-1.416-14.089-8.096-12.899-13.804C208.595,414.461,208.496,414.666,208.405,414.814z"/>
			<path style="opacity:0.56;fill:#B99E30;" d="M229.091,428.432c-4.748,1.209-9.922,1.24-14.251-1.186
				c-3.485-1.952-6.371-5.066-6.68-8.904c-0.189,0.496-0.172,1.451-0.54,1.846c-0.424,0.454-1.227,0.169-1.768,0.174
				c1.118,0.878,2.754,1.609,3.477,2.28c0.83,0.77,1.758,3.358,5.983,6.144c2.04,0.903,4.509,1.726,6.729,1.894
				c3.54,0.267,7.018,0.497,10.315-0.782c5.668-2.197,8.254-6.116,9.285-6.983c1.129-0.946,2.458-1.787,2.741-3.287
				c0.233-1.238-0.287-2.504-0.862-3.612c-0.26-0.258-0.547-0.524-0.853-0.827c0.008,0.063,0.018,0.126,0.027,0.19
				c0.261,2.312-0.218,4.425-1.72,6.306C238.206,425.151,233.481,427.314,229.091,428.432z"/>
			<linearGradient id="SVGID_5_" gradientUnits="userSpaceOnUse" x1="224.901" y1="418.5514" x2="225.9675" y2="406.3616">
				<stop  offset="0.0364" style="stop-color:#EFEA48"/>
				<stop  offset="0.8545" style="stop-color:#FCF5A5"/>
			</linearGradient>
			<path style="opacity:0.44;fill:url(#SVGID_5_);" d="M229.777,413.17c1.717,0.4,3.675,0.934,5.159,1.849
				c1.313,0.808,2.404,1.981,3.533,2.864c1.577-0.511,2.049-2.036,1.408-3.287c-2.792-5.455-8.358-8.215-14.589-8.215
				c-3.414,0-5.506,0.293-8.582,1.503c-2.369,0.933-6.344,3.415-6.702,9.364c2.58-3.537,5.857-4.766,8.91-4.904
				C222.512,412.183,226.342,412.37,229.777,413.17z"/>
			<path style="opacity:0.52;fill:#FAF8D3;" d="M214.305,411.815c1.056-0.571,2.216-1.013,3.345-1.338
				c2.355-0.679,4.827-1.156,7.449-1.156c1.613,0,3.142,0.168,4.679,0.376c1.066,0.145,3.507,1.242,4.495,0.876
				c1.541-0.573-1.677-1.92-2.276-2.164c-1.293-0.53-2.869-0.77-4.325-0.954c-3.009-0.379-6.198-0.055-9.07,0.8
				c-2.3,0.684-6.38,2.45-6.779,5.075l0.096,0.089C212.003,413.149,213.707,412.139,214.305,411.815z"/>
		</g>
	</g>
	<g>
		<g>
			<path style="fill:#D7DC43;" d="M178.483,399.874c-0.607-1.127-4.9-4.642-6.042-5.277c-5.492-3.054-14.764-2.718-17.753-1.314
				c-6.411,3.01-7.778,7.643-8.486,8.816c-0.69,1.143-1.841,1.443-2.826,2.308c-2.917,2.559,2.285,4.162,3.749,5.519
				c1.002,0.93,2.144,4.517,9.083,7.897c3.291,1.603,12.252,1.234,15.838-0.176c2.637-1.036,5.88-4.743,6.621-5.852
				c0.738-1.101,1.946-1.505,2.924-2.375c1.031-0.915,1.172-2.416,0.826-3.716C182.586,403.417,180.248,403.154,178.483,399.874z"/>
			<path style="fill:#D3D332;" d="M182.416,405.704c0.169-2.287-2.168-2.55-3.934-5.83c-0.264-0.489-1.221-1.425-2.313-2.382
				c-1.823,5.743-8.736,10.263-14.75,11.322c-4.016,0.707-8.934,0.409-11.429-3.087c-1.655-2.318-1.921-5.169-1.293-7.851
				c-1.514,1.89-2.108,3.578-2.497,4.223c-0.69,1.143-1.841,1.443-2.826,2.308c-2.917,2.559,2.285,4.162,3.749,5.519
				c1.002,0.93,2.144,4.517,9.083,7.897c3.291,1.603,12.252,1.234,15.838-0.176c2.637-1.036,5.88-4.743,6.621-5.852
				c0.738-1.101,1.946-1.505,2.924-2.375C182.621,408.505,182.763,407.004,182.416,405.704z"/>
			<path style="opacity:0.43;fill:#C2BD30;" d="M146.202,402.098c-0.69,1.143-1.841,1.443-2.826,2.308
				c-2.917,2.559,2.285,4.162,3.749,5.519c1.002,0.93,2.144,4.517,9.083,7.897c3.291,1.603,12.252,1.234,15.838-0.176
				c2.637-1.036,5.88-4.743,6.621-5.852c0.738-1.101,1.946-1.505,2.924-2.375c1.031-0.915,1.172-2.416,0.826-3.716
				c0.169-2.287-2.168-2.55-3.934-5.83c-0.607-1.127-4.9-4.642-6.042-5.277c-0.412-0.228-0.845-0.436-1.293-0.627
				c0.654,0.707,1.183,1.554,1.544,2.574c1.455,4.116,0.168,8.264-2.943,11.357c-2.641,2.627-6.305,4.691-10.126,5.357
				c-3.597,0.627-7.712,0.12-10.138-2.713c-1.618-1.889-2.657-4.341-2.609-6.783c0.037-1.823,0.572-3.525,1.285-5.179
				C147.034,400.177,146.541,401.536,146.202,402.098z"/>
			<path style="opacity:0.69;fill:#B8B433;" d="M146.202,402.098c-0.165,0.275-0.358,0.5-0.569,0.698
				c0.014,0.071,0.024,0.144,0.027,0.222c0.064,1.679-0.735,3.728-2.866,3.755h-0.002c0.855,1.285,3.383,2.272,4.334,3.153
				c1.002,0.93,2.144,4.517,9.083,7.897c3.291,1.603,12.252,1.234,15.838-0.176c2.637-1.036,5.88-4.743,6.621-5.852
				c0.738-1.101,1.946-1.505,2.924-2.375c1.031-0.915,1.172-2.416,0.826-3.716c0.147-1.995-1.611-2.451-3.235-4.709
				c0.083,1.042,0.049,2.087-0.102,3.104c-0.682,4.594-4.106,7.547-8.519,9.293c-3.495,1.384-7.376,2.346-11.151,1.91
				c-12.274-1.416-14.089-8.096-12.899-13.804C146.391,401.746,146.292,401.95,146.202,402.098z"/>
			<path style="opacity:0.56;fill:#B99E30;" d="M166.887,415.717c-4.748,1.209-9.922,1.24-14.251-1.186
				c-3.485-1.952-6.371-5.066-6.68-8.904c-0.189,0.496-0.172,1.451-0.54,1.846c-0.424,0.454-1.227,0.169-1.768,0.174
				c1.118,0.878,2.754,1.609,3.477,2.28c0.829,0.77,1.758,3.358,5.983,6.144c2.04,0.903,4.509,1.726,6.729,1.894
				c3.541,0.267,7.018,0.497,10.315-0.782c5.668-2.197,8.254-6.116,9.285-6.983c1.129-0.946,2.457-1.787,2.741-3.287
				c0.233-1.238-0.287-2.504-0.862-3.612c-0.26-0.258-0.547-0.524-0.853-0.827c0.008,0.063,0.018,0.126,0.026,0.19
				c0.261,2.312-0.218,4.425-1.72,6.306C176.002,412.436,171.277,414.598,166.887,415.717z"/>
			<linearGradient id="SVGID_6_" gradientUnits="userSpaceOnUse" x1="162.6973" y1="405.8358" x2="163.7638" y2="393.6461">
				<stop  offset="0.0364" style="stop-color:#EFEA48"/>
				<stop  offset="0.8545" style="stop-color:#FCF5A5"/>
			</linearGradient>
			<path style="opacity:0.44;fill:url(#SVGID_6_);" d="M167.574,400.455c1.717,0.4,3.675,0.934,5.159,1.849
				c1.314,0.808,2.404,1.981,3.533,2.864c1.577-0.511,2.049-2.036,1.409-3.287c-2.792-5.455-8.359-8.214-14.589-8.214
				c-3.414,0-5.506,0.293-8.582,1.503c-2.369,0.933-6.344,3.415-6.702,9.364c2.58-3.537,5.857-4.766,8.91-4.904
				C160.308,399.467,164.138,399.654,167.574,400.455z"/>
			<path style="opacity:0.52;fill:#FAF8D3;" d="M152.101,399.099c1.056-0.571,2.216-1.013,3.345-1.338
				c2.355-0.679,4.827-1.156,7.449-1.156c1.613,0,3.142,0.168,4.679,0.376c1.066,0.145,3.507,1.243,4.495,0.876
				c1.541-0.573-1.677-1.92-2.276-2.164c-1.293-0.529-2.869-0.77-4.325-0.954c-3.009-0.379-6.198-0.055-9.07,0.8
				c-2.3,0.684-6.38,2.45-6.779,5.075l0.096,0.089C149.8,400.434,151.503,399.423,152.101,399.099z"/>
		</g>
	</g>
</g>
<g>
	<g>
		<g>
			<path style="fill:#D7DC43;" d="M158.791,284.583c-0.607-1.127-4.9-4.642-6.042-5.277c-5.492-3.054-14.764-2.718-17.753-1.314
				c-6.411,3.01-7.778,7.643-8.486,8.816c-0.69,1.143-1.841,1.443-2.826,2.309c-2.917,2.559,2.285,4.162,3.749,5.519
				c1.002,0.93,2.144,4.517,9.083,7.897c3.292,1.603,12.252,1.234,15.838-0.176c2.637-1.036,5.879-4.743,6.621-5.852
				c0.738-1.101,1.946-1.505,2.924-2.375c1.031-0.915,1.172-2.416,0.826-3.716C162.894,288.126,160.557,287.863,158.791,284.583z"/>
			<path style="fill:#D3D332;" d="M162.725,290.413c0.17-2.287-2.168-2.55-3.934-5.83c-0.264-0.489-1.221-1.425-2.312-2.382
				c-1.823,5.743-8.736,10.263-14.75,11.322c-4.016,0.707-8.934,0.409-11.429-3.087c-1.654-2.319-1.92-5.169-1.293-7.851
				c-1.514,1.89-2.108,3.578-2.497,4.223c-0.69,1.143-1.841,1.443-2.826,2.309c-2.917,2.559,2.285,4.162,3.749,5.519
				c1.002,0.93,2.144,4.517,9.083,7.897c3.292,1.603,12.252,1.234,15.838-0.176c2.637-1.036,5.879-4.743,6.621-5.852
				c0.738-1.101,1.946-1.505,2.924-2.375C162.93,293.214,163.071,291.712,162.725,290.413z"/>
			<path style="opacity:0.43;fill:#C2BD30;" d="M126.51,286.807c-0.69,1.143-1.841,1.443-2.826,2.309
				c-2.917,2.559,2.285,4.162,3.749,5.519c1.002,0.93,2.144,4.517,9.083,7.897c3.292,1.603,12.252,1.234,15.838-0.176
				c2.637-1.036,5.879-4.743,6.621-5.852c0.738-1.101,1.946-1.505,2.924-2.375c1.031-0.915,1.172-2.416,0.826-3.716
				c0.17-2.287-2.168-2.55-3.934-5.83c-0.607-1.127-4.9-4.642-6.042-5.277c-0.412-0.228-0.845-0.436-1.293-0.627
				c0.654,0.707,1.183,1.554,1.544,2.574c1.455,4.116,0.168,8.264-2.943,11.357c-2.641,2.627-6.305,4.691-10.126,5.357
				c-3.597,0.627-7.712,0.12-10.138-2.713c-1.619-1.889-2.657-4.341-2.609-6.783c0.037-1.823,0.572-3.525,1.285-5.179
				C127.343,284.886,126.85,286.245,126.51,286.807z"/>
			<path style="opacity:0.69;fill:#B8B433;" d="M126.51,286.807c-0.165,0.275-0.358,0.5-0.569,0.698
				c0.014,0.071,0.024,0.144,0.027,0.222c0.064,1.679-0.735,3.728-2.866,3.755h-0.002c0.855,1.285,3.383,2.272,4.334,3.153
				c1.002,0.93,2.144,4.517,9.083,7.897c3.292,1.603,12.252,1.234,15.838-0.176c2.637-1.036,5.879-4.743,6.621-5.852
				c0.738-1.101,1.946-1.505,2.924-2.375c1.031-0.915,1.172-2.416,0.826-3.716c0.147-1.995-1.611-2.451-3.235-4.709
				c0.083,1.042,0.049,2.087-0.102,3.103c-0.682,4.594-4.106,7.547-8.519,9.293c-3.495,1.384-7.376,2.346-11.151,1.91
				c-12.274-1.416-14.089-8.096-12.899-13.804C126.7,286.454,126.601,286.659,126.51,286.807z"/>
			<path style="opacity:0.56;fill:#B99E30;" d="M147.196,300.426c-4.748,1.209-9.922,1.239-14.251-1.186
				c-3.485-1.952-6.371-5.066-6.68-8.904c-0.189,0.496-0.172,1.451-0.54,1.846c-0.424,0.454-1.227,0.169-1.768,0.174
				c1.118,0.878,2.754,1.609,3.477,2.28c0.83,0.77,1.758,3.358,5.983,6.144c2.04,0.903,4.509,1.726,6.729,1.893
				c3.54,0.267,7.018,0.497,10.315-0.782c5.668-2.197,8.254-6.116,9.285-6.983c1.129-0.946,2.458-1.787,2.741-3.287
				c0.233-1.238-0.287-2.504-0.862-3.612c-0.26-0.258-0.547-0.524-0.853-0.827c0.008,0.063,0.018,0.126,0.027,0.19
				c0.261,2.312-0.218,4.425-1.72,6.306C156.311,297.145,151.586,299.307,147.196,300.426z"/>
			<linearGradient id="SVGID_7_" gradientUnits="userSpaceOnUse" x1="143.0059" y1="290.5446" x2="144.0724" y2="278.3549">
				<stop  offset="0.0364" style="stop-color:#EFEA48"/>
				<stop  offset="0.8545" style="stop-color:#FCF5A5"/>
			</linearGradient>
			<path style="opacity:0.44;fill:url(#SVGID_7_);" d="M147.882,285.163c1.717,0.4,3.675,0.934,5.159,1.849
				c1.313,0.808,2.404,1.981,3.533,2.864c1.577-0.511,2.049-2.036,1.409-3.287c-2.792-5.455-8.359-8.215-14.589-8.215
				c-3.414,0-5.506,0.293-8.582,1.503c-2.369,0.933-6.344,3.415-6.702,9.364c2.58-3.537,5.857-4.766,8.91-4.903
				C140.616,284.176,144.446,284.363,147.882,285.163z"/>
			<path style="opacity:0.52;fill:#FAF8D3;" d="M132.41,283.808c1.056-0.571,2.216-1.013,3.345-1.338
				c2.355-0.679,4.827-1.156,7.449-1.156c1.613,0,3.142,0.168,4.679,0.376c1.066,0.145,3.507,1.243,4.495,0.876
				c1.541-0.573-1.677-1.92-2.276-2.164c-1.293-0.529-2.869-0.77-4.325-0.954c-3.009-0.379-6.198-0.055-9.07,0.8
				c-2.3,0.684-6.38,2.45-6.779,5.075l0.096,0.089C130.108,285.143,131.811,284.132,132.41,283.808z"/>
		</g>
	</g>
	<g>
		<g>
			<path style="fill:#D7DC43;" d="M203.476,294.839c-0.607-1.127-4.9-4.642-6.042-5.277c-5.492-3.054-14.764-2.718-17.753-1.314
				c-6.411,3.01-7.778,7.643-8.486,8.816c-0.69,1.143-1.841,1.443-2.826,2.309c-2.917,2.559,2.285,4.162,3.749,5.519
				c1.002,0.93,2.144,4.517,9.083,7.897c3.292,1.603,12.252,1.234,15.838-0.176c2.637-1.036,5.879-4.743,6.621-5.852
				c0.738-1.101,1.946-1.505,2.924-2.375c1.031-0.915,1.172-2.416,0.826-3.716C207.579,298.382,205.242,298.118,203.476,294.839z"/>
			<path style="fill:#D3D332;" d="M207.41,300.669c0.169-2.287-2.168-2.55-3.934-5.83c-0.264-0.489-1.221-1.425-2.313-2.382
				c-1.823,5.743-8.736,10.263-14.75,11.322c-4.016,0.707-8.934,0.409-11.429-3.087c-1.655-2.319-1.921-5.169-1.293-7.851
				c-1.514,1.89-2.109,3.578-2.497,4.223c-0.69,1.143-1.841,1.443-2.826,2.309c-2.917,2.559,2.285,4.162,3.749,5.519
				c1.002,0.93,2.144,4.517,9.083,7.897c3.292,1.603,12.252,1.234,15.838-0.176c2.637-1.036,5.879-4.743,6.621-5.852
				c0.738-1.101,1.946-1.505,2.924-2.375C207.615,303.469,207.756,301.968,207.41,300.669z"/>
			<path style="opacity:0.43;fill:#C2BD30;" d="M171.195,297.063c-0.69,1.143-1.841,1.443-2.826,2.309
				c-2.917,2.559,2.285,4.162,3.749,5.519c1.002,0.93,2.144,4.517,9.083,7.897c3.292,1.603,12.252,1.234,15.838-0.176
				c2.637-1.036,5.879-4.743,6.621-5.852c0.738-1.101,1.946-1.505,2.924-2.375c1.031-0.915,1.172-2.416,0.826-3.716
				c0.169-2.287-2.168-2.55-3.934-5.83c-0.607-1.127-4.9-4.642-6.042-5.277c-0.412-0.228-0.845-0.436-1.293-0.627
				c0.654,0.707,1.183,1.554,1.544,2.574c1.455,4.116,0.168,8.264-2.943,11.357c-2.641,2.627-6.305,4.691-10.126,5.357
				c-3.597,0.627-7.712,0.12-10.138-2.713c-1.619-1.889-2.657-4.341-2.609-6.783c0.037-1.823,0.572-3.525,1.285-5.179
				C172.028,295.141,171.535,296.5,171.195,297.063z"/>
			<path style="opacity:0.69;fill:#B8B433;" d="M171.195,297.063c-0.165,0.275-0.358,0.5-0.569,0.698
				c0.014,0.071,0.024,0.144,0.027,0.222c0.064,1.679-0.735,3.728-2.866,3.755h-0.002c0.855,1.285,3.383,2.272,4.334,3.153
				c1.002,0.93,2.144,4.517,9.083,7.897c3.292,1.603,12.252,1.234,15.838-0.176c2.637-1.036,5.879-4.743,6.621-5.852
				c0.738-1.101,1.946-1.505,2.924-2.375c1.031-0.915,1.172-2.416,0.826-3.716c0.147-1.995-1.611-2.451-3.236-4.709
				c0.083,1.042,0.049,2.087-0.102,3.103c-0.682,4.594-4.106,7.547-8.519,9.293c-3.495,1.384-7.376,2.346-11.151,1.91
				c-12.274-1.416-14.089-8.096-12.899-13.804C171.384,296.71,171.286,296.915,171.195,297.063z"/>
			<path style="opacity:0.56;fill:#B99E30;" d="M191.881,310.681c-4.748,1.209-9.922,1.239-14.251-1.186
				c-3.485-1.952-6.371-5.066-6.68-8.904c-0.189,0.496-0.172,1.451-0.54,1.846c-0.424,0.454-1.227,0.169-1.768,0.174
				c1.118,0.878,2.754,1.609,3.477,2.28c0.829,0.77,1.758,3.358,5.983,6.144c2.04,0.903,4.509,1.726,6.729,1.893
				c3.54,0.267,7.018,0.497,10.315-0.782c5.668-2.197,8.254-6.116,9.285-6.983c1.129-0.946,2.458-1.787,2.741-3.287
				c0.233-1.238-0.287-2.504-0.862-3.612c-0.26-0.258-0.547-0.524-0.853-0.827c0.008,0.063,0.018,0.126,0.026,0.19
				c0.261,2.312-0.218,4.425-1.72,6.306C200.996,307.4,196.27,309.563,191.881,310.681z"/>
			<linearGradient id="SVGID_8_" gradientUnits="userSpaceOnUse" x1="187.6908" y1="300.8002" x2="188.7572" y2="288.6105">
				<stop  offset="0.0364" style="stop-color:#EFEA48"/>
				<stop  offset="0.8545" style="stop-color:#FCF5A5"/>
			</linearGradient>
			<path style="opacity:0.44;fill:url(#SVGID_8_);" d="M192.567,295.419c1.717,0.4,3.675,0.934,5.159,1.849
				c1.314,0.808,2.404,1.981,3.533,2.864c1.577-0.511,2.049-2.036,1.409-3.287c-2.792-5.455-8.359-8.214-14.589-8.214
				c-3.414,0-5.506,0.293-8.582,1.503c-2.369,0.933-6.344,3.415-6.702,9.364c2.58-3.537,5.857-4.766,8.91-4.903
				C185.301,294.432,189.131,294.619,192.567,295.419z"/>
			<path style="opacity:0.52;fill:#FAF8D3;" d="M177.095,294.063c1.056-0.571,2.216-1.013,3.344-1.338
				c2.355-0.679,4.827-1.156,7.449-1.156c1.613,0,3.142,0.168,4.679,0.376c1.066,0.145,3.507,1.243,4.495,0.876
				c1.541-0.573-1.677-1.92-2.276-2.164c-1.293-0.529-2.869-0.77-4.325-0.954c-3.009-0.379-6.198-0.055-9.07,0.8
				c-2.3,0.684-6.381,2.45-6.779,5.075l0.096,0.089C174.793,295.398,176.496,294.388,177.095,294.063z"/>
		</g>
	</g>
	<g>
		<g>
			<path style="fill:#D7DC43;" d="M224.735,325.501c-0.607-1.127-4.9-4.642-6.042-5.277c-5.492-3.054-14.764-2.718-17.753-1.314
				c-6.411,3.01-7.778,7.643-8.486,8.816c-0.69,1.143-1.841,1.443-2.826,2.309c-2.917,2.559,2.285,4.162,3.749,5.519
				c1.002,0.93,2.144,4.517,9.083,7.897c3.292,1.603,12.252,1.234,15.838-0.176c2.637-1.036,5.879-4.743,6.621-5.852
				c0.738-1.101,1.946-1.505,2.924-2.375c1.031-0.915,1.172-2.416,0.826-3.716C228.839,329.044,226.501,328.78,224.735,325.501z"/>
			<path style="fill:#D3D332;" d="M228.669,331.331c0.169-2.287-2.168-2.55-3.934-5.83c-0.264-0.489-1.221-1.425-2.312-2.382
				c-1.823,5.743-8.736,10.263-14.75,11.322c-4.016,0.707-8.934,0.409-11.429-3.087c-1.655-2.318-1.921-5.169-1.293-7.851
				c-1.514,1.89-2.108,3.578-2.497,4.223c-0.69,1.143-1.841,1.443-2.826,2.309c-2.917,2.559,2.285,4.162,3.749,5.519
				c1.002,0.93,2.144,4.517,9.083,7.897c3.292,1.603,12.252,1.234,15.838-0.176c2.637-1.036,5.879-4.743,6.621-5.852
				c0.738-1.101,1.946-1.505,2.924-2.375C228.874,334.132,229.015,332.63,228.669,331.331z"/>
			<path style="opacity:0.43;fill:#C2BD30;" d="M192.454,327.725c-0.69,1.143-1.841,1.443-2.826,2.309
				c-2.917,2.559,2.285,4.162,3.749,5.519c1.002,0.93,2.144,4.517,9.083,7.897c3.292,1.603,12.252,1.234,15.838-0.176
				c2.637-1.036,5.879-4.743,6.621-5.852c0.738-1.101,1.946-1.505,2.924-2.375c1.031-0.915,1.172-2.416,0.826-3.716
				c0.169-2.287-2.168-2.55-3.934-5.83c-0.607-1.127-4.9-4.642-6.042-5.277c-0.412-0.228-0.845-0.436-1.293-0.627
				c0.654,0.707,1.183,1.554,1.544,2.574c1.455,4.116,0.168,8.264-2.943,11.357c-2.641,2.627-6.305,4.691-10.126,5.357
				c-3.597,0.627-7.712,0.12-10.138-2.713c-1.619-1.889-2.657-4.341-2.609-6.783c0.037-1.823,0.572-3.525,1.285-5.179
				C193.287,325.803,192.794,327.163,192.454,327.725z"/>
			<path style="opacity:0.69;fill:#B8B433;" d="M192.454,327.725c-0.165,0.275-0.358,0.501-0.569,0.698
				c0.014,0.071,0.024,0.144,0.027,0.222c0.064,1.679-0.735,3.728-2.866,3.755h-0.002c0.855,1.285,3.383,2.272,4.334,3.153
				c1.002,0.93,2.144,4.517,9.083,7.897c3.292,1.603,12.252,1.234,15.838-0.176c2.637-1.036,5.879-4.743,6.621-5.852
				c0.738-1.101,1.946-1.505,2.924-2.375c1.031-0.915,1.172-2.416,0.826-3.716c0.147-1.995-1.611-2.451-3.236-4.709
				c0.083,1.042,0.049,2.087-0.102,3.103c-0.682,4.594-4.106,7.547-8.519,9.293c-3.495,1.384-7.376,2.346-11.151,1.91
				c-12.274-1.416-14.089-8.096-12.899-13.804C192.644,327.372,192.545,327.577,192.454,327.725z"/>
			<path style="opacity:0.56;fill:#B99E30;" d="M213.14,341.343c-4.748,1.209-9.922,1.239-14.251-1.186
				c-3.485-1.952-6.371-5.066-6.68-8.904c-0.189,0.496-0.172,1.451-0.54,1.846c-0.424,0.454-1.227,0.169-1.768,0.174
				c1.118,0.878,2.754,1.609,3.477,2.28c0.829,0.769,1.758,3.358,5.983,6.144c2.04,0.903,4.509,1.726,6.729,1.894
				c3.54,0.267,7.018,0.497,10.315-0.782c5.668-2.197,8.254-6.116,9.285-6.983c1.129-0.946,2.458-1.787,2.741-3.287
				c0.233-1.238-0.287-2.504-0.862-3.612c-0.26-0.258-0.547-0.524-0.853-0.827c0.008,0.063,0.018,0.126,0.026,0.19
				c0.261,2.312-0.218,4.425-1.72,6.306C222.255,338.063,217.53,340.225,213.14,341.343z"/>
			<linearGradient id="SVGID_9_" gradientUnits="userSpaceOnUse" x1="208.95" y1="331.4626" x2="210.0164" y2="319.2727">
				<stop  offset="0.0364" style="stop-color:#EFEA48"/>
				<stop  offset="0.8545" style="stop-color:#FCF5A5"/>
			</linearGradient>
			<path style="opacity:0.44;fill:url(#SVGID_9_);" d="M213.826,326.081c1.717,0.4,3.675,0.934,5.159,1.849
				c1.314,0.808,2.404,1.981,3.533,2.864c1.577-0.511,2.049-2.036,1.409-3.287c-2.792-5.455-8.358-8.215-14.589-8.215
				c-3.414,0-5.506,0.293-8.582,1.503c-2.369,0.933-6.344,3.415-6.702,9.364c2.58-3.537,5.857-4.767,8.91-4.904
				C206.56,325.094,210.391,325.281,213.826,326.081z"/>
			<path style="opacity:0.52;fill:#FAF8D3;" d="M198.354,324.726c1.056-0.571,2.216-1.013,3.345-1.339
				c2.355-0.679,4.827-1.156,7.449-1.156c1.613,0,3.142,0.168,4.679,0.376c1.066,0.145,3.507,1.243,4.495,0.876
				c1.541-0.573-1.677-1.92-2.276-2.164c-1.293-0.529-2.869-0.77-4.325-0.954c-3.009-0.379-6.198-0.055-9.07,0.8
				c-2.3,0.684-6.38,2.45-6.779,5.075l0.096,0.089C196.052,326.06,197.755,325.05,198.354,324.726z"/>
		</g>
	</g>
	<g>
		<g>
			<path style="fill:#D7DC43;" d="M166.624,317.165c-0.607-1.127-4.9-4.642-6.042-5.277c-5.492-3.054-14.764-2.718-17.753-1.314
				c-6.411,3.01-7.778,7.643-8.486,8.816c-0.69,1.143-1.841,1.443-2.826,2.309c-2.917,2.559,2.285,4.162,3.749,5.519
				c1.002,0.93,2.144,4.517,9.083,7.897c3.292,1.603,12.252,1.234,15.838-0.176c2.637-1.036,5.879-4.743,6.621-5.852
				c0.738-1.101,1.946-1.505,2.924-2.375c1.031-0.915,1.172-2.416,0.826-3.716C170.728,320.708,168.39,320.445,166.624,317.165z"/>
			<path style="fill:#D3D332;" d="M170.558,322.995c0.17-2.287-2.168-2.55-3.934-5.83c-0.264-0.489-1.221-1.425-2.312-2.382
				c-1.823,5.743-8.736,10.263-14.75,11.322c-4.016,0.707-8.934,0.409-11.429-3.087c-1.655-2.319-1.921-5.169-1.293-7.851
				c-1.514,1.89-2.108,3.578-2.497,4.223c-0.69,1.143-1.841,1.443-2.826,2.309c-2.917,2.559,2.285,4.162,3.749,5.519
				c1.002,0.93,2.144,4.517,9.083,7.897c3.292,1.603,12.252,1.234,15.838-0.176c2.637-1.036,5.879-4.743,6.621-5.852
				c0.738-1.101,1.946-1.505,2.924-2.375C170.763,325.796,170.905,324.294,170.558,322.995z"/>
			<path style="opacity:0.43;fill:#C2BD30;" d="M134.344,319.389c-0.69,1.143-1.841,1.443-2.826,2.309
				c-2.917,2.559,2.285,4.162,3.749,5.519c1.002,0.93,2.144,4.517,9.083,7.897c3.292,1.603,12.252,1.234,15.838-0.176
				c2.637-1.036,5.879-4.743,6.621-5.852c0.738-1.101,1.946-1.505,2.924-2.375c1.031-0.915,1.172-2.416,0.826-3.716
				c0.17-2.287-2.168-2.55-3.934-5.83c-0.607-1.127-4.9-4.642-6.042-5.277c-0.412-0.228-0.845-0.436-1.293-0.627
				c0.654,0.707,1.183,1.554,1.544,2.574c1.455,4.116,0.168,8.264-2.943,11.357c-2.641,2.627-6.305,4.691-10.126,5.357
				c-3.597,0.627-7.712,0.12-10.138-2.713c-1.619-1.889-2.657-4.341-2.609-6.783c0.037-1.823,0.572-3.525,1.285-5.179
				C135.176,317.467,134.683,318.827,134.344,319.389z"/>
			<path style="opacity:0.69;fill:#B8B433;" d="M134.344,319.389c-0.165,0.275-0.358,0.501-0.569,0.698
				c0.014,0.071,0.024,0.144,0.027,0.222c0.064,1.679-0.735,3.728-2.866,3.755h-0.002c0.855,1.285,3.383,2.272,4.334,3.153
				c1.002,0.93,2.144,4.517,9.083,7.897c3.292,1.603,12.252,1.234,15.838-0.176c2.637-1.036,5.879-4.743,6.621-5.852
				c0.738-1.101,1.946-1.505,2.924-2.375c1.031-0.915,1.172-2.416,0.826-3.716c0.147-1.995-1.611-2.451-3.235-4.709
				c0.083,1.042,0.049,2.087-0.102,3.103c-0.682,4.594-4.106,7.547-8.519,9.293c-3.495,1.384-7.376,2.346-11.151,1.91
				c-12.274-1.416-14.089-8.096-12.899-13.804C134.533,319.036,134.434,319.241,134.344,319.389z"/>
			<path style="opacity:0.56;fill:#B99E30;" d="M155.029,333.007c-4.748,1.209-9.922,1.239-14.251-1.186
				c-3.485-1.952-6.371-5.066-6.68-8.904c-0.189,0.496-0.172,1.451-0.54,1.846c-0.424,0.454-1.227,0.169-1.768,0.174
				c1.118,0.878,2.754,1.609,3.477,2.28c0.829,0.769,1.758,3.358,5.983,6.144c2.04,0.903,4.509,1.726,6.729,1.894
				c3.54,0.267,7.018,0.497,10.315-0.782c5.668-2.197,8.254-6.116,9.285-6.983c1.129-0.946,2.458-1.787,2.741-3.287
				c0.233-1.238-0.287-2.504-0.862-3.612c-0.26-0.258-0.547-0.524-0.853-0.827c0.008,0.063,0.018,0.126,0.027,0.19
				c0.261,2.312-0.218,4.425-1.72,6.306C164.144,329.727,159.419,331.889,155.029,333.007z"/>
			<linearGradient id="SVGID_10_" gradientUnits="userSpaceOnUse" x1="150.8392" y1="323.1266" x2="151.9057" y2="310.9369">
				<stop  offset="0.0364" style="stop-color:#EFEA48"/>
				<stop  offset="0.8545" style="stop-color:#FCF5A5"/>
			</linearGradient>
			<path style="opacity:0.44;fill:url(#SVGID_10_);" d="M155.716,317.745c1.717,0.4,3.674,0.934,5.159,1.849
				c1.314,0.808,2.404,1.981,3.533,2.864c1.577-0.511,2.049-2.036,1.408-3.287c-2.792-5.455-8.358-8.215-14.589-8.215
				c-3.414,0-5.506,0.293-8.582,1.503c-2.369,0.933-6.344,3.415-6.702,9.364c2.58-3.537,5.857-4.766,8.91-4.904
				C148.45,316.758,152.28,316.945,155.716,317.745z"/>
			<path style="opacity:0.52;fill:#FAF8D3;" d="M140.243,316.39c1.056-0.571,2.216-1.013,3.345-1.338
				c2.355-0.679,4.827-1.156,7.449-1.156c1.613,0,3.142,0.168,4.679,0.376c1.066,0.145,3.507,1.242,4.495,0.876
				c1.541-0.573-1.677-1.92-2.276-2.164c-1.293-0.529-2.869-0.77-4.325-0.954c-3.009-0.379-6.198-0.055-9.07,0.8
				c-2.3,0.684-6.38,2.45-6.779,5.075l0.096,0.089C137.942,317.724,139.645,316.714,140.243,316.39z"/>
		</g>
	</g>
	<g>
		<g>
			<path style="fill:#D7DC43;" d="M190.754,346.108c-0.607-1.127-4.9-4.642-6.042-5.277c-5.492-3.054-14.764-2.718-17.753-1.314
				c-6.411,3.01-7.778,7.643-8.486,8.816c-0.69,1.143-1.841,1.443-2.826,2.309c-2.917,2.559,2.285,4.162,3.749,5.519
				c1.002,0.93,2.144,4.517,9.083,7.897c3.292,1.603,12.252,1.234,15.838-0.176c2.637-1.036,5.879-4.743,6.621-5.852
				c0.738-1.101,1.946-1.505,2.924-2.375c1.031-0.915,1.172-2.416,0.826-3.716C194.857,349.651,192.519,349.388,190.754,346.108z"/>
			<path style="fill:#D3D332;" d="M194.687,351.938c0.17-2.287-2.168-2.55-3.934-5.83c-0.264-0.489-1.221-1.425-2.312-2.382
				c-1.823,5.743-8.736,10.263-14.75,11.322c-4.016,0.707-8.934,0.409-11.429-3.087c-1.655-2.318-1.92-5.169-1.293-7.851
				c-1.514,1.89-2.108,3.578-2.497,4.223c-0.69,1.143-1.841,1.443-2.826,2.309c-2.917,2.559,2.285,4.162,3.749,5.519
				c1.002,0.93,2.144,4.517,9.083,7.897c3.292,1.603,12.252,1.234,15.838-0.176c2.637-1.036,5.879-4.743,6.621-5.852
				c0.738-1.101,1.946-1.505,2.924-2.375C194.892,354.739,195.034,353.238,194.687,351.938z"/>
			<path style="opacity:0.43;fill:#C2BD30;" d="M158.473,348.332c-0.69,1.143-1.841,1.443-2.826,2.309
				c-2.917,2.559,2.285,4.162,3.749,5.519c1.002,0.93,2.144,4.517,9.083,7.897c3.292,1.603,12.252,1.234,15.838-0.176
				c2.637-1.036,5.879-4.743,6.621-5.852c0.738-1.101,1.946-1.505,2.924-2.375c1.031-0.915,1.172-2.416,0.826-3.716
				c0.17-2.287-2.168-2.55-3.934-5.83c-0.607-1.127-4.9-4.642-6.042-5.277c-0.412-0.228-0.845-0.436-1.293-0.627
				c0.654,0.707,1.183,1.554,1.544,2.574c1.455,4.116,0.168,8.264-2.943,11.357c-2.641,2.627-6.305,4.691-10.126,5.357
				c-3.597,0.627-7.712,0.12-10.138-2.713c-1.619-1.889-2.657-4.341-2.609-6.783c0.037-1.823,0.572-3.525,1.285-5.179
				C159.305,346.411,158.812,347.77,158.473,348.332z"/>
			<path style="opacity:0.69;fill:#B8B433;" d="M158.473,348.332c-0.165,0.275-0.358,0.501-0.569,0.698
				c0.014,0.071,0.024,0.144,0.027,0.222c0.064,1.679-0.735,3.728-2.866,3.755h-0.002c0.855,1.285,3.383,2.272,4.334,3.153
				c1.002,0.93,2.144,4.517,9.083,7.897c3.292,1.603,12.252,1.234,15.838-0.176c2.637-1.036,5.879-4.743,6.621-5.852
				c0.738-1.101,1.946-1.505,2.924-2.375c1.031-0.915,1.172-2.416,0.826-3.716c0.147-1.995-1.611-2.451-3.235-4.709
				c0.083,1.042,0.049,2.087-0.102,3.103c-0.682,4.594-4.106,7.547-8.519,9.293c-3.495,1.384-7.376,2.346-11.151,1.91
				c-12.274-1.416-14.089-8.096-12.899-13.804C158.662,347.979,158.563,348.184,158.473,348.332z"/>
			<path style="opacity:0.56;fill:#B99E30;" d="M179.158,361.95c-4.748,1.209-9.922,1.24-14.251-1.186
				c-3.485-1.952-6.371-5.066-6.68-8.904c-0.189,0.496-0.172,1.451-0.54,1.846c-0.424,0.454-1.227,0.169-1.768,0.174
				c1.118,0.878,2.754,1.609,3.477,2.28c0.83,0.77,1.758,3.358,5.983,6.144c2.04,0.903,4.509,1.726,6.729,1.894
				c3.54,0.267,7.018,0.497,10.315-0.782c5.668-2.197,8.254-6.116,9.285-6.983c1.129-0.946,2.458-1.787,2.741-3.287
				c0.233-1.238-0.287-2.504-0.862-3.612c-0.26-0.258-0.547-0.524-0.853-0.827c0.008,0.063,0.018,0.126,0.027,0.19
				c0.261,2.312-0.218,4.425-1.72,6.306C188.273,358.67,183.548,360.832,179.158,361.95z"/>
			<linearGradient id="SVGID_11_" gradientUnits="userSpaceOnUse" x1="174.9683" y1="352.0697" x2="176.0348" y2="339.8799">
				<stop  offset="0.0364" style="stop-color:#EFEA48"/>
				<stop  offset="0.8545" style="stop-color:#FCF5A5"/>
			</linearGradient>
			<path style="opacity:0.44;fill:url(#SVGID_11_);" d="M179.845,346.688c1.717,0.4,3.675,0.934,5.159,1.849
				c1.314,0.808,2.404,1.981,3.533,2.864c1.577-0.511,2.049-2.036,1.408-3.287c-2.792-5.455-8.358-8.215-14.589-8.215
				c-3.414,0-5.506,0.293-8.582,1.503c-2.369,0.933-6.344,3.415-6.702,9.364c2.58-3.537,5.857-4.766,8.91-4.904
				C172.579,345.701,176.409,345.888,179.845,346.688z"/>
			<path style="opacity:0.52;fill:#FAF8D3;" d="M164.372,345.333c1.056-0.571,2.216-1.013,3.345-1.339
				c2.355-0.679,4.827-1.155,7.449-1.155c1.613,0,3.142,0.168,4.679,0.376c1.066,0.145,3.507,1.242,4.495,0.876
				c1.541-0.573-1.677-1.92-2.276-2.164c-1.293-0.53-2.869-0.77-4.325-0.954c-3.009-0.379-6.198-0.055-9.07,0.8
				c-2.3,0.684-6.38,2.45-6.779,5.075l0.096,0.089C162.071,346.668,163.774,345.657,164.372,345.333z"/>
		</g>
	</g>
	<g>
		<g>
			<path style="fill:#D7DC43;" d="M161.984,370.089c-0.607-1.127-4.9-4.642-6.042-5.277c-5.492-3.054-14.764-2.718-17.753-1.314
				c-6.411,3.01-7.778,7.643-8.486,8.816c-0.69,1.143-1.841,1.443-2.826,2.308c-2.917,2.559,2.285,4.162,3.749,5.519
				c1.002,0.929,2.144,4.517,9.083,7.897c3.291,1.603,12.252,1.234,15.838-0.176c2.637-1.036,5.879-4.743,6.621-5.852
				c0.738-1.101,1.946-1.505,2.924-2.375c1.031-0.915,1.172-2.416,0.826-3.716C166.087,373.632,163.75,373.369,161.984,370.089z"/>
			<path style="fill:#D3D332;" d="M165.918,375.919c0.169-2.287-2.168-2.55-3.934-5.83c-0.264-0.489-1.221-1.425-2.313-2.382
				c-1.823,5.743-8.736,10.263-14.75,11.322c-4.016,0.707-8.934,0.409-11.429-3.087c-1.655-2.318-1.921-5.169-1.293-7.851
				c-1.514,1.89-2.109,3.578-2.497,4.223c-0.69,1.143-1.841,1.443-2.826,2.308c-2.917,2.559,2.285,4.162,3.749,5.519
				c1.002,0.929,2.144,4.517,9.083,7.897c3.291,1.603,12.252,1.234,15.838-0.176c2.637-1.036,5.879-4.743,6.621-5.852
				c0.738-1.101,1.946-1.505,2.924-2.375C166.123,378.72,166.264,377.219,165.918,375.919z"/>
			<path style="opacity:0.43;fill:#C2BD30;" d="M129.703,372.313c-0.69,1.143-1.841,1.443-2.826,2.308
				c-2.917,2.559,2.285,4.162,3.749,5.519c1.002,0.929,2.144,4.517,9.083,7.897c3.291,1.603,12.252,1.234,15.838-0.176
				c2.637-1.036,5.879-4.743,6.621-5.852c0.738-1.101,1.946-1.505,2.924-2.375c1.031-0.915,1.172-2.416,0.826-3.716
				c0.169-2.287-2.168-2.55-3.934-5.83c-0.607-1.127-4.9-4.642-6.042-5.277c-0.412-0.228-0.845-0.436-1.293-0.627
				c0.654,0.707,1.183,1.554,1.544,2.574c1.455,4.116,0.168,8.264-2.943,11.357c-2.641,2.627-6.305,4.691-10.126,5.357
				c-3.597,0.627-7.712,0.12-10.138-2.713c-1.618-1.889-2.657-4.341-2.609-6.783c0.037-1.823,0.572-3.525,1.285-5.179
				C130.536,370.392,130.043,371.751,129.703,372.313z"/>
			<path style="opacity:0.69;fill:#B8B433;" d="M129.703,372.313c-0.165,0.275-0.358,0.5-0.569,0.698
				c0.014,0.071,0.024,0.144,0.027,0.222c0.064,1.679-0.735,3.728-2.866,3.755h-0.002c0.855,1.285,3.383,2.272,4.334,3.153
				c1.002,0.929,2.144,4.517,9.083,7.897c3.291,1.603,12.252,1.234,15.838-0.176c2.637-1.036,5.879-4.743,6.621-5.852
				c0.738-1.101,1.946-1.505,2.924-2.375c1.031-0.915,1.172-2.416,0.826-3.716c0.147-1.995-1.611-2.451-3.235-4.709
				c0.083,1.042,0.049,2.087-0.102,3.103c-0.682,4.594-4.106,7.547-8.519,9.293c-3.495,1.384-7.376,2.346-11.151,1.91
				c-12.274-1.416-14.089-8.096-12.899-13.804C129.893,371.961,129.794,372.165,129.703,372.313z"/>
			<path style="opacity:0.56;fill:#B99E30;" d="M150.389,385.932c-4.748,1.209-9.922,1.24-14.251-1.186
				c-3.485-1.952-6.371-5.066-6.68-8.904c-0.189,0.496-0.172,1.451-0.54,1.846c-0.424,0.454-1.227,0.169-1.768,0.174
				c1.118,0.878,2.754,1.609,3.477,2.28c0.829,0.77,1.758,3.358,5.983,6.144c2.04,0.903,4.509,1.726,6.729,1.894
				c3.541,0.267,7.018,0.497,10.315-0.782c5.668-2.197,8.254-6.116,9.285-6.983c1.129-0.946,2.457-1.787,2.741-3.287
				c0.233-1.238-0.287-2.504-0.862-3.612c-0.26-0.258-0.547-0.524-0.853-0.827c0.008,0.063,0.018,0.126,0.026,0.19
				c0.261,2.312-0.218,4.425-1.72,6.306C159.504,382.651,154.779,384.813,150.389,385.932z"/>
			<linearGradient id="SVGID_12_" gradientUnits="userSpaceOnUse" x1="146.1989" y1="376.0508" x2="147.2653" y2="363.861">
				<stop  offset="0.0364" style="stop-color:#EFEA48"/>
				<stop  offset="0.8545" style="stop-color:#FCF5A5"/>
			</linearGradient>
			<path style="opacity:0.44;fill:url(#SVGID_12_);" d="M151.075,370.67c1.717,0.4,3.675,0.934,5.159,1.849
				c1.314,0.808,2.404,1.981,3.533,2.864c1.577-0.511,2.049-2.036,1.409-3.287c-2.792-5.455-8.359-8.215-14.589-8.215
				c-3.414,0-5.506,0.293-8.582,1.503c-2.369,0.933-6.344,3.415-6.702,9.364c2.58-3.537,5.857-4.766,8.91-4.904
				C143.809,369.682,147.639,369.869,151.075,370.67z"/>
			<path style="opacity:0.52;fill:#FAF8D3;" d="M135.603,369.314c1.056-0.571,2.216-1.013,3.345-1.338
				c2.355-0.679,4.827-1.156,7.449-1.156c1.613,0,3.142,0.168,4.679,0.376c1.066,0.145,3.507,1.242,4.495,0.876
				c1.541-0.573-1.677-1.92-2.276-2.164c-1.293-0.529-2.869-0.77-4.325-0.954c-3.009-0.379-6.198-0.055-9.07,0.8
				c-2.3,0.684-6.38,2.45-6.779,5.075l0.096,0.089C133.301,370.649,135.004,369.638,135.603,369.314z"/>
		</g>
	</g>
	<g>
		<g>
			<path style="fill:#D7DC43;" d="M223.488,367.08c-0.607-1.127-4.9-4.642-6.042-5.277c-5.492-3.054-14.764-2.718-17.753-1.314
				c-6.411,3.01-7.778,7.643-8.486,8.816c-0.69,1.143-1.841,1.443-2.826,2.309c-2.917,2.559,2.285,4.162,3.749,5.519
				c1.002,0.93,2.144,4.517,9.083,7.897c3.292,1.603,12.252,1.234,15.838-0.176c2.637-1.036,5.879-4.743,6.621-5.852
				c0.738-1.101,1.946-1.505,2.924-2.375c1.031-0.915,1.172-2.416,0.826-3.716C227.592,370.623,225.254,370.359,223.488,367.08z"/>
			<path style="fill:#D3D332;" d="M227.422,372.91c0.17-2.287-2.168-2.55-3.934-5.83c-0.264-0.489-1.221-1.425-2.312-2.382
				c-1.823,5.743-8.736,10.263-14.75,11.322c-4.016,0.707-8.934,0.409-11.429-3.087c-1.655-2.319-1.92-5.169-1.293-7.852
				c-1.514,1.89-2.108,3.578-2.497,4.223c-0.69,1.143-1.841,1.443-2.826,2.309c-2.917,2.559,2.285,4.162,3.749,5.519
				c1.002,0.93,2.144,4.517,9.083,7.897c3.292,1.603,12.252,1.234,15.838-0.176c2.637-1.036,5.879-4.743,6.621-5.852
				c0.738-1.101,1.946-1.505,2.924-2.375C227.627,375.71,227.769,374.209,227.422,372.91z"/>
			<path style="opacity:0.43;fill:#C2BD30;" d="M191.208,369.304c-0.69,1.143-1.841,1.443-2.826,2.309
				c-2.917,2.559,2.285,4.162,3.749,5.519c1.002,0.93,2.144,4.517,9.083,7.897c3.292,1.603,12.252,1.234,15.838-0.176
				c2.637-1.036,5.879-4.743,6.621-5.852c0.738-1.101,1.946-1.505,2.924-2.375c1.031-0.915,1.172-2.416,0.826-3.716
				c0.17-2.287-2.168-2.55-3.934-5.83c-0.607-1.127-4.9-4.642-6.042-5.277c-0.412-0.228-0.845-0.436-1.293-0.627
				c0.654,0.707,1.183,1.554,1.544,2.574c1.455,4.116,0.168,8.264-2.943,11.357c-2.641,2.627-6.305,4.691-10.126,5.357
				c-3.597,0.627-7.712,0.12-10.138-2.713c-1.619-1.889-2.657-4.341-2.609-6.783c0.037-1.823,0.572-3.525,1.285-5.179
				C192.04,367.382,191.547,368.742,191.208,369.304z"/>
			<path style="opacity:0.69;fill:#B8B433;" d="M191.208,369.304c-0.165,0.275-0.358,0.501-0.569,0.698
				c0.014,0.071,0.024,0.144,0.027,0.222c0.064,1.679-0.735,3.728-2.866,3.755h-0.002c0.855,1.285,3.383,2.272,4.334,3.153
				c1.002,0.93,2.144,4.517,9.083,7.897c3.292,1.603,12.252,1.234,15.838-0.176c2.637-1.036,5.879-4.743,6.621-5.852
				c0.738-1.101,1.946-1.505,2.924-2.375c1.031-0.915,1.172-2.416,0.826-3.716c0.147-1.995-1.611-2.451-3.235-4.709
				c0.083,1.042,0.049,2.087-0.102,3.103c-0.682,4.594-4.106,7.547-8.519,9.293c-3.495,1.384-7.376,2.346-11.151,1.91
				c-12.274-1.416-14.089-8.096-12.899-13.804C191.397,368.951,191.298,369.156,191.208,369.304z"/>
			<path style="opacity:0.56;fill:#B99E30;" d="M211.893,382.922c-4.748,1.209-9.922,1.239-14.251-1.186
				c-3.485-1.952-6.371-5.066-6.68-8.904c-0.189,0.496-0.172,1.451-0.54,1.846c-0.424,0.454-1.227,0.169-1.768,0.174
				c1.118,0.878,2.754,1.609,3.477,2.28c0.83,0.769,1.758,3.358,5.983,6.144c2.04,0.903,4.509,1.726,6.729,1.893
				c3.54,0.267,7.018,0.497,10.315-0.781c5.668-2.197,8.254-6.116,9.285-6.983c1.129-0.946,2.458-1.787,2.741-3.287
				c0.233-1.238-0.287-2.504-0.862-3.612c-0.26-0.258-0.547-0.524-0.853-0.827c0.008,0.063,0.018,0.126,0.027,0.19
				c0.261,2.312-0.218,4.425-1.72,6.306C221.008,379.641,216.283,381.804,211.893,382.922z"/>
			<linearGradient id="SVGID_13_" gradientUnits="userSpaceOnUse" x1="207.7033" y1="373.0413" x2="208.7697" y2="360.8515">
				<stop  offset="0.0364" style="stop-color:#EFEA48"/>
				<stop  offset="0.8545" style="stop-color:#FCF5A5"/>
			</linearGradient>
			<path style="opacity:0.44;fill:url(#SVGID_13_);" d="M212.58,367.66c1.717,0.4,3.674,0.934,5.159,1.849
				c1.313,0.808,2.404,1.981,3.533,2.864c1.577-0.511,2.049-2.036,1.408-3.287c-2.792-5.455-8.358-8.215-14.589-8.215
				c-3.414,0-5.506,0.293-8.582,1.503c-2.369,0.933-6.344,3.415-6.702,9.364c2.58-3.537,5.857-4.767,8.91-4.904
				C205.314,366.673,209.144,366.86,212.58,367.66z"/>
			<path style="opacity:0.52;fill:#FAF8D3;" d="M197.107,366.305c1.056-0.571,2.216-1.013,3.345-1.339
				c2.355-0.679,4.827-1.156,7.449-1.156c1.613,0,3.142,0.168,4.679,0.376c1.066,0.145,3.507,1.243,4.495,0.876
				c1.541-0.573-1.677-1.92-2.276-2.164c-1.293-0.529-2.869-0.77-4.325-0.954c-3.009-0.379-6.198-0.055-9.07,0.8
				c-2.3,0.684-6.38,2.45-6.779,5.075l0.096,0.089C194.806,367.639,196.509,366.629,197.107,366.305z"/>
		</g>
	</g>
</g>
<g>
	<g>
		<g>
			<path style="fill:#D7DC43;" d="M260.802,244.84c-0.607-1.127-4.9-4.642-6.042-5.277c-5.492-3.054-14.764-2.718-17.753-1.314
				c-6.411,3.01-7.778,7.643-8.486,8.816c-0.69,1.143-1.841,1.443-2.826,2.309c-2.917,2.559,2.285,4.162,3.749,5.519
				c1.002,0.93,2.144,4.517,9.083,7.897c3.292,1.603,12.252,1.234,15.838-0.176c2.637-1.036,5.879-4.743,6.621-5.852
				c0.738-1.101,1.946-1.505,2.924-2.375c1.031-0.915,1.172-2.416,0.826-3.716C264.906,248.383,262.568,248.119,260.802,244.84z"/>
			<path style="fill:#D3D332;" d="M264.736,250.669c0.17-2.287-2.168-2.55-3.934-5.83c-0.264-0.489-1.221-1.425-2.312-2.382
				c-1.823,5.743-8.736,10.263-14.75,11.322c-4.016,0.707-8.934,0.409-11.429-3.087c-1.654-2.319-1.92-5.169-1.293-7.851
				c-1.514,1.89-2.108,3.578-2.497,4.223c-0.69,1.143-1.841,1.443-2.826,2.309c-2.917,2.559,2.285,4.162,3.749,5.519
				c1.002,0.93,2.144,4.517,9.083,7.897c3.292,1.603,12.252,1.234,15.838-0.176c2.637-1.036,5.879-4.743,6.621-5.852
				c0.738-1.101,1.946-1.505,2.924-2.375C264.941,253.47,265.083,251.969,264.736,250.669z"/>
			<path style="opacity:0.43;fill:#C2BD30;" d="M228.522,247.064c-0.69,1.143-1.841,1.443-2.826,2.309
				c-2.917,2.559,2.285,4.162,3.749,5.519c1.002,0.93,2.144,4.517,9.083,7.897c3.292,1.603,12.252,1.234,15.838-0.176
				c2.637-1.036,5.879-4.743,6.621-5.852c0.738-1.101,1.946-1.505,2.924-2.375c1.031-0.915,1.172-2.416,0.826-3.716
				c0.17-2.287-2.168-2.55-3.934-5.83c-0.607-1.127-4.9-4.642-6.042-5.277c-0.412-0.228-0.845-0.436-1.293-0.627
				c0.654,0.707,1.183,1.554,1.544,2.574c1.455,4.116,0.168,8.264-2.943,11.357c-2.641,2.627-6.305,4.691-10.126,5.357
				c-3.597,0.627-7.712,0.12-10.138-2.713c-1.619-1.889-2.657-4.341-2.609-6.783c0.037-1.823,0.572-3.525,1.285-5.179
				C229.354,245.142,228.861,246.501,228.522,247.064z"/>
			<path style="opacity:0.69;fill:#B8B433;" d="M228.522,247.064c-0.165,0.275-0.358,0.5-0.569,0.698
				c0.014,0.071,0.024,0.144,0.027,0.222c0.064,1.679-0.735,3.728-2.866,3.755h-0.002c0.855,1.285,3.383,2.272,4.334,3.153
				c1.002,0.93,2.144,4.517,9.083,7.897c3.292,1.603,12.252,1.234,15.838-0.176c2.637-1.036,5.879-4.743,6.621-5.852
				c0.738-1.101,1.946-1.505,2.924-2.375c1.031-0.915,1.172-2.416,0.826-3.716c0.147-1.995-1.611-2.451-3.235-4.709
				c0.083,1.042,0.049,2.087-0.102,3.103c-0.682,4.594-4.106,7.547-8.519,9.293c-3.495,1.384-7.376,2.346-11.151,1.91
				c-12.274-1.416-14.089-8.096-12.899-13.804C228.711,246.711,228.612,246.916,228.522,247.064z"/>
			<path style="opacity:0.56;fill:#B99E30;" d="M249.207,260.682c-4.748,1.209-9.922,1.239-14.251-1.186
				c-3.485-1.952-6.371-5.066-6.68-8.904c-0.189,0.496-0.172,1.451-0.54,1.846c-0.424,0.454-1.227,0.169-1.768,0.174
				c1.118,0.878,2.754,1.609,3.477,2.28c0.83,0.77,1.758,3.358,5.983,6.144c2.04,0.903,4.509,1.726,6.729,1.893
				c3.54,0.267,7.018,0.497,10.315-0.782c5.668-2.197,8.254-6.116,9.285-6.983c1.129-0.946,2.458-1.787,2.741-3.287
				c0.233-1.238-0.287-2.504-0.862-3.612c-0.26-0.258-0.547-0.524-0.853-0.827c0.008,0.063,0.018,0.126,0.027,0.19
				c0.261,2.312-0.218,4.425-1.72,6.306C258.322,257.401,253.597,259.564,249.207,260.682z"/>
			<linearGradient id="SVGID_14_" gradientUnits="userSpaceOnUse" x1="245.0172" y1="250.8011" x2="246.0837" y2="238.6114">
				<stop  offset="0.0364" style="stop-color:#EFEA48"/>
				<stop  offset="0.8545" style="stop-color:#FCF5A5"/>
			</linearGradient>
			<path style="opacity:0.44;fill:url(#SVGID_14_);" d="M249.894,245.42c1.717,0.4,3.675,0.934,5.159,1.849
				c1.313,0.808,2.404,1.981,3.533,2.864c1.577-0.511,2.049-2.036,1.409-3.287c-2.792-5.455-8.359-8.215-14.589-8.215
				c-3.414,0-5.506,0.293-8.582,1.503c-2.369,0.933-6.344,3.415-6.702,9.364c2.58-3.537,5.857-4.766,8.91-4.903
				C242.628,244.433,246.458,244.619,249.894,245.42z"/>
			<path style="opacity:0.52;fill:#FAF8D3;" d="M234.421,244.064c1.056-0.571,2.216-1.013,3.345-1.338
				c2.355-0.679,4.827-1.156,7.449-1.156c1.613,0,3.142,0.168,4.679,0.376c1.066,0.145,3.507,1.243,4.495,0.876
				c1.541-0.573-1.677-1.92-2.276-2.164c-1.293-0.529-2.869-0.77-4.325-0.954c-3.009-0.379-6.198-0.055-9.07,0.8
				c-2.3,0.684-6.38,2.45-6.779,5.075l0.096,0.089C232.12,245.399,233.823,244.389,234.421,244.064z"/>
		</g>
	</g>
	<g>
		<g>
			<path style="fill:#D7DC43;" d="M315.104,245.239c-0.607-1.127-4.9-4.642-6.042-5.277c-5.492-3.054-14.764-2.718-17.753-1.314
				c-6.411,3.01-7.778,7.643-8.486,8.816c-0.69,1.143-1.841,1.443-2.826,2.309c-2.917,2.559,2.285,4.162,3.749,5.519
				c1.002,0.93,2.144,4.517,9.083,7.897c3.292,1.603,12.252,1.234,15.838-0.176c2.637-1.036,5.879-4.743,6.621-5.852
				c0.738-1.101,1.946-1.505,2.924-2.375c1.031-0.915,1.172-2.416,0.826-3.716C319.207,248.782,316.87,248.518,315.104,245.239z"/>
			<path style="fill:#D3D332;" d="M319.038,251.069c0.169-2.287-2.168-2.55-3.934-5.83c-0.264-0.489-1.221-1.425-2.313-2.382
				c-1.823,5.743-8.736,10.263-14.75,11.322c-4.016,0.707-8.934,0.409-11.429-3.087c-1.655-2.319-1.921-5.169-1.293-7.851
				c-1.514,1.89-2.108,3.578-2.497,4.223c-0.69,1.143-1.841,1.443-2.826,2.309c-2.917,2.559,2.285,4.162,3.749,5.519
				c1.002,0.93,2.144,4.517,9.083,7.897c3.292,1.603,12.252,1.234,15.838-0.176c2.637-1.036,5.879-4.743,6.621-5.852
				c0.738-1.101,1.946-1.505,2.924-2.375C319.243,253.869,319.384,252.368,319.038,251.069z"/>
			<path style="opacity:0.43;fill:#C2BD30;" d="M282.823,247.463c-0.69,1.143-1.841,1.443-2.826,2.309
				c-2.917,2.559,2.285,4.162,3.749,5.519c1.002,0.93,2.144,4.517,9.083,7.897c3.292,1.603,12.252,1.234,15.838-0.176
				c2.637-1.036,5.879-4.743,6.621-5.852c0.738-1.101,1.946-1.505,2.924-2.375c1.031-0.915,1.172-2.416,0.826-3.716
				c0.169-2.287-2.168-2.55-3.934-5.83c-0.607-1.127-4.9-4.642-6.042-5.277c-0.412-0.228-0.845-0.436-1.293-0.627
				c0.654,0.707,1.183,1.554,1.544,2.574c1.455,4.116,0.168,8.264-2.943,11.357c-2.641,2.627-6.305,4.691-10.126,5.357
				c-3.597,0.627-7.712,0.12-10.138-2.713c-1.619-1.889-2.657-4.341-2.609-6.783c0.037-1.823,0.572-3.525,1.285-5.179
				C283.655,245.541,283.163,246.9,282.823,247.463z"/>
			<path style="opacity:0.69;fill:#B8B433;" d="M282.823,247.463c-0.165,0.275-0.358,0.5-0.569,0.698
				c0.014,0.071,0.024,0.144,0.027,0.222c0.064,1.679-0.735,3.728-2.866,3.755h-0.002c0.855,1.285,3.383,2.272,4.334,3.153
				c1.002,0.93,2.144,4.517,9.083,7.897c3.292,1.603,12.252,1.234,15.838-0.176c2.637-1.036,5.879-4.743,6.621-5.852
				c0.738-1.101,1.946-1.505,2.924-2.375c1.031-0.915,1.172-2.416,0.826-3.716c0.147-1.995-1.611-2.451-3.236-4.709
				c0.083,1.042,0.049,2.087-0.102,3.103c-0.682,4.594-4.106,7.547-8.519,9.293c-3.495,1.384-7.376,2.346-11.151,1.91
				c-12.274-1.416-14.089-8.096-12.899-13.804C283.012,247.11,282.914,247.315,282.823,247.463z"/>
			<path style="opacity:0.56;fill:#B99E30;" d="M303.508,261.081c-4.748,1.209-9.922,1.239-14.251-1.186
				c-3.485-1.952-6.371-5.066-6.68-8.904c-0.189,0.496-0.172,1.451-0.54,1.846c-0.424,0.454-1.227,0.169-1.768,0.174
				c1.118,0.878,2.754,1.609,3.477,2.28c0.829,0.77,1.758,3.358,5.983,6.144c2.04,0.903,4.509,1.726,6.729,1.893
				c3.54,0.267,7.018,0.497,10.315-0.782c5.668-2.197,8.254-6.116,9.285-6.983c1.129-0.946,2.458-1.787,2.741-3.287
				c0.233-1.238-0.287-2.504-0.862-3.612c-0.26-0.258-0.547-0.524-0.853-0.827c0.008,0.063,0.018,0.126,0.026,0.19
				c0.261,2.312-0.218,4.425-1.72,6.306C312.623,257.8,307.898,259.963,303.508,261.081z"/>
			<linearGradient id="SVGID_15_" gradientUnits="userSpaceOnUse" x1="299.3186" y1="251.2002" x2="300.3851" y2="239.0105">
				<stop  offset="0.0364" style="stop-color:#EFEA48"/>
				<stop  offset="0.8545" style="stop-color:#FCF5A5"/>
			</linearGradient>
			<path style="opacity:0.44;fill:url(#SVGID_15_);" d="M304.195,245.819c1.717,0.4,3.675,0.934,5.159,1.849
				c1.314,0.808,2.404,1.981,3.533,2.864c1.577-0.511,2.049-2.036,1.409-3.287c-2.792-5.455-8.358-8.215-14.589-8.215
				c-3.414,0-5.506,0.293-8.582,1.503c-2.369,0.933-6.344,3.415-6.702,9.364c2.58-3.537,5.857-4.766,8.91-4.903
				C296.929,244.832,300.759,245.019,304.195,245.819z"/>
			<path style="opacity:0.52;fill:#FAF8D3;" d="M288.722,244.463c1.056-0.571,2.216-1.013,3.344-1.338
				c2.355-0.679,4.827-1.156,7.449-1.156c1.613,0,3.142,0.168,4.679,0.376c1.066,0.145,3.507,1.243,4.495,0.876
				c1.541-0.573-1.677-1.92-2.276-2.164c-1.293-0.529-2.869-0.77-4.325-0.954c-3.009-0.379-6.198-0.055-9.07,0.8
				c-2.3,0.684-6.381,2.45-6.779,5.075l0.096,0.089C286.421,245.798,288.124,244.788,288.722,244.463z"/>
		</g>
	</g>
	<g>
		<g>
			<path style="fill:#D7DC43;" d="M326.747,285.758c-0.607-1.127-4.9-4.642-6.042-5.277c-5.492-3.054-14.764-2.718-17.753-1.314
				c-6.411,3.01-7.778,7.643-8.486,8.816c-0.69,1.143-1.841,1.443-2.826,2.309c-2.917,2.559,2.285,4.162,3.749,5.519
				c1.002,0.93,2.144,4.517,9.083,7.897c3.292,1.603,12.252,1.234,15.838-0.176c2.637-1.036,5.879-4.743,6.621-5.852
				c0.738-1.101,1.946-1.505,2.924-2.375c1.031-0.915,1.172-2.416,0.826-3.715C330.85,289.3,328.512,289.037,326.747,285.758z"/>
			<path style="fill:#D3D332;" d="M330.68,291.587c0.169-2.287-2.168-2.55-3.934-5.83c-0.264-0.489-1.221-1.425-2.313-2.382
				c-1.823,5.743-8.736,10.263-14.75,11.322c-4.016,0.707-8.934,0.409-11.429-3.087c-1.655-2.318-1.921-5.169-1.293-7.851
				c-1.514,1.89-2.108,3.578-2.497,4.223c-0.69,1.143-1.841,1.443-2.826,2.309c-2.917,2.559,2.285,4.162,3.749,5.519
				c1.002,0.93,2.144,4.517,9.083,7.897c3.292,1.603,12.252,1.234,15.838-0.176c2.637-1.036,5.879-4.743,6.621-5.852
				c0.738-1.101,1.946-1.505,2.924-2.375C330.885,294.388,331.027,292.887,330.68,291.587z"/>
			<path style="opacity:0.43;fill:#C2BD30;" d="M294.466,287.982c-0.69,1.143-1.841,1.443-2.826,2.309
				c-2.917,2.559,2.285,4.162,3.749,5.519c1.002,0.93,2.144,4.517,9.083,7.897c3.292,1.603,12.252,1.234,15.838-0.176
				c2.637-1.036,5.879-4.743,6.621-5.852c0.738-1.101,1.946-1.505,2.924-2.375c1.031-0.915,1.172-2.416,0.826-3.715
				c0.169-2.287-2.168-2.55-3.934-5.83c-0.607-1.127-4.9-4.642-6.042-5.277c-0.412-0.228-0.845-0.436-1.293-0.627
				c0.654,0.707,1.183,1.554,1.544,2.574c1.455,4.116,0.168,8.264-2.943,11.357c-2.641,2.627-6.305,4.691-10.126,5.357
				c-3.597,0.627-7.712,0.12-10.138-2.713c-1.619-1.889-2.657-4.341-2.609-6.783c0.037-1.823,0.572-3.525,1.285-5.179
				C295.298,286.06,294.805,287.419,294.466,287.982z"/>
			<path style="opacity:0.69;fill:#B8B433;" d="M294.466,287.982c-0.165,0.275-0.358,0.501-0.569,0.698
				c0.014,0.071,0.024,0.144,0.027,0.222c0.064,1.679-0.735,3.728-2.866,3.755h-0.002c0.855,1.285,3.383,2.272,4.334,3.153
				c1.002,0.93,2.144,4.517,9.083,7.897c3.292,1.603,12.252,1.234,15.838-0.176c2.637-1.036,5.879-4.743,6.621-5.852
				c0.738-1.101,1.946-1.505,2.924-2.375c1.031-0.915,1.172-2.416,0.826-3.715c0.147-1.995-1.611-2.451-3.236-4.709
				c0.083,1.042,0.049,2.087-0.102,3.103c-0.682,4.594-4.106,7.547-8.519,9.293c-3.495,1.384-7.376,2.346-11.151,1.91
				c-12.274-1.416-14.089-8.096-12.899-13.804C294.655,287.629,294.556,287.833,294.466,287.982z"/>
			<path style="opacity:0.56;fill:#B99E30;" d="M315.151,301.6c-4.748,1.209-9.922,1.239-14.251-1.186
				c-3.485-1.952-6.371-5.066-6.68-8.904c-0.189,0.496-0.172,1.451-0.54,1.846c-0.424,0.454-1.227,0.169-1.768,0.174
				c1.118,0.878,2.754,1.609,3.477,2.28c0.829,0.769,1.758,3.358,5.983,6.144c2.04,0.903,4.509,1.726,6.729,1.894
				c3.54,0.267,7.018,0.497,10.315-0.782c5.668-2.197,8.254-6.116,9.285-6.983c1.129-0.946,2.458-1.787,2.741-3.287
				c0.233-1.238-0.287-2.504-0.862-3.612c-0.26-0.258-0.547-0.524-0.853-0.827c0.008,0.063,0.018,0.126,0.026,0.19
				c0.261,2.312-0.218,4.425-1.72,6.306C324.266,298.319,319.541,300.482,315.151,301.6z"/>
			<linearGradient id="SVGID_16_" gradientUnits="userSpaceOnUse" x1="310.9613" y1="291.719" x2="312.0278" y2="279.5292">
				<stop  offset="0.0364" style="stop-color:#EFEA48"/>
				<stop  offset="0.8545" style="stop-color:#FCF5A5"/>
			</linearGradient>
			<path style="opacity:0.44;fill:url(#SVGID_16_);" d="M315.838,286.338c1.717,0.4,3.675,0.934,5.159,1.849
				c1.314,0.808,2.404,1.981,3.533,2.864c1.577-0.511,2.049-2.036,1.409-3.287c-2.792-5.455-8.358-8.215-14.589-8.215
				c-3.414,0-5.506,0.293-8.582,1.503c-2.369,0.933-6.344,3.415-6.702,9.364c2.58-3.537,5.857-4.767,8.91-4.904
				C308.572,285.35,312.402,285.537,315.838,286.338z"/>
			<path style="opacity:0.52;fill:#FAF8D3;" d="M300.365,284.982c1.056-0.571,2.216-1.013,3.345-1.338
				c2.355-0.679,4.827-1.156,7.449-1.156c1.613,0,3.142,0.168,4.679,0.376c1.066,0.145,3.507,1.243,4.495,0.876
				c1.541-0.573-1.677-1.92-2.276-2.164c-1.293-0.529-2.869-0.77-4.325-0.954c-3.009-0.379-6.198-0.055-9.07,0.8
				c-2.3,0.684-6.38,2.45-6.779,5.075l0.096,0.089C298.064,286.317,299.767,285.307,300.365,284.982z"/>
		</g>
	</g>
	<g>
		<g>
			<path style="fill:#D7DC43;" d="M282.711,272.688c-0.607-1.127-4.9-4.642-6.042-5.277c-5.492-3.054-14.764-2.718-17.753-1.314
				c-6.411,3.01-7.778,7.643-8.486,8.816c-0.69,1.143-1.841,1.443-2.826,2.309c-2.917,2.559,2.285,4.162,3.749,5.519
				c1.002,0.93,2.144,4.517,9.083,7.897c3.292,1.603,12.252,1.234,15.838-0.176c2.637-1.036,5.879-4.743,6.621-5.852
				c0.738-1.101,1.946-1.505,2.924-2.375c1.031-0.915,1.172-2.416,0.826-3.716C286.815,276.231,284.477,275.968,282.711,272.688z"/>
			<path style="fill:#D3D332;" d="M286.645,278.518c0.169-2.287-2.168-2.55-3.934-5.83c-0.264-0.489-1.221-1.425-2.312-2.382
				c-1.823,5.743-8.736,10.263-14.75,11.322c-4.016,0.707-8.934,0.409-11.429-3.087c-1.655-2.319-1.921-5.169-1.293-7.851
				c-1.514,1.89-2.108,3.578-2.497,4.223c-0.69,1.143-1.841,1.443-2.826,2.309c-2.917,2.559,2.285,4.162,3.749,5.519
				c1.002,0.93,2.144,4.517,9.083,7.897c3.292,1.603,12.252,1.234,15.838-0.176c2.637-1.036,5.879-4.743,6.621-5.852
				c0.738-1.101,1.946-1.505,2.924-2.375C286.85,281.319,286.992,279.818,286.645,278.518z"/>
			<path style="opacity:0.43;fill:#C2BD30;" d="M250.431,274.912c-0.69,1.143-1.841,1.443-2.826,2.309
				c-2.917,2.559,2.285,4.162,3.749,5.519c1.002,0.93,2.144,4.517,9.083,7.897c3.292,1.603,12.252,1.234,15.838-0.176
				c2.637-1.036,5.879-4.743,6.621-5.852c0.738-1.101,1.946-1.505,2.924-2.375c1.031-0.915,1.172-2.416,0.826-3.716
				c0.169-2.287-2.168-2.55-3.934-5.83c-0.607-1.127-4.9-4.642-6.042-5.277c-0.412-0.228-0.845-0.436-1.293-0.627
				c0.654,0.707,1.183,1.554,1.544,2.574c1.455,4.116,0.168,8.264-2.943,11.357c-2.641,2.627-6.305,4.691-10.126,5.357
				c-3.597,0.627-7.712,0.12-10.138-2.713c-1.619-1.889-2.657-4.341-2.609-6.783c0.037-1.823,0.572-3.525,1.285-5.179
				C251.263,272.991,250.77,274.35,250.431,274.912z"/>
			<path style="opacity:0.69;fill:#B8B433;" d="M250.431,274.912c-0.165,0.275-0.358,0.501-0.569,0.698
				c0.014,0.071,0.024,0.144,0.027,0.222c0.064,1.679-0.735,3.728-2.866,3.755h-0.002c0.855,1.285,3.383,2.272,4.334,3.153
				c1.002,0.93,2.144,4.517,9.083,7.897c3.292,1.603,12.252,1.234,15.838-0.176c2.637-1.036,5.879-4.743,6.621-5.852
				c0.738-1.101,1.946-1.505,2.924-2.375c1.031-0.915,1.172-2.416,0.826-3.716c0.147-1.995-1.611-2.451-3.235-4.709
				c0.083,1.042,0.049,2.087-0.102,3.103c-0.682,4.594-4.106,7.547-8.519,9.293c-3.495,1.384-7.376,2.346-11.151,1.91
				c-12.274-1.416-14.089-8.096-12.899-13.804C250.62,274.56,250.521,274.764,250.431,274.912z"/>
			<path style="opacity:0.56;fill:#B99E30;" d="M271.116,288.531c-4.748,1.209-9.922,1.239-14.251-1.186
				c-3.485-1.952-6.371-5.066-6.68-8.904c-0.189,0.496-0.172,1.451-0.54,1.846c-0.424,0.454-1.227,0.169-1.768,0.174
				c1.118,0.878,2.754,1.609,3.477,2.28c0.829,0.769,1.758,3.358,5.983,6.144c2.04,0.903,4.509,1.726,6.729,1.894
				c3.54,0.267,7.018,0.497,10.315-0.782c5.668-2.197,8.254-6.116,9.285-6.983c1.129-0.947,2.458-1.787,2.741-3.287
				c0.233-1.238-0.287-2.504-0.862-3.612c-0.26-0.258-0.547-0.524-0.853-0.827c0.008,0.063,0.018,0.126,0.027,0.19
				c0.261,2.312-0.218,4.425-1.72,6.306C280.231,285.25,275.506,287.412,271.116,288.531z"/>
			<linearGradient id="SVGID_17_" gradientUnits="userSpaceOnUse" x1="266.9262" y1="278.6498" x2="267.9926" y2="266.4601">
				<stop  offset="0.0364" style="stop-color:#EFEA48"/>
				<stop  offset="0.8545" style="stop-color:#FCF5A5"/>
			</linearGradient>
			<path style="opacity:0.44;fill:url(#SVGID_17_);" d="M271.803,273.269c1.717,0.4,3.674,0.934,5.159,1.849
				c1.314,0.808,2.404,1.981,3.533,2.864c1.577-0.511,2.049-2.036,1.409-3.287c-2.792-5.455-8.358-8.215-14.589-8.215
				c-3.414,0-5.506,0.293-8.582,1.503c-2.369,0.933-6.344,3.415-6.702,9.364c2.58-3.537,5.857-4.766,8.91-4.904
				C264.537,272.281,268.367,272.468,271.803,273.269z"/>
			<path style="opacity:0.52;fill:#FAF8D3;" d="M256.33,271.913c1.056-0.571,2.216-1.013,3.345-1.338
				c2.355-0.679,4.827-1.156,7.449-1.156c1.613,0,3.142,0.168,4.679,0.376c1.066,0.145,3.507,1.242,4.495,0.876
				c1.541-0.573-1.677-1.92-2.276-2.164c-1.293-0.529-2.869-0.77-4.325-0.954c-3.009-0.379-6.198-0.055-9.07,0.8
				c-2.3,0.684-6.38,2.45-6.779,5.075l0.096,0.089C254.029,273.248,255.732,272.237,256.33,271.913z"/>
		</g>
	</g>
	<g>
		<g>
			<path style="fill:#D7DC43;" d="M279.654,325.501c-0.607-1.127-4.9-4.642-6.042-5.277c-5.492-3.054-14.764-2.718-17.753-1.314
				c-6.411,3.01-7.778,7.643-8.486,8.816c-0.69,1.143-1.841,1.443-2.826,2.309c-2.917,2.559,2.285,4.162,3.749,5.519
				c1.002,0.93,2.144,4.517,9.083,7.897c3.292,1.603,12.252,1.234,15.838-0.176c2.637-1.036,5.879-4.743,6.621-5.852
				c0.738-1.101,1.946-1.505,2.924-2.375c1.031-0.915,1.172-2.416,0.826-3.716C283.758,329.044,281.42,328.78,279.654,325.501z"/>
			<path style="fill:#D3D332;" d="M283.588,331.331c0.17-2.287-2.168-2.55-3.934-5.83c-0.264-0.489-1.221-1.425-2.312-2.382
				c-1.823,5.743-8.736,10.263-14.75,11.322c-4.016,0.707-8.934,0.409-11.429-3.087c-1.655-2.318-1.92-5.169-1.293-7.851
				c-1.514,1.89-2.108,3.578-2.497,4.223c-0.69,1.143-1.841,1.443-2.826,2.309c-2.917,2.559,2.285,4.162,3.749,5.519
				c1.002,0.93,2.144,4.517,9.083,7.897c3.292,1.603,12.252,1.234,15.838-0.176c2.637-1.036,5.879-4.743,6.621-5.852
				c0.738-1.101,1.946-1.505,2.924-2.375C283.793,334.132,283.935,332.63,283.588,331.331z"/>
			<path style="opacity:0.43;fill:#C2BD30;" d="M247.374,327.725c-0.69,1.143-1.841,1.443-2.826,2.309
				c-2.917,2.559,2.285,4.162,3.749,5.519c1.002,0.93,2.144,4.517,9.083,7.897c3.292,1.603,12.252,1.234,15.838-0.176
				c2.637-1.036,5.879-4.743,6.621-5.852c0.738-1.101,1.946-1.505,2.924-2.375c1.031-0.915,1.172-2.416,0.826-3.716
				c0.17-2.287-2.168-2.55-3.934-5.83c-0.607-1.127-4.9-4.642-6.042-5.277c-0.412-0.228-0.845-0.436-1.293-0.627
				c0.654,0.707,1.183,1.554,1.544,2.574c1.455,4.116,0.168,8.264-2.943,11.357c-2.641,2.627-6.305,4.691-10.126,5.357
				c-3.597,0.627-7.712,0.12-10.138-2.713c-1.619-1.889-2.657-4.341-2.609-6.783c0.037-1.823,0.572-3.525,1.285-5.179
				C248.206,325.803,247.713,327.163,247.374,327.725z"/>
			<path style="opacity:0.69;fill:#B8B433;" d="M247.374,327.725c-0.165,0.275-0.358,0.501-0.569,0.698
				c0.014,0.071,0.024,0.144,0.027,0.222c0.064,1.679-0.735,3.728-2.866,3.755h-0.002c0.855,1.285,3.383,2.272,4.334,3.153
				c1.002,0.93,2.144,4.517,9.083,7.897c3.292,1.603,12.252,1.234,15.838-0.176c2.637-1.036,5.879-4.743,6.621-5.852
				c0.738-1.101,1.946-1.505,2.924-2.375c1.031-0.915,1.172-2.416,0.826-3.716c0.147-1.995-1.611-2.451-3.235-4.709
				c0.083,1.042,0.049,2.087-0.102,3.104c-0.682,4.594-4.106,7.547-8.519,9.293c-3.495,1.384-7.376,2.346-11.151,1.91
				c-12.274-1.416-14.089-8.096-12.899-13.804C247.563,327.372,247.464,327.577,247.374,327.725z"/>
			<path style="opacity:0.56;fill:#B99E30;" d="M268.059,341.343c-4.748,1.209-9.922,1.24-14.251-1.186
				c-3.485-1.952-6.371-5.066-6.68-8.904c-0.189,0.496-0.172,1.451-0.54,1.846c-0.424,0.454-1.227,0.169-1.768,0.174
				c1.118,0.878,2.754,1.609,3.477,2.28c0.83,0.77,1.758,3.358,5.983,6.144c2.04,0.903,4.509,1.726,6.729,1.894
				c3.54,0.267,7.018,0.497,10.315-0.782c5.668-2.197,8.254-6.116,9.285-6.983c1.129-0.946,2.458-1.787,2.741-3.287
				c0.233-1.238-0.287-2.504-0.862-3.612c-0.26-0.258-0.547-0.524-0.853-0.827c0.008,0.063,0.018,0.126,0.027,0.19
				c0.261,2.312-0.218,4.425-1.72,6.306C277.174,338.063,272.449,340.225,268.059,341.343z"/>
			<linearGradient id="SVGID_18_" gradientUnits="userSpaceOnUse" x1="263.8693" y1="331.4625" x2="264.9357" y2="319.2728">
				<stop  offset="0.0364" style="stop-color:#EFEA48"/>
				<stop  offset="0.8545" style="stop-color:#FCF5A5"/>
			</linearGradient>
			<path style="opacity:0.44;fill:url(#SVGID_18_);" d="M268.746,326.081c1.717,0.4,3.674,0.934,5.159,1.849
				c1.314,0.808,2.404,1.981,3.533,2.864c1.577-0.511,2.049-2.036,1.408-3.287c-2.792-5.455-8.358-8.215-14.589-8.215
				c-3.414,0-5.506,0.293-8.582,1.503c-2.369,0.933-6.344,3.415-6.702,9.364c2.58-3.537,5.857-4.766,8.91-4.904
				C261.48,325.094,265.31,325.281,268.746,326.081z"/>
			<path style="opacity:0.52;fill:#FAF8D3;" d="M253.273,324.726c1.056-0.571,2.216-1.013,3.345-1.338
				c2.355-0.679,4.827-1.156,7.449-1.156c1.613,0,3.142,0.168,4.679,0.376c1.066,0.145,3.507,1.242,4.495,0.876
				c1.541-0.573-1.677-1.92-2.276-2.164c-1.293-0.53-2.869-0.77-4.325-0.954c-3.009-0.379-6.198-0.055-9.07,0.8
				c-2.3,0.684-6.38,2.45-6.779,5.075l0.096,0.089C250.972,326.06,252.675,325.05,253.273,324.726z"/>
		</g>
	</g>
	<g>
		<g>
			<path style="fill:#D7DC43;" d="M256.094,294.446c-0.607-1.127-4.9-4.642-6.042-5.277c-5.492-3.054-14.764-2.718-17.753-1.314
				c-6.411,3.01-7.778,7.643-8.486,8.816c-0.69,1.143-1.841,1.443-2.826,2.308c-2.917,2.559,2.285,4.162,3.749,5.519
				c1.002,0.93,2.144,4.517,9.083,7.897c3.291,1.603,12.252,1.234,15.838-0.176c2.637-1.036,5.879-4.743,6.62-5.852
				c0.738-1.101,1.946-1.505,2.924-2.375c1.031-0.915,1.172-2.416,0.826-3.716C260.197,297.989,257.859,297.725,256.094,294.446z"/>
			<path style="fill:#D3D332;" d="M260.027,300.276c0.169-2.287-2.168-2.55-3.934-5.83c-0.264-0.489-1.221-1.425-2.312-2.382
				c-1.823,5.743-8.736,10.263-14.75,11.322c-4.016,0.707-8.934,0.409-11.429-3.087c-1.655-2.318-1.921-5.169-1.293-7.851
				c-1.514,1.89-2.109,3.578-2.497,4.223c-0.69,1.143-1.841,1.443-2.826,2.308c-2.917,2.559,2.285,4.162,3.749,5.519
				c1.002,0.93,2.144,4.517,9.083,7.897c3.291,1.603,12.252,1.234,15.838-0.176c2.637-1.036,5.879-4.743,6.62-5.852
				c0.738-1.101,1.946-1.505,2.924-2.375C260.232,303.076,260.374,301.575,260.027,300.276z"/>
			<path style="opacity:0.43;fill:#C2BD30;" d="M223.813,296.67c-0.69,1.143-1.841,1.443-2.826,2.308
				c-2.917,2.559,2.285,4.162,3.749,5.519c1.002,0.93,2.144,4.517,9.083,7.897c3.291,1.603,12.252,1.234,15.838-0.176
				c2.637-1.036,5.879-4.743,6.62-5.852c0.738-1.101,1.946-1.505,2.924-2.375c1.031-0.915,1.172-2.416,0.826-3.716
				c0.169-2.287-2.168-2.55-3.934-5.83c-0.607-1.127-4.9-4.642-6.042-5.277c-0.412-0.228-0.845-0.436-1.293-0.627
				c0.654,0.707,1.183,1.554,1.544,2.574c1.455,4.116,0.168,8.264-2.943,11.357c-2.641,2.627-6.305,4.691-10.126,5.357
				c-3.597,0.627-7.712,0.12-10.138-2.713c-1.618-1.889-2.657-4.341-2.609-6.783c0.037-1.823,0.572-3.525,1.285-5.179
				C224.645,294.748,224.152,296.107,223.813,296.67z"/>
			<path style="opacity:0.69;fill:#B8B433;" d="M223.813,296.67c-0.165,0.275-0.358,0.5-0.569,0.698
				c0.014,0.071,0.024,0.144,0.027,0.222c0.064,1.679-0.735,3.728-2.866,3.755h-0.002c0.855,1.285,3.383,2.272,4.334,3.153
				c1.002,0.93,2.144,4.517,9.083,7.897c3.291,1.603,12.252,1.234,15.838-0.176c2.637-1.036,5.879-4.743,6.62-5.852
				c0.738-1.101,1.946-1.505,2.924-2.375c1.031-0.915,1.172-2.416,0.826-3.716c0.147-1.995-1.611-2.451-3.235-4.709
				c0.083,1.042,0.048,2.087-0.102,3.103c-0.682,4.594-4.106,7.547-8.519,9.293c-3.495,1.384-7.376,2.346-11.151,1.91
				c-12.274-1.416-14.089-8.096-12.899-13.804C224.002,296.317,223.903,296.522,223.813,296.67z"/>
			<path style="opacity:0.56;fill:#B99E30;" d="M244.498,310.288c-4.748,1.209-9.922,1.24-14.251-1.186
				c-3.485-1.952-6.371-5.066-6.68-8.904c-0.189,0.496-0.172,1.451-0.54,1.846c-0.424,0.454-1.227,0.169-1.768,0.174
				c1.118,0.878,2.754,1.609,3.477,2.28c0.829,0.77,1.758,3.358,5.983,6.144c2.04,0.903,4.509,1.726,6.729,1.894
				c3.541,0.267,7.018,0.497,10.315-0.782c5.668-2.197,8.254-6.116,9.285-6.983c1.129-0.946,2.457-1.787,2.741-3.287
				c0.233-1.238-0.287-2.504-0.862-3.612c-0.26-0.258-0.547-0.524-0.853-0.827c0.008,0.063,0.018,0.126,0.026,0.19
				c0.261,2.312-0.218,4.425-1.72,6.306C253.613,307.007,248.888,309.17,244.498,310.288z"/>
			<linearGradient id="SVGID_19_" gradientUnits="userSpaceOnUse" x1="240.3083" y1="300.4072" x2="241.3748" y2="288.2175">
				<stop  offset="0.0364" style="stop-color:#EFEA48"/>
				<stop  offset="0.8545" style="stop-color:#FCF5A5"/>
			</linearGradient>
			<path style="opacity:0.44;fill:url(#SVGID_19_);" d="M245.185,295.026c1.717,0.4,3.675,0.934,5.159,1.849
				c1.314,0.808,2.404,1.981,3.533,2.864c1.577-0.511,2.049-2.036,1.409-3.287c-2.792-5.455-8.359-8.215-14.589-8.215
				c-3.414,0-5.506,0.293-8.582,1.503c-2.369,0.933-6.344,3.415-6.702,9.364c2.58-3.537,5.857-4.766,8.91-4.904
				C237.919,294.039,241.749,294.225,245.185,295.026z"/>
			<path style="opacity:0.52;fill:#FAF8D3;" d="M229.712,293.67c1.056-0.571,2.216-1.013,3.345-1.338
				c2.355-0.679,4.827-1.156,7.449-1.156c1.613,0,3.142,0.168,4.679,0.376c1.066,0.145,3.507,1.242,4.495,0.876
				c1.541-0.573-1.677-1.92-2.276-2.164c-1.293-0.529-2.869-0.77-4.325-0.954c-3.009-0.379-6.198-0.055-9.07,0.8
				c-2.3,0.684-6.38,2.45-6.779,5.075l0.096,0.089C227.411,295.005,229.114,293.995,229.712,293.67z"/>
		</g>
	</g>
	<g>
		<g>
			<path style="fill:#D7DC43;" d="M325.5,327.336c-0.607-1.127-4.9-4.642-6.042-5.277c-5.492-3.054-14.764-2.718-17.753-1.314
				c-6.411,3.01-7.778,7.643-8.486,8.816c-0.69,1.143-1.841,1.443-2.826,2.309c-2.917,2.559,2.285,4.162,3.749,5.519
				c1.002,0.93,2.144,4.517,9.083,7.897c3.292,1.603,12.252,1.234,15.838-0.176c2.637-1.036,5.879-4.743,6.621-5.852
				c0.738-1.101,1.946-1.505,2.924-2.375c1.031-0.915,1.172-2.416,0.826-3.716C329.603,330.879,327.266,330.616,325.5,327.336z"/>
			<path style="fill:#D3D332;" d="M329.434,333.166c0.17-2.287-2.168-2.55-3.934-5.83c-0.264-0.489-1.221-1.425-2.312-2.382
				c-1.823,5.743-8.736,10.263-14.75,11.322c-4.016,0.707-8.934,0.409-11.429-3.087c-1.655-2.318-1.92-5.169-1.293-7.851
				c-1.514,1.89-2.108,3.578-2.497,4.223c-0.69,1.143-1.841,1.443-2.826,2.309c-2.917,2.559,2.285,4.162,3.749,5.519
				c1.002,0.93,2.144,4.517,9.083,7.897c3.292,1.603,12.252,1.234,15.838-0.176c2.637-1.036,5.879-4.743,6.621-5.852
				c0.738-1.101,1.946-1.505,2.924-2.375C329.639,335.967,329.78,334.466,329.434,333.166z"/>
			<path style="opacity:0.43;fill:#C2BD30;" d="M293.219,329.56c-0.69,1.143-1.841,1.443-2.826,2.309
				c-2.917,2.559,2.285,4.162,3.749,5.519c1.002,0.93,2.144,4.517,9.083,7.897c3.292,1.603,12.252,1.234,15.838-0.176
				c2.637-1.036,5.879-4.743,6.621-5.852c0.738-1.101,1.946-1.505,2.924-2.375c1.031-0.915,1.172-2.416,0.826-3.716
				c0.17-2.287-2.168-2.55-3.934-5.83c-0.607-1.127-4.9-4.642-6.042-5.277c-0.412-0.228-0.845-0.436-1.293-0.627
				c0.654,0.707,1.183,1.554,1.544,2.574c1.455,4.116,0.168,8.264-2.943,11.357c-2.641,2.627-6.305,4.691-10.126,5.357
				c-3.597,0.627-7.712,0.12-10.138-2.713c-1.619-1.889-2.657-4.341-2.609-6.783c0.037-1.823,0.572-3.525,1.285-5.179
				C294.051,327.639,293.559,328.998,293.219,329.56z"/>
			<path style="opacity:0.69;fill:#B8B433;" d="M293.219,329.56c-0.165,0.275-0.358,0.501-0.569,0.698
				c0.014,0.071,0.024,0.144,0.027,0.222c0.064,1.679-0.735,3.728-2.866,3.755h-0.002c0.855,1.285,3.383,2.272,4.334,3.153
				c1.002,0.93,2.144,4.517,9.083,7.897c3.292,1.603,12.252,1.234,15.838-0.176c2.637-1.036,5.879-4.743,6.621-5.852
				c0.738-1.101,1.946-1.505,2.924-2.375c1.031-0.915,1.172-2.416,0.826-3.716c0.147-1.995-1.611-2.451-3.235-4.709
				c0.083,1.042,0.049,2.087-0.102,3.103c-0.682,4.594-4.106,7.547-8.519,9.293c-3.495,1.384-7.376,2.346-11.151,1.91
				c-12.274-1.416-14.089-8.096-12.899-13.804C293.408,329.207,293.31,329.412,293.219,329.56z"/>
			<path style="opacity:0.56;fill:#B99E30;" d="M313.904,343.179c-4.748,1.209-9.922,1.239-14.251-1.186
				c-3.485-1.952-6.371-5.066-6.68-8.904c-0.189,0.496-0.172,1.451-0.54,1.846c-0.424,0.454-1.227,0.169-1.768,0.174
				c1.118,0.878,2.754,1.609,3.477,2.28c0.83,0.769,1.758,3.358,5.983,6.144c2.04,0.903,4.509,1.726,6.729,1.893
				c3.54,0.267,7.018,0.497,10.315-0.781c5.668-2.197,8.254-6.116,9.285-6.983c1.129-0.946,2.458-1.787,2.741-3.287
				c0.233-1.238-0.287-2.504-0.862-3.612c-0.26-0.258-0.547-0.524-0.853-0.827c0.008,0.063,0.018,0.126,0.027,0.19
				c0.261,2.312-0.218,4.425-1.72,6.306C323.019,339.898,318.294,342.06,313.904,343.179z"/>
			<linearGradient id="SVGID_20_" gradientUnits="userSpaceOnUse" x1="309.7146" y1="333.2978" x2="310.7811" y2="321.1079">
				<stop  offset="0.0364" style="stop-color:#EFEA48"/>
				<stop  offset="0.8545" style="stop-color:#FCF5A5"/>
			</linearGradient>
			<path style="opacity:0.44;fill:url(#SVGID_20_);" d="M314.591,327.916c1.717,0.4,3.674,0.934,5.159,1.849
				c1.314,0.808,2.404,1.981,3.533,2.864c1.577-0.511,2.049-2.036,1.408-3.287c-2.792-5.455-8.358-8.215-14.589-8.215
				c-3.414,0-5.506,0.293-8.582,1.503c-2.369,0.933-6.344,3.415-6.702,9.364c2.58-3.537,5.857-4.767,8.91-4.904
				C307.325,326.929,311.155,327.116,314.591,327.916z"/>
			<path style="opacity:0.52;fill:#FAF8D3;" d="M299.118,326.561c1.056-0.571,2.216-1.013,3.345-1.339
				c2.355-0.679,4.827-1.156,7.449-1.156c1.613,0,3.142,0.168,4.679,0.376c1.066,0.145,3.507,1.243,4.495,0.876
				c1.541-0.573-1.677-1.92-2.276-2.164c-1.293-0.529-2.869-0.77-4.325-0.954c-3.009-0.379-6.198-0.055-9.07,0.8
				c-2.3,0.684-6.38,2.45-6.779,5.075l0.096,0.089C296.817,327.896,298.52,326.885,299.118,326.561z"/>
		</g>
	</g>
</g>
</svg>
