<?xml version="1.0" encoding="iso-8859-1"?>
<!-- Generator: Adobe Illustrator 23.0.2, SVG Export Plug-In . SVG Version: 6.00 Build 0)  -->
<svg version="1.1" id="Layer_1" xmlns="http://www.w3.org/2000/svg" xmlns:xlink="http://www.w3.org/1999/xlink" x="0px" y="0px"
	 viewBox="0 0 595.276 841.89" style="enable-background:new 0 0 595.276 841.89;" xml:space="preserve">
<g>
	<g>
		<g>
			<path style="fill:#334520;" d="M255.61,379.77c-1.35,5.24-2.95,3.61-4.95,4.47l-0.46-0.25c0.23,1.47,2.23,3.24,2.68,4.96
				c2.58-2.63,2.45-4.13,3.38-7.47c0.81-2.9,2.29-2.46,3.58-3.38c0-0.49-0.46-1.23-0.69-1.72
				C257.81,377.21,256.04,378.09,255.61,379.77z"/>
		</g>
		<g>
			<path style="fill:#334520;" d="M253.31,386.65c0.02,0.25,0.04,0.49,0.05,0.75l-0.33-0.69
				C253.13,386.68,253.22,386.67,253.31,386.65c-2.16-29.74-43.87-22.68-56.1-8.26c-9.41,11.08-14.77,21.2-12.63,38.09
				c1.94,15.23,15.42,28.25,29.26,31.04c31.73,6.39,55.1-14.76,53.48-44.89C266.68,392.67,264.12,384.42,253.31,386.65z"/>
		</g>
		<g>
			<path style="fill:#334520;" d="M253.37,387.39c-0.01-0.25-0.04-0.5-0.05-0.75c-0.09,0.02-0.18,0.03-0.27,0.05L253.37,387.39z"/>
		</g>
		<g>
			<path style="fill:#F8EFD1;" d="M252.97,386.69c-0.91-18.41-16.25-22.49-31.28-20.22c-9.96,1.51-19.01,10.22-23.74,16.19
				c-7.85,9.9-10.89,21.21-8.41,35.89c1.46,8.65,4.97,14.08,11.06,16.84c2.86,1.29,11.18,0.81,19.05-1.8
				c15.44-5.11,31.71-20.32,41.36-31.63c2.93-3.43,5.39-7.28,4.02-10.2C263.05,387.57,259.48,385.26,252.97,386.69z"/>
		</g>
		<g>
			<path style="fill:#F05055;" d="M247.67,391.83l-0.46,0.25c-7.81,1.72-17.47,11.28-23.67,16.92c-6.9,6.37-17.01,16.18-20.22,25.49
				c6.66,0.25,10.11-1.47,15.63-4.66c5.51-2.94,10.8-4.41,15.86-9.07c7.35-6.37,17.24-12.99,22.98-21.08
				C265.6,388.89,254.8,389.63,247.67,391.83z"/>
		</g>
		<g>
			<path style="fill:#F05055;" d="M226.07,370.75c-10.11,0.49-20.45,7.6-26.66,15.94c-5.74,8.34-8.27,20.35-6.9,30.4
				c0.69,4.66,2.3,10.54,5.29,13.73c1.38,1.47,4.14,2.7,5.29,3.68v-0.24c0.69,0.49,4.14-3.68,5.74-5.15
				c7.81-7.6,14.94-15.69,23.21-22.8c3.91-3.68,8.04-7.35,11.95-10.79c1.84-1.72,4.83-3.43,5.29-5.64c0.23-1.23-0.46-4.66-0.69-5.88
				C247.44,374.42,234.34,370.26,226.07,370.75z"/>
		</g>
		<g style="opacity:0.36;">
			<path style="fill:#F8ABAB;" d="M238.71,397.47c-1.61,0.73-3.45,0.49-4.83,1.47c-0.69,0.49-2.3,3.43-2.99,4.17
				c-2.07,2.45-5.29,5.64-6.44,8.58c3.68-5.15,10.8-9.56,15.63-13.24c2.3-1.72,7.35-3.92,8.73-6.87c0.92-1.96,0-5.39,0-7.35
				l-0.46-0.25C250.66,388.4,242.39,395.51,238.71,397.47z"/>
		</g>
		<g style="opacity:0.25;">
			<path style="fill:#F7A8A9;" d="M220.73,400.9c-3.97,2.21-7.41,3.49-8.27,8.46c-0.69,3.49-1.55,7.35-2.76,10.66
				c-1.03,3.13-3.79,5.15-4.83,8.09l-1.21,1.1c1.72-0.18,3.96-2.21,5.69-3.31c3.62-2.76,7.07-4.6,9.48-8.64
				c2.41-3.68,6.29-5.5,9.65-8.09c4.38-3.37,5.17-5.46,8.45-8.64c2.12-2.06,8.27-4.78,9.31-7.72c-4.65,1.84-9.48,2.39-14.31,2.76
				C227.45,395.94,224.52,398.88,220.73,400.9z"/>
		</g>
		<g>
			<path style="fill:#B32025;" d="M201.84,433.25l-0.36-0.23C201.59,433.09,201.71,433.17,201.84,433.25z"/>
		</g>
		<g>
			<path style="fill:#B32025;" d="M213.66,423.7c3.91-3.68,8.05-7.11,11.72-10.79c7.36-7.11,14.94-14.22,22.98-20.35
				c-4.6,1.72-8.27,6.13-12.41,9.07c-2.3,1.72-3.68,3.68-5.98,5.39c-1.84,1.47-4.37,1.72-6.43,3.43c-3.45,2.94-5.52,7.35-8.96,10.54
				c-1.84,1.72-4.6,1.96-6.43,3.68c-0.69,0.49-0.69,1.96-1.61,2.7c-1.38,0.98-2.3,0.49-3.68,0.98c-1.61,0.98-3.22,0.74-1.84,3.43
				c-0.46,0-0.92,0.49-1.38,0.49c0.92,0.49,2.07,1.23,2.99,1.47l-0.79-0.51c-0.13-0.08-0.25-0.15-0.36-0.23l0.36,0.23
				c0.69,0.41,1.63,0.79,2.4,1C204.47,430.08,210.9,426.15,213.66,423.7z"/>
		</g>
		<g style="opacity:0.5;">
			<g>
				<path style="fill:#FAF9D5;" d="M252.97,386.69c-0.91-18.41-16.25-22.49-31.28-20.22c-9.96,1.51-19.01,10.22-23.74,16.19
					c-7.85,9.9-10.89,21.21-8.41,35.89c1.46,8.65,4.97,14.08,11.06,16.84c2.86,1.29,11.18,0.81,19.05-1.8
					c15.44-5.11,31.71-20.32,41.36-31.63c2.93-3.43,5.39-7.28,4.02-10.2C263.05,387.57,259.48,385.26,252.97,386.69z M258.47,393.91
					c0.88,3.84-0.69,2.7-1.38,3.92c-0.46,0.49-2.64,2.17-3.1,3.15c0.17,1.61-3.33,3.65-3.79,4.14c-1.84,2.45-3.1,4.6-5.86,4.97
					c-2.07,1.96-3.33,3.74-5.17,5.7c-1.61,1.47-4.7,2.63-6.31,3.86c-1.84,1.47-3.74,3.74-5.81,4.96c-1.84,0.98-3.05,1.78-5.11,3
					c-1.15,0.73-2-1.19-3.38-0.7c-1.15,0.49-1.91,2.91-3.06,3.4c-2.3,0.74-3.05,0.95-5.29,1.72c-7.12,2.45-7.81-1.47-12.18-2.45
					c0.69-2.45-0.92-3.86-2.89-7.36c-2.33-4.13-2.08-7.78-0.47-11.95c0.69-1.72-0.69-7.33,0-9.29c0.69-1.47,2.16-4.44,2.62-6.15
					c0.46-1.47,1.03-3.12,1.72-4.35c0.46-0.49,2.15-0.8,2.97-2.27c0.82-1.47,0.92-3.5,2.62-5.55s4.59-5.36,8.61-6.19
					c6.43-1.32,9.04-6.04,18.69-3.34c5.52,1.47,8.83,1.2,12.26,4.97c4.19,4.61,1.95,13.14,4.19,14.46
					C250.3,393.71,257.6,390.08,258.47,393.91z"/>
			</g>
		</g>
		<g style="opacity:0.38;">
			<g>
				<path style="fill:#DBE797;" d="M252.97,386.69c-0.91-18.41-16.25-22.49-31.28-20.22c-9.96,1.51-19.01,10.22-23.74,16.19
					c-7.85,9.9-10.89,21.21-8.41,35.89c1.46,8.65,4.97,14.08,11.06,16.84c2.86,1.29,11.18,0.81,19.05-1.8
					c15.44-5.11,31.71-20.32,41.36-31.63c2.93-3.43,5.39-7.28,4.02-10.2C263.05,387.57,259.48,385.26,252.97,386.69z M261.6,390.48
					c-0.54,3.08,1.99,2.33,1.03,6.46c-0.95,2.38-4.77,4.05-5.45,6.45c0.17,1.61-4.45,4.74-4.91,5.23c-1.84,2.45-2.55,5.01-5.3,5.38
					c-2.07,1.96-4.56,2.54-6.4,4.5c-1.61,1.47-3.06,2.99-4.67,4.21c-1.84,1.47-4.16,1.82-6.23,3.05c-1.84,0.98-3.59,2.78-5.66,4
					c-1.15,0.74-2.78,0.16-4.16,0.65c-1.15,0.49-2.33,2.13-3.48,2.62c-2.3,0.73-3.81,0.43-6.04,1.2c-7.12,2.45-9.99-1.12-12.26-1.93
					c-2.64-3.38-2.53-3.19-4.5-6.69c-2.33-4.14-4.74-10.79-3.13-14.96c0.69-1.72-0.14-7.72,0.55-9.68c0.69-1.47,2.18-5.62,2.64-7.33
					c0.46-1.47,1.85-3.49,2.53-4.71c0.46-0.49,3.27-3.49,4.09-4.96c0.82-1.47,1.72-2.81,3.43-4.86c1.7-2.05,6.31-6.01,10.33-6.83
					c6.43-1.31,10.01-6.18,19.66-3.49c5.51,1.47,9.63,2.27,13.31,5.75c6.68,6.32,1.57,14.61,3.82,15.93
					C252.72,391.63,262.28,386.6,261.6,390.48z"/>
			</g>
		</g>
		<g>
			<path style="fill:#EF3E3C;" d="M199.2,394.81l0.5-0.71C199.52,394.31,199.35,394.55,199.2,394.81z"/>
		</g>
		<g>
			<path style="fill:#EF3E3C;" d="M195.39,412.85c0,3.13,1.21,9.01,5.17,7.72c2.76-0.73,5.17-8.09,6.55-10.48
				c1.72-3.86,2.24-8.27,5.51-11.03c2.93-2.39,7.07-3.31,10.51-4.6c6.72-2.76,18.96-10.11,12.24-18.57
				c-4.14-5.15-16.55-2.21-21.2,1.47c-3.1,2.39-6.21,5.88-8.96,8.83c-2.07,2.02-4.83,6.07-6.03,8.64l0.02-0.02
				c0.16-0.26,0.32-0.5,0.5-0.71l-0.5,0.71c-1.2,2-1.78,5.26-2.09,7.38C196.6,405.68,195.39,409.36,195.39,412.85z"/>
		</g>
		<g>
			<path style="fill:#EF3E3C;" d="M237.1,403.84c-3.27,2.39-4.83,5.33-7.76,8.27c-1.55,1.65-2.93,3.49-4.65,4.78
				c-1.55,1.29-3.62,2.02-4.65,3.86c-3.62,6.07,7.93-0.55,9.65-2.21c4.83-4.23,9.13-8.46,14.48-11.77c2.07-1.29,7.58-7.17,2.76-8.64
				C244.34,397.41,238.65,402,237.1,403.84z"/>
		</g>
		<g style="opacity:0.36;">
			<path style="fill:#F9BBB9;" d="M210.9,386.19c0.52-0.55,1.03-1.84,1.55-2.21c3.1-2.39,6.72-2.57,10.17-3.13
				c3.45-0.55,7.58-2.76,11.2-1.1c1.03,0.55,1.38,1.29,2.24,1.84s1.9,0.37,2.59,0.92c1.03,0.55,3.79,2.76,4.31,3.86
				c-0.69-2.57-0.69-4.05-2.76-5.52c-0.86-0.74-1.9-0.92-2.76-1.65c-1.21-1.1-1.55-2.02-3.1-2.58c-3.45-1.29-9.31,0.37-12.93,0.92
				c-1.9,0.18-3.62,0.74-5.34,1.47c-2.07,0.92-3.27,0.74-5.34,1.47c-2.93,0.73-2.41,2.39-3.62,4.6c-1.03,1.84-3.1,2.57-3.96,4.78
				s-0.52,3.68-1.9,5.88c-1.21,2.02-1.72,3.12-2.41,5.33c-0.86,2.57-3.35,9.93-1.38,14.34c0-5.7,1.9-9.56,2.93-11.77
				c0.52-1.1,1.55-1.65,2.07-2.57c0.52-0.92,0.17-2.02,0.52-2.94c0.69-1.66,2.41-3.68,3.45-5.15c0.69-1.1,1.38-1.1,1.9-2.21
				c0.34-0.74-0.17-2.02,0.17-2.76C209.18,386.74,210.21,386.93,210.9,386.19z"/>
		</g>
		<g style="opacity:0.46;">
			<path style="fill:#F9BBB9;" d="M235.89,414.88c1.55-0.37,1.55-1.65,2.41-2.39c0.86-0.55,1.9-0.74,2.76-1.29
				c1.03-0.74,1.55-1.84,2.41-2.57c0.69-0.55,2.07-0.74,2.58-1.1c1.38-1.1,3.27-3.86,3.96-5.7c0.52-0.92,0.86-2.21,1.03-2.94
				c0.52-0.92,1.03-1.65,1.21-2.94c-1.03-0.55-2.76-0.55-3.79,0l-0.17,0.18c0.34,0,0.52,0,0.86,0.18
				C249.86,404.76,240.55,409.18,235.89,414.88z"/>
		</g>
		<g style="opacity:0.31;">
			<path style="fill:#F9BBB9;" d="M222.62,380.86c7.03,4.01,9.83,4.49,13.1,6.99c3.45,2.64,3.37,9.46,3.89,9.1
				c2.48-4.13,5.07-6.15,5.59-9.83c0.69-3.49-1.14-6.17-3.62-8.28C232.61,371.21,212.27,374.96,222.62,380.86z"/>
		</g>
		<g>
			<g>
				<path style="fill:#749344;" d="M252.97,386.69c-0.91-18.41-16.25-22.49-31.28-20.22c-9.96,1.51-19.01,10.22-23.74,16.19
					c-7.85,9.9-10.89,21.21-8.41,35.89c1.46,8.65,4.97,14.08,11.06,16.84c2.86,1.29,11.18,0.81,19.05-1.8
					c15.44-5.11,31.71-20.32,41.36-31.63c2.93-3.43,5.39-7.28,4.02-10.2C263.05,387.57,259.48,385.26,252.97,386.69z M263.89,396.05
					c-1.01,4.08-5.84,8.46-8.86,11.26c-1.41,1.5-2.94,3.32-4.35,4.39c-1.81,1.72-1.82,2.8-3.84,4.09c-1.01,0.86-1.55,0.6-2.56,1.46
					c-0.4,0.64-1.84,1.9-2.64,2.55c-1.21,1.29-4.73,4.14-6.14,5c-2.21,1.29-3.85,1.13-5.46,2.64c-1.81,1.5-2.26,2.11-4.27,3.18
					c-1.21,0.43-3.62,1.48-5.03,1.91c-2.21,0.64-4,1.73-6.22,1.73c-1.61,0-2.51,0.08-3.92,0.72c-2.21,0.86-1.96,0.15-4.18,0.37
					c-3.42,0.43-5.09,0.63-7.5-1.09c-2.01-1.29-2.26-2.53-3.87-4.46c-5.23-5.8-6.37-16.89-5.51-24.55c0.81-1.93,0.2-3.71,0.6-5.64
					c0.2-1.08,0.47-3.71,1.36-4.37c1.11-0.82,1.1-2.65,1.7-3.73c1.71-1.64,1.01-2.71,2.22-4.64c0.6-0.86,2.52-3.33,3.32-4.19
					c0.4-0.43,1.93-1.93,2.39-2.54c3.34-4.43,4.62-5.55,9.38-7.55c2.42-2.36,4.58-4.63,8.53-4.55c3.62-1.07,7.54-1.7,11.76-1.27
					c3.62,0.43,10.16,2.4,13.39,4.55c4.43,3.01,6.75,7.06,7.76,11.36c0.4,1.93-1.24,5.63,0.17,6.28c0.81,0.21,4.5-1.63,5.71-1.63
					C262.67,387.53,265.29,390.89,263.89,396.05z"/>
			</g>
		</g>
		<g>
			<g style="opacity:0.49;">
				<path style="fill:#321614;" d="M197.49,406.92c-0.77,1.97,1.43,2.83,3.26,2.45c0.22-0.05,0.44-0.34,0.57-0.65
					c0.11-0.26,0.13-0.46-0.13-0.86C200.79,407.24,198.37,404.67,197.49,406.92z"/>
			</g>
			<g>
				<path style="fill:#2B2928;" d="M197.99,407.17c-0.8,1.77,1.5,2.3,2.76,2.2c0.22-0.02,0.51-0.16,0.64-0.46
					c0.11-0.26,0.13-0.46-0.13-0.86C200.86,407.43,198.67,405.64,197.99,407.17z"/>
				<g>
					<path style="fill:#6C6C6C;" d="M198.04,408.07c-0.21,0.23,0.62,0.7,0.74,0.76c0.75,0.32,1.32,0.29,2.11,0.38
						c-0.61-0.26-1.11-0.22-1.67-0.5C198.68,408.44,198.16,407.93,198.04,408.07z"/>
				</g>
				<g>
					<path style="fill:#0B0B0B;" d="M199.83,407.01c-0.28-0.19-0.82-0.43-1.18-0.25c-0.11,0.06-0.51,0.26-0.5,0.42
						c0.04,0.29,0.44,0.08,0.65-0.01c0.77-0.29,1.88,0.83,2.45,1.23c-0.2-0.24-0.21-0.39-0.59-0.75
						C200.37,407.4,200.14,407.24,199.83,407.01z"/>
				</g>
			</g>
		</g>
		<g>
			<g style="opacity:0.49;">
				<path style="fill:#321614;" d="M201.07,396.34c-0.86,1.35,0.67,2.36,2.09,2.37c0.17,0,0.38-0.18,0.52-0.39
					c0.12-0.17,0.16-0.32,0.03-0.67C203.51,397.12,202.05,394.8,201.07,396.34z"/>
			</g>
			<g>
				<path style="fill:#2B2928;" d="M201.41,396.61c-0.85,1.2,0.8,1.97,1.76,2.1c0.17,0.02,0.41-0.03,0.55-0.24
					c0.12-0.17,0.16-0.32,0.03-0.67C203.53,397.27,202.14,395.58,201.41,396.61z"/>
				<g>
					<path style="fill:#6C6C6C;" d="M201.32,397.3c-0.19,0.14,0.37,0.63,0.45,0.7c0.52,0.36,0.95,0.43,1.53,0.63
						c-0.42-0.3-0.81-0.34-1.18-0.65C201.75,397.68,201.43,397.21,201.32,397.3z"/>
				</g>
				<g>
					<path style="fill:#0B0B0B;" d="M201.97,396.41c-0.09,0.02-0.42,0.11-0.44,0.24c-0.01,0.23,0.32,0.13,0.49,0.1
						c0.62-0.09,1.3,0.93,1.66,1.32c-0.11-0.21-0.1-0.33-0.34-0.66c-0.17-0.24-0.32-0.4-0.52-0.62
						C202.64,396.61,202.26,396.34,201.97,396.41z"/>
				</g>
			</g>
		</g>
		<g>
			<g style="opacity:0.49;">
				<path style="fill:#321614;" d="M205.3,396.1c-1.34,1.51,0.38,3.1,2.17,3.43c0.21,0.04,0.51-0.15,0.73-0.38
					c0.19-0.19,0.27-0.37,0.16-0.83C208.2,397.61,206.83,394.38,205.3,396.1z"/>
			</g>
			<g>
				<path style="fill:#2B2928;" d="M205.67,396.51c-1.3,1.32,0.62,2.64,1.79,3.02c0.21,0.07,0.51,0.05,0.73-0.18
					c0.19-0.19,0.27-0.37,0.16-0.83C208.21,397.81,206.79,395.38,205.67,396.51z"/>
				<g>
					<path style="fill:#6C6C6C;" d="M205.43,397.35c-0.27,0.13,0.33,0.87,0.42,0.97c0.58,0.56,1.11,0.75,1.79,1.12
						c-0.46-0.46-0.94-0.61-1.35-1.07C205.89,397.92,205.59,397.27,205.43,397.35z"/>
				</g>
				<g>
					<path style="fill:#0B0B0B;" d="M206.41,396.39c-0.12,0.01-0.55,0.05-0.59,0.2c-0.06,0.28,0.37,0.23,0.6,0.24
						c0.79,0.02,1.44,1.45,1.82,2.02c-0.1-0.29-0.07-0.43-0.3-0.9c-0.17-0.34-0.33-0.57-0.54-0.89
						C207.21,396.78,206.79,396.36,206.41,396.39z"/>
				</g>
			</g>
		</g>
		<g>
			<g style="opacity:0.49;">
				<path style="fill:#321614;" d="M203.02,420.7c-0.68,0.04-3.9,0.91-2.59,2.82c1.16,1.67,2.93,0.14,3.54-1.67
					c0.07-0.22-0.05-0.56-0.22-0.83C203.61,420.79,203.47,420.68,203.02,420.7z"/>
			</g>
			<g>
				<path style="fill:#2B2928;" d="M203.2,420.74c-0.68,0.04-3.18,1.1-2.33,2.47c0.99,1.6,2.55-0.18,3.1-1.35
					c0.1-0.21,0.13-0.53-0.04-0.8C203.8,420.82,203.65,420.71,203.2,420.74z"/>
				<g>
					<path style="fill:#6C6C6C;" d="M202.7,422.88c-0.49,0.34-1.14,0.55-1.09,0.73c0.08,0.3,0.86-0.2,0.97-0.28
						c0.62-0.51,0.88-1.03,1.35-1.69C203.42,422.06,203.2,422.53,202.7,422.88z"/>
				</g>
				<g>
					<path style="fill:#0B0B0B;" d="M200.89,422.41c-0.01,0.13-0.05,0.59,0.08,0.66c0.25,0.11,0.28-0.35,0.32-0.58
						c0.16-0.83,1.59-1.26,2.19-1.56c-0.29,0.06-0.41,0-0.88,0.15c-0.34,0.12-0.58,0.24-0.92,0.41
						C201.39,421.64,200.93,422.01,200.89,422.41z"/>
				</g>
			</g>
		</g>
		<g>
			<g style="opacity:0.49;">
				<path style="fill:#321614;" d="M246.94,401.45c-0.14,0.1-0.2,0.37-0.2,0.62c0,0.21,0.04,0.35,0.33,0.54
					c0.44,0.29,2.81,1.23,2.76-0.57C249.79,400.46,248.06,400.6,246.94,401.45z"/>
			</g>
			<g>
				<path style="fill:#2B2928;" d="M246.94,401.45c-0.15,0.08-0.3,0.27-0.3,0.51c-0.01,0.21,0.04,0.35,0.33,0.54
					c0.44,0.29,2.43,0.78,2.45-0.47C249.46,400.58,247.76,400.98,246.94,401.45z"/>
				<g>
					<path style="fill:#6C6C6C;" d="M246.89,401.6c0.48-0.02,0.81-0.22,1.27-0.2c0.44,0.01,0.93,0.18,0.98,0.04
						c0.07-0.22-0.62-0.27-0.72-0.27C247.82,401.2,247.45,401.4,246.89,401.6z"/>
				</g>
				<g>
					<path style="fill:#0B0B0B;" d="M248.87,402.29c-0.43,0.44-1.5,0.06-2-0.03c0.2,0.1,0.25,0.19,0.61,0.31
						c0.26,0.09,0.46,0.12,0.74,0.17c0.24,0.04,0.68,0.02,0.87-0.22c0.06-0.08,0.27-0.34,0.22-0.45
						C249.2,401.89,248.99,402.16,248.87,402.29z"/>
				</g>
			</g>
		</g>
		<g>
			<g style="opacity:0.49;">
				<path style="fill:#321614;" d="M245.87,398.82c-0.07,0.16-0.01,0.43,0.09,0.65c0.09,0.19,0.19,0.29,0.53,0.31
					c0.52,0.04,3.02-0.29,2.2-1.86C247.97,396.54,246.5,397.51,245.87,398.82z"/>
			</g>
			<g>
				<path style="fill:#2B2928;" d="M245.87,398.82c-0.09,0.15-0.15,0.39-0.04,0.61c0.09,0.19,0.19,0.29,0.53,0.31
					c0.52,0.04,2.49-0.5,1.97-1.62C247.73,396.81,246.4,397.99,245.87,398.82z"/>
				<g>
					<path style="fill:#6C6C6C;" d="M247.06,397.84c-0.51,0.32-0.76,0.69-1.17,1.13c0.42-0.25,0.63-0.59,1.03-0.8
						c0.4-0.21,0.91-0.3,0.89-0.44C247.78,397.5,247.15,397.8,247.06,397.84z"/>
				</g>
				<g>
					<path style="fill:#0B0B0B;" d="M247.95,398.61c-0.2,0.61-1.31,0.79-1.79,0.95c0.22-0.01,0.31,0.05,0.68-0.03
						c0.27-0.05,0.46-0.13,0.73-0.21c0.23-0.09,0.61-0.31,0.68-0.62c0.02-0.1,0.09-0.43,0-0.5
						C248.07,398.1,248.01,398.44,247.95,398.61z"/>
				</g>
			</g>
		</g>
		<g>
			<g style="opacity:0.49;">
				<path style="fill:#321614;" d="M216.41,423.28c-0.19-0.01-0.33,0.03-0.51,0.32c-0.29,0.45-1.28,2.89,0.39,2.93
					c1.46,0.04,1.42-1.79,0.69-3.01C216.89,423.38,216.64,423.3,216.41,423.28z"/>
			</g>
			<g>
				<path style="fill:#2B2928;" d="M216.51,423.18c-0.2-0.01-0.32,0.03-0.51,0.32c-0.29,0.45-0.84,2.51,0.31,2.6
					c1.34,0.11,1.06-1.69,0.67-2.58C216.9,423.37,216.74,423.2,216.51,423.18z"/>
				<g>
					<path style="fill:#6C6C6C;" d="M216.87,425.82c0.2,0.09,0.28-0.63,0.29-0.74c0-0.63-0.17-1.03-0.32-1.62
						c-0.01,0.51,0.16,0.86,0.12,1.34C216.93,425.26,216.75,425.77,216.87,425.82z"/>
				</g>
				<g>
					<path style="fill:#0B0B0B;" d="M215.91,424.04c-0.09,0.27-0.13,0.48-0.2,0.77c-0.04,0.25-0.05,0.71,0.16,0.92
						c0.06,0.07,0.3,0.3,0.4,0.25c0.18-0.11-0.07-0.34-0.18-0.47c-0.39-0.48,0.03-1.58,0.13-2.1
						C216.13,423.62,216.04,423.67,215.91,424.04z"/>
				</g>
			</g>
		</g>
		<g>
			<g style="opacity:0.49;">
				<path style="fill:#321614;" d="M214.21,426.89c-0.19-0.03-0.33,0-0.54,0.28c-0.32,0.42-1.48,2.77,0.18,2.95
					c1.45,0.15,1.54-1.67,0.91-2.94C214.68,427.02,214.44,426.92,214.21,426.89z"/>
			</g>
			<g>
				<path style="fill:#2B2928;" d="M214.32,426.8c-0.19-0.03-0.33,0-0.54,0.28c-0.32,0.43-1.02,2.43,0.12,2.62
					c1.33,0.22,1.18-1.6,0.85-2.52C214.7,427.01,214.55,426.83,214.32,426.8z"/>
				<g>
					<path style="fill:#6C6C6C;" d="M214.49,429.46c0.2,0.11,0.33-0.61,0.34-0.71c0.05-0.63-0.09-1.04-0.2-1.65
						c-0.04,0.51,0.1,0.87,0.03,1.35C214.59,428.91,214.37,429.4,214.49,429.46z"/>
				</g>
				<g>
					<path style="fill:#0B0B0B;" d="M213.66,427.61c-0.11,0.26-0.17,0.47-0.25,0.75c-0.06,0.25-0.11,0.7,0.09,0.93
						c0.06,0.07,0.28,0.33,0.38,0.28c0.18-0.09-0.04-0.34-0.14-0.48c-0.35-0.51,0.14-1.58,0.28-2.08
						C213.91,427.2,213.82,427.25,213.66,427.61z"/>
				</g>
			</g>
		</g>
		<g>
			<g style="opacity:0.49;">
				<path style="fill:#321614;" d="M219.13,423.45c-0.18,0.08-0.28,0.18-0.32,0.54c-0.06,0.54,0.12,3.19,1.61,2.41
					c1.31-0.69,0.49-2.28-0.69-3.01C219.6,423.3,219.35,423.35,219.13,423.45z"/>
			</g>
			<g>
				<path style="fill:#2B2928;" d="M219.18,423.31c-0.18,0.08-0.28,0.18-0.32,0.54c-0.06,0.54,0.34,2.64,1.4,2.16
					c1.24-0.56,0.21-2.02-0.52-2.62C219.61,423.29,219.39,423.21,219.18,423.31z"/>
				<g>
					<path style="fill:#6C6C6C;" d="M220.28,424.53c0.17,0.43,0.23,0.97,0.36,0.95c0.22-0.02-0.02-0.7-0.06-0.8
						c-0.27-0.56-0.59-0.83-0.99-1.28C219.8,423.86,220.1,424.09,220.28,424.53z"/>
				</g>
				<g>
					<path style="fill:#0B0B0B;" d="M219.03,423.66c0,0.23-0.06,0.32-0.01,0.71c0.04,0.29,0.09,0.49,0.16,0.78
						c0.07,0.25,0.26,0.66,0.54,0.74c0.08,0.03,0.4,0.12,0.46,0.02c0.11-0.18-0.21-0.26-0.36-0.33
						C219.27,425.35,219.16,424.17,219.03,423.66z"/>
				</g>
			</g>
		</g>
		<g>
			<g style="opacity:0.49;">
				<path style="fill:#321614;" d="M234.08,412.91c-0.21,0.04-0.44,0.31-0.58,0.6c-0.12,0.24-0.14,0.44,0.09,0.84
					c0.36,0.62,2.62,3.22,3.56,1.07C237.97,413.55,235.86,412.62,234.08,412.91z"/>
			</g>
			<g>
				<path style="fill:#2B2928;" d="M233.43,413.33c-0.12,0.25-0.14,0.44,0.09,0.85c0.36,0.62,2.43,2.45,3.15,0.99
					c0.84-1.69-1.37-2.3-2.6-2.26C233.86,412.92,233.57,413.04,233.43,413.33z"/>
				<g>
					<path style="fill:#6C6C6C;" d="M233.93,413.06c0.58,0.28,1.07,0.26,1.6,0.56c0.51,0.29,1,0.8,1.12,0.67
						c0.21-0.21-0.57-0.71-0.69-0.78C235.25,413.17,234.7,413.18,233.93,413.06z"/>
				</g>
				<g>
					<path style="fill:#0B0B0B;" d="M235.88,415.12c-0.76,0.24-1.8-0.89-2.33-1.3c0.18,0.24,0.19,0.39,0.55,0.75
						c0.26,0.27,0.48,0.43,0.77,0.67c0.26,0.19,0.78,0.45,1.14,0.29c0.11-0.05,0.51-0.23,0.5-0.39
						C236.49,414.86,236.09,415.05,235.88,415.12z"/>
				</g>
			</g>
		</g>
		<g>
			<g style="opacity:0.49;">
				<path style="fill:#321614;" d="M237.5,410.91c-0.2,0.09-0.35,0.42-0.42,0.74c-0.06,0.27-0.03,0.46,0.29,0.79
					c0.5,0.5,3.31,2.4,3.7,0.06C241.42,410.46,239.16,410.13,237.5,410.91z"/>
			</g>
			<g>
				<path style="fill:#2B2928;" d="M237.5,410.91c-0.21,0.07-0.45,0.26-0.52,0.58c-0.06,0.27-0.03,0.46,0.29,0.79
					c0.5,0.5,2.93,1.71,3.28,0.11C240.96,410.51,238.67,410.53,237.5,410.91z"/>
				<g>
					<path style="fill:#6C6C6C;" d="M237.39,411.08c0.63,0.12,1.1-0.04,1.68,0.1c0.57,0.14,1.16,0.5,1.25,0.34
						c0.15-0.27-0.73-0.53-0.86-0.56C238.69,410.83,238.16,410.99,237.39,411.08z"/>
				</g>
				<g>
					<path style="fill:#0B0B0B;" d="M239.77,412.55c-0.67,0.44-1.95-0.37-2.56-0.62c0.23,0.19,0.28,0.32,0.71,0.58
						c0.32,0.18,0.57,0.28,0.91,0.43c0.3,0.12,0.87,0.23,1.17-0.03c0.09-0.08,0.44-0.36,0.39-0.51
						C240.3,412.13,239.96,412.42,239.77,412.55z"/>
				</g>
			</g>
		</g>
		<g>
			<g style="opacity:0.49;">
				<path style="fill:#321614;" d="M237.32,406.57c-0.16,0.08-0.29,0.35-0.34,0.61c-0.05,0.22-0.03,0.38,0.24,0.65
					c0.41,0.41,2.71,1.96,3.03,0.05C240.53,406.21,238.68,405.94,237.32,406.57z"/>
			</g>
			<g>
				<path style="fill:#2B2928;" d="M237.32,406.57c-0.17,0.06-0.37,0.21-0.42,0.47c-0.05,0.22-0.03,0.38,0.24,0.65
					c0.41,0.41,2.4,1.4,2.69,0.08C240.16,406.26,238.28,406.27,237.32,406.57z"/>
				<g>
					<path style="fill:#6C6C6C;" d="M237.23,406.72c0.51,0.1,0.9-0.04,1.38,0.08c0.46,0.12,0.95,0.41,1.02,0.28
						c0.13-0.22-0.59-0.43-0.7-0.46C238.3,406.52,237.86,406.65,237.23,406.72z"/>
				</g>
				<g>
					<path style="fill:#0B0B0B;" d="M239.18,407.92c-0.55,0.36-1.6-0.3-2.1-0.51c0.19,0.15,0.23,0.26,0.59,0.47
						c0.26,0.15,0.46,0.23,0.74,0.35c0.25,0.1,0.71,0.18,0.96-0.02c0.07-0.07,0.36-0.3,0.32-0.42
						C239.61,407.58,239.34,407.82,239.18,407.92z"/>
				</g>
			</g>
		</g>
		<g>
			<g style="opacity:0.49;">
				<path style="fill:#321614;" d="M196.51,413.48c0.01,2.38,2.62,2.24,4.34,1c0.21-0.15,0.31-0.55,0.32-0.93
					c0.01-0.32-0.05-0.53-0.48-0.83C200.03,412.28,196.5,410.77,196.51,413.48z"/>
			</g>
			<g>
				<path style="fill:#2B2928;" d="M197.12,413.51c-0.1,2.19,2.47,1.66,3.73,0.98c0.22-0.12,0.46-0.39,0.47-0.77
					c0.01-0.32-0.05-0.53-0.48-0.83C200.18,412.44,197.2,411.62,197.12,413.51z"/>
				<g>
					<path style="fill:#6C6C6C;" d="M197.54,414.41c-0.12,0.34,0.92,0.44,1.07,0.44c0.9-0.02,1.47-0.31,2.32-0.59
						c-0.73,0.01-1.23,0.29-1.91,0.26C198.35,414.49,197.61,414.21,197.54,414.41z"/>
				</g>
				<g>
					<path style="fill:#0B0B0B;" d="M197.64,412.78c-0.09,0.11-0.42,0.5-0.34,0.67c0.16,0.28,0.48-0.13,0.67-0.31
						c0.67-0.65,2.27-0.02,3.01,0.13c-0.3-0.16-0.38-0.3-0.92-0.49c-0.39-0.14-0.69-0.2-1.11-0.29
						C198.59,412.43,197.93,412.43,197.64,412.78z"/>
				</g>
			</g>
		</g>
		<g>
			<g style="opacity:0.49;">
				<path style="fill:#321614;" d="M236.66,388.22c-0.04,0.26,0.15,0.62,0.4,0.9c0.2,0.23,0.39,0.33,0.89,0.21
					c0.76-0.18,4.24-1.82,2.42-3.71C238.76,383.96,237.03,386.05,236.66,388.22z"/>
			</g>
			<g>
				<path style="fill:#2B2928;" d="M236.66,388.22c-0.07,0.25-0.06,0.63,0.18,0.9c0.2,0.23,0.39,0.33,0.89,0.21
					c0.76-0.19,3.39-1.89,2.18-3.27C238.53,384.46,237.08,386.79,236.66,388.22z"/>
				<g>
					<path style="fill:#6C6C6C;" d="M237.98,386.26c-0.61,0.7-0.82,1.34-1.22,2.18c0.5-0.56,0.66-1.14,1.17-1.64
						c0.49-0.48,1.18-0.85,1.1-1.04C238.88,385.43,238.09,386.15,237.98,386.26z"/>
				</g>
				<g>
					<path style="fill:#0B0B0B;" d="M239.58,386.96c-0.03,0.97-1.57,1.75-2.19,2.21c0.32-0.12,0.47-0.08,0.97-0.35
						c0.37-0.2,0.62-0.39,0.97-0.64c0.3-0.23,0.76-0.74,0.72-1.21c-0.01-0.15-0.04-0.67-0.21-0.73
						C239.54,386.16,239.59,386.69,239.58,386.96z"/>
				</g>
			</g>
		</g>
		<g>
			<g style="opacity:0.49;">
				<path style="fill:#321614;" d="M238.31,392.66c-0.04,0.21,0.12,0.51,0.32,0.74c0.17,0.19,0.32,0.27,0.73,0.17
					c0.63-0.15,3.49-1.5,1.99-3.06C240.04,389.15,238.62,390.87,238.31,392.66z"/>
			</g>
			<g>
				<path style="fill:#2B2928;" d="M238.31,392.66c-0.06,0.21-0.05,0.51,0.15,0.74c0.17,0.19,0.32,0.27,0.73,0.17
					c0.63-0.15,2.79-1.55,1.8-2.69C239.85,389.56,238.66,391.48,238.31,392.66z"/>
				<g>
					<path style="fill:#6C6C6C;" d="M238.39,392.84c0.41-0.46,0.54-0.94,0.96-1.35c0.4-0.4,0.97-0.7,0.91-0.86
						c-0.12-0.27-0.77,0.33-0.86,0.42C238.89,391.63,238.72,392.15,238.39,392.84z"/>
				</g>
				<g>
					<path style="fill:#0B0B0B;" d="M240.71,391.62c-0.03,0.8-1.29,1.44-1.8,1.82c0.26-0.1,0.38-0.07,0.8-0.29
						c0.3-0.16,0.51-0.32,0.8-0.53c0.24-0.19,0.62-0.61,0.6-0.99c-0.01-0.12-0.04-0.55-0.17-0.6
						C240.68,390.96,240.72,391.4,240.71,391.62z"/>
				</g>
			</g>
		</g>
		<g>
			<g style="opacity:0.49;">
				<path style="fill:#321614;" d="M231.1,386.68c0.12,0.2,0.45,0.31,0.77,0.33c0.26,0.02,0.44-0.04,0.7-0.44
					c0.39-0.61,1.73-3.93-0.53-3.98C230.05,382.55,230.11,385.03,231.1,386.68z"/>
			</g>
			<g>
				<path style="fill:#2B2928;" d="M231.1,386.68c0.1,0.21,0.32,0.45,0.63,0.47c0.26,0.02,0.44-0.04,0.7-0.44
					c0.39-0.61,1.14-3.41-0.43-3.53C230.18,383.03,230.56,385.48,231.1,386.68z"/>
				<g>
					<path style="fill:#6C6C6C;" d="M231.24,383.55c-0.28-0.12-0.38,0.86-0.39,1.01c0,0.85,0.23,1.4,0.44,2.21
						c0.01-0.69-0.21-1.17-0.17-1.82C231.15,384.32,231.4,383.63,231.24,383.55z"/>
				</g>
				<g>
					<path style="fill:#0B0B0B;" d="M232.54,385.98c0.13-0.37,0.18-0.65,0.26-1.04c0.06-0.34,0.07-0.97-0.21-1.25
						c-0.09-0.09-0.41-0.41-0.55-0.34c-0.24,0.14,0.09,0.46,0.24,0.64c0.53,0.65-0.03,2.15-0.18,2.85
						C232.25,386.55,232.37,386.48,232.54,385.98z"/>
				</g>
			</g>
		</g>
		<g>
			<g style="opacity:0.49;">
				<path style="fill:#321614;" d="M234.15,382.63c0.06,0.19,0.32,0.36,0.58,0.44c0.21,0.07,0.37,0.07,0.67-0.21
					c0.45-0.43,2.2-2.9,0.33-3.44C234.07,378.95,233.64,381.04,234.15,382.63z"/>
			</g>
			<g>
				<path style="fill:#2B2928;" d="M234.15,382.63c0.04,0.2,0.18,0.44,0.44,0.53c0.22,0.07,0.38,0.06,0.67-0.22
					c0.45-0.42,1.61-2.6,0.33-3.04C234.09,379.38,233.93,381.51,234.15,382.63z"/>
				<g>
					<path style="fill:#6C6C6C;" d="M234.35,380.8c-0.17,0.71-0.08,1.22-0.06,1.94c0.14-0.57,0.05-1.03,0.21-1.56
						c0.16-0.52,0.5-1.03,0.37-1.13C234.66,379.89,234.38,380.69,234.35,380.8z"/>
				</g>
				<g>
					<path style="fill:#0B0B0B;" d="M235.49,382.36c0.18-0.28,0.28-0.51,0.42-0.81c0.12-0.27,0.25-0.79,0.07-1.09
						c-0.06-0.09-0.26-0.43-0.39-0.4c-0.23,0.07-0.01,0.4,0.08,0.59c0.31,0.66-0.44,1.79-0.7,2.34
						C235.13,382.77,235.25,382.74,235.49,382.36z"/>
				</g>
			</g>
		</g>
		<g>
			<g style="opacity:0.49;">
				<path style="fill:#321614;" d="M227.62,379.74c-1.95,0.39-1.42,2.8-0.12,4.2c0.16,0.17,0.5,0.2,0.81,0.15
					c0.26-0.04,0.43-0.14,0.6-0.58C229.17,382.83,229.84,379.29,227.62,379.74z"/>
			</g>
			<g>
				<path style="fill:#2B2928;" d="M227.7,380.31c-1.81,0.26-0.96,2.58-0.2,3.63c0.13,0.19,0.4,0.37,0.7,0.32
					c0.26-0.04,0.42-0.13,0.6-0.58C229.06,382.99,229.25,380.09,227.7,380.31z"/>
				<g>
					<path style="fill:#6C6C6C;" d="M227.03,380.85c-0.3-0.06-0.21,0.93-0.19,1.07c0.16,0.83,0.49,1.32,0.86,2.06
						c-0.12-0.68-0.44-1.1-0.52-1.74C227.09,381.62,227.2,380.89,227.03,380.85z"/>
				</g>
				<g>
					<path style="fill:#0B0B0B;" d="M228.77,382.94c0.05-0.39,0.05-0.68,0.06-1.08c0-0.35-0.11-0.96-0.45-1.18
						c-0.11-0.07-0.48-0.31-0.6-0.21c-0.21,0.19,0.18,0.43,0.36,0.57c0.64,0.52,0.39,2.11,0.38,2.83
						C228.59,383.56,228.69,383.47,228.77,382.94z"/>
				</g>
			</g>
		</g>
		<g>
			<g style="opacity:0.49;">
				<path style="fill:#321614;" d="M223.76,383.4c-1.72,1.05-0.47,3.14,1.18,4.02c0.2,0.1,0.54,0.01,0.81-0.14
					c0.23-0.13,0.36-0.28,0.39-0.76C226.18,385.78,225.72,382.2,223.76,383.4z"/>
			</g>
			<g>
				<path style="fill:#2B2928;" d="M224.01,383.92c-1.63,0.88-0.12,2.77,0.93,3.5c0.18,0.13,0.49,0.21,0.76,0.05
					c0.23-0.13,0.36-0.28,0.39-0.76C226.12,385.97,225.41,383.16,224.01,383.92z"/>
				<g>
					<path style="fill:#6C6C6C;" d="M223.54,384.66c-0.3,0.05,0.09,0.95,0.15,1.08c0.41,0.73,0.87,1.07,1.44,1.65
						c-0.33-0.6-0.75-0.89-1.03-1.47C223.84,385.36,223.72,384.64,223.54,384.66z"/>
				</g>
				<g>
					<path style="fill:#0B0B0B;" d="M225.82,386.02c-0.07-0.39-0.16-0.66-0.28-1.04c-0.11-0.33-0.41-0.87-0.79-0.96
						c-0.12-0.03-0.55-0.13-0.63,0.01c-0.14,0.25,0.3,0.34,0.51,0.42c0.77,0.27,1.01,1.86,1.23,2.54
						C225.85,386.67,225.92,386.55,225.82,386.02z"/>
				</g>
			</g>
		</g>
		<g>
			<g style="opacity:0.49;">
				<path style="fill:#321614;" d="M218.47,384.55c-1.73,0.48-1.11,2.62,0.13,3.8c0.15,0.14,0.46,0.15,0.74,0.09
					c0.23-0.05,0.37-0.15,0.51-0.57C220.05,387.24,220.45,384.01,218.47,384.55z"/>
			</g>
			<g>
				<path style="fill:#2B2928;" d="M218.58,385.06c-1.61,0.35-0.72,2.38,0.03,3.29c0.13,0.16,0.38,0.3,0.65,0.24
					c0.23-0.05,0.38-0.15,0.51-0.56C219.96,387.39,219.97,384.76,218.58,385.06z"/>
				<g>
					<path style="fill:#6C6C6C;" d="M218,385.6c-0.27-0.03-0.13,0.85-0.11,0.98c0.2,0.74,0.52,1.16,0.89,1.8
						c-0.15-0.6-0.46-0.96-0.57-1.54C218.11,386.28,218.16,385.62,218,385.6z"/>
				</g>
				<g>
					<path style="fill:#0B0B0B;" d="M219.21,385.35c-0.1-0.05-0.45-0.25-0.55-0.15c-0.17,0.19,0.19,0.37,0.36,0.49
						c0.61,0.43,0.47,1.88,0.5,2.52c0.06-0.28,0.15-0.37,0.18-0.86c0.03-0.36,0.01-0.61-0.01-0.98
						C219.65,386.07,219.52,385.53,219.21,385.35z"/>
				</g>
			</g>
		</g>
		<g>
			<g style="opacity:0.49;">
				<path style="fill:#321614;" d="M213.61,383.09c-1.78,0.94-0.65,3.11,0.95,4.08c0.19,0.12,0.54,0.05,0.82-0.09
					c0.24-0.12,0.37-0.25,0.43-0.74C215.9,385.62,215.64,382.02,213.61,383.09z"/>
			</g>
			<g>
				<path style="fill:#2B2928;" d="M213.84,383.62c-1.67,0.78-0.27,2.76,0.73,3.56c0.18,0.14,0.48,0.24,0.76,0.1
					c0.24-0.12,0.37-0.25,0.43-0.74C215.83,385.8,215.28,382.96,213.84,383.62z"/>
				<g>
					<path style="fill:#6C6C6C;" d="M213.33,384.34c-0.3,0.03,0.04,0.96,0.09,1.08c0.37,0.76,0.81,1.13,1.35,1.74
						c-0.29-0.61-0.7-0.93-0.95-1.53C213.59,385.05,213.51,384.32,213.33,384.34z"/>
				</g>
				<g>
					<path style="fill:#0B0B0B;" d="M214.58,383.78c-0.12-0.03-0.54-0.16-0.63-0.03c-0.15,0.25,0.28,0.36,0.49,0.45
						c0.75,0.32,0.91,1.92,1.08,2.61c0-0.32,0.08-0.44,0.01-0.97c-0.05-0.39-0.12-0.67-0.22-1.06
						C215.22,384.45,214.96,383.89,214.58,383.78z"/>
				</g>
			</g>
		</g>
		<g>
			<g style="opacity:0.49;">
				<path style="fill:#321614;" d="M210.83,387.74c-1.39,1.51,0.35,3.16,2.16,3.52c0.22,0.04,0.52-0.14,0.75-0.37
					c0.19-0.19,0.27-0.37,0.18-0.84C213.76,389.32,212.41,386.02,210.83,387.74z"/>
			</g>
			<g>
				<path style="fill:#2B2928;" d="M211.2,388.16c-1.34,1.32,0.59,2.7,1.78,3.1c0.21,0.07,0.52,0.06,0.75-0.17
					c0.19-0.19,0.28-0.37,0.18-0.84C213.76,389.52,212.36,387.03,211.2,388.16z"/>
				<g>
					<path style="fill:#6C6C6C;" d="M210.94,389.01c-0.27,0.13,0.33,0.89,0.42,0.99c0.58,0.58,1.11,0.78,1.81,1.17
						c-0.47-0.48-0.95-0.63-1.36-1.11C211.41,389.6,211.11,388.94,210.94,389.01z"/>
				</g>
				<g>
					<path style="fill:#0B0B0B;" d="M211.95,388.05c-0.12,0.01-0.56,0.04-0.6,0.19c-0.06,0.28,0.38,0.24,0.6,0.25
						c0.81,0.04,1.45,1.5,1.83,2.09c-0.1-0.3-0.06-0.44-0.29-0.92c-0.17-0.35-0.33-0.58-0.53-0.92
						C212.77,388.46,212.34,388.02,211.95,388.05z"/>
				</g>
			</g>
		</g>
		<g>
			<g style="opacity:0.49;">
				<path style="fill:#321614;" d="M228.53,387.61c-1.4,0.23-1.07,1.96-0.18,2.99c0.11,0.12,0.35,0.15,0.57,0.13
					c0.19-0.02,0.31-0.08,0.44-0.4C229.57,389.85,230.12,387.35,228.53,387.61z"/>
			</g>
			<g>
				<path style="fill:#2B2928;" d="M228.35,390.6c0.09,0.14,0.27,0.27,0.49,0.24c0.19-0.02,0.31-0.09,0.44-0.4
					c0.2-0.48,0.4-2.54-0.71-2.42C227.28,388.17,227.83,389.83,228.35,390.6z"/>
				<g>
					<path style="fill:#6C6C6C;" d="M228.08,388.39c-0.21-0.05-0.17,0.66-0.16,0.76c0.1,0.6,0.32,0.95,0.57,1.49
						c-0.07-0.48-0.29-0.79-0.33-1.25C228.11,388.93,228.21,388.42,228.08,388.39z"/>
				</g>
				<g>
					<path style="fill:#0B0B0B;" d="M229.28,389.92c0.05-0.28,0.05-0.48,0.06-0.77c0-0.25-0.06-0.69-0.3-0.85
						c-0.07-0.05-0.34-0.23-0.42-0.16c-0.15,0.13,0.12,0.31,0.24,0.42c0.45,0.39,0.23,1.51,0.21,2.02
						C229.14,390.36,229.22,390.29,229.28,389.92z"/>
				</g>
			</g>
		</g>
		<g style="opacity:0.27;">
			<path style="fill:#A4C154;" d="M190.5,393.17c2.93-4.38,6.01-11.26,6.72-14.79c-3.21,3.29-5.08,10.09-8.14,14.27
				c-3.42,4.66-3.42,11.28-3.81,15.74c-0.53,5.36,1.06,9.87,2.11,14.94c0.26,1.13,0.26,2.82,0.79,3.66
				c0.79,1.41,2.12,1.69,2.64,2.82c1.32,1.69,1.89,3.92,3.4,5.73c0.43,0.52,0.69,0.85,1.27,0.85c0.79-4.51-4.86-7.65-6.18-11.6
				c-1.59-4.23-2.59-11.68-2.32-16.76C187.25,403.13,187.98,396.94,190.5,393.17z"/>
		</g>
		<g style="opacity:0.27;">
			<path style="fill:#A4C154;" d="M235.35,431.63c0.01-0.01,0.02-0.02,0.03-0.02C235.33,431.63,235.33,431.64,235.35,431.63z"/>
		</g>
		<g style="opacity:0.27;">
			<path style="fill:#A4C154;" d="M259.68,407.34c-1.55,1.29-1.89,2.21-2.93,3.86c-0.52,0.92-1.21,2.02-2.07,2.57
				c-0.52,0.55-1.55,0.18-1.9,0.55c-1.55,1.29-1.55,3.49-2.93,4.96c-0.52,0.55-3.27,1.47-4.31,2.21c-1.21,0.73-3.94,1.43-5.15,2.35
				c-1.21,1.1-2.45,3.74-3.82,4.66c-1.38,0.73-4.54,1.27-5.92,2.37c-3.1,2.39-2.08,3.31-5.7,4.41c-1.5,0.56-3.91-0.43-5.38,0.23
				c-1.92,0.86-3.86,1.72-5.91,2.35c-2.06,0.58-4.3,0.89-6.55,0.88c-4.13-0.02-8.31-1.14-11.54-3.64v0.18
				c-0.51,2.39,2.76,3.68,4.65,4.23c2.41,0.92,4.48,1.65,7.07,1.65c0.69,0,1.21,0.73,1.9,0.55c0.86-0.18,1.38-1.1,2.07-1.29
				c1.9-0.55,2.07,0.18,3.79,0.37c-0.17,0,1.9-0.74,2.07-0.74c0.35,0,1.38,0.37,1.9,0.18c1.55-0.18,2.93-2.02,4.31-2.57
				c0.17,0.74,0.86,1.47,0.86,2.21c3.62-1.84,3.62-8.09,8.62-4.23c1.2-1.64,1.38-3.1,2.56-4.02c-0.02,0.01-0.02,0,0.03-0.02
				c-0.01,0.01-0.02,0.02-0.03,0.02c0.15-0.05,1.77-0.76,1.92-0.76c0.52-0.37,1.21-1.47,1.9-1.84c0.34-0.18,1.55,0.18,2.07,0
				c-0.17,0,1.73-1.84,1.55-1.66c0.34-0.37,0.86-0.92,1.21-1.29c0-0.18,0-2.02,0-2.39c0.69,0.18,2.07,1.47,2.76,1.29
				c0.86-0.37,0.34-1.47,1.03-2.02c1.38-1.29,2.07-0.55,3.79-1.29c2.76-1.1,0.86-1.84,1.55-4.04c0.52-2.57,2.24-0.92,3.62-2.57
				c0.52-0.73-0.52-1.84,0.17-2.57c0.52-0.74,1.21-0.55,1.9-1.1c0.69-0.37,1.38-0.18,2.07-0.73c0.34-0.37-0.17-1.65,0.34-2.21
				c0.52-0.55,1.9,0.18,2.24-0.37c0.69-0.92,0-1.66,0-2.58c0-2.02-0.69-3.31,2.41-3.49c0-0.55-0.34-1.65-0.69-2.21
				c-1.38,1.1-1.03,3.49-2.93,3.68c0,0.73,0,2.21-0.52,2.76C260.89,407.34,260.37,406.79,259.68,407.34z"/>
		</g>
		<g style="opacity:0.4;">
			<path style="fill:#DBE797;" d="M212.11,438.96l0.17,0.55c0.02-0.06,0.04-0.12,0.05-0.18
				C212.21,439.07,212.11,438.89,212.11,438.96z"/>
		</g>
		<g style="opacity:0.4;">
			<path style="fill:#DBE797;" d="M228.48,434.49c-0.17,0.19-1.26,1.19-1.43,1.38c-1.03-0.74-1.15-1.31-1.5-2.6
				c-0.86,0.92-1.55,2.21-2.59,3.13c-0.86-1.1-1.9-0.55-2.76,0.55c-0.17-0.18-0.34-0.37-0.51-0.55c-0.17,0.55-1.03,1.29-1.21,1.84
				c-0.17-0.18-0.69-0.37-1.03-0.55c-1.53,1.99-3.89-2.44-5.12,1.66c0.2,0.43,0.46,1.12,0.46,1.47c0.34-0.37,1.21-0.74,1.55-1.29
				c0.17,0.37,0.69,0.73,0.86,1.29c1.21-2.02,3.1-1.47,3.62,0.55c0.86-0.55,1.38-1.47,1.72-2.57c0.17,0.18,0.17,0.37,0.35,0.55
				c0.17-0.74,0.86-1.47,1.03-2.02c1.55,1.1,2.46,2.02,3.45,0.73c1.67-2.18,4.89-0.86,4.72-3.53
				C229.92,433.96,228.82,435.04,228.48,434.49z"/>
		</g>
		<g style="opacity:0.4;">
			<path style="fill:#DBE797;" d="M206.08,439.15c-0.17-0.37-0.35-0.55-0.35-0.92c-1.72,1.65-4.14-2.39-4.48,0.55v0.37
				c0,0,0,0.55,0.52,0.92c0.17-0.19,0.69-0.55,1.03-0.55c0.17,0.55,0.86,1.47,1.04,2.02c1.55-0.74,3.45-0.18,5-1.29
				c-0.52-0.92-1.03-1.65-1.55-2.39C206.94,438.6,206.42,438.6,206.08,439.15z"/>
		</g>
		<g style="opacity:0.4;">
			<path style="fill:#DBE797;" d="M251.41,422.97c0.69-0.74-0.34-5.33,2.07-2.58c-1.03-1.65-3.1-1.47-4.65-2.02
				c0.17,3.31-1.72,1.47-1.9,1.65c-1.21,0.55-1.72,1.47-2.93,2.57c-0.17-0.18-0.17-0.55-0.34-0.74c-0.17,1.29-0.52,2.94-1.9,2.76
				c-0.17,0.92-0.86,1.66-1.03,2.39c-0.35-0.55-1.21-0.92-1.73-1.47c-0.52,0.92-0.69,2.02-0.34,2.94l0.17-0.18
				c0.52-0.74,1.38,0.37,2.59,0c1.21-0.19,2.07-2.39,3.27-1.11c0.17-1.29,0.69-2.21,1.9-2.21
				C246.41,421.68,250.03,424.25,251.41,422.97z"/>
		</g>
		<g style="opacity:0.4;">
			<path style="fill:#DBE797;" d="M259.51,406.42c-0.86,1.66,0.86,3.31-2.76,3.13c0.52,0.55,1.04,1.47,1.72,2.02h-0.17
				c0.86,0.37,2.07,0.18,3.1-0.37c-0.86-1.29-0.17-2.39,1.21-2.76c-1.72-2.57,0.17-2.39,1.03-3.86c1.03-1.47,0.86-2.39,1.38-4.41
				c-0.17-0.18-0.52-0.18-0.69-0.37c0.34,1.29-0.35,2.39-1.55,2.57C264.16,405.31,260.2,404.95,259.51,406.42z"/>
		</g>
		<g style="opacity:0.27;">
			<path style="fill:#A4C154;" d="M203.84,442.46h0.17l-2.41-1.47c0.44,0.7,1.39,1.26,2.5,1.71
				C203.95,442.6,203.85,442.52,203.84,442.46z"/>
		</g>
		<g style="opacity:0.27;">
			<path style="fill:#A4C154;" d="M260.2,417.82c-1.21,2.76-2.07,1.47-3.96,3.13c-1.21,0.92-1.38,3.86-2.76,4.96
				c-0.86,0.55-1.9,0.37-2.59,0.92c-0.69,0.55-1.03,1.65-1.72,2.02c-1.72,1.1-3.79-0.18-5.17,1.1c-1.38,1.1-0.52,3.49-2.24,4.78
				c-1.38,1.1-3.96,1.29-5.52,2.39c-1.73,1.29-3.45,2.02-5.34,2.76c-3.79,1.29-7.41,2.58-11.03,4.05c-3.27,1.29-7.93,0.73-11.38,0
				c-1.1-0.21-2.88-0.61-4.4-1.23c1.22,0.84,6.4,2.93,7.33,3.25c2.93,0.55,6.72,0.55,9.65,0.73c2.41,0.18,2.93-1.1,4.83-1.84
				c1.72-0.74,3.79,0,5.51-0.55c2.41-0.73,3.45-3.12,5.52-4.04c1.9-0.73,4.65,0.55,5.86-0.18c1.21-0.55,2.24-3.5,3.45-4.6
				c1.73-1.47,2.93-1.1,4.65-2.02c2.24-1.1,1.38-3.12,3.1-4.78c1.72-1.65,3.1-1.65,4.48-3.49c2.07-3.13,4.48-5.15,5.51-9.19
				c0.52-2.02,0.35-3.49,1.21-5.52c0.69-1.84,1.55-3.68,2.24-5.7c-0.69,1.84-2.07,2.94-3.1,4.41c-0.86,1.47-0.86,3.68-1.72,4.96
				c-0.52,0.55-1.9,0.92-2.07,1.1C260.2,415.98,260.54,417.08,260.2,417.82z"/>
		</g>
		<g style="opacity:0.27;">
			<path style="fill:#A4C154;" d="M252.1,436.76c-1.21,0.92-1.21,2.02-2.07,2.94c-0.86,0.74-2.07,1.1-3.1,1.65
				c-1.03,0.73-1.38,1.47-2.76,1.84c-1.38,0.37-2.58,0.74-3.79,1.1c-0.34,0.18-0.69,0.74-1.21,0.74c-0.35,0.18-1.04-0.37-1.55-0.18
				c-1.03,0.18-2.93,2.02-3.79,0.92c-2.03,0.46-3.57,1.97-5.35,2.76c16.86-1.18,29.88-10.89,35.66-25.33
				c-0.78,0.52-1.72,0.88-2.57,1.79c-1.9,1.84-3.1,7.72-6.03,7.35c0.17,0.92,0.35,2.21,0.17,3.31
				C254.34,435.29,253.13,436.02,252.1,436.76z"/>
		</g>
		<g style="opacity:0.4;">
			<path style="fill:#DBE797;" d="M209.87,444.17c0.03-0.03,0.07-0.07,0.12-0.11l-0.01-0.01L209.87,444.17z"/>
		</g>
		<g style="opacity:0.4;">
			<path style="fill:#DBE797;" d="M238.59,436.94c-0.46,0-2.3,0-2.53,0.12c-1.03,0.61-0.8,1.47-1.15,2.45
				c-0.23-0.37-3.68-1.47-4.25-1.35c-1.15,0.49-0.58,3.8-1.95,3.06c-0.8,0.86-1.72,0.37-2.64,0.49c-1.15,0.12-1.72,0.98-2.64,1.23
				c-1.84,0.61-0.58,0-2.07-0.74c-1.15-0.61-1.72-0.12-2.41,0.61c-0.57,0.61-0.35,1.96-1.61,2.08c-0.81,0-0.81-0.86-1.15-0.86
				c-0.46,0-1.26,0.49-1.49,0.37c-0.69-0.12-0.58-0.25-1.15-0.49c-0.23-0.12-0.11-0.98-0.57-1.1c-0.64-0.34-2.38,0.7-2.98,1.24
				c0.12,1.82,2.53,0.36,2.98,2.19c1.38-0.86,2.64,1.96,3.79-0.37c2.07,1.72,1.72-0.12,3.56-0.49c1.26-0.24,2.76,1.84,3.91,1.47
				c0.81-0.25,0.81-1.47,1.38-2.08c1.15-0.98,0.46-0.37,1.72-0.24c1.03,0.24,0.46,0.86,1.61,0.37c0.57-0.25,0.92-1.35,1.61-1.72
				c1.49,1.59,4.83,0,4.71-2.21c1.03,0,2.18,0.25,3.22-0.12c-0.23-2.08,0.69-2.21,2.41-2.08c-0.21-0.77-0.23-1.34-0.11-1.77
				C240.12,437.07,239.33,436.94,238.59,436.94z"/>
		</g>
		<g style="opacity:0.4;">
			<path style="fill:#DBE797;" d="M242.2,435.8c-0.71,0.19-1.24,0.52-1.43,1.2C241.47,436.94,242.02,436.66,242.2,435.8z"/>
		</g>
		<g style="opacity:0.4;">
			<path style="fill:#DBE797;" d="M244.45,432.65c-0.11,0.98-1.15,3.07-2.18,2.21c0.02,0.38-0.01,0.69-0.07,0.95
				c1.54-0.42,3.87-0.21,5.12-1.68C246.29,433.75,245.26,433.75,244.45,432.65z"/>
		</g>
		<g style="opacity:0.4;">
			<path style="fill:#DBE797;" d="M259.74,417.7c0.23,0.25,0.35,0.61,0.46,0.73c-0.8,0.12-1.61-0.12-2.41,0.12
				c-1.38,0.49-0.57,0.74-1.15,1.96c-0.81,1.72-1.84,2.57-3.33,3.68c-1.26,0.98-1.84,2.57-2.41,3.68c-0.46,0.74-0.92,0-0.92,1.35
				c0,0.37,0.23,0.86,0.46,1.23l-0.12,0.37c1.38-0.86,2.53-1.96,4.02-2.33c-1.61-2.08,1.38-0.98,2.07-1.35c0,0,1.72-2.94,1.72-3.06
				c0.46-1.35-0.69-2.09,0.92-3.19c0.92-0.61,2.41-0.24,3.45-0.73c-1.61-1.47,0.23-2.21,0.57-3.55c0.57-1.84-0.69-1.72-1.15-3.31
				C259.85,414.14,263.07,418.92,259.74,417.7z"/>
		</g>
		<g style="opacity:0.4;">
			<path style="fill:#DBE797;" d="M238.71,429.95c-0.58-1.1-1.03-0.12-1.72-0.61s-0.8-1.35-1.61-1.84c-0.23,1.1-1.26,2.82-2.3,1.47
				c-0.34,0.74-0.8,1.23-1.61,0.98c0,0.98-0.12,2.08-0.46,2.94l-0.11,0.24c0.69-0.49,1.49-0.24,2.41-0.49
				c1.26-0.24,1.72-0.86,3.33,0C234.8,430.44,236.87,429.95,238.71,429.95z"/>
		</g>
		<g style="opacity:0.4;">
			<path style="fill:#DBE797;" d="M256.98,414.51c0.23-0.86-1.03-1.72-1.5-2.45c-0.34,0.61-0.8,0.74-1.26,1.1
				c0.12-0.12,0.23-0.37,0.35-0.49c-1.26,0.74-2.41,1.1-1.61,2.82v0.12c0.12,0,1.03,0.98,1.84,0.98c-0.23-0.37-0.12-1.1-0.23-1.35
				C255.37,415.61,256.64,415.73,256.98,414.51z"/>
		</g>
		<g style="opacity:0.4;">
			<path style="fill:#DBE797;" d="M246.93,441.35c0.46-0.25,2.01-0.12,2.47-0.49c0.81-0.61,0.46-2.82,1.15-3.55
				c0.92-0.98,3.78-0.29,4.25-1.59c0.89-2.45,5.62-3.68,3.22-6.13c-0.23,0.98-0.57,2.08-1.38,2.33c-0.35,0-1.15-0.98-2.07-0.49
				c-1.73,0.86-0.23,0.98-0.58,2.33c-0.23,0.98-0.8,1.47-1.84,0.37c0,2.7-1.61,0.98-2.87,0.73c0,1.1,0.23,4.78-1.61,4.05
				c0,0.86-0.23,1.35-0.92,0.86c-0.34,0.86-1.72,1.35-2.3,2.33c-0.8-0.61-1.72-1.23-2.76-0.98c0.23,1.96-0.69,1.23-1.72,1.59
				c-1.72,0.61-0.8,0.37-1.84,1.96c-1.15-0.73-1.72,1.47-2.76-0.37c-0.69,0.49-1.26,1.35-1.72,2.08v0.24
				c0.92,0.12,2.3,0.12,3.33-0.12c2.3-0.37,2.64-2.33,4.94-3.31c1.26-0.49,3.33,0.37,4.48-0.49
				C246.87,442.33,246.35,441.72,246.93,441.35z"/>
		</g>
		<g style="opacity:0.4;">
			<path style="fill:#DBE797;" d="M260.66,424.68c-0.23,0.61-0.35,1.35-0.12,1.96l0.12,0.12c0.34,0.25,0.57,0.37,1.15,0.25
				c-0.11-1.84,2.18-2.33,1.84-4.04C262.61,423.46,261.92,425.79,260.66,424.68z"/>
		</g>
		<g style="opacity:0.4;">
			<path style="fill:#DBE797;" d="M264.1,414.26c1.27-0.49,1.04-1.23,1.38-2.21c0.11-0.25-0.11-0.74-0.11-0.98
				c0.23-0.49,0.8-0.61,1.03-0.98c0.69-1.84,0.11-4.05,0.69-5.52l0.23-0.37c-0.57,0-1.38,0.12-1.61,0.73
				c-0.23,0.61,0.69,1.35,0.69,1.96c0,1.23-0.23,0.61-0.69,1.35c0,0.12-0.8,0.98-0.92,1.23c0.23-0.37-0.81,2.08-0.81,1.35
				C263.99,412.06,265.71,412.91,264.1,414.26z"/>
		</g>
		<g style="opacity:0.4;">
			<path style="fill:#DBE797;" d="M200.04,378.47c0-0.92-0.35-0.55-0.69-0.74l-0.52,0.55c0.17-0.18-0.69,0-0.86,0
				c-0.34,1.1-0.17,0.74-1.03,1.29c0,0.74-0.17,0.74-0.52,1.29c0,1.29-1.72,1.84-2.58,3.31c0.17,0.18,0.86,0.55,1.03,0.55
				l-0.17-0.55c1.55-0.55,2.24-2.94,3.62-2.94c0.17-0.73,0.17-0.55,0.52-1.1C198.32,378.84,198.84,378.29,200.04,378.47z"/>
		</g>
		<g style="opacity:0.4;">
			<path style="fill:#DBE797;" d="M188.49,393.55c0.69-1.29,2.24-0.55,1.72-2.57l-0.35,0.55c-1.9,0.92-2.41,3.31-2.93,5.52
				c-0.34,1.65-0.69,2.58-0.86,4.23c0,1.84,0.17,3.31-1.55,4.6c1.9,1.66,0.34,3.86,0.69,5.88c0.35,2.02,1.38,2.94,1.55,5.33
				c0.17-0.55-0.17-1.47,0-2.02c0,0,0.69-2.39,0.69-2.21c0-0.92,0.17-1.65-1.03-2.94c1.55-2.02,0.69-7.54,2.07-8.09
				c-1.03-2.39-0.17-4.05,0-5.88C188.49,395.75,188.49,393.91,188.49,393.55z"/>
		</g>
		<g style="opacity:0.4;">
			<path style="fill:#DBE797;" d="M187.12,422.25c0.37,2.61,4.66,13.4,8.27,12.66c-1.9-1.29-0.69-2.02-1.72-3.68
				c-0.86-1.47-4.48-3.49-3.79-5.7C187.53,425,188.92,422.57,187.12,422.25z"/>
		</g>
		<g style="opacity:0.47;">
			<path style="fill:#C2DB70;" d="M225.33,442.56c-0.02,0.02-0.04,0.04-0.05,0.05c-0.04,0.14-0.07,0.28-0.1,0.45L225.33,442.56z"/>
		</g>
		<g style="opacity:0.47;">
			<path style="fill:#C2DB70;" d="M234.39,441.89c1.41-0.5,0.78-0.33,1.72-1.17c0.94-0.67,3.12-1.83,2.34-2.83
				c-0.94,0.67-1.56,1.67-2.19,2.33c-0.16,0.17-0.47-0.67-0.47-0.67c0.31,2.17-1.09,0.17-2.03,0c-1.25-0.17-2.5,1-3.43,0
				c-0.31,0-1.09,0.33-1.41,0.5c0.15,3.18-2.83-0.31-3.65,2.55c0.02-0.02,0.04-0.04,0.05-0.05l-0.16,0.5
				c0.03-0.17,0.06-0.31,0.1-0.45c-0.62,0.64-1.53,1.13-2.29,1.78c0.78-0.67,1.72-0.67,2.34,0.16c1.09-1,2.5-0.83,3.75-0.83
				c0.16-1.17,0.78-1.66,1.56-0.67c0.62-0.33,0.94-0.33,1.72-0.5c0-0.33-0.15-0.67-0.15-1
				C232.99,441.39,233.92,442.06,234.39,441.89z"/>
		</g>
		<g style="opacity:0.47;">
			<path style="fill:#C2DB70;" d="M251.57,427.9c-0.03-0.15-0.05-0.29-0.06-0.44c-0.07,0.24-0.14,0.45-0.19,0.57L251.57,427.9z"/>
		</g>
		<g style="opacity:0.47;">
			<path style="fill:#C2DB70;" d="M251.32,428.03l-0.07,0.04C251.25,428.16,251.28,428.13,251.32,428.03z"/>
		</g>
		<g style="opacity:0.47;">
			<path style="fill:#C2DB70;" d="M258.91,421.9c-0.01,0.02-0.02,0.04-0.03,0.06c0.07,0.04,0.14,0.08,0.18,0.11L258.91,421.9z"/>
		</g>
		<g style="opacity:0.47;">
			<path style="fill:#C2DB70;" d="M258.88,421.96c-0.4-0.25-1.09-0.75-1.22-0.89c0.31,1.17-1.41,3.17-2.34,3.17
				c-1.41-0.17-1.09-2.5-3.12-1.17c0.62,1.17,1.09,2.67-0.47,2.83c-0.12,0.52-0.24,1.04-0.21,1.56c0.08-0.26,0.16-0.54,0.21-0.72
				C253.89,428.72,257.89,423.99,258.88,421.96z"/>
		</g>
		<g style="opacity:0.47;">
			<path style="fill:#C2DB70;" d="M244.07,425.07c-0.02-0.01-0.04-0.03-0.06-0.04c-0.03,0.01-0.07,0.02-0.1,0.04
				C243.92,425.24,244.07,425.24,244.07,425.07z"/>
		</g>
		<g style="opacity:0.47;">
			<path style="fill:#C2DB70;" d="M250.94,416.91c-0.16,2.17-1.87,0.17-2.97,1.5c0.31,1.33-0.31,1.67-1.41,1.33
				c0,1.17-0.47,2-1.72,1.17c0.29,0.77,0.44,1.54,0.46,2.31c0.07-0.1,0.12-0.2,0.16-0.31l-0.16,0.5c0-0.06-0.01-0.13-0.01-0.19
				c-0.43,0.64-1.34,1.02-2.02,1.02c0.15,0.31,0.43,0.62,0.73,0.79c0.76-0.29,1.66-0.3,2.55-0.46c-0.16-0.17-0.16-0.67-0.31-0.83
				c0.78-0.33,1.56-0.67,2.19-1.17c-0.16-1.17,0.47-1.66,1.56-1.66c-0.31-1.17,1.72-3,2.34-4.17
				C251.88,416.58,251.41,416.74,250.94,416.91z"/>
		</g>
		<g style="opacity:0.47;">
			<path style="fill:#C2DB70;" d="M245.48,422.9c-0.04,0.11-0.1,0.21-0.16,0.31c0,0.06,0.01,0.13,0.01,0.19L245.48,422.9z"/>
		</g>
		<g style="opacity:0.47;">
			<path style="fill:#C2DB70;" d="M214.56,438.56v-0.5l0,0C214.55,438.21,214.55,438.37,214.56,438.56z"/>
		</g>
		<g style="opacity:0.47;">
			<path style="fill:#C2DB70;" d="M222.52,436.23c-1.4-0.67-2.5,1.33-3.59,0.16c0,0.5-0.63,1.17-0.78,1.67
				c-0.16-0.17-0.31-0.5-0.47-0.83c-1.3,1.08-3.01-0.99-3.12,0.83l0,0v0.5c-0.01-0.19-0.01-0.36,0-0.5
				c-0.62,0.5-1.09,1.16-1.25,1.66c0.47,0,1.56-0.5,1.87-0.5c-0.16,0,1.87,0.5,1.72,0.5c1.56-0.17,2.65-0.67,4.22-1.17
				C220.65,437.4,221.59,436.4,222.52,436.23z"/>
		</g>
		<g style="opacity:0.47;">
			<path style="fill:#C2DB70;" d="M247.35,440.06c-0.05-0.15-0.09-0.29-0.12-0.41c-0.07,0.02-0.13,0.05-0.19,0.08L247.35,440.06z"/>
		</g>
		<g style="opacity:0.47;">
			<path style="fill:#C2DB70;" d="M253.91,434.57c-0.16-0.33-0.47-1-0.78-1.33c-0.31,0-0.94,0.33-1.09,0.5
				c0.16,1.33-0.94,2.5-1.87,2c-0.31,1.17-0.62,2-1.25,2.83c-0.44,0.47-2.1-0.66-1.68,1.09c0.62-0.21,1.45-0.02,2.15,0.58
				c0-0.17,0.47-0.33,0.47-0.33c0-1.17,2.65-3.33,4.06-3.83C252.5,435.4,252.66,433.73,253.91,434.57z"/>
		</g>
	</g>
	<g>
		<g>
			<path style="fill:#334520;" d="M302.07,302.82c-1.35,5.24-2.95,3.61-4.95,4.47l-0.46-0.25c0.23,1.47,2.23,3.24,2.68,4.96
				c2.58-2.63,2.45-4.13,3.38-7.47c0.81-2.9,2.29-2.46,3.58-3.38c0-0.49-0.46-1.23-0.69-1.72
				C304.27,300.27,302.5,301.15,302.07,302.82z"/>
		</g>
		<g>
			<path style="fill:#334520;" d="M299.77,309.7c0.02,0.25,0.04,0.49,0.05,0.75l-0.33-0.69
				C299.59,309.74,299.68,309.72,299.77,309.7c-2.16-29.74-43.87-22.68-56.1-8.26c-9.41,11.08-14.77,21.2-12.63,38.09
				c1.94,15.23,15.42,28.25,29.26,31.04c31.73,6.39,55.1-14.76,53.48-44.89C313.14,315.73,310.58,307.48,299.77,309.7z"/>
		</g>
		<g>
			<path style="fill:#334520;" d="M299.83,310.45c-0.01-0.25-0.04-0.5-0.05-0.75c-0.09,0.02-0.18,0.03-0.27,0.05L299.83,310.45z"/>
		</g>
		<g>
			<path style="fill:#F8EFD1;" d="M299.43,309.75c-0.91-18.41-16.25-22.5-31.28-20.22c-9.96,1.51-19.01,10.22-23.74,16.19
				c-7.85,9.9-10.89,21.21-8.41,35.89c1.46,8.65,4.97,14.08,11.06,16.84c2.86,1.29,11.18,0.81,19.05-1.8
				c15.44-5.11,31.71-20.32,41.36-31.63c2.93-3.43,5.39-7.28,4.02-10.2C309.52,310.63,305.94,308.32,299.43,309.75z"/>
		</g>
		<g>
			<path style="fill:#F05055;" d="M294.13,314.88l-0.46,0.25c-7.81,1.72-17.47,11.28-23.67,16.92c-6.9,6.37-17.01,16.18-20.22,25.5
				c6.66,0.25,10.11-1.47,15.63-4.66c5.51-2.94,10.8-4.41,15.86-9.07c7.35-6.37,17.24-12.99,22.98-21.08
				C312.06,311.94,301.26,312.68,294.13,314.88z"/>
		</g>
		<g>
			<path style="fill:#F05055;" d="M272.53,293.8c-10.11,0.49-20.45,7.6-26.66,15.94c-5.74,8.34-8.27,20.35-6.9,30.4
				c0.69,4.66,2.3,10.54,5.29,13.73c1.38,1.47,4.14,2.7,5.29,3.68v-0.24c0.69,0.49,4.14-3.68,5.74-5.15
				c7.81-7.6,14.94-15.69,23.21-22.8c3.91-3.68,8.04-7.35,11.95-10.79c1.84-1.72,4.83-3.43,5.29-5.64c0.23-1.23-0.46-4.66-0.69-5.88
				C293.9,297.48,280.8,293.31,272.53,293.8z"/>
		</g>
		<g style="opacity:0.36;">
			<path style="fill:#F8ABAB;" d="M285.17,320.52c-1.61,0.73-3.45,0.49-4.83,1.47c-0.69,0.49-2.3,3.43-2.99,4.17
				c-2.07,2.45-5.29,5.64-6.44,8.58c3.68-5.15,10.8-9.56,15.63-13.24c2.3-1.72,7.35-3.92,8.73-6.87c0.92-1.96,0-5.39,0-7.35
				l-0.46-0.25C297.12,311.45,288.85,318.56,285.17,320.52z"/>
		</g>
		<g style="opacity:0.25;">
			<path style="fill:#F7A8A9;" d="M267.19,323.96c-3.97,2.21-7.41,3.49-8.27,8.46c-0.69,3.49-1.55,7.35-2.76,10.66
				c-1.03,3.13-3.79,5.15-4.83,8.09l-1.21,1.1c1.72-0.18,3.96-2.21,5.69-3.31c3.62-2.76,7.07-4.6,9.48-8.64
				c2.41-3.68,6.29-5.5,9.65-8.09c4.38-3.37,5.17-5.46,8.45-8.64c2.12-2.06,8.27-4.78,9.31-7.72c-4.65,1.84-9.48,2.39-14.31,2.76
				C273.91,318.99,270.98,321.93,267.19,323.96z"/>
		</g>
		<g>
			<path style="fill:#B32025;" d="M248.3,356.3l-0.36-0.23C248.05,356.15,248.17,356.22,248.3,356.3z"/>
		</g>
		<g>
			<path style="fill:#B32025;" d="M260.12,346.76c3.91-3.68,8.05-7.11,11.72-10.79c7.36-7.11,14.94-14.22,22.98-20.35
				c-4.6,1.72-8.27,6.13-12.41,9.07c-2.3,1.72-3.68,3.68-5.98,5.39c-1.84,1.47-4.37,1.72-6.43,3.43c-3.45,2.94-5.52,7.35-8.96,10.54
				c-1.84,1.72-4.6,1.96-6.43,3.68c-0.69,0.49-0.69,1.96-1.61,2.7c-1.38,0.98-2.3,0.49-3.68,0.98c-1.61,0.98-3.22,0.74-1.84,3.43
				c-0.46,0-0.92,0.49-1.38,0.49c0.92,0.49,2.07,1.23,2.99,1.47l-0.79-0.51c-0.13-0.08-0.25-0.15-0.36-0.23l0.36,0.23
				c0.69,0.41,1.63,0.79,2.4,1C250.93,353.13,257.36,349.21,260.12,346.76z"/>
		</g>
		<g style="opacity:0.5;">
			<g>
				<path style="fill:#FAF9D5;" d="M299.43,309.75c-0.91-18.41-16.25-22.5-31.28-20.22c-9.96,1.51-19.01,10.22-23.74,16.19
					c-7.85,9.9-10.89,21.21-8.41,35.89c1.46,8.65,4.97,14.08,11.06,16.84c2.86,1.29,11.18,0.81,19.05-1.8
					c15.44-5.11,31.71-20.32,41.36-31.63c2.93-3.43,5.39-7.28,4.02-10.2C309.52,310.63,305.94,308.32,299.43,309.75z M304.93,316.97
					c0.88,3.84-0.69,2.7-1.38,3.92c-0.46,0.49-2.64,2.17-3.1,3.15c0.17,1.61-3.33,3.65-3.79,4.14c-1.84,2.45-3.1,4.6-5.86,4.97
					c-2.07,1.96-3.33,3.74-5.17,5.7c-1.61,1.47-4.7,2.63-6.31,3.86c-1.84,1.47-3.74,3.74-5.81,4.96c-1.84,0.98-3.05,1.78-5.11,3
					c-1.15,0.73-2-1.19-3.38-0.7c-1.15,0.49-1.91,2.91-3.06,3.4c-2.3,0.74-3.05,0.95-5.29,1.72c-7.12,2.45-7.81-1.47-12.18-2.45
					c0.69-2.45-0.92-3.86-2.89-7.36c-2.33-4.13-2.08-7.78-0.47-11.95c0.69-1.72-0.69-7.33,0-9.29c0.69-1.47,2.16-4.44,2.62-6.15
					c0.46-1.47,1.03-3.12,1.72-4.35c0.46-0.49,2.15-0.8,2.97-2.27c0.82-1.47,0.92-3.5,2.62-5.55c1.7-2.05,4.59-5.36,8.61-6.19
					c6.43-1.32,9.04-6.04,18.69-3.34c5.52,1.47,8.83,1.2,12.26,4.97c4.19,4.61,1.95,13.14,4.19,14.46
					C296.76,316.76,304.06,313.13,304.93,316.97z"/>
			</g>
		</g>
		<g style="opacity:0.38;">
			<g>
				<path style="fill:#DBE797;" d="M299.43,309.75c-0.91-18.41-16.25-22.5-31.28-20.22c-9.96,1.51-19.01,10.22-23.74,16.19
					c-7.85,9.9-10.89,21.21-8.41,35.89c1.46,8.65,4.97,14.08,11.06,16.84c2.86,1.29,11.18,0.81,19.05-1.8
					c15.44-5.11,31.71-20.32,41.36-31.63c2.93-3.43,5.39-7.28,4.02-10.2C309.52,310.63,305.94,308.32,299.43,309.75z M308.06,313.54
					c-0.54,3.08,1.99,2.33,1.03,6.46c-0.95,2.38-4.77,4.05-5.45,6.45c0.17,1.61-4.45,4.74-4.91,5.23c-1.84,2.45-2.55,5.01-5.3,5.38
					c-2.07,1.96-4.56,2.54-6.4,4.5c-1.61,1.47-3.06,2.99-4.67,4.21c-1.84,1.47-4.16,1.82-6.23,3.05c-1.84,0.98-3.59,2.78-5.66,4
					c-1.15,0.74-2.78,0.16-4.16,0.65c-1.15,0.49-2.33,2.13-3.48,2.62c-2.3,0.73-3.81,0.43-6.04,1.2c-7.12,2.45-9.99-1.12-12.26-1.93
					c-2.64-3.38-2.53-3.19-4.5-6.69c-2.33-4.14-4.74-10.79-3.13-14.96c0.69-1.72-0.14-7.72,0.55-9.68c0.69-1.47,2.18-5.62,2.64-7.33
					c0.46-1.47,1.85-3.49,2.53-4.71c0.46-0.49,3.27-3.49,4.09-4.96c0.82-1.47,1.72-2.81,3.43-4.86c1.7-2.05,6.31-6.01,10.33-6.83
					c6.43-1.32,10.01-6.18,19.66-3.49c5.51,1.47,9.63,2.27,13.31,5.75c6.68,6.32,1.57,14.61,3.82,15.93
					C299.18,314.68,308.75,309.66,308.06,313.54z"/>
			</g>
		</g>
		<g>
			<path style="fill:#EF3E3C;" d="M245.66,317.87l0.5-0.71C245.98,317.36,245.82,317.6,245.66,317.87z"/>
		</g>
		<g>
			<path style="fill:#EF3E3C;" d="M241.85,335.91c0,3.13,1.21,9.01,5.17,7.72c2.76-0.73,5.17-8.09,6.55-10.48
				c1.72-3.86,2.24-8.27,5.51-11.03c2.93-2.39,7.07-3.31,10.51-4.6c6.72-2.76,18.96-10.11,12.24-18.57
				c-4.14-5.15-16.55-2.21-21.2,1.47c-3.1,2.39-6.21,5.88-8.96,8.83c-2.07,2.02-4.83,6.07-6.03,8.64l0.02-0.02
				c0.16-0.26,0.32-0.5,0.5-0.71l-0.5,0.71c-1.2,2-1.78,5.26-2.09,7.38C243.06,328.74,241.85,332.41,241.85,335.91z"/>
		</g>
		<g>
			<path style="fill:#EF3E3C;" d="M283.56,326.9c-3.27,2.39-4.83,5.33-7.76,8.27c-1.55,1.65-2.93,3.49-4.65,4.78
				c-1.55,1.29-3.62,2.02-4.65,3.86c-3.62,6.07,7.93-0.55,9.65-2.21c4.83-4.23,9.13-8.46,14.48-11.77c2.07-1.29,7.58-7.17,2.76-8.64
				C290.8,320.46,285.11,325.06,283.56,326.9z"/>
		</g>
		<g style="opacity:0.36;">
			<path style="fill:#F9BBB9;" d="M257.36,309.25c0.52-0.55,1.03-1.84,1.55-2.21c3.1-2.39,6.72-2.57,10.17-3.13
				c3.45-0.55,7.58-2.76,11.2-1.1c1.03,0.55,1.38,1.29,2.24,1.84c0.86,0.55,1.9,0.37,2.59,0.92c1.03,0.55,3.79,2.76,4.31,3.86
				c-0.69-2.57-0.69-4.05-2.76-5.52c-0.86-0.74-1.9-0.92-2.76-1.65c-1.21-1.1-1.55-2.02-3.1-2.58c-3.45-1.29-9.31,0.37-12.93,0.92
				c-1.9,0.18-3.62,0.74-5.34,1.47c-2.07,0.92-3.27,0.74-5.34,1.47c-2.93,0.73-2.41,2.39-3.62,4.6c-1.03,1.84-3.1,2.57-3.96,4.78
				s-0.52,3.68-1.9,5.88c-1.21,2.02-1.72,3.12-2.41,5.33c-0.86,2.57-3.35,9.93-1.38,14.34c0-5.7,1.9-9.56,2.93-11.77
				c0.52-1.1,1.55-1.65,2.07-2.57c0.52-0.92,0.17-2.02,0.52-2.94c0.69-1.66,2.41-3.68,3.45-5.15c0.69-1.1,1.38-1.1,1.9-2.21
				c0.34-0.74-0.17-2.02,0.17-2.76C255.64,309.8,256.67,309.98,257.36,309.25z"/>
		</g>
		<g style="opacity:0.46;">
			<path style="fill:#F9BBB9;" d="M282.36,337.93c1.55-0.37,1.55-1.65,2.41-2.39c0.86-0.55,1.9-0.74,2.76-1.29
				c1.03-0.74,1.55-1.84,2.41-2.57c0.69-0.55,2.07-0.74,2.58-1.1c1.38-1.1,3.27-3.86,3.96-5.7c0.52-0.92,0.86-2.21,1.03-2.94
				c0.52-0.92,1.03-1.65,1.21-2.94c-1.03-0.55-2.76-0.55-3.79,0l-0.17,0.18c0.34,0,0.52,0,0.86,0.18
				C296.32,327.82,287.01,332.23,282.36,337.93z"/>
		</g>
		<g style="opacity:0.31;">
			<path style="fill:#F9BBB9;" d="M269.08,303.91c7.03,4.01,9.83,4.49,13.1,6.99c3.45,2.64,3.37,9.46,3.89,9.1
				c2.48-4.13,5.07-6.15,5.59-9.83c0.69-3.49-1.14-6.17-3.62-8.28C279.07,294.26,258.74,298.01,269.08,303.91z"/>
		</g>
		<g>
			<g>
				<path style="fill:#749344;" d="M299.43,309.75c-0.91-18.41-16.25-22.5-31.28-20.22c-9.96,1.51-19.01,10.22-23.74,16.19
					c-7.85,9.9-10.89,21.21-8.41,35.89c1.46,8.65,4.97,14.08,11.06,16.84c2.86,1.29,11.18,0.81,19.05-1.8
					c15.44-5.11,31.71-20.32,41.36-31.63c2.93-3.43,5.39-7.28,4.02-10.2C309.52,310.63,305.94,308.32,299.43,309.75z M310.35,319.1
					c-1.01,4.08-5.84,8.46-8.86,11.26c-1.41,1.5-2.94,3.31-4.35,4.39c-1.81,1.72-1.82,2.8-3.84,4.09c-1.01,0.86-1.55,0.6-2.56,1.46
					c-0.4,0.64-1.84,1.9-2.64,2.55c-1.21,1.29-4.73,4.14-6.14,5c-2.21,1.29-3.85,1.13-5.46,2.64c-1.81,1.5-2.26,2.11-4.27,3.18
					c-1.21,0.43-3.62,1.48-5.03,1.91c-2.21,0.64-4,1.73-6.22,1.73c-1.61,0-2.51,0.08-3.92,0.72c-2.21,0.86-1.96,0.15-4.18,0.37
					c-3.42,0.43-5.09,0.63-7.5-1.09c-2.01-1.29-2.26-2.53-3.87-4.46c-5.23-5.8-6.37-16.89-5.51-24.55c0.81-1.93,0.2-3.71,0.6-5.64
					c0.2-1.08,0.47-3.71,1.36-4.37c1.11-0.82,1.1-2.65,1.7-3.73c1.71-1.64,1.01-2.71,2.22-4.64c0.6-0.86,2.52-3.33,3.32-4.19
					c0.4-0.43,1.93-1.93,2.39-2.54c3.34-4.43,4.62-5.55,9.38-7.55c2.42-2.36,4.58-4.63,8.53-4.55c3.62-1.07,7.54-1.7,11.76-1.27
					c3.62,0.43,10.16,2.4,13.39,4.55c4.43,3,6.75,7.06,7.76,11.36c0.4,1.93-1.24,5.63,0.17,6.28c0.81,0.21,4.5-1.63,5.71-1.63
					C309.13,310.58,311.76,313.94,310.35,319.1z"/>
			</g>
		</g>
		<g>
			<g style="opacity:0.49;">
				<path style="fill:#321614;" d="M243.95,329.98c-0.77,1.97,1.43,2.83,3.26,2.45c0.22-0.05,0.44-0.34,0.57-0.65
					c0.11-0.26,0.13-0.46-0.13-0.86C247.26,330.29,244.83,327.73,243.95,329.98z"/>
			</g>
			<g>
				<path style="fill:#2B2928;" d="M244.45,330.22c-0.8,1.77,1.5,2.3,2.76,2.2c0.22-0.02,0.51-0.15,0.64-0.46
					c0.11-0.26,0.13-0.46-0.13-0.86C247.32,330.48,245.13,328.7,244.45,330.22z"/>
				<g>
					<path style="fill:#6C6C6C;" d="M244.5,331.13c-0.21,0.23,0.62,0.7,0.74,0.76c0.75,0.32,1.32,0.29,2.11,0.38
						c-0.61-0.26-1.11-0.22-1.67-0.5C245.14,331.49,244.63,330.99,244.5,331.13z"/>
				</g>
				<g>
					<path style="fill:#0B0B0B;" d="M246.29,330.07c-0.28-0.19-0.82-0.43-1.18-0.25c-0.11,0.06-0.51,0.26-0.5,0.42
						c0.04,0.29,0.44,0.08,0.65-0.01c0.77-0.29,1.88,0.83,2.45,1.23c-0.2-0.24-0.21-0.39-0.59-0.75
						C246.83,330.45,246.6,330.3,246.29,330.07z"/>
				</g>
			</g>
		</g>
		<g>
			<g style="opacity:0.49;">
				<path style="fill:#321614;" d="M247.53,319.4c-0.86,1.35,0.67,2.36,2.09,2.37c0.17,0,0.38-0.18,0.52-0.39
					c0.12-0.17,0.16-0.32,0.03-0.67C249.97,320.17,248.52,317.85,247.53,319.4z"/>
			</g>
			<g>
				<path style="fill:#2B2928;" d="M247.87,319.66c-0.85,1.2,0.8,1.97,1.76,2.1c0.17,0.02,0.41-0.03,0.55-0.24
					c0.12-0.17,0.16-0.32,0.03-0.67C249.99,320.33,248.6,318.63,247.87,319.66z"/>
				<g>
					<path style="fill:#6C6C6C;" d="M247.78,320.35c-0.19,0.14,0.37,0.63,0.45,0.7c0.52,0.36,0.95,0.43,1.53,0.63
						c-0.42-0.3-0.81-0.34-1.18-0.65C248.21,320.73,247.9,320.27,247.78,320.35z"/>
				</g>
				<g>
					<path style="fill:#0B0B0B;" d="M248.43,319.47c-0.09,0.02-0.42,0.11-0.44,0.24c-0.01,0.23,0.32,0.13,0.49,0.1
						c0.62-0.09,1.3,0.93,1.66,1.32c-0.11-0.21-0.1-0.33-0.34-0.66c-0.17-0.24-0.32-0.4-0.52-0.62
						C249.1,319.66,248.72,319.39,248.43,319.47z"/>
				</g>
			</g>
		</g>
		<g>
			<g style="opacity:0.49;">
				<path style="fill:#321614;" d="M251.76,319.16c-1.34,1.51,0.38,3.1,2.17,3.43c0.21,0.04,0.51-0.15,0.73-0.38
					c0.19-0.19,0.27-0.37,0.16-0.83C254.67,320.67,253.3,317.44,251.76,319.16z"/>
			</g>
			<g>
				<path style="fill:#2B2928;" d="M252.14,319.56c-1.3,1.32,0.62,2.64,1.79,3.02c0.21,0.07,0.51,0.05,0.73-0.18
					c0.19-0.19,0.27-0.37,0.16-0.83C254.67,320.86,253.26,318.43,252.14,319.56z"/>
				<g>
					<path style="fill:#6C6C6C;" d="M251.89,320.41c-0.27,0.13,0.33,0.87,0.42,0.97c0.58,0.56,1.11,0.75,1.79,1.12
						c-0.46-0.46-0.94-0.61-1.35-1.07C252.36,320.97,252.05,320.33,251.89,320.41z"/>
				</g>
				<g>
					<path style="fill:#0B0B0B;" d="M252.87,319.44c-0.12,0.01-0.55,0.05-0.59,0.2c-0.06,0.28,0.37,0.23,0.6,0.24
						c0.79,0.02,1.44,1.45,1.82,2.02c-0.1-0.29-0.07-0.43-0.3-0.9c-0.17-0.34-0.33-0.57-0.54-0.89
						C253.67,319.83,253.26,319.41,252.87,319.44z"/>
				</g>
			</g>
		</g>
		<g>
			<g style="opacity:0.49;">
				<path style="fill:#321614;" d="M249.48,343.76c-0.68,0.04-3.9,0.91-2.59,2.82c1.16,1.67,2.93,0.14,3.54-1.67
					c0.07-0.22-0.05-0.56-0.22-0.83C250.08,343.85,249.93,343.73,249.48,343.76z"/>
			</g>
			<g>
				<path style="fill:#2B2928;" d="M249.66,343.79c-0.68,0.04-3.18,1.1-2.33,2.47c0.99,1.6,2.55-0.18,3.1-1.35
					c0.1-0.21,0.13-0.53-0.04-0.8C250.26,343.88,250.11,343.76,249.66,343.79z"/>
				<g>
					<path style="fill:#6C6C6C;" d="M249.16,345.94c-0.49,0.34-1.14,0.55-1.09,0.73c0.08,0.3,0.86-0.2,0.97-0.28
						c0.62-0.51,0.88-1.03,1.35-1.69C249.88,345.11,249.66,345.59,249.16,345.94z"/>
				</g>
				<g>
					<path style="fill:#0B0B0B;" d="M247.35,345.47c-0.01,0.13-0.05,0.59,0.08,0.66c0.25,0.11,0.28-0.35,0.32-0.58
						c0.16-0.83,1.59-1.26,2.19-1.56c-0.29,0.06-0.41,0-0.88,0.15c-0.34,0.12-0.58,0.24-0.92,0.41
						C247.86,344.7,247.39,345.06,247.35,345.47z"/>
				</g>
			</g>
		</g>
		<g>
			<g style="opacity:0.49;">
				<path style="fill:#321614;" d="M293.4,324.5c-0.14,0.1-0.2,0.37-0.2,0.62c0,0.21,0.04,0.35,0.33,0.54
					c0.44,0.29,2.81,1.23,2.76-0.57C296.25,323.51,294.52,323.65,293.4,324.5z"/>
			</g>
			<g>
				<path style="fill:#2B2928;" d="M293.4,324.5c-0.15,0.08-0.3,0.27-0.3,0.51c-0.01,0.21,0.04,0.35,0.33,0.54
					c0.44,0.29,2.43,0.78,2.45-0.47C295.92,323.63,294.22,324.03,293.4,324.5z"/>
				<g>
					<path style="fill:#6C6C6C;" d="M293.35,324.65c0.48-0.02,0.81-0.22,1.27-0.2c0.44,0.01,0.93,0.18,0.98,0.04
						c0.07-0.22-0.62-0.27-0.72-0.27C294.28,324.25,293.91,324.45,293.35,324.65z"/>
				</g>
				<g>
					<path style="fill:#0B0B0B;" d="M295.33,325.34c-0.43,0.44-1.5,0.06-2-0.03c0.2,0.1,0.25,0.19,0.61,0.31
						c0.26,0.09,0.46,0.12,0.74,0.17c0.24,0.04,0.68,0.02,0.87-0.22c0.06-0.08,0.27-0.34,0.22-0.45
						C295.66,324.94,295.46,325.22,295.33,325.34z"/>
				</g>
			</g>
		</g>
		<g>
			<g style="opacity:0.49;">
				<path style="fill:#321614;" d="M292.34,321.87c-0.07,0.16-0.01,0.43,0.09,0.65c0.09,0.19,0.19,0.29,0.53,0.31
					c0.52,0.04,3.02-0.29,2.2-1.86C294.43,319.59,292.96,320.57,292.34,321.87z"/>
			</g>
			<g>
				<path style="fill:#2B2928;" d="M292.34,321.87c-0.09,0.15-0.15,0.39-0.04,0.61c0.09,0.19,0.19,0.29,0.53,0.31
					c0.52,0.04,2.49-0.5,1.97-1.62C294.19,319.86,292.86,321.05,292.34,321.87z"/>
				<g>
					<path style="fill:#6C6C6C;" d="M293.52,320.89c-0.51,0.32-0.76,0.69-1.17,1.13c0.42-0.25,0.63-0.59,1.03-0.8
						c0.4-0.21,0.91-0.3,0.89-0.44C294.24,320.55,293.61,320.85,293.52,320.89z"/>
				</g>
				<g>
					<path style="fill:#0B0B0B;" d="M294.41,321.67c-0.2,0.61-1.31,0.79-1.79,0.95c0.22-0.01,0.31,0.05,0.68-0.03
						c0.27-0.05,0.46-0.13,0.73-0.21c0.23-0.09,0.61-0.31,0.68-0.62c0.02-0.1,0.09-0.43,0-0.5
						C294.53,321.15,294.47,321.5,294.41,321.67z"/>
				</g>
			</g>
		</g>
		<g>
			<g style="opacity:0.49;">
				<path style="fill:#321614;" d="M262.87,346.33c-0.19-0.01-0.33,0.03-0.51,0.32c-0.29,0.45-1.28,2.89,0.39,2.93
					c1.46,0.04,1.42-1.79,0.69-3.01C263.35,346.43,263.1,346.35,262.87,346.33z"/>
			</g>
			<g>
				<path style="fill:#2B2928;" d="M262.97,346.23c-0.2-0.01-0.32,0.03-0.51,0.32c-0.29,0.45-0.84,2.51,0.31,2.6
					c1.34,0.11,1.06-1.69,0.67-2.58C263.36,346.42,263.2,346.25,262.97,346.23z"/>
				<g>
					<path style="fill:#6C6C6C;" d="M263.33,348.88c0.2,0.09,0.28-0.63,0.29-0.74c0-0.63-0.17-1.03-0.32-1.62
						c-0.01,0.51,0.16,0.86,0.12,1.34C263.39,348.32,263.21,348.82,263.33,348.88z"/>
				</g>
				<g>
					<path style="fill:#0B0B0B;" d="M262.38,347.1c-0.09,0.27-0.13,0.48-0.2,0.77c-0.04,0.25-0.05,0.71,0.16,0.92
						c0.06,0.07,0.3,0.3,0.4,0.25c0.18-0.11-0.07-0.34-0.18-0.47c-0.39-0.48,0.03-1.58,0.13-2.1
						C262.59,346.67,262.5,346.73,262.38,347.1z"/>
				</g>
			</g>
		</g>
		<g>
			<g style="opacity:0.49;">
				<path style="fill:#321614;" d="M260.67,349.94c-0.19-0.03-0.33,0-0.54,0.28c-0.32,0.42-1.48,2.77,0.18,2.95
					c1.45,0.16,1.54-1.67,0.91-2.94C261.14,350.08,260.9,349.97,260.67,349.94z"/>
			</g>
			<g>
				<path style="fill:#2B2928;" d="M260.78,349.85c-0.19-0.03-0.33,0-0.54,0.28c-0.32,0.43-1.02,2.44,0.12,2.62
					c1.33,0.22,1.18-1.6,0.85-2.52C261.16,350.07,261.01,349.88,260.78,349.85z"/>
				<g>
					<path style="fill:#6C6C6C;" d="M260.95,352.51c0.2,0.11,0.33-0.61,0.34-0.71c0.05-0.63-0.09-1.04-0.2-1.65
						c-0.04,0.51,0.1,0.87,0.03,1.35C261.05,351.96,260.83,352.45,260.95,352.51z"/>
				</g>
				<g>
					<path style="fill:#0B0B0B;" d="M260.12,350.66c-0.11,0.26-0.17,0.47-0.25,0.75c-0.06,0.25-0.11,0.7,0.09,0.93
						c0.06,0.07,0.28,0.33,0.38,0.28c0.18-0.09-0.04-0.34-0.14-0.48c-0.35-0.51,0.14-1.58,0.28-2.08
						C260.37,350.26,260.28,350.3,260.12,350.66z"/>
				</g>
			</g>
		</g>
		<g>
			<g style="opacity:0.49;">
				<path style="fill:#321614;" d="M265.6,346.51c-0.18,0.08-0.28,0.18-0.32,0.54c-0.06,0.54,0.12,3.19,1.61,2.41
					c1.31-0.68,0.49-2.28-0.69-3.01C266.06,346.36,265.81,346.41,265.6,346.51z"/>
			</g>
			<g>
				<path style="fill:#2B2928;" d="M265.64,346.37c-0.18,0.08-0.28,0.18-0.32,0.54c-0.06,0.54,0.34,2.64,1.4,2.16
					c1.24-0.56,0.21-2.02-0.52-2.62C266.07,346.34,265.85,346.27,265.64,346.37z"/>
				<g>
					<path style="fill:#6C6C6C;" d="M266.74,347.58c0.17,0.43,0.23,0.97,0.36,0.95c0.22-0.02-0.02-0.7-0.06-0.8
						c-0.27-0.56-0.59-0.83-0.99-1.28C266.27,346.91,266.56,347.14,266.74,347.58z"/>
				</g>
				<g>
					<path style="fill:#0B0B0B;" d="M265.5,346.71c0,0.23-0.06,0.32-0.01,0.72c0.04,0.29,0.09,0.49,0.16,0.78
						c0.07,0.25,0.26,0.66,0.54,0.74c0.08,0.03,0.4,0.12,0.46,0.02c0.11-0.18-0.21-0.26-0.36-0.33
						C265.73,348.4,265.62,347.22,265.5,346.71z"/>
				</g>
			</g>
		</g>
		<g>
			<g style="opacity:0.49;">
				<path style="fill:#321614;" d="M280.54,335.97c-0.21,0.04-0.44,0.31-0.58,0.6c-0.12,0.24-0.14,0.44,0.09,0.84
					c0.36,0.62,2.62,3.22,3.56,1.07C284.44,336.6,282.33,335.67,280.54,335.97z"/>
			</g>
			<g>
				<path style="fill:#2B2928;" d="M279.9,336.39c-0.12,0.25-0.14,0.44,0.09,0.85c0.36,0.62,2.43,2.45,3.15,0.99
					c0.84-1.69-1.37-2.3-2.6-2.26C280.32,335.97,280.04,336.1,279.9,336.39z"/>
				<g>
					<path style="fill:#6C6C6C;" d="M280.39,336.11c0.58,0.28,1.07,0.26,1.6,0.56c0.51,0.29,1,0.8,1.12,0.67
						c0.21-0.21-0.58-0.71-0.69-0.78C281.71,336.23,281.16,336.23,280.39,336.11z"/>
				</g>
				<g>
					<path style="fill:#0B0B0B;" d="M282.34,338.18c-0.76,0.24-1.8-0.89-2.33-1.3c0.18,0.24,0.19,0.39,0.55,0.75
						c0.26,0.27,0.48,0.43,0.77,0.67c0.26,0.19,0.78,0.45,1.14,0.29c0.11-0.05,0.51-0.23,0.5-0.39
						C282.95,337.91,282.55,338.11,282.34,338.18z"/>
				</g>
			</g>
		</g>
		<g>
			<g style="opacity:0.49;">
				<path style="fill:#321614;" d="M283.96,333.96c-0.2,0.09-0.35,0.42-0.42,0.74c-0.06,0.27-0.03,0.46,0.29,0.79
					c0.5,0.5,3.31,2.4,3.7,0.06C287.88,333.51,285.62,333.19,283.96,333.96z"/>
			</g>
			<g>
				<path style="fill:#2B2928;" d="M283.96,333.96c-0.21,0.07-0.45,0.26-0.52,0.58c-0.06,0.27-0.03,0.46,0.29,0.79
					c0.5,0.5,2.93,1.71,3.28,0.11C287.42,333.57,285.14,333.59,283.96,333.96z"/>
				<g>
					<path style="fill:#6C6C6C;" d="M283.85,334.14c0.63,0.12,1.1-0.04,1.68,0.1c0.57,0.14,1.16,0.5,1.25,0.34
						c0.15-0.27-0.73-0.53-0.86-0.56C285.15,333.89,284.62,334.04,283.85,334.14z"/>
				</g>
				<g>
					<path style="fill:#0B0B0B;" d="M286.23,335.6c-0.67,0.44-1.95-0.37-2.56-0.62c0.23,0.19,0.28,0.32,0.71,0.58
						c0.32,0.18,0.57,0.28,0.91,0.43c0.3,0.12,0.87,0.23,1.17-0.03c0.09-0.08,0.44-0.36,0.39-0.51
						C286.76,335.18,286.42,335.48,286.23,335.6z"/>
				</g>
			</g>
		</g>
		<g>
			<g style="opacity:0.49;">
				<path style="fill:#321614;" d="M283.78,329.63c-0.16,0.08-0.29,0.35-0.34,0.61c-0.05,0.22-0.03,0.38,0.24,0.65
					c0.41,0.41,2.71,1.96,3.03,0.05C286.99,329.26,285.14,329,283.78,329.63z"/>
			</g>
			<g>
				<path style="fill:#2B2928;" d="M283.78,329.63c-0.17,0.06-0.37,0.21-0.42,0.47c-0.05,0.22-0.03,0.38,0.24,0.65
					c0.41,0.41,2.4,1.4,2.69,0.08C286.62,329.31,284.75,329.33,283.78,329.63z"/>
				<g>
					<path style="fill:#6C6C6C;" d="M283.69,329.78c0.51,0.1,0.9-0.04,1.38,0.08c0.46,0.12,0.95,0.41,1.02,0.28
						c0.13-0.22-0.59-0.43-0.7-0.46C284.76,329.57,284.32,329.7,283.69,329.78z"/>
				</g>
				<g>
					<path style="fill:#0B0B0B;" d="M285.65,330.98c-0.55,0.36-1.6-0.3-2.1-0.51c0.19,0.15,0.23,0.26,0.59,0.47
						c0.26,0.15,0.46,0.23,0.74,0.35c0.25,0.1,0.71,0.18,0.96-0.02c0.07-0.07,0.36-0.3,0.32-0.42
						C286.07,330.63,285.8,330.88,285.65,330.98z"/>
				</g>
			</g>
		</g>
		<g>
			<g style="opacity:0.49;">
				<path style="fill:#321614;" d="M242.97,336.54c0.01,2.38,2.62,2.24,4.34,1c0.21-0.15,0.31-0.55,0.32-0.93
					c0.01-0.32-0.05-0.53-0.48-0.83C246.49,335.33,242.96,333.82,242.97,336.54z"/>
			</g>
			<g>
				<path style="fill:#2B2928;" d="M243.58,336.56c-0.1,2.19,2.47,1.66,3.73,0.98c0.22-0.12,0.46-0.39,0.47-0.77
					c0.01-0.32-0.05-0.53-0.48-0.83C246.64,335.49,243.66,334.68,243.58,336.56z"/>
				<g>
					<path style="fill:#6C6C6C;" d="M244,337.46c-0.12,0.34,0.92,0.44,1.07,0.44c0.9-0.02,1.47-0.31,2.32-0.59
						c-0.73,0.01-1.23,0.29-1.91,0.26C244.81,337.54,244.08,337.26,244,337.46z"/>
				</g>
				<g>
					<path style="fill:#0B0B0B;" d="M244.1,335.84c-0.09,0.11-0.42,0.5-0.34,0.67c0.16,0.28,0.48-0.13,0.67-0.31
						c0.67-0.65,2.27-0.02,3.01,0.13c-0.3-0.16-0.38-0.3-0.91-0.49c-0.39-0.14-0.69-0.2-1.11-0.29
						C245.05,335.48,244.39,335.49,244.1,335.84z"/>
				</g>
			</g>
		</g>
		<g>
			<g style="opacity:0.49;">
				<path style="fill:#321614;" d="M283.13,311.28c-0.04,0.26,0.15,0.62,0.4,0.9c0.2,0.23,0.39,0.33,0.89,0.21
					c0.76-0.18,4.24-1.82,2.42-3.71C285.23,307.01,283.49,309.1,283.13,311.28z"/>
			</g>
			<g>
				<path style="fill:#2B2928;" d="M283.13,311.28c-0.07,0.25-0.06,0.63,0.18,0.9c0.2,0.23,0.39,0.33,0.89,0.21
					c0.76-0.19,3.39-1.89,2.18-3.27C284.99,307.51,283.55,309.84,283.13,311.28z"/>
				<g>
					<path style="fill:#6C6C6C;" d="M284.44,309.32c-0.61,0.7-0.82,1.34-1.22,2.18c0.5-0.56,0.66-1.14,1.17-1.64
						c0.49-0.48,1.18-0.85,1.1-1.04C285.34,308.48,284.55,309.21,284.44,309.32z"/>
				</g>
				<g>
					<path style="fill:#0B0B0B;" d="M286.04,310.02c-0.03,0.97-1.57,1.75-2.19,2.21c0.32-0.12,0.47-0.08,0.97-0.35
						c0.37-0.2,0.62-0.39,0.97-0.64c0.3-0.23,0.76-0.74,0.72-1.21c-0.01-0.15-0.04-0.67-0.21-0.73
						C286,309.22,286.05,309.75,286.04,310.02z"/>
				</g>
			</g>
		</g>
		<g>
			<g style="opacity:0.49;">
				<path style="fill:#321614;" d="M284.78,315.71c-0.04,0.21,0.12,0.51,0.32,0.74c0.17,0.19,0.32,0.27,0.73,0.17
					c0.63-0.15,3.49-1.5,1.99-3.06C286.5,312.2,285.08,313.92,284.78,315.71z"/>
			</g>
			<g>
				<path style="fill:#2B2928;" d="M284.78,315.71c-0.06,0.21-0.05,0.51,0.15,0.74c0.17,0.19,0.32,0.27,0.73,0.17
					c0.63-0.15,2.79-1.55,1.8-2.69C286.31,312.62,285.12,314.53,284.78,315.71z"/>
				<g>
					<path style="fill:#6C6C6C;" d="M284.85,315.89c0.41-0.46,0.54-0.94,0.96-1.35c0.4-0.4,0.97-0.7,0.91-0.86
						c-0.12-0.27-0.77,0.33-0.86,0.42C285.35,314.68,285.18,315.21,284.85,315.89z"/>
				</g>
				<g>
					<path style="fill:#0B0B0B;" d="M287.17,314.68c-0.03,0.8-1.29,1.44-1.8,1.82c0.26-0.1,0.38-0.07,0.8-0.29
						c0.3-0.17,0.51-0.32,0.8-0.53c0.24-0.19,0.62-0.61,0.6-0.99c-0.01-0.12-0.04-0.55-0.17-0.6
						C287.14,314.02,287.18,314.45,287.17,314.68z"/>
				</g>
			</g>
		</g>
		<g>
			<g style="opacity:0.49;">
				<path style="fill:#321614;" d="M277.56,309.74c0.12,0.2,0.45,0.31,0.77,0.33c0.26,0.02,0.44-0.04,0.7-0.44
					c0.39-0.61,1.73-3.93-0.53-3.98C276.51,305.6,276.57,308.08,277.56,309.74z"/>
			</g>
			<g>
				<path style="fill:#2B2928;" d="M277.56,309.74c0.1,0.21,0.32,0.45,0.63,0.47c0.26,0.02,0.44-0.04,0.7-0.44
					c0.39-0.61,1.14-3.41-0.43-3.53C276.64,306.08,277.02,308.53,277.56,309.74z"/>
				<g>
					<path style="fill:#6C6C6C;" d="M277.7,306.61c-0.28-0.12-0.38,0.86-0.39,1.01c0,0.85,0.23,1.4,0.44,2.21
						c0.01-0.69-0.21-1.17-0.17-1.82C277.62,307.37,277.86,306.68,277.7,306.61z"/>
				</g>
				<g>
					<path style="fill:#0B0B0B;" d="M279,309.03c0.13-0.37,0.18-0.65,0.26-1.04c0.06-0.34,0.07-0.97-0.21-1.25
						c-0.09-0.09-0.41-0.41-0.55-0.34c-0.24,0.14,0.09,0.46,0.24,0.64c0.53,0.65-0.03,2.15-0.18,2.85
						C278.71,309.6,278.83,309.53,279,309.03z"/>
				</g>
			</g>
		</g>
		<g>
			<g style="opacity:0.49;">
				<path style="fill:#321614;" d="M280.61,305.69c0.06,0.19,0.32,0.36,0.58,0.44c0.21,0.07,0.37,0.07,0.67-0.21
					c0.45-0.43,2.2-2.9,0.33-3.44C280.53,302.01,280.1,304.09,280.61,305.69z"/>
			</g>
			<g>
				<path style="fill:#2B2928;" d="M280.61,305.69c0.04,0.2,0.18,0.44,0.44,0.53c0.22,0.07,0.38,0.06,0.67-0.22
					c0.45-0.42,1.61-2.6,0.33-3.04C280.55,302.44,280.4,304.56,280.61,305.69z"/>
				<g>
					<path style="fill:#6C6C6C;" d="M280.81,303.86c-0.17,0.71-0.08,1.22-0.06,1.94c0.14-0.57,0.05-1.03,0.21-1.56
						c0.16-0.52,0.5-1.03,0.37-1.13C281.12,302.94,280.84,303.74,280.81,303.86z"/>
				</g>
				<g>
					<path style="fill:#0B0B0B;" d="M281.95,305.41c0.18-0.28,0.28-0.51,0.42-0.81c0.12-0.27,0.25-0.79,0.07-1.09
						c-0.06-0.09-0.26-0.43-0.39-0.4c-0.23,0.07-0.01,0.4,0.08,0.59c0.31,0.66-0.44,1.79-0.7,2.34
						C281.59,305.83,281.71,305.8,281.95,305.41z"/>
				</g>
			</g>
		</g>
		<g>
			<g style="opacity:0.49;">
				<path style="fill:#321614;" d="M274.08,302.8c-1.95,0.39-1.42,2.8-0.12,4.2c0.16,0.17,0.5,0.2,0.81,0.15
					c0.26-0.04,0.43-0.14,0.6-0.58C275.63,305.88,276.3,302.35,274.08,302.8z"/>
			</g>
			<g>
				<path style="fill:#2B2928;" d="M274.16,303.37c-1.81,0.26-0.96,2.58-0.2,3.63c0.13,0.19,0.4,0.37,0.7,0.32
					c0.26-0.04,0.42-0.13,0.6-0.58C275.53,306.05,275.72,303.14,274.16,303.37z"/>
				<g>
					<path style="fill:#6C6C6C;" d="M273.49,303.91c-0.3-0.06-0.21,0.93-0.19,1.07c0.16,0.83,0.49,1.32,0.86,2.06
						c-0.12-0.68-0.44-1.1-0.52-1.74C273.55,304.67,273.66,303.94,273.49,303.91z"/>
				</g>
				<g>
					<path style="fill:#0B0B0B;" d="M275.23,305.99c0.05-0.39,0.05-0.68,0.06-1.08c0-0.35-0.11-0.96-0.45-1.18
						c-0.11-0.07-0.48-0.31-0.6-0.21c-0.21,0.19,0.18,0.43,0.36,0.57c0.64,0.52,0.39,2.11,0.38,2.83
						C275.05,306.62,275.16,306.52,275.23,305.99z"/>
				</g>
			</g>
		</g>
		<g>
			<g style="opacity:0.49;">
				<path style="fill:#321614;" d="M270.22,306.46c-1.72,1.05-0.47,3.14,1.18,4.02c0.2,0.1,0.54,0.01,0.81-0.14
					c0.23-0.13,0.36-0.28,0.39-0.76C272.64,308.83,272.18,305.26,270.22,306.46z"/>
			</g>
			<g>
				<path style="fill:#2B2928;" d="M270.47,306.97c-1.63,0.88-0.12,2.77,0.93,3.5c0.18,0.13,0.49,0.21,0.76,0.05
					c0.23-0.13,0.36-0.28,0.39-0.76C272.58,309.02,271.87,306.21,270.47,306.97z"/>
				<g>
					<path style="fill:#6C6C6C;" d="M270,307.72c-0.3,0.05,0.09,0.95,0.15,1.08c0.41,0.73,0.87,1.07,1.44,1.65
						c-0.33-0.6-0.75-0.89-1.03-1.47C270.3,308.41,270.18,307.69,270,307.72z"/>
				</g>
				<g>
					<path style="fill:#0B0B0B;" d="M272.29,309.08c-0.07-0.39-0.16-0.66-0.28-1.04c-0.11-0.33-0.41-0.87-0.79-0.96
						c-0.12-0.03-0.55-0.13-0.63,0.01c-0.13,0.25,0.3,0.34,0.51,0.42c0.77,0.27,1.01,1.86,1.23,2.54
						C272.31,309.73,272.38,309.6,272.29,309.08z"/>
				</g>
			</g>
		</g>
		<g>
			<g style="opacity:0.49;">
				<path style="fill:#321614;" d="M264.93,307.61c-1.73,0.48-1.11,2.62,0.13,3.8c0.15,0.14,0.46,0.15,0.74,0.09
					c0.23-0.05,0.37-0.15,0.51-0.57C266.51,310.29,266.91,307.06,264.93,307.61z"/>
			</g>
			<g>
				<path style="fill:#2B2928;" d="M265.04,308.12c-1.61,0.35-0.72,2.38,0.03,3.29c0.13,0.16,0.38,0.3,0.65,0.24
					c0.23-0.05,0.38-0.15,0.51-0.56C266.43,310.44,266.43,307.81,265.04,308.12z"/>
				<g>
					<path style="fill:#6C6C6C;" d="M264.46,308.65c-0.27-0.03-0.13,0.85-0.11,0.98c0.2,0.74,0.52,1.16,0.89,1.8
						c-0.15-0.6-0.46-0.96-0.57-1.54C264.57,309.33,264.63,308.67,264.46,308.65z"/>
				</g>
				<g>
					<path style="fill:#0B0B0B;" d="M265.67,308.41c-0.1-0.05-0.45-0.25-0.55-0.15c-0.17,0.19,0.19,0.37,0.36,0.49
						c0.61,0.43,0.47,1.88,0.5,2.52c0.06-0.28,0.15-0.37,0.18-0.86c0.03-0.36,0.01-0.61-0.01-0.98
						C266.12,309.13,265.98,308.58,265.67,308.41z"/>
				</g>
			</g>
		</g>
		<g>
			<g style="opacity:0.49;">
				<path style="fill:#321614;" d="M260.08,306.15c-1.78,0.94-0.65,3.11,0.95,4.08c0.19,0.12,0.54,0.05,0.82-0.09
					c0.24-0.12,0.37-0.25,0.43-0.74C262.36,308.67,262.1,305.08,260.08,306.15z"/>
			</g>
			<g>
				<path style="fill:#2B2928;" d="M260.3,306.68c-1.67,0.78-0.27,2.76,0.73,3.56c0.18,0.14,0.48,0.24,0.76,0.1
					c0.24-0.12,0.37-0.25,0.43-0.74C262.3,308.86,261.74,306.01,260.3,306.68z"/>
				<g>
					<path style="fill:#6C6C6C;" d="M259.79,307.39c-0.3,0.03,0.04,0.96,0.09,1.08c0.37,0.76,0.81,1.13,1.35,1.74
						c-0.29-0.61-0.7-0.93-0.95-1.53C260.05,308.11,259.97,307.38,259.79,307.39z"/>
				</g>
				<g>
					<path style="fill:#0B0B0B;" d="M261.04,306.83c-0.12-0.03-0.54-0.16-0.63-0.03c-0.15,0.25,0.28,0.36,0.49,0.45
						c0.75,0.32,0.91,1.92,1.08,2.61c0-0.32,0.08-0.44,0.01-0.97c-0.05-0.39-0.12-0.67-0.22-1.06
						C261.68,307.5,261.42,306.95,261.04,306.83z"/>
				</g>
			</g>
		</g>
		<g>
			<g style="opacity:0.49;">
				<path style="fill:#321614;" d="M257.29,310.79c-1.39,1.51,0.35,3.16,2.16,3.52c0.22,0.04,0.52-0.14,0.75-0.37
					c0.19-0.19,0.27-0.37,0.18-0.84C260.23,312.38,258.87,309.07,257.29,310.79z"/>
			</g>
			<g>
				<path style="fill:#2B2928;" d="M257.66,311.21c-1.34,1.32,0.59,2.7,1.78,3.1c0.21,0.07,0.52,0.06,0.75-0.17
					c0.19-0.19,0.28-0.37,0.18-0.84C260.22,312.58,258.82,310.08,257.66,311.21z"/>
				<g>
					<path style="fill:#6C6C6C;" d="M257.4,312.07c-0.27,0.13,0.33,0.89,0.42,0.99c0.58,0.58,1.11,0.78,1.81,1.17
						c-0.47-0.48-0.95-0.63-1.36-1.11C257.87,312.65,257.57,311.99,257.4,312.07z"/>
				</g>
				<g>
					<path style="fill:#0B0B0B;" d="M258.41,311.1c-0.12,0.01-0.56,0.04-0.6,0.19c-0.06,0.28,0.38,0.24,0.6,0.25
						c0.81,0.04,1.45,1.5,1.83,2.09c-0.1-0.3-0.06-0.44-0.29-0.92c-0.17-0.35-0.33-0.58-0.53-0.92
						C259.23,311.51,258.81,311.08,258.41,311.1z"/>
				</g>
			</g>
		</g>
		<g>
			<g style="opacity:0.49;">
				<path style="fill:#321614;" d="M274.99,310.67c-1.4,0.23-1.07,1.96-0.18,2.99c0.11,0.12,0.35,0.16,0.57,0.13
					c0.19-0.02,0.31-0.08,0.44-0.4C276.03,312.9,276.58,310.4,274.99,310.67z"/>
			</g>
			<g>
				<path style="fill:#2B2928;" d="M274.81,313.66c0.09,0.14,0.27,0.27,0.49,0.24c0.19-0.02,0.31-0.09,0.44-0.4
					c0.2-0.48,0.4-2.54-0.71-2.42C273.74,311.22,274.29,312.88,274.81,313.66z"/>
				<g>
					<path style="fill:#6C6C6C;" d="M274.54,311.44c-0.21-0.05-0.17,0.66-0.16,0.76c0.1,0.6,0.32,0.95,0.57,1.49
						c-0.07-0.48-0.29-0.79-0.33-1.25C274.58,311.99,274.67,311.47,274.54,311.44z"/>
				</g>
				<g>
					<path style="fill:#0B0B0B;" d="M275.74,312.97c0.05-0.28,0.05-0.48,0.06-0.77c0-0.25-0.06-0.69-0.3-0.85
						c-0.07-0.05-0.34-0.23-0.42-0.16c-0.15,0.13,0.12,0.31,0.24,0.42c0.45,0.39,0.23,1.51,0.21,2.02
						C275.6,313.41,275.68,313.34,275.74,312.97z"/>
				</g>
			</g>
		</g>
		<g style="opacity:0.27;">
			<path style="fill:#A4C154;" d="M236.96,316.23c2.93-4.38,6.01-11.26,6.72-14.79c-3.21,3.29-5.08,10.09-8.14,14.27
				c-3.42,4.66-3.42,11.28-3.81,15.74c-0.53,5.36,1.06,9.87,2.11,14.94c0.26,1.13,0.26,2.82,0.79,3.66
				c0.79,1.41,2.12,1.69,2.64,2.82c1.32,1.69,1.89,3.92,3.4,5.73c0.43,0.52,0.69,0.85,1.27,0.85c0.79-4.51-4.86-7.65-6.18-11.6
				c-1.59-4.23-2.59-11.68-2.32-16.76C233.71,326.19,234.44,320,236.96,316.23z"/>
		</g>
		<g style="opacity:0.27;">
			<path style="fill:#A4C154;" d="M281.81,354.68c0.01-0.01,0.02-0.02,0.03-0.02C281.8,354.69,281.79,354.69,281.81,354.68z"/>
		</g>
		<g style="opacity:0.27;">
			<path style="fill:#A4C154;" d="M306.14,330.39c-1.55,1.29-1.89,2.21-2.93,3.86c-0.52,0.92-1.21,2.02-2.07,2.57
				c-0.52,0.55-1.55,0.18-1.9,0.55c-1.55,1.29-1.55,3.49-2.93,4.96c-0.52,0.55-3.27,1.47-4.31,2.21c-1.21,0.73-3.94,1.43-5.15,2.35
				c-1.21,1.1-2.45,3.74-3.82,4.66c-1.38,0.74-4.54,1.27-5.92,2.37c-3.1,2.39-2.08,3.31-5.7,4.41c-1.5,0.56-3.91-0.43-5.38,0.23
				c-1.92,0.86-3.86,1.72-5.91,2.35c-2.06,0.58-4.3,0.89-6.55,0.88c-4.13-0.02-8.31-1.14-11.54-3.64v0.18
				c-0.51,2.39,2.76,3.68,4.65,4.23c2.41,0.92,4.48,1.65,7.07,1.65c0.69,0,1.21,0.73,1.9,0.55c0.86-0.18,1.38-1.1,2.07-1.29
				c1.9-0.55,2.07,0.18,3.79,0.37c-0.17,0,1.9-0.73,2.07-0.73c0.35,0,1.38,0.37,1.9,0.18c1.55-0.18,2.93-2.02,4.31-2.57
				c0.17,0.74,0.86,1.47,0.86,2.21c3.62-1.84,3.62-8.09,8.62-4.23c1.2-1.64,1.38-3.1,2.56-4.02c-0.02,0.01-0.02,0,0.03-0.02
				c-0.01,0.01-0.02,0.02-0.03,0.02c0.15-0.05,1.77-0.76,1.92-0.76c0.52-0.37,1.21-1.47,1.9-1.84c0.34-0.18,1.55,0.18,2.07,0
				c-0.17,0,1.73-1.84,1.55-1.66c0.34-0.37,0.86-0.92,1.21-1.29c0-0.18,0-2.02,0-2.39c0.69,0.18,2.07,1.47,2.76,1.29
				c0.86-0.37,0.34-1.47,1.03-2.02c1.38-1.29,2.07-0.55,3.79-1.29c2.76-1.1,0.86-1.84,1.55-4.04c0.52-2.57,2.24-0.92,3.62-2.57
				c0.52-0.73-0.52-1.84,0.17-2.57c0.52-0.74,1.21-0.55,1.9-1.1c0.69-0.37,1.38-0.18,2.07-0.73c0.34-0.37-0.17-1.65,0.34-2.21
				c0.52-0.55,1.9,0.18,2.24-0.37c0.69-0.92,0-1.66,0-2.58c0-2.02-0.69-3.31,2.41-3.49c0-0.55-0.34-1.65-0.69-2.21
				c-1.38,1.1-1.03,3.49-2.93,3.68c0,0.73,0,2.21-0.52,2.76C307.35,330.39,306.83,329.84,306.14,330.39z"/>
		</g>
		<g style="opacity:0.4;">
			<path style="fill:#DBE797;" d="M258.57,362.02l0.17,0.55c0.02-0.06,0.04-0.12,0.05-0.18
				C258.67,362.12,258.57,361.95,258.57,362.02z"/>
		</g>
		<g style="opacity:0.4;">
			<path style="fill:#DBE797;" d="M274.94,357.54c-0.17,0.19-1.26,1.19-1.43,1.38c-1.03-0.74-1.15-1.31-1.5-2.6
				c-0.86,0.92-1.55,2.21-2.59,3.13c-0.86-1.1-1.9-0.55-2.76,0.55c-0.17-0.18-0.34-0.37-0.51-0.55c-0.17,0.55-1.03,1.29-1.21,1.84
				c-0.17-0.18-0.69-0.37-1.03-0.55c-1.53,1.99-3.89-2.44-5.12,1.66c0.2,0.43,0.46,1.12,0.46,1.47c0.34-0.37,1.21-0.73,1.55-1.29
				c0.17,0.37,0.69,0.74,0.86,1.29c1.21-2.02,3.1-1.47,3.62,0.55c0.86-0.55,1.38-1.47,1.72-2.57c0.17,0.18,0.17,0.37,0.35,0.55
				c0.17-0.74,0.86-1.47,1.03-2.02c1.55,1.1,2.46,2.02,3.45,0.73c1.67-2.18,4.89-0.86,4.72-3.53
				C276.39,357.01,275.28,358.1,274.94,357.54z"/>
		</g>
		<g style="opacity:0.4;">
			<path style="fill:#DBE797;" d="M252.54,362.2c-0.17-0.37-0.35-0.55-0.35-0.92c-1.72,1.65-4.14-2.39-4.48,0.55v0.37
				c0,0,0,0.55,0.52,0.92c0.17-0.19,0.69-0.55,1.03-0.55c0.17,0.55,0.86,1.47,1.04,2.02c1.55-0.74,3.45-0.18,5-1.29
				c-0.52-0.92-1.03-1.65-1.55-2.39C253.4,361.65,252.88,361.65,252.54,362.2z"/>
		</g>
		<g style="opacity:0.4;">
			<path style="fill:#DBE797;" d="M297.87,346.02c0.69-0.74-0.34-5.33,2.07-2.58c-1.03-1.65-3.1-1.47-4.65-2.02
				c0.17,3.31-1.72,1.47-1.9,1.65c-1.21,0.55-1.72,1.47-2.93,2.57c-0.17-0.18-0.17-0.55-0.34-0.74c-0.17,1.29-0.52,2.94-1.9,2.76
				c-0.17,0.92-0.86,1.66-1.03,2.39c-0.35-0.55-1.21-0.92-1.73-1.47c-0.52,0.92-0.69,2.02-0.34,2.94l0.17-0.18
				c0.52-0.74,1.38,0.37,2.59,0c1.21-0.19,2.07-2.39,3.27-1.11c0.17-1.29,0.69-2.21,1.9-2.21
				C292.87,344.73,296.49,347.31,297.87,346.02z"/>
		</g>
		<g style="opacity:0.4;">
			<path style="fill:#DBE797;" d="M305.97,329.47c-0.86,1.66,0.86,3.31-2.76,3.13c0.52,0.55,1.04,1.47,1.72,2.02h-0.17
				c0.86,0.37,2.07,0.18,3.1-0.37c-0.86-1.29-0.17-2.39,1.21-2.76c-1.72-2.57,0.17-2.39,1.03-3.86c1.03-1.47,0.86-2.39,1.38-4.41
				c-0.17-0.18-0.52-0.18-0.69-0.37c0.34,1.29-0.35,2.39-1.55,2.57C310.62,328.37,306.66,328,305.97,329.47z"/>
		</g>
		<g style="opacity:0.27;">
			<path style="fill:#A4C154;" d="M250.3,365.51h0.17l-2.41-1.47c0.44,0.7,1.39,1.26,2.5,1.71
				C250.41,365.65,250.32,365.57,250.3,365.51z"/>
		</g>
		<g style="opacity:0.27;">
			<path style="fill:#A4C154;" d="M306.66,340.87c-1.21,2.76-2.07,1.47-3.96,3.13c-1.21,0.92-1.38,3.86-2.76,4.96
				c-0.86,0.55-1.9,0.37-2.59,0.92c-0.69,0.55-1.03,1.65-1.72,2.02c-1.72,1.1-3.79-0.18-5.17,1.1c-1.38,1.1-0.52,3.49-2.24,4.78
				c-1.38,1.1-3.96,1.29-5.52,2.39c-1.73,1.29-3.45,2.02-5.34,2.76c-3.79,1.29-7.41,2.58-11.03,4.05c-3.27,1.29-7.93,0.73-11.38,0
				c-1.1-0.21-2.88-0.61-4.4-1.23c1.22,0.84,6.4,2.93,7.33,3.25c2.93,0.55,6.72,0.55,9.65,0.73c2.41,0.18,2.93-1.1,4.83-1.84
				c1.72-0.74,3.79,0,5.51-0.55c2.41-0.74,3.45-3.12,5.52-4.04c1.9-0.74,4.65,0.55,5.86-0.18c1.21-0.55,2.24-3.5,3.45-4.6
				c1.73-1.47,2.93-1.1,4.65-2.02c2.24-1.1,1.38-3.12,3.1-4.78c1.72-1.65,3.1-1.65,4.48-3.49c2.07-3.13,4.48-5.15,5.51-9.19
				c0.52-2.02,0.35-3.49,1.21-5.52c0.69-1.84,1.55-3.68,2.24-5.7c-0.69,1.84-2.07,2.94-3.1,4.41c-0.86,1.47-0.86,3.68-1.72,4.96
				c-0.52,0.55-1.9,0.92-2.07,1.1C306.66,339.03,307,340.14,306.66,340.87z"/>
		</g>
		<g style="opacity:0.27;">
			<path style="fill:#A4C154;" d="M298.56,359.81c-1.21,0.92-1.21,2.02-2.07,2.94c-0.86,0.74-2.07,1.1-3.1,1.65
				c-1.03,0.73-1.38,1.47-2.76,1.84c-1.38,0.37-2.59,0.74-3.79,1.1c-0.34,0.18-0.69,0.74-1.21,0.74c-0.35,0.18-1.04-0.37-1.55-0.18
				c-1.03,0.18-2.93,2.02-3.79,0.92c-2.03,0.46-3.57,1.97-5.35,2.76c16.86-1.18,29.88-10.89,35.66-25.33
				c-0.78,0.52-1.72,0.88-2.57,1.79c-1.9,1.84-3.1,7.72-6.03,7.35c0.17,0.92,0.35,2.21,0.17,3.31
				C300.8,358.34,299.59,359.08,298.56,359.81z"/>
		</g>
		<g style="opacity:0.4;">
			<path style="fill:#DBE797;" d="M256.33,367.23c0.03-0.03,0.07-0.07,0.12-0.11l-0.01-0.01L256.33,367.23z"/>
		</g>
		<g style="opacity:0.4;">
			<path style="fill:#DBE797;" d="M285.06,359.99c-0.46,0-2.3,0-2.53,0.12c-1.03,0.61-0.8,1.47-1.15,2.45
				c-0.23-0.37-3.68-1.47-4.25-1.35c-1.15,0.49-0.58,3.8-1.95,3.06c-0.8,0.86-1.72,0.37-2.64,0.49c-1.15,0.12-1.72,0.98-2.64,1.23
				c-1.84,0.61-0.58,0-2.07-0.74c-1.15-0.61-1.72-0.12-2.41,0.61c-0.57,0.61-0.35,1.96-1.61,2.08c-0.81,0-0.81-0.86-1.15-0.86
				c-0.46,0-1.26,0.49-1.49,0.37c-0.69-0.12-0.58-0.25-1.15-0.49c-0.23-0.12-0.11-0.98-0.57-1.1c-0.64-0.34-2.38,0.7-2.98,1.24
				c0.12,1.82,2.53,0.36,2.98,2.19c1.38-0.86,2.64,1.96,3.79-0.37c2.07,1.72,1.72-0.12,3.56-0.49c1.26-0.24,2.76,1.84,3.91,1.47
				c0.81-0.25,0.81-1.47,1.38-2.08c1.15-0.98,0.46-0.37,1.72-0.24c1.03,0.24,0.46,0.86,1.61,0.37c0.57-0.25,0.92-1.35,1.61-1.72
				c1.49,1.59,4.83,0,4.71-2.21c1.03,0,2.18,0.25,3.22-0.12c-0.23-2.08,0.69-2.21,2.41-2.08c-0.21-0.77-0.23-1.34-0.11-1.77
				C286.58,360.13,285.79,359.99,285.06,359.99z"/>
		</g>
		<g style="opacity:0.4;">
			<path style="fill:#DBE797;" d="M288.67,358.86c-0.71,0.19-1.24,0.52-1.43,1.2C287.93,360,288.48,359.72,288.67,358.86z"/>
		</g>
		<g style="opacity:0.4;">
			<path style="fill:#DBE797;" d="M290.92,355.7c-0.11,0.98-1.15,3.07-2.18,2.21c0.02,0.38-0.01,0.69-0.07,0.95
				c1.54-0.42,3.87-0.21,5.12-1.68C292.75,356.81,291.72,356.81,290.92,355.7z"/>
		</g>
		<g style="opacity:0.4;">
			<path style="fill:#DBE797;" d="M306.2,340.75c0.23,0.25,0.35,0.61,0.46,0.73c-0.8,0.12-1.61-0.12-2.41,0.12
				c-1.38,0.49-0.57,0.74-1.15,1.96c-0.81,1.72-1.84,2.57-3.33,3.68c-1.26,0.98-1.84,2.57-2.41,3.68c-0.46,0.74-0.92,0-0.92,1.35
				c0,0.37,0.23,0.86,0.46,1.23l-0.12,0.37c1.38-0.86,2.53-1.96,4.02-2.33c-1.61-2.08,1.38-0.98,2.07-1.35c0,0,1.72-2.94,1.72-3.06
				c0.46-1.35-0.69-2.09,0.92-3.19c0.92-0.61,2.41-0.24,3.45-0.73c-1.61-1.47,0.23-2.21,0.57-3.56c0.57-1.84-0.69-1.72-1.15-3.31
				C306.31,337.19,309.53,341.97,306.2,340.75z"/>
		</g>
		<g style="opacity:0.4;">
			<path style="fill:#DBE797;" d="M285.17,353.01c-0.58-1.1-1.03-0.12-1.72-0.61c-0.69-0.49-0.8-1.35-1.61-1.84
				c-0.23,1.1-1.26,2.82-2.3,1.47c-0.34,0.74-0.8,1.23-1.61,0.98c0,0.98-0.12,2.08-0.46,2.94l-0.11,0.24
				c0.69-0.49,1.49-0.24,2.41-0.49c1.26-0.24,1.72-0.86,3.33,0C281.27,353.5,283.33,353.01,285.17,353.01z"/>
		</g>
		<g style="opacity:0.4;">
			<path style="fill:#DBE797;" d="M303.44,337.56c0.23-0.86-1.03-1.72-1.5-2.45c-0.34,0.61-0.8,0.74-1.26,1.1
				c0.12-0.12,0.23-0.37,0.35-0.49c-1.26,0.74-2.41,1.1-1.61,2.82v0.12c0.12,0,1.03,0.98,1.84,0.98c-0.23-0.37-0.12-1.1-0.23-1.35
				C301.83,338.67,303.1,338.79,303.44,337.56z"/>
		</g>
		<g style="opacity:0.4;">
			<path style="fill:#DBE797;" d="M293.39,364.41c0.46-0.25,2.01-0.12,2.47-0.49c0.81-0.61,0.46-2.82,1.15-3.55
				c0.92-0.98,3.78-0.29,4.25-1.59c0.89-2.45,5.62-3.68,3.22-6.13c-0.23,0.98-0.57,2.08-1.38,2.33c-0.35,0-1.15-0.98-2.07-0.49
				c-1.73,0.86-0.23,0.98-0.58,2.33c-0.23,0.98-0.8,1.47-1.84,0.37c0,2.7-1.61,0.98-2.87,0.73c0,1.1,0.23,4.78-1.61,4.05
				c0,0.86-0.23,1.35-0.92,0.86c-0.34,0.86-1.72,1.35-2.3,2.33c-0.8-0.61-1.72-1.23-2.76-0.98c0.23,1.96-0.69,1.23-1.72,1.59
				c-1.72,0.61-0.8,0.37-1.84,1.96c-1.15-0.73-1.72,1.47-2.76-0.37c-0.69,0.49-1.26,1.35-1.72,2.08v0.24
				c0.92,0.12,2.3,0.12,3.33-0.12c2.3-0.37,2.64-2.33,4.94-3.31c1.26-0.49,3.33,0.37,4.48-0.49
				C293.33,365.39,292.81,364.78,293.39,364.41z"/>
		</g>
		<g style="opacity:0.4;">
			<path style="fill:#DBE797;" d="M307.12,347.74c-0.23,0.61-0.35,1.35-0.12,1.96l0.12,0.12c0.34,0.25,0.57,0.37,1.15,0.25
				c-0.11-1.84,2.18-2.33,1.84-4.04C309.07,346.51,308.38,348.84,307.12,347.74z"/>
		</g>
		<g style="opacity:0.4;">
			<path style="fill:#DBE797;" d="M310.56,337.32c1.27-0.49,1.04-1.23,1.38-2.21c0.11-0.25-0.11-0.74-0.11-0.98
				c0.23-0.49,0.8-0.61,1.03-0.98c0.69-1.84,0.11-4.05,0.69-5.52l0.23-0.37c-0.57,0-1.38,0.12-1.61,0.73
				c-0.23,0.61,0.69,1.35,0.69,1.96c0,1.23-0.23,0.61-0.69,1.35c0,0.12-0.8,0.98-0.92,1.23c0.23-0.37-0.81,2.08-0.81,1.35
				C310.45,335.11,312.17,335.97,310.56,337.32z"/>
		</g>
		<g style="opacity:0.4;">
			<path style="fill:#DBE797;" d="M246.51,301.52c0-0.92-0.35-0.55-0.69-0.73l-0.52,0.55c0.17-0.18-0.69,0-0.86,0
				c-0.34,1.1-0.17,0.73-1.03,1.29c0,0.74-0.17,0.74-0.52,1.29c0,1.29-1.72,1.84-2.59,3.31c0.17,0.18,0.86,0.55,1.03,0.55
				l-0.17-0.55c1.55-0.55,2.24-2.94,3.62-2.94c0.17-0.73,0.17-0.55,0.52-1.1C244.78,301.89,245.3,301.34,246.51,301.52z"/>
		</g>
		<g style="opacity:0.4;">
			<path style="fill:#DBE797;" d="M234.96,316.6c0.69-1.29,2.24-0.55,1.72-2.57l-0.35,0.55c-1.9,0.92-2.41,3.31-2.93,5.52
				c-0.34,1.65-0.68,2.57-0.86,4.22c0,1.84,0.17,3.31-1.55,4.6c1.9,1.66,0.34,3.86,0.69,5.88c0.35,2.02,1.38,2.94,1.55,5.33
				c0.17-0.55-0.17-1.47,0-2.02c0,0,0.69-2.39,0.69-2.21c0-0.92,0.17-1.65-1.03-2.94c1.55-2.02,0.69-7.54,2.07-8.09
				c-1.03-2.39-0.17-4.05,0-5.88C234.96,318.81,234.96,316.97,234.96,316.6z"/>
		</g>
		<g style="opacity:0.4;">
			<path style="fill:#DBE797;" d="M233.58,345.31c0.37,2.61,4.66,13.4,8.27,12.66c-1.9-1.29-0.69-2.02-1.72-3.68
				c-0.86-1.47-4.48-3.49-3.79-5.7C233.99,348.06,235.38,345.62,233.58,345.31z"/>
		</g>
		<g style="opacity:0.47;">
			<path style="fill:#C2DB70;" d="M271.8,365.61c-0.02,0.02-0.04,0.04-0.05,0.05c-0.04,0.14-0.07,0.28-0.1,0.45L271.8,365.61z"/>
		</g>
		<g style="opacity:0.47;">
			<path style="fill:#C2DB70;" d="M280.85,364.95c1.41-0.5,0.78-0.33,1.72-1.17c0.94-0.67,3.12-1.83,2.34-2.83
				c-0.94,0.67-1.56,1.67-2.19,2.33c-0.16,0.17-0.47-0.67-0.47-0.67c0.31,2.17-1.09,0.17-2.03,0c-1.25-0.17-2.5,1-3.43,0
				c-0.31,0-1.09,0.33-1.41,0.5c0.15,3.18-2.83-0.31-3.65,2.55c0.02-0.02,0.04-0.04,0.05-0.05l-0.16,0.5
				c0.03-0.17,0.06-0.31,0.1-0.45c-0.62,0.64-1.53,1.13-2.29,1.78c0.78-0.67,1.72-0.67,2.34,0.16c1.09-1,2.5-0.83,3.75-0.83
				c0.16-1.17,0.78-1.66,1.56-0.67c0.62-0.33,0.94-0.33,1.72-0.5c0-0.33-0.15-0.67-0.15-1
				C279.45,364.45,280.38,365.12,280.85,364.95z"/>
		</g>
		<g style="opacity:0.47;">
			<path style="fill:#C2DB70;" d="M298.03,350.96c-0.03-0.15-0.05-0.29-0.06-0.44c-0.07,0.24-0.14,0.45-0.19,0.57L298.03,350.96z"/>
		</g>
		<g style="opacity:0.47;">
			<path style="fill:#C2DB70;" d="M297.78,351.09l-0.06,0.03C297.72,351.22,297.74,351.19,297.78,351.09z"/>
		</g>
		<g style="opacity:0.47;">
			<path style="fill:#C2DB70;" d="M305.37,344.96c-0.01,0.02-0.02,0.04-0.03,0.06c0.07,0.04,0.14,0.08,0.18,0.11L305.37,344.96z"/>
		</g>
		<g style="opacity:0.47;">
			<path style="fill:#C2DB70;" d="M305.34,345.02c-0.4-0.25-1.09-0.75-1.22-0.89c0.31,1.17-1.41,3.17-2.34,3.17
				c-1.41-0.17-1.09-2.5-3.12-1.17c0.62,1.17,1.09,2.67-0.47,2.83c-0.12,0.52-0.24,1.04-0.21,1.56c0.08-0.26,0.16-0.54,0.21-0.72
				C300.35,351.77,304.36,347.05,305.34,345.02z"/>
		</g>
		<g style="opacity:0.47;">
			<path style="fill:#C2DB70;" d="M290.53,348.13c-0.02-0.01-0.04-0.03-0.06-0.04c-0.03,0.01-0.07,0.02-0.1,0.04
				C290.38,348.29,290.53,348.29,290.53,348.13z"/>
		</g>
		<g style="opacity:0.47;">
			<path style="fill:#C2DB70;" d="M297.41,339.96c-0.16,2.17-1.87,0.17-2.97,1.5c0.31,1.33-0.31,1.67-1.4,1.33
				c0,1.17-0.47,2-1.72,1.17c0.29,0.77,0.44,1.54,0.46,2.31c0.07-0.1,0.12-0.2,0.16-0.31l-0.16,0.5c0-0.06-0.01-0.13-0.01-0.19
				c-0.43,0.64-1.34,1.02-2.02,1.02c0.15,0.31,0.43,0.62,0.73,0.79c0.76-0.29,1.66-0.3,2.55-0.46c-0.16-0.17-0.16-0.67-0.31-0.83
				c0.78-0.33,1.56-0.67,2.19-1.17c-0.16-1.17,0.47-1.66,1.56-1.66c-0.31-1.17,1.72-3,2.34-4.17
				C298.34,339.63,297.87,339.79,297.41,339.96z"/>
		</g>
		<g style="opacity:0.47;">
			<path style="fill:#C2DB70;" d="M291.94,345.96c-0.04,0.11-0.1,0.21-0.16,0.31c0,0.06,0.01,0.13,0.01,0.19L291.94,345.96z"/>
		</g>
		<g style="opacity:0.47;">
			<path style="fill:#C2DB70;" d="M261.02,361.62v-0.5l0,0C261.01,361.26,261.01,361.42,261.02,361.62z"/>
		</g>
		<g style="opacity:0.47;">
			<path style="fill:#C2DB70;" d="M268.99,359.29c-1.4-0.67-2.5,1.33-3.59,0.16c0,0.5-0.63,1.17-0.78,1.67
				c-0.16-0.17-0.31-0.5-0.47-0.83c-1.3,1.08-3.01-0.99-3.12,0.83l0,0v0.5c-0.01-0.19-0.01-0.36,0-0.5
				c-0.62,0.5-1.09,1.16-1.25,1.66c0.47,0,1.56-0.5,1.87-0.5c-0.16,0,1.87,0.5,1.72,0.5c1.56-0.17,2.65-0.67,4.22-1.17
				C267.11,360.45,268.05,359.45,268.99,359.29z"/>
		</g>
		<g style="opacity:0.47;">
			<path style="fill:#C2DB70;" d="M293.81,363.12c-0.05-0.15-0.09-0.29-0.12-0.41c-0.07,0.02-0.13,0.05-0.19,0.08L293.81,363.12z"/>
		</g>
		<g style="opacity:0.47;">
			<path style="fill:#C2DB70;" d="M300.37,357.62c-0.16-0.33-0.47-1-0.78-1.33c-0.31,0-0.94,0.33-1.09,0.5
				c0.16,1.33-0.94,2.5-1.87,2c-0.31,1.17-0.62,2-1.25,2.83c-0.44,0.47-2.1-0.66-1.68,1.09c0.62-0.21,1.45-0.02,2.15,0.58
				c0-0.17,0.47-0.33,0.47-0.33c0-1.17,2.65-3.33,4.06-3.83C298.97,358.45,299.12,356.79,300.37,357.62z"/>
		</g>
	</g>
</g>
</svg>
