<?xml version="1.0" encoding="iso-8859-1"?>
<!-- Generator: Adobe Illustrator 23.0.2, SVG Export Plug-In . SVG Version: 6.00 Build 0)  -->
<svg version="1.1" id="Layer_1" xmlns="http://www.w3.org/2000/svg" xmlns:xlink="http://www.w3.org/1999/xlink" x="0px" y="0px"
	 viewBox="0 0 595.276 841.89" style="enable-background:new 0 0 595.276 841.89;" xml:space="preserve">
<g>
	<path style="fill:#57A145;" d="M262.933,325.345l11.86,0.33c6.15,0,10.65-0.44,13.5-1.33c0.41,1.56,0.62,3.33,0.62,5.34
		c0,2-0.45,3.8-1.35,5.39c-0.9,1.59-1.99,2.39-3.26,2.39l-6.47-1.45c0,0.52-0.09,2.82-0.28,6.9c-0.52,10.01-0.79,20.05-0.79,30.13
		s0.39,20.16,1.18,30.24c-1.24,0.89-2.53,1.34-3.88,1.34s-2.51-0.75-3.49-2.28c-0.98-1.52-1.46-3.81-1.46-6.89s0.19-8.51,0.56-16.28
		c0.37-7.78,0.56-15.37,0.56-22.74c0-7.38-0.19-14.25-0.56-20.62c-4.54,0.44-8.08,1.7-10.63,3.78c-0.45-1.7-0.68-3.61-0.68-5.73
		c0-2.11,0.43-4.06,1.29-5.84C260.533,326.235,261.623,325.345,262.933,325.345z"/>
	<path style="fill:#57A145;" d="M328.273,404.615c-1.16,0.89-2.42,1.34-3.77,1.34s-2.4-0.48-3.15-1.45
		c-0.75-0.96-1.37-2.41-1.86-4.34c-0.71-2.82-1.52-7.62-2.42-14.4c-0.9-6.78-1.61-14.21-2.14-22.29
		c-3.15,19.79-4.95,33.28-5.4,40.46c-1.65,0.89-3.13,1.34-4.44,1.34c-2.14,0-3.71-1.54-4.72-4.62s-1.74-7.1-2.19-12.06
		c0-0.15-0.28-3.26-0.84-9.34s-0.98-10.3-1.24-12.67c-0.86-8.68-1.75-15.94-2.67-21.8c-0.92-5.85-2.26-9.85-4.02-12.01
		c0.45-2.22,1.14-3.96,2.08-5.23c0.94-1.26,1.99-1.89,3.15-1.89c2.59,0,4.44,3.85,5.57,11.56c0.79,5.41,1.72,14.58,2.81,27.52
		s1.89,22.17,2.42,27.74c4.23-23.42,6.35-38.91,6.35-46.47c0-1.56-0.09-2.63-0.28-3.22c0.79-1.78,1.9-2.67,3.34-2.67
		c1.45,0,2.57,0.78,3.38,2.34c0.8,1.56,1.45,4.06,1.94,7.5c0.49,3.45,1.17,10.17,2.05,20.18s1.56,17.46,2.05,22.34
		c1.5-9.34,2.69-16.86,3.57-22.57c0.88-5.7,1.8-12.9,2.76-21.57c0.96-8.67,1.43-15.68,1.43-21.01c0-0.97-0.02-1.67-0.05-2.11
		c0.48-0.15,1.31-0.22,2.47-0.22s2.19,0.73,3.07,2.17s1.32,3.76,1.32,6.94c0,3.19-0.59,8.53-1.77,16.01
		c-1.18,7.49-2.7,16.58-4.55,27.29C330.663,388.145,329.253,397.205,328.273,404.615z"/>
	<path style="fill:#57A145;" d="M357.573,405.955c-5.47,0-9.64-3.58-12.48-10.73c-2.85-7.15-4.27-16.53-4.27-28.13
		s1.76-21.62,5.29-30.07c3.52-8.45,8.01-12.67,13.47-12.67c5.46,0,9.62,3.63,12.48,10.9c2.87,7.26,4.3,16.71,4.3,28.35
		c0,11.64-1.76,21.61-5.29,29.91C367.543,401.805,363.043,405.955,357.573,405.955z M368.933,364.145c0-8.82-0.91-15.95-2.73-21.4
		c-1.82-5.45-4.66-8.17-8.52-8.17c-2.32,0-4.39,1.48-6.18,4.45c-1.01,3.12-1.81,7.3-2.39,12.56c-0.58,5.26-0.87,10.26-0.87,15.01
		c0,8.74,0.9,15.74,2.7,21.01c1.8,5.26,4.65,7.89,8.55,7.89c2.14,0,3.95-1.71,5.46-5.12
		C367.603,384.235,368.933,375.485,368.933,364.145z"/>
</g>
</svg>
