<?xml version="1.0" encoding="iso-8859-1"?>
<!-- Generator: Adobe Illustrator 23.0.2, SVG Export Plug-In . SVG Version: 6.00 Build 0)  -->
<svg version="1.1" id="Layer_1" xmlns="http://www.w3.org/2000/svg" xmlns:xlink="http://www.w3.org/1999/xlink" x="0px" y="0px"
	 viewBox="0 0 595.276 841.89" style="enable-background:new 0 0 595.276 841.89;" xml:space="preserve">
<g>
	<path style="fill:#57A145;" d="M232.077,392.057c0,3.83-1.04,7.13-3.11,9.89c-2.08,2.76-4.97,4.14-8.68,4.14s-10.2-0.34-19.47-1.01
		c-9.27-0.68-16.43-1.01-21.46-1.01c-2.04-3.83-3.05-7.87-3.05-12.09c0-4.23,1.37-8.68,4.11-13.36c2.73-4.68,6.05-9.08,9.93-13.19
		c3.89-4.12,7.75-8.26,11.6-12.43c3.84-4.17,7.13-8.8,9.87-13.87c2.73-5.07,4.1-9.9,4.1-14.46c0-4.57-0.97-8.32-2.91-11.25
		c-1.94-2.93-4.59-4.4-7.95-4.4c-3.35,0-6.13,1.18-8.34,3.55c-1.77,3.38-2.65,7.24-2.65,11.58s0.26,7.7,0.79,10.07
		c-1.77,0.56-3.23,0.84-4.38,0.84c-3.53,0-6.52-1.27-8.94-3.8c-2.43-2.54-3.64-5.95-3.64-10.24c0-8.23,3-14.94,9.01-20.13
		c6.01-5.18,12.67-7.78,20.01-7.78c7.33,0,13.38,2.51,18.15,7.53c4.76,5.02,7.15,11.93,7.15,20.72c0,5.19-1.28,10.43-3.84,15.73
		c-2.56,5.3-5.65,10.18-9.27,14.63c-3.63,4.46-7.29,8.82-11,13.11c-8.75,10.04-13.12,18.5-13.12,25.37
		c13.87-0.22,25.7-3.04,35.51-8.46C231.547,384.787,232.077,388.227,232.077,392.057z"/>
</g>
</svg>
