<?xml version="1.0" encoding="utf-8"?>
<!-- Generator: Adobe Illustrator 26.5.0, SVG Export Plug-In . SVG Version: 6.00 Build 0)  -->
<svg version="1.1" id="Layer_1" xmlns="http://www.w3.org/2000/svg" xmlns:xlink="http://www.w3.org/1999/xlink" x="0px" y="0px"
	 viewBox="0 0 113.46 165.21" style="enable-background:new 0 0 113.46 165.21;" xml:space="preserve">
<style type="text/css">
	.st0{fill:#70B744;}
	.st1{fill:#FFFFFF;}
	.st2{fill:#58A144;}
	.st3{fill:#31451D;}
	.st4{fill:#F8EFD1;}
	.st5{fill:#F04E55;}
	.st6{opacity:0.36;}
	.st7{fill:#F8ABAA;}
	.st8{opacity:0.25;}
	.st9{fill:#F7A7A8;}
	.st10{fill:#B21F24;}
	.st11{opacity:0.5;}
	.st12{fill:#FAF9D4;}
	.st13{opacity:0.38;}
	.st14{fill:#DAE697;}
	.st15{fill:#EF3B3B;}
	.st16{fill:#F9BBB9;}
	.st17{opacity:0.46;}
	.st18{opacity:0.31;}
	.st19{fill:#749344;}
	.st20{opacity:0.49;}
	.st21{fill:#321210;}
	.st22{fill:#2B2928;}
	.st23{fill:#6C6C6B;}
	.st24{fill:#090909;}
	.st25{opacity:0.27;}
	.st26{fill:#A4C155;}
	.st27{opacity:0.4;}
	.st28{opacity:0.47;}
	.st29{fill:#C1DA6F;}
</style>
<g>
	<path class="st0" d="M131.94,563.4c0,16.37-12.11,29.64-27.04,29.64H-87.02c-14.93,0-27.04-13.27-27.04-29.64V269.67
		c0-16.37,12.11-29.64,27.04-29.64H104.9c14.93,0,27.04,13.27,27.04,29.64V563.4z"/>
	<path class="st1" d="M120.73,556.44c0,13.09-9.68,23.71-21.63,23.71H-81.22c-11.95,0-21.63-10.62-21.63-23.71V276.63
		c0-13.09,9.68-23.71,21.63-23.71H99.1c11.95,0,21.63,10.62,21.63,23.71V556.44z"/>
</g>
<g>
	<path class="st2" d="M-7.2,490.42l11.86,0.33c6.15,0,10.65-0.44,13.5-1.33c0.41,1.56,0.62,3.33,0.62,5.34c0,2-0.45,3.8-1.35,5.39
		c-0.9,1.59-1.99,2.39-3.26,2.39l-6.47-1.45c0,0.52-0.09,2.82-0.28,6.9C6.9,518,6.63,528.04,6.63,538.12
		c0,10.08,0.39,20.16,1.18,30.24c-1.24,0.89-2.53,1.34-3.88,1.34s-2.51-0.75-3.49-2.28c-0.98-1.52-1.46-3.81-1.46-6.89
		c0-3.08,0.19-8.51,0.56-16.28c0.37-7.78,0.56-15.37,0.56-22.74c0-7.38-0.19-14.25-0.56-20.62c-4.54,0.44-8.08,1.7-10.63,3.78
		c-0.45-1.7-0.68-3.61-0.68-5.73c0-2.11,0.43-4.06,1.29-5.84C-9.6,491.31-8.51,490.42-7.2,490.42z"/>
	<path class="st2" d="M58.14,569.69c-1.16,0.89-2.42,1.34-3.77,1.34c-1.35,0-2.4-0.48-3.15-1.45c-0.75-0.96-1.37-2.41-1.86-4.34
		c-0.71-2.82-1.52-7.62-2.42-14.4c-0.9-6.78-1.61-14.21-2.14-22.29c-3.15,19.79-4.95,33.28-5.4,40.46
		c-1.65,0.89-3.13,1.34-4.44,1.34c-2.14,0-3.71-1.54-4.72-4.62c-1.01-3.08-1.74-7.1-2.19-12.06c0-0.15-0.28-3.26-0.84-9.34
		c-0.56-6.08-0.98-10.3-1.24-12.67c-0.86-8.68-1.75-15.94-2.67-21.8c-0.92-5.85-2.26-9.85-4.02-12.01c0.45-2.22,1.14-3.96,2.08-5.23
		c0.94-1.26,1.99-1.89,3.15-1.89c2.59,0,4.44,3.85,5.57,11.56c0.79,5.41,1.72,14.58,2.81,27.52c1.09,12.94,1.89,22.17,2.42,27.74
		c4.23-23.42,6.35-38.91,6.35-46.47c0-1.56-0.09-2.63-0.28-3.22c0.79-1.78,1.9-2.67,3.34-2.67c1.45,0,2.57,0.78,3.38,2.34
		c0.8,1.56,1.45,4.06,1.94,7.5c0.49,3.45,1.17,10.17,2.05,20.18c0.88,10.01,1.56,17.46,2.05,22.34c1.5-9.34,2.69-16.86,3.57-22.57
		c0.88-5.7,1.8-12.9,2.76-21.57c0.96-8.67,1.43-15.68,1.43-21.01c0-0.97-0.02-1.67-0.05-2.11c0.48-0.15,1.31-0.22,2.47-0.22
		c1.16,0,2.19,0.73,3.07,2.17c0.88,1.44,1.32,3.76,1.32,6.94c0,3.19-0.59,8.53-1.77,16.01c-1.18,7.49-2.7,16.58-4.55,27.29
		C60.53,553.22,59.12,562.28,58.14,569.69z"/>
	<path class="st2" d="M87.44,571.03c-5.47,0-9.64-3.58-12.48-10.73c-2.85-7.15-4.27-16.53-4.27-28.13c0-11.6,1.76-21.62,5.29-30.07
		c3.52-8.45,8.01-12.67,13.47-12.67c5.46,0,9.62,3.63,12.48,10.9c2.87,7.26,4.3,16.71,4.3,28.35c0,11.64-1.76,21.61-5.29,29.91
		C97.41,566.88,92.91,571.03,87.44,571.03z M98.8,529.22c0-8.82-0.91-15.95-2.73-21.4c-1.82-5.45-4.66-8.17-8.52-8.17
		c-2.32,0-4.39,1.48-6.18,4.45c-1.01,3.12-1.81,7.3-2.39,12.56c-0.58,5.26-0.87,10.26-0.87,15.01c0,8.74,0.9,15.74,2.7,21.01
		c1.8,5.26,4.65,7.89,8.55,7.89c2.14,0,3.95-1.71,5.46-5.12C97.47,549.31,98.8,540.56,98.8,529.22z"/>
</g>
<g>
	<path class="st2" d="M-25.33,363.73c0,3.83-1.04,7.13-3.11,9.89c-2.08,2.76-4.97,4.14-8.68,4.14c-3.71,0-10.2-0.34-19.47-1.01
		c-9.27-0.68-16.43-1.01-21.46-1.01c-2.04-3.83-3.05-7.87-3.05-12.09c0-4.23,1.37-8.68,4.11-13.36c2.73-4.68,6.05-9.08,9.93-13.19
		c3.89-4.12,7.75-8.26,11.6-12.43c3.84-4.17,7.13-8.8,9.87-13.87c2.73-5.07,4.1-9.9,4.1-14.46c0-4.57-0.97-8.32-2.91-11.25
		s-4.59-4.4-7.95-4.4c-3.35,0-6.13,1.18-8.34,3.55c-1.77,3.38-2.65,7.24-2.65,11.58c0,4.34,0.26,7.7,0.79,10.07
		c-1.77,0.56-3.23,0.84-4.38,0.84c-3.53,0-6.52-1.27-8.94-3.8c-2.43-2.54-3.64-5.95-3.64-10.24c0-8.23,3-14.94,9.01-20.13
		c6.01-5.18,12.67-7.78,20.01-7.78c7.33,0,13.38,2.51,18.15,7.53c4.76,5.02,7.15,11.93,7.15,20.72c0,5.19-1.28,10.43-3.84,15.73
		c-2.56,5.3-5.65,10.18-9.27,14.63c-3.63,4.46-7.29,8.82-11,13.11c-8.75,10.04-13.12,18.5-13.12,25.37
		c13.87-0.22,25.7-3.04,35.51-8.46C-25.86,356.46-25.33,359.9-25.33,363.73z"/>
</g>
<g>
	<g>
		<g>
			<path class="st3" d="M25.89,400.45c-1.35,5.24-2.95,3.61-4.95,4.47l-0.46-0.25c0.23,1.47,2.23,3.24,2.68,4.96
				c2.58-2.63,2.45-4.13,3.38-7.47c0.81-2.9,2.29-2.46,3.58-3.38c0-0.49-0.46-1.23-0.69-1.72
				C28.09,397.89,26.32,398.77,25.89,400.45z"/>
		</g>
		<g>
			<path class="st3" d="M23.59,407.33c0.02,0.25,0.04,0.49,0.05,0.75l-0.33-0.69C23.41,407.36,23.5,407.35,23.59,407.33
				c-2.16-29.74-43.87-22.68-56.1-8.26c-9.41,11.08-14.77,21.2-12.63,38.09c1.94,15.23,15.42,28.25,29.26,31.04
				c31.73,6.39,55.1-14.76,53.48-44.89C36.96,413.35,34.4,405.1,23.59,407.33z"/>
		</g>
		<g>
			<path class="st3" d="M23.65,408.07c-0.01-0.25-0.04-0.5-0.05-0.75c-0.09,0.02-0.18,0.03-0.27,0.05L23.65,408.07z"/>
		</g>
		<g>
			<path class="st4" d="M23.25,407.37C22.34,388.96,7,384.88-8.03,387.15c-9.96,1.51-19.01,10.22-23.74,16.19
				c-7.85,9.9-10.89,21.21-8.41,35.89c1.46,8.65,4.97,14.08,11.06,16.84c2.86,1.29,11.18,0.81,19.05-1.8
				c15.44-5.11,31.71-20.32,41.36-31.63c2.93-3.43,5.39-7.28,4.02-10.2C33.33,408.25,29.76,405.94,23.25,407.37z"/>
		</g>
		<g>
			<path class="st5" d="M17.95,412.51l-0.46,0.25c-7.81,1.72-17.47,11.28-23.67,16.92c-6.9,6.37-17.01,16.18-20.22,25.49
				c6.66,0.25,10.11-1.47,15.63-4.66c5.51-2.94,10.8-4.41,15.86-9.07c7.35-6.37,17.24-12.99,22.98-21.08
				C35.88,409.57,25.08,410.31,17.95,412.51z"/>
		</g>
		<g>
			<path class="st5" d="M-3.65,391.43c-10.11,0.49-20.45,7.6-26.66,15.94c-5.74,8.34-8.27,20.35-6.9,30.4
				c0.69,4.66,2.3,10.54,5.29,13.73c1.38,1.47,4.14,2.7,5.29,3.68v-0.24c0.69,0.49,4.14-3.68,5.74-5.15
				c7.81-7.6,14.94-15.69,23.21-22.8c3.91-3.68,8.04-7.35,11.95-10.79c1.84-1.72,4.83-3.43,5.29-5.64c0.23-1.23-0.46-4.66-0.69-5.88
				C17.72,395.1,4.62,390.94-3.65,391.43z"/>
		</g>
		<g class="st6">
			<path class="st7" d="M8.99,418.15c-1.61,0.73-3.45,0.49-4.83,1.47c-0.69,0.49-2.3,3.43-2.99,4.17c-2.07,2.45-5.29,5.64-6.44,8.58
				c3.68-5.15,10.8-9.56,15.63-13.24c2.3-1.72,7.35-3.92,8.73-6.87c0.92-1.96,0-5.39,0-7.35l-0.46-0.25
				C20.94,409.08,12.67,416.19,8.99,418.15z"/>
		</g>
		<g class="st8">
			<path class="st9" d="M-8.99,421.58c-3.97,2.21-7.41,3.49-8.27,8.46c-0.69,3.49-1.55,7.35-2.76,10.66
				c-1.03,3.13-3.79,5.15-4.83,8.09l-1.21,1.1c1.72-0.18,3.96-2.21,5.69-3.31c3.62-2.76,7.07-4.6,9.48-8.64
				c2.41-3.68,6.29-5.5,9.65-8.09c4.38-3.37,5.17-5.46,8.45-8.64c2.12-2.06,8.27-4.78,9.31-7.72c-4.65,1.84-9.48,2.39-14.31,2.76
				C-2.27,416.62-5.2,419.56-8.99,421.58z"/>
		</g>
		<g>
			<path class="st10" d="M-27.88,453.93l-0.36-0.23C-28.13,453.77-28.01,453.85-27.88,453.93z"/>
		</g>
		<g>
			<path class="st10" d="M-16.06,444.38c3.91-3.68,8.05-7.11,11.72-10.79c7.36-7.11,14.94-14.22,22.98-20.35
				c-4.6,1.72-8.27,6.13-12.41,9.07c-2.3,1.72-3.68,3.68-5.98,5.39c-1.84,1.47-4.37,1.72-6.43,3.43c-3.45,2.94-5.52,7.35-8.96,10.54
				c-1.84,1.72-4.6,1.96-6.43,3.68c-0.69,0.49-0.69,1.96-1.61,2.7c-1.38,0.98-2.3,0.49-3.68,0.98c-1.61,0.98-3.22,0.74-1.84,3.43
				c-0.46,0-0.92,0.49-1.38,0.49c0.92,0.49,2.07,1.23,2.99,1.47l-0.79-0.51c-0.13-0.08-0.25-0.15-0.36-0.23l0.36,0.23
				c0.69,0.41,1.63,0.79,2.4,1C-25.25,450.76-18.82,446.83-16.06,444.38z"/>
		</g>
		<g class="st11">
			<g>
				<path class="st12" d="M23.25,407.37C22.34,388.96,7,384.88-8.03,387.15c-9.96,1.51-19.01,10.22-23.74,16.19
					c-7.85,9.9-10.89,21.21-8.41,35.89c1.46,8.65,4.97,14.08,11.06,16.84c2.86,1.29,11.18,0.81,19.05-1.8
					c15.44-5.11,31.71-20.32,41.36-31.63c2.93-3.43,5.39-7.28,4.02-10.2C33.33,408.25,29.76,405.94,23.25,407.37z M28.75,414.59
					c0.88,3.84-0.69,2.7-1.38,3.92c-0.46,0.49-2.64,2.17-3.1,3.15c0.17,1.61-3.33,3.65-3.79,4.14c-1.84,2.45-3.1,4.6-5.86,4.97
					c-2.07,1.96-3.33,3.74-5.17,5.7c-1.61,1.47-4.7,2.63-6.31,3.86c-1.84,1.47-3.74,3.74-5.81,4.96c-1.84,0.98-3.05,1.78-5.11,3
					c-1.15,0.73-2-1.19-3.38-0.7c-1.15,0.49-1.91,2.91-3.06,3.4c-2.3,0.74-3.05,0.95-5.29,1.72c-7.12,2.45-7.81-1.47-12.18-2.45
					c0.69-2.45-0.92-3.86-2.89-7.36c-2.33-4.13-2.08-7.78-0.47-11.95c0.69-1.72-0.69-7.33,0-9.29c0.69-1.47,2.16-4.44,2.62-6.15
					c0.46-1.47,1.03-3.12,1.72-4.35c0.46-0.49,2.15-0.8,2.97-2.27c0.82-1.47,0.92-3.5,2.62-5.55c1.7-2.05,4.59-5.36,8.61-6.19
					c6.43-1.32,9.04-6.04,18.69-3.34c5.52,1.47,8.83,1.2,12.26,4.97c4.19,4.61,1.95,13.14,4.19,14.46
					C20.58,414.39,27.88,410.76,28.75,414.59z"/>
			</g>
		</g>
		<g class="st13">
			<g>
				<path class="st14" d="M23.25,407.37C22.34,388.96,7,384.88-8.03,387.15c-9.96,1.51-19.01,10.22-23.74,16.19
					c-7.85,9.9-10.89,21.21-8.41,35.89c1.46,8.65,4.97,14.08,11.06,16.84c2.86,1.29,11.18,0.81,19.05-1.8
					c15.44-5.11,31.71-20.32,41.36-31.63c2.93-3.43,5.39-7.28,4.02-10.2C33.33,408.25,29.76,405.94,23.25,407.37z M31.88,411.16
					c-0.54,3.08,1.99,2.33,1.03,6.46c-0.95,2.38-4.77,4.05-5.45,6.45c0.17,1.61-4.45,4.74-4.91,5.23c-1.84,2.45-2.55,5.01-5.3,5.38
					c-2.07,1.96-4.56,2.54-6.4,4.5c-1.61,1.47-3.06,2.99-4.67,4.21c-1.84,1.47-4.16,1.82-6.23,3.05c-1.84,0.98-3.59,2.78-5.66,4
					c-1.15,0.74-2.78,0.16-4.16,0.65c-1.15,0.49-2.33,2.13-3.48,2.62c-2.3,0.73-3.81,0.43-6.04,1.2c-7.12,2.45-9.99-1.12-12.26-1.93
					c-2.64-3.38-2.53-3.19-4.5-6.69c-2.33-4.14-4.74-10.79-3.13-14.96c0.69-1.72-0.14-7.72,0.55-9.68c0.69-1.47,2.18-5.62,2.64-7.33
					c0.46-1.47,1.85-3.49,2.53-4.71c0.46-0.49,3.27-3.49,4.09-4.96c0.82-1.47,1.72-2.81,3.43-4.86c1.7-2.05,6.31-6.01,10.33-6.83
					c6.43-1.31,10.01-6.18,19.66-3.49c5.51,1.47,9.63,2.27,13.31,5.75c6.68,6.32,1.57,14.61,3.82,15.93
					C23,412.31,32.56,407.28,31.88,411.16z"/>
			</g>
		</g>
		<g>
			<path class="st15" d="M-30.52,415.49l0.5-0.71C-30.2,414.99-30.37,415.23-30.52,415.49z"/>
		</g>
		<g>
			<path class="st15" d="M-34.33,433.53c0,3.13,1.21,9.01,5.17,7.72c2.76-0.73,5.17-8.09,6.55-10.48c1.72-3.86,2.24-8.27,5.51-11.03
				c2.93-2.39,7.07-3.31,10.51-4.6c6.72-2.76,18.96-10.11,12.24-18.57c-4.14-5.15-16.55-2.21-21.2,1.47
				c-3.1,2.39-6.21,5.88-8.96,8.83c-2.07,2.02-4.83,6.07-6.03,8.64l0.02-0.02c0.16-0.26,0.32-0.5,0.5-0.71l-0.5,0.71
				c-1.2,2-1.78,5.26-2.09,7.38C-33.12,426.36-34.33,430.04-34.33,433.53z"/>
		</g>
		<g>
			<path class="st15" d="M7.38,424.52c-3.27,2.39-4.83,5.33-7.76,8.27c-1.55,1.65-2.93,3.49-4.65,4.78
				c-1.55,1.29-3.62,2.02-4.65,3.86c-3.62,6.07,7.93-0.55,9.65-2.21c4.83-4.23,9.13-8.46,14.48-11.77c2.07-1.29,7.58-7.17,2.76-8.64
				C14.62,418.09,8.93,422.68,7.38,424.52z"/>
		</g>
		<g class="st6">
			<path class="st16" d="M-18.82,406.87c0.52-0.55,1.03-1.84,1.55-2.21c3.1-2.39,6.72-2.57,10.17-3.13c3.45-0.55,7.58-2.76,11.2-1.1
				c1.03,0.55,1.38,1.29,2.24,1.84c0.86,0.55,1.9,0.37,2.59,0.92c1.03,0.55,3.79,2.76,4.31,3.86c-0.69-2.57-0.69-4.05-2.76-5.52
				c-0.86-0.74-1.9-0.92-2.76-1.65c-1.21-1.1-1.55-2.02-3.1-2.58c-3.45-1.29-9.31,0.37-12.93,0.92c-1.9,0.18-3.62,0.74-5.34,1.47
				c-2.07,0.92-3.27,0.74-5.34,1.47c-2.93,0.73-2.41,2.39-3.62,4.6c-1.03,1.84-3.1,2.57-3.96,4.78c-0.86,2.21-0.52,3.68-1.9,5.88
				c-1.21,2.02-1.72,3.12-2.41,5.33c-0.86,2.57-3.35,9.93-1.38,14.34c0-5.7,1.9-9.56,2.93-11.77c0.52-1.1,1.55-1.65,2.07-2.57
				c0.52-0.92,0.17-2.02,0.52-2.94c0.69-1.66,2.41-3.68,3.45-5.15c0.69-1.1,1.38-1.1,1.9-2.21c0.34-0.74-0.17-2.02,0.17-2.76
				C-20.54,407.42-19.51,407.61-18.82,406.87z"/>
		</g>
		<g class="st17">
			<path class="st16" d="M6.17,435.56c1.55-0.37,1.55-1.65,2.41-2.39c0.86-0.55,1.9-0.74,2.76-1.29c1.03-0.74,1.55-1.84,2.41-2.57
				c0.69-0.55,2.07-0.74,2.58-1.1c1.38-1.1,3.27-3.86,3.96-5.7c0.52-0.92,0.86-2.21,1.03-2.94c0.52-0.92,1.03-1.65,1.21-2.94
				c-1.03-0.55-2.76-0.55-3.79,0l-0.17,0.18c0.34,0,0.52,0,0.86,0.18C20.14,425.44,10.83,429.86,6.17,435.56z"/>
		</g>
		<g class="st18">
			<path class="st16" d="M-7.1,401.54c7.03,4.01,9.83,4.49,13.1,6.99c3.45,2.64,3.37,9.46,3.89,9.1c2.48-4.13,5.07-6.15,5.59-9.83
				c0.69-3.49-1.14-6.17-3.62-8.28C2.89,391.89-17.45,395.64-7.1,401.54z"/>
		</g>
		<g>
			<g>
				<path class="st19" d="M23.25,407.37C22.34,388.96,7,384.88-8.03,387.15c-9.96,1.51-19.01,10.22-23.74,16.19
					c-7.85,9.9-10.89,21.21-8.41,35.89c1.46,8.65,4.97,14.08,11.06,16.84c2.86,1.29,11.18,0.81,19.05-1.8
					c15.44-5.11,31.71-20.32,41.36-31.63c2.93-3.43,5.39-7.28,4.02-10.2C33.33,408.25,29.76,405.94,23.25,407.37z M34.17,416.73
					c-1.01,4.08-5.84,8.46-8.86,11.26c-1.41,1.5-2.94,3.32-4.35,4.39c-1.81,1.72-1.82,2.8-3.84,4.09c-1.01,0.86-1.55,0.6-2.56,1.46
					c-0.4,0.64-1.84,1.9-2.64,2.55c-1.21,1.29-4.73,4.14-6.14,5c-2.21,1.29-3.85,1.13-5.46,2.64c-1.81,1.5-2.26,2.11-4.27,3.18
					c-1.21,0.43-3.62,1.48-5.03,1.91c-2.21,0.64-4,1.73-6.22,1.73c-1.61,0-2.51,0.08-3.92,0.72c-2.21,0.86-1.96,0.15-4.18,0.37
					c-3.42,0.43-5.09,0.63-7.5-1.09c-2.01-1.29-2.26-2.53-3.87-4.46c-5.23-5.8-6.37-16.89-5.51-24.55c0.81-1.93,0.2-3.71,0.6-5.64
					c0.2-1.08,0.47-3.71,1.36-4.37c1.11-0.82,1.1-2.65,1.7-3.73c1.71-1.64,1.01-2.71,2.22-4.64c0.6-0.86,2.52-3.33,3.32-4.19
					c0.4-0.43,1.93-1.93,2.39-2.54c3.34-4.43,4.62-5.55,9.38-7.55c2.42-2.36,4.58-4.63,8.53-4.55c3.62-1.07,7.54-1.7,11.76-1.27
					c3.62,0.43,10.16,2.4,13.39,4.55c4.43,3.01,6.75,7.06,7.76,11.36c0.4,1.93-1.24,5.63,0.17,6.28c0.81,0.21,4.5-1.63,5.71-1.63
					C32.95,408.21,35.57,411.57,34.17,416.73z"/>
			</g>
		</g>
		<g>
			<g class="st20">
				<path class="st21" d="M-32.23,427.6c-0.77,1.97,1.43,2.83,3.26,2.45c0.22-0.05,0.44-0.34,0.57-0.65
					c0.11-0.26,0.13-0.46-0.13-0.86C-28.93,427.92-31.35,425.35-32.23,427.6z"/>
			</g>
			<g>
				<path class="st22" d="M-31.73,427.85c-0.8,1.77,1.5,2.3,2.76,2.2c0.22-0.02,0.51-0.16,0.64-0.46c0.11-0.26,0.13-0.46-0.13-0.86
					C-28.86,428.11-31.05,426.32-31.73,427.85z"/>
				<g>
					<path class="st23" d="M-31.68,428.75c-0.21,0.23,0.62,0.7,0.74,0.76c0.75,0.32,1.32,0.29,2.11,0.38
						c-0.61-0.26-1.11-0.22-1.67-0.5C-31.04,429.12-31.56,428.61-31.68,428.75z"/>
				</g>
				<g>
					<path class="st24" d="M-29.89,427.69c-0.28-0.19-0.82-0.43-1.18-0.25c-0.11,0.06-0.51,0.26-0.5,0.42
						c0.04,0.29,0.44,0.08,0.65-0.01c0.77-0.29,1.88,0.83,2.45,1.23c-0.2-0.24-0.21-0.39-0.59-0.75
						C-29.35,428.08-29.58,427.92-29.89,427.69z"/>
				</g>
			</g>
		</g>
		<g>
			<g class="st20">
				<path class="st21" d="M-28.65,417.02c-0.86,1.35,0.67,2.36,2.09,2.37c0.17,0,0.38-0.18,0.52-0.39c0.12-0.17,0.16-0.32,0.03-0.67
					C-26.21,417.8-27.67,415.48-28.65,417.02z"/>
			</g>
			<g>
				<path class="st22" d="M-28.31,417.29c-0.85,1.2,0.8,1.97,1.76,2.1c0.17,0.02,0.41-0.03,0.55-0.24c0.12-0.17,0.16-0.32,0.03-0.67
					C-26.19,417.95-27.58,416.26-28.31,417.29z"/>
				<g>
					<path class="st23" d="M-28.4,417.98c-0.19,0.14,0.37,0.63,0.45,0.7c0.52,0.36,0.95,0.43,1.53,0.63
						c-0.42-0.3-0.81-0.34-1.18-0.65C-27.97,418.36-28.29,417.89-28.4,417.98z"/>
				</g>
				<g>
					<path class="st24" d="M-27.75,417.09c-0.09,0.02-0.42,0.11-0.44,0.24c-0.01,0.23,0.32,0.13,0.49,0.1
						c0.62-0.09,1.3,0.93,1.66,1.32c-0.11-0.21-0.1-0.33-0.34-0.66c-0.17-0.24-0.32-0.4-0.52-0.62
						C-27.08,417.29-27.46,417.02-27.75,417.09z"/>
				</g>
			</g>
		</g>
		<g>
			<g class="st20">
				<path class="st21" d="M-24.42,416.78c-1.34,1.51,0.38,3.1,2.17,3.43c0.21,0.04,0.51-0.15,0.73-0.38
					c0.19-0.19,0.27-0.37,0.16-0.83C-21.52,418.29-22.89,415.06-24.42,416.78z"/>
			</g>
			<g>
				<path class="st22" d="M-24.05,417.19c-1.3,1.32,0.62,2.64,1.79,3.02c0.21,0.07,0.51,0.05,0.73-0.18
					c0.19-0.19,0.27-0.37,0.16-0.83C-21.51,418.49-22.93,416.06-24.05,417.19z"/>
				<g>
					<path class="st23" d="M-24.29,418.03c-0.27,0.13,0.33,0.87,0.42,0.97c0.58,0.56,1.11,0.75,1.79,1.12
						c-0.46-0.46-0.94-0.61-1.35-1.07C-23.83,418.6-24.13,417.95-24.29,418.03z"/>
				</g>
				<g>
					<path class="st24" d="M-23.31,417.07c-0.12,0.01-0.55,0.05-0.59,0.2c-0.06,0.28,0.37,0.23,0.6,0.24
						c0.79,0.02,1.44,1.45,1.82,2.02c-0.1-0.29-0.07-0.43-0.3-0.9c-0.17-0.34-0.33-0.57-0.54-0.89
						C-22.51,417.46-22.93,417.04-23.31,417.07z"/>
				</g>
			</g>
		</g>
		<g>
			<g class="st20">
				<path class="st21" d="M-26.7,441.38c-0.68,0.04-3.9,0.91-2.59,2.82c1.16,1.67,2.93,0.14,3.54-1.67
					c0.07-0.22-0.05-0.56-0.22-0.83C-26.11,441.47-26.25,441.36-26.7,441.38z"/>
			</g>
			<g>
				<path class="st22" d="M-26.52,441.42c-0.68,0.04-3.18,1.1-2.33,2.47c0.99,1.6,2.55-0.18,3.1-1.35c0.1-0.21,0.13-0.53-0.04-0.8
					C-25.92,441.5-26.07,441.39-26.52,441.42z"/>
				<g>
					<path class="st23" d="M-27.02,443.56c-0.49,0.34-1.14,0.55-1.09,0.73c0.08,0.3,0.86-0.2,0.97-0.28
						c0.62-0.51,0.88-1.03,1.35-1.69C-26.3,442.74-26.52,443.21-27.02,443.56z"/>
				</g>
				<g>
					<path class="st24" d="M-28.83,443.09c-0.01,0.13-0.05,0.59,0.08,0.66c0.25,0.11,0.28-0.35,0.32-0.58
						c0.16-0.83,1.59-1.26,2.19-1.56c-0.29,0.06-0.41,0-0.88,0.15c-0.34,0.12-0.58,0.24-0.92,0.41
						C-28.33,442.32-28.79,442.69-28.83,443.09z"/>
				</g>
			</g>
		</g>
		<g>
			<g class="st20">
				<path class="st21" d="M17.22,422.13c-0.14,0.1-0.2,0.37-0.2,0.62c0,0.21,0.04,0.35,0.33,0.54c0.44,0.29,2.81,1.23,2.76-0.57
					C20.07,421.14,18.34,421.28,17.22,422.13z"/>
			</g>
			<g>
				<path class="st22" d="M17.22,422.13c-0.15,0.08-0.3,0.27-0.3,0.51c-0.01,0.21,0.04,0.35,0.33,0.54
					c0.44,0.29,2.43,0.78,2.45-0.47C19.74,421.26,18.04,421.66,17.22,422.13z"/>
				<g>
					<path class="st23" d="M17.17,422.28c0.48-0.02,0.81-0.22,1.27-0.2c0.44,0.01,0.93,0.18,0.98,0.04
						c0.07-0.22-0.62-0.27-0.72-0.27C18.1,421.88,17.73,422.08,17.17,422.28z"/>
				</g>
				<g>
					<path class="st24" d="M19.15,422.97c-0.43,0.44-1.5,0.06-2-0.03c0.2,0.1,0.25,0.19,0.61,0.31c0.26,0.09,0.46,0.12,0.74,0.17
						c0.24,0.04,0.68,0.02,0.87-0.22c0.06-0.08,0.27-0.34,0.22-0.45C19.48,422.57,19.27,422.84,19.15,422.97z"/>
				</g>
			</g>
		</g>
		<g>
			<g class="st20">
				<path class="st21" d="M16.15,419.5c-0.07,0.16-0.01,0.43,0.09,0.65c0.09,0.19,0.19,0.29,0.53,0.31c0.52,0.04,3.02-0.29,2.2-1.86
					C18.25,417.22,16.78,418.19,16.15,419.5z"/>
			</g>
			<g>
				<path class="st22" d="M16.15,419.5c-0.09,0.15-0.15,0.39-0.04,0.61c0.09,0.19,0.19,0.29,0.53,0.31c0.52,0.04,2.49-0.5,1.97-1.62
					C18.01,417.49,16.68,418.67,16.15,419.5z"/>
				<g>
					<path class="st23" d="M17.34,418.52c-0.51,0.32-0.76,0.69-1.17,1.13c0.42-0.25,0.63-0.59,1.03-0.8c0.4-0.21,0.91-0.3,0.89-0.44
						C18.06,418.18,17.43,418.48,17.34,418.52z"/>
				</g>
				<g>
					<path class="st24" d="M18.23,419.29c-0.2,0.61-1.31,0.79-1.79,0.95c0.22-0.01,0.31,0.05,0.68-0.03
						c0.27-0.05,0.46-0.13,0.73-0.21c0.23-0.09,0.61-0.31,0.68-0.62c0.02-0.1,0.09-0.43,0-0.5
						C18.35,418.78,18.29,419.12,18.23,419.29z"/>
				</g>
			</g>
		</g>
		<g>
			<g class="st20">
				<path class="st21" d="M-13.31,443.96c-0.19-0.01-0.33,0.03-0.51,0.32c-0.29,0.45-1.28,2.89,0.39,2.93
					c1.46,0.04,1.42-1.79,0.69-3.01C-12.83,444.06-13.08,443.98-13.31,443.96z"/>
			</g>
			<g>
				<path class="st22" d="M-13.21,443.86c-0.2-0.01-0.32,0.03-0.51,0.32c-0.29,0.45-0.84,2.51,0.31,2.6
					c1.34,0.11,1.06-1.69,0.67-2.58C-12.82,444.05-12.98,443.88-13.21,443.86z"/>
				<g>
					<path class="st23" d="M-12.85,446.5c0.2,0.09,0.28-0.63,0.29-0.74c0-0.63-0.17-1.03-0.32-1.62c-0.01,0.51,0.16,0.86,0.12,1.34
						C-12.79,445.94-12.97,446.45-12.85,446.5z"/>
				</g>
				<g>
					<path class="st24" d="M-13.81,444.72c-0.09,0.27-0.13,0.48-0.2,0.77c-0.04,0.25-0.05,0.71,0.16,0.92
						c0.06,0.07,0.3,0.3,0.4,0.25c0.18-0.11-0.07-0.34-0.18-0.47c-0.39-0.48,0.03-1.58,0.13-2.1
						C-13.59,444.3-13.68,444.35-13.81,444.72z"/>
				</g>
			</g>
		</g>
		<g>
			<g class="st20">
				<path class="st21" d="M-15.51,447.57c-0.19-0.03-0.33,0-0.54,0.28c-0.32,0.42-1.48,2.77,0.18,2.95
					c1.45,0.15,1.54-1.67,0.91-2.94C-15.04,447.7-15.28,447.6-15.51,447.57z"/>
			</g>
			<g>
				<path class="st22" d="M-15.4,447.48c-0.19-0.03-0.33,0-0.54,0.28c-0.32,0.43-1.02,2.43,0.12,2.62c1.33,0.22,1.18-1.6,0.85-2.52
					C-15.02,447.69-15.17,447.51-15.4,447.48z"/>
				<g>
					<path class="st23" d="M-15.23,450.14c0.2,0.11,0.33-0.61,0.34-0.71c0.05-0.63-0.09-1.04-0.2-1.65
						c-0.04,0.51,0.1,0.87,0.03,1.35C-15.13,449.59-15.35,450.08-15.23,450.14z"/>
				</g>
				<g>
					<path class="st24" d="M-16.06,448.29c-0.11,0.26-0.17,0.47-0.25,0.75c-0.06,0.25-0.11,0.7,0.09,0.93
						c0.06,0.07,0.28,0.33,0.38,0.28c0.18-0.09-0.04-0.34-0.14-0.48c-0.35-0.51,0.14-1.58,0.28-2.08
						C-15.81,447.88-15.9,447.93-16.06,448.29z"/>
				</g>
			</g>
		</g>
		<g>
			<g class="st20">
				<path class="st21" d="M-10.59,444.13c-0.18,0.08-0.28,0.18-0.32,0.54c-0.06,0.54,0.12,3.19,1.61,2.41
					c1.31-0.69,0.49-2.28-0.69-3.01C-10.12,443.98-10.37,444.03-10.59,444.13z"/>
			</g>
			<g>
				<path class="st22" d="M-10.54,443.99c-0.18,0.08-0.28,0.18-0.32,0.54c-0.06,0.54,0.34,2.64,1.4,2.16
					c1.24-0.56,0.21-2.02-0.52-2.62C-10.11,443.97-10.33,443.89-10.54,443.99z"/>
				<g>
					<path class="st23" d="M-9.44,445.21c0.17,0.43,0.23,0.97,0.36,0.95c0.22-0.02-0.02-0.7-0.06-0.8
						c-0.27-0.56-0.59-0.83-0.99-1.28C-9.92,444.54-9.62,444.77-9.44,445.21z"/>
				</g>
				<g>
					<path class="st24" d="M-10.69,444.34c0,0.23-0.06,0.32-0.01,0.71c0.04,0.29,0.09,0.49,0.16,0.78c0.07,0.25,0.26,0.66,0.54,0.74
						c0.08,0.03,0.4,0.12,0.46,0.02c0.11-0.18-0.21-0.26-0.36-0.33C-10.45,446.03-10.56,444.85-10.69,444.34z"/>
				</g>
			</g>
		</g>
		<g>
			<g class="st20">
				<path class="st21" d="M4.36,433.59c-0.21,0.04-0.44,0.31-0.58,0.6c-0.12,0.24-0.14,0.44,0.09,0.84
					c0.36,0.62,2.62,3.22,3.56,1.07C8.25,434.23,6.14,433.3,4.36,433.59z"/>
			</g>
			<g>
				<path class="st22" d="M3.71,434.01c-0.12,0.25-0.14,0.44,0.09,0.85c0.36,0.62,2.43,2.45,3.15,0.99c0.84-1.69-1.37-2.3-2.6-2.26
					C4.14,433.6,3.85,433.72,3.71,434.01z"/>
				<g>
					<path class="st23" d="M4.21,433.74c0.58,0.28,1.07,0.26,1.6,0.56c0.51,0.29,1,0.8,1.12,0.67c0.21-0.21-0.57-0.71-0.69-0.78
						C5.53,433.85,4.98,433.86,4.21,433.74z"/>
				</g>
				<g>
					<path class="st24" d="M6.16,435.8c-0.76,0.24-1.8-0.89-2.33-1.3c0.18,0.24,0.19,0.39,0.55,0.75c0.26,0.27,0.48,0.43,0.77,0.67
						c0.26,0.19,0.78,0.45,1.14,0.29c0.11-0.05,0.51-0.23,0.5-0.39C6.77,435.54,6.37,435.73,6.16,435.8z"/>
				</g>
			</g>
		</g>
		<g>
			<g class="st20">
				<path class="st21" d="M7.78,431.59c-0.2,0.09-0.35,0.42-0.42,0.74c-0.06,0.27-0.03,0.46,0.29,0.79c0.5,0.5,3.31,2.4,3.7,0.06
					C11.7,431.14,9.44,430.81,7.78,431.59z"/>
			</g>
			<g>
				<path class="st22" d="M7.78,431.59c-0.21,0.07-0.45,0.26-0.52,0.58c-0.06,0.27-0.03,0.46,0.29,0.79c0.5,0.5,2.93,1.71,3.28,0.11
					C11.24,431.19,8.95,431.21,7.78,431.59z"/>
				<g>
					<path class="st23" d="M7.67,431.76c0.63,0.12,1.1-0.04,1.68,0.1c0.57,0.14,1.16,0.5,1.25,0.34c0.15-0.27-0.73-0.53-0.86-0.56
						C8.97,431.51,8.44,431.67,7.67,431.76z"/>
				</g>
				<g>
					<path class="st24" d="M10.05,433.23c-0.67,0.44-1.95-0.37-2.56-0.62c0.23,0.19,0.28,0.32,0.71,0.58
						c0.32,0.18,0.57,0.28,0.91,0.43c0.3,0.12,0.87,0.23,1.17-0.03c0.09-0.08,0.44-0.36,0.39-0.51
						C10.58,432.81,10.24,433.1,10.05,433.23z"/>
				</g>
			</g>
		</g>
		<g>
			<g class="st20">
				<path class="st21" d="M7.6,427.25c-0.16,0.08-0.29,0.35-0.34,0.61c-0.05,0.22-0.03,0.38,0.24,0.65
					c0.41,0.41,2.71,1.96,3.03,0.05C10.81,426.89,8.96,426.62,7.6,427.25z"/>
			</g>
			<g>
				<path class="st22" d="M7.6,427.25c-0.17,0.06-0.37,0.21-0.42,0.47c-0.05,0.22-0.03,0.38,0.24,0.65c0.41,0.41,2.4,1.4,2.69,0.08
					C10.44,426.94,8.56,426.95,7.6,427.25z"/>
				<g>
					<path class="st23" d="M7.51,427.4c0.51,0.1,0.9-0.04,1.38,0.08c0.46,0.12,0.95,0.41,1.02,0.28c0.13-0.22-0.59-0.43-0.7-0.46
						C8.58,427.2,8.14,427.33,7.51,427.4z"/>
				</g>
				<g>
					<path class="st24" d="M9.46,428.6c-0.55,0.36-1.6-0.3-2.1-0.51c0.19,0.15,0.23,0.26,0.59,0.47c0.26,0.15,0.46,0.23,0.74,0.35
						c0.25,0.1,0.71,0.18,0.96-0.02c0.07-0.07,0.36-0.3,0.32-0.42C9.89,428.26,9.62,428.5,9.46,428.6z"/>
				</g>
			</g>
		</g>
		<g>
			<g class="st20">
				<path class="st21" d="M-33.21,434.16c0.01,2.38,2.62,2.24,4.34,1c0.21-0.15,0.31-0.55,0.32-0.93c0.01-0.32-0.05-0.53-0.48-0.83
					C-29.69,432.96-33.22,431.45-33.21,434.16z"/>
			</g>
			<g>
				<path class="st22" d="M-32.6,434.19c-0.1,2.19,2.47,1.66,3.73,0.98c0.22-0.12,0.46-0.39,0.47-0.77
					c0.01-0.32-0.05-0.53-0.48-0.83C-29.54,433.12-32.52,432.3-32.6,434.19z"/>
				<g>
					<path class="st23" d="M-32.18,435.09c-0.12,0.34,0.92,0.44,1.07,0.44c0.9-0.02,1.47-0.31,2.32-0.59
						c-0.73,0.01-1.23,0.29-1.91,0.26C-31.37,435.17-32.11,434.89-32.18,435.09z"/>
				</g>
				<g>
					<path class="st24" d="M-32.08,433.46c-0.09,0.11-0.42,0.5-0.34,0.67c0.16,0.28,0.48-0.13,0.67-0.31
						c0.67-0.65,2.27-0.02,3.01,0.13c-0.3-0.16-0.38-0.3-0.92-0.49c-0.39-0.14-0.69-0.2-1.11-0.29
						C-31.13,433.11-31.79,433.11-32.08,433.46z"/>
				</g>
			</g>
		</g>
		<g>
			<g class="st20">
				<path class="st21" d="M6.94,408.9c-0.04,0.26,0.15,0.62,0.4,0.9c0.2,0.23,0.39,0.33,0.89,0.21c0.76-0.18,4.24-1.82,2.42-3.71
					C9.04,404.64,7.31,406.73,6.94,408.9z"/>
			</g>
			<g>
				<path class="st22" d="M6.94,408.9c-0.07,0.25-0.06,0.63,0.18,0.9c0.2,0.23,0.39,0.33,0.89,0.21c0.76-0.19,3.39-1.89,2.18-3.27
					C8.81,405.14,7.36,407.47,6.94,408.9z"/>
				<g>
					<path class="st23" d="M8.26,406.94c-0.61,0.7-0.82,1.34-1.22,2.18c0.5-0.56,0.66-1.14,1.17-1.64c0.49-0.48,1.18-0.85,1.1-1.04
						C9.16,406.11,8.37,406.83,8.26,406.94z"/>
				</g>
				<g>
					<path class="st24" d="M9.86,407.64c-0.03,0.97-1.57,1.75-2.19,2.21c0.32-0.12,0.47-0.08,0.97-0.35
						c0.37-0.2,0.62-0.39,0.97-0.64c0.3-0.23,0.76-0.74,0.72-1.21c-0.01-0.15-0.04-0.67-0.21-0.73
						C9.82,406.84,9.87,407.37,9.86,407.64z"/>
				</g>
			</g>
		</g>
		<g>
			<g class="st20">
				<path class="st21" d="M8.59,413.34c-0.04,0.21,0.12,0.51,0.32,0.74c0.17,0.19,0.32,0.27,0.73,0.17c0.63-0.15,3.49-1.5,1.99-3.06
					C10.32,409.83,8.9,411.55,8.59,413.34z"/>
			</g>
			<g>
				<path class="st22" d="M8.59,413.34c-0.06,0.21-0.05,0.51,0.15,0.74c0.17,0.19,0.32,0.27,0.73,0.17c0.63-0.15,2.79-1.55,1.8-2.69
					C10.13,410.24,8.94,412.16,8.59,413.34z"/>
				<g>
					<path class="st23" d="M8.67,413.52c0.41-0.46,0.54-0.94,0.96-1.35c0.4-0.4,0.97-0.7,0.91-0.86c-0.12-0.27-0.77,0.33-0.86,0.42
						C9.17,412.31,9,412.83,8.67,413.52z"/>
				</g>
				<g>
					<path class="st24" d="M10.99,412.3c-0.03,0.8-1.29,1.44-1.8,1.82c0.26-0.1,0.38-0.07,0.8-0.29c0.3-0.16,0.51-0.32,0.8-0.53
						c0.24-0.19,0.62-0.61,0.6-0.99c-0.01-0.12-0.04-0.55-0.17-0.6C10.96,411.64,11,412.08,10.99,412.3z"/>
				</g>
			</g>
		</g>
		<g>
			<g class="st20">
				<path class="st21" d="M1.38,407.36c0.12,0.2,0.45,0.31,0.77,0.33c0.26,0.02,0.44-0.04,0.7-0.44c0.39-0.61,1.73-3.93-0.53-3.98
					C0.33,403.23,0.39,405.71,1.38,407.36z"/>
			</g>
			<g>
				<path class="st22" d="M1.38,407.36c0.1,0.21,0.32,0.45,0.63,0.47c0.26,0.02,0.44-0.04,0.7-0.44c0.39-0.61,1.14-3.41-0.43-3.53
					C0.46,403.71,0.84,406.16,1.38,407.36z"/>
				<g>
					<path class="st23" d="M1.52,404.23c-0.28-0.12-0.38,0.86-0.39,1.01c0,0.85,0.23,1.4,0.44,2.21c0.01-0.69-0.21-1.17-0.17-1.82
						C1.43,405,1.68,404.31,1.52,404.23z"/>
				</g>
				<g>
					<path class="st24" d="M2.82,406.66c0.13-0.37,0.18-0.65,0.26-1.04c0.06-0.34,0.07-0.97-0.21-1.25
						c-0.09-0.09-0.41-0.41-0.55-0.34c-0.24,0.14,0.09,0.46,0.24,0.64c0.53,0.65-0.03,2.15-0.18,2.85
						C2.53,407.23,2.65,407.16,2.82,406.66z"/>
				</g>
			</g>
		</g>
		<g>
			<g class="st20">
				<path class="st21" d="M4.43,403.31c0.06,0.19,0.32,0.36,0.58,0.44c0.21,0.07,0.37,0.07,0.67-0.21c0.45-0.43,2.2-2.9,0.33-3.44
					C4.35,399.63,3.92,401.72,4.43,403.31z"/>
			</g>
			<g>
				<path class="st22" d="M4.43,403.31c0.04,0.2,0.18,0.44,0.44,0.53c0.22,0.07,0.38,0.06,0.67-0.22c0.45-0.42,1.61-2.6,0.33-3.04
					C4.37,400.06,4.21,402.19,4.43,403.31z"/>
				<g>
					<path class="st23" d="M4.63,401.48c-0.17,0.71-0.08,1.22-0.06,1.94c0.14-0.57,0.05-1.03,0.21-1.56
						c0.16-0.52,0.5-1.03,0.37-1.13C4.94,400.57,4.66,401.37,4.63,401.48z"/>
				</g>
				<g>
					<path class="st24" d="M5.77,403.04c0.18-0.28,0.28-0.51,0.42-0.81c0.12-0.27,0.25-0.79,0.07-1.09
						c-0.06-0.09-0.26-0.43-0.39-0.4c-0.23,0.07-0.01,0.4,0.08,0.59c0.31,0.66-0.44,1.79-0.7,2.34
						C5.41,403.45,5.53,403.42,5.77,403.04z"/>
				</g>
			</g>
		</g>
		<g>
			<g class="st20">
				<path class="st21" d="M-2.1,400.42c-1.95,0.39-1.42,2.8-0.12,4.2c0.16,0.17,0.5,0.2,0.81,0.15c0.26-0.04,0.43-0.14,0.6-0.58
					C-0.55,403.51,0.12,399.97-2.1,400.42z"/>
			</g>
			<g>
				<path class="st22" d="M-2.02,400.99c-1.81,0.26-0.96,2.58-0.2,3.63c0.13,0.19,0.4,0.37,0.7,0.32c0.26-0.04,0.42-0.13,0.6-0.58
					C-0.66,403.67-0.47,400.77-2.02,400.99z"/>
				<g>
					<path class="st23" d="M-2.69,401.53c-0.3-0.06-0.21,0.93-0.19,1.07c0.16,0.83,0.49,1.32,0.86,2.06
						c-0.12-0.68-0.44-1.1-0.52-1.74C-2.63,402.3-2.52,401.57-2.69,401.53z"/>
				</g>
				<g>
					<path class="st24" d="M-0.95,403.62c0.05-0.39,0.05-0.68,0.06-1.08c0-0.35-0.11-0.96-0.45-1.18c-0.11-0.07-0.48-0.31-0.6-0.21
						c-0.21,0.19,0.18,0.43,0.36,0.57c0.64,0.52,0.39,2.11,0.38,2.83C-1.13,404.24-1.03,404.15-0.95,403.62z"/>
				</g>
			</g>
		</g>
		<g>
			<g class="st20">
				<path class="st21" d="M-5.96,404.08c-1.72,1.05-0.47,3.14,1.18,4.02c0.2,0.1,0.54,0.01,0.81-0.14c0.23-0.13,0.36-0.28,0.39-0.76
					C-3.54,406.46-4,402.88-5.96,404.08z"/>
			</g>
			<g>
				<path class="st22" d="M-5.71,404.6c-1.63,0.88-0.12,2.77,0.93,3.5c0.18,0.13,0.49,0.21,0.76,0.05c0.23-0.13,0.36-0.28,0.39-0.76
					C-3.6,406.65-4.31,403.84-5.71,404.6z"/>
				<g>
					<path class="st23" d="M-6.18,405.34c-0.3,0.05,0.09,0.95,0.15,1.08c0.41,0.73,0.87,1.07,1.44,1.65
						c-0.33-0.6-0.75-0.89-1.03-1.47C-5.88,406.04-6,405.32-6.18,405.34z"/>
				</g>
				<g>
					<path class="st24" d="M-3.9,406.7c-0.07-0.39-0.16-0.66-0.28-1.04c-0.11-0.33-0.41-0.87-0.79-0.96
						c-0.12-0.03-0.55-0.13-0.63,0.01c-0.14,0.25,0.3,0.34,0.51,0.42c0.77,0.27,1.01,1.86,1.23,2.54
						C-3.87,407.35-3.8,407.23-3.9,406.7z"/>
				</g>
			</g>
		</g>
		<g>
			<g class="st20">
				<path class="st21" d="M-11.25,405.23c-1.73,0.48-1.11,2.62,0.13,3.8c0.15,0.14,0.46,0.15,0.74,0.09
					c0.23-0.05,0.37-0.15,0.51-0.57C-9.67,407.92-9.27,404.69-11.25,405.23z"/>
			</g>
			<g>
				<path class="st22" d="M-11.14,405.74c-1.61,0.35-0.72,2.38,0.03,3.29c0.13,0.16,0.38,0.3,0.65,0.24
					c0.23-0.05,0.38-0.15,0.51-0.56C-9.76,408.07-9.75,405.44-11.14,405.74z"/>
				<g>
					<path class="st23" d="M-11.72,406.28c-0.27-0.03-0.13,0.85-0.11,0.98c0.2,0.74,0.52,1.16,0.89,1.8
						c-0.15-0.6-0.46-0.96-0.57-1.54C-11.61,406.96-11.56,406.3-11.72,406.28z"/>
				</g>
				<g>
					<path class="st24" d="M-10.51,406.03c-0.1-0.05-0.45-0.25-0.55-0.15c-0.17,0.19,0.19,0.37,0.36,0.49
						c0.61,0.43,0.47,1.88,0.5,2.52c0.06-0.28,0.15-0.37,0.18-0.86c0.03-0.36,0.01-0.61-0.01-0.98
						C-10.07,406.75-10.2,406.21-10.51,406.03z"/>
				</g>
			</g>
		</g>
		<g>
			<g class="st20">
				<path class="st21" d="M-16.11,403.77c-1.78,0.94-0.65,3.11,0.95,4.08c0.19,0.12,0.54,0.05,0.82-0.09
					c0.24-0.12,0.37-0.25,0.43-0.74C-13.82,406.3-14.08,402.7-16.11,403.77z"/>
			</g>
			<g>
				<path class="st22" d="M-15.88,404.3c-1.67,0.78-0.27,2.76,0.73,3.56c0.18,0.14,0.48,0.24,0.76,0.1
					c0.24-0.12,0.37-0.25,0.43-0.74C-13.89,406.48-14.44,403.64-15.88,404.3z"/>
				<g>
					<path class="st23" d="M-16.39,405.02c-0.3,0.03,0.04,0.96,0.09,1.08c0.37,0.76,0.81,1.13,1.35,1.74
						c-0.29-0.61-0.7-0.93-0.95-1.53C-16.13,405.73-16.21,405-16.39,405.02z"/>
				</g>
				<g>
					<path class="st24" d="M-15.14,404.46c-0.12-0.03-0.54-0.16-0.63-0.03c-0.15,0.25,0.28,0.36,0.49,0.45
						c0.75,0.32,0.91,1.92,1.08,2.61c0-0.32,0.08-0.44,0.01-0.97c-0.05-0.39-0.12-0.67-0.22-1.06
						C-14.5,405.13-14.76,404.57-15.14,404.46z"/>
				</g>
			</g>
		</g>
		<g>
			<g class="st20">
				<path class="st21" d="M-18.89,408.42c-1.39,1.51,0.35,3.16,2.16,3.52c0.22,0.04,0.52-0.14,0.75-0.37
					c0.19-0.19,0.27-0.37,0.18-0.84C-15.96,410-17.31,406.7-18.89,408.42z"/>
			</g>
			<g>
				<path class="st22" d="M-18.52,408.84c-1.34,1.32,0.59,2.7,1.78,3.1c0.21,0.07,0.52,0.06,0.75-0.17
					c0.19-0.19,0.28-0.37,0.18-0.84C-15.96,410.2-17.36,407.71-18.52,408.84z"/>
				<g>
					<path class="st23" d="M-18.78,409.69c-0.27,0.13,0.33,0.89,0.42,0.99c0.58,0.58,1.11,0.78,1.81,1.17
						c-0.47-0.48-0.95-0.63-1.36-1.11C-18.31,410.28-18.61,409.62-18.78,409.69z"/>
				</g>
				<g>
					<path class="st24" d="M-17.77,408.73c-0.12,0.01-0.56,0.04-0.6,0.19c-0.06,0.28,0.38,0.24,0.6,0.25
						c0.81,0.04,1.45,1.5,1.83,2.09c-0.1-0.3-0.06-0.44-0.29-0.92c-0.17-0.35-0.33-0.58-0.53-0.92
						C-16.95,409.14-17.38,408.7-17.77,408.73z"/>
				</g>
			</g>
		</g>
		<g>
			<g class="st20">
				<path class="st21" d="M-1.19,408.29c-1.4,0.23-1.07,1.96-0.18,2.99c0.11,0.12,0.35,0.15,0.57,0.13c0.19-0.02,0.31-0.08,0.44-0.4
					C-0.15,410.53,0.4,408.03-1.19,408.29z"/>
			</g>
			<g>
				<path class="st22" d="M-1.37,411.28c0.09,0.14,0.27,0.27,0.49,0.24c0.19-0.02,0.31-0.09,0.44-0.4c0.2-0.48,0.4-2.54-0.71-2.42
					C-2.44,408.85-1.89,410.51-1.37,411.28z"/>
				<g>
					<path class="st23" d="M-1.64,409.07c-0.21-0.05-0.17,0.66-0.16,0.76c0.1,0.6,0.32,0.95,0.57,1.49
						c-0.07-0.48-0.29-0.79-0.33-1.25C-1.61,409.61-1.51,409.1-1.64,409.07z"/>
				</g>
				<g>
					<path class="st24" d="M-0.44,410.6c0.05-0.28,0.05-0.48,0.06-0.77c0-0.25-0.06-0.69-0.3-0.85c-0.07-0.05-0.34-0.23-0.42-0.16
						c-0.15,0.13,0.12,0.31,0.24,0.42c0.45,0.39,0.23,1.51,0.21,2.02C-0.58,411.04-0.5,410.97-0.44,410.6z"/>
				</g>
			</g>
		</g>
		<g class="st25">
			<path class="st26" d="M-39.22,413.85c2.93-4.38,6.01-11.26,6.72-14.79c-3.21,3.29-5.08,10.09-8.14,14.27
				c-3.42,4.66-3.42,11.28-3.81,15.74c-0.53,5.36,1.06,9.87,2.11,14.94c0.26,1.13,0.26,2.82,0.79,3.66
				c0.79,1.41,2.12,1.69,2.64,2.82c1.32,1.69,1.89,3.92,3.4,5.73c0.43,0.52,0.69,0.85,1.27,0.85c0.79-4.51-4.86-7.65-6.18-11.6
				c-1.59-4.23-2.59-11.68-2.32-16.76C-42.47,423.81-41.74,417.62-39.22,413.85z"/>
		</g>
		<g class="st25">
			<path class="st26" d="M5.63,452.31c0.01-0.01,0.02-0.02,0.03-0.02C5.61,452.31,5.61,452.32,5.63,452.31z"/>
		</g>
		<g class="st25">
			<path class="st26" d="M29.96,428.02c-1.55,1.29-1.89,2.21-2.93,3.86c-0.52,0.92-1.21,2.02-2.07,2.57
				c-0.52,0.55-1.55,0.18-1.9,0.55c-1.55,1.29-1.55,3.49-2.93,4.96c-0.52,0.55-3.27,1.47-4.31,2.21c-1.21,0.73-3.94,1.43-5.15,2.35
				c-1.21,1.1-2.45,3.74-3.82,4.66c-1.38,0.73-4.54,1.27-5.92,2.37c-3.1,2.39-2.08,3.31-5.7,4.41c-1.5,0.56-3.91-0.43-5.38,0.23
				c-1.92,0.86-3.86,1.72-5.91,2.35c-2.06,0.58-4.3,0.89-6.55,0.88c-4.13-0.02-8.31-1.14-11.54-3.64v0.18
				c-0.51,2.39,2.76,3.68,4.65,4.23c2.41,0.92,4.48,1.65,7.07,1.65c0.69,0,1.21,0.73,1.9,0.55c0.86-0.18,1.38-1.1,2.07-1.29
				c1.9-0.55,2.07,0.18,3.79,0.37c-0.17,0,1.9-0.74,2.07-0.74c0.35,0,1.38,0.37,1.9,0.18c1.55-0.18,2.93-2.02,4.31-2.57
				c0.17,0.74,0.86,1.47,0.86,2.21c3.62-1.84,3.62-8.09,8.62-4.23c1.2-1.64,1.38-3.1,2.56-4.02c-0.02,0.01-0.02,0,0.03-0.02
				c-0.01,0.01-0.02,0.02-0.03,0.02c0.15-0.05,1.77-0.76,1.92-0.76c0.52-0.37,1.21-1.47,1.9-1.84c0.34-0.18,1.55,0.18,2.07,0
				c-0.17,0,1.73-1.84,1.55-1.66c0.34-0.37,0.86-0.92,1.21-1.29c0-0.18,0-2.02,0-2.39c0.69,0.18,2.07,1.47,2.76,1.29
				c0.86-0.37,0.34-1.47,1.03-2.02c1.38-1.29,2.07-0.55,3.79-1.29c2.76-1.1,0.86-1.84,1.55-4.04c0.52-2.57,2.24-0.92,3.62-2.57
				c0.52-0.73-0.52-1.84,0.17-2.57c0.52-0.74,1.21-0.55,1.9-1.1c0.69-0.37,1.38-0.18,2.07-0.73c0.34-0.37-0.17-1.65,0.34-2.21
				c0.52-0.55,1.9,0.18,2.24-0.37c0.69-0.92,0-1.66,0-2.58c0-2.02-0.69-3.31,2.41-3.49c0-0.55-0.34-1.65-0.69-2.21
				c-1.38,1.1-1.03,3.49-2.93,3.68c0,0.73,0,2.21-0.52,2.76C31.17,428.02,30.65,427.47,29.96,428.02z"/>
		</g>
		<g class="st27">
			<path class="st14" d="M-17.61,459.64l0.17,0.55c0.02-0.06,0.04-0.12,0.05-0.18C-17.51,459.75-17.61,459.57-17.61,459.64z"/>
		</g>
		<g class="st27">
			<path class="st14" d="M-1.24,455.17c-0.17,0.19-1.26,1.19-1.43,1.38c-1.03-0.74-1.15-1.31-1.5-2.6
				c-0.86,0.92-1.55,2.21-2.59,3.13c-0.86-1.1-1.9-0.55-2.76,0.55c-0.17-0.18-0.34-0.37-0.51-0.55c-0.17,0.55-1.03,1.29-1.21,1.84
				c-0.17-0.18-0.69-0.37-1.03-0.55c-1.53,1.99-3.89-2.44-5.12,1.66c0.2,0.43,0.46,1.12,0.46,1.47c0.34-0.37,1.21-0.74,1.55-1.29
				c0.17,0.37,0.69,0.73,0.86,1.29c1.21-2.02,3.1-1.47,3.62,0.55c0.86-0.55,1.38-1.47,1.72-2.57c0.17,0.18,0.17,0.37,0.35,0.55
				c0.17-0.74,0.86-1.47,1.03-2.02c1.55,1.1,2.46,2.02,3.45,0.73c1.67-2.18,4.89-0.86,4.72-3.53C0.2,454.64-0.9,455.72-1.24,455.17z
				"/>
		</g>
		<g class="st27">
			<path class="st14" d="M-23.64,459.83c-0.17-0.37-0.35-0.55-0.35-0.92c-1.72,1.65-4.14-2.39-4.48,0.55v0.37c0,0,0,0.55,0.52,0.92
				c0.17-0.19,0.69-0.55,1.03-0.55c0.17,0.55,0.86,1.47,1.04,2.02c1.55-0.74,3.45-0.18,5-1.29c-0.52-0.92-1.03-1.65-1.55-2.39
				C-22.78,459.28-23.3,459.28-23.64,459.83z"/>
		</g>
		<g class="st27">
			<path class="st14" d="M21.69,443.65c0.69-0.74-0.34-5.33,2.07-2.58c-1.03-1.65-3.1-1.47-4.65-2.02c0.17,3.31-1.72,1.47-1.9,1.65
				c-1.21,0.55-1.72,1.47-2.93,2.57c-0.17-0.18-0.17-0.55-0.34-0.74c-0.17,1.29-0.52,2.94-1.9,2.76c-0.17,0.92-0.86,1.66-1.03,2.39
				c-0.35-0.55-1.21-0.92-1.73-1.47c-0.52,0.92-0.69,2.02-0.34,2.94l0.17-0.18c0.52-0.74,1.38,0.37,2.59,0
				c1.21-0.19,2.07-2.39,3.27-1.11c0.17-1.29,0.69-2.21,1.9-2.21C16.69,442.36,20.31,444.93,21.69,443.65z"/>
		</g>
		<g class="st27">
			<path class="st14" d="M29.79,427.1c-0.86,1.66,0.86,3.31-2.76,3.13c0.52,0.55,1.04,1.47,1.72,2.02h-0.17
				c0.86,0.37,2.07,0.18,3.1-0.37c-0.86-1.29-0.17-2.39,1.21-2.76c-1.72-2.57,0.17-2.39,1.03-3.86c1.03-1.47,0.86-2.39,1.38-4.41
				c-0.17-0.18-0.52-0.18-0.69-0.37c0.34,1.29-0.35,2.39-1.55,2.57C34.44,425.99,30.48,425.63,29.79,427.1z"/>
		</g>
		<g class="st25">
			<path class="st26" d="M-25.88,463.14h0.17l-2.41-1.47c0.44,0.7,1.39,1.26,2.5,1.71C-25.77,463.28-25.87,463.2-25.88,463.14z"/>
		</g>
		<g class="st25">
			<path class="st26" d="M30.48,438.5c-1.21,2.76-2.07,1.47-3.96,3.13c-1.21,0.92-1.38,3.86-2.76,4.96
				c-0.86,0.55-1.9,0.37-2.59,0.92c-0.69,0.55-1.03,1.65-1.72,2.02c-1.72,1.1-3.79-0.18-5.17,1.1c-1.38,1.1-0.52,3.49-2.24,4.78
				c-1.38,1.1-3.96,1.29-5.52,2.39c-1.73,1.29-3.45,2.02-5.34,2.76c-3.79,1.29-7.41,2.58-11.03,4.05c-3.27,1.29-7.93,0.73-11.38,0
				c-1.1-0.21-2.88-0.61-4.4-1.23c1.22,0.84,6.4,2.93,7.33,3.25c2.93,0.55,6.72,0.55,9.65,0.73c2.41,0.18,2.93-1.1,4.83-1.84
				c1.72-0.74,3.79,0,5.51-0.55c2.41-0.73,3.45-3.12,5.52-4.04c1.9-0.73,4.65,0.55,5.86-0.18c1.21-0.55,2.24-3.5,3.45-4.6
				c1.73-1.47,2.93-1.1,4.65-2.02c2.24-1.1,1.38-3.12,3.1-4.78c1.72-1.65,3.1-1.65,4.48-3.49c2.07-3.13,4.48-5.15,5.51-9.19
				c0.52-2.02,0.35-3.49,1.21-5.52c0.69-1.84,1.55-3.68,2.24-5.7c-0.69,1.84-2.07,2.94-3.1,4.41c-0.86,1.47-0.86,3.68-1.72,4.96
				c-0.52,0.55-1.9,0.92-2.07,1.1C30.48,436.66,30.82,437.76,30.48,438.5z"/>
		</g>
		<g class="st25">
			<path class="st26" d="M22.38,457.44c-1.21,0.92-1.21,2.02-2.07,2.94c-0.86,0.74-2.07,1.1-3.1,1.65
				c-1.03,0.73-1.38,1.47-2.76,1.84c-1.38,0.37-2.58,0.74-3.79,1.1c-0.34,0.18-0.69,0.74-1.21,0.74c-0.35,0.18-1.04-0.37-1.55-0.18
				c-1.03,0.18-2.93,2.02-3.79,0.92c-2.03,0.46-3.57,1.97-5.35,2.76c16.86-1.18,29.88-10.89,35.66-25.33
				c-0.78,0.52-1.72,0.88-2.57,1.79c-1.9,1.84-3.1,7.72-6.03,7.35c0.17,0.92,0.35,2.21,0.17,3.31
				C24.62,455.97,23.41,456.7,22.38,457.44z"/>
		</g>
		<g class="st27">
			<path class="st14" d="M-19.85,464.85c0.03-0.03,0.07-0.07,0.12-0.11c0,0-0.01-0.01-0.01-0.01L-19.85,464.85z"/>
		</g>
		<g class="st27">
			<path class="st14" d="M8.87,457.62c-0.46,0-2.3,0-2.53,0.12c-1.03,0.61-0.8,1.47-1.15,2.45c-0.23-0.37-3.68-1.47-4.25-1.35
				c-1.15,0.49-0.58,3.8-1.95,3.06c-0.8,0.86-1.72,0.37-2.64,0.49c-1.15,0.12-1.72,0.98-2.64,1.23c-1.84,0.61-0.58,0-2.07-0.74
				c-1.15-0.61-1.72-0.12-2.41,0.61c-0.57,0.61-0.35,1.96-1.61,2.08c-0.81,0-0.81-0.86-1.15-0.86c-0.46,0-1.26,0.49-1.49,0.37
				c-0.69-0.12-0.58-0.25-1.15-0.49c-0.23-0.12-0.11-0.98-0.57-1.1c-0.64-0.34-2.38,0.7-2.98,1.24c0.12,1.82,2.53,0.36,2.98,2.19
				c1.38-0.86,2.64,1.96,3.79-0.37c2.07,1.72,1.72-0.12,3.56-0.49c1.26-0.24,2.76,1.84,3.91,1.47c0.81-0.25,0.81-1.47,1.38-2.08
				c1.15-0.98,0.46-0.37,1.72-0.24c1.03,0.24,0.46,0.86,1.61,0.37c0.57-0.25,0.92-1.35,1.61-1.72c1.49,1.59,4.83,0,4.71-2.21
				c1.03,0,2.18,0.25,3.22-0.12c-0.23-2.08,0.69-2.21,2.41-2.08c-0.21-0.77-0.23-1.34-0.11-1.77
				C10.4,457.75,9.61,457.62,8.87,457.62z"/>
		</g>
		<g class="st27">
			<path class="st14" d="M12.48,456.48c-0.71,0.19-1.24,0.52-1.43,1.2C11.75,457.62,12.3,457.34,12.48,456.48z"/>
		</g>
		<g class="st27">
			<path class="st14" d="M14.73,453.33c-0.11,0.98-1.15,3.07-2.18,2.21c0.02,0.38-0.01,0.69-0.07,0.95
				c1.54-0.42,3.87-0.21,5.12-1.68C16.57,454.43,15.54,454.43,14.73,453.33z"/>
		</g>
		<g class="st27">
			<path class="st14" d="M30.02,438.38c0.23,0.25,0.35,0.61,0.46,0.73c-0.8,0.12-1.61-0.12-2.41,0.12
				c-1.38,0.49-0.57,0.74-1.15,1.96c-0.81,1.72-1.84,2.57-3.33,3.68c-1.26,0.98-1.84,2.57-2.41,3.68c-0.46,0.74-0.92,0-0.92,1.35
				c0,0.37,0.23,0.86,0.46,1.23l-0.12,0.37c1.38-0.86,2.53-1.96,4.02-2.33c-1.61-2.08,1.38-0.98,2.07-1.35c0,0,1.72-2.94,1.72-3.06
				c0.46-1.35-0.69-2.09,0.92-3.19c0.92-0.61,2.41-0.24,3.45-0.73c-1.61-1.47,0.23-2.21,0.57-3.55c0.57-1.84-0.69-1.72-1.15-3.31
				C30.13,434.82,33.35,439.6,30.02,438.38z"/>
		</g>
		<g class="st27">
			<path class="st14" d="M8.99,450.63c-0.58-1.1-1.03-0.12-1.72-0.61c-0.69-0.49-0.8-1.35-1.61-1.84c-0.23,1.1-1.26,2.82-2.3,1.47
				c-0.34,0.74-0.8,1.23-1.61,0.98c0,0.98-0.12,2.08-0.46,2.94l-0.11,0.24c0.69-0.49,1.49-0.24,2.41-0.49
				c1.26-0.24,1.72-0.86,3.33,0C5.08,451.12,7.15,450.63,8.99,450.63z"/>
		</g>
		<g class="st27">
			<path class="st14" d="M27.26,435.19c0.23-0.86-1.03-1.72-1.5-2.45c-0.34,0.61-0.8,0.74-1.26,1.1c0.12-0.12,0.23-0.37,0.35-0.49
				c-1.26,0.74-2.41,1.1-1.61,2.82v0.12c0.12,0,1.03,0.98,1.84,0.98c-0.23-0.37-0.12-1.1-0.23-1.35
				C25.65,436.29,26.92,436.41,27.26,435.19z"/>
		</g>
		<g class="st27">
			<path class="st14" d="M17.21,462.03c0.46-0.25,2.01-0.12,2.47-0.49c0.81-0.61,0.46-2.82,1.15-3.55c0.92-0.98,3.78-0.29,4.25-1.59
				c0.89-2.45,5.62-3.68,3.22-6.13c-0.23,0.98-0.57,2.08-1.38,2.33c-0.35,0-1.15-0.98-2.07-0.49c-1.73,0.86-0.23,0.98-0.58,2.33
				c-0.23,0.98-0.8,1.47-1.84,0.37c0,2.7-1.61,0.98-2.87,0.73c0,1.1,0.23,4.78-1.61,4.05c0,0.86-0.23,1.35-0.92,0.86
				c-0.34,0.86-1.72,1.35-2.3,2.33c-0.8-0.61-1.72-1.23-2.76-0.98c0.23,1.96-0.69,1.23-1.72,1.59c-1.72,0.61-0.8,0.37-1.84,1.96
				c-1.15-0.73-1.72,1.47-2.76-0.37c-0.69,0.49-1.26,1.35-1.72,2.08v0.24c0.92,0.12,2.3,0.12,3.33-0.12
				c2.3-0.37,2.64-2.33,4.94-3.31c1.26-0.49,3.33,0.37,4.48-0.49C17.15,463.01,16.63,462.4,17.21,462.03z"/>
		</g>
		<g class="st27">
			<path class="st14" d="M30.94,445.36c-0.23,0.61-0.35,1.35-0.12,1.96l0.12,0.12c0.34,0.25,0.57,0.37,1.15,0.25
				c-0.11-1.84,2.18-2.33,1.84-4.04C32.89,444.14,32.2,446.47,30.94,445.36z"/>
		</g>
		<g class="st27">
			<path class="st14" d="M34.38,434.94c1.27-0.49,1.04-1.23,1.38-2.21c0.11-0.25-0.11-0.74-0.11-0.98c0.23-0.49,0.8-0.61,1.03-0.98
				c0.69-1.84,0.11-4.05,0.69-5.52l0.23-0.37c-0.57,0-1.38,0.12-1.61,0.73c-0.23,0.61,0.69,1.35,0.69,1.96
				c0,1.23-0.23,0.61-0.69,1.35c0,0.12-0.8,0.98-0.92,1.23c0.23-0.37-0.81,2.08-0.81,1.35C34.27,432.74,35.99,433.59,34.38,434.94z"
				/>
		</g>
		<g class="st27">
			<path class="st14" d="M-29.68,399.15c0-0.92-0.35-0.55-0.69-0.74l-0.52,0.55c0.17-0.18-0.69,0-0.86,0
				c-0.34,1.1-0.17,0.74-1.03,1.29c0,0.74-0.17,0.74-0.52,1.29c0,1.29-1.72,1.84-2.58,3.31c0.17,0.18,0.86,0.55,1.03,0.55
				l-0.17-0.55c1.55-0.55,2.24-2.94,3.62-2.94c0.17-0.73,0.17-0.55,0.52-1.1C-31.4,399.52-30.88,398.97-29.68,399.15z"/>
		</g>
		<g class="st27">
			<path class="st14" d="M-41.23,414.23c0.69-1.29,2.24-0.55,1.72-2.57l-0.35,0.55c-1.9,0.92-2.41,3.31-2.93,5.52
				c-0.34,1.65-0.69,2.58-0.86,4.23c0,1.84,0.17,3.31-1.55,4.6c1.9,1.66,0.34,3.86,0.69,5.88c0.35,2.02,1.38,2.94,1.55,5.33
				c0.17-0.55-0.17-1.47,0-2.02c0,0,0.69-2.39,0.69-2.21c0-0.92,0.17-1.65-1.03-2.94c1.55-2.02,0.69-7.54,2.07-8.09
				c-1.03-2.39-0.17-4.05,0-5.88C-41.23,416.43-41.23,414.59-41.23,414.23z"/>
		</g>
		<g class="st27">
			<path class="st14" d="M-42.6,442.93c0.37,2.61,4.66,13.4,8.27,12.66c-1.9-1.29-0.69-2.02-1.72-3.68
				c-0.86-1.47-4.48-3.49-3.79-5.7C-42.19,445.68-40.8,443.25-42.6,442.93z"/>
		</g>
		<g class="st28">
			<path class="st29" d="M-4.39,463.24c-0.02,0.02-0.04,0.04-0.05,0.05c-0.04,0.14-0.07,0.28-0.1,0.45L-4.39,463.24z"/>
		</g>
		<g class="st28">
			<path class="st29" d="M4.67,462.57c1.41-0.5,0.78-0.33,1.72-1.17c0.94-0.67,3.12-1.83,2.34-2.83c-0.94,0.67-1.56,1.67-2.19,2.33
				c-0.16,0.17-0.47-0.67-0.47-0.67c0.31,2.17-1.09,0.17-2.03,0c-1.25-0.17-2.5,1-3.43,0c-0.31,0-1.09,0.33-1.41,0.5
				c0.15,3.18-2.83-0.31-3.65,2.55c0.02-0.02,0.04-0.04,0.05-0.05l-0.16,0.5c0.03-0.17,0.06-0.31,0.1-0.45
				c-0.62,0.64-1.53,1.13-2.29,1.78c0.78-0.67,1.72-0.67,2.34,0.16c1.09-1,2.5-0.83,3.75-0.83c0.16-1.17,0.78-1.66,1.56-0.67
				c0.62-0.33,0.94-0.33,1.72-0.5c0-0.33-0.15-0.67-0.15-1C3.27,462.07,4.2,462.74,4.67,462.57z"/>
		</g>
		<g class="st28">
			<path class="st29" d="M21.85,448.58c-0.03-0.15-0.05-0.29-0.06-0.44c-0.07,0.24-0.14,0.45-0.19,0.57L21.85,448.58z"/>
		</g>
		<g class="st28">
			<path class="st29" d="M21.6,448.71l-0.07,0.04C21.53,448.84,21.56,448.81,21.6,448.71z"/>
		</g>
		<g class="st28">
			<path class="st29" d="M29.19,442.58c-0.01,0.02-0.02,0.04-0.03,0.06c0.07,0.04,0.14,0.08,0.18,0.11L29.19,442.58z"/>
		</g>
		<g class="st28">
			<path class="st29" d="M29.16,442.64c-0.4-0.25-1.09-0.75-1.22-0.89c0.31,1.17-1.41,3.17-2.34,3.17c-1.41-0.17-1.09-2.5-3.12-1.17
				c0.62,1.17,1.09,2.67-0.47,2.83c-0.12,0.52-0.24,1.04-0.21,1.56c0.08-0.26,0.16-0.54,0.21-0.72
				C24.17,449.4,28.17,444.67,29.16,442.64z"/>
		</g>
		<g class="st28">
			<path class="st29" d="M14.35,445.75c-0.02-0.01-0.04-0.03-0.06-0.04c-0.03,0.01-0.07,0.02-0.1,0.04
				C14.2,445.92,14.35,445.92,14.35,445.75z"/>
		</g>
		<g class="st28">
			<path class="st29" d="M21.22,437.59c-0.16,2.17-1.87,0.17-2.97,1.5c0.31,1.33-0.31,1.67-1.41,1.33c0,1.17-0.47,2-1.72,1.17
				c0.29,0.77,0.44,1.54,0.46,2.31c0.07-0.1,0.12-0.2,0.16-0.31l-0.16,0.5c0-0.06-0.01-0.13-0.01-0.19
				c-0.43,0.64-1.34,1.02-2.02,1.02c0.15,0.31,0.43,0.62,0.73,0.79c0.76-0.29,1.66-0.3,2.55-0.46c-0.16-0.17-0.16-0.67-0.31-0.83
				c0.78-0.33,1.56-0.67,2.19-1.17c-0.16-1.17,0.47-1.66,1.56-1.66c-0.31-1.17,1.72-3,2.34-4.17
				C22.16,437.26,21.69,437.42,21.22,437.59z"/>
		</g>
		<g class="st28">
			<path class="st29" d="M15.76,443.58c-0.04,0.11-0.1,0.21-0.16,0.31c0,0.06,0.01,0.13,0.01,0.19L15.76,443.58z"/>
		</g>
		<g class="st28">
			<path class="st29" d="M-15.16,459.24v-0.5v0C-15.17,458.89-15.17,459.05-15.16,459.24z"/>
		</g>
		<g class="st28">
			<path class="st29" d="M-7.2,456.91c-1.4-0.67-2.5,1.33-3.59,0.16c0,0.5-0.63,1.17-0.78,1.67c-0.16-0.17-0.31-0.5-0.47-0.83
				c-1.3,1.08-3.01-0.99-3.12,0.83l0,0v0.5c-0.01-0.19-0.01-0.36,0-0.5c-0.62,0.5-1.09,1.16-1.25,1.66c0.47,0,1.56-0.5,1.87-0.5
				c-0.16,0,1.87,0.5,1.72,0.5c1.56-0.17,2.65-0.67,4.22-1.17C-9.07,458.08-8.13,457.08-7.2,456.91z"/>
		</g>
		<g class="st28">
			<path class="st29" d="M17.63,460.74c-0.05-0.15-0.09-0.29-0.12-0.41c-0.07,0.02-0.13,0.05-0.19,0.08L17.63,460.74z"/>
		</g>
		<g class="st28">
			<path class="st29" d="M24.19,455.25c-0.16-0.33-0.47-1-0.78-1.33c-0.31,0-0.94,0.33-1.09,0.5c0.16,1.33-0.94,2.5-1.87,2
				c-0.31,1.17-0.62,2-1.25,2.83c-0.44,0.47-2.1-0.66-1.68,1.09c0.62-0.21,1.45-0.02,2.15,0.58c0-0.17,0.47-0.33,0.47-0.33
				c0-1.17,2.65-3.33,4.06-3.83C22.78,456.08,22.94,454.41,24.19,455.25z"/>
		</g>
	</g>
	<g>
		<g>
			<path class="st3" d="M72.35,323.5c-1.35,5.24-2.95,3.61-4.95,4.47l-0.46-0.25c0.23,1.47,2.23,3.24,2.68,4.96
				c2.58-2.63,2.45-4.13,3.38-7.47c0.81-2.9,2.29-2.46,3.58-3.38c0-0.49-0.46-1.23-0.69-1.72C74.55,320.95,72.78,321.83,72.35,323.5
				z"/>
		</g>
		<g>
			<path class="st3" d="M70.05,330.38c0.02,0.25,0.04,0.49,0.05,0.75l-0.33-0.69C69.87,330.42,69.96,330.4,70.05,330.38
				c-2.16-29.74-43.87-22.68-56.1-8.26c-9.41,11.08-14.77,21.2-12.63,38.09c1.94,15.23,15.42,28.25,29.26,31.04
				c31.73,6.39,55.1-14.76,53.48-44.89C83.42,336.41,80.86,328.16,70.05,330.38z"/>
		</g>
		<g>
			<path class="st3" d="M70.11,331.13c-0.01-0.25-0.04-0.5-0.05-0.75c-0.09,0.02-0.18,0.03-0.27,0.05L70.11,331.13z"/>
		</g>
		<g>
			<path class="st4" d="M69.71,330.43c-0.91-18.41-16.25-22.5-31.28-20.22c-9.96,1.51-19.01,10.22-23.74,16.19
				c-7.85,9.9-10.89,21.21-8.41,35.89c1.46,8.65,4.97,14.08,11.06,16.84c2.86,1.29,11.18,0.81,19.05-1.8
				c15.44-5.11,31.71-20.32,41.36-31.63c2.93-3.43,5.39-7.28,4.02-10.2C79.8,331.31,76.22,329,69.71,330.43z"/>
		</g>
		<g>
			<path class="st5" d="M64.41,335.56l-0.46,0.25c-7.81,1.72-17.47,11.28-23.67,16.92c-6.9,6.37-17.01,16.18-20.22,25.5
				c6.66,0.25,10.11-1.47,15.63-4.66c5.51-2.94,10.8-4.41,15.86-9.07c7.35-6.37,17.24-12.99,22.98-21.08
				C82.34,332.62,71.54,333.36,64.41,335.56z"/>
		</g>
		<g>
			<path class="st5" d="M42.81,314.48c-10.11,0.49-20.45,7.6-26.66,15.94c-5.74,8.34-8.27,20.35-6.9,30.4
				c0.69,4.66,2.3,10.54,5.29,13.73c1.38,1.47,4.14,2.7,5.29,3.68v-0.24c0.69,0.49,4.14-3.68,5.74-5.15
				c7.81-7.6,14.94-15.69,23.21-22.8c3.91-3.68,8.04-7.35,11.95-10.79c1.84-1.72,4.83-3.43,5.29-5.64c0.23-1.23-0.46-4.66-0.69-5.88
				C64.18,318.16,51.08,313.99,42.81,314.48z"/>
		</g>
		<g class="st6">
			<path class="st7" d="M55.45,341.2c-1.61,0.73-3.45,0.49-4.83,1.47c-0.69,0.49-2.3,3.43-2.99,4.17c-2.07,2.45-5.29,5.64-6.44,8.58
				c3.68-5.15,10.8-9.56,15.63-13.24c2.3-1.72,7.35-3.92,8.73-6.87c0.92-1.96,0-5.39,0-7.35l-0.46-0.25
				C67.4,332.13,59.13,339.24,55.45,341.2z"/>
		</g>
		<g class="st8">
			<path class="st9" d="M37.47,344.64c-3.97,2.21-7.41,3.49-8.27,8.46c-0.69,3.49-1.55,7.35-2.76,10.66
				c-1.03,3.13-3.79,5.15-4.83,8.09l-1.21,1.1c1.72-0.18,3.96-2.21,5.69-3.31c3.62-2.76,7.07-4.6,9.48-8.64
				c2.41-3.68,6.29-5.5,9.65-8.09c4.38-3.37,5.17-5.46,8.45-8.64c2.12-2.06,8.27-4.78,9.31-7.72c-4.65,1.84-9.48,2.39-14.31,2.76
				C44.19,339.67,41.26,342.61,37.47,344.64z"/>
		</g>
		<g>
			<path class="st10" d="M18.58,376.98l-0.36-0.23C18.33,376.83,18.45,376.9,18.58,376.98z"/>
		</g>
		<g>
			<path class="st10" d="M30.4,367.44c3.91-3.68,8.05-7.11,11.72-10.79c7.36-7.11,14.94-14.22,22.98-20.35
				c-4.6,1.72-8.27,6.13-12.41,9.07c-2.3,1.72-3.68,3.68-5.98,5.39c-1.84,1.47-4.37,1.72-6.43,3.43c-3.45,2.94-5.52,7.35-8.96,10.54
				c-1.84,1.72-4.6,1.96-6.43,3.68c-0.69,0.49-0.69,1.96-1.61,2.7c-1.38,0.98-2.3,0.49-3.68,0.98c-1.61,0.98-3.22,0.74-1.84,3.43
				c-0.46,0-0.92,0.49-1.38,0.49c0.92,0.49,2.07,1.23,2.99,1.47l-0.79-0.51c-0.13-0.08-0.25-0.15-0.36-0.23l0.36,0.23
				c0.69,0.41,1.63,0.79,2.4,1C21.21,373.81,27.64,369.89,30.4,367.44z"/>
		</g>
		<g class="st11">
			<g>
				<path class="st12" d="M69.71,330.43c-0.91-18.41-16.25-22.5-31.28-20.22c-9.96,1.51-19.01,10.22-23.74,16.19
					c-7.85,9.9-10.89,21.21-8.41,35.89c1.46,8.65,4.97,14.08,11.06,16.84c2.86,1.29,11.18,0.81,19.05-1.8
					c15.44-5.11,31.71-20.32,41.36-31.63c2.93-3.43,5.39-7.28,4.02-10.2C79.8,331.31,76.22,329,69.71,330.43z M75.21,337.65
					c0.88,3.84-0.69,2.7-1.38,3.92c-0.46,0.49-2.64,2.17-3.1,3.15c0.17,1.61-3.33,3.65-3.79,4.14c-1.84,2.45-3.1,4.6-5.86,4.97
					c-2.07,1.96-3.33,3.74-5.17,5.7c-1.61,1.47-4.7,2.63-6.31,3.86c-1.84,1.47-3.74,3.74-5.81,4.96c-1.84,0.98-3.05,1.78-5.11,3
					c-1.15,0.73-2-1.19-3.38-0.7c-1.15,0.49-1.91,2.91-3.06,3.4c-2.3,0.74-3.05,0.95-5.29,1.72c-7.12,2.45-7.81-1.47-12.18-2.45
					c0.69-2.45-0.92-3.86-2.89-7.36c-2.33-4.13-2.08-7.78-0.47-11.95c0.69-1.72-0.69-7.33,0-9.29c0.69-1.47,2.16-4.44,2.62-6.15
					c0.46-1.47,1.03-3.12,1.72-4.35c0.46-0.49,2.15-0.8,2.97-2.27c0.82-1.47,0.92-3.5,2.62-5.55c1.7-2.05,4.59-5.36,8.61-6.19
					c6.43-1.32,9.04-6.04,18.69-3.34c5.52,1.47,8.83,1.2,12.26,4.97c4.19,4.61,1.95,13.14,4.19,14.46
					C67.04,337.44,74.34,333.81,75.21,337.65z"/>
			</g>
		</g>
		<g class="st13">
			<g>
				<path class="st14" d="M69.71,330.43c-0.91-18.41-16.25-22.5-31.28-20.22c-9.96,1.51-19.01,10.22-23.74,16.19
					c-7.85,9.9-10.89,21.21-8.41,35.89c1.46,8.65,4.97,14.08,11.06,16.84c2.86,1.29,11.18,0.81,19.05-1.8
					c15.44-5.11,31.71-20.32,41.36-31.63c2.93-3.43,5.39-7.28,4.02-10.2C79.8,331.31,76.22,329,69.71,330.43z M78.34,334.22
					c-0.54,3.08,1.99,2.33,1.03,6.46c-0.95,2.38-4.77,4.05-5.45,6.45c0.17,1.61-4.45,4.74-4.91,5.23c-1.84,2.45-2.55,5.01-5.3,5.38
					c-2.07,1.96-4.56,2.54-6.4,4.5c-1.61,1.47-3.06,2.99-4.67,4.21c-1.84,1.47-4.16,1.82-6.23,3.05c-1.84,0.98-3.59,2.78-5.66,4
					c-1.15,0.74-2.78,0.16-4.16,0.65c-1.15,0.49-2.33,2.13-3.48,2.62c-2.3,0.73-3.81,0.43-6.04,1.2c-7.12,2.45-9.99-1.12-12.26-1.93
					c-2.64-3.38-2.53-3.19-4.5-6.69c-2.33-4.14-4.74-10.79-3.13-14.96c0.69-1.72-0.14-7.72,0.55-9.68c0.69-1.47,2.18-5.62,2.64-7.33
					c0.46-1.47,1.85-3.49,2.53-4.71c0.46-0.49,3.27-3.49,4.09-4.96c0.82-1.47,1.72-2.81,3.43-4.86c1.7-2.05,6.31-6.01,10.33-6.83
					c6.43-1.32,10.01-6.18,19.66-3.49c5.51,1.47,9.63,2.27,13.31,5.75c6.68,6.32,1.57,14.61,3.82,15.93
					C69.46,335.36,79.03,330.34,78.34,334.22z"/>
			</g>
		</g>
		<g>
			<path class="st15" d="M15.94,338.55l0.5-0.71C16.26,338.04,16.1,338.28,15.94,338.55z"/>
		</g>
		<g>
			<path class="st15" d="M12.13,356.59c0,3.13,1.21,9.01,5.17,7.72c2.76-0.73,5.17-8.09,6.55-10.48c1.72-3.86,2.24-8.27,5.51-11.03
				c2.93-2.39,7.07-3.31,10.51-4.6c6.72-2.76,18.96-10.11,12.24-18.57c-4.14-5.15-16.55-2.21-21.2,1.47
				c-3.1,2.39-6.21,5.88-8.96,8.83c-2.07,2.02-4.83,6.07-6.03,8.64l0.02-0.02c0.16-0.26,0.32-0.5,0.5-0.71l-0.5,0.71
				c-1.2,2-1.78,5.26-2.09,7.38C13.34,349.42,12.13,353.09,12.13,356.59z"/>
		</g>
		<g>
			<path class="st15" d="M53.84,347.58c-3.27,2.39-4.83,5.33-7.76,8.27c-1.55,1.65-2.93,3.49-4.65,4.78
				c-1.55,1.29-3.62,2.02-4.65,3.86c-3.62,6.07,7.93-0.55,9.65-2.21c4.83-4.23,9.13-8.46,14.48-11.77c2.07-1.29,7.58-7.17,2.76-8.64
				C61.08,341.14,55.39,345.74,53.84,347.58z"/>
		</g>
		<g class="st6">
			<path class="st16" d="M27.64,329.93c0.52-0.55,1.03-1.84,1.55-2.21c3.1-2.39,6.72-2.57,10.17-3.13c3.45-0.55,7.58-2.76,11.2-1.1
				c1.03,0.55,1.38,1.29,2.24,1.84c0.86,0.55,1.9,0.37,2.59,0.92c1.03,0.55,3.79,2.76,4.31,3.86c-0.69-2.57-0.69-4.05-2.76-5.52
				c-0.86-0.74-1.9-0.92-2.76-1.65c-1.21-1.1-1.55-2.02-3.1-2.58c-3.45-1.29-9.31,0.37-12.93,0.92c-1.9,0.18-3.62,0.74-5.34,1.47
				c-2.07,0.92-3.27,0.74-5.34,1.47c-2.93,0.73-2.41,2.39-3.62,4.6c-1.03,1.84-3.1,2.57-3.96,4.78c-0.86,2.21-0.52,3.68-1.9,5.88
				c-1.21,2.02-1.72,3.12-2.41,5.33c-0.86,2.57-3.35,9.93-1.38,14.34c0-5.7,1.9-9.56,2.93-11.77c0.52-1.1,1.55-1.65,2.07-2.57
				c0.52-0.92,0.17-2.02,0.52-2.94c0.69-1.66,2.41-3.68,3.45-5.15c0.69-1.1,1.38-1.1,1.9-2.21c0.34-0.74-0.17-2.02,0.17-2.76
				C25.92,330.48,26.95,330.66,27.64,329.93z"/>
		</g>
		<g class="st17">
			<path class="st16" d="M52.64,358.61c1.55-0.37,1.55-1.65,2.41-2.39c0.86-0.55,1.9-0.74,2.76-1.29c1.03-0.74,1.55-1.84,2.41-2.57
				c0.69-0.55,2.07-0.74,2.58-1.1c1.38-1.1,3.27-3.86,3.96-5.7c0.52-0.92,0.86-2.21,1.03-2.94c0.52-0.92,1.03-1.65,1.21-2.94
				c-1.03-0.55-2.76-0.55-3.79,0l-0.17,0.18c0.34,0,0.52,0,0.86,0.18C66.6,348.5,57.29,352.91,52.64,358.61z"/>
		</g>
		<g class="st18">
			<path class="st16" d="M39.36,324.59c7.03,4.01,9.83,4.49,13.1,6.99c3.45,2.64,3.37,9.46,3.89,9.1c2.48-4.13,5.07-6.15,5.59-9.83
				c0.69-3.49-1.14-6.17-3.62-8.28C49.35,314.94,29.02,318.69,39.36,324.59z"/>
		</g>
		<g>
			<g>
				<path class="st19" d="M69.71,330.43c-0.91-18.41-16.25-22.5-31.28-20.22c-9.96,1.51-19.01,10.22-23.74,16.19
					c-7.85,9.9-10.89,21.21-8.41,35.89c1.46,8.65,4.97,14.08,11.06,16.84c2.86,1.29,11.18,0.81,19.05-1.8
					c15.44-5.11,31.71-20.32,41.36-31.63c2.93-3.43,5.39-7.28,4.02-10.2C79.8,331.31,76.22,329,69.71,330.43z M80.63,339.78
					c-1.01,4.08-5.84,8.46-8.86,11.26c-1.41,1.5-2.94,3.31-4.35,4.39c-1.81,1.72-1.82,2.8-3.84,4.09c-1.01,0.86-1.55,0.6-2.56,1.46
					c-0.4,0.64-1.84,1.9-2.64,2.55c-1.21,1.29-4.73,4.14-6.14,5c-2.21,1.29-3.85,1.13-5.46,2.64c-1.81,1.5-2.26,2.11-4.27,3.18
					c-1.21,0.43-3.62,1.48-5.03,1.91c-2.21,0.64-4,1.73-6.22,1.73c-1.61,0-2.51,0.08-3.92,0.72c-2.21,0.86-1.96,0.15-4.18,0.37
					c-3.42,0.43-5.09,0.63-7.5-1.09c-2.01-1.29-2.26-2.53-3.87-4.46c-5.23-5.8-6.37-16.89-5.51-24.55c0.81-1.93,0.2-3.71,0.6-5.64
					c0.2-1.08,0.47-3.71,1.36-4.37c1.11-0.82,1.1-2.65,1.7-3.73c1.71-1.64,1.01-2.71,2.22-4.64c0.6-0.86,2.52-3.33,3.32-4.19
					c0.4-0.43,1.93-1.93,2.39-2.54c3.34-4.43,4.62-5.55,9.38-7.55c2.42-2.36,4.58-4.63,8.53-4.55c3.62-1.07,7.54-1.7,11.76-1.27
					c3.62,0.43,10.16,2.4,13.39,4.55c4.43,3,6.75,7.06,7.76,11.36c0.4,1.93-1.24,5.63,0.17,6.28c0.81,0.21,4.5-1.63,5.71-1.63
					C79.41,331.26,82.04,334.62,80.63,339.78z"/>
			</g>
		</g>
		<g>
			<g class="st20">
				<path class="st21" d="M14.23,350.66c-0.77,1.97,1.43,2.83,3.26,2.45c0.22-0.05,0.44-0.34,0.57-0.65
					c0.11-0.26,0.13-0.46-0.13-0.86C17.54,350.97,15.11,348.41,14.23,350.66z"/>
			</g>
			<g>
				<path class="st22" d="M14.73,350.9c-0.8,1.77,1.5,2.3,2.76,2.2c0.22-0.02,0.51-0.15,0.64-0.46c0.11-0.26,0.13-0.46-0.13-0.86
					C17.6,351.16,15.41,349.38,14.73,350.9z"/>
				<g>
					<path class="st23" d="M14.78,351.81c-0.21,0.23,0.62,0.7,0.74,0.76c0.75,0.32,1.32,0.29,2.11,0.38
						c-0.61-0.26-1.11-0.22-1.67-0.5C15.42,352.17,14.91,351.67,14.78,351.81z"/>
				</g>
				<g>
					<path class="st24" d="M16.57,350.75c-0.28-0.19-0.82-0.43-1.18-0.25c-0.11,0.06-0.51,0.26-0.5,0.42
						c0.04,0.29,0.44,0.08,0.65-0.01c0.77-0.29,1.88,0.83,2.45,1.23c-0.2-0.24-0.21-0.39-0.59-0.75
						C17.11,351.13,16.88,350.98,16.57,350.75z"/>
				</g>
			</g>
		</g>
		<g>
			<g class="st20">
				<path class="st21" d="M17.81,340.08c-0.86,1.35,0.67,2.36,2.09,2.37c0.17,0,0.38-0.18,0.52-0.39c0.12-0.17,0.16-0.32,0.03-0.67
					C20.25,340.85,18.8,338.53,17.81,340.08z"/>
			</g>
			<g>
				<path class="st22" d="M18.15,340.34c-0.85,1.2,0.8,1.97,1.76,2.1c0.17,0.02,0.41-0.03,0.55-0.24c0.12-0.17,0.16-0.32,0.03-0.67
					C20.27,341.01,18.88,339.31,18.15,340.34z"/>
				<g>
					<path class="st23" d="M18.06,341.03c-0.19,0.14,0.37,0.63,0.45,0.7c0.52,0.36,0.95,0.43,1.53,0.63
						c-0.42-0.3-0.81-0.34-1.18-0.65C18.49,341.41,18.18,340.95,18.06,341.03z"/>
				</g>
				<g>
					<path class="st24" d="M18.71,340.15c-0.09,0.02-0.42,0.11-0.44,0.24c-0.01,0.23,0.32,0.13,0.49,0.1
						c0.62-0.09,1.3,0.93,1.66,1.32c-0.11-0.21-0.1-0.33-0.34-0.66c-0.17-0.24-0.32-0.4-0.52-0.62
						C19.38,340.34,19,340.07,18.71,340.15z"/>
				</g>
			</g>
		</g>
		<g>
			<g class="st20">
				<path class="st21" d="M22.04,339.84c-1.34,1.51,0.38,3.1,2.17,3.43c0.21,0.04,0.51-0.15,0.73-0.38
					c0.19-0.19,0.27-0.37,0.16-0.83C24.95,341.35,23.58,338.12,22.04,339.84z"/>
			</g>
			<g>
				<path class="st22" d="M22.42,340.24c-1.3,1.32,0.62,2.64,1.79,3.02c0.21,0.07,0.51,0.05,0.73-0.18
					c0.19-0.19,0.27-0.37,0.16-0.83C24.95,341.54,23.54,339.11,22.42,340.24z"/>
				<g>
					<path class="st23" d="M22.17,341.09c-0.27,0.13,0.33,0.87,0.42,0.97c0.58,0.56,1.11,0.75,1.79,1.12
						c-0.46-0.46-0.94-0.61-1.35-1.07C22.64,341.65,22.33,341.01,22.17,341.09z"/>
				</g>
				<g>
					<path class="st24" d="M23.15,340.12c-0.12,0.01-0.55,0.05-0.59,0.2c-0.06,0.28,0.37,0.23,0.6,0.24
						c0.79,0.02,1.44,1.45,1.82,2.02c-0.1-0.29-0.07-0.43-0.3-0.9c-0.17-0.34-0.33-0.57-0.54-0.89
						C23.95,340.51,23.54,340.09,23.15,340.12z"/>
				</g>
			</g>
		</g>
		<g>
			<g class="st20">
				<path class="st21" d="M19.76,364.44c-0.68,0.04-3.9,0.91-2.59,2.82c1.16,1.67,2.93,0.14,3.54-1.67
					c0.07-0.22-0.05-0.56-0.22-0.83C20.36,364.53,20.21,364.41,19.76,364.44z"/>
			</g>
			<g>
				<path class="st22" d="M19.94,364.47c-0.68,0.04-3.18,1.1-2.33,2.47c0.99,1.6,2.55-0.18,3.1-1.35c0.1-0.21,0.13-0.53-0.04-0.8
					C20.54,364.56,20.39,364.44,19.94,364.47z"/>
				<g>
					<path class="st23" d="M19.44,366.62c-0.49,0.34-1.14,0.55-1.09,0.73c0.08,0.3,0.86-0.2,0.97-0.28
						c0.62-0.51,0.88-1.03,1.35-1.69C20.16,365.79,19.94,366.27,19.44,366.62z"/>
				</g>
				<g>
					<path class="st24" d="M17.63,366.15c-0.01,0.13-0.05,0.59,0.08,0.66c0.25,0.11,0.28-0.35,0.32-0.58
						c0.16-0.83,1.59-1.26,2.19-1.56c-0.29,0.06-0.41,0-0.88,0.15c-0.34,0.12-0.58,0.24-0.92,0.41
						C18.14,365.38,17.67,365.74,17.63,366.15z"/>
				</g>
			</g>
		</g>
		<g>
			<g class="st20">
				<path class="st21" d="M63.68,345.18c-0.14,0.1-0.2,0.37-0.2,0.62c0,0.21,0.04,0.35,0.33,0.54c0.44,0.29,2.81,1.23,2.76-0.57
					C66.53,344.19,64.8,344.33,63.68,345.18z"/>
			</g>
			<g>
				<path class="st22" d="M63.68,345.18c-0.15,0.08-0.3,0.27-0.3,0.51c-0.01,0.21,0.04,0.35,0.33,0.54
					c0.44,0.29,2.43,0.78,2.45-0.47C66.2,344.31,64.5,344.71,63.68,345.18z"/>
				<g>
					<path class="st23" d="M63.63,345.33c0.48-0.02,0.81-0.22,1.27-0.2c0.44,0.01,0.93,0.18,0.98,0.04
						c0.07-0.22-0.62-0.27-0.72-0.27C64.56,344.93,64.19,345.13,63.63,345.33z"/>
				</g>
				<g>
					<path class="st24" d="M65.61,346.02c-0.43,0.44-1.5,0.06-2-0.03c0.2,0.1,0.25,0.19,0.61,0.31c0.26,0.09,0.46,0.12,0.74,0.17
						c0.24,0.04,0.68,0.02,0.87-0.22c0.06-0.08,0.27-0.34,0.22-0.45C65.94,345.62,65.74,345.9,65.61,346.02z"/>
				</g>
			</g>
		</g>
		<g>
			<g class="st20">
				<path class="st21" d="M62.62,342.55c-0.07,0.16-0.01,0.43,0.09,0.65c0.09,0.19,0.19,0.29,0.53,0.31
					c0.52,0.04,3.02-0.29,2.2-1.86C64.71,340.27,63.24,341.25,62.62,342.55z"/>
			</g>
			<g>
				<path class="st22" d="M62.62,342.55c-0.09,0.15-0.15,0.39-0.04,0.61c0.09,0.19,0.19,0.29,0.53,0.31
					c0.52,0.04,2.49-0.5,1.97-1.62C64.47,340.54,63.14,341.73,62.62,342.55z"/>
				<g>
					<path class="st23" d="M63.8,341.57c-0.51,0.32-0.76,0.69-1.17,1.13c0.42-0.25,0.63-0.59,1.03-0.8c0.4-0.21,0.91-0.3,0.89-0.44
						C64.52,341.23,63.89,341.53,63.8,341.57z"/>
				</g>
				<g>
					<path class="st24" d="M64.69,342.35c-0.2,0.61-1.31,0.79-1.79,0.95c0.22-0.01,0.31,0.05,0.68-0.03
						c0.27-0.05,0.46-0.13,0.73-0.21c0.23-0.09,0.61-0.31,0.68-0.62c0.02-0.1,0.09-0.43,0-0.5
						C64.81,341.83,64.75,342.18,64.69,342.35z"/>
				</g>
			</g>
		</g>
		<g>
			<g class="st20">
				<path class="st21" d="M33.15,367.01c-0.19-0.01-0.33,0.03-0.51,0.32c-0.29,0.45-1.28,2.89,0.39,2.93
					c1.46,0.04,1.42-1.79,0.69-3.01C33.63,367.11,33.38,367.03,33.15,367.01z"/>
			</g>
			<g>
				<path class="st22" d="M33.25,366.91c-0.2-0.01-0.32,0.03-0.51,0.32c-0.29,0.45-0.84,2.51,0.31,2.6
					c1.34,0.11,1.06-1.69,0.67-2.58C33.64,367.1,33.48,366.93,33.25,366.91z"/>
				<g>
					<path class="st23" d="M33.61,369.56c0.2,0.09,0.28-0.63,0.29-0.74c0-0.63-0.17-1.03-0.32-1.62c-0.01,0.51,0.16,0.86,0.12,1.34
						C33.67,369,33.49,369.5,33.61,369.56z"/>
				</g>
				<g>
					<path class="st24" d="M32.66,367.78c-0.09,0.27-0.13,0.48-0.2,0.77c-0.04,0.25-0.05,0.71,0.16,0.92c0.06,0.07,0.3,0.3,0.4,0.25
						c0.18-0.11-0.07-0.34-0.18-0.47c-0.39-0.48,0.03-1.58,0.13-2.1C32.87,367.35,32.78,367.41,32.66,367.78z"/>
				</g>
			</g>
		</g>
		<g>
			<g class="st20">
				<path class="st21" d="M30.95,370.62c-0.19-0.03-0.33,0-0.54,0.28c-0.32,0.42-1.48,2.77,0.18,2.95c1.45,0.16,1.54-1.67,0.91-2.94
					C31.42,370.76,31.18,370.65,30.95,370.62z"/>
			</g>
			<g>
				<path class="st22" d="M31.06,370.53c-0.19-0.03-0.33,0-0.54,0.28c-0.32,0.43-1.02,2.44,0.12,2.62c1.33,0.22,1.18-1.6,0.85-2.52
					C31.44,370.75,31.29,370.56,31.06,370.53z"/>
				<g>
					<path class="st23" d="M31.23,373.19c0.2,0.11,0.33-0.61,0.34-0.71c0.05-0.63-0.09-1.04-0.2-1.65c-0.04,0.51,0.1,0.87,0.03,1.35
						C31.33,372.64,31.11,373.13,31.23,373.19z"/>
				</g>
				<g>
					<path class="st24" d="M30.4,371.34c-0.11,0.26-0.17,0.47-0.25,0.75c-0.06,0.25-0.11,0.7,0.09,0.93
						c0.06,0.07,0.28,0.33,0.38,0.28c0.18-0.09-0.04-0.34-0.14-0.48c-0.35-0.51,0.14-1.58,0.28-2.08
						C30.65,370.94,30.56,370.98,30.4,371.34z"/>
				</g>
			</g>
		</g>
		<g>
			<g class="st20">
				<path class="st21" d="M35.88,367.19c-0.18,0.08-0.28,0.18-0.32,0.54c-0.06,0.54,0.12,3.19,1.61,2.41
					c1.31-0.68,0.49-2.28-0.69-3.01C36.34,367.04,36.09,367.09,35.88,367.19z"/>
			</g>
			<g>
				<path class="st22" d="M35.92,367.05c-0.18,0.08-0.28,0.18-0.32,0.54c-0.06,0.54,0.34,2.64,1.4,2.16
					c1.24-0.56,0.21-2.02-0.52-2.62C36.35,367.02,36.13,366.95,35.92,367.05z"/>
				<g>
					<path class="st23" d="M37.02,368.26c0.17,0.43,0.23,0.97,0.36,0.95c0.22-0.02-0.02-0.7-0.06-0.8
						c-0.27-0.56-0.59-0.83-0.99-1.28C36.55,367.59,36.84,367.82,37.02,368.26z"/>
				</g>
				<g>
					<path class="st24" d="M35.78,367.39c0,0.23-0.06,0.32-0.01,0.72c0.04,0.29,0.09,0.49,0.16,0.78c0.07,0.25,0.26,0.66,0.54,0.74
						c0.08,0.03,0.4,0.12,0.46,0.02c0.11-0.18-0.21-0.26-0.36-0.33C36.01,369.08,35.9,367.9,35.78,367.39z"/>
				</g>
			</g>
		</g>
		<g>
			<g class="st20">
				<path class="st21" d="M50.82,356.65c-0.21,0.04-0.44,0.31-0.58,0.6c-0.12,0.24-0.14,0.44,0.09,0.84
					c0.36,0.62,2.62,3.22,3.56,1.07C54.72,357.28,52.61,356.35,50.82,356.65z"/>
			</g>
			<g>
				<path class="st22" d="M50.18,357.07c-0.12,0.25-0.14,0.44,0.09,0.85c0.36,0.62,2.43,2.45,3.15,0.99c0.84-1.69-1.37-2.3-2.6-2.26
					C50.6,356.65,50.32,356.78,50.18,357.07z"/>
				<g>
					<path class="st23" d="M50.67,356.79c0.58,0.28,1.07,0.26,1.6,0.56c0.51,0.29,1,0.8,1.12,0.67c0.21-0.21-0.58-0.71-0.69-0.78
						C51.99,356.91,51.44,356.91,50.67,356.79z"/>
				</g>
				<g>
					<path class="st24" d="M52.62,358.86c-0.76,0.24-1.8-0.89-2.33-1.3c0.18,0.24,0.19,0.39,0.55,0.75
						c0.26,0.27,0.48,0.43,0.77,0.67c0.26,0.19,0.78,0.45,1.14,0.29c0.11-0.05,0.51-0.23,0.5-0.39
						C53.23,358.59,52.83,358.79,52.62,358.86z"/>
				</g>
			</g>
		</g>
		<g>
			<g class="st20">
				<path class="st21" d="M54.24,354.64c-0.2,0.09-0.35,0.42-0.42,0.74c-0.06,0.27-0.03,0.46,0.29,0.79c0.5,0.5,3.31,2.4,3.7,0.06
					C58.16,354.19,55.9,353.87,54.24,354.64z"/>
			</g>
			<g>
				<path class="st22" d="M54.24,354.64c-0.21,0.07-0.45,0.26-0.52,0.58c-0.06,0.27-0.03,0.46,0.29,0.79
					c0.5,0.5,2.93,1.71,3.28,0.11C57.7,354.25,55.42,354.27,54.24,354.64z"/>
				<g>
					<path class="st23" d="M54.13,354.82c0.63,0.12,1.1-0.04,1.68,0.1c0.57,0.14,1.16,0.5,1.25,0.34c0.15-0.27-0.73-0.53-0.86-0.56
						C55.43,354.57,54.9,354.72,54.13,354.82z"/>
				</g>
				<g>
					<path class="st24" d="M56.51,356.28c-0.67,0.44-1.95-0.37-2.56-0.62c0.23,0.19,0.28,0.32,0.71,0.58
						c0.32,0.18,0.57,0.28,0.91,0.43c0.3,0.12,0.87,0.23,1.17-0.03c0.09-0.08,0.44-0.36,0.39-0.51
						C57.04,355.86,56.7,356.16,56.51,356.28z"/>
				</g>
			</g>
		</g>
		<g>
			<g class="st20">
				<path class="st21" d="M54.06,350.31c-0.16,0.08-0.29,0.35-0.34,0.61c-0.05,0.22-0.03,0.38,0.24,0.65
					c0.41,0.41,2.71,1.96,3.03,0.05C57.27,349.94,55.42,349.68,54.06,350.31z"/>
			</g>
			<g>
				<path class="st22" d="M54.06,350.31c-0.17,0.06-0.37,0.21-0.42,0.47c-0.05,0.22-0.03,0.38,0.24,0.65
					c0.41,0.41,2.4,1.4,2.69,0.08C56.9,349.99,55.03,350.01,54.06,350.31z"/>
				<g>
					<path class="st23" d="M53.97,350.46c0.51,0.1,0.9-0.04,1.38,0.08c0.46,0.12,0.95,0.41,1.02,0.28c0.13-0.22-0.59-0.43-0.7-0.46
						C55.04,350.25,54.6,350.38,53.97,350.46z"/>
				</g>
				<g>
					<path class="st24" d="M55.93,351.66c-0.55,0.36-1.6-0.3-2.1-0.51c0.19,0.15,0.23,0.26,0.59,0.47c0.26,0.15,0.46,0.23,0.74,0.35
						c0.25,0.1,0.71,0.18,0.96-0.02c0.07-0.07,0.36-0.3,0.32-0.42C56.35,351.31,56.08,351.56,55.93,351.66z"/>
				</g>
			</g>
		</g>
		<g>
			<g class="st20">
				<path class="st21" d="M13.25,357.22c0.01,2.38,2.62,2.24,4.34,1c0.21-0.15,0.31-0.55,0.32-0.93c0.01-0.32-0.05-0.53-0.48-0.83
					C16.77,356.01,13.24,354.5,13.25,357.22z"/>
			</g>
			<g>
				<path class="st22" d="M13.86,357.24c-0.1,2.19,2.47,1.66,3.73,0.98c0.22-0.12,0.46-0.39,0.47-0.77
					c0.01-0.32-0.05-0.53-0.48-0.83C16.92,356.17,13.94,355.36,13.86,357.24z"/>
				<g>
					<path class="st23" d="M14.28,358.14c-0.12,0.34,0.92,0.44,1.07,0.44c0.9-0.02,1.47-0.31,2.32-0.59
						c-0.73,0.01-1.23,0.29-1.91,0.26C15.09,358.22,14.36,357.94,14.28,358.14z"/>
				</g>
				<g>
					<path class="st24" d="M14.38,356.52c-0.09,0.11-0.42,0.5-0.34,0.67c0.16,0.28,0.48-0.13,0.67-0.31
						c0.67-0.65,2.27-0.02,3.01,0.13c-0.3-0.16-0.38-0.3-0.91-0.49c-0.39-0.14-0.69-0.2-1.11-0.29
						C15.33,356.16,14.67,356.17,14.38,356.52z"/>
				</g>
			</g>
		</g>
		<g>
			<g class="st20">
				<path class="st21" d="M53.41,331.96c-0.04,0.26,0.15,0.62,0.4,0.9c0.2,0.23,0.39,0.33,0.89,0.21c0.76-0.18,4.24-1.82,2.42-3.71
					C55.51,327.69,53.77,329.78,53.41,331.96z"/>
			</g>
			<g>
				<path class="st22" d="M53.41,331.96c-0.07,0.25-0.06,0.63,0.18,0.9c0.2,0.23,0.39,0.33,0.89,0.21c0.76-0.19,3.39-1.89,2.18-3.27
					C55.27,328.19,53.83,330.52,53.41,331.96z"/>
				<g>
					<path class="st23" d="M54.72,330c-0.61,0.7-0.82,1.34-1.22,2.18c0.5-0.56,0.66-1.14,1.17-1.64c0.49-0.48,1.18-0.85,1.1-1.04
						C55.62,329.16,54.83,329.89,54.72,330z"/>
				</g>
				<g>
					<path class="st24" d="M56.32,330.7c-0.03,0.97-1.57,1.75-2.19,2.21c0.32-0.12,0.47-0.08,0.97-0.35
						c0.37-0.2,0.62-0.39,0.97-0.64c0.3-0.23,0.76-0.74,0.72-1.21c-0.01-0.15-0.04-0.67-0.21-0.73
						C56.28,329.9,56.33,330.43,56.32,330.7z"/>
				</g>
			</g>
		</g>
		<g>
			<g class="st20">
				<path class="st21" d="M55.06,336.39c-0.04,0.21,0.12,0.51,0.32,0.74c0.17,0.19,0.32,0.27,0.73,0.17
					c0.63-0.15,3.49-1.5,1.99-3.06C56.78,332.88,55.36,334.6,55.06,336.39z"/>
			</g>
			<g>
				<path class="st22" d="M55.06,336.39c-0.06,0.21-0.05,0.51,0.15,0.74c0.17,0.19,0.32,0.27,0.73,0.17
					c0.63-0.15,2.79-1.55,1.8-2.69C56.59,333.3,55.4,335.21,55.06,336.39z"/>
				<g>
					<path class="st23" d="M55.13,336.57c0.41-0.46,0.54-0.94,0.96-1.35c0.4-0.4,0.97-0.7,0.91-0.86c-0.12-0.27-0.77,0.33-0.86,0.42
						C55.63,335.36,55.46,335.89,55.13,336.57z"/>
				</g>
				<g>
					<path class="st24" d="M57.45,335.36c-0.03,0.8-1.29,1.44-1.8,1.82c0.26-0.1,0.38-0.07,0.8-0.29c0.3-0.17,0.51-0.32,0.8-0.53
						c0.24-0.19,0.62-0.61,0.6-0.99c-0.01-0.12-0.04-0.55-0.17-0.6C57.42,334.7,57.46,335.13,57.45,335.36z"/>
				</g>
			</g>
		</g>
		<g>
			<g class="st20">
				<path class="st21" d="M47.84,330.42c0.12,0.2,0.45,0.31,0.77,0.33c0.26,0.02,0.44-0.04,0.7-0.44c0.39-0.61,1.73-3.93-0.53-3.98
					C46.79,326.28,46.85,328.76,47.84,330.42z"/>
			</g>
			<g>
				<path class="st22" d="M47.84,330.42c0.1,0.21,0.32,0.45,0.63,0.47c0.26,0.02,0.44-0.04,0.7-0.44c0.39-0.61,1.14-3.41-0.43-3.53
					C46.92,326.76,47.3,329.21,47.84,330.42z"/>
				<g>
					<path class="st23" d="M47.98,327.29c-0.28-0.12-0.38,0.86-0.39,1.01c0,0.85,0.23,1.4,0.44,2.21c0.01-0.69-0.21-1.17-0.17-1.82
						C47.9,328.05,48.14,327.36,47.98,327.29z"/>
				</g>
				<g>
					<path class="st24" d="M49.28,329.71c0.13-0.37,0.18-0.65,0.26-1.04c0.06-0.34,0.07-0.97-0.21-1.25
						c-0.09-0.09-0.41-0.41-0.55-0.34c-0.24,0.14,0.09,0.46,0.24,0.64c0.53,0.65-0.03,2.15-0.18,2.85
						C48.99,330.28,49.11,330.21,49.28,329.71z"/>
				</g>
			</g>
		</g>
		<g>
			<g class="st20">
				<path class="st21" d="M50.89,326.37c0.06,0.19,0.32,0.36,0.58,0.44c0.21,0.07,0.37,0.07,0.67-0.21c0.45-0.43,2.2-2.9,0.33-3.44
					C50.81,322.69,50.38,324.77,50.89,326.37z"/>
			</g>
			<g>
				<path class="st22" d="M50.89,326.37c0.04,0.2,0.18,0.44,0.44,0.53c0.22,0.07,0.38,0.06,0.67-0.22c0.45-0.42,1.61-2.6,0.33-3.04
					C50.83,323.12,50.68,325.24,50.89,326.37z"/>
				<g>
					<path class="st23" d="M51.09,324.54c-0.17,0.71-0.08,1.22-0.06,1.94c0.14-0.57,0.05-1.03,0.21-1.56
						c0.16-0.52,0.5-1.03,0.37-1.13C51.4,323.62,51.12,324.42,51.09,324.54z"/>
				</g>
				<g>
					<path class="st24" d="M52.23,326.09c0.18-0.28,0.28-0.51,0.42-0.81c0.12-0.27,0.25-0.79,0.07-1.09
						c-0.06-0.09-0.26-0.43-0.39-0.4c-0.23,0.07-0.01,0.4,0.08,0.59c0.31,0.66-0.44,1.79-0.7,2.34
						C51.87,326.51,51.99,326.48,52.23,326.09z"/>
				</g>
			</g>
		</g>
		<g>
			<g class="st20">
				<path class="st21" d="M44.36,323.48c-1.95,0.39-1.42,2.8-0.12,4.2c0.16,0.17,0.5,0.2,0.81,0.15c0.26-0.04,0.43-0.14,0.6-0.58
					C45.91,326.56,46.58,323.03,44.36,323.48z"/>
			</g>
			<g>
				<path class="st22" d="M44.44,324.05c-1.81,0.26-0.96,2.58-0.2,3.63c0.13,0.19,0.4,0.37,0.7,0.32c0.26-0.04,0.42-0.13,0.6-0.58
					C45.81,326.73,46,323.82,44.44,324.05z"/>
				<g>
					<path class="st23" d="M43.77,324.59c-0.3-0.06-0.21,0.93-0.19,1.07c0.16,0.83,0.49,1.32,0.86,2.06
						c-0.12-0.68-0.44-1.1-0.52-1.74C43.83,325.35,43.94,324.62,43.77,324.59z"/>
				</g>
				<g>
					<path class="st24" d="M45.51,326.67c0.05-0.39,0.05-0.68,0.06-1.08c0-0.35-0.11-0.96-0.45-1.18c-0.11-0.07-0.48-0.31-0.6-0.21
						c-0.21,0.19,0.18,0.43,0.36,0.57c0.64,0.52,0.39,2.11,0.38,2.83C45.33,327.3,45.44,327.2,45.51,326.67z"/>
				</g>
			</g>
		</g>
		<g>
			<g class="st20">
				<path class="st21" d="M40.5,327.14c-1.72,1.05-0.47,3.14,1.18,4.02c0.2,0.1,0.54,0.01,0.81-0.14c0.23-0.13,0.36-0.28,0.39-0.76
					C42.92,329.51,42.46,325.94,40.5,327.14z"/>
			</g>
			<g>
				<path class="st22" d="M40.75,327.65c-1.63,0.88-0.12,2.77,0.93,3.5c0.18,0.13,0.49,0.21,0.76,0.05
					c0.23-0.13,0.36-0.28,0.39-0.76C42.86,329.7,42.15,326.89,40.75,327.65z"/>
				<g>
					<path class="st23" d="M40.28,328.4c-0.3,0.05,0.09,0.95,0.15,1.08c0.41,0.73,0.87,1.07,1.44,1.65
						c-0.33-0.6-0.75-0.89-1.03-1.47C40.58,329.09,40.46,328.37,40.28,328.4z"/>
				</g>
				<g>
					<path class="st24" d="M42.57,329.76c-0.07-0.39-0.16-0.66-0.28-1.04c-0.11-0.33-0.41-0.87-0.79-0.96
						c-0.12-0.03-0.55-0.13-0.63,0.01c-0.13,0.25,0.3,0.34,0.51,0.42c0.77,0.27,1.01,1.86,1.23,2.54
						C42.59,330.41,42.66,330.28,42.57,329.76z"/>
				</g>
			</g>
		</g>
		<g>
			<g class="st20">
				<path class="st21" d="M35.21,328.29c-1.73,0.48-1.11,2.62,0.13,3.8c0.15,0.14,0.46,0.15,0.74,0.09
					c0.23-0.05,0.37-0.15,0.51-0.57C36.79,330.97,37.19,327.74,35.21,328.29z"/>
			</g>
			<g>
				<path class="st22" d="M35.32,328.8c-1.61,0.35-0.72,2.38,0.03,3.29c0.13,0.16,0.38,0.3,0.65,0.24c0.23-0.05,0.38-0.15,0.51-0.56
					C36.71,331.12,36.71,328.49,35.32,328.8z"/>
				<g>
					<path class="st23" d="M34.74,329.33c-0.27-0.03-0.13,0.85-0.11,0.98c0.2,0.74,0.52,1.16,0.89,1.8
						c-0.15-0.6-0.46-0.96-0.57-1.54C34.85,330.01,34.91,329.35,34.74,329.33z"/>
				</g>
				<g>
					<path class="st24" d="M35.95,329.09c-0.1-0.05-0.45-0.25-0.55-0.15c-0.17,0.19,0.19,0.37,0.36,0.49
						c0.61,0.43,0.47,1.88,0.5,2.52c0.06-0.28,0.15-0.37,0.18-0.86c0.03-0.36,0.01-0.61-0.01-0.98
						C36.4,329.81,36.26,329.26,35.95,329.09z"/>
				</g>
			</g>
		</g>
		<g>
			<g class="st20">
				<path class="st21" d="M30.36,326.83c-1.78,0.94-0.65,3.11,0.95,4.08c0.19,0.12,0.54,0.05,0.82-0.09
					c0.24-0.12,0.37-0.25,0.43-0.74C32.64,329.35,32.38,325.76,30.36,326.83z"/>
			</g>
			<g>
				<path class="st22" d="M30.58,327.36c-1.67,0.78-0.27,2.76,0.73,3.56c0.18,0.14,0.48,0.24,0.76,0.1
					c0.24-0.12,0.37-0.25,0.43-0.74C32.58,329.54,32.02,326.69,30.58,327.36z"/>
				<g>
					<path class="st23" d="M30.07,328.07c-0.3,0.03,0.04,0.96,0.09,1.08c0.37,0.76,0.81,1.13,1.35,1.74
						c-0.29-0.61-0.7-0.93-0.95-1.53C30.33,328.79,30.25,328.06,30.07,328.07z"/>
				</g>
				<g>
					<path class="st24" d="M31.32,327.51c-0.12-0.03-0.54-0.16-0.63-0.03c-0.15,0.25,0.28,0.36,0.49,0.45
						c0.75,0.32,0.91,1.92,1.08,2.61c0-0.32,0.08-0.44,0.01-0.97c-0.05-0.39-0.12-0.67-0.22-1.06
						C31.96,328.18,31.7,327.63,31.32,327.51z"/>
				</g>
			</g>
		</g>
		<g>
			<g class="st20">
				<path class="st21" d="M27.57,331.47c-1.39,1.51,0.35,3.16,2.16,3.52c0.22,0.04,0.52-0.14,0.75-0.37
					c0.19-0.19,0.27-0.37,0.18-0.84C30.51,333.06,29.15,329.75,27.57,331.47z"/>
			</g>
			<g>
				<path class="st22" d="M27.94,331.89c-1.34,1.32,0.59,2.7,1.78,3.1c0.21,0.07,0.52,0.06,0.75-0.17c0.19-0.19,0.28-0.37,0.18-0.84
					C30.5,333.26,29.1,330.76,27.94,331.89z"/>
				<g>
					<path class="st23" d="M27.68,332.75c-0.27,0.13,0.33,0.89,0.42,0.99c0.58,0.58,1.11,0.78,1.81,1.17
						c-0.47-0.48-0.95-0.63-1.36-1.11C28.15,333.33,27.85,332.67,27.68,332.75z"/>
				</g>
				<g>
					<path class="st24" d="M28.69,331.78c-0.12,0.01-0.56,0.04-0.6,0.19c-0.06,0.28,0.38,0.24,0.6,0.25
						c0.81,0.04,1.45,1.5,1.83,2.09c-0.1-0.3-0.06-0.44-0.29-0.92c-0.17-0.35-0.33-0.58-0.53-0.92
						C29.51,332.19,29.09,331.76,28.69,331.78z"/>
				</g>
			</g>
		</g>
		<g>
			<g class="st20">
				<path class="st21" d="M45.27,331.35c-1.4,0.23-1.07,1.96-0.18,2.99c0.11,0.12,0.35,0.16,0.57,0.13c0.19-0.02,0.31-0.08,0.44-0.4
					C46.31,333.58,46.86,331.08,45.27,331.35z"/>
			</g>
			<g>
				<path class="st22" d="M45.09,334.34c0.09,0.14,0.27,0.27,0.49,0.24c0.19-0.02,0.31-0.09,0.44-0.4c0.2-0.48,0.4-2.54-0.71-2.42
					C44.02,331.9,44.57,333.56,45.09,334.34z"/>
				<g>
					<path class="st23" d="M44.82,332.12c-0.21-0.05-0.17,0.66-0.16,0.76c0.1,0.6,0.32,0.95,0.57,1.49
						c-0.07-0.48-0.29-0.79-0.33-1.25C44.86,332.67,44.95,332.15,44.82,332.12z"/>
				</g>
				<g>
					<path class="st24" d="M46.02,333.65c0.05-0.28,0.05-0.48,0.06-0.77c0-0.25-0.06-0.69-0.3-0.85c-0.07-0.05-0.34-0.23-0.42-0.16
						c-0.15,0.13,0.12,0.31,0.24,0.42c0.45,0.39,0.23,1.51,0.21,2.02C45.88,334.09,45.96,334.02,46.02,333.65z"/>
				</g>
			</g>
		</g>
		<g class="st25">
			<path class="st26" d="M7.24,336.91c2.93-4.38,6.01-11.26,6.72-14.79c-3.21,3.29-5.08,10.09-8.14,14.27
				c-3.42,4.66-3.42,11.28-3.81,15.74c-0.53,5.36,1.06,9.87,2.11,14.94c0.26,1.13,0.26,2.82,0.79,3.66
				c0.79,1.41,2.12,1.69,2.64,2.82c1.32,1.69,1.89,3.92,3.4,5.73c0.43,0.52,0.69,0.85,1.27,0.85c0.79-4.51-4.86-7.65-6.18-11.6
				c-1.59-4.23-2.59-11.68-2.32-16.76C3.99,346.87,4.72,340.68,7.24,336.91z"/>
		</g>
		<g class="st25">
			<path class="st26" d="M52.09,375.36c0.01-0.01,0.02-0.02,0.03-0.02C52.08,375.37,52.07,375.37,52.09,375.36z"/>
		</g>
		<g class="st25">
			<path class="st26" d="M76.42,351.07c-1.55,1.29-1.89,2.21-2.93,3.86c-0.52,0.92-1.21,2.02-2.07,2.57
				c-0.52,0.55-1.55,0.18-1.9,0.55c-1.55,1.29-1.55,3.49-2.93,4.96c-0.52,0.55-3.27,1.47-4.31,2.21c-1.21,0.73-3.94,1.43-5.15,2.35
				c-1.21,1.1-2.45,3.74-3.82,4.66c-1.38,0.74-4.54,1.27-5.92,2.37c-3.1,2.39-2.08,3.31-5.7,4.41c-1.5,0.56-3.91-0.43-5.38,0.23
				c-1.92,0.86-3.86,1.72-5.91,2.35c-2.06,0.58-4.3,0.89-6.55,0.88c-4.13-0.02-8.31-1.14-11.54-3.64v0.18
				c-0.51,2.39,2.76,3.68,4.65,4.23c2.41,0.92,4.48,1.65,7.07,1.65c0.69,0,1.21,0.73,1.9,0.55c0.86-0.18,1.38-1.1,2.07-1.29
				c1.9-0.55,2.07,0.18,3.79,0.37c-0.17,0,1.9-0.73,2.07-0.73c0.35,0,1.38,0.37,1.9,0.18c1.55-0.18,2.93-2.02,4.31-2.57
				c0.17,0.74,0.86,1.47,0.86,2.21c3.62-1.84,3.62-8.09,8.62-4.23c1.2-1.64,1.38-3.1,2.56-4.02c-0.02,0.01-0.02,0,0.03-0.02
				c-0.01,0.01-0.02,0.02-0.03,0.02c0.15-0.05,1.77-0.76,1.92-0.76c0.52-0.37,1.21-1.47,1.9-1.84c0.34-0.18,1.55,0.18,2.07,0
				c-0.17,0,1.73-1.84,1.55-1.66c0.34-0.37,0.86-0.92,1.21-1.29c0-0.18,0-2.02,0-2.39c0.69,0.18,2.07,1.47,2.76,1.29
				c0.86-0.37,0.34-1.47,1.03-2.02c1.38-1.29,2.07-0.55,3.79-1.29c2.76-1.1,0.86-1.84,1.55-4.04c0.52-2.57,2.24-0.92,3.62-2.57
				c0.52-0.73-0.52-1.84,0.17-2.57c0.52-0.74,1.21-0.55,1.9-1.1c0.69-0.37,1.38-0.18,2.07-0.73c0.34-0.37-0.17-1.65,0.34-2.21
				c0.52-0.55,1.9,0.18,2.24-0.37c0.69-0.92,0-1.66,0-2.58c0-2.02-0.69-3.31,2.41-3.49c0-0.55-0.34-1.65-0.69-2.21
				c-1.38,1.1-1.03,3.49-2.93,3.68c0,0.73,0,2.21-0.52,2.76C77.63,351.07,77.11,350.52,76.42,351.07z"/>
		</g>
		<g class="st27">
			<path class="st14" d="M28.85,382.7l0.17,0.55c0.02-0.06,0.04-0.12,0.05-0.18C28.95,382.8,28.85,382.63,28.85,382.7z"/>
		</g>
		<g class="st27">
			<path class="st14" d="M45.22,378.22c-0.17,0.19-1.26,1.19-1.43,1.38c-1.03-0.74-1.15-1.31-1.5-2.6
				c-0.86,0.92-1.55,2.21-2.59,3.13c-0.86-1.1-1.9-0.55-2.76,0.55c-0.17-0.18-0.34-0.37-0.51-0.55c-0.17,0.55-1.03,1.29-1.21,1.84
				c-0.17-0.18-0.69-0.37-1.03-0.55c-1.53,1.99-3.89-2.44-5.12,1.66c0.2,0.43,0.46,1.12,0.46,1.47c0.34-0.37,1.21-0.73,1.55-1.29
				c0.17,0.37,0.69,0.74,0.86,1.29c1.21-2.02,3.1-1.47,3.62,0.55c0.86-0.55,1.38-1.47,1.72-2.57c0.17,0.18,0.17,0.37,0.35,0.55
				c0.17-0.74,0.86-1.47,1.03-2.02c1.55,1.1,2.46,2.02,3.45,0.73c1.67-2.18,4.89-0.86,4.72-3.53
				C46.67,377.69,45.56,378.78,45.22,378.22z"/>
		</g>
		<g class="st27">
			<path class="st14" d="M22.82,382.88c-0.17-0.37-0.35-0.55-0.35-0.92c-1.72,1.65-4.14-2.39-4.48,0.55v0.37c0,0,0,0.55,0.52,0.92
				c0.17-0.19,0.69-0.55,1.03-0.55c0.17,0.55,0.86,1.47,1.04,2.02c1.55-0.74,3.45-0.18,5-1.29c-0.52-0.92-1.03-1.65-1.55-2.39
				C23.68,382.33,23.16,382.33,22.82,382.88z"/>
		</g>
		<g class="st27">
			<path class="st14" d="M68.15,366.7c0.69-0.74-0.34-5.33,2.07-2.58c-1.03-1.65-3.1-1.47-4.65-2.02c0.17,3.31-1.72,1.47-1.9,1.65
				c-1.21,0.55-1.72,1.47-2.93,2.57c-0.17-0.18-0.17-0.55-0.34-0.74c-0.17,1.29-0.52,2.94-1.9,2.76c-0.17,0.92-0.86,1.66-1.03,2.39
				c-0.35-0.55-1.21-0.92-1.73-1.47c-0.52,0.92-0.69,2.02-0.34,2.94l0.17-0.18c0.52-0.74,1.38,0.37,2.59,0
				c1.21-0.19,2.07-2.39,3.27-1.11c0.17-1.29,0.69-2.21,1.9-2.21C63.15,365.41,66.77,367.99,68.15,366.7z"/>
		</g>
		<g class="st27">
			<path class="st14" d="M76.25,350.15c-0.86,1.66,0.86,3.31-2.76,3.13c0.52,0.55,1.04,1.47,1.72,2.02h-0.17
				c0.86,0.37,2.07,0.18,3.1-0.37c-0.86-1.29-0.17-2.39,1.21-2.76c-1.72-2.57,0.17-2.39,1.03-3.86c1.03-1.47,0.86-2.39,1.38-4.41
				c-0.17-0.18-0.52-0.18-0.69-0.37c0.34,1.29-0.35,2.39-1.55,2.57C80.9,349.05,76.94,348.68,76.25,350.15z"/>
		</g>
		<g class="st25">
			<path class="st26" d="M20.58,386.19h0.17l-2.41-1.47c0.44,0.7,1.39,1.26,2.5,1.71C20.69,386.33,20.6,386.25,20.58,386.19z"/>
		</g>
		<g class="st25">
			<path class="st26" d="M76.94,361.55c-1.21,2.76-2.07,1.47-3.96,3.13c-1.21,0.92-1.38,3.86-2.76,4.96
				c-0.86,0.55-1.9,0.37-2.59,0.92c-0.69,0.55-1.03,1.65-1.72,2.02c-1.72,1.1-3.79-0.18-5.17,1.1c-1.38,1.1-0.52,3.49-2.24,4.78
				c-1.38,1.1-3.96,1.29-5.52,2.39c-1.73,1.29-3.45,2.02-5.34,2.76c-3.79,1.29-7.41,2.58-11.03,4.05c-3.27,1.29-7.93,0.73-11.38,0
				c-1.1-0.21-2.88-0.61-4.4-1.23c1.22,0.84,6.4,2.93,7.33,3.25c2.93,0.55,6.72,0.55,9.65,0.73c2.41,0.18,2.93-1.1,4.83-1.84
				c1.72-0.74,3.79,0,5.51-0.55c2.41-0.74,3.45-3.12,5.52-4.04c1.9-0.74,4.65,0.55,5.86-0.18c1.21-0.55,2.24-3.5,3.45-4.6
				c1.73-1.47,2.93-1.1,4.65-2.02c2.24-1.1,1.38-3.12,3.1-4.78c1.72-1.65,3.1-1.65,4.48-3.49c2.07-3.13,4.48-5.15,5.51-9.19
				c0.52-2.02,0.35-3.49,1.21-5.52c0.69-1.84,1.55-3.68,2.24-5.7c-0.69,1.84-2.07,2.94-3.1,4.41c-0.86,1.47-0.86,3.68-1.72,4.96
				c-0.52,0.55-1.9,0.92-2.07,1.1C76.94,359.71,77.28,360.82,76.94,361.55z"/>
		</g>
		<g class="st25">
			<path class="st26" d="M68.84,380.49c-1.21,0.92-1.21,2.02-2.07,2.94c-0.86,0.74-2.07,1.1-3.1,1.65
				c-1.03,0.73-1.38,1.47-2.76,1.84c-1.38,0.37-2.59,0.74-3.79,1.1c-0.34,0.18-0.69,0.74-1.21,0.74c-0.35,0.18-1.04-0.37-1.55-0.18
				c-1.03,0.18-2.93,2.02-3.79,0.92c-2.03,0.46-3.57,1.97-5.35,2.76c16.86-1.18,29.88-10.89,35.66-25.33
				c-0.78,0.52-1.72,0.88-2.57,1.79c-1.9,1.84-3.1,7.72-6.03,7.35c0.17,0.92,0.35,2.21,0.17,3.31
				C71.08,379.02,69.87,379.76,68.84,380.49z"/>
		</g>
		<g class="st27">
			<path class="st14" d="M26.61,387.91c0.03-0.03,0.07-0.07,0.12-0.11c0,0-0.01-0.01-0.01-0.01L26.61,387.91z"/>
		</g>
		<g class="st27">
			<path class="st14" d="M55.34,380.67c-0.46,0-2.3,0-2.53,0.12c-1.03,0.61-0.8,1.47-1.15,2.45c-0.23-0.37-3.68-1.47-4.25-1.35
				c-1.15,0.49-0.58,3.8-1.95,3.06c-0.8,0.86-1.72,0.37-2.64,0.49c-1.15,0.12-1.72,0.98-2.64,1.23c-1.84,0.61-0.58,0-2.07-0.74
				c-1.15-0.61-1.72-0.12-2.41,0.61c-0.57,0.61-0.35,1.96-1.61,2.08c-0.81,0-0.81-0.86-1.15-0.86c-0.46,0-1.26,0.49-1.49,0.37
				c-0.69-0.12-0.58-0.25-1.15-0.49c-0.23-0.12-0.11-0.98-0.57-1.1c-0.64-0.34-2.38,0.7-2.98,1.24c0.12,1.82,2.53,0.36,2.98,2.19
				c1.38-0.86,2.64,1.96,3.79-0.37c2.07,1.72,1.72-0.12,3.56-0.49c1.26-0.24,2.76,1.84,3.91,1.47c0.81-0.25,0.81-1.47,1.38-2.08
				c1.15-0.98,0.46-0.37,1.72-0.24c1.03,0.24,0.46,0.86,1.61,0.37c0.57-0.25,0.92-1.35,1.61-1.72c1.49,1.59,4.83,0,4.71-2.21
				c1.03,0,2.18,0.25,3.22-0.12c-0.23-2.08,0.69-2.21,2.41-2.08c-0.21-0.77-0.23-1.34-0.11-1.77
				C56.86,380.81,56.07,380.67,55.34,380.67z"/>
		</g>
		<g class="st27">
			<path class="st14" d="M58.95,379.54c-0.71,0.19-1.24,0.52-1.43,1.2C58.21,380.68,58.76,380.4,58.95,379.54z"/>
		</g>
		<g class="st27">
			<path class="st14" d="M61.2,376.38c-0.11,0.98-1.15,3.07-2.18,2.21c0.02,0.38-0.01,0.69-0.07,0.95c1.54-0.42,3.87-0.21,5.12-1.68
				C63.03,377.49,62,377.49,61.2,376.38z"/>
		</g>
		<g class="st27">
			<path class="st14" d="M76.48,361.43c0.23,0.25,0.35,0.61,0.46,0.73c-0.8,0.12-1.61-0.12-2.41,0.12
				c-1.38,0.49-0.57,0.74-1.15,1.96c-0.81,1.72-1.84,2.57-3.33,3.68c-1.26,0.98-1.84,2.57-2.41,3.68c-0.46,0.74-0.92,0-0.92,1.35
				c0,0.37,0.23,0.86,0.46,1.23l-0.12,0.37c1.38-0.86,2.53-1.96,4.02-2.33c-1.61-2.08,1.38-0.98,2.07-1.35c0,0,1.72-2.94,1.72-3.06
				c0.46-1.35-0.69-2.09,0.92-3.19c0.92-0.61,2.41-0.24,3.45-0.73c-1.61-1.47,0.23-2.21,0.57-3.56c0.57-1.84-0.69-1.72-1.15-3.31
				C76.59,357.87,79.81,362.65,76.48,361.43z"/>
		</g>
		<g class="st27">
			<path class="st14" d="M55.45,373.69c-0.58-1.1-1.03-0.12-1.72-0.61c-0.69-0.49-0.8-1.35-1.61-1.84c-0.23,1.1-1.26,2.82-2.3,1.47
				c-0.34,0.74-0.8,1.23-1.61,0.98c0,0.98-0.12,2.08-0.46,2.94l-0.11,0.24c0.69-0.49,1.49-0.24,2.41-0.49
				c1.26-0.24,1.72-0.86,3.33,0C51.55,374.18,53.61,373.69,55.45,373.69z"/>
		</g>
		<g class="st27">
			<path class="st14" d="M73.72,358.24c0.23-0.86-1.03-1.72-1.5-2.45c-0.34,0.61-0.8,0.74-1.26,1.1c0.12-0.12,0.23-0.37,0.35-0.49
				c-1.26,0.74-2.41,1.1-1.61,2.82v0.12c0.12,0,1.03,0.98,1.84,0.98c-0.23-0.37-0.12-1.1-0.23-1.35
				C72.11,359.35,73.38,359.47,73.72,358.24z"/>
		</g>
		<g class="st27">
			<path class="st14" d="M63.67,385.09c0.46-0.25,2.01-0.12,2.47-0.49c0.81-0.61,0.46-2.82,1.15-3.55c0.92-0.98,3.78-0.29,4.25-1.59
				c0.89-2.45,5.62-3.68,3.22-6.13c-0.23,0.98-0.57,2.08-1.38,2.33c-0.35,0-1.15-0.98-2.07-0.49c-1.73,0.86-0.23,0.98-0.58,2.33
				c-0.23,0.98-0.8,1.47-1.84,0.37c0,2.7-1.61,0.98-2.87,0.73c0,1.1,0.23,4.78-1.61,4.05c0,0.86-0.23,1.35-0.92,0.86
				c-0.34,0.86-1.72,1.35-2.3,2.33c-0.8-0.61-1.72-1.23-2.76-0.98c0.23,1.96-0.69,1.23-1.72,1.59c-1.72,0.61-0.8,0.37-1.84,1.96
				c-1.15-0.73-1.72,1.47-2.76-0.37c-0.69,0.49-1.26,1.35-1.72,2.08v0.24c0.92,0.12,2.3,0.12,3.33-0.12
				c2.3-0.37,2.64-2.33,4.94-3.31c1.26-0.49,3.33,0.37,4.48-0.49C63.61,386.07,63.09,385.46,63.67,385.09z"/>
		</g>
		<g class="st27">
			<path class="st14" d="M77.4,368.42c-0.23,0.61-0.35,1.35-0.12,1.96l0.12,0.12c0.34,0.25,0.57,0.37,1.15,0.25
				c-0.11-1.84,2.18-2.33,1.84-4.04C79.35,367.19,78.66,369.52,77.4,368.42z"/>
		</g>
		<g class="st27">
			<path class="st14" d="M80.84,358c1.27-0.49,1.04-1.23,1.38-2.21c0.11-0.25-0.11-0.74-0.11-0.98c0.23-0.49,0.8-0.61,1.03-0.98
				c0.69-1.84,0.11-4.05,0.69-5.52l0.23-0.37c-0.57,0-1.38,0.12-1.61,0.73c-0.23,0.61,0.69,1.35,0.69,1.96
				c0,1.23-0.23,0.61-0.69,1.35c0,0.12-0.8,0.98-0.92,1.23c0.23-0.37-0.81,2.08-0.81,1.35C80.73,355.79,82.45,356.65,80.84,358z"/>
		</g>
		<g class="st27">
			<path class="st14" d="M16.79,322.2c0-0.92-0.35-0.55-0.69-0.73l-0.52,0.55c0.17-0.18-0.69,0-0.86,0
				c-0.34,1.1-0.17,0.73-1.03,1.29c0,0.74-0.17,0.74-0.52,1.29c0,1.29-1.72,1.84-2.59,3.31c0.17,0.18,0.86,0.55,1.03,0.55
				l-0.17-0.55c1.55-0.55,2.24-2.94,3.62-2.94c0.17-0.73,0.17-0.55,0.52-1.1C15.06,322.57,15.58,322.02,16.79,322.2z"/>
		</g>
		<g class="st27">
			<path class="st14" d="M5.24,337.28c0.69-1.29,2.24-0.55,1.72-2.57l-0.35,0.55c-1.9,0.92-2.41,3.31-2.93,5.52
				C3.34,342.43,3,343.35,2.82,345c0,1.84,0.17,3.31-1.55,4.6c1.9,1.66,0.34,3.86,0.69,5.88c0.35,2.02,1.38,2.94,1.55,5.33
				c0.17-0.55-0.17-1.47,0-2.02c0,0,0.69-2.39,0.69-2.21c0-0.92,0.17-1.65-1.03-2.94c1.55-2.02,0.69-7.54,2.07-8.09
				c-1.03-2.39-0.17-4.05,0-5.88C5.24,339.49,5.24,337.65,5.24,337.28z"/>
		</g>
		<g class="st27">
			<path class="st14" d="M3.86,365.99c0.37,2.61,4.66,13.4,8.27,12.66c-1.9-1.29-0.69-2.02-1.72-3.68c-0.86-1.47-4.48-3.49-3.79-5.7
				C4.27,368.74,5.66,366.3,3.86,365.99z"/>
		</g>
		<g class="st28">
			<path class="st29" d="M42.08,386.29c-0.02,0.02-0.04,0.04-0.05,0.05c-0.04,0.14-0.07,0.28-0.1,0.45L42.08,386.29z"/>
		</g>
		<g class="st28">
			<path class="st29" d="M51.13,385.63c1.41-0.5,0.78-0.33,1.72-1.17c0.94-0.67,3.12-1.83,2.34-2.83c-0.94,0.67-1.56,1.67-2.19,2.33
				c-0.16,0.17-0.47-0.67-0.47-0.67c0.31,2.17-1.09,0.17-2.03,0c-1.25-0.17-2.5,1-3.43,0c-0.31,0-1.09,0.33-1.41,0.5
				c0.15,3.18-2.83-0.31-3.65,2.55c0.02-0.02,0.04-0.04,0.05-0.05l-0.16,0.5c0.03-0.17,0.06-0.31,0.1-0.45
				c-0.62,0.64-1.53,1.13-2.29,1.78c0.78-0.67,1.72-0.67,2.34,0.16c1.09-1,2.5-0.83,3.75-0.83c0.16-1.17,0.78-1.66,1.56-0.67
				c0.62-0.33,0.94-0.33,1.72-0.5c0-0.33-0.15-0.67-0.15-1C49.73,385.13,50.66,385.8,51.13,385.63z"/>
		</g>
		<g class="st28">
			<path class="st29" d="M68.31,371.64c-0.03-0.15-0.05-0.29-0.06-0.44c-0.07,0.24-0.14,0.45-0.19,0.57L68.31,371.64z"/>
		</g>
		<g class="st28">
			<path class="st29" d="M68.06,371.77L68,371.8C68,371.9,68.02,371.87,68.06,371.77z"/>
		</g>
		<g class="st28">
			<path class="st29" d="M75.65,365.64c-0.01,0.02-0.02,0.04-0.03,0.06c0.07,0.04,0.14,0.08,0.18,0.11L75.65,365.64z"/>
		</g>
		<g class="st28">
			<path class="st29" d="M75.62,365.7c-0.4-0.25-1.09-0.75-1.22-0.89c0.31,1.17-1.41,3.17-2.34,3.17c-1.41-0.17-1.09-2.5-3.12-1.17
				c0.62,1.17,1.09,2.67-0.47,2.83c-0.12,0.52-0.24,1.04-0.21,1.56c0.08-0.26,0.16-0.54,0.21-0.72
				C70.63,372.45,74.64,367.73,75.62,365.7z"/>
		</g>
		<g class="st28">
			<path class="st29" d="M60.81,368.81c-0.02-0.01-0.04-0.03-0.06-0.04c-0.03,0.01-0.07,0.02-0.1,0.04
				C60.66,368.97,60.81,368.97,60.81,368.81z"/>
		</g>
		<g class="st28">
			<path class="st29" d="M67.69,360.64c-0.16,2.17-1.87,0.17-2.97,1.5c0.31,1.33-0.31,1.67-1.4,1.33c0,1.17-0.47,2-1.72,1.17
				c0.29,0.77,0.44,1.54,0.46,2.31c0.07-0.1,0.12-0.2,0.16-0.31l-0.16,0.5c0-0.06-0.01-0.13-0.01-0.19
				c-0.43,0.64-1.34,1.02-2.02,1.02c0.15,0.31,0.43,0.62,0.73,0.79c0.76-0.29,1.66-0.3,2.55-0.46c-0.16-0.17-0.16-0.67-0.31-0.83
				c0.78-0.33,1.56-0.67,2.19-1.17c-0.16-1.17,0.47-1.66,1.56-1.66c-0.31-1.17,1.72-3,2.34-4.17
				C68.62,360.31,68.15,360.47,67.69,360.64z"/>
		</g>
		<g class="st28">
			<path class="st29" d="M62.22,366.64c-0.04,0.11-0.1,0.21-0.16,0.31c0,0.06,0.01,0.13,0.01,0.19L62.22,366.64z"/>
		</g>
		<g class="st28">
			<path class="st29" d="M31.3,382.3v-0.5v0C31.29,381.94,31.29,382.1,31.3,382.3z"/>
		</g>
		<g class="st28">
			<path class="st29" d="M39.27,379.97c-1.4-0.67-2.5,1.33-3.59,0.16c0,0.5-0.63,1.17-0.78,1.67c-0.16-0.17-0.31-0.5-0.47-0.83
				c-1.3,1.08-3.01-0.99-3.12,0.83l0,0v0.5c-0.01-0.19-0.01-0.36,0-0.5c-0.62,0.5-1.09,1.16-1.25,1.66c0.47,0,1.56-0.5,1.87-0.5
				c-0.16,0,1.87,0.5,1.72,0.5c1.56-0.17,2.65-0.67,4.22-1.17C37.39,381.13,38.33,380.13,39.27,379.97z"/>
		</g>
		<g class="st28">
			<path class="st29" d="M64.09,383.8c-0.05-0.15-0.09-0.29-0.12-0.41c-0.07,0.02-0.13,0.05-0.19,0.08L64.09,383.8z"/>
		</g>
		<g class="st28">
			<path class="st29" d="M70.65,378.3c-0.16-0.33-0.47-1-0.78-1.33c-0.31,0-0.94,0.33-1.09,0.5c0.16,1.33-0.94,2.5-1.87,2
				c-0.31,1.17-0.62,2-1.25,2.83c-0.44,0.47-2.1-0.66-1.68,1.09c0.62-0.21,1.45-0.02,2.15,0.58c0-0.17,0.47-0.33,0.47-0.33
				c0-1.17,2.65-3.33,4.06-3.83C69.25,379.13,69.4,377.47,70.65,378.3z"/>
		</g>
	</g>
</g>
</svg>
