<?xml version="1.0" encoding="iso-8859-1"?>
<!-- Generator: Adobe Illustrator 23.0.2, SVG Export Plug-In . SVG Version: 6.00 Build 0)  -->
<svg version="1.1" id="Layer_1" xmlns="http://www.w3.org/2000/svg" xmlns:xlink="http://www.w3.org/1999/xlink" x="0px" y="0px"
	 viewBox="0 0 595.276 841.89" style="enable-background:new 0 0 595.276 841.89;" xml:space="preserve">
<g>
	<path style="fill:#1E9C48;" d="M195.026,331.516c0,15.199,0.69,27.315,2.089,36.372c-2.128,0.947-4.375,1.408-6.74,1.408
		c-2.384,0-4.454-0.898-6.207-2.719c-1.754-1.821-2.641-4.298-2.641-7.503c0-3.181,0.335-9.226,0.985-18.137
		c0.67-8.887,0.985-15.782,0.985-20.662c0-12.043-0.69-23.649-2.089-34.842c4.887,0.486,11.469,0.704,19.746,0.704
		c8.257,0,16.179-0.704,23.707-2.112c0.788,1.724,1.182,3.788,1.182,6.191c0,2.404-0.788,4.516-2.325,6.386
		c-1.557,1.845-3.468,2.768-5.754,2.768c-2.286,0-5.932-0.388-10.917-1.19c-5.005-0.777-8.69-1.19-11.055-1.19
		c-0.532,8.571-0.867,16.462-0.985,23.625c3.843,0.461,8.08,0.704,12.75,0.704c4.67,0,8.71-0.826,12.159-2.477
		c0.788,1.724,1.182,3.788,1.182,6.191s-0.788,4.565-2.325,6.507c-1.557,1.918-3.389,2.889-5.498,2.889s-5.163-0.486-9.124-1.481
		C200.189,332.002,197.135,331.516,195.026,331.516z"/>
	<path style="fill:#1E9C48;" d="M249.198,367.888c-2.128,0.947-4.375,1.408-6.74,1.408c-2.384,0-4.454-0.898-6.207-2.719
		c-1.754-1.821-2.621-4.298-2.621-7.454c0-3.156,0.335-9.178,0.985-18.137c0.65-8.935,0.985-16.073,0.985-21.439
		c0-13.767-0.69-24.693-2.089-32.705c2.109-0.947,4.355-1.433,6.74-1.433c2.384,0,4.454,0.898,6.207,2.719
		c1.754,1.821,2.641,4.298,2.641,7.454c0,3.156-0.335,9.202-0.985,18.137c-0.67,8.935-0.985,16.073-0.985,21.439
		C247.11,348.949,247.799,359.851,249.198,367.888z"/>
	<path style="fill:#1E9C48;" d="M294.424,368.349c-2.779,1.093-5.301,1.651-7.547,1.651c-3.37,0-5.991-1.481-7.882-4.419
		c-1.892-2.962-3.429-7.138-4.611-12.577c-0.276-1.19-1.182-5.512-2.779-12.99c-3.114-14.641-5.616-25.251-7.547-31.831
		c-1.912-6.58-4.729-11.557-8.434-14.932c0.788-2.355,2.109-4.249,3.922-5.682c1.813-1.408,3.941-2.137,6.405-2.137
		c2.444,0,4.454,1.117,6.05,3.375c1.596,2.258,2.857,4.977,3.823,8.207c0.946,3.229,1.793,6.337,2.522,9.324
		c0.729,2.986,1.498,6.701,2.325,11.096c0.828,4.419,1.498,7.988,1.99,10.708s1.281,7.357,2.384,13.937
		c1.084,6.58,1.892,11.363,2.424,14.35c11.114-34.478,16.671-57.52,16.671-69.077c0-1.02-0.039-1.772-0.099-2.258
		c1.005-0.243,2.01-0.364,3.074-0.364c2.641,0,4.808,0.777,6.503,2.307c1.695,1.53,2.522,3.715,2.522,6.556
		c0,3.933-3.252,15.564-9.774,34.891C299.863,347.832,295.882,361.113,294.424,368.349z"/>
	<path style="fill:#1E9C48;" d="M367.357,353.004c0.788,2.137,1.182,4.516,1.182,7.211c0,2.671-0.769,4.977-2.325,6.896
		c-1.557,1.942-3.468,2.889-5.715,2.889c-7.015,0-17.992-0.461-32.929-1.408c-1.182-0.073-2.247-0.534-3.173-1.36
		c-0.926-0.826-1.399-1.87-1.399-3.132c0-4.176,0.276-11.217,0.847-21.148c0.552-9.931,0.847-19.206,0.847-27.825
		c0-8.619-0.69-18.526-2.089-29.719c4.887,0.486,11.489,0.704,19.746,0.704c8.277,0,16.179-0.704,23.707-2.112
		c0.788,1.724,1.182,3.788,1.182,6.191s-0.769,4.516-2.325,6.386c-1.557,1.845-3.468,2.768-5.754,2.768
		c-2.286,0-5.932-0.388-10.917-1.19c-5.005-0.777-8.69-1.19-11.075-1.19c-0.532,7.94-0.828,15.442-0.887,22.435
		c4.178,0.461,8.651,0.704,13.44,0.704c4.789,0,8.907-0.826,12.356-2.477c0.788,1.724,1.182,3.788,1.182,6.216
		c0,2.404-0.769,4.565-2.325,6.483c-1.557,1.942-3.409,2.889-5.557,2.889c-2.148,0-5.34-0.486-9.577-1.481
		c-4.237-0.971-7.429-1.481-9.617-1.481c0,12.431,0.217,21.585,0.69,27.388c3.173,0.316,5.656,0.486,7.449,0.486
		C353.07,358.2,360.736,356.476,367.357,353.004z"/>
</g>
</svg>
