<?xml version="1.0" encoding="iso-8859-1"?>
<!-- Generator: Adobe Illustrator 23.0.2, SVG Export Plug-In . SVG Version: 6.00 Build 0)  -->
<svg version="1.1" id="Layer_1" xmlns="http://www.w3.org/2000/svg" xmlns:xlink="http://www.w3.org/1999/xlink" x="0px" y="0px"
	 viewBox="0 0 595.276 841.89" style="enable-background:new 0 0 595.276 841.89;" xml:space="preserve">
<g>
	<path style="fill:#1E9C48;" d="M162.688,410.258c6.704,3.417,15.877,5.105,27.638,5.105s21.404-2.869,28.99-8.648
		c7.586-5.78,11.349-13.373,11.349-22.823c0-19.954-12.995-29.911-38.987-29.911c-4.822,0-13.466,0.928-25.932,2.742
		c-12.525,1.856-22.875,2.742-31.048,2.742c-8.232,0-15.877-1.055-22.933-3.164c5.821-23.287,8.703-45.309,8.703-66.149
		c0-14.175,11.231-21.262,33.694-21.262c47.454,0,84.265-2.616,110.55-7.889c2.999,7.003,4.528,13.289,4.528,18.9
		s-2.999,9.914-8.879,12.994c-5.939,3.08-13.407,4.598-22.345,4.598c-8.997,0-22.287-0.675-39.928-1.983
		c-17.7-1.308-28.402-2.067-32.165-2.236c-2.999,9.619-4.528,23.456-4.528,41.47c18.17-2.616,32.048-3.923,41.633-3.923
		c23.227,0,42.044,3.839,56.392,11.559c14.407,7.678,21.581,18.9,21.581,33.581c0,19.069-10.291,34.509-30.872,46.321
		S204.732,440,175.742,440c-19.405,0-36.164-2.7-50.159-8.142c-13.995-5.4-20.993-13.542-20.993-24.426
		c0-7.003,3.411-12.614,10.232-16.79c6.821-4.219,15.406-6.286,25.756-6.286c5.528,0,10.467,0.422,14.76,1.308
		c-1.764,3.502-2.646,6.834-2.646,9.956C152.691,401.989,155.984,406.841,162.688,410.258z"/>
</g>
</svg>
