<?xml version="1.0" encoding="utf-8"?>
<!-- Generator: Adobe Illustrator 26.5.0, SVG Export Plug-In . SVG Version: 6.00 Build 0)  -->
<svg version="1.1" id="Layer_1" xmlns="http://www.w3.org/2000/svg" xmlns:xlink="http://www.w3.org/1999/xlink" x="0px" y="0px"
	 viewBox="0 0 612 792" style="enable-background:new 0 0 612 792;" xml:space="preserve">
<style type="text/css">
	.st0{fill:#47B649;}
	.st1{fill:#FFFFFF;}
	.st2{fill:#1C9C48;}
	.st3{fill:#FFCF2F;}
	.st4{fill:#FFC217;}
	.st5{fill:#FEEF5B;}
	.st6{fill:#F18E21;}
	.st7{opacity:0.6;fill:#E37B25;}
	.st8{fill:#D76F27;}
	.st9{fill:#5F2C0F;}
	.st10{fill:#773A19;}
	.st11{fill:#88481F;}
	.st12{opacity:0.57;fill:#907B2E;}
	.st13{opacity:0.36;fill:#705F27;}
	.st14{fill:#854B1F;}
	.st15{fill:#713B18;}
	.st16{fill:#5E1E12;}
</style>
<g>
	<path class="st0" d="M490,447.86c0,14.22-11.93,25.74-26.64,25.74H274.25c-14.71,0-26.64-11.52-26.64-25.74V192.74
		c0-14.22,11.93-25.74,26.64-25.74h189.11c14.71,0,26.64,11.52,26.64,25.74V447.86z"/>
	<path class="st1" d="M478.96,441.82c0,11.37-9.54,20.59-21.31,20.59H279.97c-11.77,0-21.31-9.22-21.31-20.59V198.78
		c0-11.37,9.54-20.59,21.31-20.59h177.68c11.77,0,21.31,9.22,21.31,20.59V441.82z"/>
</g>
<g>
	<path class="st2" d="M276.78,436.15c0,6.26,0.35,11.25,1.06,14.98c-1.08,0.39-2.22,0.58-3.42,0.58c-1.21,0-2.26-0.37-3.15-1.12
		c-0.89-0.75-1.34-1.77-1.34-3.09c0-1.31,0.17-3.8,0.5-7.47c0.34-3.66,0.5-6.5,0.5-8.51c0-4.96-0.35-9.74-1.06-14.35
		c2.48,0.2,5.82,0.29,10.02,0.29c4.19,0,8.21-0.29,12.03-0.87c0.4,0.71,0.6,1.56,0.6,2.55c0,0.99-0.4,1.86-1.18,2.63
		c-0.79,0.76-1.76,1.14-2.92,1.14c-1.16,0-3.01-0.16-5.54-0.49c-2.54-0.32-4.41-0.49-5.61-0.49c-0.27,3.53-0.44,6.78-0.5,9.73
		c1.95,0.19,4.1,0.29,6.47,0.29c2.37,0,4.42-0.34,6.17-1.02c0.4,0.71,0.6,1.56,0.6,2.55c0,0.99-0.4,1.88-1.18,2.68
		c-0.79,0.79-1.72,1.19-2.79,1.19c-1.07,0-2.62-0.2-4.63-0.61C279.4,436.35,277.85,436.15,276.78,436.15z"/>
	<path class="st2" d="M304.27,451.13c-1.08,0.39-2.22,0.58-3.42,0.58c-1.21,0-2.26-0.37-3.15-1.12c-0.89-0.75-1.33-1.77-1.33-3.07
		c0-1.3,0.17-3.78,0.5-7.47c0.33-3.68,0.5-6.62,0.5-8.83c0-5.67-0.35-10.17-1.06-13.47c1.07-0.39,2.21-0.59,3.42-0.59
		c1.21,0,2.26,0.37,3.15,1.12c0.89,0.75,1.34,1.77,1.34,3.07c0,1.3-0.17,3.79-0.5,7.47c-0.34,3.68-0.5,6.62-0.5,8.83
		C303.21,443.33,303.56,447.82,304.27,451.13z"/>
	<path class="st2" d="M327.22,451.32c-1.41,0.45-2.69,0.68-3.83,0.68c-1.71,0-3.04-0.61-4-1.82c-0.96-1.22-1.74-2.94-2.34-5.18
		c-0.14-0.49-0.6-2.27-1.41-5.35c-1.58-6.03-2.85-10.4-3.83-13.11c-0.97-2.71-2.4-4.76-4.28-6.15c0.4-0.97,1.07-1.75,1.99-2.34
		c0.92-0.58,2-0.88,3.25-0.88c1.24,0,2.26,0.46,3.07,1.39c0.81,0.93,1.45,2.05,1.94,3.38c0.48,1.33,0.91,2.61,1.28,3.84
		c0.37,1.23,0.76,2.76,1.18,4.57c0.42,1.82,0.76,3.29,1.01,4.41c0.25,1.12,0.65,3.03,1.21,5.74c0.55,2.71,0.96,4.68,1.23,5.91
		c5.64-14.2,8.46-23.69,8.46-28.45c0-0.42-0.02-0.73-0.05-0.93c0.51-0.1,1.02-0.15,1.56-0.15c1.34,0,2.44,0.32,3.3,0.95
		c0.86,0.63,1.28,1.53,1.28,2.7c0,1.62-1.65,6.41-4.96,14.37C329.98,442.87,327.96,448.34,327.22,451.32z"/>
	<path class="st2" d="M364.23,445c0.4,0.88,0.6,1.86,0.6,2.97c0,1.1-0.39,2.05-1.18,2.84c-0.79,0.8-1.76,1.19-2.9,1.19
		c-3.56,0-9.13-0.19-16.71-0.58c-0.6-0.03-1.14-0.22-1.61-0.56c-0.47-0.34-0.71-0.77-0.71-1.29c0-1.72,0.14-4.62,0.43-8.71
		c0.28-4.09,0.43-7.91,0.43-11.46c0-3.55-0.35-7.63-1.06-12.24c2.48,0.2,5.83,0.29,10.02,0.29c4.2,0,8.21-0.29,12.03-0.87
		c0.4,0.71,0.6,1.56,0.6,2.55c0,0.99-0.39,1.86-1.18,2.63c-0.79,0.76-1.76,1.14-2.92,1.14c-1.16,0-3.01-0.16-5.54-0.49
		c-2.54-0.32-4.41-0.49-5.62-0.49c-0.27,3.27-0.42,6.36-0.45,9.24c2.12,0.19,4.39,0.29,6.82,0.29c2.43,0,4.52-0.34,6.27-1.02
		c0.4,0.71,0.6,1.56,0.6,2.56c0,0.99-0.39,1.88-1.18,2.67c-0.79,0.8-1.73,1.19-2.82,1.19c-1.09,0-2.71-0.2-4.86-0.61
		c-2.15-0.4-3.77-0.61-4.88-0.61c0,5.12,0.11,8.89,0.35,11.28c1.61,0.13,2.87,0.2,3.78,0.2C356.98,447.14,360.87,446.43,364.23,445z
		"/>
</g>
<g>
	<path class="st2" d="M279.47,226.09c1.14,0.81,2.7,1.21,4.7,1.21s3.64-0.68,4.93-2.05c1.29-1.37,1.93-3.17,1.93-5.41
		c0-4.73-2.21-7.09-6.63-7.09c-0.82,0-2.29,0.22-4.41,0.65c-2.13,0.44-3.89,0.65-5.28,0.65c-1.4,0-2.7-0.25-3.9-0.75
		c0.99-5.52,1.48-10.74,1.48-15.68c0-3.36,1.91-5.04,5.73-5.04c8.07,0,14.33-0.62,18.8-1.87c0.51,1.66,0.77,3.15,0.77,4.48
		c0,1.33-0.51,2.35-1.51,3.08c-1.01,0.73-2.28,1.09-3.8,1.09c-1.53,0-3.79-0.16-6.79-0.47c-3.01-0.31-4.83-0.49-5.47-0.53
		c-0.51,2.28-0.77,5.56-0.77,9.83c3.09-0.62,5.45-0.93,7.08-0.93c3.95,0,7.15,0.91,9.59,2.74c2.45,1.82,3.67,4.48,3.67,7.96
		c0,4.52-1.75,8.18-5.25,10.98c-3.5,2.8-7.72,4.2-12.65,4.2c-3.3,0-6.15-0.64-8.53-1.93c-2.38-1.28-3.57-3.21-3.57-5.79
		c0-1.66,0.58-2.99,1.74-3.98c1.16-1,2.62-1.49,4.38-1.49c0.94,0,1.78,0.1,2.51,0.31c-0.3,0.83-0.45,1.62-0.45,2.36
		C277.77,224.13,278.33,225.28,279.47,226.09z"/>
</g>
<g>
	<g>
		<path class="st3" d="M350.75,217.46c1.54-3.17,2.79-6.43,3.55-10.19c0.21-1.05,1.24-12.45,1.52-12.45
			c2.24-0.07,8.15,2.98,9.3,4.96c1.65,2.83-0.57,7.34-0.73,10.48c-0.22,4.29,0.9,7.25,2.47,11.3c5.27,13.63,1.1,28.76-9.41,39.5
			c-7.62,7.79-31.94,24.64-60.04,23.76c-17.09-0.54-22.28-3.94-26.26-8.62c-2.54-2.99-4.34-7.93-2.39-11.62
			c2.3-4.34,9.11-5.43,13.57-6.45c8.74-2.01,20.73-2.17,31.37-5.96c15.05-5.35,25.34-13.72,32.4-26.18
			C347.77,223.05,349.37,220.29,350.75,217.46z"/>
		<path class="st4" d="M355.28,198.38c3.06,9.89-2.48,22.78-6.81,31.25c-6.63,12.94-17.16,21.1-31.35,25.37
			c-6.75,2.03-13.9,3.89-20.9,4.91c-3.49,0.5-7.09,0.4-10.61,0.59c-4.54,0.25-12.31,0.32-16.5,3.55c2.57-3.88,8.96-4.92,13.22-5.9
			c8.74-2.01,20.73-2.17,31.37-5.96c15.05-5.35,25.34-13.72,32.4-26.18c1.68-2.96,3.28-5.72,4.66-8.55
			c1.54-3.17,2.79-6.43,3.55-10.19C354.43,206.62,354.89,201.82,355.28,198.38z"/>
		<path class="st5" d="M268.75,264.59c0.1-0.18,0.2-0.35,0.31-0.52c7.73,4.72,50.8-4.11,59.7-8.29c4.7-2.2,21.84-9.68,30.1-26.97
			c4.46-9.33,5.24-19.69,5.55-29.87c0.3,0.29,0.55,0.58,0.71,0.84c1.65,2.83-0.57,7.34-0.73,10.48c-0.22,4.29,0.9,7.25,2.47,11.3
			c5.27,13.63,1.1,28.76-9.41,39.5c-7.62,7.79-31.94,24.64-60.04,23.76c-17.09-0.54-22.28-3.94-26.26-8.62
			C268.6,273.23,266.8,268.29,268.75,264.59z"/>
		<path class="st6" d="M268.05,269.59c2.76-1.04,5.74-1.6,8.18-1.86c6.02-0.65,44.05-6.28,55.61-11.53
			c9.9-4.5,21.16-13.53,25.7-23.36c4.35-9.42,3.98-20.1,4.19-30.19c0.04-1.77-0.06-3.7,0.05-5.6c1.53,0.9,2.85,1.91,3.34,2.74
			c1.65,2.83-0.57,7.34-0.73,10.48c-0.22,4.29,0.9,7.25,2.47,11.3c5.27,13.63,1.1,28.76-9.41,39.5
			c-7.62,7.79-31.94,24.64-60.04,23.76c-17.09-0.54-22.28-3.94-26.26-8.62C269.65,274.46,268.42,272.04,268.05,269.59z"/>
		<path class="st7" d="M284.61,279.5c23.47,4.84,72.84-7.73,79.69-43.06c0.71-3.65,0.8-17.28-2.86-21.97
			c0.21-3.96,0.21-7.94,0.29-11.83c0.04-1.77-0.06-3.7,0.05-5.6c1.53,0.9,2.85,1.91,3.34,2.74c1.65,2.83-0.57,7.34-0.73,10.48
			c-0.22,4.29,0.9,7.25,2.47,11.3c5.27,13.63,1.1,28.76-9.41,39.5c-7.62,7.79-31.94,24.64-60.04,23.76
			c-17.09-0.54-22.28-3.94-26.26-8.62c-1.17-1.38-2.18-3.18-2.74-5.08C272.19,275.47,278.66,278.27,284.61,279.5z"/>
		<path class="st7" d="M276.24,267.73c6.02-0.65,44.05-6.28,55.61-11.53c9.9-4.5,21.16-13.53,25.7-23.36
			c4.35-9.42,3.98-20.1,4.19-30.19c0.04-1.77-0.06-3.7,0.05-5.6c1.53,0.9,2.85,1.91,3.34,2.74c1.65,2.83-0.57,7.34-0.73,10.48
			c-0.22,4.29,0.9,7.25,2.47,11.3c1.88,4.87,2.55,9.93,2.17,14.92c-0.43-2.16-1.47-3.94-3.71-4.14c-2.66-0.24-4.74,2.88-5.91,4.67
			c-2.52,3.86-5.22,7.25-8.72,10.37c-8.05,7.16-18.74,13.67-29.18,16.95c-0.22,0.07-0.45,0.13-0.68,0.19
			c-3.28,0.62-6.57,1.21-9.86,1.77c-2.67,0.34-5.33,0.69-7.9,1.27c-3.23,0.5-6.47,0.96-9.69,1.4c-1.25,0.17-2.67,0.34-3.98,0.71
			c-3.35,0.45-8.04,2.6-7,6.32c1.16,4.14,5.54,5.63,9.45,6.73c3.37,0.95,6.93,1.61,10.51,2.06c-1.64,0.07-3.29,0.1-4.96,0.05
			c-17.09-0.54-22.28-3.94-26.26-8.62c-1.49-1.75-2.72-4.18-3.09-6.63C270.81,268.55,273.79,267.99,276.24,267.73z"/>
		<path class="st8" d="M276.24,267.73c6.02-0.65,44.05-6.28,55.61-11.53c9.9-4.5,21.16-13.53,25.7-23.36
			c4.35-9.42,3.98-20.1,4.19-30.19c0.04-1.77-0.06-3.7,0.05-5.6c1.53,0.9,2.85,1.91,3.34,2.74c1.65,2.83-0.57,7.34-0.73,10.48
			c-0.22,4.29,0.9,7.25,2.47,11.3c0,0.01,0.01,0.02,0.01,0.03c-0.22-0.56-2.17-2.4-3.29-1.71c-1.69,1.03-3.05,9.8-6.36,15.37
			c-4.98,8.38-12.01,16.96-21.01,20.81c-26.27,11.27-51.76,11.28-54.79,13.01c-4.63,1.48-4.47,6.75-2.09,10.55
			c0.93,1.48,2.23,2.64,3.74,3.57c-6.33-1.53-9.38-4-11.93-6.99c-1.49-1.75-2.72-4.18-3.09-6.63
			C270.81,268.55,273.79,267.99,276.24,267.73z"/>
		<path class="st9" d="M268.59,264.96c0.34,0.03,0.76,0.24,1.32,0.54c1.03,0.55,2.48,0.56,3.62,0.83c0.75,0.18,1.6,0.48,2.19,0.98
			c0.96,0.81,0.12,1.68-0.21,2.57c-0.41,1.06,0,2.83-0.34,4.02c-0.11,0.37-0.29,0.69-0.59,0.91c-0.57,0.43-1.61,0.88-2.27,1.22
			c-0.32,0.17-0.67,0.28-1.02,0.34c-0.05-0.05-0.09-0.11-0.14-0.16C268.68,273.32,266.93,268.61,268.59,264.96z"/>
		<path class="st10" d="M275.22,269.3c-0.76,0.69-0.61,0.87-0.52,1.82c0.06,0.67-0.05,1.41-0.15,2.09
			c-0.14,0.95-0.29,0.87-1.16,1.05c-0.61,0.13-1.21,0.7-1.5-0.15c-0.27-0.81,0.72-1.26,0.77-1.95c0.05-0.74-0.92-1.02-1.58-1.1
			c-0.39-0.05-0.47,0.18-0.88-0.07c-0.47-0.29-0.55-1.11-0.55-1.57c0-0.95,0.8-1.34,0.88-2.15c0.09-0.88-1.07-0.76-1.05-1.35
			c0.98-0.04,1.83,0.59,2.71,0.87C273.42,267.18,277.35,267.37,275.22,269.3z"/>
		<path class="st11" d="M273.61,272.65c0.23-0.38,0.45-0.59,0.14-1.16c-0.32-0.58-1.04-0.93-1.41-1.48
			c-0.59-0.88,0.48-1.13,0.25-1.81c-0.14-0.4-0.86-0.63-1.23-0.37c-0.52,0.37-0.18,1.68-0.26,2.21c-1.27,0.02-0.89-2.49-0.05-2.85
			c0.3-0.13,1.07-0.11,1.4-0.07c0.81,0.1,2.47,0.95,1.66,1.92c-0.34,0.42-0.78,0.36-0.68,1.02c0.1,0.64,0.87,0.85,1.06,1.44
			c0.16,0.52-0.04,1.38-0.4,1.79c-0.58,0.67-0.93,0.48-0.66-0.26C273.48,272.88,273.55,272.76,273.61,272.65z"/>
		<path class="st12" d="M364.39,210.27c-0.21,4.08,0.8,6.96,2.24,10.71c-0.49-0.97-1.06-1.9-1.72-2.79
			c-2.21-2.96-5.54-5.31-9.51-4.68c-1.07,0.17-2.18,0.44-3.26,0.81c0.9-2.21,1.64-4.51,2.15-7.05c0.21-1.05,1.24-12.45,1.52-12.45
			c2.24-0.07,8.15,2.98,9.3,4.96C366.77,202.62,364.55,207.13,364.39,210.27z"/>
		<path class="st13" d="M359.75,207.39c0.16-1.4-0.22-2.69-0.97-3.91c-0.51-0.82-1.74-3.04-2.7-1.32c-0.43,0.78-0.71,1.75-0.98,2.59
			c-0.29,0.91-0.55,1.9-0.88,2.86c0.02-0.11,0.05-0.22,0.08-0.33c0.15-0.74,0.71-6.67,1.12-10.07c2.17-0.78,4.89-0.37,6.97,0.61
			c3.86,1.8,1.08,7.06,0.75,10.09c-0.26,2.42-0.35,5.25,0.05,7.65c0.04,0.27,0.09,0.55,0.14,0.83c-1.46-1.41-3.22-2.49-5.21-2.84
			c-0.04-0.01-0.07-0.01-0.11-0.02c-0.24-0.04-0.48-0.07-0.73-0.09c-0.05,0-0.11-0.01-0.16-0.01c-0.23-0.01-0.46-0.01-0.7-0.01
			c-0.05,0-0.11,0-0.16,0c-0.28,0.01-0.56,0.04-0.84,0.08c-1.07,0.17-2.18,0.44-3.26,0.81c0.11-0.28,0.22-0.56,0.32-0.85
			C355.8,212.8,359.34,211.02,359.75,207.39z"/>
		<path class="st14" d="M356.06,191.22c0.95,0.54,1.25,1.83,2.15,2.43c0.46,0.31,0.88,0.18,1.42,0.21c0.89,0.05,1.54,0.29,2.32,0.68
			c1.87,0.94,3.51,2.75,4.57,4.5c0.8,1.32,0.69,4.53-1.19,5.02c-1.17,0.31-2.39-0.09-3.03,1.11c-0.05,0.1-0.09,0.2-0.13,0.3
			c-0.05,0.06-0.1,0.12-0.14,0.2c-0.25,0.57-0.42,1.17-0.52,1.77c-0.66-2.28-2.03-4.47-3.83-5.98c-0.41-0.34-0.95-0.82-1.48-1.02
			c-0.06-0.02-0.12-0.04-0.19-0.06c-0.96-0.22-0.87,0.38-1.13-0.6c-0.32-1.22-0.41-2.48-0.55-3.73c-0.11-1.03-0.48-1.9-0.36-2.94
			C354.09,192.02,354.78,190.49,356.06,191.22z"/>
		<path class="st15" d="M353.97,193.11c-0.12,1.04,0.24,1.92,0.36,2.94c0.14,1.25,0.23,2.51,0.55,3.73c0.26,0.97,0.17,0.38,1.13,0.6
			c0.06,0.02,0.12,0.03,0.19,0.06c0.54,0.2,1.08,0.68,1.48,1.02c1.9,1.6,3.33,3.96,3.94,6.38c0.03-0.18,0.05-0.35,0.08-0.53
			c0.08-0.48,0.1-1.14,0.39-1.57c0.05-0.2,0.12-0.39,0.22-0.57c0.64-1.2,1.86-0.8,3.03-1.11c1.88-0.49,1.99-3.7,1.19-5.02
			c-1.06-1.76-2.7-3.56-4.57-4.5c-0.78-0.39-1.43-0.64-2.32-0.68c-0.53-0.03-0.95,0.1-1.42-0.21c-0.9-0.6-1.2-1.88-2.15-2.43
			C354.78,190.49,354.09,192.02,353.97,193.11z M358.37,194.95c1.03,0.49,1.87,0.56,2.99,0.73c1.47,0.22,1.82,1.25,2.18,2.55
			c0.13,0.49,0.48,1.03,0.52,1.53c0.05,0.53-0.18,1.5-0.92,1.39c-0.49-0.07-0.23-0.7-0.69-0.76c-0.34-0.05-0.58,0.5-0.93,0.48
			c-0.75-0.04-0.82-0.87-1.07-1.39c-0.32-0.66-0.66-0.94-1.06-1.1c-0.52-0.2-1.14-0.17-1.93-0.5c-0.8-0.33-1.19-1.76-1.21-2.51
			C356.22,193.7,357.33,194.46,358.37,194.95z"/>
		<path class="st16" d="M353.97,193.11c-0.12,1.04,0.24,1.92,0.36,2.94c0.14,1.25,0.23,2.51,0.55,3.73c0.26,0.97,0.17,0.38,1.13,0.6
			c0.06,0.02,0.12,0.03,0.19,0.06c0.54,0.2,1.08,0.68,1.48,1.02c2.25,1.89,3.6,5.1,3.95,7.96c0.25-1.28,0.03-3.05,0.67-4.25
			c0.64-1.2,1.86-0.8,3.03-1.11c1.88-0.49,1.99-3.7,1.19-5.02c-1.06-1.76-2.7-3.56-4.57-4.5c-0.78-0.39-1.43-0.64-2.32-0.68
			c-0.53-0.03-0.95,0.1-1.42-0.21c-0.9-0.6-1.2-1.88-2.15-2.43C354.78,190.49,354.09,192.02,353.97,193.11z M355.92,195.98
			c-0.37-1.18-1.16-1.88-0.9-3.24c0.08-0.43,0.53-0.78,0.99-0.58c0.84,0.36,1.2,0.94,1.33,1.61c0.35,0.32,0.75,0.55,1.18,0.74
			c1.02,0.01,2-0.09,3.04,0.38c0.64,0.29,1.16,0.76,1.57,1.31c1.3,0.75,2.48,3.29,2.32,4.74c-0.16,1.45-1.51,1.69-2.5,1.08
			c-0.32,0.24-0.64,0.47-0.97,0.71c-1.65,1.15-1.43-4.08-3.55-3.73c-0.71,0.12-1.32,0.69-1.94,0.01c-0.62-0.68-0.32-2.02-0.51-2.89
			C355.95,196.08,355.93,196.03,355.92,195.98z"/>
	</g>
	<g>
		<path class="st3" d="M398.88,210.16c-0.05-3.5-0.4-6.96-1.42-10.66c-0.28-1.03-4.52-11.71-4.27-11.84
			c1.99-1.01,8.68-0.76,10.61,0.53c2.77,1.85,2.81,6.84,4.09,9.74c1.75,3.96,4.09,6.14,7.33,9.12c10.91,10.03,14,25.4,9.41,39.5
			c-3.33,10.22-17.57,35.66-43.24,46.74c-15.61,6.74-21.82,5.87-27.52,3.35c-3.64-1.61-7.49-5.3-7.41-9.44
			c0.1-4.88,5.74-8.73,9.28-11.54c6.95-5.5,17.66-10.71,25.51-18.61c11.11-11.17,16.58-23.05,17.29-37.23
			C398.73,216.44,398.93,213.29,398.88,210.16z"/>
		<path class="st4" d="M394.32,191.08c7.22,7.6,8.08,21.54,8.02,30.98c-0.1,14.44-5.88,26.22-16.71,36.06
			c-5.15,4.68-10.74,9.37-16.58,13.24c-2.91,1.93-6.19,3.35-9.27,5.01c-3.97,2.15-10.93,5.49-13.23,10.16
			c0.55-4.57,5.83-8.21,9.21-10.89c6.95-5.5,17.66-10.71,25.51-18.61c11.11-11.17,16.58-23.05,17.29-37.23
			c0.17-3.38,0.36-6.53,0.32-9.65c-0.05-3.5-0.4-6.96-1.42-10.66C397.28,198.85,395.53,194.34,394.32,191.08z"/>
		<path class="st5" d="M346.48,287.19c0.01-0.2,0.02-0.4,0.04-0.6c9.09,0.98,43.82-25.16,49.94-32.68
			c3.23-3.96,15.26-17.94,14.86-36.97c-0.22-10.28-4.2-19.92-8.53-29.21c0.41,0.13,0.76,0.29,1.02,0.46
			c2.77,1.85,2.81,6.84,4.09,9.74c1.75,3.96,4.09,6.14,7.33,9.12c10.91,10.03,14,25.4,9.41,39.5
			c-3.33,10.22-17.57,35.66-43.24,46.74c-15.61,6.74-21.82,5.87-27.52,3.35C350.24,295.02,346.39,291.33,346.48,287.19z"/>
		<path class="st6" d="M348.1,291.98c2.01-2.1,4.44-3.86,6.52-5.13c5.12-3.13,36.78-24.26,44.79-33.86
			c6.86-8.23,12.91-21.11,12.54-31.87c-0.35-10.3-5.52-19.76-9.9-28.92c-0.77-1.61-1.73-3.3-2.48-5.06
			c1.79,0.16,3.43,0.51,4.24,1.06c2.77,1.85,2.81,6.84,4.09,9.74c1.75,3.96,4.09,6.14,7.33,9.12c10.91,10.03,14,25.4,9.41,39.5
			c-3.33,10.22-17.57,35.66-43.24,46.74c-15.61,6.74-21.82,5.87-27.52,3.35C351.75,295.68,349.55,294.02,348.1,291.98z"/>
		<path class="st7" d="M367.48,293.89c23.3-5.57,62-37.72,52.18-72.39c-1.02-3.59-7.1-15.88-12.52-18.55
			c-1.6-3.65-3.41-7.23-5.1-10.76c-0.77-1.61-1.73-3.3-2.48-5.06c1.79,0.16,3.43,0.51,4.24,1.06c2.77,1.85,2.81,6.84,4.09,9.74
			c1.75,3.96,4.09,6.14,7.33,9.12c10.91,10.03,14,25.4,9.41,39.5c-3.33,10.22-17.57,35.66-43.24,46.74
			c-15.61,6.74-21.82,5.87-27.52,3.35c-1.68-0.75-3.4-1.94-4.76-3.41C354.49,295.52,361.57,295.3,367.48,293.89z"/>
		<path class="st7" d="M354.62,286.84c5.12-3.13,36.78-24.26,44.79-33.86c6.86-8.23,12.91-21.11,12.54-31.87
			c-0.35-10.3-5.52-19.76-9.9-28.92c-0.77-1.61-1.73-3.3-2.48-5.06c1.79,0.16,3.43,0.51,4.24,1.06c2.77,1.85,2.81,6.84,4.09,9.74
			c1.75,3.96,4.09,6.14,7.33,9.12c3.9,3.59,6.79,7.85,8.7,12.5c-1.36-1.76-3.11-2.92-5.21-2.16c-2.5,0.91-2.95,4.59-3.2,6.7
			c-0.52,4.53-1.41,8.73-3.15,13.01c-4,9.84-10.66,20.21-18.57,27.57c-0.17,0.16-0.35,0.3-0.52,0.46c-2.67,1.95-5.36,3.87-8.07,5.76
			c-2.25,1.43-4.49,2.87-6.53,4.48c-2.68,1.81-5.38,3.6-8.08,5.35c-1.05,0.68-2.25,1.43-3.26,2.31c-2.81,1.82-6.06,5.74-3.43,8.64
			c2.92,3.23,7.53,2.72,11.55,2.06c3.46-0.57,6.96-1.47,10.38-2.59c-1.45,0.75-2.92,1.48-4.44,2.14
			c-15.61,6.74-21.82,5.87-27.52,3.35c-2.13-0.95-4.34-2.61-5.78-4.65C350.11,289.88,352.54,288.11,354.62,286.84z"/>
		<path class="st8" d="M354.62,286.84c5.12-3.13,36.78-24.26,44.79-33.86c6.86-8.23,12.91-21.11,12.54-31.87
			c-0.35-10.3-5.52-19.76-9.9-28.92c-0.77-1.61-1.73-3.3-2.48-5.06c1.79,0.16,3.43,0.51,4.24,1.06c2.77,1.85,2.81,6.84,4.09,9.74
			c1.75,3.96,4.09,6.14,7.33,9.12c0.01,0.01,0.01,0.01,0.02,0.02c-0.45-0.41-3.04-1.24-3.73-0.15c-1.06,1.65,1.69,10.11,1.24,16.51
			c-0.68,9.64-3.13,20.32-9.47,27.59c-18.52,21.23-41.44,32.02-43.39,34.85c-3.5,3.29-0.97,7.96,2.89,10.37
			c1.5,0.94,3.2,1.43,4.98,1.63c-6.39,1.3-10.25,0.37-13.89-1.24c-2.13-0.95-4.34-2.61-5.78-4.65
			C350.11,289.88,352.54,288.11,354.62,286.84z"/>
		<path class="st9" d="M346.49,287.59c0.32-0.12,0.79-0.11,1.43-0.08c1.18,0.06,2.48-0.54,3.63-0.78c0.76-0.15,1.65-0.24,2.41-0.04
			c1.23,0.33,0.87,1.46,0.97,2.4c0.11,1.13,1.28,2.54,1.52,3.76c0.07,0.38,0.05,0.74-0.11,1.07c-0.32,0.63-1.05,1.47-1.49,2.06
			c-0.22,0.29-0.47,0.54-0.76,0.73c-0.07-0.03-0.13-0.06-0.2-0.09C350.36,295.07,346.65,291.57,346.49,287.59z"/>
		<path class="st10" d="M354.42,288.69c-0.37,0.94-0.15,1.04,0.35,1.85c0.36,0.57,0.59,1.29,0.81,1.94c0.3,0.91,0.13,0.9-0.57,1.44
			c-0.49,0.37-0.77,1.14-1.42,0.49c-0.61-0.61,0.08-1.44-0.19-2.07c-0.29-0.68-1.29-0.53-1.92-0.32c-0.37,0.12-0.34,0.36-0.82,0.31
			c-0.55-0.06-1-0.76-1.21-1.18c-0.43-0.85,0.11-1.54-0.18-2.3c-0.32-0.83-1.31-0.23-1.55-0.77c0.87-0.45,1.91-0.24,2.83-0.36
			C351.84,287.55,355.46,286.06,354.42,288.69z"/>
		<path class="st11" d="M354.49,292.38c0.04-0.44,0.14-0.72-0.4-1.1c-0.55-0.39-1.36-0.39-1.94-0.74c-0.93-0.54-0.08-1.22-0.6-1.73
			c-0.3-0.3-1.06-0.21-1.28,0.19c-0.3,0.56,0.59,1.59,0.77,2.1c-1.13,0.55-1.93-1.86-1.34-2.54c0.21-0.25,0.91-0.55,1.22-0.65
			c0.77-0.25,2.65-0.19,2.36,1.02c-0.12,0.52-0.54,0.65-0.15,1.2c0.38,0.53,1.17,0.4,1.6,0.84c0.38,0.4,0.59,1.25,0.45,1.78
			c-0.22,0.85-0.62,0.83-0.71,0.05C354.48,292.64,354.48,292.51,354.49,292.38z"/>
		<path class="st12" d="M407.89,197.93c1.66,3.76,3.87,5.92,6.86,8.68c-0.88-0.66-1.81-1.27-2.8-1.78
			c-3.32-1.73-7.39-2.43-10.67-0.19c-0.88,0.6-1.76,1.31-2.56,2.11c-0.19-2.36-0.57-4.75-1.26-7.25
			c-0.28-1.03-4.52-11.71-4.27-11.84c1.99-1.01,8.68-0.76,10.61,0.53C406.57,190.04,406.62,195.03,407.89,197.93z"/>
		<path class="st13" d="M402.41,197.3c-0.49-1.33-1.42-2.33-2.64-3.11c-0.83-0.52-2.94-2-3.02-0.05c-0.04,0.88,0.16,1.87,0.29,2.74
			c0.15,0.94,0.37,1.94,0.51,2.95c-0.03-0.11-0.05-0.22-0.08-0.33c-0.2-0.73-2.38-6.29-3.55-9.53c1.6-1.62,4.23-2.4,6.54-2.4
			c4.28-0.01,4.17,5.89,5.24,8.76c0.86,2.28,2.06,4.87,3.51,6.86c0.16,0.22,0.33,0.46,0.5,0.69c-1.95-0.65-4.02-0.88-5.98-0.35
			c-0.04,0.01-0.07,0.02-0.11,0.03c-0.23,0.07-0.46,0.14-0.69,0.23c-0.05,0.02-0.1,0.04-0.15,0.06c-0.21,0.09-0.42,0.18-0.63,0.29
			c-0.05,0.03-0.1,0.05-0.15,0.07c-0.24,0.13-0.48,0.27-0.72,0.43c-0.88,0.6-1.76,1.31-2.56,2.11c-0.02-0.3-0.06-0.6-0.09-0.9
			C401.31,203.83,403.69,200.73,402.41,197.3z"/>
		<path class="st14" d="M391.77,184.32c1.1,0.09,1.95,1.12,3.03,1.28c0.56,0.08,0.87-0.21,1.37-0.41c0.82-0.33,1.52-0.39,2.39-0.37
			c2.11,0.06,4.4,0.99,6.15,2.12c1.32,0.85,2.67,3.78,1.2,5.02c-0.92,0.77-2.19,0.93-2.22,2.27c0,0.11,0.01,0.22,0.02,0.32
			c-0.02,0.07-0.04,0.15-0.04,0.24c0.03,0.62,0.15,1.22,0.33,1.81c-1.63-1.77-3.85-3.16-6.15-3.76c-0.52-0.13-1.22-0.34-1.8-0.29
			c-0.07,0.01-0.13,0.02-0.19,0.03c-0.96,0.21-0.61,0.71-1.28-0.06c-0.84-0.97-1.49-2.06-2.18-3.12c-0.57-0.87-1.29-1.51-1.65-2.5
			C390.37,185.87,390.3,184.2,391.77,184.32z"/>
		<path class="st15" d="M390.75,186.9c0.36,0.99,1.09,1.62,1.65,2.5c0.69,1.07,1.34,2.16,2.18,3.12c0.67,0.77,0.32,0.27,1.28,0.06
			c0.06-0.01,0.13-0.02,0.19-0.03c0.57-0.05,1.28,0.16,1.8,0.29c2.43,0.63,4.79,2.15,6.43,4.07c-0.06-0.17-0.12-0.34-0.17-0.51
			c-0.15-0.46-0.43-1.07-0.36-1.58c-0.04-0.2-0.07-0.4-0.06-0.6c0.03-1.35,1.31-1.5,2.22-2.27c1.46-1.23,0.12-4.17-1.2-5.02
			c-1.75-1.13-4.04-2.06-6.15-2.12c-0.88-0.02-1.57,0.03-2.39,0.37c-0.49,0.2-0.81,0.5-1.37,0.41c-1.08-0.16-1.93-1.19-3.03-1.28
			C390.3,184.2,390.37,185.87,390.75,186.9z M395.55,186.69c1.15,0.01,1.94-0.28,3.02-0.6c1.42-0.42,2.21,0.36,3.12,1.37
			c0.34,0.38,0.9,0.72,1.16,1.15c0.28,0.46,0.52,1.43-0.2,1.64c-0.47,0.14-0.52-0.53-0.97-0.39c-0.33,0.1-0.29,0.69-0.61,0.83
			c-0.7,0.29-1.13-0.44-1.59-0.8c-0.59-0.46-1.02-0.57-1.45-0.54c-0.56,0.04-1.11,0.33-1.96,0.36c-0.87,0.04-1.86-1.08-2.22-1.75
			C393.05,186.47,394.39,186.69,395.55,186.69z"/>
		<path class="st16" d="M390.75,186.9c0.36,0.99,1.09,1.62,1.65,2.5c0.69,1.07,1.34,2.16,2.18,3.12c0.67,0.77,0.32,0.27,1.28,0.06
			c0.06-0.01,0.13-0.02,0.19-0.03c0.57-0.05,1.28,0.16,1.8,0.29c2.88,0.75,5.55,3.06,7.16,5.49c-0.35-1.26-1.35-2.75-1.32-4.1
			c0.03-1.35,1.31-1.5,2.22-2.27c1.46-1.23,0.12-4.17-1.2-5.02c-1.75-1.13-4.04-2.06-6.15-2.12c-0.88-0.02-1.57,0.03-2.39,0.37
			c-0.49,0.2-0.81,0.5-1.37,0.41c-1.08-0.16-1.93-1.19-3.03-1.28C390.3,184.2,390.37,185.87,390.75,186.9z M393.8,188.65
			c-0.86-0.9-1.89-1.21-2.28-2.53c-0.12-0.42,0.12-0.92,0.62-0.94c0.92-0.03,1.5,0.34,1.93,0.88c0.45,0.14,0.92,0.18,1.39,0.17
			c0.92-0.42,1.76-0.93,2.9-0.94c0.71-0.01,1.38,0.19,2,0.51c1.5,0.12,3.72,1.91,4.23,3.29c0.51,1.37-0.59,2.16-1.76,2.03
			c-0.18,0.35-0.37,0.7-0.56,1.05c-0.96,1.73-3.13-3.06-4.88-1.85c-0.59,0.41-0.87,1.18-1.74,0.83c-0.87-0.35-1.2-1.68-1.77-2.38
			C393.87,188.73,393.84,188.69,393.8,188.65z"/>
	</g>
	<g>
		<path class="st3" d="M349.82,315.52c-3.5-0.88-6.9-2.03-10.38-3.87c-0.97-0.51-10.7-7.03-10.89-6.83
			c-1.48,1.62-2.83,7.96-1.99,10.08c1.2,3.04,6.21,4.27,8.81,6.16c3.56,2.58,5.2,5.3,7.42,9.05c7.49,12.63,22.2,19.19,37.46,18.24
			c11.07-0.69,40.03-7.99,57.28-29.45c10.49-13.05,11.1-19.07,9.92-25.02c-0.75-3.8-3.54-8.29-7.73-9.2
			c-4.92-1.07-10.14,3.31-13.81,5.96c-7.19,5.21-14.97,14.02-24.78,19.51c-13.88,7.77-27.11,10.07-41.54,7.36
			C356.17,316.88,352.96,316.31,349.82,315.52z"/>
		<path class="st4" d="M331.73,306.7c5.92,8.59,19.72,12.71,29.23,14.9c14.54,3.34,27.76,0.73,40.23-7.09
			c5.93-3.72,11.98-7.85,17.26-12.4c2.63-2.27,4.84-5.01,7.25-7.51c3.11-3.21,8.12-8.94,13.36-10c-4.73-0.57-9.64,3.51-13.14,6.05
			c-7.19,5.21-14.97,14.02-24.78,19.51c-13.88,7.77-27.11,10.07-41.54,7.36c-3.43-0.64-6.65-1.21-9.78-2
			c-3.5-0.88-6.9-2.03-10.38-3.87C338.83,311.33,334.72,308.61,331.73,306.7z"/>
		<path class="st5" d="M439.74,284.69c-0.2-0.04-0.41-0.08-0.61-0.1c-1.18,8.76-35.73,35.13-44.74,39.08
			c-4.75,2.08-21.66,10.05-40.7,5.14c-10.28-2.65-19.02-8.69-27.33-14.96c0.04,0.41,0.11,0.78,0.22,1.06
			c1.2,3.04,6.21,4.27,8.81,6.16c3.56,2.58,5.2,5.3,7.42,9.05c7.49,12.63,22.2,19.19,37.46,18.24c11.07-0.69,40.03-7.99,57.28-29.45
			c10.49-13.05,11.1-19.07,9.92-25.02C446.71,290.09,443.92,285.6,439.74,284.69z"/>
		<path class="st6" d="M444.16,287.36c-2.59,1.38-4.94,3.25-6.71,4.89c-4.37,4.06-33.15,28.73-44.71,33.96
			c-9.91,4.48-24.29,7.08-35.02,4.18c-10.27-2.79-18.55-9.89-26.71-16.18c-1.43-1.1-2.91-2.41-4.49-3.54
			c-0.26,1.71-0.3,3.34,0.05,4.23c1.2,3.04,6.21,4.27,8.81,6.16c3.56,2.58,5.2,5.3,7.42,9.05c7.49,12.63,22.2,19.19,37.46,18.24
			c11.07-0.69,40.03-7.99,57.28-29.45c10.49-13.05,11.1-19.07,9.92-25.02C447.02,291.67,445.87,289.2,444.16,287.36z"/>
		<path class="st7" d="M441.48,306c-11.14,20.54-52.69,49.2-85.2,31.72c-3.36-1.81-14.27-10.44-15.66-16.16
			c-3.29-2.38-6.46-4.92-9.6-7.35c-1.43-1.1-2.91-2.41-4.49-3.54c-0.26,1.71-0.3,3.34,0.05,4.23c1.2,3.04,6.21,4.27,8.81,6.16
			c3.56,2.58,5.2,5.3,7.42,9.05c7.49,12.63,22.2,19.19,37.46,18.24c11.07-0.69,40.03-7.99,57.28-29.45
			c10.49-13.05,11.1-19.07,9.92-25.02c-0.35-1.75-1.14-3.65-2.3-5.28C446.21,294.2,444.3,300.79,441.48,306z"/>
		<path class="st7" d="M437.45,292.26c-4.37,4.06-33.15,28.73-44.71,33.96c-9.91,4.48-24.29,7.08-35.02,4.18
			c-10.27-2.79-18.55-9.89-26.71-16.18c-1.43-1.1-2.91-2.41-4.49-3.54c-0.26,1.71-0.3,3.34,0.05,4.23c1.2,3.04,6.21,4.27,8.81,6.16
			c3.56,2.58,5.2,5.3,7.42,9.05c2.68,4.51,6.28,8.25,10.49,11.14c-1.45-1.7-2.2-3.61-0.93-5.41c1.51-2.13,5.32-1.68,7.5-1.4
			c4.68,0.59,9.11,0.75,13.83,0.14c10.84-1.41,22.86-5.19,32.14-10.86c0.2-0.12,0.39-0.25,0.58-0.38c2.59-2.04,5.16-4.11,7.71-6.2
			c1.97-1.77,3.95-3.53,6.06-5.06c2.46-2.09,4.9-4.19,7.31-6.31c0.93-0.82,1.98-1.77,3.1-2.5c2.49-2.2,7.21-4.32,9.5-1.17
			c2.55,3.5,0.95,7.72-0.68,11.33c-1.4,3.11-3.14,6.18-5.08,9.13c1.1-1.18,2.18-2.39,3.21-3.66c10.49-13.05,11.1-19.07,9.92-25.02
			c-0.44-2.23-1.59-4.69-3.3-6.53C441.57,288.75,439.22,290.61,437.45,292.26z"/>
		<path class="st8" d="M437.45,292.26c-4.37,4.06-33.15,28.73-44.71,33.96c-9.91,4.48-24.29,7.08-35.02,4.18
			c-10.27-2.79-18.55-9.89-26.71-16.18c-1.43-1.1-2.91-2.41-4.49-3.54c-0.26,1.71-0.3,3.34,0.05,4.23c1.2,3.04,6.21,4.27,8.81,6.16
			c3.56,2.58,5.2,5.3,7.42,9.05c0,0.01,0.01,0.02,0.01,0.02c-0.31-0.52-0.52-3.15,0.74-3.54c1.91-0.6,9.76,4,16.3,5.09
			c9.85,1.65,21.17,1.91,29.99-2.31c25.75-12.32,42.05-31.26,45.36-32.41c4.14-2.5,8.23,0.99,9.74,5.19
			c0.59,1.64,0.68,3.34,0.45,5.06c2.82-5.68,2.81-9.53,2.06-13.33c-0.44-2.23-1.59-4.69-3.3-6.53
			C441.57,288.75,439.22,290.61,437.45,292.26z"/>
		<path class="st9" d="M440.14,284.8c-0.19,0.27-0.3,0.72-0.42,1.32c-0.22,1.12-1.14,2.2-1.65,3.22c-0.34,0.68-0.64,1.49-0.62,2.25
			c0.04,1.23,1.26,1.17,2.18,1.48c1.11,0.38,2.25,1.81,3.42,2.32c0.36,0.16,0.73,0.23,1.1,0.15c0.71-0.15,1.73-0.64,2.43-0.91
			c0.34-0.13,0.65-0.31,0.92-0.54c-0.01-0.07-0.03-0.14-0.04-0.21C446.73,290.22,444.1,285.91,440.14,284.8z"/>
		<path class="st10" d="M439.36,292.51c1.03-0.12,1.08,0.1,1.78,0.77c0.49,0.47,1.15,0.86,1.76,1.22c0.85,0.5,0.88,0.34,1.58-0.19
			c0.49-0.37,1.33-0.45,0.84-1.21c-0.47-0.72-1.47-0.27-2.04-0.67c-0.62-0.44-0.23-1.33,0.14-1.87c0.21-0.32,0.44-0.23,0.51-0.7
			c0.07-0.53-0.53-1.12-0.9-1.41c-0.75-0.61-1.58-0.26-2.27-0.72c-0.76-0.49,0.08-1.29-0.4-1.64c-0.66,0.71-0.7,1.74-1.04,2.57
			C438.82,289.82,436.46,292.86,439.36,292.51z"/>
		<path class="st11" d="M443.05,293.45c-0.45-0.07-0.76-0.04-1.01-0.64c-0.26-0.61-0.07-1.37-0.28-2c-0.32-1.01-1.21-0.36-1.6-0.97
			c-0.23-0.36,0.04-1.04,0.49-1.15c0.63-0.15,1.45,0.94,1.93,1.22c0.82-0.93-1.41-2.25-2.24-1.86c-0.3,0.14-0.77,0.72-0.95,0.99
			c-0.43,0.66-0.82,2.44,0.46,2.46c0.55,0.01,0.78-0.35,1.25,0.15c0.44,0.48,0.12,1.19,0.47,1.7c0.31,0.45,1.12,0.85,1.68,0.85
			c0.9,0,0.98-0.38,0.21-0.65C443.32,293.5,443.18,293.47,443.05,293.45z"/>
		<path class="st12" d="M335.38,321.07c3.38,2.45,5.03,5.04,7.09,8.51c-0.46-0.98-0.84-2-1.12-3.06c-0.95-3.53-0.69-7.51,2.35-10.06
			c0.82-0.68,1.74-1.34,2.73-1.9c-2.33-0.74-4.64-1.67-6.99-2.91c-0.97-0.51-10.7-7.03-10.89-6.83c-1.48,1.62-2.83,7.96-1.99,10.08
			C327.77,317.95,332.78,319.18,335.38,321.07z"/>
		<path class="st13" d="M336.06,315.78c-1.22-0.78-2-1.88-2.49-3.22c-0.33-0.9-1.31-3.23,0.67-2.85c0.9,0.17,1.85,0.59,2.69,0.93
			c0.91,0.36,1.86,0.81,2.84,1.18c-0.11-0.05-0.21-0.1-0.31-0.16c-0.69-0.36-5.76-3.73-8.73-5.6c-2.01,1.11-3.42,3.4-3.97,5.57
			c-1.03,4.02,4.93,5.31,7.56,7c2.09,1.35,4.41,3.1,6.06,4.92c0.19,0.21,0.38,0.42,0.57,0.63c-0.19-1.99,0.08-3.99,1.07-5.69
			c0.02-0.03,0.04-0.06,0.06-0.09c0.12-0.2,0.25-0.4,0.4-0.59c0.03-0.04,0.06-0.08,0.09-0.13c0.14-0.18,0.29-0.35,0.44-0.52
			c0.04-0.04,0.07-0.08,0.11-0.12c0.19-0.2,0.39-0.39,0.6-0.57c0.82-0.68,1.74-1.34,2.73-1.9c-0.29-0.09-0.59-0.2-0.88-0.3
			C342.88,316.3,339.2,317.79,336.06,315.78z"/>
		<path class="st14" d="M325.54,302.7c-0.17,1.05,0.66,2.09,0.56,3.15c-0.05,0.54-0.42,0.77-0.74,1.19
			c-0.53,0.69-0.75,1.33-0.94,2.16c-0.44,1.99-0.05,4.36,0.66,6.27c0.54,1.44,3.17,3.41,4.76,2.32c0.99-0.68,1.45-1.83,2.82-1.54
			c0.11,0.02,0.21,0.06,0.32,0.1c0.08,0,0.16,0,0.25,0.02c0.62,0.18,1.19,0.44,1.74,0.74c-1.39-1.95-2.26-4.37-2.31-6.67
			c-0.01-0.52-0.05-1.23,0.14-1.76c0.02-0.06,0.05-0.12,0.07-0.17c0.44-0.85,0.86-0.41,0.24-1.22c-0.77-1.02-1.71-1.89-2.62-2.79
			c-0.74-0.74-1.21-1.57-2.12-2.15C327.43,301.75,325.77,301.29,325.54,302.7z"/>
		<path class="st15" d="M325.54,302.7c-0.17,1.05,0.66,2.09,0.56,3.15c-0.05,0.54-0.42,0.77-0.74,1.19
			c-0.53,0.69-0.75,1.33-0.94,2.16c-0.44,1.99-0.05,4.36,0.66,6.27c0.54,1.44,3.17,3.41,4.76,2.32c0.99-0.68,1.45-1.83,2.82-1.54
			c0.21,0.04,0.4,0.12,0.59,0.2c0.53,0.06,1.07,0.47,1.5,0.72c0.16,0.09,0.31,0.19,0.47,0.28c-1.53-2-2.51-4.57-2.56-7.01
			c-0.01-0.52-0.05-1.23,0.14-1.76c0.02-0.06,0.05-0.12,0.07-0.17c0.44-0.85,0.86-0.41,0.24-1.22c-0.77-1.02-1.71-1.89-2.62-2.79
			c-0.74-0.74-1.21-1.57-2.12-2.15C327.43,301.75,325.77,301.29,325.54,302.7z M328.71,305.52c0.59,0.5,1.47,1.7,1.23,2.5
			c-0.24,0.79-0.66,1.24-0.83,1.75c-0.13,0.39-0.12,0.82,0.2,1.49c0.25,0.51,0.88,1.1,0.42,1.68c-0.21,0.27-0.8,0.1-0.98,0.38
			c-0.25,0.39,0.42,0.59,0.17,1c-0.38,0.62-1.3,0.17-1.69-0.21c-0.37-0.35-0.58-0.96-0.88-1.37c-0.8-1.1-1.4-2.02-0.64-3.25
			c0.58-0.94,1.06-1.61,1.33-2.69C327.3,305.72,327.4,304.41,328.71,305.52z"/>
		<path class="st16" d="M325.54,302.7c-0.17,1.05,0.66,2.09,0.56,3.15c-0.05,0.54-0.42,0.77-0.74,1.19
			c-0.53,0.69-0.75,1.33-0.94,2.16c-0.44,1.99-0.05,4.36,0.66,6.27c0.54,1.44,3.17,3.41,4.76,2.32c0.99-0.68,1.45-1.83,2.82-1.54
			c1.37,0.29,2.63,1.59,3.81,2.22c-2.06-2.09-3.75-5.14-3.81-8.02c-0.01-0.52-0.05-1.23,0.14-1.76c0.02-0.06,0.05-0.12,0.07-0.17
			c0.44-0.85,0.86-0.41,0.24-1.22c-0.77-1.02-1.71-1.89-2.62-2.79c-0.74-0.74-1.21-1.57-2.12-2.15
			C327.43,301.75,325.77,301.29,325.54,302.7z M329.51,305.76c0.57,0.7,1.83,1.33,1.97,2.23c0.14,0.89-0.7,0.98-1.25,1.44
			c-1.64,1.36,2.67,4.53,0.7,5.02c-0.39,0.1-0.79,0.18-1.18,0.27c-0.14,1.13-1.2,1.97-2.45,1.17c-1.26-0.81-2.53-3.31-2.3-4.75
			c-0.18-0.66-0.22-1.34-0.04-2c0.28-1.07,0.99-1.74,1.63-2.5c0.12-0.44,0.19-0.89,0.16-1.35c-0.45-0.53-0.68-1.16-0.43-2.02
			c0.14-0.47,0.7-0.57,1.09-0.36c1.24,0.67,1.3,1.71,2,2.74C329.44,305.68,329.47,305.72,329.51,305.76z"/>
	</g>
	<g>
		<path class="st3" d="M444.77,360.42c0.48-3.46,0.67-6.94,0.22-10.74c-0.12-1.06-2.68-12.23-2.42-12.32
			c2.12-0.71,8.7,0.49,10.41,2.04c2.46,2.23,1.74,7.17,2.56,10.21c1.12,4.16,3.11,6.66,5.86,10.07c9.26,11.48,9.97,27.11,3.28,40.4
			c-4.85,9.64-22.82,32.76-49.9,40.07c-16.47,4.44-22.47,2.7-27.73-0.61c-3.35-2.11-6.6-6.3-5.89-10.39
			c0.84-4.81,7.01-7.82,10.94-10.09c7.72-4.45,19.1-8.08,28.07-14.77c12.7-9.47,19.91-20.43,22.78-34.36
			C443.66,366.61,444.34,363.52,444.77,360.42z"/>
		<path class="st4" d="M443.17,340.9c5.98,8.55,4.71,22.45,3.2,31.78c-2.31,14.26-9.82,25.1-22.03,33.29
			c-5.81,3.89-12.06,7.74-18.42,10.74c-3.17,1.49-6.64,2.43-9.93,3.64c-4.26,1.56-11.64,3.87-14.64,8.16
			c1.24-4.44,7.02-7.29,10.77-9.46c7.72-4.45,19.1-8.08,28.07-14.77c12.7-9.47,19.91-20.43,22.78-34.36c0.68-3.31,1.36-6.4,1.79-9.5
			c0.48-3.46,0.67-6.94,0.22-10.74C444.92,349,443.87,344.3,443.17,340.9z"/>
		<path class="st5" d="M381.18,429.14c0.04-0.2,0.08-0.39,0.14-0.58c8.84,2.27,47.18-18.64,54.38-25.21
			c3.8-3.46,17.83-15.57,20.34-34.45c1.36-10.2-1.12-20.3-3.98-30.11c0.38,0.19,0.7,0.39,0.93,0.6c2.46,2.23,1.74,7.17,2.56,10.21
			c1.12,4.16,3.11,6.66,5.86,10.07c9.26,11.48,9.97,27.11,3.28,40.4c-4.85,9.64-22.82,32.76-49.9,40.07
			c-16.47,4.44-22.47,2.7-27.73-0.61C383.71,437.42,380.47,433.22,381.18,429.14z"/>
		<path class="st6" d="M382.06,434.1c2.31-1.79,4.98-3.19,7.23-4.15c5.55-2.37,40.08-18.76,49.47-27.11
			c8.05-7.16,15.99-19.04,17.27-29.73c1.22-10.24-2.44-20.33-5.38-30.01c-0.52-1.7-1.21-3.51-1.69-5.36c1.74,0.41,3.32,1,4.04,1.65
			c2.46,2.23,1.74,7.17,2.56,10.21c1.12,4.16,3.11,6.66,5.86,10.07c9.26,11.48,9.97,27.11,3.28,40.4
			c-4.85,9.64-22.82,32.76-49.9,40.07c-16.47,4.44-22.47,2.7-27.73-0.61C385.1,438.29,383.18,436.33,382.06,434.1z"/>
		<path class="st7" d="M400.93,438.76c23.89-2.19,67.08-28.48,62.66-64.17c-0.46-3.69-4.6-16.71-9.55-20.13
			c-1.03-3.84-2.27-7.64-3.4-11.37c-0.52-1.7-1.21-3.51-1.69-5.36c1.74,0.41,3.32,1,4.04,1.65c2.46,2.23,1.74,7.17,2.56,10.21
			c1.12,4.16,3.11,6.66,5.86,10.07c9.26,11.48,9.97,27.11,3.28,40.4c-4.85,9.64-22.82,32.76-49.9,40.07
			c-16.47,4.44-22.47,2.7-27.73-0.61c-1.55-0.98-3.07-2.4-4.19-4.05C387.83,438.52,394.88,439.32,400.93,438.76z"/>
		<path class="st7" d="M389.29,429.96c5.55-2.37,40.08-18.76,49.47-27.11c8.05-7.16,15.99-19.04,17.27-29.73
			c1.22-10.24-2.44-20.33-5.38-30.01c-0.52-1.7-1.21-3.51-1.69-5.36c1.74,0.41,3.32,1,4.04,1.65c2.46,2.23,1.74,7.17,2.56,10.21
			c1.12,4.16,3.11,6.66,5.86,10.07c3.31,4.1,5.52,8.74,6.7,13.6c-1.08-1.93-2.63-3.33-4.83-2.88c-2.61,0.54-3.62,4.12-4.18,6.17
			c-1.2,4.41-2.73,8.43-5.1,12.42c-5.45,9.16-13.63,18.47-22.57,24.62c-0.19,0.13-0.39,0.25-0.58,0.38
			c-2.93,1.54-5.89,3.06-8.86,4.54c-2.44,1.1-4.87,2.2-7.14,3.5c-2.93,1.41-5.87,2.79-8.81,4.14c-1.14,0.52-2.45,1.1-3.57,1.83
			c-3.06,1.4-6.87,4.81-4.72,8.06c2.39,3.61,7.03,3.77,11.11,3.68c3.51-0.07,7.11-0.47,10.67-1.09c-1.55,0.54-3.11,1.05-4.72,1.48
			c-16.47,4.44-22.47,2.7-27.73-0.61c-1.96-1.24-3.89-3.2-5.01-5.42C384.37,432.31,387.04,430.92,389.29,429.96z"/>
		<path class="st8" d="M389.29,429.96c5.55-2.37,40.08-18.76,49.47-27.11c8.05-7.16,15.99-19.04,17.27-29.73
			c1.22-10.24-2.44-20.33-5.38-30.01c-0.52-1.7-1.21-3.51-1.69-5.36c1.74,0.41,3.32,1,4.04,1.65c2.46,2.23,1.74,7.17,2.56,10.21
			c1.12,4.16,3.11,6.66,5.86,10.07c0.01,0.01,0.01,0.02,0.02,0.02c-0.38-0.47-2.82-1.66-3.67-0.68c-1.3,1.48,0.13,10.24-1.3,16.51
			c-2.15,9.44-6.2,19.66-13.58,25.94c-21.56,18.36-45.87,25.76-48.23,28.29c-3.96,2.75-2.17,7.73,1.28,10.67
			c1.34,1.14,2.94,1.87,4.68,2.32c-6.51,0.37-10.19-1.09-13.55-3.21c-1.96-1.24-3.89-3.2-5.01-5.42
			C384.37,432.31,387.04,430.92,389.29,429.96z"/>
		<path class="st9" d="M381.13,429.54c0.33-0.07,0.8,0,1.43,0.13c1.16,0.23,2.54-0.18,3.71-0.26c0.77-0.04,1.67,0,2.39,0.3
			c1.17,0.5,0.64,1.57,0.59,2.51c-0.06,1.13,0.88,2.69,0.93,3.94c0.01,0.39-0.06,0.74-0.28,1.04c-0.41,0.58-1.26,1.3-1.79,1.83
			c-0.26,0.26-0.55,0.46-0.86,0.62c-0.06-0.04-0.12-0.08-0.19-0.11C383.82,437.49,380.69,433.5,381.13,429.54z"/>
		<path class="st10" d="M388.81,431.76c-0.51,0.87-0.31,1,0.07,1.88c0.27,0.62,0.39,1.36,0.5,2.03c0.16,0.95-0.01,0.91-0.78,1.34
			c-0.54,0.3-0.94,1.02-1.48,0.29c-0.51-0.69,0.3-1.41,0.13-2.08c-0.18-0.72-1.19-0.71-1.85-0.59c-0.39,0.07-0.39,0.31-0.86,0.19
			c-0.53-0.14-0.87-0.89-1.01-1.34c-0.3-0.9,0.34-1.51,0.17-2.3c-0.19-0.87-1.26-0.42-1.42-0.98c0.93-0.32,1.93,0.04,2.86,0.04
			C386.44,430.26,390.24,429.3,388.81,431.76z"/>
		<path class="st11" d="M388.32,435.42c0.1-0.43,0.25-0.7-0.23-1.15c-0.48-0.46-1.28-0.58-1.81-1.01c-0.84-0.67,0.11-1.22-0.33-1.8
			c-0.26-0.34-1.01-0.36-1.29,0c-0.39,0.51,0.35,1.65,0.44,2.19c-1.2,0.38-1.63-2.11-0.94-2.7c0.25-0.21,0.99-0.42,1.31-0.47
			c0.8-0.14,2.65,0.19,2.18,1.35c-0.2,0.5-0.63,0.57-0.33,1.17c0.29,0.58,1.1,0.56,1.45,1.06c0.32,0.45,0.39,1.32,0.18,1.83
			c-0.35,0.81-0.74,0.73-0.71-0.06C388.26,435.67,388.29,435.54,388.32,435.42z"/>
		<path class="st12" d="M455.55,349.6c1.07,3.95,2.92,6.41,5.46,9.57c-0.77-0.78-1.6-1.51-2.5-2.16c-3.02-2.19-6.93-3.46-10.52-1.71
			c-0.97,0.47-1.94,1.05-2.86,1.72c0.17-2.36,0.16-4.78-0.14-7.35c-0.12-1.06-2.68-12.23-2.42-12.32c2.12-0.71,8.7,0.49,10.41,2.04
			C455.45,341.62,454.73,346.56,455.55,349.6z"/>
		<path class="st13" d="M450.23,348.2c-0.29-1.38-1.04-2.51-2.14-3.45c-0.74-0.64-2.6-2.4-2.98-0.48c-0.17,0.87-0.13,1.88-0.13,2.75
			c0,0.95,0.07,1.97,0.05,2.99c-0.01-0.11-0.02-0.22-0.03-0.34c-0.09-0.75-1.4-6.56-2.06-9.93c1.83-1.38,4.55-1.77,6.84-1.44
			c4.24,0.6,3.22,6.42,3.85,9.41c0.5,2.38,1.3,5.11,2.42,7.28c0.13,0.25,0.26,0.5,0.39,0.75c-1.83-0.92-3.85-1.44-5.86-1.2
			c-0.04,0-0.07,0.01-0.11,0.02c-0.24,0.03-0.48,0.07-0.72,0.13c-0.05,0.01-0.1,0.02-0.16,0.04c-0.22,0.06-0.45,0.12-0.67,0.2
			c-0.05,0.02-0.1,0.03-0.16,0.05c-0.26,0.09-0.52,0.2-0.78,0.32c-0.97,0.47-1.94,1.05-2.86,1.72c0.02-0.3,0.03-0.6,0.05-0.9
			C448.14,354.5,450.96,351.78,450.23,348.2z"/>
		<path class="st14" d="M441.69,333.84c1.07,0.24,1.76,1.38,2.8,1.69c0.54,0.16,0.9-0.09,1.42-0.21c0.86-0.21,1.56-0.17,2.42-0.02
			c2.08,0.36,4.2,1.6,5.76,2.97c1.18,1.03,2.06,4.12,0.43,5.13c-1.02,0.63-2.31,0.6-2.55,1.93c-0.02,0.11-0.02,0.22-0.03,0.32
			c-0.03,0.07-0.06,0.14-0.07,0.23c-0.06,0.62-0.03,1.23,0.05,1.84c-1.34-1.98-3.33-3.68-5.51-4.59c-0.49-0.21-1.16-0.51-1.73-0.54
			c-0.07,0-0.13,0-0.19,0c-0.98,0.07-0.71,0.61-1.26-0.24c-0.68-1.07-1.16-2.25-1.68-3.4c-0.43-0.95-1.05-1.67-1.25-2.71
			C440.06,335.18,440.24,333.52,441.69,333.84z"/>
		<path class="st15" d="M440.28,336.25c0.21,1.03,0.83,1.76,1.25,2.71c0.52,1.15,1,2.32,1.68,3.4c0.55,0.85,0.28,0.31,1.26,0.24
			c0.06,0,0.13,0,0.19,0c0.57,0.03,1.24,0.34,1.73,0.54c2.31,0.97,4.41,2.81,5.74,4.94c-0.03-0.18-0.07-0.35-0.09-0.53
			c-0.07-0.48-0.26-1.12-0.12-1.61c-0.01-0.2-0.01-0.4,0.03-0.61c0.24-1.33,1.52-1.3,2.55-1.93c1.64-1.01,0.75-4.1-0.43-5.13
			c-1.56-1.37-3.68-2.61-5.76-2.97c-0.86-0.15-1.56-0.19-2.42,0.02c-0.52,0.13-0.88,0.37-1.42,0.21c-1.04-0.31-1.73-1.45-2.8-1.69
			C440.24,333.52,440.06,335.18,440.28,336.25z M445.05,336.73c1.14,0.17,1.96,0,3.08-0.17c1.47-0.21,2.13,0.67,2.87,1.8
			c0.28,0.43,0.78,0.84,0.98,1.31c0.21,0.49,0.29,1.48-0.44,1.59c-0.49,0.07-0.43-0.6-0.9-0.53c-0.34,0.05-0.39,0.65-0.73,0.73
			c-0.73,0.18-1.05-0.59-1.45-1.01c-0.51-0.54-0.92-0.71-1.35-0.74c-0.56-0.04-1.14,0.17-2,0.08c-0.87-0.09-1.68-1.33-1.93-2.05
			C442.61,336.16,443.91,336.56,445.05,336.73z"/>
		<path class="st16" d="M440.28,336.25c0.21,1.03,0.83,1.76,1.25,2.71c0.52,1.15,1,2.32,1.68,3.4c0.55,0.85,0.28,0.31,1.26,0.24
			c0.06,0,0.13,0,0.19,0c0.57,0.03,1.24,0.34,1.73,0.54c2.74,1.15,5.02,3.82,6.24,6.45c-0.16-1.3-0.92-2.91-0.68-4.25
			c0.24-1.33,1.52-1.3,2.55-1.93c1.64-1.01,0.75-4.1-0.43-5.13c-1.56-1.37-3.68-2.61-5.76-2.97c-0.86-0.15-1.56-0.19-2.42,0.02
			c-0.52,0.13-0.88,0.37-1.42,0.21c-1.04-0.31-1.73-1.45-2.8-1.69C440.24,333.52,440.06,335.18,440.28,336.25z M443.03,338.42
			c-0.72-1.02-1.69-1.46-1.86-2.83c-0.05-0.43,0.26-0.89,0.76-0.84c0.92,0.1,1.43,0.55,1.77,1.15c0.43,0.2,0.88,0.31,1.35,0.37
			c0.97-0.29,1.88-0.67,3.02-0.51c0.7,0.09,1.34,0.39,1.9,0.79c1.47,0.34,3.38,2.42,3.68,3.85c0.3,1.43-0.91,2.05-2.05,1.75
			c-0.24,0.32-0.47,0.64-0.71,0.95c-1.22,1.58-2.63-3.47-4.55-2.53c-0.65,0.32-1.04,1.04-1.85,0.57c-0.8-0.47-0.93-1.83-1.39-2.6
			C443.09,338.51,443.06,338.46,443.03,338.42z"/>
	</g>
	<g>
		<path class="st3" d="M292.57,321.63c-1.18-3.31-2.06-6.68-2.4-10.49c-0.09-1.06,0.15-12.5-0.13-12.54
			c-2.22-0.3-8.43,2.12-9.8,3.97c-1.96,2.65-0.25,7.36-0.44,10.5c-0.26,4.29-1.7,7.12-3.71,10.98c-6.75,13.01-4.28,28.48,4.98,40.24
			c6.71,8.53,29.02,27.81,57.06,29.84c17.05,1.23,22.59-1.61,27.07-5.85c2.86-2.71,5.19-7.43,3.66-11.3
			c-1.8-4.55-8.46-6.34-12.78-7.82c-8.47-2.9-20.37-4.31-30.53-9.17c-14.37-6.88-23.67-16.27-29.31-29.38
			C294.91,327.49,293.62,324.59,292.57,321.63z"/>
		<path class="st4" d="M290.18,302.19c-4.13,9.51-0.06,22.91,3.31,31.77c5.15,13.55,14.72,22.75,28.36,28.47
			c6.49,2.72,13.39,5.31,20.24,7.04c3.42,0.86,7,1.13,10.48,1.69c4.49,0.72,12.2,1.59,16.01,5.23c-2.12-4.12-8.36-5.82-12.48-7.24
			c-8.47-2.9-20.37-4.31-30.53-9.17c-14.37-6.88-23.67-16.27-29.31-29.38c-1.34-3.12-2.63-6.02-3.68-8.98
			c-1.18-3.31-2.06-6.68-2.4-10.49C290.11,310.47,290.18,305.66,290.18,302.19z"/>
		<path class="st5" d="M368.86,376.98c-0.08-0.19-0.16-0.37-0.25-0.55c-8.21,3.89-50.05-9.35-58.44-14.42
			c-4.42-2.68-20.64-11.89-26.93-29.93c-3.4-9.74-3.02-20.12-2.21-30.28c-0.33,0.26-0.61,0.52-0.8,0.76
			c-1.96,2.65-0.25,7.36-0.44,10.5c-0.26,4.29-1.7,7.12-3.71,10.98c-6.75,13.01-4.28,28.48,4.98,40.24
			c6.71,8.53,29.02,27.81,57.06,29.84c17.05,1.23,22.59-1.61,27.07-5.85C368.06,385.58,370.39,380.86,368.86,376.98z"/>
		<path class="st6" d="M369.01,382.02c-2.62-1.32-5.53-2.18-7.93-2.7c-5.92-1.27-43.1-10.8-54.01-17.22
			c-9.34-5.5-19.54-15.64-22.96-25.89c-3.28-9.81-1.73-20.4-0.81-30.45c0.16-1.76,0.47-3.68,0.57-5.57
			c-1.63,0.73-3.05,1.61-3.62,2.38c-1.96,2.65-0.25,7.36-0.44,10.5c-0.26,4.29-1.7,7.12-3.71,10.98
			c-6.75,13.01-4.28,28.48,4.98,40.24c6.71,8.53,29.02,27.81,57.06,29.84c17.05,1.23,22.59-1.61,27.07-5.85
			C366.88,386.7,368.37,384.42,369.01,382.02z"/>
		<path class="st7" d="M351.45,390.16c-23.87,2.38-71.56-15.22-74.46-51.06c-0.3-3.71,1.12-17.26,5.28-21.55
			c0.23-3.96,0.67-7.92,1.03-11.79c0.16-1.76,0.47-3.68,0.57-5.57c-1.63,0.73-3.05,1.61-3.62,2.38c-1.96,2.65-0.25,7.36-0.44,10.5
			c-0.26,4.29-1.7,7.12-3.71,10.98c-6.75,13.01-4.28,28.48,4.98,40.24c6.71,8.53,29.02,27.81,57.06,29.84
			c17.05,1.23,22.59-1.61,27.07-5.85c1.32-1.25,2.52-2.94,3.29-4.77C364.25,387.44,357.5,389.56,351.45,390.16z"/>
		<path class="st7" d="M361.08,379.32c-5.92-1.27-43.1-10.8-54.01-17.22c-9.34-5.5-19.54-15.64-22.96-25.89
			c-3.28-9.81-1.73-20.4-0.81-30.45c0.16-1.76,0.47-3.68,0.57-5.57c-1.63,0.73-3.05,1.61-3.62,2.38c-1.96,2.65-0.25,7.36-0.44,10.5
			c-0.26,4.29-1.7,7.12-3.71,10.98c-2.41,4.65-3.64,9.61-3.81,14.61c0.66-2.1,1.9-3.77,4.15-3.74c2.67,0.04,4.39,3.35,5.36,5.26
			c2.07,4.1,4.39,7.75,7.52,11.21c7.21,7.95,17.11,15.53,27.13,19.87c0.21,0.09,0.43,0.17,0.65,0.26c3.19,0.96,6.39,1.89,9.61,2.78
			c2.61,0.61,5.23,1.23,7.71,2.08c3.16,0.83,6.32,1.62,9.48,2.4c1.22,0.3,2.62,0.61,3.87,1.11c3.28,0.79,7.71,3.42,6.26,7.01
			c-1.61,3.99-6.13,5.03-10.15,5.72c-3.46,0.6-7.07,0.89-10.68,0.95c1.62,0.24,3.26,0.44,4.93,0.56
			c17.05,1.23,22.59-1.61,27.07-5.85c1.68-1.59,3.17-3.87,3.81-6.27C366.38,380.7,363.48,379.84,361.08,379.32z"/>
		<path class="st8" d="M361.08,379.32c-5.92-1.27-43.1-10.8-54.01-17.22c-9.34-5.5-19.54-15.64-22.96-25.89
			c-3.28-9.81-1.73-20.4-0.81-30.45c0.16-1.76,0.47-3.68,0.57-5.57c-1.63,0.73-3.05,1.61-3.62,2.38c-1.96,2.65-0.25,7.36-0.44,10.5
			c-0.26,4.29-1.7,7.12-3.71,10.98c0,0.01-0.01,0.02-0.01,0.02c0.28-0.53,2.43-2.16,3.46-1.36c1.57,1.2,1.95,10.06,4.62,15.94
			c4.02,8.85,10.06,18.1,18.58,22.87c24.87,13.92,50.21,16.58,53.03,18.61c4.44,1.95,3.7,7.17,0.91,10.71
			c-1.09,1.38-2.51,2.39-4.12,3.16c6.46-0.87,9.77-3,12.64-5.71c1.68-1.59,3.17-3.87,3.81-6.27
			C366.38,380.7,363.48,379.84,361.08,379.32z"/>
		<path class="st9" d="M368.99,377.37c-0.34,0-0.79,0.15-1.37,0.4c-1.09,0.44-2.53,0.3-3.69,0.45c-0.77,0.1-1.64,0.31-2.28,0.75
			c-1.04,0.71-0.31,1.66-0.07,2.58c0.29,1.1-0.32,2.81-0.11,4.04c0.07,0.38,0.21,0.72,0.48,0.97c0.52,0.49,1.5,1.04,2.13,1.45
			c0.3,0.2,0.63,0.35,0.97,0.44c0.05-0.05,0.1-0.1,0.16-0.15C367.97,385.67,370.23,381.17,368.99,377.37z"/>
		<path class="st10" d="M361.91,381c0.67,0.76,0.51,0.93,0.32,1.86c-0.14,0.65-0.11,1.41-0.08,2.09c0.04,0.96,0.19,0.89,1.04,1.16
			c0.59,0.19,1.13,0.82,1.51,0c0.36-0.78-0.58-1.33-0.55-2.01c0.04-0.74,1.02-0.92,1.69-0.93c0.39-0.01,0.45,0.23,0.88,0.02
			c0.49-0.24,0.67-1.04,0.72-1.51c0.11-0.94-0.64-1.42-0.64-2.23c0.01-0.88,1.15-0.65,1.19-1.23c-0.97-0.14-1.88,0.4-2.79,0.58
			C363.94,379.07,360.01,378.86,361.91,381z"/>
		<path class="st11" d="M363.14,384.49c-0.19-0.41-0.39-0.63-0.01-1.17c0.38-0.54,1.14-0.81,1.57-1.33
			c0.69-0.82-0.36-1.17-0.04-1.82c0.18-0.38,0.92-0.54,1.27-0.24c0.48,0.42,0,1.69,0.01,2.23c1.26,0.15,1.17-2.38,0.37-2.83
			c-0.29-0.16-1.05-0.22-1.38-0.21c-0.81,0.02-2.56,0.68-1.87,1.74c0.29,0.45,0.73,0.44,0.56,1.08c-0.17,0.62-0.96,0.75-1.21,1.32
			c-0.22,0.5-0.12,1.37,0.2,1.82c0.5,0.73,0.87,0.58,0.68-0.19C363.25,384.73,363.19,384.61,363.14,384.49z"/>
		<path class="st12" d="M279.8,313.07c-0.24,4.08-1.57,6.84-3.42,10.41c0.6-0.91,1.26-1.78,2.01-2.59c2.52-2.72,6.1-4.7,9.97-3.67
			c1.04,0.28,2.12,0.66,3.15,1.15c-0.65-2.29-1.13-4.66-1.36-7.23c-0.09-1.06,0.15-12.5-0.13-12.54c-2.22-0.3-8.43,2.12-9.8,3.97
			C278.28,305.22,279.99,309.93,279.8,313.07z"/>
		<path class="st13" d="M284.74,310.69c0-1.41,0.52-2.65,1.4-3.79c0.6-0.76,2.07-2.84,2.83-1.04c0.35,0.82,0.51,1.81,0.68,2.68
			c0.19,0.93,0.33,1.95,0.56,2.94c-0.01-0.11-0.03-0.22-0.04-0.34c-0.07-0.75,0.04-6.7,0-10.13c-2.07-1-4.82-0.87-7-0.12
			c-4.03,1.39-1.86,6.91-1.86,9.96c0,2.43-0.24,5.26-0.9,7.6c-0.07,0.26-0.15,0.54-0.23,0.81c1.61-1.25,3.48-2.14,5.5-2.29
			c0.04,0,0.08,0,0.11,0c0.24-0.01,0.49-0.02,0.73-0.01c0.06,0,0.11,0,0.16,0.01c0.23,0.01,0.46,0.03,0.7,0.07
			c0.05,0.01,0.11,0.01,0.16,0.02c0.27,0.04,0.55,0.1,0.83,0.17c1.04,0.28,2.12,0.66,3.15,1.15c-0.08-0.29-0.15-0.58-0.23-0.87
			C288.07,316.47,284.75,314.34,284.74,310.69z"/>
		<path class="st14" d="M290.2,294.99c-1,0.44-1.44,1.69-2.4,2.19c-0.49,0.26-0.9,0.08-1.43,0.06c-0.89-0.05-1.56,0.13-2.38,0.44
			c-1.96,0.74-3.79,2.37-5.04,4c-0.94,1.23-1.19,4.43,0.62,5.11c1.13,0.43,2.39,0.16,2.89,1.41c0.04,0.1,0.06,0.21,0.09,0.31
			c0.05,0.06,0.09,0.13,0.12,0.21c0.19,0.6,0.28,1.2,0.33,1.81c0.91-2.2,2.52-4.24,4.47-5.55c0.44-0.3,1.03-0.72,1.59-0.86
			c0.07-0.02,0.13-0.03,0.19-0.04c0.98-0.12,0.82,0.46,1.19-0.48c0.45-1.18,0.68-2.42,0.96-3.65c0.23-1.01,0.69-1.84,0.68-2.89
			C292.07,295.99,291.55,294.4,290.2,294.99z"/>
		<path class="st15" d="M290.2,294.99c-1,0.44-1.44,1.69-2.4,2.19c-0.49,0.26-0.9,0.08-1.43,0.06c-0.89-0.05-1.56,0.13-2.38,0.44
			c-1.96,0.74-3.79,2.37-5.04,4c-0.94,1.23-1.19,4.43,0.62,5.11c1.13,0.43,2.39,0.16,2.89,1.41c0.08,0.19,0.12,0.39,0.15,0.59
			c0.24,0.46,0.18,1.12,0.21,1.6c0.01,0.18,0.01,0.35,0.02,0.53c0.88-2.34,2.56-4.55,4.63-5.93c0.44-0.3,1.03-0.72,1.59-0.86
			c0.07-0.02,0.13-0.03,0.19-0.04c0.98-0.12,0.82,0.46,1.19-0.48c0.45-1.18,0.68-2.42,0.96-3.65c0.23-1.01,0.69-1.84,0.68-2.89
			C292.07,295.99,291.55,294.4,290.2,294.99z M289.53,299.11c-0.1,0.75-0.65,2.12-1.48,2.37c-0.82,0.25-1.43,0.15-1.97,0.3
			c-0.41,0.11-0.78,0.36-1.17,0.98c-0.3,0.49-0.46,1.31-1.21,1.27c-0.35-0.02-0.52-0.59-0.87-0.58c-0.47,0.01-0.28,0.66-0.77,0.69
			c-0.74,0.03-0.86-0.95-0.76-1.48c0.1-0.5,0.5-1,0.69-1.47c0.5-1.25,0.97-2.24,2.45-2.31c1.13-0.05,1.97-0.04,3.05-0.42
			C288.58,298.08,289.76,297.44,289.53,299.11z"/>
		<path class="st16" d="M290.2,294.99c-1,0.44-1.44,1.69-2.4,2.19c-0.49,0.26-0.9,0.08-1.43,0.06c-0.89-0.05-1.56,0.13-2.38,0.44
			c-1.96,0.74-3.79,2.37-5.04,4c-0.94,1.23-1.19,4.43,0.62,5.11c1.13,0.43,2.39,0.16,2.89,1.41c0.5,1.26,0.09,2.99,0.2,4.29
			c0.66-2.81,2.36-5.86,4.81-7.5c0.44-0.3,1.03-0.72,1.59-0.86c0.07-0.02,0.13-0.03,0.19-0.04c0.98-0.12,0.82,0.46,1.19-0.48
			c0.45-1.18,0.68-2.42,0.96-3.65c0.23-1.01,0.69-1.84,0.68-2.89C292.07,295.99,291.55,294.4,290.2,294.99z M289.76,299.88
			c-0.29,0.84-0.14,2.2-0.83,2.82c-0.69,0.61-1.23-0.02-1.93-0.21c-2.07-0.57-2.43,4.66-3.94,3.34c-0.3-0.26-0.59-0.53-0.89-0.8
			c-1.05,0.51-2.37,0.13-2.36-1.33c0-1.46,1.46-3.87,2.83-4.48c0.47-0.5,1.03-0.91,1.7-1.14c1.08-0.36,2.05-0.17,3.06-0.07
			c0.45-0.14,0.87-0.34,1.25-0.61c0.21-0.65,0.62-1.19,1.5-1.46c0.48-0.15,0.88,0.24,0.92,0.68c0.1,1.37-0.76,1.99-1.26,3.12
			C289.8,299.78,289.78,299.83,289.76,299.88z"/>
	</g>
</g>
</svg>
