<?xml version="1.0" encoding="iso-8859-1"?>
<!-- Generator: Adobe Illustrator 23.0.2, SVG Export Plug-In . SVG Version: 6.00 Build 0)  -->
<svg version="1.1" id="Layer_1" xmlns="http://www.w3.org/2000/svg" xmlns:xlink="http://www.w3.org/1999/xlink" x="0px" y="0px"
	 viewBox="0 0 595.276 841.89" style="enable-background:new 0 0 595.276 841.89;" xml:space="preserve">
<g>
	<path style="fill:#EC2227;" d="M176.263,324.831h-19.9v24.837h18.324c1.349,0,2.354,0.7,3.019,2.105
		c0.665,1.404,0.996,3.252,0.996,5.554s-0.327,4.174-0.981,5.622c-0.654,1.448-1.666,2.172-3.035,2.172h-18.324v28.766h20.584
		c1.388,0,2.434,0.748,3.139,2.243c0.704,1.495,1.056,3.485,1.056,5.966c0,2.393-0.352,4.336-1.056,5.828
		c-0.704,1.492-1.75,2.243-3.139,2.243h-24.004c-1.924,0-3.306-0.989-4.15-2.967s-1.264-5.175-1.264-9.59v-76.024
		c0-2.943,0.188-5.345,0.565-7.208c0.377-1.863,0.967-3.22,1.77-4.071c0.803-0.851,1.829-1.277,3.079-1.277h23.32
		c1.407,0,2.455,0.724,3.139,2.172c0.684,1.448,1.027,3.347,1.027,5.693c0,2.393-0.343,4.312-1.027,5.76
		C178.718,324.104,177.671,324.831,176.263,324.831z"/>
	<path style="fill:#EC2227;" d="M187.596,400.44v-81.681c0-3.771,0.362-6.623,1.085-8.554c0.723-1.931,1.701-2.896,2.93-2.896
		s2.221,0.954,2.975,2.864c0.754,1.91,1.131,4.771,1.131,8.589v81.681c0,3.818-0.382,6.682-1.145,8.589
		c-0.763,1.907-1.75,2.864-2.96,2.864c-1.19,0-2.156-0.989-2.9-2.967S187.596,404.119,187.596,400.44z"/>
	<path style="fill:#EC2227;" d="M226.771,378.225h-15.884c0.02,4.277,0.392,8.047,1.116,11.315c0.723,3.267,1.685,5.725,2.885,7.382
		s2.523,2.484,3.971,2.484c0.972,0,1.859-0.265,2.663-0.795c0.803-0.53,1.581-1.357,2.335-2.484c0.754-1.127,1.448-2.334,2.083-3.62
		c0.635-1.286,1.457-3.035,2.468-5.242c0.416-0.827,1.011-1.242,1.784-1.242c0.833,0,1.508,0.53,2.023,1.587
		s0.773,2.552,0.773,4.483c0,1.701-0.288,3.691-0.863,5.966s-1.443,4.462-2.603,6.555c-1.16,2.093-2.618,3.829-4.372,5.21
		c-1.754,1.38-3.773,2.069-6.054,2.069c-5.215,0-9.271-3.45-12.166-10.349s-4.343-16.257-4.343-28.078
		c0-5.566,0.357-10.729,1.071-15.489c0.715-4.76,1.755-8.842,3.123-12.245c1.368-3.402,3.054-6.014,5.056-7.829
		c2.003-1.816,4.224-2.726,6.663-2.726c3.173,0,5.895,1.551,8.166,4.656s3.971,7.117,5.102,12.039s1.696,9.934,1.696,15.038
		c0,4.736-0.585,7.806-1.755,9.21S228.893,378.225,226.771,378.225z M210.886,367.535h14.724c-0.198-6.44-0.947-11.256-2.246-14.452
		c-1.3-3.197-3.009-4.795-5.131-4.795c-2.023,0-3.683,1.622-4.983,4.863S211.164,361.186,210.886,367.535z"/>
	<path style="fill:#EC2227;" d="M246.045,347.045l6.574,42.771l7.079-44.635c0.556-3.588,1.1-6.128,1.636-7.624
		c0.536-1.495,1.349-2.243,2.439-2.243c1.032,0,1.909,0.804,2.632,2.414c0.723,1.61,1.085,3.473,1.085,5.587
		c0,0.827-0.065,1.793-0.193,2.896c-0.128,1.104-0.278,2.14-0.447,3.105c-0.169,0.965-0.362,2.069-0.58,3.311l-7.794,44.841
		c-0.218,1.289-0.501,2.92-0.848,4.898s-0.734,3.667-1.16,5.072c-0.426,1.404-0.952,2.496-1.576,3.276
		c-0.624,0.78-1.383,1.172-2.276,1.172c-1.15,0-2.067-0.609-2.751-1.828c-0.684-1.219-1.19-2.552-1.517-4
		c-0.326-1.448-0.877-4.312-1.651-8.589l-7.734-44.358c-0.179-1.104-0.362-2.208-0.551-3.311s-0.346-2.231-0.476-3.379
		s-0.193-2.14-0.193-2.967c0-1.289,0.169-2.564,0.505-3.83c0.336-1.266,0.803-2.299,1.399-3.105c0.595-0.806,1.24-1.207,1.933-1.207
		c1.349,0,2.276,0.898,2.781,2.69C244.867,339.796,245.43,342.813,246.045,347.045z"/>
	<path style="fill:#EC2227;" d="M295.987,378.225h-15.884c0.02,4.277,0.392,8.047,1.116,11.315c0.723,3.267,1.685,5.725,2.885,7.382
		s2.523,2.484,3.971,2.484c0.972,0,1.859-0.265,2.663-0.795c0.803-0.53,1.581-1.357,2.335-2.484c0.754-1.127,1.448-2.334,2.083-3.62
		c0.635-1.286,1.457-3.035,2.468-5.242c0.416-0.827,1.011-1.242,1.784-1.242c0.833,0,1.508,0.53,2.023,1.587
		c0.515,1.057,0.773,2.552,0.773,4.483c0,1.701-0.288,3.691-0.863,5.966s-1.443,4.462-2.603,6.555
		c-1.16,2.093-2.618,3.829-4.372,5.21s-3.773,2.069-6.054,2.069c-5.215,0-9.271-3.45-12.166-10.349s-4.343-16.257-4.343-28.078
		c0-5.566,0.357-10.729,1.071-15.489s1.755-8.842,3.123-12.245c1.368-3.402,3.054-6.014,5.056-7.829s4.224-2.726,6.663-2.726
		c3.173,0,5.895,1.551,8.166,4.656s3.971,7.117,5.102,12.039c1.131,4.921,1.696,9.934,1.696,15.038c0,4.736-0.585,7.806-1.755,9.21
		S298.109,378.225,295.987,378.225z M280.104,367.535h14.724c-0.198-6.44-0.947-11.256-2.246-14.452
		c-1.3-3.197-3.009-4.795-5.131-4.795c-2.023,0-3.683,1.622-4.983,4.863C281.168,356.391,280.38,361.186,280.104,367.535z"/>
	<path style="fill:#EC2227;" d="M316.898,345.733v2.275c1.428-4.368,2.989-7.576,4.684-9.625s3.644-3.07,5.844-3.07
		c2.142,0,4.055,1.08,5.74,3.244c1.685,2.163,2.944,5.219,3.778,9.175c0.536,2.299,0.882,4.783,1.041,7.45
		c0.159,2.667,0.239,6.072,0.239,10.211v35.045c0,3.771-0.372,6.623-1.116,8.554c-0.744,1.931-1.711,2.896-2.9,2.896
		c-1.21,0-2.192-0.989-2.944-2.967c-0.753-1.978-1.131-4.807-1.131-8.486v-31.389c0-6.208-0.372-10.959-1.116-14.246
		c-0.744-3.288-2.226-4.933-4.447-4.933c-1.448,0-2.767,1.001-3.956,3.002c-1.189,2.002-2.062,4.748-2.618,8.245
		c-0.397,2.805-0.595,8.047-0.595,15.73v23.595c0,3.818-0.382,6.682-1.145,8.589s-1.75,2.864-2.96,2.864
		c-1.17,0-2.132-0.989-2.885-2.967s-1.131-4.807-1.131-8.486v-54.43c0-3.588,0.338-6.267,1.012-8.036
		c0.674-1.769,1.597-2.655,2.767-2.655c0.715,0,1.358,0.391,1.933,1.172s1.036,1.954,1.383,3.517S316.898,343.481,316.898,345.733z"
		/>
</g>
</svg>
