<?xml version="1.0" encoding="iso-8859-1"?>
<!-- Generator: Adobe Illustrator 23.0.2, SVG Export Plug-In . SVG Version: 6.00 Build 0)  -->
<svg version="1.1" id="Layer_1" xmlns="http://www.w3.org/2000/svg" xmlns:xlink="http://www.w3.org/1999/xlink" x="0px" y="0px"
	 viewBox="0 0 595.276 841.89" style="enable-background:new 0 0 595.276 841.89;" xml:space="preserve">
<g>
	<path style="fill:#EC2227;" d="M177.242,310.017c4.141-2.944,8.583-8.076,13.318-15.38c2.291-3.589,4.439-6.665,6.436-9.228
		c1.996-2.563,4.457-3.847,7.381-3.847c2.922,0,5.419,0.9,7.491,2.692c-1.778,24.356-2.663,47.171-2.663,68.447
		c0,21.283,0.665,39.608,1.996,54.994c-2.073,1.537-4.475,2.304-7.215,2.304c-2.737,0-4.958-1.537-6.658-4.612
		c-1.702-3.078-2.551-7.211-2.551-12.402c0-5.192,0.591-16.118,1.776-32.785c1.181-16.658,1.812-34.732,1.886-54.221
		c-0.815,1.285-2.183,3.844-4.105,7.692c-4.291,8.588-7.641,12.883-10.044,12.883c-2.405,0-4.181-1.537-5.329-4.615
		C177.815,318.863,177.242,314.893,177.242,310.017z"/>
</g>
<g>
	<path style="fill:#EC2227;" d="M240.197,310.017c4.522-2.944,9.37-8.076,14.54-15.38c2.501-3.589,4.846-6.665,7.027-9.228
		s4.866-3.847,8.058-3.847c3.19,0,5.915,0.9,8.178,2.692c-1.94,24.356-2.908,47.171-2.908,68.447
		c0,21.283,0.727,39.608,2.181,54.994c-2.261,1.537-4.886,2.304-7.876,2.304c-2.988,0-5.413-1.537-7.269-4.612
		c-1.858-3.078-2.785-7.211-2.785-12.402c0-5.192,0.645-16.118,1.938-32.785c1.29-16.658,1.978-34.732,2.059-54.221
		c-0.891,1.285-2.383,3.844-4.482,7.692c-4.686,8.588-8.342,12.883-10.965,12.883c-2.627,0-4.566-1.537-5.817-4.615
		C240.824,318.863,240.197,314.893,240.197,310.017z"/>
</g>
</svg>
