<?xml version="1.0" encoding="iso-8859-1"?>
<!-- Generator: Adobe Illustrator 23.0.2, SVG Export Plug-In . SVG Version: 6.00 Build 0)  -->
<svg version="1.1" id="Layer_1" xmlns="http://www.w3.org/2000/svg" xmlns:xlink="http://www.w3.org/1999/xlink" x="0px" y="0px"
	 viewBox="0 0 595.276 841.89" style="enable-background:new 0 0 595.276 841.89;" xml:space="preserve">
<g>
	<path style="fill:#1099A0;" d="M237.362,296.38c1.384-1.065,2.843-1.607,4.383-1.607c1.531,0,2.791,0.736,3.762,2.209
		c0.974,1.479,1.459,3.262,1.459,5.339c0,2.081-0.195,6.656-0.583,13.735c-0.389,7.082-0.583,12.705-0.583,16.856
		c0,13.353,0.389,24.456,1.167,33.314c-1.384,0.808-2.929,1.206-4.639,1.206c-1.71,0-3.043-0.433-3.994-1.301
		c-2.767-2.482-9.244-18.189-19.408-47.105c-0.179,2.616-0.264,8.746-0.264,18.365c0,9.628,0.475,19.037,1.43,28.232
		c-1.344,0.808-2.791,1.206-4.349,1.206c-1.56,0-2.83-0.771-3.804-2.313c-0.971-1.542-1.456-3.387-1.456-5.531
		c0-2.148,0.205-6.644,0.616-13.49c0.412-6.846,0.616-12.008,0.616-15.497c0-13.358-0.412-24.419-1.234-33.21
		c1.213-0.94,2.986-1.41,5.325-1.41c2.338,0,3.981,1.447,4.929,4.327c6.409,20.201,12.53,37.307,18.374,51.327
		c-0.13-12.888-0.195-19.697-0.195-20.424C238.916,318.061,238.398,306.648,237.362,296.38z"/>
	<path style="fill:#1099A0;" d="M263.98,365.622c-1.391,0.808-2.861,1.206-4.416,1.206c-1.557,0-2.913-0.771-4.056-2.313
		c-1.151-1.542-1.723-3.651-1.723-6.339c0-2.688,0.217-7.83,0.648-15.446c0.435-7.621,0.651-13.703,0.651-18.271
		c0-11.737-0.456-21.032-1.36-27.878c1.379-0.803,2.856-1.204,4.416-1.204c1.557,0,2.904,0.771,4.056,2.313
		c1.146,1.542,1.723,3.656,1.723,6.343c0,2.683-0.217,7.837-0.652,15.446c-0.435,7.617-0.653,13.698-0.653,18.266
		C262.611,349.486,263.07,358.776,263.98,365.622z"/>
	<path style="fill:#1099A0;" d="M298.646,296.38c1.389-1.065,2.847-1.607,4.387-1.607c1.531,0,2.791,0.736,3.762,2.209
		c0.971,1.479,1.459,3.262,1.459,5.339c0,2.081-0.195,6.656-0.583,13.735c-0.389,7.082-0.583,12.705-0.583,16.856
		c0,13.353,0.389,24.456,1.167,33.314c-1.384,0.808-2.936,1.206-4.646,1.206c-1.703,0-3.037-0.433-3.986-1.301
		c-2.776-2.482-9.244-18.189-19.415-47.105c-0.17,2.616-0.256,8.746-0.256,18.365c0,9.628,0.475,19.037,1.423,28.232
		c-1.337,0.808-2.791,1.206-4.346,1.206c-1.557,0-2.827-0.771-3.8-2.313s-1.459-3.387-1.459-5.531c0-2.148,0.202-6.644,0.619-13.49
		C272.793,338.651,273,333.489,273,330c0-13.358-0.412-24.419-1.231-33.21c1.207-0.94,2.989-1.41,5.326-1.41
		c2.335,0,3.984,1.447,4.932,4.327c6.406,20.201,12.532,37.307,18.374,51.327c-0.133-12.888-0.194-19.697-0.194-20.424
		C300.206,318.061,299.685,306.648,298.646,296.38z"/>
	<path style="fill:#1099A0;" d="M344.287,352.94c0.521,1.813,0.778,3.862,0.778,6.137s-0.508,4.246-1.526,5.89
		c-1.018,1.639-2.26,2.463-3.729,2.463c-4.589,0-11.773-0.398-21.556-1.206c-0.778-0.06-1.474-0.454-2.081-1.16
		c-0.602-0.704-0.91-1.586-0.91-2.66c0-3.556,0.189-9.568,0.555-18.02c0.366-8.448,0.555-16.349,0.555-23.702
		c0-7.343-0.456-15.784-1.366-25.308c3.203,0.401,7.51,0.602,12.921,0.602s10.584-0.602,15.513-1.808
		c0.521,1.482,0.781,3.239,0.781,5.285c0,2.044-0.511,3.857-1.523,5.436c-1.015,1.567-2.275,2.359-3.768,2.359
		c-1.487,0-3.874-0.338-7.14-1.005c-3.273-0.671-5.68-1.009-7.236-1.009c-0.35,6.781-0.545,13.147-0.591,19.125
		c2.729,0.398,5.666,0.602,8.803,0.602c3.136,0,5.83-0.706,8.084-2.116c0.516,1.477,0.779,3.234,0.779,5.283
		s-0.516,3.892-1.529,5.535c-1.018,1.646-2.231,2.47-3.638,2.47s-3.493-0.426-6.264-1.257c-2.767-0.843-4.868-1.257-6.298-1.257
		c0,10.594,0.156,18.379,0.452,23.347c2.083,0.264,3.704,0.398,4.875,0.398C334.939,357.369,339.957,355.894,344.287,352.94z"/>
</g>
</svg>
