<?xml version="1.0" encoding="iso-8859-1"?>
<!-- Generator: Adobe Illustrator 23.0.2, SVG Export Plug-In . SVG Version: 6.00 Build 0)  -->
<svg version="1.1" id="Layer_1" xmlns="http://www.w3.org/2000/svg" xmlns:xlink="http://www.w3.org/1999/xlink" x="0px" y="0px"
	 viewBox="0 0 595.276 841.89" style="enable-background:new 0 0 595.276 841.89;" xml:space="preserve">
<g>
	<path style="fill:#1099A0;" d="M252.051,280.191c-10.361,7.161-22.038,10.735-34.995,10.735c-12.949,0-23.126-2.848-30.51-8.544
		c-7.409-5.693-11.091-13.572-11.091-23.639c0-12.711,5.512-23.514,16.575-32.38c11.039-8.873,24.465-13.308,40.238-13.308
		c15.781,0,28.007,4.86,36.708,14.591c8.681,9.742,13.025,21.927,13.025,36.561c0,14.634-2.471,27.977-7.437,40.02
		c-4.946,12.061-12.788,22.185-23.551,30.404c-10.742,8.208-23.282,12.315-37.607,12.315c-9.607,0-17.879-1.823-24.81-5.464
		c-6.936-3.645-10.397-8.973-10.397-15.999c0-5.028,2.09-9.066,6.286-12.111c4.192-3.045,8.693-4.578,13.482-4.578
		c4.802,0,8.428,0.329,10.871,1.004c-1.071,2.641-1.605,5.228-1.605,7.744c0,7.144,4.489,10.721,13.49,10.721
		c5.796,0,10.819-1.487,15.087-4.463c4.268-2.984,7.549-6.918,9.836-11.825C249.909,302.308,252.051,291.72,252.051,280.191z
		 M252.272,263.306c0-9.263-1.986-16.849-5.937-22.739c-3.975-5.904-10.369-8.841-19.206-8.841c-5.64,0-11.063,1.519-16.246,4.571
		c-3.354,4.899-5.026,10.331-5.026,16.288c0,5.954,1.669,10.921,5.026,14.887c3.354,3.981,8.003,5.971,13.96,5.971
		C234.89,273.444,244.048,270.064,252.272,263.306z"/>
</g>
</svg>
