<?xml version="1.0" encoding="iso-8859-1"?>
<!-- Generator: Adobe Illustrator 23.0.2, SVG Export Plug-In . SVG Version: 6.00 Build 0)  -->
<svg version="1.1" id="Layer_1" xmlns="http://www.w3.org/2000/svg" xmlns:xlink="http://www.w3.org/1999/xlink" x="0px" y="0px"
	 viewBox="0 0 595.276 841.89" style="enable-background:new 0 0 595.276 841.89;" xml:space="preserve">
<g>
	<path style="fill:#32BEC0;" d="M355.302,473.042c0,12.703-10.562,23.003-23.589,23.003H164.286
		c-13.026,0-23.588-10.3-23.588-23.003V245.047c0-12.703,10.562-23.002,23.588-23.002h167.426c13.028,0,23.589,10.298,23.589,23.002
		V473.042z"/>
	<path style="fill:#FFFFFF;" d="M345.526,467.64c0,10.165-8.453,18.404-18.873,18.404H169.35c-10.425,0-18.873-8.239-18.873-18.404
		V250.45c0-10.165,8.448-18.404,18.873-18.404h157.304c10.419,0,18.873,8.239,18.873,18.404V467.64z"/>
</g>
<g>
	<path style="fill:#1099A0;" d="M180.873,445.574c0.95-0.46,1.952-0.694,3.009-0.694c1.051,0,1.916,0.318,2.583,0.954
		c0.669,0.639,1.002,1.409,1.002,2.306c0,0.899-0.134,2.875-0.4,5.933c-0.267,3.059-0.4,5.488-0.4,7.281
		c0,5.768,0.267,10.564,0.801,14.39c-0.95,0.349-2.011,0.521-3.185,0.521c-1.174,0-2.089-0.187-2.742-0.562
		c-1.9-1.072-6.347-7.857-13.325-20.347c-0.123,1.13-0.181,3.778-0.181,7.933c0,4.159,0.326,8.223,0.982,12.195
		c-0.923,0.349-1.916,0.521-2.986,0.521c-1.071,0-1.943-0.333-2.612-0.999c-0.667-0.666-1-1.463-1-2.389
		c0-0.928,0.141-2.87,0.423-5.827c0.283-2.957,0.423-5.187,0.423-6.694c0-5.77-0.283-10.548-0.847-14.345
		c0.833-0.406,2.05-0.609,3.656-0.609c1.605,0,2.733,0.625,3.384,1.869c4.4,8.726,8.603,16.115,12.615,22.171
		c-0.089-5.567-0.134-8.508-0.134-8.822C181.94,454.939,181.584,450.009,180.873,445.574z"/>
	<path style="fill:#1099A0;" d="M199.148,475.483c-0.955,0.349-1.964,0.521-3.032,0.521c-1.069,0-2-0.333-2.785-0.999
		c-0.79-0.666-1.183-1.577-1.183-2.738c0-1.161,0.149-3.382,0.445-6.672c0.299-3.292,0.447-5.919,0.447-7.892
		c0-5.07-0.313-9.085-0.934-12.042c0.947-0.347,1.961-0.52,3.032-0.52c1.069,0,1.994,0.333,2.785,0.999
		c0.787,0.666,1.183,1.579,1.183,2.74c0,1.159-0.149,3.385-0.448,6.672c-0.299,3.29-0.448,5.917-0.448,7.89
		C198.208,468.513,198.523,472.526,199.148,475.483z"/>
	<path style="fill:#1099A0;" d="M222.949,445.574c0.954-0.46,1.955-0.694,3.012-0.694c1.051,0,1.916,0.318,2.583,0.954
		c0.667,0.639,1.002,1.409,1.002,2.306c0,0.899-0.134,2.875-0.4,5.933c-0.267,3.059-0.4,5.488-0.4,7.281
		c0,5.768,0.267,10.564,0.801,14.39c-0.95,0.349-2.016,0.521-3.19,0.521c-1.169,0-2.085-0.187-2.737-0.562
		c-1.906-1.072-6.347-7.857-13.33-20.347c-0.117,1.13-0.176,3.778-0.176,7.933c0,4.159,0.326,8.223,0.977,12.195
		c-0.918,0.349-1.916,0.521-2.984,0.521c-1.069,0-1.941-0.333-2.609-0.999s-1.002-1.463-1.002-2.389c0-0.928,0.139-2.87,0.425-5.827
		c0.278-2.957,0.42-5.187,0.42-6.694c0-5.77-0.283-10.548-0.845-14.345c0.829-0.406,2.052-0.609,3.657-0.609
		c1.603,0,2.735,0.625,3.386,1.869c4.398,8.726,8.604,16.115,12.615,22.171c-0.091-5.567-0.133-8.508-0.133-8.822
		C224.02,454.939,223.662,450.009,222.949,445.574z"/>
	<path style="fill:#1099A0;" d="M254.285,470.005c0.358,0.783,0.534,1.668,0.534,2.651s-0.349,1.834-1.048,2.544
		c-0.699,0.708-1.552,1.064-2.56,1.064c-3.151,0-8.083-0.172-14.8-0.521c-0.534-0.026-1.012-0.196-1.429-0.501
		c-0.413-0.304-0.625-0.685-0.625-1.149c0-1.536,0.13-4.133,0.381-7.784c0.251-3.649,0.381-7.062,0.381-10.238
		c0-3.172-0.313-6.818-0.938-10.932c2.199,0.173,5.156,0.26,8.871,0.26c3.715,0,7.267-0.26,10.651-0.781
		c0.358,0.64,0.536,1.399,0.536,2.283c0,0.883-0.351,1.666-1.046,2.348c-0.697,0.677-1.562,1.019-2.587,1.019
		c-1.021,0-2.66-0.146-4.902-0.434c-2.247-0.29-3.9-0.436-4.968-0.436c-0.24,2.929-0.374,5.679-0.406,8.261
		c1.874,0.172,3.89,0.26,6.044,0.26c2.153,0,4.003-0.305,5.55-0.914c0.354,0.638,0.535,1.397,0.535,2.282
		c0,0.885-0.354,1.681-1.05,2.391c-0.699,0.711-1.532,1.067-2.498,1.067c-0.966,0-2.398-0.184-4.301-0.543
		c-1.9-0.364-3.342-0.543-4.324-0.543c0,4.576,0.107,7.939,0.31,10.085c1.43,0.114,2.543,0.172,3.347,0.172
		C247.867,471.918,251.312,471.281,254.285,470.005z"/>
</g>
<g>
	<path style="fill:#1099A0;" d="M179.549,260.211c-2.583,2.004-5.494,3.004-8.724,3.004c-3.228,0-5.765-0.797-7.606-2.391
		c-1.847-1.593-2.765-3.798-2.765-6.615c0-3.557,1.374-6.58,4.132-9.061c2.752-2.483,6.099-3.724,10.031-3.724
		c3.934,0,6.982,1.36,9.151,4.083c2.164,2.726,3.247,6.136,3.247,10.231c0,4.095-0.616,7.829-1.854,11.199
		c-1.233,3.375-3.188,6.208-5.871,8.508c-2.678,2.297-5.804,3.446-9.375,3.446c-2.395,0-4.457-0.51-6.185-1.529
		c-1.729-1.02-2.592-2.511-2.592-4.477c0-1.407,0.521-2.537,1.567-3.389c1.045-0.852,2.167-1.281,3.361-1.281
		c1.197,0,2.101,0.092,2.71,0.281c-0.267,0.739-0.4,1.463-0.4,2.167c0,1.999,1.119,3,3.363,3c1.445,0,2.697-0.416,3.761-1.249
		c1.064-0.835,1.882-1.936,2.452-3.309C179.015,266.4,179.549,263.437,179.549,260.211z M179.604,255.486
		c0-2.592-0.495-4.715-1.48-6.363c-0.991-1.652-2.585-2.474-4.788-2.474c-1.406,0-2.758,0.425-4.05,1.279
		c-0.836,1.371-1.253,2.891-1.253,4.558c0,1.666,0.416,3.056,1.253,4.166c0.836,1.114,1.995,1.671,3.48,1.671
		C175.271,258.323,177.554,257.377,179.604,255.486z"/>
</g>
<g>
	<g>
		<path style="fill:#E54E25;" d="M215.588,257.524c-4.131,9.412-1.591,24.385,10.204,31.107c13.311,7.586,30.319,1.065,36.05-13.258
			c4.209-10.52,2.618-20.4-6.518-27.993C243.296,237.383,221.785,243.41,215.588,257.524z"/>
		<path style="opacity:0.52;fill:#F6941E;" d="M217.627,269.185c1.292,5.798,4.308,10.661,10.699,11.674
			c4.414,0.698,9.163-0.993,12.287-4.103c2.961-2.948,3.663-7.735,3.306-11.685c-0.189-2.105-0.558-4.425-1.775-6.238
			c-2.043-3.041-6.412-5.173-9.926-6.167C221.709,249.691,215.673,260.412,217.627,269.185z"/>
		<path style="fill:#DB3A26;" d="M255.324,247.381c-1.446-1.203-3.031-2.172-4.712-2.925c-4.748,1.116-9.056,3.355-13.087,6.056
			c10.608,2.102,9.985,17.231,7.075,25.153c-2.183,5.938-6.621,12.047-13.485,12.889c-2.43,0.298-4.774-0.115-6.983-0.973
			c0.531,0.368,1.082,0.721,1.66,1.051c13.311,7.586,30.319,1.065,36.05-13.258C266.051,264.853,264.461,254.973,255.324,247.381z"
			/>
		<path style="fill:#CD2E27;" d="M241.002,286.417c-2.456,1.443-5.155,2.939-7.989,3.61c0.208-0.048,11.625,2.386,21.882-6.494
			c4.49-3.886,12.938-18.256,3.194-29.756c-3.533-4.169-9.903-7.273-15.668-4.62c-0.435,0.2-0.861,0.278-1.264,0.264
			c2.522,1.015,5.176,1.897,7.155,3.786c2.285,2.184,3.596,5.177,4.08,8.239c0.979,6.2,0.105,12.939-3.824,18.091
			C246.488,282.262,244.003,284.657,241.002,286.417z"/>
		<path style="opacity:0.33;fill:#F6941E;" d="M255.324,247.381c-12.029-9.998-33.54-3.971-39.736,10.143
			c-4.131,9.412-1.591,24.385,10.204,31.107c0.049,0.028,0.099,0.055,0.15,0.083c-0.305-0.283-10.712-5.912-11.087-21.572
			c-0.105-4.397,1.801-9.711,4.241-13.365c2.667-3.995,7.563-7.705,13.226-9.394c2.304-0.687,13.887-2.011,22.323,3.431
			c6.737,4.345,9.041,13.532,9.349,15.334C263.564,257.307,260.801,251.933,255.324,247.381z"/>
		<path style="opacity:0.43;fill:#F6941E;" d="M255.324,247.381c-10.662-8.862-28.774-5.133-37.066,5.658
			c0.287,1.482,0.818,2.983,1.151,4.501c0.43,1.962,0.538,4.262,1.997,5.922c1.688,1.921,3.932,1.208,6.007,2.12
			c4.208,1.851,6.911,4.741,12.133,2.791c3.524-1.315,7.617-2.937,10.866-4.745c4.218-2.346,7.648-8.502,7.676-13.633
			C257.256,249.097,256.341,248.224,255.324,247.381z"/>
		<g>
			<path style="fill:#A3C93A;" d="M232.2,259.391c0.761,0.37,1.971,1.42,2.694,1.605c1.06,0.269,1.977-0.517,2.959-0.799
				c2.176-0.625,4.645-0.033,6.49-1.662c1.435-1.267,2.871-4.42,1.719-6.154c2.001-0.457,4.249-0.831,5.149-2.924
				c0.783-1.825,0.037-4.008-0.48-5.804c-0.852-0.14-1.665,0.26-2.473,0.091c-0.797-0.168-1.458-0.818-2.315-0.955
				c-1.942-0.312-2.899,0.431-4.524-0.636c-3.366-2.213-5.12-1.055-8.741-0.395c0.568,1.243-0.442,1.618-1.245,2.358
				c-1.024,0.944-1.099,1.543-1.492,2.762c-2.556,0.495-5.084,1.252-6.788,3.347c1.935,0.419,2.462,2.412,3.742,3.794
				c1.538,1.662,2.952,1.18,4.822,0.525c-0.312,0.109-1.266,1.965-1.292,2.333C230.352,257.925,231.295,258.951,232.2,259.391z"/>
			<path style="fill:#B4D334;" d="M224.749,250.197c-0.139-0.128-0.134-0.357,0-0.485c0.706-0.682,1.542-1.223,2.44-1.642
				c0.772-0.358,1.526-0.319,2.325-0.558c1.453-0.437,1.396-1.986,1.782-3.26c-0.885,0.867-0.982,1.469-1.355,2.626
				c-2.556,0.495-5.084,1.252-6.788,3.347c1.935,0.419,2.462,2.412,3.742,3.794c1.073,1.158,2.085,1.273,3.234,1.016
				C228.036,254.687,225.976,251.321,224.749,250.197z"/>
			<path style="fill:#B4D334;" d="M250.73,243.653c-0.852-0.14-1.665,0.26-2.473,0.091c-0.797-0.168-1.458-0.818-2.315-0.955
				c-1.942-0.312-2.899,0.431-4.524-0.636c-3.366-2.213-5.12-1.055-8.741-0.395c0.239,0.522,0.197,0.891,0.011,1.197
				c2.234-1.749,5.341-2.072,8.032-1.03c0.614,0.24,1.053,0.752,1.648,1.011c1.094,0.478,2.084-0.003,3.167,0.222
				c1.334,0.276,3.022,2.275,4.388,1.496c0.211-0.119,0.433,0.002,0.515,0.205c1.343,3.374-1.528,5.305-3.756,7.382
				c1.827-0.412,3.72-0.905,4.529-2.785C251.994,247.632,251.247,245.449,250.73,243.653z"/>
			<path style="fill:#B4D334;" d="M232.867,258.09c0.236-0.058,0.416-0.166,0.69-0.134c0.455,0.051,0.811,0.453,1.307,0.39
				c0.495-0.065,0.568-0.491,0.908-0.746c0.51-0.38,0.914-0.291,1.533-0.366c0.609-0.074,1.334-0.566,1.913-0.571
				c0.695-0.008,0.96,0.613,1.568,0.821c0.671,0.23,1.084-0.225,1.561-0.595c0.511-0.397,1.24-0.541,1.665-0.941
				c0.429-0.406,2.31-1.457,1.119-2.069c-1-0.514-1.413,1.059-2.129,1.237c-0.856,0.211-1.149-0.512-1.997,0.284
				c-0.716,0.671-1.083,0.677-2.016,0.734c-1.541,0.092-3.331,1.049-4.829,0.347c-0.928-0.434-3.413-0.466-3.321,1.058
				c0.413,0.663,1.165,0.663,1.865,0.583C232.761,258.114,232.814,258.104,232.867,258.09z"/>
			<path style="fill:#92B33D;" d="M239.714,242.266c-0.949-0.212-1.449,0.365-2.299,0.698c-0.547,0.215-1.053,0.272-1.59,0.374
				c-1.11,0.208-2.561,0.303-3.504,1.044c-0.56,0.44-1.872,2.676-0.518,2.963c-1.558-0.01-1.443,0.593-2.29,1.61
				c-0.587,0.705-2.023,0.903-2.853,1.312c0.005,0.026,0.002,0.179-0.001,0.206c1.117,0.482,1.79,1.485,2.6,2.321
				c0.482,0.496,1.327,0.805,1.953,1.08c-0.018,0.559-0.396,0.857-0.85,1.103c0.428-0.113,0.877-0.268,1.354-0.435
				c-0.312,0.109-1.266,1.965-1.292,2.333c-0.001,0.009,0,0.018,0,0.026c0.592-0.514,1.185-1.143,1.526-1.253
				c0.822-0.269,1.617,0.255,2.344,0.48c2.609,0.808,5.473-0.973,7.639-2.238c1.381-0.806,2.946-0.51,4.529-0.305
				c-0.043-0.442-0.166-0.855-0.399-1.207c0.095-0.022,0.192-0.043,0.29-0.065c-1.152-0.652-1.828-1.571-0.655-3.107
				c0.742-0.969,1.752-1.816,0.834-3.029c-0.841-1.111-2.241-0.838-3.489-0.621c-1.05,0.183-3.4,0.96-2.207-0.947
				c0.504-0.805,1.215-1.39,1.992-1.899c-0.232-0.034-0.468-0.097-0.717-0.196C241.169,242.661,240.587,242.46,239.714,242.266z"/>
			<path style="fill:#92B33D;" d="M246.215,255.493c-0.204,0.233-0.403,0.469-0.61,0.633c-0.562,0.448-1.122,0.783-1.77,1.109
				c-1.153,0.58-2.362,1.282-3.742,1.007c-0.604-0.122-1.023-0.511-1.663-0.555c-0.765-0.052-0.979,0.231-1.495,0.628
				c-1.036,0.795-2.025,0.949-3.359,0.813c-0.623-0.063-1.174,0.022-1.794-0.145c-0.123-0.033-0.243-0.074-0.36-0.118
				c0.245,0.217,0.513,0.397,0.778,0.526c0.761,0.37,1.971,1.42,2.694,1.605c1.06,0.269,1.977-0.517,2.959-0.799
				c2.176-0.625,4.645-0.033,6.49-1.662C245.089,257.877,245.832,256.707,246.215,255.493z"/>
			<path style="fill:#9F9D36;" d="M231.168,251.036c0.104,2.276,1.323,3.187,3.789,3.456c1.407,0.152,2.674-0.036,3.973-0.34
				c2.383-0.554,5.401-2.585,4.566-5.224c-0.482-1.521-1.898-2.681-3.655-2.854c-0.607-0.059-1.279-0.03-1.89-0.012
				C234.702,246.159,231.003,247.461,231.168,251.036z"/>
			<path style="fill:#928130;" d="M243.496,248.93c-0.482-1.521-1.898-2.681-3.655-2.854c-0.607-0.059-1.279-0.03-1.89-0.012
				c-3.249,0.095-6.948,1.397-6.783,4.972c0.104,2.276,1.323,3.187,3.789,3.456c1.407,0.152,2.674-0.036,3.973-0.34
				C241.314,253.599,244.332,251.569,243.496,248.93z M239.104,251.831c-1.661,0.594-3.767,0.953-5.512,0.559
				c-0.853-0.193-1.835-0.624-1.867-1.546c-0.072-2.146,2.23-3.613,4.121-4.09c1.744-0.44,3.867-0.467,5.545,0.227
				c1.215,0.503,1.287,1.551,0.853,2.641C241.787,250.777,240.263,251.418,239.104,251.831z"/>
			<g>
				<path style="fill:#7A5A24;" d="M237.34,246.967c-0.634-0.644-1.359-1.461-2.289-1.677c-0.884-0.206-1.785,0.518-1.556,1.439
					c0.104,0.418,0.634,0.413,0.945,0.601c0.366,0.223,0.682,0.596,0.846,0.983c0.223,0.519-0.108,1.085,0.266,1.555
					c0.652,0.823,2.462,0.33,2.83-0.555C238.732,248.471,237.887,247.522,237.34,246.967z"/>
				<path style="fill:#5B4319;" d="M233.463,246.491c0.991-0.391,2.133-0.418,2.859,0.447c0.428,0.509,0.785,1.176,0.542,1.854
					c-0.228,0.635-0.754,0.953-1.356,1c0.016,0.025,0.025,0.051,0.046,0.076c0.652,0.823,2.462,0.33,2.83-0.555
					c0.349-0.842-0.496-1.791-1.042-2.346c-0.634-0.644-1.359-1.461-2.289-1.677C234.246,245.1,233.427,245.689,233.463,246.491z"/>
				<path style="fill:#A0762B;" d="M235.033,246.243c0.141-0.217,0.374-0.549,0.115-0.774c-0.095-0.082-0.202-0.15-0.313-0.21
					c-0.807-0.055-1.55,0.625-1.34,1.469c0.012,0.049,0.032,0.092,0.054,0.129C234.134,246.961,234.669,246.807,235.033,246.243z"/>
				<path style="fill:#B6862F;" d="M235.149,245.469c-0.095-0.082-0.202-0.15-0.313-0.21c-0.169-0.012-0.332,0.016-0.486,0.063
					c0.101-0.01,0.204-0.015,0.308-0.015c0.178,0,0.369,0.157,0.351,0.343c-0.015,0.152-0.075,0.291-0.161,0.415
					c-0.169,0.376-0.54,0.645-0.986,0.665c-0.132,0.006-0.266-0.026-0.376-0.091c0.005,0.03,0.003,0.058,0.011,0.089
					c0.012,0.049,0.032,0.092,0.054,0.129c0.584,0.104,1.119-0.05,1.484-0.614C235.174,246.026,235.407,245.695,235.149,245.469z"/>
			</g>
			<path style="fill:#928130;" d="M234.389,250.364c-0.014-0.017-0.028-0.033-0.041-0.049c-0.235-0.288-0.343-0.832-0.253-1.188
				c0.106-0.418,0.491-0.68,0.688-1.051c-1.268-0.062-2.451,1.799-1.577,2.803c0.86,0.989,2.836,0.854,4.015,0.565
				c1.045-0.256,5.375-1.334,4.358-3.124c-0.187-0.328-0.71-0.504-1.076-0.507c-0.636-0.003,0.136,0.391,0.054,0.79
				c-0.107,0.524-0.833,0.985-1.223,1.319c-0.433,0.371-1.121,0.506-1.664,0.672C236.671,250.901,235.183,251.279,234.389,250.364z"
				/>
		</g>
		<path style="opacity:0.43;fill:#FAA432;" d="M223.46,267.525c2.642,1.446,7.85,3.7,9.535,0.373
			c2.279-4.496-3.126-11.144-7.561-12.119C217.834,254.107,218.651,264.891,223.46,267.525z"/>
		<path style="opacity:0.43;fill:#FCB432;" d="M229.147,263.309c0.572-1.084,0.486-2.095,0.005-2.949
			c-1.066-1.894-6.931-4.432-7.204-0.891C221.753,262.002,227.474,266.477,229.147,263.309z"/>
	</g>
	<g>
		<path style="fill:#E54E25;" d="M288.92,257.071c-4.131,9.412-1.591,24.385,10.204,31.108c13.311,7.586,30.319,1.065,36.05-13.258
			c4.209-10.52,2.619-20.4-6.518-27.993C316.627,236.93,295.117,242.957,288.92,257.071z"/>
		<path style="opacity:0.52;fill:#F6941E;" d="M290.958,268.732c1.292,5.798,4.308,10.661,10.699,11.674
			c4.414,0.698,9.163-0.993,12.287-4.104c2.961-2.948,3.663-7.735,3.306-11.685c-0.189-2.105-0.558-4.425-1.775-6.238
			c-2.043-3.041-6.412-5.173-9.926-6.167C295.041,249.238,289.005,259.959,290.958,268.732z"/>
		<path style="fill:#DB3A26;" d="M328.656,246.928c-1.446-1.203-3.031-2.172-4.712-2.925c-4.748,1.117-9.056,3.355-13.087,6.056
			c10.608,2.102,9.985,17.231,7.075,25.153c-2.183,5.938-6.621,12.047-13.485,12.889c-2.43,0.298-4.774-0.115-6.984-0.973
			c0.532,0.368,1.082,0.721,1.66,1.051c13.311,7.586,30.319,1.065,36.05-13.258C339.383,264.4,337.793,254.52,328.656,246.928z"/>
		<path style="fill:#CD2E27;" d="M314.333,285.964c-2.456,1.443-5.155,2.939-7.989,3.61c0.208-0.049,11.625,2.386,21.882-6.494
			c4.49-3.886,12.938-18.256,3.194-29.756c-3.533-4.169-9.903-7.273-15.668-4.62c-0.435,0.2-0.861,0.278-1.264,0.264
			c2.522,1.015,5.177,1.897,7.155,3.786c2.285,2.184,3.596,5.177,4.08,8.239c0.979,6.2,0.105,12.939-3.824,18.091
			C319.82,281.809,317.334,284.204,314.333,285.964z"/>
		<path style="opacity:0.33;fill:#F6941E;" d="M328.656,246.928c-12.029-9.998-33.54-3.971-39.736,10.143
			c-4.131,9.412-1.591,24.385,10.204,31.108c0.049,0.028,0.099,0.055,0.15,0.083c-0.305-0.283-10.712-5.911-11.087-21.572
			c-0.105-4.397,1.801-9.711,4.241-13.366c2.667-3.995,7.563-7.705,13.226-9.394c2.304-0.687,13.887-2.011,22.323,3.431
			c6.737,4.345,9.041,13.532,9.349,15.334C336.896,256.853,334.133,251.479,328.656,246.928z"/>
		<path style="opacity:0.43;fill:#F6941E;" d="M328.656,246.928c-10.662-8.862-28.774-5.133-37.066,5.658
			c0.287,1.482,0.818,2.983,1.151,4.501c0.43,1.962,0.538,4.262,1.997,5.922c1.688,1.921,3.932,1.207,6.007,2.119
			c4.208,1.851,6.911,4.741,12.133,2.792c3.524-1.315,7.617-2.937,10.866-4.745c4.218-2.346,7.648-8.503,7.676-13.633
			C330.587,248.643,329.673,247.77,328.656,246.928z"/>
		<g>
			<path style="fill:#A3C93A;" d="M305.531,258.938c0.761,0.37,1.971,1.42,2.694,1.605c1.06,0.269,1.977-0.517,2.959-0.799
				c2.176-0.626,4.645-0.033,6.49-1.662c1.435-1.267,2.871-4.42,1.719-6.154c2.001-0.457,4.249-0.831,5.149-2.924
				c0.783-1.824,0.037-4.008-0.48-5.803c-0.852-0.14-1.665,0.26-2.473,0.09c-0.797-0.168-1.458-0.817-2.315-0.955
				c-1.941-0.312-2.899,0.431-4.523-0.636c-3.366-2.213-5.12-1.055-8.741-0.395c0.568,1.243-0.442,1.618-1.245,2.358
				c-1.024,0.944-1.099,1.542-1.492,2.762c-2.556,0.495-5.084,1.252-6.788,3.347c1.935,0.419,2.462,2.412,3.742,3.794
				c1.538,1.662,2.952,1.179,4.822,0.525c-0.312,0.109-1.266,1.965-1.292,2.333C303.684,257.472,304.627,258.498,305.531,258.938z"
				/>
			<path style="fill:#B4D334;" d="M298.081,249.744c-0.14-0.127-0.134-0.357,0-0.485c0.706-0.682,1.542-1.223,2.44-1.642
				c0.772-0.357,1.526-0.319,2.325-0.558c1.453-0.436,1.396-1.986,1.782-3.26c-0.885,0.867-0.982,1.469-1.355,2.626
				c-2.556,0.495-5.084,1.252-6.788,3.347c1.935,0.419,2.462,2.412,3.742,3.794c1.073,1.158,2.085,1.273,3.234,1.015
				C301.368,254.234,299.308,250.867,298.081,249.744z"/>
			<path style="fill:#B4D334;" d="M324.062,243.2c-0.852-0.14-1.665,0.26-2.473,0.09c-0.797-0.168-1.458-0.817-2.315-0.955
				c-1.941-0.312-2.899,0.431-4.523-0.636c-3.366-2.213-5.12-1.055-8.741-0.395c0.239,0.523,0.197,0.891,0.011,1.198
				c2.234-1.749,5.341-2.072,8.032-1.031c0.614,0.24,1.053,0.752,1.648,1.011c1.094,0.478,2.084-0.003,3.167,0.222
				c1.334,0.276,3.022,2.275,4.388,1.496c0.211-0.119,0.433,0.002,0.515,0.205c1.343,3.374-1.528,5.305-3.756,7.382
				c1.827-0.412,3.72-0.905,4.529-2.785C325.325,247.179,324.579,244.995,324.062,243.2z"/>
			<path style="fill:#B4D334;" d="M306.198,257.637c0.236-0.059,0.416-0.166,0.69-0.134c0.455,0.051,0.811,0.453,1.307,0.389
				c0.495-0.064,0.568-0.49,0.908-0.746c0.51-0.38,0.914-0.291,1.533-0.366c0.609-0.074,1.334-0.566,1.913-0.571
				c0.695-0.008,0.96,0.612,1.568,0.821c0.671,0.23,1.084-0.225,1.561-0.594c0.511-0.397,1.24-0.541,1.665-0.941
				c0.429-0.406,2.31-1.456,1.119-2.068c-1-0.514-1.413,1.059-2.129,1.237c-0.856,0.211-1.149-0.512-1.997,0.284
				c-0.716,0.671-1.083,0.677-2.016,0.734c-1.541,0.092-3.331,1.049-4.829,0.347c-0.928-0.434-3.413-0.466-3.321,1.058
				c0.412,0.663,1.165,0.663,1.865,0.583C306.093,257.661,306.146,257.651,306.198,257.637z"/>
			<path style="fill:#92B33D;" d="M313.046,241.813c-0.949-0.212-1.449,0.365-2.299,0.698c-0.547,0.215-1.053,0.272-1.59,0.374
				c-1.11,0.208-2.561,0.304-3.504,1.044c-0.56,0.44-1.872,2.676-0.518,2.964c-1.558-0.01-1.443,0.593-2.29,1.61
				c-0.587,0.705-2.023,0.904-2.853,1.312c0.005,0.026,0.002,0.179-0.001,0.206c1.117,0.482,1.79,1.485,2.6,2.321
				c0.482,0.496,1.327,0.805,1.953,1.081c-0.018,0.559-0.396,0.857-0.85,1.103c0.428-0.113,0.877-0.268,1.354-0.435
				c-0.312,0.109-1.266,1.965-1.292,2.333c-0.001,0.009,0,0.018,0,0.027c0.592-0.514,1.185-1.143,1.526-1.253
				c0.822-0.269,1.617,0.255,2.344,0.48c2.609,0.808,5.473-0.973,7.639-2.238c1.381-0.806,2.946-0.51,4.529-0.305
				c-0.043-0.441-0.166-0.855-0.399-1.207c0.095-0.022,0.192-0.043,0.29-0.065c-1.152-0.652-1.828-1.571-0.655-3.107
				c0.742-0.969,1.752-1.816,0.834-3.029c-0.841-1.111-2.241-0.838-3.489-0.621c-1.05,0.183-3.4,0.96-2.207-0.947
				c0.504-0.805,1.215-1.39,1.992-1.899c-0.232-0.034-0.468-0.097-0.717-0.196C314.501,242.208,313.919,242.007,313.046,241.813z"/>
			<path style="fill:#92B33D;" d="M319.546,255.04c-0.204,0.233-0.403,0.469-0.61,0.633c-0.562,0.448-1.122,0.783-1.77,1.109
				c-1.153,0.581-2.362,1.282-3.742,1.007c-0.604-0.122-1.023-0.511-1.663-0.555c-0.765-0.052-0.979,0.231-1.495,0.628
				c-1.036,0.795-2.025,0.949-3.359,0.813c-0.623-0.063-1.174,0.023-1.794-0.144c-0.123-0.033-0.242-0.074-0.36-0.118
				c0.245,0.217,0.513,0.397,0.778,0.526c0.761,0.37,1.971,1.42,2.694,1.605c1.06,0.269,1.977-0.517,2.959-0.799
				c2.176-0.626,4.645-0.033,6.49-1.662C318.421,257.423,319.164,256.254,319.546,255.04z"/>
			<path style="fill:#9F9D36;" d="M304.5,250.583c0.104,2.276,1.323,3.187,3.789,3.457c1.407,0.152,2.674-0.036,3.973-0.34
				c2.383-0.554,5.401-2.585,4.565-5.224c-0.482-1.521-1.898-2.681-3.655-2.854c-0.607-0.059-1.279-0.03-1.89-0.012
				C308.034,245.706,304.335,247.008,304.5,250.583z"/>
			<path style="fill:#928130;" d="M316.828,248.476c-0.482-1.521-1.898-2.681-3.655-2.854c-0.607-0.059-1.279-0.03-1.89-0.012
				c-3.249,0.095-6.948,1.397-6.783,4.972c0.104,2.276,1.323,3.187,3.789,3.457c1.407,0.152,2.674-0.036,3.973-0.34
				C314.645,253.146,317.664,251.116,316.828,248.476z M312.436,251.378c-1.661,0.593-3.767,0.953-5.512,0.559
				c-0.853-0.193-1.835-0.624-1.867-1.546c-0.072-2.146,2.23-3.613,4.121-4.09c1.744-0.44,3.867-0.468,5.545,0.227
				c1.215,0.504,1.287,1.551,0.853,2.641C315.119,250.323,313.594,250.965,312.436,251.378z"/>
			<g>
				<path style="fill:#7A5A24;" d="M310.672,246.514c-0.634-0.644-1.359-1.461-2.289-1.677c-0.884-0.206-1.785,0.518-1.556,1.439
					c0.104,0.418,0.634,0.413,0.945,0.601c0.366,0.223,0.682,0.596,0.846,0.983c0.223,0.519-0.108,1.085,0.265,1.555
					c0.652,0.823,2.462,0.33,2.83-0.555C312.064,248.018,311.218,247.068,310.672,246.514z"/>
				<path style="fill:#5B4319;" d="M306.794,246.038c0.991-0.391,2.133-0.418,2.859,0.447c0.428,0.509,0.785,1.176,0.542,1.854
					c-0.228,0.635-0.754,0.953-1.356,1c0.016,0.025,0.026,0.051,0.046,0.076c0.652,0.823,2.462,0.33,2.83-0.555
					c0.349-0.842-0.496-1.791-1.042-2.346c-0.634-0.644-1.359-1.461-2.289-1.677C307.577,244.647,306.759,245.235,306.794,246.038z"
					/>
				<path style="fill:#A0762B;" d="M308.365,245.79c0.141-0.217,0.374-0.549,0.115-0.774c-0.095-0.082-0.202-0.149-0.313-0.21
					c-0.807-0.055-1.55,0.625-1.34,1.469c0.012,0.049,0.031,0.092,0.054,0.129C307.465,246.508,308,246.354,308.365,245.79z"/>
				<path style="fill:#B6862F;" d="M308.481,245.016c-0.095-0.082-0.202-0.149-0.313-0.21c-0.169-0.012-0.332,0.016-0.486,0.063
					c0.101-0.01,0.204-0.015,0.308-0.015c0.178-0.001,0.369,0.157,0.351,0.343c-0.015,0.152-0.075,0.291-0.161,0.415
					c-0.169,0.376-0.54,0.645-0.986,0.665c-0.133,0.006-0.266-0.026-0.376-0.091c0.005,0.03,0.003,0.058,0.011,0.089
					c0.012,0.049,0.031,0.092,0.054,0.129c0.584,0.104,1.119-0.05,1.484-0.614C308.506,245.573,308.739,245.242,308.481,245.016z"/>
			</g>
			<path style="fill:#928130;" d="M307.72,249.91c-0.014-0.017-0.028-0.032-0.041-0.049c-0.235-0.288-0.343-0.832-0.253-1.188
				c0.106-0.418,0.491-0.68,0.688-1.051c-1.268-0.062-2.451,1.799-1.577,2.803c0.86,0.989,2.836,0.854,4.015,0.565
				c1.045-0.256,5.375-1.334,4.358-3.124c-0.187-0.328-0.71-0.504-1.076-0.507c-0.636-0.003,0.136,0.391,0.054,0.79
				c-0.108,0.524-0.833,0.985-1.223,1.319c-0.433,0.371-1.121,0.505-1.664,0.672C310.002,250.448,308.514,250.826,307.72,249.91z"/>
		</g>
		<path style="opacity:0.43;fill:#FAA432;" d="M296.791,267.072c2.642,1.446,7.85,3.7,9.535,0.373
			c2.279-4.496-3.126-11.144-7.561-12.119C291.166,253.654,291.983,264.438,296.791,267.072z"/>
		<path style="opacity:0.43;fill:#FCB432;" d="M302.478,262.856c0.572-1.084,0.486-2.095,0.005-2.949
			c-1.066-1.894-6.931-4.432-7.204-0.891C295.084,261.548,300.806,266.024,302.478,262.856z"/>
	</g>
	<g>
		<path style="fill:#E54E25;" d="M251.249,306.004c-4.131,9.412-1.591,24.385,10.204,31.108c13.311,7.586,30.319,1.065,36.05-13.258
			c4.209-10.52,2.619-20.4-6.518-27.993C278.956,285.863,257.445,291.89,251.249,306.004z"/>
		<path style="opacity:0.52;fill:#F6941E;" d="M253.287,317.665c1.292,5.798,4.308,10.661,10.699,11.674
			c4.414,0.698,9.163-0.993,12.287-4.103c2.961-2.948,3.663-7.735,3.306-11.686c-0.19-2.105-0.558-4.425-1.775-6.238
			c-2.043-3.041-6.412-5.173-9.926-6.167C257.37,298.171,251.334,308.892,253.287,317.665z"/>
		<path style="fill:#DB3A26;" d="M290.985,295.861c-1.446-1.203-3.031-2.172-4.712-2.925c-4.748,1.116-9.056,3.355-13.087,6.056
			c10.608,2.102,9.985,17.231,7.075,25.153c-2.183,5.938-6.62,12.047-13.485,12.889c-2.43,0.298-4.774-0.115-6.984-0.973
			c0.532,0.368,1.082,0.721,1.66,1.051c13.311,7.586,30.319,1.065,36.05-13.258C301.712,313.334,300.121,303.453,290.985,295.861z"
			/>
		<path style="fill:#CD2E27;" d="M276.662,334.898c-2.456,1.443-5.155,2.939-7.989,3.61c0.208-0.048,11.625,2.386,21.882-6.494
			c4.49-3.886,12.938-18.256,3.194-29.756c-3.533-4.169-9.903-7.273-15.668-4.62c-0.435,0.2-0.861,0.278-1.264,0.264
			c2.522,1.015,5.177,1.897,7.155,3.786c2.285,2.184,3.596,5.177,4.08,8.239c0.979,6.2,0.105,12.939-3.824,18.091
			C282.149,330.742,279.663,333.137,276.662,334.898z"/>
		<path style="opacity:0.33;fill:#F6941E;" d="M290.985,295.861c-12.029-9.998-33.54-3.971-39.736,10.143
			c-4.131,9.412-1.591,24.385,10.204,31.108c0.049,0.028,0.099,0.055,0.15,0.083c-0.305-0.283-10.712-5.912-11.087-21.572
			c-0.105-4.397,1.801-9.711,4.241-13.365c2.667-3.995,7.563-7.705,13.226-9.394c2.304-0.687,13.887-2.011,22.323,3.431
			c6.737,4.345,9.041,13.532,9.349,15.334C299.225,305.787,296.462,300.413,290.985,295.861z"/>
		<path style="opacity:0.43;fill:#F6941E;" d="M290.985,295.861c-10.662-8.862-28.774-5.133-37.066,5.658
			c0.287,1.482,0.818,2.983,1.151,4.501c0.43,1.962,0.538,4.262,1.997,5.922c1.688,1.921,3.932,1.208,6.007,2.12
			c4.208,1.851,6.911,4.741,12.133,2.791c3.523-1.315,7.617-2.937,10.866-4.745c4.218-2.346,7.648-8.503,7.676-13.633
			C292.916,297.577,292.002,296.704,290.985,295.861z"/>
		<g>
			<path style="fill:#A3C93A;" d="M267.86,307.872c0.761,0.37,1.971,1.42,2.694,1.605c1.06,0.269,1.977-0.517,2.959-0.799
				c2.176-0.625,4.645-0.033,6.49-1.662c1.435-1.267,2.871-4.42,1.719-6.154c2.001-0.457,4.249-0.831,5.149-2.924
				c0.783-1.825,0.037-4.008-0.48-5.804c-0.852-0.14-1.665,0.26-2.473,0.09c-0.797-0.168-1.458-0.817-2.315-0.955
				c-1.941-0.312-2.899,0.431-4.523-0.636c-3.366-2.213-5.12-1.055-8.741-0.395c0.568,1.243-0.442,1.618-1.245,2.358
				c-1.024,0.944-1.099,1.543-1.492,2.762c-2.556,0.495-5.084,1.252-6.788,3.347c1.935,0.419,2.462,2.412,3.742,3.794
				c1.538,1.662,2.953,1.18,4.822,0.525c-0.312,0.109-1.266,1.965-1.292,2.333C266.013,306.405,266.956,307.431,267.86,307.872z"/>
			<path style="fill:#B4D334;" d="M260.409,298.677c-0.14-0.127-0.134-0.357,0-0.485c0.706-0.682,1.542-1.223,2.44-1.642
				c0.772-0.357,1.526-0.319,2.325-0.558c1.453-0.437,1.396-1.986,1.782-3.26c-0.885,0.867-0.982,1.469-1.355,2.626
				c-2.556,0.495-5.084,1.252-6.788,3.347c1.935,0.419,2.462,2.412,3.742,3.794c1.073,1.158,2.085,1.273,3.234,1.016
				C263.697,303.167,261.637,299.801,260.409,298.677z"/>
			<path style="fill:#B4D334;" d="M286.391,292.133c-0.852-0.14-1.665,0.26-2.473,0.09c-0.797-0.168-1.458-0.817-2.315-0.955
				c-1.941-0.312-2.899,0.431-4.523-0.636c-3.366-2.213-5.12-1.055-8.741-0.395c0.239,0.522,0.197,0.891,0.011,1.197
				c2.234-1.749,5.341-2.072,8.032-1.03c0.614,0.24,1.053,0.752,1.648,1.011c1.094,0.478,2.084-0.003,3.167,0.222
				c1.334,0.276,3.022,2.275,4.388,1.496c0.211-0.119,0.433,0.002,0.515,0.205c1.343,3.374-1.528,5.305-3.756,7.381
				c1.827-0.412,3.72-0.905,4.529-2.784C287.654,296.112,286.908,293.929,286.391,292.133z"/>
			<path style="fill:#B4D334;" d="M268.527,306.571c0.236-0.058,0.416-0.166,0.69-0.134c0.455,0.051,0.811,0.453,1.307,0.39
				c0.495-0.065,0.568-0.491,0.908-0.746c0.51-0.38,0.914-0.29,1.533-0.366c0.609-0.074,1.334-0.566,1.913-0.571
				c0.695-0.008,0.96,0.612,1.568,0.821c0.671,0.23,1.084-0.225,1.561-0.595c0.511-0.397,1.24-0.541,1.665-0.941
				c0.429-0.406,2.31-1.456,1.118-2.068c-1-0.514-1.413,1.059-2.129,1.237c-0.856,0.211-1.149-0.512-1.997,0.284
				c-0.716,0.672-1.083,0.677-2.016,0.734c-1.541,0.092-3.331,1.049-4.829,0.347c-0.928-0.434-3.413-0.466-3.321,1.058
				c0.413,0.663,1.165,0.663,1.865,0.583C268.422,306.595,268.475,306.584,268.527,306.571z"/>
			<path style="fill:#92B33D;" d="M275.375,290.746c-0.949-0.212-1.449,0.365-2.299,0.698c-0.547,0.215-1.053,0.272-1.59,0.374
				c-1.11,0.208-2.561,0.303-3.504,1.044c-0.56,0.44-1.872,2.676-0.518,2.964c-1.558-0.01-1.443,0.593-2.29,1.61
				c-0.587,0.705-2.023,0.904-2.853,1.312c0.005,0.026,0.002,0.179-0.001,0.206c1.117,0.482,1.79,1.485,2.6,2.321
				c0.482,0.496,1.327,0.805,1.953,1.081c-0.018,0.559-0.396,0.857-0.85,1.103c0.428-0.113,0.877-0.268,1.354-0.435
				c-0.312,0.109-1.266,1.965-1.292,2.333c-0.001,0.009,0,0.018,0,0.027c0.592-0.514,1.185-1.143,1.526-1.253
				c0.822-0.269,1.617,0.255,2.344,0.48c2.609,0.808,5.473-0.973,7.639-2.238c1.381-0.806,2.946-0.51,4.529-0.305
				c-0.043-0.441-0.166-0.855-0.399-1.207c0.095-0.022,0.192-0.043,0.289-0.065c-1.152-0.652-1.828-1.571-0.655-3.107
				c0.742-0.969,1.752-1.816,0.834-3.029c-0.841-1.111-2.241-0.838-3.489-0.621c-1.05,0.183-3.4,0.96-2.207-0.947
				c0.504-0.805,1.215-1.39,1.992-1.899c-0.232-0.034-0.468-0.097-0.717-0.196C276.83,291.142,276.248,290.941,275.375,290.746z"/>
			<path style="fill:#92B33D;" d="M281.875,303.973c-0.204,0.233-0.403,0.469-0.61,0.633c-0.562,0.448-1.122,0.783-1.77,1.109
				c-1.153,0.58-2.362,1.282-3.742,1.007c-0.604-0.122-1.023-0.511-1.663-0.555c-0.765-0.052-0.979,0.23-1.495,0.628
				c-1.036,0.795-2.025,0.949-3.359,0.813c-0.623-0.063-1.174,0.022-1.794-0.145c-0.123-0.033-0.243-0.074-0.36-0.118
				c0.245,0.217,0.513,0.397,0.778,0.526c0.761,0.37,1.971,1.42,2.694,1.605c1.06,0.269,1.977-0.517,2.959-0.799
				c2.176-0.625,4.645-0.033,6.49-1.662C280.75,306.357,281.493,305.188,281.875,303.973z"/>
			<path style="fill:#9F9D36;" d="M266.829,299.517c0.104,2.276,1.323,3.187,3.789,3.457c1.407,0.152,2.674-0.036,3.973-0.34
				c2.383-0.554,5.401-2.585,4.566-5.224c-0.482-1.521-1.898-2.681-3.655-2.854c-0.607-0.059-1.279-0.03-1.89-0.012
				C270.363,294.64,266.664,295.942,266.829,299.517z"/>
			<path style="fill:#928130;" d="M279.157,297.41c-0.482-1.521-1.898-2.681-3.655-2.854c-0.607-0.059-1.279-0.03-1.89-0.012
				c-3.249,0.095-6.948,1.397-6.783,4.972c0.104,2.276,1.323,3.187,3.789,3.457c1.407,0.152,2.674-0.036,3.973-0.34
				C276.974,302.079,279.993,300.049,279.157,297.41z M274.765,300.312c-1.661,0.594-3.767,0.953-5.512,0.559
				c-0.853-0.193-1.835-0.624-1.867-1.546c-0.072-2.146,2.23-3.613,4.121-4.09c1.744-0.44,3.867-0.468,5.545,0.227
				c1.215,0.504,1.287,1.551,0.853,2.641C277.448,299.257,275.923,299.898,274.765,300.312z"/>
			<g>
				<path style="fill:#7A5A24;" d="M273.001,295.447c-0.634-0.644-1.359-1.461-2.289-1.677c-0.884-0.206-1.785,0.518-1.556,1.439
					c0.104,0.418,0.634,0.413,0.945,0.601c0.366,0.223,0.682,0.596,0.846,0.983c0.223,0.519-0.108,1.085,0.265,1.555
					c0.652,0.823,2.462,0.33,2.83-0.555C274.393,296.951,273.547,296.002,273.001,295.447z"/>
				<path style="fill:#5B4319;" d="M269.123,294.971c0.991-0.391,2.133-0.418,2.859,0.447c0.428,0.509,0.785,1.176,0.542,1.854
					c-0.228,0.635-0.754,0.953-1.356,1c0.016,0.025,0.026,0.051,0.046,0.076c0.652,0.823,2.462,0.33,2.83-0.555
					c0.349-0.842-0.496-1.791-1.042-2.346c-0.634-0.644-1.359-1.461-2.289-1.677C269.906,293.581,269.088,294.169,269.123,294.971z"
					/>
				<path style="fill:#A0762B;" d="M270.694,294.724c0.141-0.217,0.374-0.549,0.115-0.774c-0.095-0.082-0.202-0.15-0.313-0.21
					c-0.807-0.055-1.55,0.625-1.34,1.469c0.012,0.049,0.032,0.092,0.054,0.129C269.794,295.441,270.329,295.288,270.694,294.724z"/>
				<path style="fill:#B6862F;" d="M270.809,293.95c-0.095-0.082-0.202-0.15-0.313-0.21c-0.169-0.012-0.332,0.016-0.486,0.063
					c0.102-0.01,0.204-0.015,0.308-0.015c0.178-0.001,0.369,0.157,0.351,0.343c-0.015,0.152-0.075,0.291-0.161,0.415
					c-0.169,0.376-0.54,0.645-0.986,0.665c-0.133,0.006-0.266-0.026-0.376-0.091c0.005,0.03,0.003,0.058,0.011,0.089
					c0.012,0.049,0.032,0.092,0.054,0.129c0.584,0.104,1.119-0.05,1.484-0.614C270.835,294.507,271.068,294.175,270.809,293.95z"/>
			</g>
			<path style="fill:#928130;" d="M270.049,298.844c-0.014-0.017-0.028-0.032-0.041-0.049c-0.235-0.288-0.343-0.832-0.253-1.188
				c0.106-0.418,0.491-0.68,0.688-1.051c-1.268-0.062-2.451,1.799-1.577,2.803c0.86,0.989,2.836,0.854,4.015,0.565
				c1.045-0.256,5.375-1.334,4.358-3.124c-0.187-0.328-0.71-0.504-1.076-0.507c-0.636-0.003,0.136,0.391,0.054,0.79
				c-0.108,0.524-0.833,0.985-1.223,1.319c-0.433,0.371-1.121,0.505-1.664,0.672C272.331,299.381,270.843,299.759,270.049,298.844z"
				/>
		</g>
		<path style="opacity:0.43;fill:#FAA432;" d="M259.12,316.006c2.642,1.446,7.85,3.7,9.535,0.373
			c2.279-4.496-3.126-11.144-7.561-12.119C253.495,302.587,254.312,313.371,259.12,316.006z"/>
		<path style="opacity:0.43;fill:#FCB432;" d="M264.807,311.789c0.572-1.084,0.486-2.095,0.005-2.949
			c-1.066-1.894-6.931-4.432-7.204-0.891C257.413,310.482,263.135,314.958,264.807,311.789z"/>
	</g>
	<g>
		<path style="fill:#E54E25;" d="M205.486,346.251c-4.132,9.412-1.591,24.385,10.204,31.107c13.311,7.586,30.319,1.065,36.05-13.258
			c4.209-10.52,2.618-20.4-6.518-27.993C233.194,326.11,211.683,332.137,205.486,346.251z"/>
		<path style="opacity:0.52;fill:#F6941E;" d="M207.525,357.912c1.292,5.798,4.308,10.661,10.699,11.674
			c4.414,0.698,9.163-0.993,12.287-4.103c2.961-2.948,3.664-7.735,3.306-11.685c-0.189-2.105-0.558-4.425-1.775-6.238
			c-2.043-3.041-6.412-5.173-9.926-6.167C211.607,338.418,205.571,349.139,207.525,357.912z"/>
		<path style="fill:#DB3A26;" d="M245.222,336.108c-1.446-1.203-3.031-2.172-4.711-2.925c-4.748,1.116-9.056,3.355-13.088,6.056
			c10.608,2.102,9.986,17.231,7.075,25.153c-2.183,5.938-6.621,12.047-13.485,12.889c-2.43,0.298-4.774-0.115-6.984-0.973
			c0.531,0.368,1.082,0.722,1.66,1.051c13.311,7.586,30.319,1.065,36.05-13.258C255.95,353.58,254.359,343.7,245.222,336.108z"/>
		<path style="fill:#CD2E27;" d="M230.9,375.144c-2.456,1.442-5.155,2.939-7.989,3.61c0.208-0.048,11.625,2.386,21.882-6.494
			c4.49-3.886,12.938-18.256,3.194-29.756c-3.533-4.169-9.903-7.273-15.668-4.62c-0.435,0.2-0.861,0.278-1.264,0.264
			c2.522,1.015,5.177,1.897,7.155,3.786c2.285,2.184,3.596,5.177,4.08,8.239c0.979,6.2,0.105,12.939-3.824,18.091
			C236.386,370.989,233.901,373.384,230.9,375.144z"/>
		<path style="opacity:0.33;fill:#F6941E;" d="M245.222,336.108c-12.028-9.998-33.54-3.971-39.736,10.143
			c-4.132,9.412-1.591,24.385,10.204,31.107c0.049,0.028,0.099,0.055,0.15,0.083c-0.305-0.283-10.712-5.912-11.087-21.572
			c-0.105-4.397,1.801-9.711,4.241-13.365c2.667-3.995,7.563-7.705,13.226-9.394c2.304-0.687,13.887-2.011,22.323,3.431
			c6.737,4.345,9.04,13.532,9.349,15.334C253.462,346.034,250.7,340.659,245.222,336.108z"/>
		<path style="opacity:0.43;fill:#F6941E;" d="M245.222,336.108c-10.662-8.862-28.774-5.133-37.066,5.659
			c0.287,1.482,0.818,2.983,1.151,4.501c0.43,1.962,0.538,4.262,1.997,5.922c1.688,1.921,3.932,1.208,6.007,2.12
			c4.208,1.851,6.911,4.741,12.133,2.791c3.524-1.315,7.617-2.937,10.866-4.745c4.218-2.346,7.648-8.502,7.677-13.633
			C247.154,337.823,246.239,336.951,245.222,336.108z"/>
		<g>
			<path style="fill:#A3C93A;" d="M222.098,348.118c0.762,0.37,1.971,1.42,2.694,1.605c1.06,0.269,1.977-0.517,2.959-0.8
				c2.176-0.625,4.645-0.033,6.49-1.662c1.435-1.267,2.871-4.42,1.719-6.154c2.001-0.457,4.249-0.831,5.149-2.924
				c0.783-1.825,0.037-4.008-0.48-5.803c-0.853-0.14-1.665,0.26-2.474,0.09c-0.797-0.168-1.458-0.818-2.315-0.955
				c-1.941-0.312-2.899,0.431-4.524-0.636c-3.366-2.213-5.12-1.055-8.741-0.395c0.569,1.243-0.442,1.618-1.245,2.358
				c-1.024,0.944-1.099,1.543-1.492,2.762c-2.556,0.495-5.084,1.252-6.788,3.347c1.935,0.419,2.462,2.412,3.742,3.794
				c1.538,1.662,2.952,1.18,4.822,0.525c-0.312,0.109-1.266,1.965-1.292,2.333C220.25,346.652,221.193,347.678,222.098,348.118z"/>
			<path style="fill:#B4D334;" d="M214.647,338.924c-0.139-0.128-0.133-0.357,0-0.485c0.706-0.682,1.542-1.223,2.44-1.642
				c0.772-0.358,1.526-0.319,2.325-0.558c1.453-0.436,1.396-1.986,1.782-3.26c-0.885,0.867-0.982,1.469-1.356,2.626
				c-2.556,0.495-5.084,1.252-6.788,3.347c1.935,0.419,2.462,2.412,3.742,3.794c1.073,1.158,2.085,1.273,3.233,1.016
				C217.934,343.414,215.874,340.048,214.647,338.924z"/>
			<path style="fill:#B4D334;" d="M240.629,332.38c-0.853-0.14-1.665,0.26-2.474,0.09c-0.797-0.168-1.458-0.818-2.315-0.955
				c-1.941-0.312-2.899,0.431-4.524-0.636c-3.366-2.213-5.12-1.055-8.741-0.395c0.239,0.522,0.197,0.891,0.011,1.197
				c2.234-1.749,5.341-2.072,8.032-1.03c0.614,0.24,1.053,0.752,1.648,1.011c1.094,0.478,2.084-0.003,3.167,0.222
				c1.334,0.276,3.022,2.275,4.388,1.496c0.211-0.119,0.433,0.002,0.515,0.205c1.343,3.374-1.528,5.305-3.757,7.382
				c1.827-0.412,3.72-0.905,4.529-2.785C241.892,336.359,241.145,334.175,240.629,332.38z"/>
			<path style="fill:#B4D334;" d="M222.765,346.818c0.236-0.059,0.416-0.166,0.69-0.134c0.455,0.051,0.811,0.453,1.307,0.39
				c0.496-0.065,0.568-0.491,0.908-0.746c0.51-0.38,0.914-0.291,1.533-0.366c0.609-0.074,1.334-0.566,1.912-0.571
				c0.695-0.008,0.96,0.613,1.568,0.821c0.671,0.23,1.084-0.225,1.561-0.595c0.511-0.397,1.24-0.541,1.664-0.941
				c0.429-0.406,2.31-1.457,1.118-2.069c-1-0.513-1.413,1.059-2.129,1.237c-0.856,0.211-1.149-0.512-1.996,0.284
				c-0.716,0.671-1.083,0.677-2.016,0.734c-1.541,0.092-3.331,1.049-4.829,0.347c-0.928-0.434-3.413-0.466-3.321,1.057
				c0.413,0.663,1.165,0.663,1.865,0.583C222.659,346.841,222.713,346.831,222.765,346.818z"/>
			<path style="fill:#92B33D;" d="M229.613,330.993c-0.949-0.212-1.449,0.365-2.298,0.698c-0.547,0.215-1.053,0.272-1.591,0.374
				c-1.11,0.208-2.561,0.303-3.504,1.044c-0.56,0.44-1.872,2.676-0.518,2.963c-1.558-0.01-1.443,0.593-2.29,1.61
				c-0.587,0.705-2.023,0.903-2.853,1.312c0.005,0.026,0.002,0.179-0.001,0.206c1.117,0.482,1.79,1.485,2.601,2.321
				c0.482,0.496,1.327,0.805,1.952,1.08c-0.018,0.559-0.396,0.857-0.85,1.103c0.428-0.112,0.877-0.268,1.354-0.435
				c-0.312,0.109-1.266,1.965-1.292,2.333c0,0.009,0.001,0.018,0,0.026c0.592-0.514,1.186-1.143,1.526-1.253
				c0.822-0.269,1.617,0.255,2.344,0.48c2.609,0.808,5.473-0.973,7.639-2.238c1.381-0.806,2.946-0.51,4.529-0.305
				c-0.044-0.442-0.166-0.855-0.4-1.207c0.095-0.022,0.192-0.043,0.29-0.065c-1.152-0.652-1.828-1.571-0.655-3.107
				c0.742-0.969,1.752-1.816,0.834-3.029c-0.841-1.111-2.241-0.838-3.489-0.62c-1.05,0.183-3.4,0.96-2.206-0.947
				c0.504-0.805,1.215-1.39,1.992-1.899c-0.232-0.034-0.468-0.097-0.717-0.196C231.067,331.388,230.485,331.187,229.613,330.993z"/>
			<path style="fill:#92B33D;" d="M236.113,344.22c-0.204,0.233-0.403,0.469-0.61,0.633c-0.562,0.448-1.122,0.783-1.77,1.109
				c-1.153,0.58-2.362,1.282-3.742,1.007c-0.604-0.122-1.024-0.511-1.663-0.555c-0.765-0.052-0.979,0.231-1.495,0.628
				c-1.036,0.795-2.025,0.949-3.359,0.813c-0.623-0.063-1.174,0.023-1.794-0.145c-0.123-0.033-0.243-0.074-0.36-0.118
				c0.245,0.217,0.513,0.397,0.778,0.526c0.762,0.37,1.971,1.42,2.694,1.605c1.06,0.269,1.977-0.517,2.959-0.8
				c2.176-0.625,4.645-0.033,6.49-1.662C234.988,346.604,235.73,345.435,236.113,344.22z"/>
			<path style="fill:#9F9D36;" d="M221.066,339.763c0.105,2.276,1.323,3.187,3.789,3.456c1.407,0.152,2.674-0.036,3.974-0.34
				c2.383-0.554,5.401-2.585,4.565-5.224c-0.482-1.521-1.898-2.681-3.655-2.854c-0.607-0.059-1.279-0.03-1.89-0.012
				C224.6,334.886,220.901,336.188,221.066,339.763z"/>
			<path style="fill:#928130;" d="M233.394,337.656c-0.482-1.521-1.898-2.681-3.655-2.854c-0.607-0.059-1.279-0.03-1.89-0.012
				c-3.249,0.095-6.948,1.397-6.783,4.972c0.105,2.276,1.323,3.187,3.789,3.456c1.407,0.152,2.674-0.036,3.974-0.34
				C231.212,342.326,234.23,340.296,233.394,337.656z M229.003,340.558c-1.661,0.594-3.767,0.953-5.512,0.559
				c-0.853-0.193-1.835-0.624-1.867-1.546c-0.072-2.146,2.23-3.613,4.121-4.09c1.744-0.44,3.867-0.467,5.545,0.227
				c1.216,0.504,1.287,1.551,0.853,2.641C231.685,339.503,230.161,340.145,229.003,340.558z"/>
			<g>
				<path style="fill:#7A5A24;" d="M227.238,335.694c-0.634-0.644-1.359-1.461-2.289-1.677c-0.884-0.206-1.785,0.518-1.556,1.439
					c0.104,0.418,0.634,0.413,0.945,0.601c0.366,0.223,0.682,0.596,0.846,0.983c0.223,0.519-0.108,1.085,0.266,1.555
					c0.652,0.823,2.462,0.33,2.83-0.555C228.63,337.198,227.785,336.249,227.238,335.694z"/>
				<path style="fill:#5B4319;" d="M223.361,335.218c0.991-0.391,2.133-0.418,2.859,0.447c0.428,0.509,0.785,1.176,0.542,1.854
					c-0.228,0.635-0.755,0.953-1.356,1c0.016,0.025,0.025,0.051,0.046,0.076c0.652,0.823,2.462,0.33,2.83-0.555
					c0.35-0.842-0.496-1.791-1.042-2.346c-0.634-0.644-1.359-1.461-2.289-1.677C224.144,333.827,223.325,334.416,223.361,335.218z"
					/>
				<path style="fill:#A0762B;" d="M224.932,334.97c0.141-0.217,0.374-0.548,0.116-0.774c-0.096-0.082-0.202-0.15-0.313-0.21
					c-0.807-0.055-1.55,0.625-1.34,1.469c0.012,0.049,0.031,0.091,0.054,0.129C224.032,335.688,224.567,335.534,224.932,334.97z"/>
				<path style="fill:#B6862F;" d="M225.047,334.196c-0.096-0.082-0.202-0.15-0.313-0.21c-0.169-0.012-0.332,0.016-0.486,0.063
					c0.102-0.01,0.204-0.015,0.308-0.015c0.178,0,0.369,0.157,0.351,0.343c-0.015,0.152-0.075,0.291-0.161,0.415
					c-0.169,0.376-0.54,0.645-0.986,0.665c-0.132,0.006-0.266-0.026-0.376-0.091c0.005,0.03,0.003,0.058,0.011,0.089
					c0.012,0.049,0.031,0.091,0.054,0.129c0.584,0.104,1.119-0.05,1.484-0.614C225.072,334.753,225.305,334.422,225.047,334.196z"/>
			</g>
			<path style="fill:#928130;" d="M224.287,339.091c-0.014-0.017-0.028-0.033-0.041-0.049c-0.235-0.288-0.343-0.832-0.253-1.188
				c0.106-0.418,0.491-0.68,0.688-1.051c-1.269-0.062-2.451,1.799-1.577,2.803c0.86,0.989,2.835,0.854,4.015,0.565
				c1.045-0.256,5.374-1.334,4.358-3.124c-0.187-0.328-0.71-0.504-1.076-0.507c-0.636-0.003,0.136,0.391,0.054,0.79
				c-0.108,0.524-0.833,0.985-1.223,1.319c-0.433,0.371-1.121,0.505-1.664,0.672C226.569,339.628,225.081,340.006,224.287,339.091z"
				/>
		</g>
		<path style="opacity:0.43;fill:#FAA432;" d="M213.358,356.252c2.641,1.446,7.85,3.7,9.535,0.373
			c2.279-4.496-3.126-11.144-7.561-12.119C207.732,342.834,208.549,353.618,213.358,356.252z"/>
		<path style="opacity:0.43;fill:#FCB432;" d="M219.045,352.036c0.572-1.084,0.486-2.095,0.006-2.949
			c-1.066-1.894-6.932-4.432-7.204-0.891C211.651,350.729,217.373,355.204,219.045,352.036z"/>
	</g>
	<g>
		<path style="fill:#E54E25;" d="M160.081,306.689c-4.132,9.412-1.591,24.385,10.204,31.107c13.311,7.586,30.319,1.065,36.05-13.258
			c4.209-10.52,2.619-20.4-6.518-27.993C187.789,286.548,166.277,292.575,160.081,306.689z"/>
		<path style="opacity:0.52;fill:#F6941E;" d="M162.119,318.35c1.292,5.798,4.308,10.661,10.7,11.674
			c4.414,0.698,9.163-0.993,12.286-4.103c2.961-2.948,3.664-7.735,3.306-11.685c-0.189-2.105-0.558-4.425-1.775-6.238
			c-2.043-3.041-6.412-5.173-9.926-6.167C166.202,298.856,160.166,309.577,162.119,318.35z"/>
		<path style="fill:#DB3A26;" d="M199.817,296.546c-1.446-1.203-3.031-2.172-4.711-2.925c-4.748,1.116-9.056,3.355-13.087,6.056
			c10.608,2.102,9.985,17.231,7.075,25.153c-2.183,5.938-6.621,12.048-13.485,12.889c-2.43,0.298-4.774-0.115-6.984-0.973
			c0.532,0.368,1.082,0.722,1.66,1.051c13.311,7.586,30.319,1.065,36.05-13.258C210.544,314.019,208.954,304.138,199.817,296.546z"
			/>
		<path style="fill:#CD2E27;" d="M185.494,335.583c-2.456,1.443-5.155,2.939-7.989,3.61c0.208-0.049,11.625,2.386,21.882-6.494
			c4.49-3.886,12.938-18.256,3.194-29.756c-3.533-4.169-9.903-7.273-15.668-4.62c-0.435,0.2-0.861,0.278-1.264,0.264
			c2.522,1.015,5.177,1.897,7.155,3.786c2.285,2.184,3.596,5.177,4.08,8.239c0.979,6.2,0.105,12.939-3.824,18.091
			C190.981,331.427,188.495,333.822,185.494,335.583z"/>
		<path style="opacity:0.33;fill:#F6941E;" d="M199.817,296.546c-12.028-9.998-33.54-3.971-39.736,10.143
			c-4.132,9.412-1.591,24.385,10.204,31.107c0.049,0.028,0.099,0.055,0.15,0.083c-0.305-0.283-10.712-5.912-11.087-21.572
			c-0.105-4.397,1.801-9.711,4.241-13.366c2.667-3.995,7.563-7.705,13.226-9.394c2.304-0.687,13.887-2.011,22.323,3.431
			c6.737,4.345,9.04,13.532,9.349,15.334C208.057,306.472,205.294,301.098,199.817,296.546z"/>
		<path style="opacity:0.43;fill:#F6941E;" d="M199.817,296.546c-10.661-8.862-28.774-5.133-37.066,5.659
			c0.287,1.482,0.818,2.983,1.151,4.501c0.43,1.962,0.537,4.262,1.996,5.922c1.688,1.921,3.932,1.207,6.007,2.119
			c4.208,1.851,6.911,4.741,12.133,2.791c3.524-1.314,7.617-2.937,10.866-4.745c4.218-2.346,7.648-8.502,7.676-13.633
			C201.748,298.262,200.834,297.389,199.817,296.546z"/>
		<g>
			<path style="fill:#A3C93A;" d="M176.693,308.556c0.761,0.37,1.97,1.421,2.694,1.605c1.06,0.269,1.977-0.517,2.959-0.799
				c2.176-0.626,4.645-0.033,6.49-1.662c1.435-1.267,2.871-4.42,1.719-6.154c2.002-0.457,4.249-0.831,5.149-2.924
				c0.783-1.824,0.037-4.008-0.48-5.803c-0.853-0.14-1.665,0.26-2.474,0.09c-0.797-0.168-1.458-0.817-2.315-0.955
				c-1.941-0.312-2.899,0.431-4.524-0.636c-3.366-2.213-5.12-1.055-8.741-0.395c0.568,1.243-0.442,1.618-1.245,2.358
				c-1.024,0.944-1.099,1.542-1.492,2.762c-2.556,0.495-5.084,1.252-6.788,3.347c1.935,0.419,2.462,2.412,3.742,3.794
				c1.538,1.662,2.952,1.18,4.822,0.525c-0.312,0.109-1.266,1.965-1.292,2.333C174.845,307.09,175.788,308.116,176.693,308.556z"/>
			<path style="fill:#B4D334;" d="M169.241,299.362c-0.139-0.127-0.133-0.357,0-0.485c0.706-0.682,1.542-1.223,2.44-1.642
				c0.772-0.358,1.526-0.319,2.325-0.558c1.453-0.436,1.396-1.986,1.782-3.26c-0.885,0.867-0.982,1.469-1.355,2.626
				c-2.556,0.495-5.084,1.252-6.788,3.347c1.935,0.419,2.462,2.412,3.742,3.794c1.073,1.158,2.085,1.273,3.234,1.016
				C172.529,303.852,170.469,300.486,169.241,299.362z"/>
			<path style="fill:#B4D334;" d="M195.223,292.818c-0.853-0.14-1.665,0.26-2.474,0.09c-0.797-0.168-1.458-0.817-2.315-0.955
				c-1.941-0.312-2.899,0.431-4.524-0.636c-3.366-2.213-5.12-1.055-8.741-0.395c0.239,0.522,0.197,0.891,0.011,1.198
				c2.234-1.749,5.341-2.072,8.032-1.031c0.614,0.24,1.053,0.752,1.648,1.011c1.094,0.478,2.084-0.003,3.167,0.222
				c1.334,0.276,3.022,2.274,4.387,1.496c0.211-0.119,0.433,0.002,0.515,0.205c1.343,3.374-1.528,5.305-3.756,7.382
				c1.827-0.412,3.72-0.905,4.529-2.785C196.487,296.797,195.74,294.614,195.223,292.818z"/>
			<path style="fill:#B4D334;" d="M177.359,307.256c0.236-0.059,0.416-0.166,0.69-0.134c0.455,0.052,0.811,0.453,1.307,0.39
				c0.496-0.065,0.569-0.49,0.908-0.746c0.51-0.38,0.914-0.291,1.533-0.366c0.609-0.074,1.334-0.566,1.912-0.571
				c0.695-0.008,0.96,0.613,1.568,0.821c0.671,0.23,1.084-0.225,1.561-0.595c0.511-0.397,1.239-0.541,1.664-0.941
				c0.43-0.406,2.31-1.456,1.118-2.069c-1-0.513-1.413,1.059-2.129,1.237c-0.856,0.211-1.149-0.512-1.996,0.284
				c-0.716,0.671-1.083,0.677-2.016,0.734c-1.541,0.092-3.331,1.049-4.829,0.347c-0.928-0.434-3.413-0.466-3.321,1.057
				c0.413,0.663,1.165,0.663,1.865,0.583C177.254,307.28,177.307,307.269,177.359,307.256z"/>
			<path style="fill:#92B33D;" d="M184.207,291.431c-0.949-0.212-1.449,0.365-2.298,0.698c-0.547,0.215-1.053,0.272-1.59,0.374
				c-1.11,0.208-2.561,0.303-3.504,1.044c-0.56,0.44-1.872,2.676-0.518,2.963c-1.558-0.01-1.443,0.593-2.29,1.61
				c-0.587,0.705-2.023,0.904-2.853,1.312c0.005,0.026,0.002,0.179-0.001,0.206c1.117,0.482,1.79,1.485,2.601,2.321
				c0.482,0.496,1.327,0.805,1.953,1.081c-0.018,0.559-0.396,0.857-0.85,1.103c0.428-0.113,0.877-0.268,1.354-0.435
				c-0.312,0.109-1.266,1.965-1.292,2.333c0,0.009,0.001,0.018,0,0.026c0.592-0.514,1.186-1.142,1.526-1.253
				c0.822-0.269,1.617,0.255,2.344,0.48c2.609,0.808,5.473-0.973,7.639-2.238c1.381-0.806,2.946-0.51,4.529-0.305
				c-0.043-0.442-0.166-0.855-0.4-1.207c0.095-0.022,0.192-0.043,0.29-0.065c-1.152-0.652-1.828-1.571-0.655-3.107
				c0.742-0.969,1.752-1.816,0.834-3.029c-0.841-1.111-2.241-0.838-3.489-0.62c-1.05,0.183-3.4,0.96-2.207-0.947
				c0.504-0.805,1.215-1.39,1.992-1.899c-0.232-0.034-0.468-0.097-0.717-0.197C185.662,291.826,185.08,291.626,184.207,291.431z"/>
			<path style="fill:#92B33D;" d="M190.707,304.658c-0.204,0.233-0.403,0.469-0.61,0.633c-0.562,0.448-1.122,0.783-1.77,1.109
				c-1.153,0.58-2.362,1.282-3.742,1.007c-0.604-0.122-1.023-0.511-1.663-0.555c-0.765-0.052-0.979,0.231-1.495,0.628
				c-1.036,0.795-2.025,0.949-3.359,0.813c-0.622-0.063-1.174,0.023-1.794-0.144c-0.123-0.033-0.243-0.074-0.36-0.118
				c0.245,0.217,0.513,0.397,0.778,0.526c0.761,0.37,1.97,1.421,2.694,1.605c1.06,0.269,1.977-0.517,2.959-0.799
				c2.176-0.626,4.645-0.033,6.49-1.662C189.582,307.042,190.325,305.873,190.707,304.658z"/>
			<path style="fill:#9F9D36;" d="M175.661,300.202c0.104,2.276,1.323,3.187,3.789,3.456c1.407,0.152,2.674-0.036,3.974-0.34
				c2.383-0.554,5.401-2.585,4.565-5.224c-0.482-1.521-1.898-2.681-3.655-2.854c-0.607-0.059-1.279-0.03-1.89-0.012
				C179.195,295.324,175.496,296.626,175.661,300.202z"/>
			<path style="fill:#928130;" d="M187.989,298.095c-0.482-1.521-1.898-2.681-3.655-2.854c-0.607-0.059-1.279-0.03-1.89-0.012
				c-3.249,0.095-6.948,1.397-6.783,4.972c0.104,2.276,1.323,3.187,3.789,3.456c1.407,0.152,2.674-0.036,3.974-0.34
				C185.806,302.764,188.825,300.734,187.989,298.095z M183.597,300.997c-1.661,0.593-3.767,0.953-5.512,0.559
				c-0.853-0.193-1.835-0.624-1.867-1.546c-0.072-2.146,2.23-3.613,4.121-4.09c1.744-0.44,3.867-0.467,5.545,0.227
				c1.216,0.504,1.287,1.551,0.854,2.641C186.28,299.942,184.755,300.583,183.597,300.997z"/>
			<g>
				<path style="fill:#7A5A24;" d="M181.833,296.132c-0.634-0.644-1.359-1.461-2.289-1.677c-0.884-0.206-1.785,0.518-1.556,1.439
					c0.104,0.418,0.634,0.413,0.945,0.601c0.366,0.223,0.682,0.596,0.846,0.983c0.223,0.519-0.107,1.084,0.266,1.555
					c0.652,0.823,2.462,0.33,2.83-0.555C183.225,297.636,182.379,296.687,181.833,296.132z"/>
				<path style="fill:#5B4319;" d="M177.956,295.656c0.991-0.391,2.133-0.418,2.859,0.447c0.428,0.509,0.785,1.176,0.542,1.854
					c-0.228,0.635-0.755,0.953-1.356,1c0.016,0.025,0.026,0.052,0.046,0.076c0.652,0.823,2.462,0.33,2.83-0.555
					c0.35-0.842-0.496-1.791-1.042-2.346c-0.634-0.644-1.359-1.461-2.289-1.677C178.738,294.266,177.92,294.854,177.956,295.656z"/>
				<path style="fill:#A0762B;" d="M179.526,295.409c0.141-0.217,0.374-0.548,0.115-0.774c-0.095-0.082-0.202-0.149-0.313-0.21
					c-0.807-0.054-1.55,0.625-1.34,1.469c0.012,0.049,0.031,0.091,0.054,0.129C178.627,296.126,179.161,295.973,179.526,295.409z"/>
				<path style="fill:#B6862F;" d="M179.642,294.634c-0.095-0.082-0.202-0.149-0.313-0.21c-0.169-0.012-0.332,0.016-0.486,0.064
					c0.102-0.01,0.204-0.015,0.308-0.015c0.178,0,0.369,0.157,0.351,0.343c-0.015,0.152-0.075,0.291-0.161,0.415
					c-0.169,0.376-0.54,0.646-0.987,0.665c-0.132,0.006-0.265-0.026-0.376-0.091c0.005,0.03,0.003,0.059,0.011,0.089
					c0.012,0.049,0.031,0.091,0.054,0.129c0.584,0.104,1.119-0.05,1.484-0.614C179.667,295.191,179.9,294.86,179.642,294.634z"/>
			</g>
			<path style="fill:#928130;" d="M178.882,299.529c-0.014-0.017-0.028-0.033-0.041-0.049c-0.235-0.288-0.343-0.832-0.253-1.188
				c0.106-0.418,0.491-0.68,0.688-1.051c-1.269-0.062-2.451,1.799-1.577,2.803c0.86,0.989,2.836,0.854,4.015,0.565
				c1.045-0.256,5.375-1.334,4.358-3.124c-0.187-0.328-0.71-0.504-1.076-0.507c-0.636-0.003,0.136,0.391,0.054,0.79
				c-0.107,0.524-0.833,0.985-1.223,1.32c-0.433,0.371-1.121,0.505-1.664,0.672C181.163,300.066,179.675,300.444,178.882,299.529z"
				/>
		</g>
		<path style="opacity:0.43;fill:#FAA432;" d="M167.953,316.691c2.642,1.446,7.85,3.7,9.535,0.373
			c2.279-4.496-3.126-11.144-7.561-12.119C162.327,303.272,163.144,314.056,167.953,316.691z"/>
		<path style="opacity:0.43;fill:#FCB432;" d="M173.639,312.474c0.572-1.084,0.486-2.095,0.006-2.948
			c-1.066-1.894-6.931-4.432-7.204-0.891C166.245,311.167,171.967,315.643,173.639,312.474z"/>
	</g>
	<g>
		<path style="fill:#E54E25;" d="M160.966,392.589c-4.132,9.412-1.592,24.385,10.204,31.108c13.311,7.586,30.319,1.065,36.05-13.258
			c4.209-10.52,2.618-20.4-6.518-27.993C188.674,372.448,167.162,378.475,160.966,392.589z"/>
		<path style="opacity:0.52;fill:#F6941E;" d="M163.004,404.25c1.292,5.798,4.308,10.661,10.699,11.674
			c4.414,0.698,9.163-0.993,12.287-4.103c2.961-2.948,3.664-7.735,3.306-11.685c-0.189-2.105-0.558-4.425-1.775-6.238
			c-2.043-3.041-6.412-5.173-9.926-6.167C167.087,384.756,161.051,395.477,163.004,404.25z"/>
		<path style="fill:#DB3A26;" d="M200.702,382.446c-1.446-1.203-3.031-2.172-4.712-2.925c-4.748,1.116-9.056,3.355-13.087,6.056
			c10.608,2.102,9.986,17.231,7.075,25.153c-2.183,5.938-6.621,12.048-13.485,12.889c-2.43,0.298-4.774-0.115-6.984-0.973
			c0.531,0.368,1.082,0.722,1.66,1.051c13.311,7.586,30.319,1.065,36.05-13.258C211.429,399.919,209.839,390.038,200.702,382.446z"
			/>
		<path style="fill:#CD2E27;" d="M186.379,421.483c-2.456,1.443-5.155,2.939-7.989,3.61c0.208-0.049,11.625,2.386,21.882-6.495
			c4.49-3.886,12.938-18.256,3.194-29.756c-3.533-4.169-9.903-7.273-15.668-4.62c-0.435,0.2-0.861,0.278-1.264,0.264
			c2.522,1.015,5.177,1.897,7.155,3.786c2.285,2.184,3.596,5.177,4.08,8.239c0.979,6.2,0.105,12.939-3.824,18.091
			C191.866,417.327,189.38,419.722,186.379,421.483z"/>
		<path style="opacity:0.33;fill:#F6941E;" d="M200.702,382.446c-12.028-9.998-33.54-3.971-39.736,10.143
			c-4.132,9.412-1.592,24.385,10.204,31.108c0.049,0.028,0.099,0.055,0.15,0.083c-0.305-0.283-10.712-5.912-11.087-21.572
			c-0.105-4.397,1.801-9.711,4.241-13.365c2.667-3.995,7.563-7.705,13.226-9.394c2.304-0.687,13.887-2.011,22.323,3.431
			c6.737,4.345,9.04,13.532,9.349,15.334C208.942,392.372,206.179,386.998,200.702,382.446z"/>
		<path style="opacity:0.43;fill:#F6941E;" d="M200.702,382.446c-10.662-8.862-28.774-5.133-37.066,5.658
			c0.287,1.482,0.818,2.983,1.151,4.501c0.43,1.962,0.538,4.262,1.997,5.922c1.688,1.921,3.932,1.207,6.007,2.119
			c4.208,1.851,6.911,4.741,12.133,2.792c3.524-1.315,7.617-2.937,10.866-4.745c4.218-2.346,7.648-8.502,7.677-13.633
			C202.633,384.162,201.719,383.289,200.702,382.446z"/>
		<g>
			<path style="fill:#A3C93A;" d="M177.577,394.456c0.762,0.37,1.971,1.421,2.694,1.605c1.06,0.269,1.977-0.517,2.959-0.799
				c2.176-0.626,4.645-0.033,6.49-1.662c1.435-1.267,2.871-4.42,1.719-6.154c2.001-0.457,4.249-0.831,5.149-2.924
				c0.783-1.824,0.037-4.008-0.48-5.803c-0.853-0.14-1.665,0.26-2.474,0.09c-0.797-0.168-1.458-0.817-2.315-0.955
				c-1.941-0.312-2.899,0.431-4.524-0.636c-3.366-2.213-5.12-1.055-8.741-0.395c0.569,1.243-0.442,1.618-1.245,2.358
				c-1.024,0.944-1.099,1.542-1.492,2.762c-2.556,0.495-5.084,1.252-6.788,3.347c1.935,0.419,2.462,2.412,3.742,3.794
				c1.538,1.662,2.953,1.18,4.822,0.525c-0.312,0.109-1.266,1.965-1.292,2.333C175.73,392.99,176.673,394.016,177.577,394.456z"/>
			<path style="fill:#B4D334;" d="M170.126,385.262c-0.139-0.127-0.134-0.357,0-0.485c0.706-0.682,1.542-1.223,2.44-1.642
				c0.772-0.358,1.526-0.319,2.325-0.558c1.453-0.436,1.396-1.986,1.782-3.26c-0.885,0.867-0.982,1.469-1.356,2.626
				c-2.556,0.495-5.084,1.252-6.788,3.347c1.935,0.419,2.462,2.412,3.742,3.794c1.073,1.158,2.085,1.273,3.234,1.016
				C173.414,389.752,171.354,386.386,170.126,385.262z"/>
			<path style="fill:#B4D334;" d="M196.108,378.718c-0.853-0.14-1.665,0.26-2.474,0.09c-0.797-0.168-1.458-0.817-2.315-0.955
				c-1.941-0.312-2.899,0.431-4.524-0.636c-3.366-2.213-5.12-1.055-8.741-0.395c0.239,0.522,0.197,0.891,0.011,1.198
				c2.234-1.749,5.341-2.072,8.032-1.031c0.614,0.24,1.053,0.752,1.648,1.011c1.094,0.478,2.084-0.003,3.167,0.222
				c1.334,0.276,3.022,2.274,4.388,1.496c0.211-0.119,0.433,0.002,0.515,0.205c1.343,3.374-1.528,5.305-3.757,7.382
				c1.827-0.412,3.72-0.905,4.529-2.785C197.371,382.697,196.625,380.514,196.108,378.718z"/>
			<path style="fill:#B4D334;" d="M178.244,393.156c0.236-0.059,0.416-0.166,0.69-0.134c0.455,0.051,0.811,0.453,1.307,0.389
				c0.496-0.065,0.568-0.49,0.908-0.746c0.511-0.38,0.914-0.29,1.533-0.366c0.609-0.074,1.334-0.566,1.912-0.571
				c0.695-0.008,0.96,0.612,1.568,0.821c0.671,0.23,1.084-0.225,1.561-0.595c0.511-0.397,1.239-0.541,1.664-0.941
				c0.429-0.406,2.31-1.456,1.118-2.069c-1-0.513-1.413,1.059-2.129,1.237c-0.856,0.211-1.149-0.512-1.997,0.284
				c-0.716,0.671-1.083,0.677-2.016,0.734c-1.541,0.092-3.331,1.049-4.829,0.347c-0.928-0.434-3.413-0.466-3.321,1.058
				c0.413,0.663,1.165,0.663,1.865,0.583C178.139,393.18,178.192,393.169,178.244,393.156z"/>
			<path style="fill:#92B33D;" d="M185.092,377.331c-0.949-0.212-1.449,0.365-2.298,0.698c-0.547,0.215-1.053,0.272-1.591,0.374
				c-1.11,0.208-2.561,0.303-3.504,1.044c-0.56,0.44-1.872,2.676-0.518,2.963c-1.558-0.01-1.443,0.593-2.29,1.61
				c-0.587,0.705-2.023,0.904-2.853,1.312c0.005,0.026,0.002,0.179-0.001,0.206c1.117,0.482,1.79,1.485,2.601,2.321
				c0.482,0.496,1.327,0.805,1.952,1.081c-0.018,0.559-0.396,0.857-0.85,1.103c0.428-0.113,0.877-0.268,1.354-0.435
				c-0.312,0.109-1.266,1.965-1.292,2.333c-0.001,0.009,0.001,0.018,0,0.026c0.592-0.514,1.186-1.142,1.526-1.253
				c0.822-0.269,1.617,0.255,2.344,0.48c2.609,0.808,5.473-0.973,7.639-2.238c1.381-0.806,2.946-0.51,4.529-0.305
				c-0.044-0.441-0.166-0.855-0.4-1.207c0.095-0.022,0.192-0.043,0.29-0.065c-1.152-0.652-1.828-1.571-0.655-3.107
				c0.742-0.969,1.752-1.816,0.834-3.029c-0.841-1.111-2.241-0.838-3.489-0.62c-1.05,0.183-3.4,0.96-2.206-0.947
				c0.504-0.805,1.215-1.39,1.992-1.899c-0.232-0.034-0.468-0.097-0.717-0.196C186.547,377.726,185.965,377.526,185.092,377.331z"/>
			<path style="fill:#92B33D;" d="M191.592,390.558c-0.204,0.233-0.403,0.469-0.61,0.633c-0.562,0.448-1.122,0.783-1.77,1.109
				c-1.153,0.58-2.362,1.282-3.742,1.007c-0.604-0.122-1.024-0.511-1.663-0.555c-0.765-0.052-0.979,0.231-1.495,0.628
				c-1.036,0.795-2.025,0.949-3.359,0.813c-0.623-0.063-1.174,0.023-1.794-0.144c-0.123-0.033-0.243-0.074-0.36-0.118
				c0.245,0.217,0.513,0.397,0.778,0.526c0.762,0.37,1.971,1.421,2.694,1.605c1.06,0.269,1.977-0.517,2.959-0.799
				c2.176-0.626,4.645-0.033,6.49-1.662C190.467,392.942,191.21,391.773,191.592,390.558z"/>
			<path style="fill:#9F9D36;" d="M176.546,386.102c0.104,2.276,1.323,3.187,3.789,3.457c1.407,0.152,2.674-0.036,3.974-0.34
				c2.383-0.554,5.401-2.585,4.566-5.224c-0.482-1.521-1.898-2.681-3.655-2.854c-0.607-0.059-1.279-0.03-1.89-0.012
				C180.08,381.225,176.381,382.526,176.546,386.102z"/>
			<path style="fill:#928130;" d="M188.874,383.995c-0.482-1.521-1.898-2.681-3.655-2.854c-0.607-0.059-1.279-0.03-1.89-0.012
				c-3.249,0.095-6.948,1.397-6.783,4.972c0.104,2.276,1.323,3.187,3.789,3.457c1.407,0.152,2.674-0.036,3.974-0.34
				C186.691,388.664,189.71,386.634,188.874,383.995z M184.482,386.897c-1.661,0.593-3.767,0.953-5.512,0.559
				c-0.853-0.193-1.835-0.624-1.867-1.546c-0.072-2.146,2.23-3.613,4.121-4.09c1.744-0.44,3.867-0.467,5.545,0.227
				c1.216,0.504,1.287,1.551,0.853,2.641C187.165,385.842,185.64,386.483,184.482,386.897z"/>
			<g>
				<path style="fill:#7A5A24;" d="M182.718,382.032c-0.634-0.644-1.359-1.461-2.289-1.677c-0.884-0.206-1.785,0.518-1.556,1.439
					c0.104,0.418,0.634,0.413,0.945,0.601c0.366,0.223,0.682,0.596,0.847,0.983c0.223,0.519-0.108,1.084,0.266,1.555
					c0.652,0.823,2.462,0.33,2.83-0.555C184.11,383.536,183.264,382.587,182.718,382.032z"/>
				<path style="fill:#5B4319;" d="M178.841,381.556c0.991-0.391,2.133-0.418,2.859,0.447c0.427,0.509,0.785,1.176,0.542,1.854
					c-0.228,0.635-0.755,0.953-1.356,1c0.016,0.025,0.025,0.051,0.046,0.076c0.652,0.823,2.462,0.33,2.83-0.555
					c0.35-0.842-0.496-1.791-1.042-2.346c-0.634-0.644-1.359-1.461-2.289-1.677C179.623,380.166,178.805,380.754,178.841,381.556z"
					/>
				<path style="fill:#A0762B;" d="M180.411,381.309c0.141-0.217,0.374-0.549,0.116-0.774c-0.096-0.082-0.202-0.149-0.313-0.21
					c-0.807-0.055-1.55,0.625-1.34,1.469c0.012,0.049,0.031,0.091,0.054,0.129C179.512,382.026,180.046,381.873,180.411,381.309z"/>
				<path style="fill:#B6862F;" d="M180.527,380.534c-0.096-0.082-0.202-0.149-0.313-0.21c-0.169-0.012-0.332,0.016-0.486,0.063
					c0.102-0.01,0.204-0.015,0.308-0.015c0.178-0.001,0.369,0.157,0.351,0.343c-0.015,0.152-0.075,0.291-0.161,0.415
					c-0.169,0.376-0.54,0.645-0.986,0.665c-0.132,0.006-0.266-0.026-0.376-0.091c0.005,0.03,0.003,0.058,0.011,0.089
					c0.012,0.049,0.031,0.091,0.054,0.129c0.584,0.104,1.119-0.05,1.484-0.614C180.552,381.092,180.785,380.76,180.527,380.534z"/>
			</g>
			<path style="fill:#928130;" d="M179.766,385.429c-0.014-0.017-0.028-0.033-0.041-0.049c-0.235-0.288-0.343-0.832-0.253-1.188
				c0.106-0.418,0.491-0.68,0.688-1.051c-1.269-0.062-2.451,1.799-1.578,2.803c0.86,0.989,2.836,0.854,4.015,0.565
				c1.045-0.256,5.374-1.334,4.358-3.124c-0.187-0.328-0.71-0.504-1.075-0.507c-0.636-0.003,0.136,0.391,0.053,0.79
				c-0.107,0.524-0.833,0.985-1.223,1.32c-0.433,0.371-1.121,0.505-1.664,0.672C182.048,385.966,180.56,386.344,179.766,385.429z"/>
		</g>
		<path style="opacity:0.43;fill:#FAA432;" d="M168.838,402.591c2.641,1.446,7.849,3.7,9.535,0.373
			c2.279-4.496-3.126-11.144-7.561-12.119C163.212,389.172,164.029,399.956,168.838,402.591z"/>
		<path style="opacity:0.43;fill:#FCB432;" d="M174.524,398.374c0.572-1.084,0.486-2.095,0.006-2.949
			c-1.066-1.894-6.932-4.432-7.204-0.891C167.13,397.067,172.852,401.543,174.524,398.374z"/>
	</g>
	<g>
		<path style="fill:#E54E25;" d="M288.251,362.727c-4.132,9.412-1.592,24.385,10.204,31.108c13.311,7.586,30.319,1.065,36.05-13.258
			c4.209-10.52,2.619-20.4-6.518-27.993C315.958,342.586,294.447,348.613,288.251,362.727z"/>
		<path style="opacity:0.52;fill:#F6941E;" d="M290.289,374.388c1.292,5.798,4.308,10.661,10.7,11.674
			c4.414,0.698,9.163-0.993,12.286-4.104c2.961-2.948,3.664-7.735,3.306-11.685c-0.189-2.105-0.558-4.425-1.775-6.238
			c-2.043-3.041-6.412-5.173-9.926-6.167C294.372,354.894,288.336,365.615,290.289,374.388z"/>
		<path style="fill:#DB3A26;" d="M327.987,352.584c-1.446-1.203-3.031-2.172-4.711-2.925c-4.748,1.117-9.056,3.355-13.087,6.056
			c10.608,2.102,9.985,17.231,7.075,25.153c-2.183,5.938-6.621,12.048-13.485,12.889c-2.43,0.298-4.774-0.115-6.984-0.973
			c0.531,0.368,1.082,0.721,1.66,1.051c13.311,7.586,30.319,1.065,36.05-13.258C338.714,370.057,337.124,360.176,327.987,352.584z"
			/>
		<path style="fill:#CD2E27;" d="M313.664,391.621c-2.456,1.443-5.155,2.939-7.989,3.61c0.208-0.049,11.625,2.386,21.882-6.494
			c4.49-3.886,12.938-18.256,3.194-29.756c-3.533-4.169-9.903-7.273-15.668-4.62c-0.435,0.2-0.861,0.278-1.264,0.264
			c2.522,1.015,5.177,1.897,7.155,3.786c2.285,2.184,3.596,5.177,4.08,8.239c0.979,6.2,0.105,12.939-3.824,18.091
			C319.151,387.465,316.665,389.86,313.664,391.621z"/>
		<path style="opacity:0.33;fill:#F6941E;" d="M327.987,352.584c-12.029-9.998-33.54-3.971-39.736,10.143
			c-4.132,9.412-1.592,24.385,10.204,31.108c0.049,0.028,0.099,0.055,0.15,0.083c-0.305-0.283-10.712-5.911-11.087-21.572
			c-0.105-4.397,1.801-9.711,4.241-13.366c2.667-3.995,7.563-7.705,13.226-9.394c2.304-0.687,13.887-2.011,22.323,3.431
			c6.737,4.345,9.04,13.532,9.349,15.334C336.227,362.51,333.464,357.136,327.987,352.584z"/>
		<path style="opacity:0.43;fill:#F6941E;" d="M327.987,352.584c-10.661-8.862-28.774-5.133-37.066,5.658
			c0.287,1.482,0.818,2.983,1.151,4.501c0.43,1.962,0.537,4.262,1.996,5.922c1.688,1.921,3.932,1.207,6.007,2.119
			c4.208,1.851,6.911,4.741,12.133,2.792c3.524-1.315,7.617-2.937,10.866-4.745c4.218-2.346,7.648-8.503,7.676-13.633
			C329.918,354.3,329.004,353.427,327.987,352.584z"/>
		<g>
			<path style="fill:#A3C93A;" d="M304.862,364.594c0.761,0.37,1.97,1.421,2.694,1.605c1.06,0.269,1.977-0.517,2.959-0.799
				c2.176-0.626,4.645-0.033,6.49-1.662c1.435-1.267,2.871-4.42,1.719-6.154c2.002-0.457,4.249-0.831,5.149-2.924
				c0.783-1.824,0.037-4.008-0.48-5.803c-0.853-0.14-1.665,0.26-2.474,0.09c-0.797-0.168-1.458-0.817-2.315-0.955
				c-1.941-0.312-2.899,0.431-4.524-0.636c-3.366-2.213-5.12-1.055-8.741-0.395c0.568,1.243-0.442,1.618-1.245,2.358
				c-1.024,0.944-1.099,1.542-1.492,2.762c-2.556,0.495-5.084,1.252-6.788,3.347c1.935,0.419,2.462,2.412,3.742,3.794
				c1.538,1.662,2.952,1.18,4.822,0.525c-0.312,0.109-1.266,1.965-1.292,2.333C303.015,363.128,303.958,364.154,304.862,364.594z"/>
			<path style="fill:#B4D334;" d="M297.411,355.4c-0.139-0.127-0.133-0.357,0-0.485c0.706-0.682,1.542-1.223,2.44-1.642
				c0.772-0.358,1.526-0.319,2.325-0.558c1.453-0.436,1.396-1.986,1.782-3.26c-0.885,0.867-0.982,1.469-1.355,2.626
				c-2.556,0.495-5.084,1.252-6.788,3.347c1.935,0.419,2.462,2.412,3.742,3.794c1.073,1.159,2.085,1.273,3.234,1.016
				C300.699,359.89,298.639,356.524,297.411,355.4z"/>
			<path style="fill:#B4D334;" d="M323.393,348.856c-0.853-0.14-1.665,0.26-2.474,0.09c-0.797-0.168-1.458-0.817-2.315-0.955
				c-1.941-0.312-2.899,0.431-4.524-0.636c-3.366-2.213-5.12-1.055-8.741-0.395c0.239,0.522,0.197,0.891,0.011,1.198
				c2.234-1.749,5.341-2.072,8.032-1.031c0.614,0.24,1.053,0.752,1.648,1.011c1.094,0.478,2.084-0.003,3.167,0.222
				c1.334,0.276,3.022,2.275,4.388,1.496c0.211-0.119,0.433,0.002,0.515,0.205c1.343,3.374-1.528,5.305-3.756,7.382
				c1.827-0.412,3.72-0.905,4.529-2.785C324.656,352.835,323.91,350.652,323.393,348.856z"/>
			<path style="fill:#B4D334;" d="M305.529,363.294c0.236-0.059,0.416-0.166,0.69-0.134c0.455,0.051,0.811,0.453,1.307,0.389
				c0.496-0.064,0.569-0.49,0.908-0.746c0.51-0.38,0.914-0.291,1.533-0.366c0.609-0.074,1.334-0.566,1.912-0.571
				c0.695-0.008,0.96,0.612,1.568,0.821c0.671,0.23,1.084-0.225,1.561-0.594c0.511-0.397,1.24-0.541,1.664-0.941
				c0.43-0.406,2.31-1.456,1.118-2.068c-1-0.513-1.413,1.059-2.129,1.237c-0.856,0.211-1.149-0.512-1.996,0.284
				c-0.716,0.671-1.083,0.677-2.016,0.734c-1.541,0.092-3.331,1.049-4.829,0.347c-0.928-0.434-3.413-0.466-3.321,1.058
				c0.413,0.663,1.165,0.663,1.865,0.583C305.424,363.318,305.477,363.307,305.529,363.294z"/>
			<path style="fill:#92B33D;" d="M312.377,347.469c-0.949-0.212-1.449,0.365-2.298,0.698c-0.547,0.215-1.053,0.272-1.59,0.374
				c-1.11,0.208-2.561,0.304-3.504,1.044c-0.56,0.44-1.872,2.676-0.518,2.964c-1.558-0.01-1.443,0.593-2.29,1.61
				c-0.587,0.705-2.023,0.904-2.853,1.312c0.005,0.026,0.002,0.179-0.001,0.206c1.117,0.482,1.79,1.485,2.601,2.321
				c0.482,0.496,1.327,0.805,1.953,1.08c-0.018,0.559-0.396,0.857-0.85,1.103c0.428-0.113,0.877-0.268,1.354-0.435
				c-0.312,0.109-1.266,1.965-1.292,2.333c0,0.009,0.001,0.018,0,0.027c0.592-0.514,1.186-1.143,1.526-1.253
				c0.822-0.269,1.617,0.255,2.344,0.48c2.609,0.808,5.473-0.973,7.639-2.238c1.381-0.806,2.946-0.51,4.529-0.305
				c-0.043-0.441-0.166-0.855-0.4-1.207c0.095-0.022,0.192-0.043,0.29-0.065c-1.152-0.652-1.828-1.571-0.655-3.107
				c0.742-0.969,1.752-1.816,0.834-3.029c-0.841-1.111-2.241-0.838-3.489-0.621c-1.05,0.183-3.4,0.96-2.207-0.947
				c0.504-0.805,1.215-1.39,1.992-1.899c-0.232-0.034-0.468-0.097-0.717-0.196C313.832,347.864,313.25,347.664,312.377,347.469z"/>
			<path style="fill:#92B33D;" d="M318.877,360.696c-0.204,0.233-0.403,0.469-0.61,0.633c-0.562,0.448-1.122,0.783-1.77,1.109
				c-1.153,0.581-2.362,1.282-3.742,1.007c-0.604-0.122-1.023-0.511-1.663-0.555c-0.765-0.052-0.979,0.231-1.495,0.628
				c-1.036,0.795-2.025,0.949-3.359,0.813c-0.622-0.063-1.174,0.023-1.794-0.144c-0.123-0.033-0.243-0.074-0.36-0.118
				c0.245,0.217,0.513,0.397,0.778,0.526c0.761,0.37,1.97,1.421,2.694,1.605c1.06,0.269,1.977-0.517,2.959-0.799
				c2.176-0.626,4.645-0.033,6.49-1.662C317.752,363.08,318.495,361.911,318.877,360.696z"/>
			<path style="fill:#9F9D36;" d="M303.831,356.24c0.104,2.276,1.323,3.187,3.789,3.457c1.407,0.152,2.674-0.036,3.974-0.34
				c2.383-0.554,5.401-2.585,4.566-5.224c-0.482-1.521-1.898-2.681-3.655-2.854c-0.607-0.059-1.279-0.03-1.89-0.012
				C307.365,351.363,303.666,352.664,303.831,356.24z"/>
			<path style="fill:#928130;" d="M316.159,354.133c-0.482-1.521-1.898-2.681-3.655-2.854c-0.607-0.059-1.279-0.03-1.89-0.012
				c-3.249,0.095-6.948,1.397-6.783,4.972c0.104,2.276,1.323,3.187,3.789,3.457c1.407,0.152,2.674-0.036,3.974-0.34
				C313.976,358.802,316.995,356.772,316.159,354.133z M311.767,357.035c-1.661,0.593-3.767,0.953-5.512,0.559
				c-0.853-0.193-1.835-0.624-1.867-1.546c-0.072-2.146,2.23-3.613,4.121-4.09c1.744-0.44,3.867-0.468,5.545,0.227
				c1.216,0.504,1.287,1.551,0.854,2.641C314.45,355.98,312.925,356.621,311.767,357.035z"/>
			<g>
				<path style="fill:#7A5A24;" d="M310.003,352.17c-0.634-0.644-1.359-1.461-2.289-1.677c-0.884-0.206-1.785,0.518-1.556,1.439
					c0.104,0.418,0.634,0.413,0.945,0.601c0.366,0.223,0.682,0.596,0.847,0.983c0.223,0.519-0.108,1.084,0.266,1.555
					c0.652,0.823,2.462,0.33,2.83-0.555C311.395,353.674,310.549,352.725,310.003,352.17z"/>
				<path style="fill:#5B4319;" d="M306.125,351.694c0.991-0.391,2.133-0.418,2.859,0.447c0.428,0.509,0.785,1.176,0.542,1.854
					c-0.228,0.635-0.755,0.953-1.356,1c0.016,0.025,0.026,0.051,0.046,0.076c0.652,0.823,2.462,0.33,2.83-0.555
					c0.35-0.842-0.496-1.791-1.042-2.346c-0.634-0.644-1.359-1.461-2.289-1.677C306.908,350.304,306.09,350.892,306.125,351.694z"/>
				<path style="fill:#A0762B;" d="M307.696,351.447c0.141-0.217,0.374-0.549,0.115-0.774c-0.095-0.082-0.202-0.149-0.313-0.21
					c-0.807-0.055-1.551,0.625-1.34,1.469c0.012,0.049,0.031,0.091,0.054,0.129C306.796,352.164,307.331,352.011,307.696,351.447z"
					/>
				<path style="fill:#B6862F;" d="M307.811,350.672c-0.095-0.082-0.202-0.149-0.313-0.21c-0.169-0.012-0.332,0.016-0.486,0.063
					c0.102-0.01,0.204-0.015,0.308-0.015c0.178-0.001,0.369,0.157,0.351,0.343c-0.015,0.152-0.075,0.291-0.161,0.415
					c-0.169,0.376-0.54,0.645-0.987,0.665c-0.132,0.006-0.265-0.026-0.376-0.091c0.005,0.03,0.003,0.058,0.011,0.089
					c0.012,0.049,0.031,0.091,0.054,0.129c0.584,0.104,1.119-0.05,1.484-0.614C307.837,351.23,308.07,350.898,307.811,350.672z"/>
			</g>
			<path style="fill:#928130;" d="M307.051,355.567c-0.014-0.017-0.028-0.033-0.041-0.049c-0.235-0.288-0.343-0.832-0.253-1.188
				c0.106-0.418,0.491-0.68,0.688-1.051c-1.269-0.062-2.451,1.799-1.577,2.803c0.86,0.989,2.836,0.854,4.015,0.565
				c1.045-0.256,5.375-1.334,4.358-3.124c-0.187-0.328-0.71-0.504-1.076-0.507c-0.636-0.003,0.136,0.391,0.054,0.79
				c-0.108,0.524-0.833,0.985-1.223,1.319c-0.433,0.371-1.121,0.505-1.664,0.672C309.333,356.104,307.845,356.482,307.051,355.567z"
				/>
		</g>
		<path style="opacity:0.43;fill:#FAA432;" d="M296.122,372.729c2.642,1.446,7.85,3.7,9.535,0.373
			c2.279-4.496-3.126-11.144-7.561-12.119C290.497,359.31,291.314,370.094,296.122,372.729z"/>
		<path style="opacity:0.43;fill:#FCB432;" d="M301.809,368.512c0.572-1.084,0.486-2.095,0.006-2.949
			c-1.066-1.894-6.931-4.432-7.204-0.891C294.415,367.205,300.137,371.681,301.809,368.512z"/>
	</g>
	<g>
		<path style="fill:#E54E25;" d="M238.893,401.235c-4.132,9.412-1.591,24.385,10.204,31.108c13.311,7.586,30.319,1.065,36.05-13.258
			c4.209-10.52,2.619-20.4-6.518-27.993C266.6,381.094,245.089,387.121,238.893,401.235z"/>
		<path style="opacity:0.52;fill:#F6941E;" d="M240.931,412.896c1.292,5.798,4.308,10.661,10.699,11.674
			c4.414,0.698,9.163-0.993,12.287-4.103c2.961-2.948,3.663-7.735,3.306-11.685c-0.189-2.105-0.558-4.425-1.775-6.238
			c-2.043-3.041-6.412-5.173-9.926-6.167C245.014,393.402,238.977,404.123,240.931,412.896z"/>
		<path style="fill:#DB3A26;" d="M278.629,391.092c-1.446-1.203-3.031-2.172-4.711-2.925c-4.748,1.116-9.056,3.355-13.087,6.056
			c10.608,2.102,9.985,17.231,7.075,25.153c-2.183,5.938-6.62,12.047-13.485,12.889c-2.43,0.298-4.774-0.115-6.984-0.973
			c0.532,0.368,1.082,0.721,1.66,1.051c13.311,7.586,30.319,1.065,36.05-13.258C289.356,408.564,287.765,398.684,278.629,391.092z"
			/>
		<path style="fill:#CD2E27;" d="M264.306,430.128c-2.456,1.443-5.155,2.939-7.99,3.61c0.208-0.049,11.625,2.386,21.882-6.494
			c4.49-3.886,12.938-18.256,3.194-29.756c-3.533-4.169-9.903-7.273-15.668-4.62c-0.435,0.201-0.861,0.278-1.264,0.264
			c2.522,1.015,5.177,1.897,7.155,3.786c2.285,2.184,3.596,5.177,4.08,8.239c0.979,6.2,0.105,12.939-3.824,18.091
			C269.793,425.973,267.307,428.368,264.306,430.128z"/>
		<path style="opacity:0.33;fill:#F6941E;" d="M278.629,391.092c-12.028-9.998-33.539-3.971-39.736,10.143
			c-4.132,9.412-1.591,24.385,10.204,31.108c0.049,0.028,0.099,0.055,0.15,0.083c-0.305-0.283-10.712-5.912-11.087-21.572
			c-0.105-4.397,1.801-9.711,4.241-13.365c2.667-3.995,7.563-7.705,13.226-9.394c2.304-0.687,13.887-2.011,22.323,3.431
			c6.737,4.345,9.041,13.532,9.349,15.334C286.869,401.017,284.106,395.644,278.629,391.092z"/>
		<path style="opacity:0.43;fill:#F6941E;" d="M278.629,391.092c-10.661-8.862-28.774-5.133-37.066,5.659
			c0.287,1.482,0.818,2.983,1.151,4.501c0.43,1.962,0.537,4.262,1.996,5.922c1.688,1.921,3.932,1.208,6.007,2.12
			c4.208,1.851,6.911,4.741,12.133,2.791c3.523-1.315,7.617-2.937,10.866-4.745c4.218-2.346,7.648-8.503,7.676-13.633
			C280.56,392.808,279.646,391.935,278.629,391.092z"/>
		<g>
			<path style="fill:#A3C93A;" d="M255.504,403.102c0.761,0.37,1.97,1.42,2.694,1.605c1.06,0.269,1.977-0.517,2.959-0.799
				c2.176-0.625,4.645-0.033,6.49-1.662c1.435-1.267,2.871-4.42,1.719-6.154c2.002-0.457,4.249-0.831,5.149-2.924
				c0.783-1.825,0.037-4.008-0.48-5.804c-0.852-0.14-1.665,0.26-2.473,0.091c-0.797-0.168-1.458-0.818-2.315-0.955
				c-1.941-0.312-2.899,0.431-4.524-0.636c-3.366-2.213-5.12-1.055-8.741-0.395c0.568,1.243-0.442,1.618-1.245,2.358
				c-1.024,0.944-1.099,1.543-1.492,2.762c-2.556,0.495-5.084,1.252-6.788,3.347c1.935,0.419,2.462,2.412,3.742,3.794
				c1.538,1.662,2.952,1.18,4.822,0.525c-0.312,0.109-1.266,1.965-1.292,2.333C253.657,401.636,254.599,402.662,255.504,403.102z"/>
			<path style="fill:#B4D334;" d="M248.053,393.908c-0.139-0.128-0.133-0.357,0-0.485c0.706-0.682,1.542-1.223,2.44-1.642
				c0.772-0.358,1.526-0.319,2.325-0.558c1.453-0.437,1.396-1.986,1.782-3.26c-0.885,0.867-0.982,1.469-1.355,2.626
				c-2.556,0.495-5.084,1.252-6.788,3.347c1.935,0.419,2.462,2.412,3.742,3.794c1.073,1.158,2.085,1.273,3.234,1.016
				C251.34,398.398,249.281,395.032,248.053,393.908z"/>
			<path style="fill:#B4D334;" d="M274.035,387.364c-0.852-0.14-1.665,0.26-2.473,0.091c-0.797-0.168-1.458-0.818-2.315-0.955
				c-1.941-0.312-2.899,0.431-4.524-0.636c-3.366-2.213-5.12-1.055-8.741-0.395c0.239,0.522,0.197,0.891,0.011,1.197
				c2.234-1.749,5.341-2.072,8.032-1.03c0.614,0.24,1.053,0.752,1.648,1.011c1.094,0.478,2.084-0.003,3.167,0.222
				c1.334,0.276,3.022,2.275,4.388,1.496c0.211-0.119,0.433,0.002,0.515,0.205c1.343,3.374-1.528,5.305-3.756,7.382
				c1.827-0.412,3.72-0.905,4.529-2.785C275.298,391.343,274.552,389.16,274.035,387.364z"/>
			<path style="fill:#B4D334;" d="M256.171,401.801c0.236-0.058,0.416-0.166,0.689-0.134c0.455,0.051,0.811,0.453,1.307,0.39
				c0.496-0.065,0.569-0.491,0.908-0.746c0.51-0.38,0.914-0.291,1.533-0.366c0.609-0.074,1.334-0.566,1.913-0.571
				c0.695-0.008,0.96,0.612,1.568,0.821c0.671,0.23,1.084-0.225,1.561-0.595c0.511-0.397,1.24-0.541,1.665-0.941
				c0.429-0.406,2.31-1.457,1.118-2.069c-1-0.513-1.413,1.059-2.129,1.237c-0.856,0.211-1.149-0.512-1.996,0.284
				c-0.716,0.671-1.083,0.677-2.016,0.734c-1.541,0.092-3.331,1.049-4.829,0.347c-0.928-0.434-3.413-0.466-3.321,1.058
				c0.412,0.663,1.165,0.663,1.865,0.583C256.066,401.825,256.119,401.815,256.171,401.801z"/>
			<path style="fill:#92B33D;" d="M263.019,385.977c-0.949-0.212-1.449,0.365-2.299,0.698c-0.547,0.215-1.053,0.272-1.59,0.374
				c-1.11,0.208-2.561,0.303-3.504,1.044c-0.56,0.44-1.872,2.676-0.518,2.964c-1.558-0.01-1.443,0.593-2.29,1.61
				c-0.587,0.705-2.023,0.904-2.853,1.312c0.005,0.026,0.002,0.179-0.001,0.206c1.117,0.482,1.79,1.485,2.601,2.321
				c0.482,0.496,1.327,0.805,1.953,1.08c-0.018,0.559-0.396,0.857-0.85,1.103c0.428-0.113,0.877-0.268,1.355-0.435
				c-0.312,0.109-1.266,1.965-1.292,2.333c-0.001,0.009,0,0.018,0,0.027c0.592-0.514,1.185-1.143,1.526-1.253
				c0.822-0.269,1.617,0.255,2.344,0.48c2.609,0.808,5.473-0.973,7.639-2.238c1.381-0.806,2.946-0.51,4.529-0.305
				c-0.043-0.442-0.166-0.855-0.4-1.207c0.095-0.022,0.192-0.043,0.29-0.065c-1.152-0.652-1.828-1.572-0.655-3.107
				c0.742-0.969,1.752-1.816,0.834-3.029c-0.841-1.111-2.241-0.838-3.489-0.621c-1.05,0.183-3.4,0.96-2.207-0.947
				c0.504-0.805,1.215-1.39,1.992-1.899c-0.232-0.034-0.468-0.097-0.717-0.196C264.474,386.372,263.892,386.171,263.019,385.977z"/>
			<path style="fill:#92B33D;" d="M269.519,399.204c-0.204,0.233-0.403,0.469-0.61,0.633c-0.562,0.448-1.122,0.783-1.77,1.109
				c-1.153,0.58-2.362,1.282-3.742,1.007c-0.604-0.122-1.023-0.511-1.663-0.555c-0.765-0.052-0.979,0.23-1.495,0.628
				c-1.036,0.795-2.025,0.949-3.359,0.813c-0.622-0.063-1.174,0.022-1.794-0.145c-0.123-0.033-0.243-0.074-0.36-0.118
				c0.245,0.217,0.513,0.397,0.778,0.526c0.761,0.37,1.97,1.42,2.694,1.605c1.06,0.269,1.977-0.517,2.959-0.799
				c2.176-0.625,4.645-0.033,6.49-1.662C268.394,401.588,269.137,400.418,269.519,399.204z"/>
			<path style="fill:#9F9D36;" d="M254.472,394.747c0.104,2.276,1.323,3.187,3.789,3.457c1.407,0.152,2.674-0.036,3.974-0.34
				c2.383-0.554,5.401-2.585,4.566-5.224c-0.482-1.521-1.898-2.681-3.655-2.854c-0.607-0.059-1.279-0.03-1.89-0.012
				C258.007,389.87,254.308,391.172,254.472,394.747z"/>
			<path style="fill:#928130;" d="M266.801,392.641c-0.482-1.521-1.898-2.681-3.655-2.854c-0.607-0.059-1.279-0.03-1.89-0.012
				c-3.249,0.095-6.948,1.397-6.783,4.972c0.104,2.276,1.323,3.187,3.789,3.457c1.407,0.152,2.674-0.036,3.974-0.34
				C264.618,397.31,267.637,395.28,266.801,392.641z M262.409,395.542c-1.661,0.594-3.767,0.953-5.512,0.559
				c-0.853-0.193-1.835-0.624-1.867-1.546c-0.072-2.146,2.23-3.613,4.121-4.09c1.744-0.44,3.867-0.467,5.545,0.227
				c1.216,0.504,1.287,1.551,0.854,2.641C265.091,394.488,263.567,395.129,262.409,395.542z"/>
			<g>
				<path style="fill:#7A5A24;" d="M260.645,390.678c-0.634-0.644-1.359-1.461-2.289-1.677c-0.884-0.206-1.785,0.518-1.556,1.439
					c0.104,0.418,0.634,0.413,0.945,0.601c0.366,0.223,0.682,0.596,0.846,0.983c0.223,0.519-0.108,1.085,0.265,1.555
					c0.652,0.823,2.462,0.33,2.83-0.555C262.037,392.182,261.191,391.233,260.645,390.678z"/>
				<path style="fill:#5B4319;" d="M256.767,390.202c0.991-0.391,2.133-0.418,2.859,0.447c0.428,0.509,0.785,1.176,0.542,1.854
					c-0.228,0.635-0.754,0.953-1.356,1c0.016,0.025,0.026,0.051,0.046,0.076c0.652,0.823,2.462,0.33,2.83-0.555
					c0.349-0.842-0.496-1.791-1.043-2.346c-0.634-0.644-1.359-1.461-2.289-1.677C257.55,388.811,256.732,389.4,256.767,390.202z"/>
				<path style="fill:#A0762B;" d="M258.338,389.954c0.141-0.217,0.374-0.549,0.115-0.774c-0.095-0.082-0.202-0.15-0.313-0.21
					c-0.807-0.055-1.55,0.625-1.34,1.469c0.012,0.049,0.032,0.091,0.054,0.129C257.438,390.672,257.973,390.518,258.338,389.954z"/>
				<path style="fill:#B6862F;" d="M258.453,389.18c-0.095-0.082-0.202-0.15-0.313-0.21c-0.169-0.012-0.332,0.016-0.486,0.063
					c0.102-0.01,0.204-0.015,0.308-0.015c0.178-0.001,0.369,0.157,0.351,0.343c-0.015,0.152-0.075,0.291-0.161,0.415
					c-0.169,0.376-0.54,0.645-0.986,0.665c-0.133,0.006-0.266-0.026-0.376-0.091c0.005,0.03,0.003,0.058,0.011,0.089
					c0.012,0.049,0.032,0.091,0.054,0.129c0.584,0.104,1.119-0.05,1.484-0.614C258.479,389.737,258.711,389.406,258.453,389.18z"/>
			</g>
			<path style="fill:#928130;" d="M257.693,394.075c-0.014-0.017-0.028-0.033-0.041-0.049c-0.235-0.288-0.343-0.832-0.253-1.188
				c0.106-0.418,0.491-0.68,0.688-1.051c-1.269-0.062-2.451,1.799-1.577,2.803c0.86,0.989,2.836,0.854,4.015,0.565
				c1.045-0.256,5.375-1.334,4.358-3.124c-0.187-0.328-0.71-0.504-1.076-0.507c-0.636-0.003,0.136,0.391,0.054,0.79
				c-0.108,0.524-0.833,0.985-1.223,1.319c-0.433,0.371-1.121,0.505-1.664,0.672C259.975,394.612,258.487,394.99,257.693,394.075z"
				/>
		</g>
		<path style="opacity:0.43;fill:#FAA432;" d="M246.764,411.236c2.642,1.446,7.85,3.7,9.535,0.373
			c2.279-4.496-3.126-11.144-7.561-12.119C241.138,397.818,241.955,408.602,246.764,411.236z"/>
		<path style="opacity:0.43;fill:#FCB432;" d="M252.451,407.02c0.572-1.084,0.486-2.095,0.006-2.949
			c-1.066-1.894-6.931-4.432-7.204-0.891C245.057,405.713,250.779,410.189,252.451,407.02z"/>
	</g>
	<g>
		<path style="fill:#E54E25;" d="M286.914,441.97c-4.132,9.412-1.591,24.385,10.204,31.107c13.311,7.586,30.319,1.065,36.051-13.258
			c4.209-10.52,2.619-20.4-6.518-27.993C314.621,421.829,293.11,427.856,286.914,441.97z"/>
		<path style="opacity:0.52;fill:#F6941E;" d="M288.952,453.632c1.292,5.798,4.308,10.661,10.699,11.674
			c4.414,0.698,9.163-0.993,12.287-4.103c2.961-2.948,3.664-7.735,3.306-11.686c-0.189-2.105-0.558-4.425-1.775-6.238
			c-2.043-3.041-6.412-5.173-9.926-6.167C293.035,434.138,286.999,444.858,288.952,453.632z"/>
		<path style="fill:#DB3A26;" d="M326.65,431.827c-1.446-1.203-3.031-2.172-4.711-2.925c-4.748,1.116-9.056,3.355-13.087,6.056
			c10.608,2.102,9.985,17.231,7.075,25.153c-2.183,5.938-6.621,12.047-13.485,12.889c-2.43,0.298-4.774-0.115-6.984-0.973
			c0.531,0.368,1.082,0.721,1.66,1.051c13.311,7.586,30.319,1.065,36.051-13.258C337.377,449.3,335.787,439.419,326.65,431.827z"/>
		<path style="fill:#CD2E27;" d="M312.327,470.864c-2.456,1.443-5.155,2.939-7.989,3.61c0.208-0.049,11.625,2.386,21.882-6.494
			c4.49-3.886,12.938-18.256,3.194-29.756c-3.533-4.169-9.903-7.273-15.668-4.62c-0.435,0.2-0.861,0.278-1.264,0.264
			c2.522,1.015,5.177,1.897,7.155,3.786c2.285,2.184,3.596,5.177,4.08,8.239c0.979,6.2,0.105,12.939-3.824,18.091
			C317.814,466.709,315.328,469.103,312.327,470.864z"/>
		<path style="opacity:0.33;fill:#F6941E;" d="M326.65,431.827c-12.028-9.998-33.54-3.971-39.736,10.143
			c-4.132,9.412-1.591,24.385,10.204,31.107c0.049,0.028,0.099,0.055,0.15,0.083c-0.305-0.283-10.712-5.912-11.087-21.572
			c-0.105-4.397,1.801-9.711,4.241-13.365c2.667-3.995,7.563-7.704,13.226-9.394c2.304-0.687,13.887-2.011,22.323,3.431
			c6.737,4.345,9.04,13.532,9.349,15.334C334.89,441.753,332.127,436.379,326.65,431.827z"/>
		<path style="opacity:0.43;fill:#F6941E;" d="M326.65,431.827c-10.661-8.862-28.774-5.133-37.066,5.659
			c0.287,1.482,0.818,2.983,1.151,4.501c0.43,1.962,0.537,4.262,1.996,5.922c1.688,1.921,3.932,1.208,6.007,2.12
			c4.208,1.851,6.911,4.741,12.133,2.791c3.524-1.315,7.617-2.937,10.866-4.745c4.218-2.346,7.648-8.503,7.676-13.633
			C328.581,433.543,327.667,432.67,326.65,431.827z"/>
		<g>
			<path style="fill:#A3C93A;" d="M303.525,443.838c0.761,0.37,1.97,1.42,2.694,1.605c1.06,0.269,1.977-0.517,2.959-0.799
				c2.176-0.625,4.645-0.033,6.49-1.662c1.435-1.267,2.871-4.42,1.719-6.154c2.002-0.457,4.249-0.831,5.149-2.924
				c0.783-1.825,0.037-4.008-0.48-5.804c-0.852-0.14-1.665,0.26-2.474,0.091c-0.797-0.168-1.458-0.818-2.315-0.955
				c-1.941-0.312-2.899,0.431-4.524-0.636c-3.366-2.213-5.12-1.055-8.741-0.395c0.568,1.243-0.442,1.618-1.245,2.358
				c-1.024,0.944-1.099,1.543-1.492,2.762c-2.556,0.495-5.084,1.252-6.788,3.347c1.935,0.419,2.462,2.412,3.742,3.794
				c1.538,1.662,2.952,1.18,4.822,0.525c-0.312,0.109-1.266,1.965-1.292,2.333C301.678,442.371,302.621,443.397,303.525,443.838z"/>
			<path style="fill:#B4D334;" d="M296.074,434.643c-0.139-0.128-0.133-0.357,0-0.485c0.706-0.682,1.542-1.223,2.44-1.642
				c0.772-0.358,1.526-0.319,2.325-0.558c1.453-0.437,1.396-1.986,1.782-3.26c-0.885,0.867-0.982,1.469-1.355,2.626
				c-2.556,0.495-5.084,1.252-6.788,3.347c1.935,0.419,2.462,2.412,3.742,3.794c1.073,1.158,2.085,1.273,3.234,1.016
				C299.362,439.134,297.302,435.767,296.074,434.643z"/>
			<path style="fill:#B4D334;" d="M322.056,428.099c-0.852-0.14-1.665,0.26-2.474,0.091c-0.797-0.168-1.458-0.818-2.315-0.955
				c-1.941-0.312-2.899,0.431-4.524-0.636c-3.366-2.213-5.12-1.055-8.741-0.395c0.239,0.522,0.197,0.891,0.011,1.197
				c2.234-1.749,5.341-2.072,8.032-1.03c0.614,0.24,1.053,0.752,1.648,1.011c1.094,0.478,2.084-0.003,3.167,0.222
				c1.334,0.276,3.022,2.275,4.388,1.496c0.211-0.119,0.433,0.002,0.515,0.205c1.343,3.374-1.528,5.305-3.756,7.382
				c1.827-0.412,3.72-0.905,4.529-2.785C323.319,432.078,322.573,429.895,322.056,428.099z"/>
			<path style="fill:#B4D334;" d="M304.192,442.537c0.236-0.058,0.416-0.166,0.69-0.134c0.455,0.051,0.811,0.453,1.307,0.39
				c0.496-0.064,0.569-0.491,0.908-0.746c0.51-0.38,0.914-0.29,1.533-0.366c0.609-0.074,1.334-0.566,1.912-0.571
				c0.695-0.008,0.96,0.613,1.568,0.821c0.671,0.23,1.084-0.225,1.561-0.595c0.511-0.397,1.239-0.541,1.664-0.941
				c0.43-0.406,2.31-1.457,1.118-2.069c-1-0.514-1.413,1.059-2.129,1.237c-0.856,0.211-1.149-0.512-1.996,0.284
				c-0.716,0.671-1.083,0.677-2.016,0.734c-1.541,0.092-3.331,1.049-4.829,0.347c-0.928-0.434-3.413-0.466-3.321,1.058
				c0.412,0.663,1.165,0.663,1.865,0.583C304.087,442.561,304.14,442.55,304.192,442.537z"/>
			<path style="fill:#92B33D;" d="M311.04,426.712c-0.949-0.212-1.449,0.365-2.298,0.698c-0.547,0.215-1.053,0.272-1.59,0.374
				c-1.11,0.208-2.561,0.303-3.504,1.044c-0.56,0.44-1.872,2.676-0.518,2.963c-1.558-0.01-1.443,0.593-2.29,1.61
				c-0.587,0.705-2.023,0.903-2.853,1.312c0.005,0.026,0.002,0.179-0.001,0.206c1.117,0.482,1.79,1.485,2.6,2.321
				c0.482,0.496,1.327,0.805,1.952,1.081c-0.018,0.559-0.396,0.857-0.85,1.103c0.428-0.113,0.877-0.268,1.354-0.435
				c-0.312,0.109-1.266,1.965-1.292,2.333c0,0.009,0.001,0.018,0,0.026c0.592-0.514,1.186-1.143,1.526-1.253
				c0.822-0.269,1.617,0.255,2.344,0.48c2.609,0.808,5.473-0.973,7.639-2.238c1.381-0.806,2.946-0.51,4.529-0.305
				c-0.043-0.442-0.166-0.855-0.4-1.207c0.095-0.022,0.192-0.043,0.29-0.065c-1.152-0.652-1.828-1.571-0.655-3.107
				c0.742-0.969,1.752-1.816,0.834-3.029c-0.841-1.111-2.241-0.838-3.489-0.621c-1.05,0.183-3.4,0.96-2.207-0.947
				c0.504-0.805,1.215-1.39,1.992-1.899c-0.232-0.034-0.468-0.097-0.717-0.196C312.495,427.108,311.913,426.907,311.04,426.712z"/>
			<path style="fill:#92B33D;" d="M317.54,439.939c-0.204,0.233-0.403,0.469-0.61,0.633c-0.562,0.448-1.122,0.783-1.77,1.109
				c-1.153,0.581-2.362,1.282-3.742,1.007c-0.604-0.122-1.023-0.511-1.663-0.555c-0.765-0.052-0.979,0.231-1.495,0.628
				c-1.036,0.795-2.025,0.949-3.359,0.813c-0.623-0.063-1.174,0.022-1.794-0.145c-0.123-0.033-0.242-0.074-0.36-0.118
				c0.245,0.217,0.513,0.397,0.778,0.526c0.761,0.37,1.97,1.42,2.694,1.605c1.06,0.269,1.977-0.517,2.959-0.799
				c2.176-0.625,4.645-0.033,6.49-1.662C316.415,442.323,317.158,441.154,317.54,439.939z"/>
			<path style="fill:#9F9D36;" d="M302.494,435.483c0.104,2.276,1.323,3.187,3.789,3.456c1.407,0.152,2.674-0.036,3.974-0.34
				c2.383-0.554,5.401-2.585,4.566-5.224c-0.482-1.521-1.898-2.681-3.655-2.854c-0.607-0.059-1.279-0.03-1.89-0.012
				C306.028,430.606,302.329,431.908,302.494,435.483z"/>
			<path style="fill:#928130;" d="M314.822,433.376c-0.482-1.521-1.898-2.681-3.655-2.854c-0.607-0.059-1.279-0.03-1.89-0.012
				c-3.249,0.095-6.948,1.397-6.783,4.972c0.104,2.276,1.323,3.187,3.789,3.456c1.407,0.152,2.674-0.036,3.974-0.34
				C312.639,438.045,315.658,436.015,314.822,433.376z M310.43,436.278c-1.661,0.594-3.767,0.953-5.512,0.559
				c-0.853-0.193-1.835-0.624-1.867-1.546c-0.072-2.146,2.23-3.613,4.121-4.09c1.744-0.44,3.867-0.467,5.545,0.227
				c1.216,0.503,1.287,1.551,0.854,2.641C313.113,435.223,311.588,435.865,310.43,436.278z"/>
			<g>
				<path style="fill:#7A5A24;" d="M308.666,431.413c-0.634-0.644-1.359-1.461-2.289-1.677c-0.884-0.206-1.785,0.518-1.556,1.439
					c0.104,0.418,0.634,0.413,0.945,0.601c0.366,0.223,0.682,0.596,0.846,0.983c0.223,0.519-0.108,1.085,0.266,1.555
					c0.652,0.823,2.462,0.33,2.83-0.555C310.058,432.918,309.212,431.968,308.666,431.413z"/>
				<path style="fill:#5B4319;" d="M304.788,430.937c0.991-0.391,2.133-0.418,2.859,0.447c0.428,0.509,0.785,1.176,0.542,1.854
					c-0.228,0.635-0.755,0.953-1.356,1c0.016,0.025,0.025,0.051,0.046,0.076c0.652,0.823,2.462,0.33,2.83-0.555
					c0.35-0.842-0.496-1.791-1.042-2.346c-0.634-0.644-1.359-1.461-2.289-1.677C305.571,429.547,304.753,430.135,304.788,430.937z"
					/>
				<path style="fill:#A0762B;" d="M306.359,430.69c0.141-0.217,0.374-0.549,0.115-0.774c-0.095-0.082-0.202-0.15-0.313-0.21
					c-0.807-0.055-1.551,0.625-1.34,1.469c0.012,0.049,0.031,0.092,0.054,0.129C305.46,431.407,305.994,431.254,306.359,430.69z"/>
				<path style="fill:#B6862F;" d="M306.475,429.916c-0.095-0.082-0.202-0.15-0.313-0.21c-0.169-0.012-0.332,0.016-0.486,0.063
					c0.102-0.01,0.204-0.015,0.308-0.015c0.178-0.001,0.369,0.157,0.351,0.343c-0.015,0.152-0.075,0.291-0.161,0.415
					c-0.169,0.376-0.54,0.645-0.987,0.665c-0.132,0.006-0.265-0.026-0.376-0.091c0.005,0.03,0.003,0.058,0.011,0.089
					c0.012,0.049,0.031,0.092,0.054,0.129c0.584,0.104,1.119-0.05,1.484-0.614C306.5,430.473,306.733,430.141,306.475,429.916z"/>
			</g>
			<path style="fill:#928130;" d="M305.714,434.81c-0.014-0.017-0.028-0.033-0.041-0.049c-0.235-0.288-0.343-0.832-0.253-1.188
				c0.106-0.418,0.491-0.68,0.688-1.051c-1.269-0.062-2.451,1.799-1.577,2.803c0.86,0.989,2.836,0.854,4.015,0.565
				c1.045-0.256,5.375-1.334,4.358-3.124c-0.187-0.328-0.71-0.504-1.076-0.507c-0.636-0.003,0.136,0.391,0.054,0.79
				c-0.107,0.524-0.833,0.985-1.223,1.319c-0.433,0.371-1.121,0.506-1.664,0.672C307.996,435.347,306.508,435.725,305.714,434.81z"
				/>
		</g>
		<path style="opacity:0.43;fill:#FAA432;" d="M294.785,451.972c2.642,1.446,7.85,3.7,9.535,0.373
			c2.279-4.496-3.126-11.144-7.561-12.119C289.16,438.553,289.977,449.338,294.785,451.972z"/>
		<path style="opacity:0.43;fill:#FCB432;" d="M300.472,447.755c0.572-1.084,0.486-2.095,0.006-2.949
			c-1.066-1.894-6.931-4.432-7.204-0.891C293.078,446.448,298.8,450.924,300.472,447.755z"/>
	</g>
</g>
</svg>
