<?xml version="1.0" encoding="iso-8859-1"?>
<!-- Generator: Adobe Illustrator 23.0.2, SVG Export Plug-In . SVG Version: 6.00 Build 0)  -->
<svg version="1.1" id="Layer_1" xmlns="http://www.w3.org/2000/svg" xmlns:xlink="http://www.w3.org/1999/xlink" x="0px" y="0px"
	 viewBox="0 0 595.276 841.89" style="enable-background:new 0 0 595.276 841.89;" xml:space="preserve">
<g>
	<path style="fill:#0791B6;" d="M245.184,348.943c-4.96,0-8.73-2.4-11.31-7.2s-3.87-11.09-3.87-18.88c0-7.78,1.6-14.52,4.79-20.19
		s7.26-8.51,12.2-8.51s8.72,2.44,11.31,7.32c2.6,4.88,3.9,11.22,3.9,19.03s-1.6,14.51-4.79,20.08
		C254.214,346.163,250.144,348.943,245.184,348.943z M255.474,320.883c0-5.92-0.82-10.71-2.47-14.37s-4.22-5.49-7.72-5.49
		c-2.11,0-3.98,1-5.61,2.99c-0.92,2.09-1.64,4.9-2.17,8.43s-0.79,6.89-0.79,10.08c0,5.87,0.82,10.57,2.45,14.11
		c1.63,3.53,4.21,5.3,7.75,5.3c1.94,0,3.58-1.14,4.94-3.44C254.264,334.363,255.474,328.503,255.474,320.883z"/>
	<path style="fill:#0791B6;" d="M287.884,295.803c1.09-0.8,2.23-1.19,3.44-1.19s2.19,0.55,2.96,1.64c0.77,1.09,1.15,2.41,1.15,3.96
		c0,1.54-0.15,4.94-0.46,10.19s-0.46,9.42-0.46,12.5c0,9.91,0.3,18.14,0.92,24.71c-1.09,0.59-2.3,0.89-3.64,0.89
		c-1.34,0-2.39-0.33-3.13-0.97c-2.17-1.84-7.25-13.48-15.24-34.93c-0.14,1.94-0.2,6.48-0.2,13.62c0,7.14,0.37,14.12,1.12,20.94
		c-1.05,0.6-2.19,0.9-3.41,0.9s-2.22-0.57-2.98-1.72c-0.76-1.15-1.15-2.51-1.15-4.11c0-1.59,0.16-4.92,0.49-10
		c0.32-5.08,0.48-8.91,0.48-11.5c0-9.9-0.32-18.11-0.97-24.63c0.95-0.7,2.35-1.05,4.18-1.05c1.84,0,3.12,1.07,3.87,3.21
		c5.03,14.98,9.83,27.66,14.42,38.06c-0.1-9.55-0.15-14.6-0.15-15.15C289.114,311.883,288.704,303.423,287.884,295.803z"/>
	<path style="fill:#0791B6;" d="M323.714,337.753c0.41,1.34,0.61,2.86,0.61,4.55s-0.4,3.15-1.2,4.37c-0.8,1.22-1.78,1.83-2.93,1.83
		c-3.6,0-9.24-0.3-16.92-0.89c-0.61-0.05-1.15-0.34-1.63-0.86c-0.48-0.52-0.71-1.18-0.71-1.98c0-2.64,0.14-7.09,0.43-13.36
		c0.29-6.27,0.43-12.13,0.43-17.58c0-5.44-0.36-11.7-1.07-18.77c2.51,0.3,5.89,0.45,10.14,0.45s8.31-0.45,12.18-1.35
		c0.41,1.09,0.61,2.4,0.61,3.92c0,1.52-0.4,2.86-1.2,4.03c-0.8,1.17-1.78,1.75-2.96,1.75c-1.17,0-3.04-0.25-5.61-0.75
		c-2.57-0.5-4.46-0.75-5.68-0.75c-0.27,5.03-0.42,9.75-0.46,14.18c2.14,0.3,4.44,0.45,6.91,0.45c2.46,0,4.58-0.52,6.35-1.57
		c0.41,1.09,0.61,2.4,0.61,3.92c0,1.52-0.4,2.89-1.2,4.1c-0.8,1.22-1.75,1.83-2.85,1.83c-1.11,0-2.75-0.31-4.92-0.94
		c-2.18-0.62-3.82-0.93-4.94-0.93c0,7.86,0.12,13.63,0.36,17.32c1.63,0.2,2.9,0.3,3.82,0.3
		C316.374,341.033,320.314,339.943,323.714,337.753z"/>
</g>
</svg>
