<?xml version="1.0" encoding="iso-8859-1"?>
<!-- Generator: Adobe Illustrator 23.0.2, SVG Export Plug-In . SVG Version: 6.00 Build 0)  -->
<svg version="1.1" id="Layer_1" xmlns="http://www.w3.org/2000/svg" xmlns:xlink="http://www.w3.org/1999/xlink" x="0px" y="0px"
	 viewBox="0 0 595.276 841.89" style="enable-background:new 0 0 595.276 841.89;" xml:space="preserve">
<g>
	<path style="fill:#0791B6;" d="M205.58,280.28c2.45-1.57,5.07-4.3,7.87-8.19c1.35-1.91,2.62-3.55,3.8-4.91
		c1.18-1.36,2.63-2.05,4.36-2.05c1.73,0,3.2,0.48,4.43,1.43c-1.05,12.97-1.57,25.12-1.57,36.45c0,11.33,0.39,21.09,1.18,29.29
		c-1.22,0.82-2.64,1.23-4.26,1.23s-2.93-0.82-3.93-2.46c-1.01-1.64-1.51-3.84-1.51-6.61s0.35-8.58,1.05-17.46
		c0.7-8.87,1.07-18.5,1.11-28.88c-0.48,0.68-1.29,2.05-2.42,4.1c-2.54,4.57-4.51,6.86-5.93,6.86s-2.47-0.82-3.15-2.46
		C205.92,284.99,205.58,282.88,205.58,280.28z"/>
</g>
</svg>
