<?xml version="1.0" encoding="iso-8859-1"?>
<!-- Generator: Adobe Illustrator 23.0.2, SVG Export Plug-In . SVG Version: 6.00 Build 0)  -->
<svg version="1.1" id="Layer_1" xmlns="http://www.w3.org/2000/svg" xmlns:xlink="http://www.w3.org/1999/xlink" x="0px" y="0px"
	 viewBox="0 0 595.276 841.89" style="enable-background:new 0 0 595.276 841.89;" xml:space="preserve">
<g>
	<path style="fill:#C53393;" d="M135.254,345.525c-0.418,5.539-1.626,19.139-2.169,23.877h-30.603v-4.232
		c5.629-1.007,6.171-2.416,6.171-14.505V292.94c0-13.498-0.541-13.904-5.379-14.911v-4.433h28.269
		c0.083,3.829,0.334,13.6,0.583,21.859l-1.918,0.604c-0.583-6.143-1.25-9.57-2.044-12.795c-0.917-3.222-2.627-4.228-6.921-4.228
		h-4.628c-2.042,0-2.167,0.403-2.167,4.836v33.044h5.711c5.588,0,6.004-1.208,6.796-11.181h1.876v28.914h-1.876
		c-0.876-10.781-1.335-11.583-6.796-11.583h-5.711v27.098c0,6.952,0.334,10.276,1.501,12.092c1.21,1.71,3.544,1.71,6.379,1.71
		c4.545,0,6.421-1.007,7.838-4.836c1.084-3.123,2.251-8.259,3.17-14.204L135.254,345.525z"/>
	<path style="fill:#C53393;" d="M138.422,369.402v-3.928c3.878-0.908,4.336-1.816,4.336-12.088v-29.621
		c0-9.269-0.209-9.972-3.878-11.484v-3.525c3.335-1.311,6.463-3.02,9.255-5.645v50.272c0,10.174,0.416,10.979,4.378,12.088v3.928
		h-14.092V369.402z M141.674,282.964c0-4.737,1.584-8.263,3.419-8.263c1.834,0,3.252,3.525,3.252,8.263
		c0,4.228-1.417,7.959-3.337,7.959C143.258,290.923,141.674,287.196,141.674,282.964z"/>
	<path style="fill:#C53393;" d="M183.034,306.335c-0.458,2.317-1.753,6.246-2.794,7.556l-3.502-0.403
		c1.043,3.126,1.751,7.659,1.751,12.894c0,15.716-5.629,23.477-11.09,23.477c-1.168,0-2.251-0.403-3.252-0.707
		c-0.792,1.311-1.584,3.624-1.584,5.539c0,2.823,1.126,5.744,3.918,5.744c2.169,0,4.294-0.304,6.421-0.304
		c3.753,0,9.048,2.823,9.048,17.631c0,15.314-7.422,29.621-15.72,29.621c-7.047,0-10.799-9.672-10.883-18.034
		c0-3.525,0.625-6.348,1.626-8.464c1.377-3.123,3.544-6.952,5.003-9.775c-2.294-1.611-3.837-4.833-4.628-8.058
		c-0.583-2.116-0.834-4.935-0.709-6.549c2.543-2.215,4.545-6.044,5.504-8.867c-2.919-2.921-5.463-9.972-5.463-19.747
		c0-16.924,6.379-24.481,11.299-24.481h0.084c2.042,0,4.044,1.311,6.004,3.727c3.17-0.399,6.379-1.307,8.672-2.014L183.034,306.335z
		 M168.523,371.617c-2.835,0-4.252,0.908-5.337,3.024c-1.5,3.123-2.627,6.952-2.627,10.88c0,7.754,3.419,14.303,8.214,14.303
		c5.586,0,8.632-7.051,8.632-16.017c0-5.136-1.084-8.867-2.877-10.478c-1.626-1.409-3.377-1.713-5.92-1.713H168.523z
		 M167.397,308.049c-2.501,0-4.921,5.843-4.921,17.43c0,11.385,2.209,19.546,5.588,19.546c2.668-0.099,4.961-5.843,4.961-17.43
		c0-11.184-2.127-19.546-5.586-19.546H167.397z"/>
	<path style="fill:#C53393;" d="M201.838,369.402v-3.928c3.502-0.908,4.002-1.915,4.002-11.484v-23.877
		c0-12.191-2.085-17.931-5.92-17.931c-2.251,0-4.545,2.618-6.254,7.15v34.658c0,9.368,0.374,10.576,3.92,11.484v3.928h-13.509
		v-3.928c3.711-0.908,4.252-1.816,4.252-11.484v-70.015c0-9.269-0.167-9.775-4.127-10.679v-3.525
		c2.919-1.007,6.921-3.222,9.464-5.136v49.463c2.334-5.437,5.586-10.675,8.881-10.675c5.088,0,8.672,7.454,8.672,25.487v25.088
		c0,9.874,0.458,10.576,4.002,11.484v3.928h-13.384V369.402z"/>
	<path style="fill:#C53393;" d="M231.107,369.098c-1.126,1.512-2.085,2.014-2.627,2.014c-4.127,0-6.421-5.641-6.421-17.529V311.27
		h-4.211l-0.292-1.713l1.709-4.433h2.794v-10.675l4.545-10.276l0.834,0.403v20.549h6.921c0.625,1.614,0.416,4.836-0.418,6.147
		h-6.505v37.173c0,11.887,2.127,13.904,3.67,13.904c1.459,0,2.835-1.409,3.751-2.519l0.543,4.031L231.107,369.098z"/>
	<path style="fill:#C53393;" d="M260.667,356.307c-4.002,12.187-8.465,14.805-10.465,14.805c-7.631,0-12.133-14.805-12.133-31.231
		c0-9.771,1.459-18.634,3.96-25.184c2.668-7.055,6.045-11.283,9.339-11.283h0.042c5.295,0,9.506,10.979,9.506,22.668
		c0,2.819-0.334,4.13-1.459,4.734c-1.126,0.403-8.881,1.915-16.053,2.519c0.125,19.044,4.754,27.102,9.048,27.102
		c2.543,0,4.921-2.317,7.171-7.355L260.667,356.307z M249.908,308.956c-2.668,0-5.337,5.744-6.212,18.03c3.295,0,6.587,0,10.049-0.3
		c1.084-0.099,1.459-0.908,1.459-2.823c0-7.754-2-14.911-5.253-14.911h-0.044V308.956z"/>
	<path style="fill:#C53393;" d="M287.266,356.307c-4.002,12.187-8.465,14.805-10.465,14.805c-7.631,0-12.133-14.805-12.133-31.231
		c0-9.771,1.459-18.634,3.96-25.184c2.668-7.055,6.045-11.283,9.339-11.283h0.042c5.295,0,9.506,10.979,9.506,22.668
		c0,2.819-0.334,4.13-1.459,4.734c-1.126,0.403-8.881,1.915-16.053,2.519c0.125,19.044,4.754,27.102,9.048,27.102
		c2.543,0,4.921-2.317,7.171-7.355L287.266,356.307z M276.509,308.956c-2.668,0-5.337,5.744-6.212,18.03c3.295,0,6.587,0,10.049-0.3
		c1.084-0.099,1.459-0.908,1.459-2.823c0-7.754-2-14.911-5.253-14.911h-0.044V308.956z"/>
	<path style="fill:#C53393;" d="M308.739,369.402v-3.928c3.544-0.908,3.962-2.116,3.962-12.491v-23.975
		c0-10.276-1.71-16.423-5.504-16.423c-2.334,0-4.628,3.529-6.505,7.256v34.054c0,10.075,0.334,10.675,3.92,11.583v3.928h-13.76
		v-3.928c4.127-1.208,4.461-1.915,4.461-11.788v-29.617c0-9.573-0.418-10.177-3.67-11.587v-3.727
		c2.961-1.109,6.171-3.02,9.048-5.843v11.887c1.25-2.218,2.585-4.532,4.169-7.051c1.751-2.724,3.295-4.334,5.13-4.334
		c4.921,0,8.047,8.362,8.047,22.969v27.505c0,10.075,0.374,10.478,3.96,11.583v3.928L308.739,369.402L308.739,369.402z"/>
</g>
</svg>
