<?xml version="1.0" encoding="iso-8859-1"?>
<!-- Generator: Adobe Illustrator 23.0.2, SVG Export Plug-In . SVG Version: 6.00 Build 0)  -->
<svg version="1.1" id="Layer_1" xmlns="http://www.w3.org/2000/svg" xmlns:xlink="http://www.w3.org/1999/xlink" x="0px" y="0px"
	 viewBox="0 0 595.276 841.89" style="enable-background:new 0 0 595.276 841.89;" xml:space="preserve">
<g>
	<path style="fill:#C53393;" d="M285.259,350.571c0,13.734-4.33,24.863-12.966,33.389c-8.651,8.519-18.374,12.776-29.168,12.776
		c-10.804,0-19.718-3.122-26.759-9.387c-7.028-6.248-10.547-14.938-10.547-26.074c0-7.963,1.691-15.312,5.074-22.047
		c3.386-6.728,8.194-12.159,14.42-16.276c-9.456-6.323-14.173-15.181-14.173-26.589c0-11.401,4.184-20.681,12.563-27.831
		c8.375-7.14,17.186-10.704,26.424-10.704c9.236,0,16.598,2.638,22.071,7.932c5.483,5.29,8.213,12.982,8.213,23.083
		c0,10.094-4.395,20.091-13.209,29.979c5.483,2.755,9.859,6.838,13.131,12.269C283.613,336.518,285.259,343.016,285.259,350.571z
		 M236.919,329.341c-7.093,7.284-10.638,16.417-10.638,27.406c0,6.464,1.779,11.548,5.321,15.254
		c3.542,3.705,8.057,5.565,13.534,5.565c5.473,0,10.391-1.987,14.741-5.977c4.35-3.983,6.528-8.937,6.528-14.842
		c0-5.905-1.857-10.821-5.564-14.739C257.137,338.097,249.167,333.87,236.919,329.341z M231.28,294.504
		c0,7.702,8.103,13.885,24.324,18.547c5.483-5.212,8.229-12.083,8.229-20.606c0-4.947-1.435-8.725-4.275-11.329
		c-2.85-2.611-6.775-3.918-11.768-3.918c-4.983,0-9.583,1.787-13.767,5.352C232.189,286.126,231.28,290.109,231.28,294.504z"/>
</g>
<path style="fill:#C53393;" d="M156,289.101c4.86-3.146,10.07-8.618,15.624-16.42c2.685-3.825,5.201-7.112,7.548-9.846
	c2.344-2.734,5.22-4.1,8.658-4.1c3.425,0,6.35,0.954,8.781,2.872c-2.081,25.992-3.12,50.351-3.12,73.063
	c0,22.719,0.779,42.278,2.341,58.705c-2.428,1.64-5.249,2.46-8.46,2.46c-3.211,0-5.814-1.64-7.81-4.927
	c-2.003-3.28-3-7.695-3-13.236c0-5.548,0.695-17.209,2.087-34.995c1.386-17.785,2.126-37.077,2.211-57.878
	c-0.954,1.372-2.558,4.1-4.817,8.2c-5.032,9.181-8.96,13.761-11.774,13.761c-2.824,0-4.905-1.64-6.252-4.927
	C156.672,298.536,156,294.302,156,289.101z"/>
</svg>
