<?xml version="1.0" encoding="iso-8859-1"?>
<!-- Generator: Adobe Illustrator 23.0.2, SVG Export Plug-In . SVG Version: 6.00 Build 0)  -->
<svg version="1.1" id="Layer_1" xmlns="http://www.w3.org/2000/svg" xmlns:xlink="http://www.w3.org/1999/xlink" x="0px" y="0px"
	 viewBox="0 0 595.276 841.89" style="enable-background:new 0 0 595.276 841.89;" xml:space="preserve">
<g>
	<path style="fill:#39B54A;" d="M146.717,182.527c-0.887-4.14-1.773-6.352-2.827-7.77c-1.385-1.928-2.827-2.552-9.144-2.552h-5.653
		v40.439c0,6.579,0.721,7.543,8.59,8.054v2.382h-24.551v-2.382c7.593-0.51,8.313-1.417,8.313-8.054v-40.439h-4.822
		c-7.205,0-8.922,0.794-10.031,2.552c-1.053,1.418-1.773,3.857-2.827,7.77h-2.494c0.388-5.388,0.775-10.89,0.942-15.483h1.773
		c1.219,2.098,2.272,2.098,4.71,2.098h33.585c2.272,0,3.048-0.51,4.322-2.098h1.773c0,3.8,0.443,10.209,0.832,15.2L146.717,182.527z
		"/>
	<path style="fill:#39B54A;" d="M209.178,189.106c-4.156,0.681-4.877,1.645-6.595,6.069c-2.494,6.522-6.207,17.639-10.087,28.812
		h-2.438c-3.436-8.904-6.872-17.072-10.142-25.295c-3.159,8.281-6.484,16.448-9.698,25.295h-2.605
		c-2.993-9.812-6.207-19.567-9.587-29.493c-1.441-4.197-2.162-4.877-6.041-5.388v-2.212h17.568v2.212
		c-4.933,0.851-5.32,1.361-4.102,5.048c1.829,6.125,3.88,12.478,5.875,18.49h0.166c3.104-7.713,6.151-16.107,9.532-25.353h2.328
		c3.104,8.337,6.484,17.015,9.92,25.693h0.166c1.607-5.161,4.046-12.648,5.486-18.49c1.053-4.027,0.499-4.651-4.766-5.388v-2.212
		h15.019V189.106z"/>
	<path style="fill:#39B54A;" d="M241.103,215.707c-5.32,6.863-11.25,8.337-13.91,8.337c-10.142,0-16.127-8.337-16.127-17.583
		c0-5.501,1.94-10.493,5.265-14.179c3.547-3.97,8.036-6.352,12.414-6.352h0.055c7.039,0,12.636,6.182,12.636,12.761
		c0,1.588-0.443,2.325-1.94,2.666c-1.496,0.227-11.804,1.078-21.336,1.418c0.167,10.72,6.318,15.257,12.026,15.257
		c3.381,0,6.54-1.305,9.532-4.14L241.103,215.707z M226.804,189.05c-3.547,0-7.094,3.233-8.257,10.152c4.378,0,8.756,0,13.356-0.17
		c1.441-0.057,1.94-0.511,1.94-1.588c0-4.367-2.66-8.394-6.983-8.394H226.804z"/>
	<path style="fill:#39B54A;" d="M244.651,223.08v-2.212c5.154-0.624,5.875-1.078,5.875-6.636v-38.908
		c0-5.615-0.554-5.785-5.653-6.295v-2.042c4.434-0.51,9.754-1.928,12.747-2.892v50.138c0,5.615,0.72,6.125,6.096,6.636v2.212
		H244.651z"/>
	<path style="fill:#39B54A;" d="M304.561,189.106c-4.378,0.624-5.098,1.418-7.26,6.239c-2.826,6.068-7.204,16.334-11.859,28.642
		h-2.328c-3.879-9.982-7.703-19.34-11.638-28.925c-1.885-4.538-2.66-5.218-7.039-5.956v-2.212h17.679v2.212
		c-4.434,0.681-4.655,1.248-3.325,4.821c2.05,5.501,5.431,14.292,7.703,19.737c2.66-6.295,5.376-13.896,7.149-19.227
		c1.219-3.743,0.775-4.708-3.824-5.332v-2.212h14.741V189.106z"/>
	<path style="fill:#39B54A;" d="M336.208,215.707c-5.32,6.863-11.25,8.337-13.91,8.337c-10.142,0-16.128-8.337-16.128-17.583
		c0-5.501,1.94-10.493,5.266-14.179c3.547-3.97,8.035-6.352,12.414-6.352h0.055c7.039,0,12.637,6.182,12.637,12.761
		c0,1.588-0.443,2.325-1.94,2.666c-1.496,0.227-11.804,1.078-21.337,1.418c0.167,10.72,6.318,15.257,12.026,15.257
		c3.381,0,6.54-1.305,9.532-4.14L336.208,215.707z M321.91,189.05c-3.547,0-7.094,3.233-8.258,10.152c4.378,0,8.756,0,13.355-0.17
		c1.441-0.057,1.94-0.511,1.94-1.588c0-4.367-2.66-8.394-6.983-8.394H321.91z"/>
</g>
</svg>
