<?xml version="1.0" encoding="iso-8859-1"?>
<!-- Generator: Adobe Illustrator 23.0.2, SVG Export Plug-In . SVG Version: 6.00 Build 0)  -->
<svg version="1.1" id="Layer_1" xmlns="http://www.w3.org/2000/svg" xmlns:xlink="http://www.w3.org/1999/xlink" x="0px" y="0px"
	 viewBox="0 0 595.276 841.89" style="enable-background:new 0 0 595.276 841.89;" xml:space="preserve">
<g>
	<g>
		<g>
			<path style="fill:#D8DC41;" d="M200.926,316.803c-0.767-1.331-6.191-5.482-7.634-6.232c-6.939-3.607-18.655-3.21-22.432-1.552
				c-8.1,3.555-9.828,9.026-10.722,10.411c-0.871,1.35-2.326,1.704-3.571,2.726c-3.686,3.022,2.887,4.915,4.737,6.517
				c1.266,1.098,2.709,5.334,11.477,9.325c4.159,1.893,15.481,1.457,20.012-0.208c3.332-1.223,7.429-5.601,8.365-6.911
				c0.933-1.3,2.459-1.777,3.695-2.804c1.302-1.08,1.481-2.853,1.043-4.388C206.111,320.987,203.157,320.676,200.926,316.803z"/>
			<path style="fill:#D3D331;" d="M205.897,323.687c0.214-2.701-2.739-3.012-4.971-6.884c-0.333-0.577-1.542-1.683-2.922-2.813
				c-2.304,6.782-11.038,12.12-18.637,13.37c-5.074,0.835-11.288,0.483-14.441-3.645c-2.09-2.738-2.427-6.104-1.634-9.272
				c-1.913,2.232-2.664,4.225-3.155,4.987c-0.871,1.35-2.326,1.704-3.571,2.726c-3.686,3.022,2.887,4.915,4.737,6.517
				c1.266,1.098,2.709,5.334,11.477,9.325c4.159,1.893,15.481,1.457,20.012-0.208c3.332-1.223,7.429-5.601,8.365-6.911
				c0.933-1.3,2.459-1.777,3.695-2.804C206.156,326.995,206.334,325.222,205.897,323.687z"/>
			<path style="opacity:0.43;fill:#C3BE30;enable-background:new    ;" d="M160.138,319.429c-0.871,1.35-2.326,1.704-3.571,2.726
				c-3.686,3.022,2.887,4.915,4.737,6.517c1.266,1.098,2.709,5.334,11.477,9.325c4.159,1.893,15.481,1.457,20.012-0.208
				c3.332-1.223,7.429-5.601,8.365-6.911c0.933-1.3,2.459-1.777,3.695-2.804c1.302-1.08,1.481-2.853,1.043-4.388
				c0.214-2.701-2.739-3.012-4.971-6.884c-0.767-1.331-6.191-5.482-7.634-6.232c-0.52-0.269-1.068-0.514-1.634-0.74
				c0.827,0.835,1.495,1.835,1.951,3.04c1.838,4.86,0.212,9.759-3.719,13.412c-3.337,3.102-7.967,5.54-12.795,6.327
				c-4.545,0.741-9.745,0.142-12.81-3.204c-2.045-2.231-3.358-5.126-3.296-8.01c0.047-2.153,0.723-4.162,1.623-6.116
				C161.19,317.16,160.567,318.765,160.138,319.429z"/>
			<path style="opacity:0.69;fill:#B8B533;enable-background:new    ;" d="M160.138,319.429c-0.209,0.325-0.452,0.591-0.72,0.824
				c0.018,0.084,0.031,0.17,0.034,0.262c0.081,1.983-0.929,4.402-3.621,4.435h-0.003c1.08,1.517,4.274,2.683,5.476,3.723
				c1.266,1.098,2.709,5.334,11.477,9.325c4.159,1.893,15.481,1.457,20.012-0.208c3.332-1.223,7.429-5.601,8.365-6.911
				c0.933-1.3,2.459-1.777,3.695-2.804c1.302-1.08,1.481-2.853,1.043-4.388c0.185-2.355-2.036-2.894-4.088-5.561
				c0.105,1.23,0.061,2.464-0.128,3.665c-0.862,5.425-5.189,8.912-10.764,10.974c-4.416,1.634-9.32,2.77-14.09,2.256
				c-15.509-1.672-17.802-9.561-16.298-16.301C160.377,319.013,160.252,319.255,160.138,319.429z"/>
			<path style="opacity:0.56;fill:#B99E30;enable-background:new    ;" d="M186.275,335.511c-5.999,1.428-12.537,1.464-18.007-1.401
				c-4.403-2.305-8.05-5.982-8.441-10.515c-0.239,0.586-0.217,1.714-0.682,2.18c-0.535,0.536-1.55,0.199-2.234,0.205
				c1.412,1.037,3.479,1.9,4.393,2.692c1.048,0.909,2.221,3.966,7.56,7.255c2.577,1.067,5.698,2.038,8.502,2.236
				c4.474,0.316,8.867,0.587,13.034-0.923c7.162-2.594,10.429-7.222,11.732-8.246c1.426-1.118,3.105-2.111,3.464-3.881
				c0.294-1.463-0.362-2.957-1.089-4.265c-0.329-0.305-0.691-0.619-1.078-0.976c0.01,0.075,0.023,0.149,0.034,0.224
				c0.329,2.731-0.275,5.226-2.174,7.447C197.792,331.637,191.822,334.191,186.275,335.511z"/>
			
				<linearGradient id="SVGID_1_" gradientUnits="userSpaceOnUse" x1="180.9865" y1="518.1584" x2="182.2567" y2="532.6766" gradientTransform="matrix(1 0 0 -1 0 842.11)">
				<stop  offset="0.0364" style="stop-color:#EEEA4C"/>
				<stop  offset="0.8545" style="stop-color:#FCF5A7"/>
			</linearGradient>
			<path style="opacity:0.44;fill:url(#SVGID_1_);enable-background:new    ;" d="M187.142,317.488
				c2.17,0.473,4.643,1.103,6.519,2.184c1.66,0.954,3.037,2.34,4.464,3.382c1.993-0.604,2.59-2.404,1.78-3.882
				c-3.528-6.442-10.561-9.701-18.434-9.701c-4.313,0-6.957,0.346-10.843,1.775c-2.994,1.101-8.016,4.033-8.469,11.058
				c3.26-4.177,7.401-5.629,11.258-5.791C177.962,316.322,182.801,316.543,187.142,317.488z"/>
			<path style="opacity:0.52;fill:#FAF9D5;enable-background:new    ;" d="M167.592,315.887c1.334-0.675,2.8-1.197,4.226-1.581
				c2.976-0.802,6.099-1.365,9.413-1.365c2.038,0,3.97,0.198,5.912,0.444c1.347,0.171,4.432,1.467,5.679,1.034
				c1.947-0.677-2.12-2.267-2.876-2.556c-1.634-0.625-3.626-0.91-5.465-1.127c-3.803-0.447-7.831-0.065-11.461,0.945
				c-2.906,0.808-8.062,2.893-8.565,5.993l0.121,0.105C164.684,317.463,166.836,316.27,167.592,315.887z"/>
		</g>
	</g>
	<g>
		<g>
			<path style="fill:#D8DC41;" d="M257.388,328.914c-0.767-1.331-6.191-5.482-7.634-6.232c-6.939-3.607-18.655-3.21-22.432-1.552
				c-8.1,3.555-9.828,9.026-10.722,10.411c-0.871,1.35-2.326,1.704-3.571,2.726c-3.686,3.022,2.887,4.915,4.737,6.517
				c1.266,1.098,2.709,5.334,11.477,9.325c4.159,1.893,15.481,1.457,20.012-0.208c3.332-1.224,7.429-5.601,8.365-6.911
				c0.933-1.3,2.459-1.777,3.695-2.804c1.302-1.08,1.481-2.853,1.043-4.388C262.573,333.098,259.619,332.787,257.388,328.914z"/>
			<path style="fill:#D3D331;" d="M262.358,335.798c0.214-2.701-2.739-3.012-4.971-6.884c-0.333-0.577-1.542-1.683-2.922-2.813
				c-2.304,6.782-11.038,12.12-18.637,13.37c-5.074,0.835-11.288,0.483-14.441-3.645c-2.091-2.738-2.427-6.104-1.634-9.272
				c-1.913,2.232-2.664,4.225-3.155,4.987c-0.871,1.35-2.326,1.704-3.571,2.726c-3.686,3.022,2.887,4.915,4.737,6.517
				c1.266,1.098,2.709,5.334,11.477,9.325c4.159,1.893,15.481,1.457,20.012-0.208c3.332-1.224,7.429-5.601,8.365-6.911
				c0.933-1.3,2.459-1.777,3.695-2.804C262.617,339.106,262.796,337.333,262.358,335.798z"/>
			<path style="opacity:0.43;fill:#C3BE30;enable-background:new    ;" d="M216.599,331.54c-0.871,1.35-2.326,1.704-3.571,2.726
				c-3.686,3.022,2.887,4.915,4.737,6.517c1.266,1.098,2.709,5.334,11.477,9.325c4.159,1.893,15.481,1.457,20.012-0.208
				c3.332-1.224,7.429-5.601,8.365-6.911c0.933-1.3,2.459-1.777,3.695-2.804c1.302-1.08,1.481-2.853,1.043-4.388
				c0.214-2.701-2.739-3.012-4.971-6.884c-0.767-1.331-6.191-5.482-7.634-6.232c-0.52-0.269-1.068-0.514-1.634-0.74
				c0.827,0.835,1.495,1.835,1.951,3.04c1.838,4.861,0.212,9.759-3.719,13.412c-3.337,3.102-7.967,5.54-12.795,6.327
				c-4.545,0.741-9.745,0.142-12.81-3.204c-2.045-2.231-3.357-5.126-3.296-8.01c0.047-2.153,0.723-4.162,1.624-6.116
				C217.651,329.271,217.028,330.876,216.599,331.54z"/>
			<path style="opacity:0.69;fill:#B8B533;enable-background:new    ;" d="M216.599,331.54c-0.209,0.325-0.452,0.591-0.72,0.824
				c0.018,0.084,0.031,0.17,0.034,0.262c0.081,1.983-0.929,4.402-3.621,4.435h-0.003c1.08,1.517,4.274,2.683,5.476,3.723
				c1.266,1.098,2.709,5.334,11.477,9.325c4.159,1.893,15.481,1.457,20.012-0.208c3.332-1.224,7.429-5.601,8.365-6.911
				c0.933-1.3,2.459-1.777,3.695-2.804c1.302-1.08,1.481-2.853,1.043-4.388c0.185-2.355-2.036-2.894-4.088-5.561
				c0.105,1.23,0.061,2.464-0.128,3.665c-0.862,5.425-5.189,8.912-10.764,10.974c-4.416,1.634-9.32,2.77-14.09,2.256
				c-15.509-1.672-17.802-9.561-16.298-16.301C216.839,331.124,216.714,331.365,216.599,331.54z"/>
			<path style="opacity:0.56;fill:#B99E30;enable-background:new    ;" d="M242.736,347.622c-5.999,1.428-12.538,1.464-18.007-1.401
				c-4.403-2.306-8.05-5.983-8.441-10.515c-0.239,0.586-0.217,1.714-0.682,2.18c-0.535,0.536-1.55,0.199-2.234,0.205
				c1.412,1.037,3.479,1.9,4.394,2.692c1.048,0.909,2.221,3.966,7.56,7.255c2.577,1.066,5.698,2.038,8.502,2.236
				c4.474,0.316,8.867,0.587,13.034-0.923c7.162-2.594,10.429-7.222,11.732-8.246c1.426-1.118,3.105-2.111,3.464-3.881
				c0.294-1.463-0.362-2.957-1.089-4.265c-0.329-0.305-0.691-0.619-1.078-0.976c0.01,0.075,0.023,0.149,0.033,0.224
				c0.329,2.731-0.275,5.225-2.174,7.447C254.254,343.748,248.283,346.302,242.736,347.622z"/>
			
				<linearGradient id="SVGID_2_" gradientUnits="userSpaceOnUse" x1="237.4485" y1="506.0476" x2="238.7186" y2="520.5656" gradientTransform="matrix(1 0 0 -1 0 842.11)">
				<stop  offset="0.0364" style="stop-color:#EEEA4C"/>
				<stop  offset="0.8545" style="stop-color:#FCF5A7"/>
			</linearGradient>
			<path style="opacity:0.44;fill:url(#SVGID_2_);enable-background:new    ;" d="M243.604,329.599
				c2.17,0.473,4.643,1.103,6.519,2.184c1.66,0.954,3.037,2.34,4.464,3.382c1.993-0.604,2.59-2.405,1.78-3.882
				c-3.528-6.442-10.561-9.701-18.434-9.701c-4.313,0-6.957,0.346-10.843,1.775c-2.994,1.101-8.015,4.033-8.469,11.058
				c3.26-4.177,7.401-5.629,11.258-5.791C234.423,328.433,239.263,328.654,243.604,329.599z"/>
			<path style="opacity:0.52;fill:#FAF9D5;enable-background:new    ;" d="M224.054,327.998c1.334-0.675,2.8-1.197,4.226-1.581
				c2.976-0.802,6.099-1.365,9.413-1.365c2.038,0,3.97,0.198,5.912,0.444c1.347,0.171,4.432,1.467,5.679,1.034
				c1.947-0.677-2.12-2.267-2.876-2.556c-1.634-0.625-3.626-0.91-5.465-1.127c-3.803-0.447-7.831-0.065-11.46,0.945
				c-2.906,0.808-8.062,2.893-8.566,5.993l0.121,0.105C221.146,329.574,223.298,328.381,224.054,327.998z"/>
		</g>
	</g>
	<g>
		<g>
			<path style="fill:#D8DC41;" d="M284.25,365.123c-0.767-1.331-6.191-5.482-7.634-6.232c-6.939-3.606-18.655-3.21-22.432-1.552
				c-8.1,3.555-9.828,9.026-10.722,10.411c-0.871,1.35-2.326,1.704-3.571,2.726c-3.686,3.022,2.887,4.915,4.737,6.517
				c1.266,1.098,2.709,5.334,11.477,9.325c4.159,1.893,15.481,1.457,20.012-0.208c3.332-1.224,7.429-5.601,8.365-6.911
				c0.933-1.3,2.459-1.777,3.695-2.804c1.302-1.08,1.481-2.853,1.043-4.388C289.435,369.307,286.481,368.996,284.25,365.123z"/>
			<path style="fill:#D3D331;" d="M289.221,372.008c0.214-2.701-2.74-3.012-4.971-6.884c-0.333-0.577-1.542-1.683-2.922-2.813
				c-2.304,6.782-11.038,12.12-18.637,13.37c-5.074,0.835-11.288,0.483-14.441-3.645c-2.091-2.738-2.427-6.104-1.634-9.272
				c-1.913,2.232-2.664,4.225-3.155,4.987c-0.871,1.35-2.326,1.704-3.571,2.726c-3.686,3.022,2.887,4.915,4.737,6.517
				c1.266,1.098,2.709,5.334,11.477,9.325c4.159,1.893,15.481,1.457,20.012-0.208c3.332-1.224,7.429-5.601,8.365-6.911
				c0.933-1.3,2.459-1.777,3.695-2.804C289.479,375.315,289.658,373.542,289.221,372.008z"/>
			<path style="opacity:0.43;fill:#C3BE30;enable-background:new    ;" d="M243.461,367.75c-0.871,1.35-2.326,1.704-3.571,2.726
				c-3.686,3.022,2.887,4.915,4.737,6.517c1.266,1.098,2.709,5.334,11.477,9.325c4.159,1.893,15.481,1.457,20.012-0.208
				c3.332-1.224,7.429-5.601,8.365-6.911c0.933-1.3,2.459-1.777,3.695-2.804c1.302-1.08,1.481-2.853,1.043-4.388
				c0.214-2.701-2.74-3.012-4.971-6.884c-0.767-1.331-6.191-5.482-7.634-6.232c-0.52-0.269-1.068-0.514-1.634-0.74
				c0.827,0.835,1.495,1.835,1.951,3.04c1.838,4.86,0.212,9.758-3.719,13.412c-3.337,3.102-7.967,5.54-12.795,6.327
				c-4.545,0.741-9.745,0.142-12.81-3.204c-2.045-2.231-3.358-5.126-3.296-8.01c0.047-2.153,0.723-4.162,1.623-6.116
				C244.513,365.48,243.89,367.086,243.461,367.75z"/>
			<path style="opacity:0.69;fill:#B8B533;enable-background:new    ;" d="M243.461,367.75c-0.209,0.325-0.452,0.591-0.72,0.824
				c0.018,0.084,0.031,0.17,0.034,0.262c0.081,1.983-0.929,4.402-3.621,4.434h-0.003c1.08,1.517,4.274,2.683,5.476,3.723
				c1.266,1.098,2.709,5.334,11.477,9.325c4.159,1.893,15.481,1.457,20.012-0.208c3.332-1.224,7.429-5.601,8.365-6.911
				c0.933-1.3,2.459-1.777,3.695-2.804c1.302-1.08,1.481-2.853,1.043-4.388c0.185-2.355-2.036-2.894-4.088-5.561
				c0.105,1.23,0.061,2.464-0.128,3.665c-0.862,5.425-5.189,8.912-10.764,10.974c-4.416,1.634-9.32,2.77-14.09,2.256
				c-15.509-1.672-17.802-9.561-16.298-16.301C243.701,367.333,243.576,367.575,243.461,367.75z"/>
			<path style="opacity:0.56;fill:#B99E30;enable-background:new    ;" d="M269.598,383.832c-5.999,1.428-12.538,1.464-18.007-1.401
				c-4.403-2.305-8.05-5.983-8.441-10.515c-0.239,0.586-0.217,1.714-0.682,2.18c-0.535,0.536-1.55,0.199-2.234,0.205
				c1.412,1.037,3.479,1.9,4.394,2.692c1.048,0.909,2.221,3.966,7.56,7.255c2.577,1.067,5.698,2.038,8.502,2.236
				c4.474,0.316,8.867,0.586,13.034-0.923c7.162-2.594,10.429-7.222,11.732-8.246c1.426-1.118,3.105-2.111,3.464-3.882
				c0.294-1.463-0.362-2.957-1.089-4.265c-0.329-0.305-0.691-0.619-1.078-0.976c0.01,0.075,0.023,0.149,0.033,0.224
				c0.329,2.731-0.275,5.226-2.174,7.447C281.116,379.957,275.145,382.511,269.598,383.832z"/>
			
				<linearGradient id="SVGID_3_" gradientUnits="userSpaceOnUse" x1="264.3104" y1="469.8385" x2="265.5807" y2="484.3566" gradientTransform="matrix(1 0 0 -1 0 842.11)">
				<stop  offset="0.0364" style="stop-color:#EEEA4C"/>
				<stop  offset="0.8545" style="stop-color:#FCF5A7"/>
			</linearGradient>
			<path style="opacity:0.44;fill:url(#SVGID_3_);enable-background:new    ;" d="M270.466,365.808
				c2.17,0.473,4.643,1.103,6.519,2.184c1.66,0.954,3.037,2.34,4.464,3.382c1.993-0.604,2.59-2.405,1.78-3.882
				c-3.528-6.442-10.561-9.701-18.434-9.701c-4.313,0-6.957,0.346-10.843,1.775c-2.994,1.101-8.016,4.032-8.469,11.058
				c3.26-4.177,7.401-5.629,11.258-5.791C261.285,364.643,266.125,364.863,270.466,365.808z"/>
			<path style="opacity:0.52;fill:#FAF9D5;enable-background:new    ;" d="M250.915,364.208c1.334-0.675,2.8-1.197,4.226-1.581
				c2.976-0.802,6.099-1.365,9.413-1.365c2.038,0,3.97,0.198,5.912,0.444c1.347,0.171,4.432,1.467,5.679,1.034
				c1.947-0.677-2.12-2.267-2.876-2.556c-1.634-0.625-3.626-0.909-5.465-1.127c-3.803-0.447-7.831-0.065-11.461,0.945
				c-2.906,0.808-8.062,2.893-8.565,5.993l0.121,0.105C248.008,365.784,250.16,364.591,250.915,364.208z"/>
		</g>
	</g>
	<g>
		<g>
			<path style="fill:#D8DC41;" d="M210.824,355.279c-0.767-1.331-6.191-5.482-7.634-6.232c-6.939-3.606-18.655-3.21-22.432-1.552
				c-8.1,3.554-9.828,9.026-10.722,10.41c-0.871,1.35-2.326,1.704-3.571,2.726c-3.686,3.022,2.887,4.915,4.737,6.517
				c1.266,1.098,2.709,5.334,11.477,9.325c4.159,1.893,15.481,1.457,20.012-0.208c3.332-1.224,7.429-5.601,8.365-6.911
				c0.933-1.3,2.459-1.777,3.695-2.804c1.302-1.08,1.481-2.853,1.043-4.388C216.009,359.463,213.055,359.152,210.824,355.279z"/>
			<path style="fill:#D3D331;" d="M215.795,362.164c0.214-2.701-2.739-3.012-4.971-6.884c-0.333-0.577-1.542-1.683-2.922-2.813
				c-2.304,6.782-11.038,12.12-18.637,13.37c-5.074,0.835-11.288,0.483-14.441-3.646c-2.091-2.738-2.427-6.104-1.634-9.272
				c-1.913,2.232-2.664,4.225-3.155,4.987c-0.871,1.35-2.326,1.704-3.571,2.726c-3.686,3.022,2.887,4.915,4.737,6.517
				c1.266,1.098,2.709,5.334,11.477,9.325c4.159,1.893,15.481,1.457,20.012-0.208c3.332-1.224,7.429-5.601,8.365-6.911
				c0.933-1.3,2.459-1.777,3.695-2.804C216.054,365.471,216.232,363.698,215.795,362.164z"/>
			<path style="opacity:0.43;fill:#C3BE30;enable-background:new    ;" d="M170.036,357.906c-0.871,1.35-2.326,1.704-3.571,2.726
				c-3.686,3.022,2.887,4.915,4.737,6.517c1.266,1.098,2.709,5.334,11.477,9.325c4.159,1.893,15.481,1.457,20.012-0.208
				c3.332-1.224,7.429-5.601,8.365-6.911c0.933-1.3,2.459-1.777,3.695-2.804c1.302-1.08,1.481-2.853,1.043-4.388
				c0.214-2.701-2.739-3.012-4.971-6.884c-0.767-1.331-6.191-5.482-7.634-6.232c-0.52-0.269-1.068-0.514-1.634-0.74
				c0.827,0.835,1.495,1.835,1.951,3.04c1.838,4.86,0.212,9.759-3.719,13.412c-3.337,3.102-7.967,5.539-12.795,6.326
				c-4.545,0.741-9.745,0.142-12.81-3.204c-2.045-2.231-3.358-5.126-3.296-8.01c0.047-2.153,0.723-4.162,1.623-6.116
				C171.087,355.636,170.465,357.242,170.036,357.906z"/>
			<path style="opacity:0.69;fill:#B8B533;enable-background:new    ;" d="M170.036,357.906c-0.209,0.325-0.452,0.591-0.72,0.824
				c0.018,0.084,0.031,0.17,0.034,0.262c0.081,1.983-0.929,4.402-3.621,4.434h-0.003c1.08,1.517,4.274,2.683,5.476,3.723
				c1.266,1.098,2.709,5.334,11.477,9.325c4.159,1.893,15.481,1.457,20.012-0.208c3.332-1.224,7.429-5.601,8.365-6.911
				c0.933-1.3,2.459-1.777,3.695-2.804c1.302-1.08,1.481-2.853,1.043-4.388c0.185-2.355-2.036-2.894-4.088-5.561
				c0.105,1.23,0.061,2.464-0.128,3.665c-0.862,5.425-5.189,8.912-10.764,10.974c-4.416,1.634-9.32,2.77-14.09,2.256
				c-15.509-1.672-17.802-9.561-16.298-16.301C170.275,357.489,170.15,357.731,170.036,357.906z"/>
			<path style="opacity:0.56;fill:#B99E30;enable-background:new    ;" d="M196.173,373.988c-5.999,1.428-12.537,1.464-18.007-1.401
				c-4.403-2.305-8.05-5.983-8.441-10.515c-0.239,0.586-0.217,1.714-0.682,2.18c-0.535,0.536-1.55,0.199-2.234,0.205
				c1.412,1.037,3.479,1.9,4.393,2.692c1.048,0.909,2.221,3.966,7.56,7.255c2.577,1.066,5.698,2.038,8.502,2.236
				c4.474,0.316,8.867,0.586,13.034-0.923c7.162-2.594,10.429-7.222,11.732-8.246c1.426-1.118,3.105-2.111,3.464-3.882
				c0.294-1.463-0.362-2.957-1.089-4.265c-0.329-0.305-0.691-0.619-1.078-0.976c0.01,0.075,0.023,0.149,0.034,0.224
				c0.329,2.731-0.275,5.225-2.174,7.447C207.69,370.113,201.72,372.667,196.173,373.988z"/>
			
				<linearGradient id="SVGID_4_" gradientUnits="userSpaceOnUse" x1="190.8848" y1="479.6826" x2="192.1549" y2="494.2006" gradientTransform="matrix(1 0 0 -1 0 842.11)">
				<stop  offset="0.0364" style="stop-color:#EEEA4C"/>
				<stop  offset="0.8545" style="stop-color:#FCF5A7"/>
			</linearGradient>
			<path style="opacity:0.44;fill:url(#SVGID_4_);enable-background:new    ;" d="M197.04,355.964
				c2.17,0.473,4.643,1.103,6.519,2.184c1.66,0.954,3.037,2.34,4.464,3.382c1.993-0.604,2.589-2.405,1.78-3.882
				c-3.528-6.442-10.561-9.701-18.433-9.701c-4.314,0-6.957,0.346-10.843,1.775c-2.994,1.101-8.015,4.032-8.469,11.058
				c3.26-4.177,7.401-5.629,11.258-5.791C187.859,354.799,192.699,355.019,197.04,355.964z"/>
			<path style="opacity:0.52;fill:#FAF9D5;enable-background:new    ;" d="M177.49,354.364c1.334-0.675,2.8-1.197,4.226-1.581
				c2.976-0.802,6.099-1.365,9.413-1.365c2.038,0,3.97,0.198,5.912,0.444c1.347,0.171,4.432,1.467,5.679,1.034
				c1.947-0.677-2.12-2.267-2.876-2.556c-1.634-0.625-3.626-0.909-5.465-1.127c-3.803-0.447-7.831-0.065-11.461,0.945
				c-2.906,0.808-8.062,2.893-8.565,5.993l0.121,0.105C174.582,355.94,176.734,354.747,177.49,354.364z"/>
		</g>
	</g>
	<g>
		<g>
			<path style="fill:#D8DC41;" d="M241.312,389.458c-0.767-1.331-6.191-5.482-7.634-6.232c-6.939-3.606-18.655-3.21-22.432-1.552
				c-8.1,3.555-9.828,9.026-10.722,10.41c-0.871,1.35-2.326,1.704-3.571,2.726c-3.686,3.022,2.887,4.915,4.737,6.517
				c1.266,1.098,2.709,5.334,11.477,9.325c4.159,1.893,15.481,1.457,20.012-0.208c3.332-1.224,7.429-5.601,8.365-6.911
				c0.933-1.3,2.459-1.777,3.695-2.804c1.302-1.08,1.481-2.853,1.043-4.388C246.497,393.642,243.544,393.331,241.312,389.458z"/>
			<path style="fill:#D3D331;" d="M246.283,396.343c0.214-2.701-2.739-3.012-4.971-6.884c-0.333-0.577-1.542-1.683-2.922-2.813
				c-2.304,6.782-11.038,12.12-18.637,13.37c-5.074,0.835-11.288,0.483-14.441-3.645c-2.091-2.738-2.427-6.104-1.634-9.272
				c-1.913,2.232-2.664,4.225-3.155,4.987c-0.871,1.35-2.326,1.704-3.571,2.726c-3.686,3.022,2.887,4.915,4.737,6.517
				c1.266,1.098,2.709,5.334,11.477,9.325c4.159,1.893,15.481,1.457,20.012-0.208c3.332-1.224,7.429-5.601,8.365-6.911
				c0.933-1.3,2.459-1.777,3.695-2.804C246.542,399.65,246.721,397.877,246.283,396.343z"/>
			<path style="opacity:0.43;fill:#C3BE30;enable-background:new    ;" d="M200.524,392.085c-0.871,1.35-2.326,1.704-3.571,2.726
				c-3.686,3.022,2.887,4.915,4.737,6.517c1.266,1.098,2.709,5.334,11.477,9.325c4.159,1.893,15.481,1.457,20.012-0.208
				c3.332-1.224,7.429-5.601,8.365-6.911c0.933-1.3,2.459-1.777,3.695-2.804c1.302-1.08,1.481-2.853,1.043-4.388
				c0.214-2.701-2.739-3.012-4.971-6.884c-0.767-1.331-6.191-5.482-7.634-6.232c-0.52-0.269-1.068-0.514-1.634-0.74
				c0.827,0.835,1.495,1.835,1.951,3.04c1.838,4.86,0.212,9.759-3.719,13.412c-3.337,3.102-7.967,5.539-12.795,6.326
				c-4.545,0.741-9.745,0.142-12.81-3.204c-2.045-2.231-3.358-5.126-3.296-8.01c0.047-2.153,0.723-4.162,1.623-6.116
				C201.576,389.815,200.953,391.421,200.524,392.085z"/>
			<path style="opacity:0.69;fill:#B8B533;enable-background:new    ;" d="M200.524,392.085c-0.209,0.325-0.452,0.591-0.72,0.824
				c0.018,0.083,0.031,0.17,0.034,0.262c0.081,1.983-0.929,4.402-3.621,4.435h-0.003c1.08,1.517,4.274,2.683,5.476,3.723
				c1.266,1.098,2.709,5.334,11.477,9.325c4.159,1.893,15.481,1.457,20.012-0.208c3.332-1.224,7.429-5.601,8.365-6.911
				c0.933-1.3,2.459-1.777,3.695-2.804c1.302-1.08,1.481-2.853,1.043-4.388c0.185-2.355-2.036-2.894-4.088-5.561
				c0.105,1.23,0.061,2.464-0.128,3.665c-0.862,5.425-5.189,8.912-10.764,10.974c-4.416,1.634-9.32,2.771-14.09,2.256
				c-15.509-1.672-17.802-9.561-16.298-16.301C200.763,391.668,200.638,391.91,200.524,392.085z"/>
			<path style="opacity:0.56;fill:#B99E30;enable-background:new    ;" d="M226.661,408.167c-5.999,1.428-12.537,1.464-18.007-1.401
				c-4.403-2.305-8.05-5.983-8.441-10.515c-0.239,0.586-0.217,1.714-0.682,2.18c-0.535,0.536-1.55,0.199-2.234,0.205
				c1.412,1.037,3.479,1.9,4.393,2.692c1.048,0.909,2.221,3.966,7.56,7.255c2.577,1.066,5.698,2.038,8.502,2.236
				c4.474,0.316,8.867,0.587,13.034-0.923c7.162-2.594,10.429-7.222,11.732-8.246c1.426-1.118,3.105-2.111,3.464-3.882
				c0.294-1.463-0.362-2.957-1.089-4.265c-0.329-0.305-0.691-0.619-1.078-0.976c0.01,0.075,0.023,0.149,0.034,0.224
				c0.329,2.73-0.275,5.225-2.174,7.447C238.178,404.292,232.208,406.846,226.661,408.167z"/>
			
				<linearGradient id="SVGID_5_" gradientUnits="userSpaceOnUse" x1="221.3729" y1="445.5025" x2="222.6432" y2="460.0206" gradientTransform="matrix(1 0 0 -1 0 842.11)">
				<stop  offset="0.0364" style="stop-color:#EEEA4C"/>
				<stop  offset="0.8545" style="stop-color:#FCF5A7"/>
			</linearGradient>
			<path style="opacity:0.44;fill:url(#SVGID_5_);enable-background:new    ;" d="M227.528,390.144
				c2.17,0.473,4.643,1.103,6.519,2.184c1.66,0.954,3.037,2.34,4.464,3.382c1.993-0.604,2.59-2.405,1.78-3.882
				c-3.528-6.442-10.561-9.701-18.433-9.701c-4.314,0-6.957,0.346-10.843,1.775c-2.994,1.101-8.016,4.033-8.469,11.058
				c3.26-4.177,7.401-5.629,11.258-5.791C218.348,388.978,223.187,389.198,227.528,390.144z"/>
			<path style="opacity:0.52;fill:#FAF9D5;enable-background:new    ;" d="M207.978,388.543c1.334-0.675,2.8-1.197,4.226-1.581
				c2.976-0.802,6.099-1.365,9.413-1.365c2.038,0,3.97,0.198,5.912,0.444c1.347,0.171,4.432,1.467,5.679,1.034
				c1.947-0.677-2.12-2.267-2.876-2.556c-1.634-0.625-3.626-0.91-5.465-1.127c-3.803-0.447-7.831-0.065-11.461,0.945
				c-2.906,0.808-8.062,2.893-8.565,5.993l0.121,0.105C205.07,390.119,207.222,388.926,207.978,388.543z"/>
		</g>
	</g>
	<g>
		<g>
			<path style="fill:#D8DC41;" d="M204.961,417.778c-0.767-1.331-6.191-5.482-7.634-6.232c-6.939-3.607-18.655-3.21-22.432-1.552
				c-8.1,3.555-9.828,9.026-10.722,10.411c-0.871,1.35-2.326,1.704-3.571,2.726c-3.686,3.022,2.888,4.915,4.737,6.517
				c1.266,1.098,2.709,5.334,11.477,9.325c4.159,1.893,15.481,1.457,20.012-0.208c3.332-1.224,7.429-5.601,8.365-6.911
				c0.933-1.3,2.459-1.777,3.695-2.804c1.302-1.08,1.481-2.853,1.043-4.388C210.145,421.962,207.192,421.65,204.961,417.778z"/>
			<path style="fill:#D3D331;" d="M209.931,424.662c0.214-2.701-2.739-3.012-4.971-6.884c-0.333-0.577-1.542-1.683-2.922-2.813
				c-2.304,6.782-11.038,12.12-18.637,13.37c-5.074,0.835-11.288,0.483-14.441-3.646c-2.091-2.738-2.427-6.104-1.634-9.272
				c-1.913,2.232-2.664,4.225-3.155,4.987c-0.871,1.35-2.326,1.704-3.571,2.726c-3.686,3.022,2.888,4.915,4.737,6.517
				c1.266,1.098,2.709,5.334,11.477,9.325c4.159,1.893,15.481,1.457,20.012-0.208c3.332-1.224,7.429-5.601,8.365-6.911
				c0.933-1.3,2.459-1.777,3.695-2.804C210.19,427.97,210.369,426.197,209.931,424.662z"/>
			<path style="opacity:0.43;fill:#C3BE30;enable-background:new    ;" d="M164.172,420.404c-0.871,1.35-2.326,1.704-3.571,2.726
				c-3.686,3.022,2.888,4.915,4.737,6.517c1.266,1.098,2.709,5.334,11.477,9.325c4.159,1.893,15.481,1.457,20.012-0.208
				c3.332-1.224,7.429-5.601,8.365-6.911c0.933-1.3,2.459-1.777,3.695-2.804c1.302-1.08,1.481-2.853,1.043-4.388
				c0.214-2.701-2.739-3.012-4.971-6.884c-0.767-1.331-6.191-5.482-7.634-6.232c-0.52-0.269-1.068-0.514-1.634-0.74
				c0.827,0.835,1.495,1.835,1.951,3.04c1.838,4.86,0.212,9.759-3.719,13.412c-3.337,3.102-7.967,5.54-12.795,6.326
				c-4.545,0.741-9.745,0.142-12.81-3.204c-2.045-2.231-3.358-5.126-3.296-8.01c0.047-2.153,0.723-4.162,1.623-6.116
				C165.224,418.135,164.601,419.74,164.172,420.404z"/>
			<path style="opacity:0.69;fill:#B8B533;enable-background:new    ;" d="M164.172,420.404c-0.208,0.325-0.452,0.591-0.72,0.824
				c0.018,0.084,0.031,0.17,0.034,0.262c0.081,1.982-0.929,4.402-3.621,4.434h-0.003c1.08,1.517,4.274,2.683,5.476,3.723
				c1.266,1.098,2.709,5.334,11.477,9.325c4.159,1.893,15.481,1.457,20.012-0.208c3.332-1.224,7.429-5.601,8.365-6.911
				c0.933-1.3,2.459-1.777,3.695-2.804c1.302-1.08,1.481-2.853,1.043-4.388c0.185-2.355-2.036-2.894-4.088-5.561
				c0.105,1.23,0.061,2.464-0.129,3.665c-0.862,5.425-5.188,8.912-10.764,10.974c-4.416,1.634-9.32,2.77-14.09,2.256
				c-15.509-1.672-17.802-9.561-16.298-16.301C164.411,419.988,164.287,420.229,164.172,420.404z"/>
			<path style="opacity:0.56;fill:#B99E30;enable-background:new    ;" d="M190.309,436.486c-5.999,1.428-12.538,1.464-18.007-1.401
				c-4.403-2.305-8.05-5.983-8.441-10.515c-0.239,0.586-0.217,1.714-0.682,2.18c-0.535,0.536-1.55,0.199-2.234,0.205
				c1.412,1.037,3.479,1.9,4.394,2.692c1.048,0.909,2.221,3.966,7.56,7.255c2.578,1.067,5.698,2.038,8.502,2.236
				c4.474,0.316,8.867,0.586,13.034-0.923c7.162-2.594,10.429-7.222,11.732-8.246c1.426-1.118,3.105-2.111,3.464-3.882
				c0.294-1.462-0.362-2.957-1.089-4.265c-0.329-0.305-0.691-0.619-1.078-0.976c0.01,0.075,0.023,0.149,0.033,0.224
				c0.33,2.731-0.275,5.226-2.174,7.447C201.827,432.612,195.856,435.166,190.309,436.486z"/>
			
				<linearGradient id="SVGID_6_" gradientUnits="userSpaceOnUse" x1="185.022" y1="417.1836" x2="186.2921" y2="431.7016" gradientTransform="matrix(1 0 0 -1 0 842.11)">
				<stop  offset="0.0364" style="stop-color:#EEEA4C"/>
				<stop  offset="0.8545" style="stop-color:#FCF5A7"/>
			</linearGradient>
			<path style="opacity:0.44;fill:url(#SVGID_6_);enable-background:new    ;" d="M191.177,418.463
				c2.17,0.473,4.643,1.103,6.519,2.184c1.66,0.954,3.037,2.339,4.464,3.382c1.993-0.604,2.59-2.405,1.78-3.882
				c-3.528-6.442-10.561-9.701-18.433-9.701c-4.314,0-6.957,0.346-10.843,1.775c-2.994,1.101-8.015,4.033-8.469,11.058
				c3.26-4.177,7.401-5.629,11.259-5.791C181.996,417.297,186.835,417.518,191.177,418.463z"/>
			<path style="opacity:0.52;fill:#FAF9D5;enable-background:new    ;" d="M171.626,416.862c1.334-0.675,2.8-1.197,4.226-1.581
				c2.976-0.802,6.099-1.365,9.413-1.365c2.038,0,3.97,0.198,5.912,0.444c1.347,0.171,4.432,1.467,5.679,1.034
				c1.947-0.677-2.12-2.267-2.876-2.556c-1.634-0.625-3.626-0.91-5.465-1.127c-3.803-0.447-7.831-0.064-11.46,0.945
				c-2.906,0.808-8.062,2.893-8.566,5.993l0.121,0.105C168.718,418.438,170.871,417.245,171.626,416.862z"/>
		</g>
	</g>
	<g>
		<g>
			<path style="fill:#D8DC41;" d="M282.675,414.224c-0.767-1.331-6.191-5.482-7.634-6.232c-6.939-3.607-18.655-3.21-22.432-1.552
				c-8.1,3.555-9.828,9.026-10.722,10.411c-0.871,1.35-2.326,1.704-3.571,2.726c-3.686,3.022,2.887,4.915,4.737,6.517
				c1.266,1.098,2.709,5.334,11.477,9.325c4.159,1.893,15.481,1.457,20.012-0.208c3.332-1.223,7.429-5.601,8.365-6.911
				c0.933-1.3,2.459-1.777,3.695-2.804c1.302-1.08,1.481-2.853,1.043-4.388C287.859,418.408,284.906,418.097,282.675,414.224z"/>
			<path style="fill:#D3D331;" d="M287.645,421.108c0.214-2.701-2.739-3.012-4.971-6.884c-0.333-0.577-1.542-1.683-2.922-2.813
				c-2.304,6.782-11.038,12.12-18.637,13.37c-5.074,0.835-11.288,0.483-14.441-3.645c-2.091-2.738-2.427-6.104-1.634-9.272
				c-1.913,2.232-2.664,4.225-3.155,4.987c-0.871,1.35-2.326,1.704-3.571,2.726c-3.686,3.022,2.887,4.915,4.737,6.517
				c1.266,1.098,2.709,5.334,11.477,9.325c4.159,1.893,15.481,1.457,20.012-0.208c3.332-1.223,7.429-5.601,8.365-6.911
				c0.933-1.3,2.459-1.777,3.695-2.804C287.904,424.416,288.083,422.643,287.645,421.108z"/>
			<path style="opacity:0.43;fill:#C3BE30;enable-background:new    ;" d="M241.886,416.85c-0.871,1.35-2.326,1.704-3.571,2.726
				c-3.686,3.022,2.887,4.915,4.737,6.517c1.266,1.098,2.709,5.334,11.477,9.325c4.159,1.893,15.481,1.457,20.012-0.208
				c3.332-1.223,7.429-5.601,8.365-6.911c0.933-1.3,2.459-1.777,3.695-2.804c1.302-1.08,1.481-2.853,1.043-4.388
				c0.214-2.701-2.739-3.012-4.971-6.884c-0.767-1.331-6.191-5.482-7.634-6.232c-0.52-0.269-1.068-0.514-1.634-0.74
				c0.827,0.835,1.495,1.835,1.951,3.04c1.838,4.86,0.212,9.759-3.719,13.412c-3.337,3.102-7.967,5.54-12.795,6.327
				c-4.545,0.741-9.745,0.142-12.81-3.204c-2.045-2.231-3.358-5.126-3.296-8.01c0.047-2.153,0.723-4.162,1.623-6.116
				C242.938,414.581,242.315,416.186,241.886,416.85z"/>
			<path style="opacity:0.69;fill:#B8B533;enable-background:new    ;" d="M241.886,416.85c-0.209,0.325-0.452,0.591-0.72,0.824
				c0.018,0.084,0.031,0.17,0.034,0.262c0.081,1.983-0.929,4.402-3.621,4.435h-0.003c1.08,1.517,4.274,2.683,5.476,3.723
				c1.266,1.098,2.709,5.334,11.477,9.325c4.159,1.893,15.481,1.457,20.012-0.208c3.332-1.223,7.429-5.601,8.365-6.911
				c0.933-1.3,2.459-1.777,3.695-2.804c1.302-1.08,1.481-2.853,1.043-4.388c0.185-2.355-2.036-2.894-4.088-5.561
				c0.105,1.23,0.061,2.464-0.128,3.665c-0.862,5.425-5.189,8.912-10.764,10.974c-4.416,1.634-9.32,2.77-14.09,2.256
				c-15.509-1.672-17.802-9.561-16.298-16.301C242.125,416.434,242.001,416.675,241.886,416.85z"/>
			<path style="opacity:0.56;fill:#B99E30;enable-background:new    ;" d="M268.023,432.932c-5.999,1.428-12.537,1.464-18.007-1.401
				c-4.403-2.305-8.05-5.983-8.441-10.515c-0.239,0.586-0.217,1.714-0.682,2.18c-0.535,0.536-1.55,0.199-2.234,0.205
				c1.412,1.037,3.479,1.9,4.393,2.692c1.048,0.909,2.221,3.966,7.56,7.255c2.577,1.067,5.698,2.038,8.502,2.236
				c4.474,0.316,8.867,0.587,13.034-0.923c7.162-2.594,10.429-7.222,11.732-8.246c1.426-1.118,3.105-2.111,3.464-3.881
				c0.294-1.463-0.362-2.957-1.089-4.265c-0.329-0.305-0.691-0.619-1.078-0.976c0.01,0.075,0.023,0.149,0.034,0.224
				c0.329,2.731-0.275,5.225-2.174,7.447C279.54,429.058,273.57,431.612,268.023,432.932z"/>
			
				<linearGradient id="SVGID_7_" gradientUnits="userSpaceOnUse" x1="262.7359" y1="420.7375" x2="264.0062" y2="435.2556" gradientTransform="matrix(1 0 0 -1 0 842.11)">
				<stop  offset="0.0364" style="stop-color:#EEEA4C"/>
				<stop  offset="0.8545" style="stop-color:#FCF5A7"/>
			</linearGradient>
			<path style="opacity:0.44;fill:url(#SVGID_7_);enable-background:new    ;" d="M268.891,414.909
				c2.17,0.473,4.643,1.103,6.519,2.184c1.66,0.954,3.037,2.34,4.464,3.382c1.993-0.604,2.59-2.405,1.78-3.882
				c-3.528-6.442-10.561-9.701-18.433-9.701c-4.314,0-6.957,0.346-10.843,1.775c-2.994,1.101-8.016,4.032-8.469,11.058
				c3.26-4.177,7.401-5.629,11.258-5.791C259.71,413.743,264.549,413.964,268.891,414.909z"/>
			<path style="opacity:0.52;fill:#FAF9D5;enable-background:new    ;" d="M249.34,413.308c1.334-0.675,2.8-1.197,4.226-1.581
				c2.976-0.802,6.099-1.365,9.413-1.365c2.038,0,3.97,0.198,5.912,0.444c1.347,0.171,4.432,1.467,5.679,1.034
				c1.947-0.677-2.12-2.267-2.876-2.556c-1.634-0.625-3.626-0.91-5.465-1.127c-3.803-0.447-7.831-0.065-11.461,0.945
				c-2.906,0.808-8.062,2.893-8.565,5.993l0.121,0.105C246.432,414.884,248.584,413.691,249.34,413.308z"/>
		</g>
	</g>
</g>
<g>
	<g>
		<g>
			<path style="fill:#D8DC41;" d="M263.559,241.504c-0.767-1.331-6.191-5.482-7.634-6.232c-6.939-3.607-18.655-3.21-22.432-1.552
				c-8.1,3.555-9.828,9.026-10.722,10.411c-0.871,1.35-2.326,1.704-3.571,2.726c-3.686,3.022,2.887,4.915,4.737,6.517
				c1.266,1.098,2.709,5.334,11.477,9.325c4.159,1.893,15.481,1.457,20.012-0.208c3.332-1.223,7.429-5.601,8.365-6.911
				c0.933-1.3,2.459-1.777,3.695-2.804c1.302-1.08,1.481-2.853,1.043-4.388C268.744,245.687,265.791,245.376,263.559,241.504z"/>
			<path style="fill:#D3D331;" d="M268.53,248.388c0.214-2.701-2.739-3.012-4.971-6.884c-0.333-0.577-1.542-1.683-2.922-2.813
				c-2.304,6.782-11.038,12.12-18.637,13.37c-5.074,0.835-11.288,0.483-14.441-3.645c-2.09-2.738-2.427-6.104-1.634-9.272
				c-1.913,2.232-2.664,4.225-3.155,4.987c-0.871,1.35-2.326,1.704-3.571,2.726c-3.686,3.022,2.887,4.915,4.737,6.517
				c1.266,1.098,2.709,5.334,11.477,9.325c4.159,1.893,15.481,1.457,20.012-0.208c3.332-1.223,7.429-5.601,8.365-6.911
				c0.933-1.3,2.459-1.777,3.695-2.804C268.789,251.695,268.968,249.923,268.53,248.388z"/>
			<path style="opacity:0.43;fill:#C3BE30;enable-background:new    ;" d="M222.771,244.13c-0.871,1.35-2.326,1.704-3.571,2.726
				c-3.686,3.022,2.887,4.915,4.737,6.517c1.266,1.098,2.709,5.334,11.477,9.325c4.159,1.893,15.481,1.457,20.012-0.208
				c3.332-1.223,7.429-5.601,8.365-6.911c0.933-1.3,2.459-1.777,3.695-2.804c1.302-1.08,1.481-2.853,1.043-4.388
				c0.214-2.701-2.739-3.012-4.971-6.884c-0.767-1.331-6.191-5.482-7.634-6.232c-0.52-0.269-1.068-0.514-1.634-0.74
				c0.827,0.835,1.495,1.835,1.951,3.04c1.838,4.861,0.212,9.759-3.719,13.412c-3.337,3.102-7.967,5.54-12.795,6.327
				c-4.545,0.741-9.745,0.142-12.81-3.204c-2.045-2.231-3.358-5.126-3.296-8.01c0.047-2.153,0.723-4.162,1.623-6.116
				C223.823,241.861,223.2,243.466,222.771,244.13z"/>
			<path style="opacity:0.69;fill:#B8B533;enable-background:new    ;" d="M222.771,244.13c-0.209,0.325-0.452,0.591-0.72,0.824
				c0.018,0.084,0.031,0.17,0.034,0.262c0.081,1.983-0.929,4.402-3.621,4.434h-0.003c1.08,1.517,4.274,2.683,5.476,3.723
				c1.266,1.098,2.709,5.334,11.477,9.325c4.159,1.893,15.481,1.457,20.012-0.208c3.332-1.223,7.429-5.601,8.365-6.911
				c0.933-1.3,2.459-1.777,3.695-2.804c1.302-1.08,1.481-2.853,1.043-4.388c0.185-2.355-2.036-2.894-4.088-5.561
				c0.105,1.23,0.061,2.464-0.128,3.665c-0.862,5.425-5.189,8.912-10.764,10.974c-4.416,1.634-9.32,2.77-14.09,2.256
				c-15.509-1.672-17.802-9.561-16.298-16.301C223.01,243.713,222.886,243.955,222.771,244.13z"/>
			<path style="opacity:0.56;fill:#B99E30;enable-background:new    ;" d="M248.908,260.212c-5.999,1.428-12.537,1.464-18.007-1.401
				c-4.403-2.305-8.05-5.982-8.441-10.515c-0.239,0.586-0.217,1.714-0.682,2.18c-0.535,0.536-1.55,0.199-2.234,0.205
				c1.412,1.037,3.479,1.9,4.393,2.692c1.048,0.909,2.221,3.966,7.56,7.255c2.577,1.067,5.698,2.038,8.502,2.236
				c4.474,0.316,8.867,0.587,13.034-0.923c7.162-2.594,10.429-7.222,11.732-8.246c1.426-1.118,3.105-2.111,3.464-3.881
				c0.294-1.463-0.362-2.957-1.089-4.265c-0.329-0.305-0.691-0.619-1.078-0.976c0.01,0.075,0.023,0.149,0.034,0.224
				c0.329,2.731-0.275,5.226-2.174,7.447C260.425,256.338,254.455,258.891,248.908,260.212z"/>
			
				<linearGradient id="SVGID_8_" gradientUnits="userSpaceOnUse" x1="243.6205" y1="593.4576" x2="244.8906" y2="607.9756" gradientTransform="matrix(1 0 0 -1 0 842.11)">
				<stop  offset="0.0364" style="stop-color:#EEEA4C"/>
				<stop  offset="0.8545" style="stop-color:#FCF5A7"/>
			</linearGradient>
			<path style="opacity:0.44;fill:url(#SVGID_8_);enable-background:new    ;" d="M249.776,242.189
				c2.17,0.473,4.643,1.103,6.519,2.184c1.66,0.954,3.037,2.34,4.464,3.382c1.993-0.604,2.59-2.404,1.78-3.882
				c-3.528-6.442-10.561-9.701-18.434-9.701c-4.313,0-6.957,0.346-10.843,1.775c-2.994,1.101-8.016,4.033-8.469,11.058
				c3.26-4.177,7.401-5.629,11.258-5.791C240.595,241.023,245.434,241.244,249.776,242.189z"/>
			<path style="opacity:0.52;fill:#FAF9D5;enable-background:new    ;" d="M230.225,240.588c1.334-0.675,2.8-1.197,4.226-1.581
				c2.976-0.802,6.099-1.365,9.413-1.365c2.038,0,3.97,0.198,5.912,0.444c1.347,0.171,4.432,1.467,5.679,1.034
				c1.947-0.677-2.12-2.267-2.876-2.556c-1.634-0.625-3.626-0.91-5.465-1.127c-3.803-0.447-7.831-0.064-11.461,0.945
				c-2.906,0.808-8.062,2.893-8.565,5.993l0.121,0.105C227.317,242.164,229.469,240.971,230.225,240.588z"/>
		</g>
	</g>
	<g>
		<g>
			<path style="fill:#D8DC41;" d="M320.021,253.614c-0.767-1.331-6.191-5.482-7.634-6.232c-6.939-3.607-18.655-3.21-22.432-1.552
				c-8.1,3.555-9.828,9.026-10.722,10.411c-0.871,1.35-2.326,1.704-3.571,2.726c-3.686,3.022,2.887,4.915,4.737,6.517
				c1.266,1.098,2.709,5.334,11.477,9.325c4.159,1.893,15.481,1.457,20.012-0.208c3.332-1.223,7.429-5.601,8.365-6.911
				c0.933-1.3,2.459-1.777,3.695-2.804c1.302-1.08,1.481-2.853,1.043-4.388C325.206,257.798,322.252,257.487,320.021,253.614z"/>
			<path style="fill:#D3D331;" d="M324.992,260.499c0.214-2.701-2.739-3.012-4.971-6.884c-0.333-0.577-1.542-1.683-2.922-2.813
				c-2.304,6.782-11.038,12.12-18.637,13.37c-5.074,0.835-11.288,0.483-14.441-3.645c-2.091-2.738-2.427-6.104-1.634-9.272
				c-1.913,2.232-2.664,4.225-3.155,4.987c-0.871,1.35-2.326,1.704-3.571,2.726c-3.686,3.022,2.887,4.915,4.737,6.517
				c1.266,1.098,2.709,5.334,11.477,9.325c4.159,1.893,15.481,1.457,20.012-0.208c3.332-1.223,7.429-5.601,8.365-6.911
				c0.933-1.3,2.459-1.777,3.695-2.804C325.25,263.806,325.429,262.033,324.992,260.499z"/>
			<path style="opacity:0.43;fill:#C3BE30;enable-background:new    ;" d="M279.233,256.241c-0.871,1.35-2.326,1.704-3.571,2.726
				c-3.686,3.022,2.887,4.915,4.737,6.517c1.266,1.098,2.709,5.334,11.477,9.325c4.159,1.893,15.481,1.457,20.012-0.208
				c3.332-1.223,7.429-5.601,8.365-6.911c0.933-1.3,2.459-1.777,3.695-2.804c1.302-1.08,1.481-2.853,1.043-4.388
				c0.214-2.701-2.739-3.012-4.971-6.884c-0.767-1.331-6.191-5.482-7.634-6.232c-0.52-0.269-1.068-0.514-1.634-0.74
				c0.827,0.835,1.495,1.835,1.951,3.04c1.838,4.86,0.212,9.759-3.719,13.412c-3.337,3.102-7.967,5.54-12.795,6.327
				c-4.545,0.741-9.745,0.142-12.81-3.204c-2.045-2.231-3.357-5.126-3.296-8.01c0.047-2.153,0.723-4.162,1.624-6.116
				C280.284,253.971,279.662,255.577,279.233,256.241z"/>
			<path style="opacity:0.69;fill:#B8B533;enable-background:new    ;" d="M279.233,256.241c-0.209,0.325-0.452,0.591-0.72,0.824
				c0.018,0.084,0.031,0.17,0.034,0.262c0.081,1.983-0.929,4.402-3.621,4.434h-0.003c1.08,1.517,4.274,2.683,5.476,3.723
				c1.266,1.098,2.709,5.334,11.477,9.325c4.159,1.893,15.481,1.457,20.012-0.208c3.332-1.223,7.429-5.601,8.365-6.911
				c0.933-1.3,2.459-1.777,3.695-2.804c1.302-1.08,1.481-2.853,1.043-4.388c0.185-2.355-2.036-2.894-4.088-5.561
				c0.105,1.23,0.061,2.464-0.128,3.665c-0.862,5.425-5.189,8.912-10.764,10.974c-4.416,1.634-9.32,2.77-14.09,2.256
				c-15.509-1.672-17.802-9.561-16.298-16.301C279.472,255.824,279.347,256.066,279.233,256.241z"/>
			<path style="opacity:0.56;fill:#B99E30;enable-background:new    ;" d="M305.37,272.323c-5.999,1.428-12.538,1.464-18.007-1.401
				c-4.403-2.306-8.05-5.983-8.441-10.515c-0.239,0.586-0.217,1.714-0.682,2.18c-0.535,0.536-1.55,0.199-2.234,0.205
				c1.412,1.037,3.479,1.9,4.394,2.692c1.048,0.909,2.221,3.966,7.56,7.255c2.577,1.067,5.698,2.038,8.502,2.236
				c4.474,0.316,8.867,0.587,13.034-0.923c7.162-2.594,10.429-7.222,11.732-8.246c1.426-1.118,3.105-2.111,3.464-3.881
				c0.294-1.463-0.362-2.957-1.089-4.265c-0.329-0.305-0.691-0.619-1.078-0.976c0.01,0.075,0.023,0.149,0.033,0.224
				c0.329,2.731-0.275,5.226-2.174,7.447C316.887,268.448,310.916,271.002,305.37,272.323z"/>
			
				<linearGradient id="SVGID_9_" gradientUnits="userSpaceOnUse" x1="300.0815" y1="581.3466" x2="301.3516" y2="595.8646" gradientTransform="matrix(1 0 0 -1 0 842.11)">
				<stop  offset="0.0364" style="stop-color:#EEEA4C"/>
				<stop  offset="0.8545" style="stop-color:#FCF5A7"/>
			</linearGradient>
			<path style="opacity:0.44;fill:url(#SVGID_9_);enable-background:new    ;" d="M306.237,254.3
				c2.17,0.473,4.643,1.103,6.519,2.184c1.66,0.954,3.037,2.34,4.464,3.382c1.993-0.604,2.59-2.405,1.78-3.882
				c-3.528-6.442-10.561-9.701-18.434-9.701c-4.313,0-6.957,0.346-10.843,1.775c-2.994,1.101-8.015,4.033-8.469,11.058
				c3.26-4.177,7.401-5.629,11.258-5.791C297.056,253.134,301.896,253.354,306.237,254.3z"/>
			<path style="opacity:0.52;fill:#FAF9D5;enable-background:new    ;" d="M286.687,252.699c1.334-0.675,2.8-1.197,4.226-1.58
				c2.976-0.802,6.099-1.365,9.413-1.365c2.038,0,3.97,0.198,5.912,0.444c1.347,0.171,4.432,1.467,5.679,1.034
				c1.947-0.677-2.12-2.267-2.876-2.556c-1.634-0.625-3.626-0.91-5.465-1.127c-3.803-0.447-7.831-0.065-11.46,0.945
				c-2.906,0.808-8.062,2.893-8.566,5.993l0.121,0.105C283.779,254.275,285.931,253.082,286.687,252.699z"/>
		</g>
	</g>
	<g>
		<g>
			<path style="fill:#D8DC41;" d="M346.883,289.824c-0.767-1.331-6.191-5.482-7.634-6.232c-6.939-3.606-18.655-3.21-22.432-1.552
				c-8.1,3.555-9.828,9.026-10.722,10.411c-0.871,1.35-2.326,1.704-3.571,2.726c-3.686,3.022,2.887,4.915,4.737,6.517
				c1.266,1.098,2.709,5.334,11.477,9.325c4.159,1.893,15.481,1.457,20.012-0.208c3.332-1.224,7.429-5.601,8.365-6.911
				c0.933-1.3,2.459-1.777,3.695-2.804c1.302-1.08,1.481-2.853,1.043-4.388C352.068,294.008,349.114,293.696,346.883,289.824z"/>
			<path style="fill:#D3D331;" d="M351.854,296.708c0.214-2.701-2.74-3.012-4.971-6.884c-0.333-0.577-1.542-1.683-2.922-2.813
				c-2.304,6.782-11.038,12.12-18.637,13.37c-5.074,0.835-11.288,0.483-14.441-3.645c-2.091-2.738-2.427-6.104-1.634-9.272
				c-1.913,2.232-2.664,4.225-3.155,4.987c-0.871,1.35-2.326,1.704-3.571,2.726c-3.686,3.022,2.887,4.915,4.737,6.517
				c1.266,1.098,2.709,5.334,11.477,9.325c4.159,1.893,15.481,1.457,20.012-0.208c3.332-1.224,7.429-5.601,8.365-6.911
				c0.933-1.3,2.459-1.777,3.695-2.804C352.112,300.016,352.291,298.243,351.854,296.708z"/>
			<path style="opacity:0.43;fill:#C3BE30;enable-background:new    ;" d="M306.095,292.45c-0.871,1.35-2.326,1.704-3.571,2.726
				c-3.686,3.022,2.887,4.915,4.737,6.517c1.266,1.098,2.709,5.334,11.477,9.325c4.159,1.893,15.481,1.457,20.012-0.208
				c3.332-1.224,7.429-5.601,8.365-6.911c0.933-1.3,2.459-1.777,3.695-2.804c1.302-1.08,1.481-2.853,1.043-4.388
				c0.214-2.701-2.74-3.012-4.971-6.884c-0.767-1.331-6.191-5.482-7.634-6.232c-0.52-0.269-1.068-0.514-1.634-0.74
				c0.827,0.835,1.495,1.835,1.951,3.04c1.838,4.86,0.212,9.758-3.719,13.412c-3.337,3.102-7.967,5.54-12.795,6.327
				c-4.545,0.741-9.745,0.142-12.81-3.204c-2.045-2.231-3.358-5.126-3.296-8.01c0.047-2.153,0.723-4.162,1.623-6.116
				C307.146,290.181,306.524,291.786,306.095,292.45z"/>
			<path style="opacity:0.69;fill:#B8B533;enable-background:new    ;" d="M306.095,292.45c-0.209,0.325-0.452,0.591-0.72,0.824
				c0.018,0.084,0.031,0.17,0.034,0.262c0.081,1.983-0.929,4.402-3.621,4.435h-0.003c1.08,1.517,4.274,2.683,5.476,3.723
				c1.266,1.098,2.709,5.334,11.477,9.325c4.159,1.893,15.481,1.457,20.012-0.208c3.332-1.224,7.429-5.601,8.365-6.911
				c0.933-1.3,2.459-1.777,3.695-2.804c1.302-1.08,1.481-2.853,1.043-4.388c0.185-2.355-2.036-2.894-4.088-5.561
				c0.105,1.23,0.061,2.464-0.128,3.665c-0.862,5.425-5.189,8.912-10.764,10.974c-4.416,1.634-9.32,2.77-14.09,2.256
				c-15.509-1.672-17.802-9.561-16.298-16.301C306.334,292.034,306.209,292.275,306.095,292.45z"/>
			<path style="opacity:0.56;fill:#B99E30;enable-background:new    ;" d="M332.232,308.532c-5.999,1.428-12.538,1.464-18.007-1.401
				c-4.403-2.305-8.05-5.983-8.441-10.515c-0.239,0.586-0.217,1.714-0.682,2.18c-0.535,0.536-1.55,0.199-2.234,0.205
				c1.412,1.037,3.479,1.9,4.394,2.692c1.048,0.909,2.221,3.966,7.56,7.255c2.577,1.067,5.698,2.038,8.502,2.236
				c4.474,0.316,8.867,0.587,13.034-0.923c7.162-2.594,10.429-7.222,11.732-8.246c1.426-1.118,3.105-2.111,3.464-3.881
				c0.294-1.463-0.362-2.957-1.089-4.265c-0.329-0.305-0.691-0.619-1.078-0.976c0.01,0.075,0.023,0.149,0.033,0.224
				c0.329,2.731-0.275,5.225-2.174,7.447C343.749,304.658,337.778,307.212,332.232,308.532z"/>
			
				<linearGradient id="SVGID_10_" gradientUnits="userSpaceOnUse" x1="326.9435" y1="545.1375" x2="328.2137" y2="559.6556" gradientTransform="matrix(1 0 0 -1 0 842.11)">
				<stop  offset="0.0364" style="stop-color:#EEEA4C"/>
				<stop  offset="0.8545" style="stop-color:#FCF5A7"/>
			</linearGradient>
			<path style="opacity:0.44;fill:url(#SVGID_10_);enable-background:new    ;" d="M333.099,290.509
				c2.17,0.473,4.643,1.103,6.519,2.184c1.66,0.954,3.037,2.34,4.464,3.382c1.993-0.604,2.59-2.405,1.78-3.882
				c-3.528-6.442-10.561-9.701-18.434-9.701c-4.313,0-6.957,0.346-10.843,1.775c-2.994,1.101-8.016,4.032-8.469,11.058
				c3.26-4.177,7.401-5.629,11.258-5.791C323.918,289.343,328.758,289.564,333.099,290.509z"/>
			<path style="opacity:0.52;fill:#FAF9D5;enable-background:new    ;" d="M313.549,288.908c1.334-0.675,2.8-1.197,4.226-1.581
				c2.976-0.802,6.099-1.365,9.413-1.365c2.038,0,3.97,0.198,5.912,0.444c1.347,0.171,4.432,1.467,5.679,1.034
				c1.947-0.677-2.12-2.267-2.876-2.556c-1.634-0.625-3.626-0.909-5.465-1.127c-3.803-0.447-7.831-0.065-11.461,0.945
				c-2.906,0.808-8.062,2.893-8.565,5.993l0.121,0.105C310.641,290.484,312.793,289.291,313.549,288.908z"/>
		</g>
	</g>
	<g>
		<g>
			<path style="fill:#D8DC41;" d="M273.457,279.98c-0.767-1.331-6.191-5.482-7.634-6.232c-6.939-3.606-18.655-3.21-22.432-1.552
				c-8.1,3.554-9.828,9.026-10.722,10.41c-0.871,1.35-2.326,1.704-3.571,2.726c-3.686,3.022,2.887,4.915,4.737,6.517
				c1.266,1.098,2.709,5.334,11.477,9.325c4.159,1.893,15.481,1.457,20.012-0.208c3.332-1.224,7.429-5.601,8.365-6.911
				c0.933-1.3,2.459-1.777,3.695-2.804c1.302-1.08,1.481-2.853,1.043-4.388C278.642,284.164,275.688,283.852,273.457,279.98z"/>
			<path style="fill:#D3D331;" d="M278.428,286.864c0.214-2.701-2.739-3.012-4.971-6.884c-0.333-0.577-1.542-1.683-2.922-2.813
				c-2.304,6.782-11.038,12.12-18.637,13.37c-5.074,0.835-11.288,0.483-14.441-3.645c-2.091-2.738-2.427-6.104-1.634-9.272
				c-1.913,2.232-2.664,4.225-3.155,4.987c-0.871,1.35-2.326,1.704-3.571,2.726c-3.686,3.022,2.887,4.915,4.737,6.517
				c1.266,1.098,2.709,5.334,11.477,9.325c4.159,1.893,15.481,1.457,20.012-0.208c3.332-1.224,7.429-5.601,8.365-6.911
				c0.933-1.3,2.459-1.777,3.695-2.804C278.687,290.172,278.865,288.399,278.428,286.864z"/>
			<path style="opacity:0.43;fill:#C3BE30;enable-background:new    ;" d="M232.669,282.606c-0.871,1.35-2.326,1.704-3.571,2.726
				c-3.686,3.022,2.887,4.915,4.737,6.517c1.266,1.098,2.709,5.334,11.477,9.325c4.159,1.893,15.481,1.457,20.012-0.208
				c3.332-1.224,7.429-5.601,8.365-6.911c0.933-1.3,2.459-1.777,3.695-2.804c1.302-1.08,1.481-2.853,1.043-4.388
				c0.214-2.701-2.739-3.012-4.971-6.884c-0.767-1.331-6.191-5.482-7.634-6.232c-0.52-0.269-1.068-0.514-1.634-0.74
				c0.827,0.835,1.495,1.835,1.951,3.04c1.838,4.86,0.212,9.759-3.719,13.412c-3.337,3.102-7.967,5.539-12.795,6.326
				c-4.545,0.741-9.745,0.142-12.81-3.204c-2.045-2.231-3.358-5.126-3.296-8.01c0.047-2.153,0.723-4.162,1.623-6.116
				C233.721,280.337,233.098,281.942,232.669,282.606z"/>
			<path style="opacity:0.69;fill:#B8B533;enable-background:new    ;" d="M232.669,282.606c-0.209,0.325-0.452,0.591-0.72,0.824
				c0.018,0.084,0.031,0.17,0.034,0.262c0.081,1.983-0.929,4.402-3.621,4.435h-0.003c1.08,1.517,4.274,2.683,5.476,3.723
				c1.266,1.098,2.709,5.334,11.477,9.325c4.159,1.893,15.481,1.457,20.012-0.208c3.332-1.224,7.429-5.601,8.365-6.911
				c0.933-1.3,2.459-1.777,3.695-2.804c1.302-1.08,1.481-2.853,1.043-4.388c0.185-2.355-2.036-2.894-4.088-5.561
				c0.105,1.23,0.061,2.464-0.128,3.665c-0.862,5.425-5.189,8.912-10.764,10.974c-4.416,1.634-9.32,2.77-14.09,2.256
				c-15.509-1.672-17.802-9.561-16.298-16.301C232.908,282.19,232.783,282.431,232.669,282.606z"/>
			<path style="opacity:0.56;fill:#B99E30;enable-background:new    ;" d="M258.806,298.688c-5.999,1.428-12.537,1.464-18.007-1.401
				c-4.403-2.305-8.05-5.983-8.441-10.515c-0.239,0.586-0.217,1.714-0.682,2.18c-0.535,0.536-1.55,0.199-2.234,0.205
				c1.412,1.037,3.479,1.9,4.393,2.692c1.048,0.909,2.221,3.966,7.56,7.255c2.577,1.067,5.698,2.038,8.502,2.236
				c4.474,0.316,8.867,0.587,13.034-0.923c7.162-2.594,10.429-7.222,11.732-8.246c1.426-1.118,3.105-2.111,3.464-3.881
				c0.294-1.463-0.362-2.957-1.089-4.265c-0.329-0.305-0.691-0.619-1.078-0.976c0.01,0.075,0.023,0.149,0.034,0.224
				c0.329,2.73-0.275,5.225-2.174,7.447C270.323,294.814,264.353,297.368,258.806,298.688z"/>
			
				<linearGradient id="SVGID_11_" gradientUnits="userSpaceOnUse" x1="253.5177" y1="554.9815" x2="254.788" y2="569.4996" gradientTransform="matrix(1 0 0 -1 0 842.11)">
				<stop  offset="0.0364" style="stop-color:#EEEA4C"/>
				<stop  offset="0.8545" style="stop-color:#FCF5A7"/>
			</linearGradient>
			<path style="opacity:0.44;fill:url(#SVGID_11_);enable-background:new    ;" d="M259.673,280.665
				c2.17,0.473,4.643,1.103,6.519,2.184c1.66,0.954,3.037,2.34,4.464,3.382c1.993-0.604,2.589-2.405,1.78-3.882
				c-3.528-6.442-10.561-9.701-18.433-9.701c-4.314,0-6.957,0.346-10.843,1.775c-2.994,1.101-8.015,4.032-8.469,11.058
				c3.26-4.177,7.401-5.629,11.258-5.791C250.493,279.499,255.332,279.72,259.673,280.665z"/>
			<path style="opacity:0.52;fill:#FAF9D5;enable-background:new    ;" d="M240.123,279.064c1.334-0.675,2.8-1.197,4.226-1.581
				c2.976-0.802,6.099-1.365,9.413-1.365c2.038,0,3.97,0.198,5.912,0.444c1.347,0.171,4.432,1.467,5.679,1.034
				c1.947-0.677-2.12-2.267-2.876-2.556c-1.634-0.625-3.626-0.909-5.465-1.127c-3.803-0.447-7.831-0.065-11.461,0.945
				c-2.906,0.808-8.062,2.893-8.565,5.993l0.121,0.105C237.215,280.64,239.367,279.447,240.123,279.064z"/>
		</g>
	</g>
	<g>
		<g>
			<path style="fill:#D8DC41;" d="M303.946,314.159c-0.767-1.331-6.191-5.482-7.634-6.232c-6.939-3.606-18.655-3.21-22.432-1.552
				c-8.1,3.555-9.828,9.026-10.722,10.41c-0.871,1.35-2.326,1.704-3.571,2.726c-3.686,3.022,2.887,4.915,4.737,6.517
				c1.266,1.098,2.709,5.334,11.477,9.325c4.159,1.893,15.481,1.457,20.012-0.208c3.332-1.224,7.429-5.601,8.365-6.911
				c0.933-1.3,2.459-1.777,3.695-2.804c1.302-1.08,1.481-2.853,1.043-4.388C309.13,318.343,306.177,318.032,303.946,314.159z"/>
			<path style="fill:#D3D331;" d="M308.916,321.043c0.214-2.701-2.739-3.012-4.971-6.884c-0.333-0.577-1.542-1.683-2.922-2.813
				c-2.304,6.782-11.038,12.12-18.637,13.37c-5.074,0.835-11.288,0.483-14.441-3.645c-2.091-2.738-2.427-6.104-1.634-9.272
				c-1.913,2.232-2.664,4.225-3.155,4.987c-0.871,1.35-2.326,1.704-3.571,2.726c-3.686,3.022,2.887,4.915,4.737,6.517
				c1.266,1.098,2.709,5.334,11.477,9.325c4.159,1.893,15.481,1.457,20.012-0.208c3.332-1.224,7.429-5.601,8.365-6.911
				c0.933-1.3,2.459-1.777,3.695-2.804C309.175,324.351,309.354,322.578,308.916,321.043z"/>
			<path style="opacity:0.43;fill:#C3BE30;enable-background:new    ;" d="M263.157,316.785c-0.871,1.35-2.326,1.704-3.571,2.726
				c-3.686,3.022,2.887,4.915,4.737,6.517c1.266,1.098,2.709,5.334,11.477,9.325c4.159,1.893,15.481,1.457,20.012-0.208
				c3.332-1.224,7.429-5.601,8.365-6.911c0.933-1.3,2.459-1.777,3.695-2.804c1.302-1.08,1.481-2.853,1.043-4.388
				c0.214-2.701-2.739-3.012-4.971-6.884c-0.767-1.331-6.191-5.482-7.634-6.232c-0.52-0.269-1.068-0.514-1.634-0.74
				c0.827,0.835,1.495,1.835,1.951,3.04c1.838,4.86,0.212,9.759-3.719,13.412c-3.337,3.102-7.967,5.539-12.795,6.326
				c-4.545,0.741-9.745,0.142-12.81-3.204c-2.045-2.231-3.358-5.126-3.296-8.01c0.047-2.153,0.723-4.162,1.623-6.116
				C264.209,314.516,263.586,316.121,263.157,316.785z"/>
			<path style="opacity:0.69;fill:#B8B533;enable-background:new    ;" d="M263.157,316.785c-0.209,0.325-0.452,0.591-0.72,0.824
				c0.018,0.083,0.031,0.17,0.034,0.262c0.081,1.983-0.929,4.402-3.621,4.434h-0.003c1.08,1.517,4.274,2.683,5.476,3.723
				c1.266,1.098,2.709,5.334,11.477,9.325c4.159,1.893,15.481,1.457,20.012-0.208c3.332-1.224,7.429-5.601,8.365-6.911
				c0.933-1.3,2.459-1.777,3.695-2.804c1.302-1.08,1.481-2.853,1.043-4.388c0.185-2.355-2.036-2.894-4.088-5.561
				c0.105,1.23,0.061,2.464-0.128,3.665c-0.862,5.425-5.189,8.912-10.764,10.974c-4.416,1.634-9.32,2.771-14.09,2.256
				c-15.509-1.672-17.802-9.561-16.298-16.301C263.396,316.369,263.272,316.611,263.157,316.785z"/>
			<path style="opacity:0.56;fill:#B99E30;enable-background:new    ;" d="M289.294,332.867c-5.999,1.428-12.537,1.464-18.007-1.401
				c-4.403-2.305-8.05-5.983-8.441-10.515c-0.239,0.586-0.217,1.714-0.682,2.18c-0.535,0.536-1.55,0.199-2.234,0.205
				c1.412,1.037,3.479,1.9,4.393,2.692c1.048,0.909,2.221,3.966,7.56,7.255c2.577,1.067,5.698,2.038,8.502,2.236
				c4.474,0.316,8.867,0.587,13.034-0.923c7.162-2.594,10.429-7.222,11.732-8.246c1.426-1.118,3.105-2.111,3.464-3.881
				c0.294-1.463-0.362-2.957-1.089-4.265c-0.329-0.305-0.691-0.619-1.078-0.976c0.01,0.075,0.023,0.149,0.034,0.224
				c0.329,2.731-0.275,5.226-2.174,7.447C300.811,328.993,294.841,331.547,289.294,332.867z"/>
			
				<linearGradient id="SVGID_12_" gradientUnits="userSpaceOnUse" x1="284.007" y1="520.8026" x2="285.2771" y2="535.3206" gradientTransform="matrix(1 0 0 -1 0 842.11)">
				<stop  offset="0.0364" style="stop-color:#EEEA4C"/>
				<stop  offset="0.8545" style="stop-color:#FCF5A7"/>
			</linearGradient>
			<path style="opacity:0.44;fill:url(#SVGID_12_);enable-background:new    ;" d="M290.162,314.844
				c2.17,0.473,4.643,1.103,6.519,2.184c1.66,0.954,3.037,2.34,4.464,3.382c1.993-0.604,2.59-2.405,1.78-3.882
				c-3.528-6.442-10.561-9.701-18.433-9.701c-4.314,0-6.957,0.346-10.843,1.775c-2.994,1.101-8.016,4.033-8.469,11.058
				c3.26-4.177,7.401-5.629,11.258-5.791C280.981,313.678,285.82,313.899,290.162,314.844z"/>
			<path style="opacity:0.52;fill:#FAF9D5;enable-background:new    ;" d="M270.611,313.243c1.334-0.675,2.8-1.197,4.226-1.581
				c2.976-0.802,6.099-1.365,9.413-1.365c2.038,0,3.97,0.198,5.912,0.444c1.347,0.171,4.432,1.467,5.679,1.034
				c1.947-0.677-2.12-2.267-2.876-2.556c-1.634-0.625-3.626-0.91-5.465-1.127c-3.803-0.447-7.831-0.065-11.461,0.945
				c-2.906,0.808-8.062,2.893-8.565,5.993l0.121,0.105C267.703,314.82,269.855,313.626,270.611,313.243z"/>
		</g>
	</g>
	<g>
		<g>
			<path style="fill:#D8DC41;" d="M329.27,384.78c-0.767-1.331-6.191-5.482-7.634-6.232c-6.939-3.607-18.655-3.21-22.432-1.552
				c-8.1,3.555-9.828,9.026-10.722,10.411c-0.871,1.35-2.326,1.704-3.571,2.726c-3.686,3.022,2.888,4.915,4.737,6.517
				c1.266,1.098,2.709,5.334,11.477,9.325c4.159,1.893,15.481,1.457,20.012-0.208c3.332-1.224,7.429-5.601,8.365-6.911
				c0.933-1.3,2.459-1.777,3.695-2.804c1.302-1.08,1.481-2.853,1.043-4.388C334.454,388.964,331.501,388.653,329.27,384.78z"/>
			<path style="fill:#D3D331;" d="M334.24,391.664c0.214-2.701-2.739-3.012-4.971-6.884c-0.333-0.577-1.543-1.683-2.922-2.813
				c-2.304,6.782-11.038,12.12-18.637,13.37c-5.074,0.835-11.288,0.483-14.441-3.646c-2.091-2.738-2.427-6.104-1.634-9.272
				c-1.913,2.232-2.664,4.225-3.155,4.987c-0.871,1.35-2.326,1.704-3.571,2.726c-3.686,3.022,2.888,4.915,4.737,6.517
				c1.266,1.098,2.709,5.334,11.477,9.325c4.159,1.893,15.481,1.457,20.012-0.208c3.332-1.224,7.429-5.601,8.365-6.911
				c0.933-1.3,2.459-1.777,3.695-2.804C334.499,394.972,334.678,393.199,334.24,391.664z"/>
			<path style="opacity:0.43;fill:#C3BE30;enable-background:new    ;" d="M288.481,387.406c-0.871,1.35-2.326,1.704-3.571,2.726
				c-3.686,3.022,2.888,4.915,4.737,6.517c1.266,1.098,2.709,5.334,11.477,9.325c4.159,1.893,15.481,1.457,20.012-0.208
				c3.332-1.224,7.429-5.601,8.365-6.911c0.933-1.3,2.459-1.777,3.695-2.804c1.302-1.08,1.481-2.853,1.043-4.388
				c0.214-2.701-2.739-3.012-4.971-6.884c-0.767-1.331-6.191-5.482-7.634-6.232c-0.52-0.269-1.068-0.514-1.634-0.74
				c0.827,0.835,1.495,1.835,1.951,3.04c1.838,4.86,0.212,9.759-3.719,13.412c-3.337,3.102-7.967,5.54-12.795,6.326
				c-4.545,0.741-9.745,0.142-12.81-3.204c-2.045-2.231-3.358-5.126-3.296-8.01c0.047-2.153,0.723-4.162,1.623-6.116
				C289.533,385.137,288.91,386.742,288.481,387.406z"/>
			<path style="opacity:0.69;fill:#B8B533;enable-background:new    ;" d="M288.481,387.406c-0.208,0.325-0.452,0.591-0.72,0.824
				c0.018,0.083,0.031,0.17,0.034,0.262c0.081,1.982-0.929,4.402-3.621,4.434h-0.003c1.08,1.517,4.274,2.683,5.476,3.723
				c1.266,1.098,2.709,5.334,11.477,9.325c4.159,1.893,15.481,1.457,20.012-0.208c3.332-1.224,7.429-5.601,8.365-6.911
				c0.933-1.3,2.459-1.777,3.695-2.804c1.302-1.08,1.481-2.853,1.043-4.388c0.185-2.355-2.036-2.894-4.088-5.561
				c0.105,1.23,0.061,2.464-0.129,3.665c-0.862,5.425-5.188,8.912-10.764,10.974c-4.416,1.634-9.32,2.77-14.09,2.256
				c-15.509-1.672-17.802-9.561-16.298-16.301C288.72,386.99,288.595,387.232,288.481,387.406z"/>
			<path style="opacity:0.56;fill:#B99E30;enable-background:new    ;" d="M314.618,403.488c-5.999,1.428-12.538,1.464-18.007-1.401
				c-4.403-2.305-8.05-5.983-8.441-10.515c-0.239,0.586-0.217,1.714-0.682,2.18c-0.535,0.536-1.55,0.199-2.234,0.205
				c1.412,1.037,3.479,1.9,4.394,2.692c1.048,0.909,2.221,3.966,7.56,7.255c2.578,1.067,5.698,2.038,8.502,2.236
				c4.474,0.316,8.867,0.586,13.034-0.923c7.162-2.594,10.429-7.222,11.732-8.246c1.426-1.118,3.105-2.111,3.464-3.882
				c0.294-1.462-0.362-2.957-1.089-4.265c-0.329-0.305-0.691-0.619-1.078-0.976c0.01,0.075,0.023,0.149,0.033,0.224
				c0.33,2.731-0.275,5.226-2.174,7.447C326.135,399.614,320.165,402.168,314.618,403.488z"/>
			
				<linearGradient id="SVGID_13_" gradientUnits="userSpaceOnUse" x1="309.331" y1="450.1815" x2="310.6012" y2="464.6996" gradientTransform="matrix(1 0 0 -1 0 842.11)">
				<stop  offset="0.0364" style="stop-color:#EEEA4C"/>
				<stop  offset="0.8545" style="stop-color:#FCF5A7"/>
			</linearGradient>
			<path style="opacity:0.44;fill:url(#SVGID_13_);enable-background:new    ;" d="M315.486,385.465
				c2.17,0.473,4.643,1.103,6.519,2.184c1.66,0.954,3.037,2.339,4.464,3.382c1.993-0.604,2.59-2.405,1.78-3.882
				c-3.528-6.442-10.561-9.701-18.433-9.701c-4.314,0-6.957,0.346-10.843,1.775c-2.994,1.101-8.015,4.033-8.469,11.058
				c3.26-4.177,7.401-5.629,11.259-5.791C306.305,384.299,311.144,384.52,315.486,385.465z"/>
			<path style="opacity:0.52;fill:#FAF9D5;enable-background:new    ;" d="M295.935,383.864c1.334-0.675,2.8-1.197,4.226-1.581
				c2.976-0.802,6.099-1.365,9.413-1.365c2.038,0,3.97,0.198,5.912,0.444c1.347,0.171,4.432,1.467,5.679,1.034
				c1.947-0.677-2.12-2.267-2.876-2.556c-1.634-0.625-3.626-0.91-5.465-1.127c-3.803-0.447-7.831-0.064-11.461,0.945
				c-2.906,0.808-8.062,2.893-8.566,5.993l0.121,0.105C293.027,385.441,295.179,384.247,295.935,383.864z"/>
		</g>
	</g>
	<g>
		<g>
			<path style="fill:#D8DC41;" d="M345.308,338.925c-0.767-1.331-6.191-5.482-7.634-6.232c-6.939-3.607-18.655-3.21-22.432-1.552
				c-8.1,3.555-9.828,9.026-10.722,10.411c-0.871,1.35-2.326,1.704-3.571,2.726c-3.686,3.022,2.887,4.915,4.737,6.517
				c1.266,1.098,2.709,5.334,11.477,9.325c4.159,1.893,15.481,1.457,20.012-0.208c3.332-1.224,7.429-5.601,8.365-6.911
				c0.933-1.3,2.459-1.777,3.695-2.804c1.302-1.08,1.481-2.853,1.043-4.388C350.493,343.108,347.539,342.797,345.308,338.925z"/>
			<path style="fill:#D3D331;" d="M350.278,345.809c0.214-2.701-2.739-3.012-4.971-6.884c-0.333-0.577-1.542-1.683-2.922-2.813
				c-2.304,6.782-11.038,12.12-18.637,13.37c-5.074,0.835-11.288,0.483-14.441-3.645c-2.091-2.738-2.427-6.104-1.634-9.272
				c-1.913,2.232-2.664,4.225-3.155,4.987c-0.871,1.35-2.326,1.704-3.571,2.726c-3.686,3.022,2.887,4.915,4.737,6.517
				c1.266,1.098,2.709,5.334,11.477,9.325c4.159,1.893,15.481,1.457,20.012-0.208c3.332-1.224,7.429-5.601,8.365-6.911
				c0.933-1.3,2.459-1.777,3.695-2.804C350.537,349.116,350.716,347.344,350.278,345.809z"/>
			<path style="opacity:0.43;fill:#C3BE30;enable-background:new    ;" d="M304.519,341.551c-0.871,1.35-2.326,1.704-3.571,2.726
				c-3.686,3.022,2.887,4.915,4.737,6.517c1.266,1.098,2.709,5.334,11.477,9.325c4.159,1.893,15.481,1.457,20.012-0.208
				c3.332-1.224,7.429-5.601,8.365-6.911c0.933-1.3,2.459-1.777,3.695-2.804c1.302-1.08,1.481-2.853,1.043-4.388
				c0.214-2.701-2.739-3.012-4.971-6.884c-0.767-1.331-6.191-5.482-7.634-6.232c-0.52-0.269-1.068-0.514-1.634-0.74
				c0.827,0.835,1.495,1.835,1.951,3.04c1.838,4.861,0.212,9.759-3.719,13.412c-3.337,3.102-7.967,5.54-12.795,6.327
				c-4.545,0.741-9.745,0.142-12.81-3.204c-2.045-2.231-3.358-5.126-3.296-8.01c0.047-2.153,0.723-4.162,1.623-6.116
				C305.571,339.282,304.948,340.887,304.519,341.551z"/>
			<path style="opacity:0.69;fill:#B8B533;enable-background:new    ;" d="M304.519,341.551c-0.209,0.325-0.452,0.591-0.72,0.824
				c0.018,0.084,0.031,0.17,0.034,0.262c0.081,1.983-0.929,4.402-3.621,4.434h-0.003c1.08,1.517,4.274,2.683,5.476,3.723
				c1.266,1.098,2.709,5.334,11.477,9.325c4.159,1.893,15.481,1.457,20.012-0.208c3.332-1.224,7.429-5.601,8.365-6.911
				c0.933-1.3,2.459-1.777,3.695-2.804c1.302-1.08,1.481-2.853,1.043-4.388c0.185-2.355-2.036-2.894-4.088-5.561
				c0.105,1.23,0.061,2.464-0.128,3.665c-0.862,5.425-5.189,8.912-10.764,10.974c-4.416,1.634-9.32,2.77-14.09,2.256
				c-15.509-1.672-17.802-9.561-16.298-16.301C304.759,341.134,304.634,341.376,304.519,341.551z"/>
			<path style="opacity:0.56;fill:#B99E30;enable-background:new    ;" d="M330.656,357.633c-5.999,1.428-12.537,1.464-18.007-1.401
				c-4.403-2.305-8.05-5.983-8.441-10.515c-0.239,0.586-0.217,1.714-0.682,2.18c-0.535,0.536-1.55,0.199-2.234,0.205
				c1.412,1.037,3.479,1.9,4.393,2.692c1.048,0.909,2.221,3.966,7.56,7.255c2.577,1.067,5.698,2.038,8.502,2.236
				c4.474,0.316,8.867,0.587,13.034-0.923c7.162-2.594,10.429-7.222,11.732-8.246c1.426-1.118,3.105-2.111,3.464-3.881
				c0.294-1.463-0.362-2.957-1.089-4.265c-0.329-0.305-0.691-0.619-1.078-0.976c0.01,0.075,0.023,0.149,0.034,0.224
				c0.329,2.731-0.275,5.226-2.174,7.447C342.174,353.759,336.203,356.312,330.656,357.633z"/>
			
				<linearGradient id="SVGID_14_" gradientUnits="userSpaceOnUse" x1="325.369" y1="496.0366" x2="326.6391" y2="510.5546" gradientTransform="matrix(1 0 0 -1 0 842.11)">
				<stop  offset="0.0364" style="stop-color:#EEEA4C"/>
				<stop  offset="0.8545" style="stop-color:#FCF5A7"/>
			</linearGradient>
			<path style="opacity:0.44;fill:url(#SVGID_14_);enable-background:new    ;" d="M331.524,339.61
				c2.17,0.473,4.643,1.103,6.519,2.184c1.66,0.954,3.037,2.34,4.464,3.382c1.993-0.604,2.59-2.405,1.78-3.882
				c-3.528-6.442-10.561-9.701-18.433-9.701c-4.314,0-6.957,0.346-10.843,1.775c-2.994,1.101-8.016,4.032-8.469,11.058
				c3.26-4.177,7.401-5.629,11.258-5.791C322.343,338.444,327.182,338.664,331.524,339.61z"/>
			<path style="opacity:0.52;fill:#FAF9D5;enable-background:new    ;" d="M311.973,338.009c1.334-0.675,2.8-1.197,4.226-1.581
				c2.976-0.802,6.099-1.365,9.413-1.365c2.038,0,3.97,0.198,5.912,0.444c1.347,0.171,4.432,1.467,5.679,1.034
				c1.947-0.677-2.12-2.267-2.876-2.556c-1.634-0.625-3.626-0.91-5.465-1.127c-3.803-0.447-7.831-0.065-11.461,0.945
				c-2.906,0.808-8.062,2.893-8.565,5.993l0.121,0.105C309.066,339.585,311.218,338.392,311.973,338.009z"/>
		</g>
	</g>
</g>
</svg>
