<?xml version="1.0" encoding="iso-8859-1"?>
<!-- Generator: Adobe Illustrator 23.0.2, SVG Export Plug-In . SVG Version: 6.00 Build 0)  -->
<svg version="1.1" id="Layer_1" xmlns="http://www.w3.org/2000/svg" xmlns:xlink="http://www.w3.org/1999/xlink" x="0px" y="0px"
	 viewBox="0 0 595.276 841.89" style="enable-background:new 0 0 595.276 841.89;" xml:space="preserve">
<g>
	<path style="fill:#735FA9;" d="M119.111,320.867c-0.526-7.133-0.931-11.066-1.82-14.634c-1.052-5.037-2.347-6.637-6.837-6.637
		h-4.41c-1.902,0-2.063,0.493-2.063,5.9v42.05h6.069c5.543,0,5.867-1.72,6.636-13.4h1.781v35.413h-1.82
		c-0.729-12.541-1.052-14.512-6.595-14.512h-6.069v31.355c0,15.983,0.526,17.091,6.069,18.321v5.166H93.017v-5.166
		c4.815-1.105,5.341-2.338,5.341-18.321v-70.207c0-15.861-0.526-16.843-5.179-17.829v-5.41h27.11
		c0.08,6.641,0.364,18.073,0.647,27.052L119.111,320.867z"/>
	<path style="fill:#735FA9;" d="M138.858,329.35c7.687,0,13.352,18.073,13.352,39.838c0,29.02-7.283,42.791-13.393,42.791
		c-8.618,0-13.635-19.674-13.635-39.467c0-29.384,7.93-43.158,13.635-43.158h0.041V329.35z M138.088,335.375
		c-3.48,0-6.717,10.695-6.717,30.981c0,22.746,3.237,39.345,8.092,39.345c3.48,0,6.595-7.13,6.595-32.337
		c0-21.516-2.833-37.992-7.891-37.992h-0.079V335.375z"/>
	<path style="fill:#735FA9;" d="M186.036,405.582c-1.376,0.496-3.075,1.601-4.734,2.828c-1.66,1.353-3.277,2.583-4.532,3.568
		l-0.405-0.986v-12.785c-1.376,3.072-2.549,6.148-4.248,9.22c-1.781,2.95-3.075,4.551-4.775,4.551
		c-4.208,0-7.607-7.623-7.607-26.926v-34.308c0-9.835-0.486-10.695-2.024-11.803l-1.619-1.23v-4.302
		c1.214-0.122,2.832-0.738,4.532-1.23c1.699-0.615,3.48-1.475,4.532-1.964c-0.162,5.533-0.162,14.138-0.162,26.067v24.221
		c0,15.001,2.509,19.671,5.179,19.671c2.104,0,4.248-2.461,6.19-7.993v-41.435c0-9.835-0.526-10.943-2.468-11.925l-2.145-1.108
		v-4.303c1.699-0.122,3.844-0.738,5.664-1.478c1.781-0.367,3.237-1.227,4.168-1.72v59.263c0,9.346,0.486,10.573,2.833,11.066
		l1.619,0.248v4.795H186.036z"/>
	<path style="fill:#735FA9;" d="M198.256,348.779c1.982-9.839,4.45-19.429,7.242-19.429c2.184,0,3.642,4.795,3.642,9.224
		c0,4.177-0.809,7.868-2.104,9.713c-0.729,0.86-1.255,0.493-1.619-0.496c-0.931-2.583-1.619-3.687-2.63-3.687
		c-1.537,0-3.359,5.288-4.653,14.879v32.089c0,11.803,0.283,12.911,4.976,14.015v4.795h-14.364v-4.795
		c3.642-1.105,4.168-2.212,4.168-14.015v-37.251c0-11.436-0.324-12.173-3.682-13.652v-4.054c2.994-1.478,5.826-3.565,8.902-7.378
		v20.041h0.122V348.779z"/>
	<path style="fill:#735FA9;" d="M223.706,409.517c-1.092,1.845-2.023,2.461-2.549,2.461c-4.006,0-6.231-6.885-6.231-21.394v-51.641
		h-4.086l-0.283-2.09l1.66-5.41h2.71V318.41l4.411-12.541l0.809,0.496v25.081h6.717c0.607,1.968,0.404,5.9-0.404,7.501h-6.312v45.37
		c0,14.512,2.063,16.969,3.56,16.969c1.416,0,2.752-1.723,3.642-3.072l0.526,4.914L223.706,409.517z"/>
	<path style="fill:#735FA9;" d="M252.393,393.901c-3.885,14.879-8.214,18.073-10.156,18.073c-7.404,0-11.774-18.073-11.774-38.118
		c0-11.925,1.415-22.743,3.843-30.736c2.589-8.608,5.868-13.774,9.064-13.774h0.041c5.138,0,9.224,13.4,9.224,27.667
		c0,3.443-0.324,5.04-1.415,5.778c-1.093,0.493-8.619,2.338-15.577,3.072c0.121,23.239,4.612,33.074,8.78,33.074
		c2.468,0,4.774-2.828,6.96-8.979L252.393,393.901z M241.954,336.113c-2.589,0-5.179,7.011-6.028,22.009
		c3.197,0,6.393,0,9.751-0.367c1.052-0.122,1.415-1.105,1.415-3.443c0-9.468-1.942-18.196-5.097-18.196h-0.041V336.113z"/>
	<path style="fill:#735FA9;" d="M278.207,393.901c-3.885,14.879-8.214,18.073-10.156,18.073c-7.404,0-11.774-18.073-11.774-38.118
		c0-11.925,1.415-22.743,3.843-30.736c2.589-8.608,5.868-13.774,9.064-13.774h0.041c5.138,0,9.224,13.4,9.224,27.667
		c0,3.443-0.324,5.04-1.415,5.778c-1.093,0.493-8.619,2.338-15.577,3.072c0.121,23.239,4.612,33.074,8.78,33.074
		c2.468,0,4.774-2.828,6.96-8.979L278.207,393.901z M267.768,336.113c-2.589,0-5.179,7.011-6.028,22.009
		c3.197,0,6.393,0,9.751-0.367c1.052-0.122,1.415-1.105,1.415-3.443c0-9.468-1.942-18.196-5.097-18.196h-0.041V336.113z"/>
	<path style="fill:#735FA9;" d="M299.045,409.884v-4.795c3.439-1.105,3.843-2.583,3.843-15.246v-29.261
		c0-12.541-1.66-20.038-5.341-20.038c-2.267,0-4.492,4.303-6.312,8.85v41.561c0,12.292,0.324,13.033,3.803,14.138v4.795h-13.352
		v-4.795c4.006-1.475,4.329-2.338,4.329-14.383v-36.15c0-11.684-0.404-12.418-3.56-14.138v-4.551
		c2.873-1.353,5.988-3.691,8.78-7.133v14.512c1.214-2.705,2.509-5.536,4.045-8.608c1.7-3.32,3.197-5.288,4.976-5.288
		c4.775,0,7.809,10.206,7.809,28.034v33.567c0,12.292,0.364,12.789,3.843,14.138v4.795h-12.864V409.884z"/>
</g>
</svg>
