<?xml version="1.0" encoding="iso-8859-1"?>
<!-- Generator: Adobe Illustrator 23.0.2, SVG Export Plug-In . SVG Version: 6.00 Build 0)  -->
<svg version="1.1" id="Layer_1" xmlns="http://www.w3.org/2000/svg" xmlns:xlink="http://www.w3.org/1999/xlink" x="0px" y="0px"
	 viewBox="0 0 595.276 841.89" style="enable-background:new 0 0 595.276 841.89;" xml:space="preserve">
<g>
	<path style="fill:#735FA9;" d="M288.415,417.001c-4.406,2.189-8.916,3.281-13.525,3.281c-4.608,0-8.331-1.958-11.147-5.891
		c-2.816-3.92-4.225-9.35-4.225-16.288c0-1.821,0.484-11.037,1.435-27.653c-22.156-0.368-37.021-1.096-44.586-2.193
		c-10.456-1.456-15.69-8.302-15.69-20.532c19.824-40.154,39.226-73.645,58.212-100.481c4.406-6.57,9.401-9.856,14.96-9.856
		c5.573,0,10.496,0.914,14.761,2.735c-3.029,27.378-4.536,61.241-4.536,101.577c5.631-1.456,11.566-3.56,17.75-6.295
		c0.965,4.013,1.449,9.034,1.449,15.058c0,6.02-1.648,10.952-4.962,14.783c-3.3,3.827-7.912,5.745-13.828,5.745
		C285.176,389.442,286.485,404.775,288.415,417.001z M223.592,343.894c6.744,1.651,13.666,2.468,20.753,2.468
		c7.08,0,13.04-0.275,17.847-0.821c0.965-11.866,1.449-24.958,1.449-39.288c0-14.326-0.199-24.687-0.611-31.076
		C252.709,289.418,239.567,312.321,223.592,343.894z"/>
</g>
<g>
	<path style="fill:#735FA9;" d="M137.857,270.087c6.155-4.195,12.928-11.793,20.312-22.762c3.578-5.393,6.907-9.997,9.975-13.812
		c3.069-3.815,6.683-5.579,10.843-5.288c4.16,0.295,7.63,1.954,10.424,4.972c-4.677,37.986-7.955,73.645-9.831,106.982
		c-1.879,33.349-2.548,62.131-2.01,86.373c-3.083,2.201-6.574,3.16-10.471,2.889c-3.896-0.275-6.921-2.905-9.068-7.897
		c-2.151-4.996-2.996-11.555-2.537-19.691c0.459-8.136,2.263-25.197,5.418-51.191c3.152-25.982,5.642-54.242,7.467-84.771
		c-1.272,1.93-3.444,5.806-6.52,11.64c-6.867,13.027-12.014,19.42-15.433,19.177c-3.423-0.243-5.815-2.828-7.174-7.768
		C137.893,284.009,137.427,277.73,137.857,270.087z"/>
</g>
</svg>
