<?xml version="1.0" encoding="iso-8859-1"?>
<!-- Generator: Adobe Illustrator 23.0.2, SVG Export Plug-In . SVG Version: 6.00 Build 0)  -->
<svg version="1.1" id="Layer_1" xmlns="http://www.w3.org/2000/svg" xmlns:xlink="http://www.w3.org/1999/xlink" x="0px" y="0px"
	 viewBox="0 0 595.276 841.89" style="enable-background:new 0 0 595.276 841.89;" xml:space="preserve">
<g>
	<path style="fill:#9C83BD;" d="M339.482,487.013c0,14.471-11.195,26.202-25.005,26.202H137.003
		c-13.808,0-25.003-11.731-25.003-26.202V227.339c0-14.471,11.196-26.2,25.003-26.2h177.473c13.81,0,25.005,11.729,25.005,26.2
		V487.013z"/>
	<path style="fill:#FFFFFF;" d="M329.114,480.863c0,11.575-8.955,20.959-20,20.959H142.371c-11.05,0-20.005-9.384-20.005-20.959
		V233.491c0-11.575,8.955-20.96,20.005-20.96h166.744c11.045,0,20,9.385,20,20.96V480.863z"/>
</g>
<g>
	<path style="fill:#725EA9;" d="M175.128,271.206c-1.219,0.541-2.467,0.811-3.742,0.811c-1.275,0-2.305-0.484-3.084-1.456
		c-0.779-0.969-1.169-2.311-1.169-4.026c0-0.45,0.134-2.728,0.397-6.835c-6.13-0.091-10.243-0.271-12.336-0.542
		c-2.893-0.36-4.341-2.052-4.341-5.075c5.485-9.925,10.853-18.203,16.106-24.836c1.219-1.624,2.601-2.436,4.139-2.436
		c1.542,0,2.904,0.226,4.084,0.676c-0.838,6.767-1.255,15.137-1.255,25.107c1.558-0.36,3.2-0.88,4.911-1.556
		c0.267,0.992,0.401,2.233,0.401,3.722c0,1.488-0.456,2.707-1.373,3.654c-0.913,0.946-2.189,1.42-3.826,1.42
		C174.232,264.394,174.594,268.184,175.128,271.206z M157.193,253.136c1.866,0.408,3.781,0.61,5.742,0.61
		c1.959,0,3.608-0.068,4.938-0.203c0.267-2.933,0.401-6.169,0.401-9.711c0-3.541-0.055-6.102-0.169-7.681
		C165.249,239.671,161.613,245.332,157.193,253.136z"/>
</g>
<g>
	<path style="fill:#725EA9;" d="M152.175,462.214c-0.465-2.099-0.823-3.256-1.609-4.306c-0.93-1.482-2.075-1.953-6.044-1.953h-3.898
		c-1.681,0-1.824,0.145-1.824,1.736v12.373h5.365c4.9,0,5.186-0.506,5.866-3.943h1.574v10.42h-1.609
		c-0.644-3.69-0.93-4.27-5.83-4.27h-5.365v9.226c0,4.703,0.465,5.029,5.365,5.391v1.52h-15.058v-1.52
		c4.256-0.325,4.721-0.688,4.721-5.391v-20.658c0-4.667-0.465-4.956-4.578-5.246v-1.592h23.964c0.071,1.954,0.322,5.318,0.572,7.96
		L152.175,462.214z"/>
	<path style="fill:#725EA9;" d="M169.63,464.71c6.795,0,11.803,5.318,11.803,11.722c0,8.539-6.438,12.591-11.839,12.591
		c-7.618,0-12.053-5.789-12.053-11.613c0-8.646,7.01-12.699,12.053-12.699H169.63z M168.95,466.483
		c-3.076,0-5.938,3.147-5.938,9.116c0,6.693,2.861,11.577,7.153,11.577c3.076,0,5.83-2.098,5.83-9.515
		c0-6.331-2.504-11.179-6.975-11.179H168.95z"/>
	<path style="fill:#725EA9;" d="M211.334,487.141c-1.216,0.146-2.718,0.471-4.185,0.832c-1.467,0.398-2.897,0.76-4.006,1.05
		l-0.358-0.29v-3.762c-1.216,0.904-2.253,1.809-3.755,2.713c-1.574,0.868-2.718,1.339-4.221,1.339c-3.72,0-6.724-2.243-6.724-7.923
		v-10.095c0-2.894-0.43-3.147-1.789-3.473l-1.431-0.362v-1.266c1.073-0.036,2.503-0.217,4.006-0.362
		c1.502-0.181,3.076-0.434,4.006-0.578c-0.143,1.628-0.143,4.16-0.143,7.67v7.127c0,4.414,2.218,5.788,4.578,5.788
		c1.86,0,3.755-0.724,5.472-2.352v-12.192c0-2.894-0.465-3.22-2.182-3.509l-1.896-0.326v-1.266c1.502-0.036,3.398-0.217,5.007-0.435
		c1.574-0.108,2.861-0.361,3.684-0.506v17.438c0,2.75,0.43,3.111,2.504,3.256l1.431,0.073V487.141z"/>
	<path style="fill:#725EA9;" d="M222.136,470.427c1.752-2.895,3.934-5.717,6.402-5.717c1.931,0,3.219,1.411,3.219,2.714
		c0,1.229-0.715,2.315-1.86,2.858c-0.644,0.253-1.109,0.145-1.431-0.146c-0.823-0.76-1.431-1.085-2.325-1.085
		c-1.359,0-2.969,1.556-4.113,4.378v9.442c0,3.473,0.25,3.799,4.399,4.124v1.411H213.73v-1.411c3.219-0.325,3.684-0.651,3.684-4.124
		V471.91c0-3.365-0.286-3.582-3.255-4.017V466.7c2.647-0.435,5.15-1.049,7.869-2.171v5.897H222.136z"/>
	<path style="fill:#725EA9;" d="M244.633,488.299c-0.965,0.543-1.788,0.724-2.253,0.724c-3.541,0-5.508-2.026-5.508-6.295v-15.195
		h-3.612l-0.25-0.615l1.467-1.592h2.396v-3.835l3.899-3.69l0.715,0.146v7.38h5.938c0.537,0.579,0.357,1.736-0.357,2.207h-5.58v13.35
		c0,4.27,1.824,4.993,3.147,4.993c1.252,0,2.433-0.507,3.219-0.904l0.465,1.446L244.633,488.299z"/>
	<path style="fill:#725EA9;" d="M269.992,483.704c-3.434,4.378-7.261,5.318-8.978,5.318c-6.545,0-10.408-5.318-10.408-11.216
		c0-3.509,1.251-6.692,3.397-9.044c2.289-2.533,5.187-4.053,8.012-4.053h0.036c4.542,0,8.154,3.943,8.154,8.141
		c0,1.013-0.286,1.483-1.251,1.7c-0.966,0.145-7.619,0.688-13.77,0.904c0.107,6.838,4.077,9.732,7.761,9.732
		c2.182,0,4.22-0.832,6.152-2.642L269.992,483.704z M260.764,466.7c-2.289,0-4.578,2.063-5.329,6.476c2.826,0,5.651,0,8.62-0.108
		c0.93-0.036,1.251-0.325,1.251-1.013c0-2.786-1.717-5.354-4.506-5.354H260.764z"/>
	<path style="fill:#725EA9;" d="M292.811,483.704c-3.434,4.378-7.261,5.318-8.978,5.318c-6.545,0-10.408-5.318-10.408-11.216
		c0-3.509,1.251-6.692,3.397-9.044c2.289-2.533,5.187-4.053,8.012-4.053h0.036c4.542,0,8.154,3.943,8.154,8.141
		c0,1.013-0.286,1.483-1.251,1.7c-0.966,0.145-7.619,0.688-13.77,0.904c0.107,6.838,4.077,9.732,7.761,9.732
		c2.182,0,4.22-0.832,6.152-2.642L292.811,483.704z M283.583,466.7c-2.289,0-4.578,2.063-5.329,6.476c2.826,0,5.651,0,8.62-0.108
		c0.93-0.036,1.251-0.325,1.251-1.013c0-2.786-1.717-5.354-4.506-5.354H283.583z"/>
	<path style="fill:#725EA9;" d="M311.231,488.407v-1.411c3.04-0.325,3.397-0.76,3.397-4.486v-8.61c0-3.69-1.467-5.896-4.721-5.896
		c-2.004,0-3.971,1.266-5.58,2.604v12.229c0,3.617,0.286,3.835,3.362,4.16v1.411h-11.803v-1.411
		c3.541-0.434,3.827-0.688,3.827-4.232v-10.637c0-3.438-0.357-3.654-3.147-4.16v-1.339c2.54-0.398,5.293-1.086,7.761-2.099v4.27
		c1.073-0.796,2.218-1.629,3.576-2.533c1.503-0.977,2.826-1.556,4.399-1.556c4.221,0,6.903,3.003,6.903,8.249v9.877
		c0,3.617,0.322,3.763,3.397,4.16v1.411H311.231z"/>
</g>
<g>
	<g>
		<g>
			<path style="fill:#D7DC43;" d="M173.02,299.992c-0.767-1.331-6.191-5.482-7.634-6.232c-6.939-3.607-18.655-3.21-22.432-1.552
				c-8.1,3.555-9.828,9.026-10.722,10.411c-0.871,1.35-2.326,1.704-3.571,2.726c-3.686,3.022,2.887,4.915,4.737,6.517
				c1.266,1.098,2.709,5.334,11.477,9.325c4.159,1.893,15.481,1.457,20.012-0.208c3.332-1.223,7.429-5.601,8.365-6.911
				c0.933-1.3,2.459-1.777,3.695-2.804c1.302-1.08,1.481-2.853,1.043-4.388C178.205,304.176,175.251,303.865,173.02,299.992z"/>
			<path style="fill:#D3D332;" d="M177.991,306.876c0.214-2.701-2.739-3.012-4.971-6.884c-0.333-0.577-1.542-1.683-2.922-2.813
				c-2.304,6.782-11.038,12.12-18.637,13.37c-5.074,0.835-11.288,0.483-14.441-3.645c-2.09-2.738-2.427-6.104-1.634-9.272
				c-1.913,2.232-2.664,4.225-3.155,4.987c-0.871,1.35-2.326,1.704-3.571,2.726c-3.686,3.022,2.887,4.915,4.737,6.517
				c1.266,1.098,2.709,5.334,11.477,9.325c4.159,1.893,15.481,1.457,20.012-0.208c3.332-1.223,7.429-5.601,8.365-6.911
				c0.933-1.3,2.459-1.777,3.695-2.804C178.25,310.184,178.428,308.411,177.991,306.876z"/>
			<path style="opacity:0.43;fill:#C2BD30;" d="M132.232,302.618c-0.871,1.35-2.326,1.704-3.571,2.726
				c-3.686,3.022,2.887,4.915,4.737,6.517c1.266,1.098,2.709,5.334,11.477,9.325c4.159,1.893,15.481,1.457,20.012-0.208
				c3.332-1.223,7.429-5.601,8.365-6.911c0.933-1.3,2.459-1.777,3.695-2.804c1.302-1.08,1.481-2.853,1.043-4.388
				c0.214-2.701-2.739-3.012-4.971-6.884c-0.767-1.331-6.191-5.482-7.634-6.232c-0.52-0.269-1.068-0.514-1.634-0.74
				c0.827,0.835,1.495,1.835,1.951,3.04c1.838,4.86,0.212,9.759-3.719,13.412c-3.337,3.102-7.967,5.54-12.795,6.327
				c-4.545,0.741-9.745,0.142-12.81-3.204c-2.045-2.231-3.358-5.126-3.296-8.01c0.047-2.153,0.723-4.162,1.623-6.116
				C133.284,300.349,132.661,301.954,132.232,302.618z"/>
			<path style="opacity:0.69;fill:#B8B433;" d="M132.232,302.618c-0.209,0.325-0.452,0.591-0.72,0.824
				c0.018,0.084,0.031,0.17,0.034,0.262c0.081,1.983-0.929,4.402-3.621,4.435h-0.003c1.08,1.517,4.274,2.683,5.476,3.723
				c1.266,1.098,2.709,5.334,11.477,9.325c4.159,1.893,15.481,1.457,20.012-0.208c3.332-1.223,7.429-5.601,8.365-6.911
				c0.933-1.3,2.459-1.777,3.695-2.804c1.302-1.08,1.481-2.853,1.043-4.388c0.185-2.355-2.036-2.894-4.088-5.561
				c0.105,1.23,0.061,2.464-0.128,3.665c-0.862,5.425-5.189,8.912-10.764,10.974c-4.416,1.634-9.32,2.77-14.09,2.256
				c-15.509-1.672-17.802-9.561-16.298-16.301C132.471,302.202,132.346,302.444,132.232,302.618z"/>
			<path style="opacity:0.56;fill:#B99E30;" d="M158.369,318.7c-5.999,1.428-12.537,1.464-18.007-1.401
				c-4.403-2.305-8.05-5.982-8.441-10.515c-0.239,0.586-0.217,1.714-0.682,2.18c-0.535,0.536-1.55,0.199-2.234,0.205
				c1.412,1.037,3.479,1.9,4.393,2.692c1.048,0.909,2.221,3.966,7.56,7.255c2.577,1.067,5.698,2.038,8.502,2.236
				c4.474,0.316,8.867,0.587,13.034-0.923c7.162-2.594,10.429-7.222,11.732-8.246c1.426-1.118,3.105-2.111,3.464-3.881
				c0.294-1.463-0.362-2.957-1.089-4.265c-0.329-0.305-0.691-0.619-1.078-0.976c0.01,0.075,0.023,0.149,0.034,0.224
				c0.329,2.731-0.275,5.226-2.174,7.447C169.886,314.826,163.916,317.38,158.369,318.7z"/>
			<linearGradient id="SVGID_1_" gradientUnits="userSpaceOnUse" x1="153.0808" y1="307.1401" x2="154.351" y2="292.6223">
				<stop  offset="0.0364" style="stop-color:#EFEA48"/>
				<stop  offset="0.8545" style="stop-color:#FCF5A5"/>
			</linearGradient>
			<path style="opacity:0.44;fill:url(#SVGID_1_);" d="M159.236,300.677c2.17,0.473,4.643,1.103,6.519,2.184
				c1.66,0.954,3.037,2.34,4.464,3.382c1.993-0.604,2.59-2.404,1.78-3.882c-3.528-6.442-10.561-9.701-18.434-9.701
				c-4.313,0-6.957,0.346-10.843,1.775c-2.994,1.101-8.016,4.033-8.469,11.058c3.26-4.177,7.401-5.629,11.258-5.791
				C150.056,299.511,154.895,299.732,159.236,300.677z"/>
			<path style="opacity:0.52;fill:#FAF8D3;" d="M139.686,299.076c1.334-0.675,2.8-1.197,4.226-1.581
				c2.976-0.802,6.099-1.365,9.413-1.365c2.038,0,3.97,0.198,5.912,0.444c1.347,0.171,4.432,1.467,5.679,1.034
				c1.947-0.677-2.12-2.267-2.876-2.556c-1.634-0.625-3.626-0.91-5.465-1.127c-3.803-0.447-7.831-0.065-11.461,0.945
				c-2.906,0.808-8.062,2.893-8.565,5.993l0.121,0.105C136.778,300.652,138.93,299.459,139.686,299.076z"/>
		</g>
	</g>
	<g>
		<g>
			<path style="fill:#D7DC43;" d="M229.482,312.103c-0.767-1.331-6.191-5.482-7.634-6.232c-6.939-3.607-18.655-3.21-22.432-1.552
				c-8.1,3.555-9.828,9.026-10.722,10.411c-0.871,1.35-2.326,1.704-3.571,2.726c-3.686,3.022,2.887,4.915,4.737,6.517
				c1.266,1.098,2.709,5.334,11.477,9.325c4.159,1.893,15.481,1.457,20.012-0.208c3.332-1.224,7.429-5.601,8.365-6.911
				c0.933-1.3,2.459-1.777,3.695-2.804c1.302-1.08,1.481-2.853,1.043-4.388C234.667,316.287,231.713,315.976,229.482,312.103z"/>
			<path style="fill:#D3D332;" d="M234.452,318.987c0.214-2.701-2.739-3.012-4.971-6.884c-0.333-0.577-1.542-1.683-2.922-2.813
				c-2.304,6.782-11.038,12.12-18.637,13.37c-5.074,0.835-11.288,0.483-14.441-3.645c-2.091-2.738-2.427-6.104-1.634-9.272
				c-1.913,2.232-2.664,4.225-3.155,4.987c-0.871,1.35-2.326,1.704-3.571,2.726c-3.686,3.022,2.887,4.915,4.737,6.517
				c1.266,1.098,2.709,5.334,11.477,9.325c4.159,1.893,15.481,1.457,20.012-0.208c3.332-1.224,7.429-5.601,8.365-6.911
				c0.933-1.3,2.459-1.777,3.695-2.804C234.711,322.295,234.89,320.522,234.452,318.987z"/>
			<path style="opacity:0.43;fill:#C2BD30;" d="M188.693,314.729c-0.871,1.35-2.326,1.704-3.571,2.726
				c-3.686,3.022,2.887,4.915,4.737,6.517c1.266,1.098,2.709,5.334,11.477,9.325c4.159,1.893,15.481,1.457,20.012-0.208
				c3.332-1.224,7.429-5.601,8.365-6.911c0.933-1.3,2.459-1.777,3.695-2.804c1.302-1.08,1.481-2.853,1.043-4.388
				c0.214-2.701-2.739-3.012-4.971-6.884c-0.767-1.331-6.191-5.482-7.634-6.232c-0.52-0.269-1.068-0.514-1.634-0.74
				c0.827,0.835,1.495,1.835,1.951,3.04c1.838,4.861,0.212,9.759-3.719,13.412c-3.337,3.102-7.967,5.54-12.795,6.327
				c-4.545,0.741-9.745,0.142-12.81-3.204c-2.045-2.231-3.357-5.126-3.296-8.01c0.047-2.153,0.723-4.162,1.624-6.116
				C189.745,312.46,189.122,314.065,188.693,314.729z"/>
			<path style="opacity:0.69;fill:#B8B433;" d="M188.693,314.729c-0.209,0.325-0.452,0.591-0.72,0.824
				c0.018,0.084,0.031,0.17,0.034,0.262c0.081,1.983-0.929,4.402-3.621,4.435h-0.003c1.08,1.517,4.274,2.683,5.476,3.723
				c1.266,1.098,2.709,5.334,11.477,9.325c4.159,1.893,15.481,1.457,20.012-0.208c3.332-1.224,7.429-5.601,8.365-6.911
				c0.933-1.3,2.459-1.777,3.695-2.804c1.302-1.08,1.481-2.853,1.043-4.388c0.185-2.355-2.036-2.894-4.088-5.561
				c0.105,1.23,0.061,2.464-0.128,3.665c-0.862,5.425-5.189,8.912-10.764,10.974c-4.416,1.634-9.32,2.77-14.09,2.256
				c-15.509-1.672-17.802-9.561-16.298-16.301C188.933,314.313,188.808,314.554,188.693,314.729z"/>
			<path style="opacity:0.56;fill:#B99E30;" d="M214.83,330.811c-5.999,1.428-12.538,1.464-18.007-1.401
				c-4.403-2.306-8.05-5.983-8.441-10.515c-0.239,0.586-0.217,1.714-0.682,2.18c-0.535,0.536-1.55,0.199-2.234,0.205
				c1.412,1.037,3.479,1.9,4.394,2.692c1.048,0.909,2.221,3.966,7.56,7.255c2.577,1.066,5.698,2.038,8.502,2.236
				c4.474,0.316,8.867,0.587,13.034-0.923c7.162-2.594,10.429-7.222,11.732-8.246c1.426-1.118,3.105-2.111,3.464-3.881
				c0.294-1.463-0.362-2.957-1.089-4.265c-0.329-0.305-0.691-0.619-1.078-0.976c0.01,0.075,0.023,0.149,0.033,0.224
				c0.329,2.731-0.275,5.225-2.174,7.447C226.348,326.937,220.377,329.491,214.83,330.811z"/>
			<linearGradient id="SVGID_2_" gradientUnits="userSpaceOnUse" x1="209.5424" y1="319.251" x2="210.8125" y2="304.7332">
				<stop  offset="0.0364" style="stop-color:#EFEA48"/>
				<stop  offset="0.8545" style="stop-color:#FCF5A5"/>
			</linearGradient>
			<path style="opacity:0.44;fill:url(#SVGID_2_);" d="M215.698,312.788c2.17,0.473,4.643,1.103,6.519,2.184
				c1.66,0.954,3.037,2.34,4.464,3.382c1.993-0.604,2.59-2.405,1.78-3.882c-3.528-6.442-10.561-9.701-18.434-9.701
				c-4.313,0-6.957,0.346-10.843,1.775c-2.994,1.101-8.015,4.033-8.469,11.058c3.26-4.177,7.401-5.629,11.258-5.791
				C206.517,311.622,211.357,311.843,215.698,312.788z"/>
			<path style="opacity:0.52;fill:#FAF8D3;" d="M196.148,311.187c1.334-0.675,2.8-1.197,4.226-1.581
				c2.976-0.802,6.099-1.365,9.413-1.365c2.038,0,3.97,0.198,5.912,0.444c1.347,0.171,4.432,1.467,5.679,1.034
				c1.947-0.677-2.12-2.267-2.876-2.556c-1.634-0.625-3.626-0.91-5.465-1.127c-3.803-0.447-7.831-0.065-11.46,0.945
				c-2.906,0.808-8.062,2.893-8.566,5.993l0.121,0.105C193.24,312.763,195.392,311.57,196.148,311.187z"/>
		</g>
	</g>
	<g>
		<g>
			<path style="fill:#D7DC43;" d="M256.344,348.312c-0.767-1.331-6.191-5.482-7.634-6.232c-6.939-3.606-18.655-3.21-22.432-1.552
				c-8.1,3.555-9.828,9.026-10.722,10.411c-0.871,1.35-2.326,1.704-3.571,2.726c-3.686,3.022,2.887,4.915,4.737,6.517
				c1.266,1.098,2.709,5.334,11.477,9.325c4.159,1.893,15.481,1.457,20.012-0.208c3.332-1.224,7.429-5.601,8.365-6.911
				c0.933-1.3,2.459-1.777,3.695-2.804c1.302-1.08,1.481-2.853,1.043-4.388C261.529,352.496,258.575,352.185,256.344,348.312z"/>
			<path style="fill:#D3D332;" d="M261.315,355.197c0.214-2.701-2.74-3.012-4.971-6.884c-0.333-0.577-1.542-1.683-2.922-2.813
				c-2.304,6.782-11.038,12.12-18.637,13.37c-5.074,0.835-11.288,0.483-14.441-3.645c-2.091-2.738-2.427-6.104-1.634-9.272
				c-1.913,2.232-2.664,4.225-3.155,4.987c-0.871,1.35-2.326,1.704-3.571,2.726c-3.686,3.022,2.887,4.915,4.737,6.517
				c1.266,1.098,2.709,5.334,11.477,9.325c4.159,1.893,15.481,1.457,20.012-0.208c3.332-1.224,7.429-5.601,8.365-6.911
				c0.933-1.3,2.459-1.777,3.695-2.804C261.573,358.504,261.752,356.731,261.315,355.197z"/>
			<path style="opacity:0.43;fill:#C2BD30;" d="M215.555,350.939c-0.871,1.35-2.326,1.704-3.571,2.726
				c-3.686,3.022,2.887,4.915,4.737,6.517c1.266,1.098,2.709,5.334,11.477,9.325c4.159,1.893,15.481,1.457,20.012-0.208
				c3.332-1.224,7.429-5.601,8.365-6.911c0.933-1.3,2.459-1.777,3.695-2.804c1.302-1.08,1.481-2.853,1.043-4.388
				c0.214-2.701-2.74-3.012-4.971-6.884c-0.767-1.331-6.191-5.482-7.634-6.232c-0.52-0.269-1.068-0.514-1.634-0.74
				c0.827,0.835,1.495,1.835,1.951,3.04c1.838,4.86,0.212,9.758-3.719,13.412c-3.337,3.102-7.967,5.54-12.795,6.327
				c-4.545,0.741-9.745,0.142-12.81-3.204c-2.045-2.231-3.358-5.126-3.296-8.01c0.047-2.153,0.723-4.162,1.623-6.116
				C216.607,348.669,215.984,350.275,215.555,350.939z"/>
			<path style="opacity:0.69;fill:#B8B433;" d="M215.555,350.939c-0.209,0.325-0.452,0.591-0.72,0.824
				c0.018,0.084,0.031,0.17,0.034,0.262c0.081,1.983-0.929,4.402-3.621,4.434h-0.003c1.08,1.517,4.274,2.683,5.476,3.723
				c1.266,1.098,2.709,5.334,11.477,9.325c4.159,1.893,15.481,1.457,20.012-0.208c3.332-1.224,7.429-5.601,8.365-6.911
				c0.933-1.3,2.459-1.777,3.695-2.804c1.302-1.08,1.481-2.853,1.043-4.388c0.185-2.355-2.036-2.894-4.088-5.561
				c0.105,1.23,0.061,2.464-0.128,3.665c-0.862,5.425-5.189,8.912-10.764,10.974c-4.416,1.634-9.32,2.77-14.09,2.256
				c-15.509-1.672-17.802-9.561-16.298-16.301C215.795,350.522,215.67,350.764,215.555,350.939z"/>
			<path style="opacity:0.56;fill:#B99E30;" d="M241.692,367.021c-5.999,1.428-12.538,1.464-18.007-1.401
				c-4.403-2.305-8.05-5.983-8.441-10.515c-0.239,0.586-0.217,1.714-0.682,2.18c-0.535,0.536-1.55,0.199-2.234,0.205
				c1.412,1.037,3.479,1.9,4.394,2.692c1.048,0.909,2.221,3.966,7.56,7.255c2.577,1.067,5.698,2.038,8.502,2.236
				c4.474,0.316,8.867,0.586,13.034-0.923c7.162-2.594,10.429-7.222,11.732-8.246c1.426-1.118,3.105-2.111,3.464-3.882
				c0.294-1.463-0.362-2.957-1.089-4.265c-0.329-0.305-0.691-0.619-1.078-0.976c0.01,0.075,0.023,0.149,0.033,0.224
				c0.329,2.731-0.275,5.226-2.174,7.447C253.21,363.146,247.239,365.7,241.692,367.021z"/>
			<linearGradient id="SVGID_3_" gradientUnits="userSpaceOnUse" x1="236.4044" y1="355.4604" x2="237.6746" y2="340.9424">
				<stop  offset="0.0364" style="stop-color:#EFEA48"/>
				<stop  offset="0.8545" style="stop-color:#FCF5A5"/>
			</linearGradient>
			<path style="opacity:0.44;fill:url(#SVGID_3_);" d="M242.56,348.997c2.17,0.473,4.643,1.103,6.519,2.184
				c1.66,0.954,3.037,2.34,4.464,3.382c1.993-0.604,2.59-2.405,1.78-3.882c-3.528-6.442-10.561-9.701-18.434-9.701
				c-4.313,0-6.957,0.346-10.843,1.775c-2.994,1.101-8.016,4.032-8.469,11.058c3.26-4.177,7.401-5.629,11.258-5.791
				C233.379,347.832,238.219,348.052,242.56,348.997z"/>
			<path style="opacity:0.52;fill:#FAF8D3;" d="M223.009,347.397c1.334-0.675,2.8-1.197,4.226-1.581
				c2.976-0.802,6.099-1.365,9.413-1.365c2.038,0,3.97,0.198,5.912,0.444c1.347,0.171,4.432,1.467,5.679,1.034
				c1.947-0.677-2.12-2.267-2.876-2.556c-1.634-0.625-3.626-0.909-5.465-1.127c-3.803-0.447-7.831-0.065-11.461,0.945
				c-2.906,0.808-8.062,2.893-8.565,5.993l0.121,0.105C220.102,348.973,222.254,347.78,223.009,347.397z"/>
		</g>
	</g>
	<g>
		<g>
			<path style="fill:#D7DC43;" d="M182.918,338.468c-0.767-1.331-6.191-5.482-7.634-6.232c-6.939-3.606-18.655-3.21-22.432-1.552
				c-8.1,3.554-9.828,9.026-10.722,10.41c-0.871,1.35-2.326,1.704-3.571,2.726c-3.686,3.022,2.887,4.915,4.737,6.517
				c1.266,1.098,2.709,5.334,11.477,9.325c4.159,1.893,15.481,1.457,20.012-0.208c3.332-1.224,7.429-5.601,8.365-6.911
				c0.933-1.3,2.459-1.777,3.695-2.804c1.302-1.08,1.481-2.853,1.043-4.388C188.103,342.652,185.149,342.341,182.918,338.468z"/>
			<path style="fill:#D3D332;" d="M187.889,345.353c0.214-2.701-2.739-3.012-4.971-6.884c-0.333-0.577-1.542-1.683-2.922-2.813
				c-2.304,6.782-11.038,12.12-18.637,13.37c-5.074,0.835-11.288,0.483-14.441-3.646c-2.091-2.738-2.427-6.104-1.634-9.272
				c-1.913,2.232-2.664,4.225-3.155,4.987c-0.871,1.35-2.326,1.704-3.571,2.726c-3.686,3.022,2.887,4.915,4.737,6.517
				c1.266,1.098,2.709,5.334,11.477,9.325c4.159,1.893,15.481,1.457,20.012-0.208c3.332-1.224,7.429-5.601,8.365-6.911
				c0.933-1.3,2.459-1.777,3.695-2.804C188.148,348.66,188.326,346.887,187.889,345.353z"/>
			<path style="opacity:0.43;fill:#C2BD30;" d="M142.13,341.095c-0.871,1.35-2.326,1.704-3.571,2.726
				c-3.686,3.022,2.887,4.915,4.737,6.517c1.266,1.098,2.709,5.334,11.477,9.325c4.159,1.893,15.481,1.457,20.012-0.208
				c3.332-1.224,7.429-5.601,8.365-6.911c0.933-1.3,2.459-1.777,3.695-2.804c1.302-1.08,1.481-2.853,1.043-4.388
				c0.214-2.701-2.739-3.012-4.971-6.884c-0.767-1.331-6.191-5.482-7.634-6.232c-0.52-0.269-1.068-0.514-1.634-0.74
				c0.827,0.835,1.495,1.835,1.951,3.04c1.838,4.86,0.212,9.759-3.719,13.412c-3.337,3.102-7.967,5.539-12.795,6.326
				c-4.545,0.741-9.745,0.142-12.81-3.204c-2.045-2.231-3.358-5.126-3.296-8.01c0.047-2.153,0.723-4.162,1.623-6.116
				C143.181,338.825,142.559,340.431,142.13,341.095z"/>
			<path style="opacity:0.69;fill:#B8B433;" d="M142.13,341.095c-0.209,0.325-0.452,0.591-0.72,0.824
				c0.018,0.084,0.031,0.17,0.034,0.262c0.081,1.983-0.929,4.402-3.621,4.434h-0.003c1.08,1.517,4.274,2.683,5.476,3.723
				c1.266,1.098,2.709,5.334,11.477,9.325c4.159,1.893,15.481,1.457,20.012-0.208c3.332-1.224,7.429-5.601,8.365-6.911
				c0.933-1.3,2.459-1.777,3.695-2.804c1.302-1.08,1.481-2.853,1.043-4.388c0.185-2.355-2.036-2.894-4.088-5.561
				c0.105,1.23,0.061,2.464-0.128,3.665c-0.862,5.425-5.189,8.912-10.764,10.974c-4.416,1.634-9.32,2.77-14.09,2.256
				c-15.509-1.672-17.802-9.561-16.298-16.301C142.369,340.678,142.244,340.92,142.13,341.095z"/>
			<path style="opacity:0.56;fill:#B99E30;" d="M168.267,357.177c-5.999,1.428-12.537,1.464-18.007-1.401
				c-4.403-2.305-8.05-5.983-8.441-10.515c-0.239,0.586-0.217,1.714-0.682,2.18c-0.535,0.536-1.55,0.199-2.234,0.205
				c1.412,1.037,3.479,1.9,4.393,2.692c1.048,0.909,2.221,3.966,7.56,7.255c2.577,1.066,5.698,2.038,8.502,2.236
				c4.474,0.316,8.867,0.586,13.034-0.923c7.162-2.594,10.429-7.222,11.732-8.246c1.426-1.118,3.105-2.111,3.464-3.882
				c0.294-1.463-0.362-2.957-1.089-4.265c-0.329-0.305-0.691-0.619-1.078-0.976c0.01,0.075,0.023,0.149,0.034,0.224
				c0.329,2.731-0.275,5.225-2.174,7.447C179.784,353.302,173.814,355.856,168.267,357.177z"/>
			<linearGradient id="SVGID_4_" gradientUnits="userSpaceOnUse" x1="162.9786" y1="345.6164" x2="164.2487" y2="331.0986">
				<stop  offset="0.0364" style="stop-color:#EFEA48"/>
				<stop  offset="0.8545" style="stop-color:#FCF5A5"/>
			</linearGradient>
			<path style="opacity:0.44;fill:url(#SVGID_4_);" d="M169.134,339.153c2.17,0.473,4.643,1.103,6.519,2.184
				c1.66,0.954,3.037,2.34,4.464,3.382c1.993-0.604,2.589-2.405,1.78-3.882c-3.528-6.442-10.561-9.701-18.433-9.701
				c-4.314,0-6.957,0.346-10.843,1.775c-2.994,1.101-8.015,4.032-8.469,11.058c3.26-4.177,7.401-5.629,11.258-5.791
				C159.953,337.988,164.793,338.208,169.134,339.153z"/>
			<path style="opacity:0.52;fill:#FAF8D3;" d="M149.584,337.553c1.334-0.675,2.8-1.197,4.226-1.581
				c2.976-0.802,6.099-1.365,9.413-1.365c2.038,0,3.97,0.198,5.912,0.444c1.347,0.171,4.432,1.467,5.679,1.034
				c1.947-0.677-2.12-2.267-2.876-2.556c-1.634-0.625-3.626-0.909-5.465-1.127c-3.803-0.447-7.831-0.065-11.461,0.945
				c-2.906,0.808-8.062,2.893-8.565,5.993l0.121,0.105C146.676,339.129,148.828,337.936,149.584,337.553z"/>
		</g>
	</g>
	<g>
		<g>
			<path style="fill:#D7DC43;" d="M213.406,372.647c-0.767-1.331-6.191-5.482-7.634-6.232c-6.939-3.606-18.655-3.21-22.432-1.552
				c-8.1,3.555-9.828,9.026-10.722,10.41c-0.871,1.35-2.326,1.704-3.571,2.726c-3.686,3.022,2.887,4.915,4.737,6.517
				c1.266,1.098,2.709,5.334,11.477,9.325c4.159,1.893,15.481,1.457,20.012-0.208c3.332-1.224,7.429-5.601,8.365-6.911
				c0.933-1.3,2.459-1.777,3.695-2.804c1.302-1.08,1.481-2.853,1.043-4.388C218.591,376.831,215.638,376.52,213.406,372.647z"/>
			<path style="fill:#D3D332;" d="M218.377,379.532c0.214-2.701-2.739-3.012-4.971-6.884c-0.333-0.577-1.542-1.683-2.922-2.813
				c-2.304,6.782-11.038,12.12-18.637,13.37c-5.074,0.835-11.288,0.483-14.441-3.645c-2.091-2.738-2.427-6.104-1.634-9.272
				c-1.913,2.232-2.664,4.225-3.155,4.987c-0.871,1.35-2.326,1.704-3.571,2.726c-3.686,3.022,2.887,4.915,4.737,6.517
				c1.266,1.098,2.709,5.334,11.477,9.325c4.159,1.893,15.481,1.457,20.012-0.208c3.332-1.224,7.429-5.601,8.365-6.911
				c0.933-1.3,2.459-1.777,3.695-2.804C218.636,382.839,218.815,381.066,218.377,379.532z"/>
			<path style="opacity:0.43;fill:#C2BD30;" d="M172.618,375.274c-0.871,1.35-2.326,1.704-3.571,2.726
				c-3.686,3.022,2.887,4.915,4.737,6.517c1.266,1.098,2.709,5.334,11.477,9.325c4.159,1.893,15.481,1.457,20.012-0.208
				c3.332-1.224,7.429-5.601,8.365-6.911c0.933-1.3,2.459-1.777,3.695-2.804c1.302-1.08,1.481-2.853,1.043-4.388
				c0.214-2.701-2.739-3.012-4.971-6.884c-0.767-1.331-6.191-5.482-7.634-6.232c-0.52-0.269-1.068-0.514-1.634-0.74
				c0.827,0.835,1.495,1.835,1.951,3.04c1.838,4.86,0.212,9.759-3.719,13.412c-3.337,3.102-7.967,5.539-12.795,6.326
				c-4.545,0.741-9.745,0.142-12.81-3.204c-2.045-2.231-3.358-5.126-3.296-8.01c0.047-2.153,0.723-4.162,1.623-6.116
				C173.67,373.004,173.047,374.61,172.618,375.274z"/>
			<path style="opacity:0.69;fill:#B8B433;" d="M172.618,375.274c-0.209,0.325-0.452,0.591-0.72,0.824
				c0.018,0.083,0.031,0.17,0.034,0.262c0.081,1.983-0.929,4.402-3.621,4.435h-0.003c1.08,1.517,4.274,2.683,5.476,3.723
				c1.266,1.098,2.709,5.334,11.477,9.325c4.159,1.893,15.481,1.457,20.012-0.208c3.332-1.224,7.429-5.601,8.365-6.911
				c0.933-1.3,2.459-1.777,3.695-2.804c1.302-1.08,1.481-2.853,1.043-4.388c0.185-2.355-2.036-2.894-4.088-5.561
				c0.105,1.23,0.061,2.464-0.128,3.665c-0.862,5.425-5.189,8.912-10.764,10.974c-4.416,1.634-9.32,2.771-14.09,2.256
				c-15.509-1.672-17.802-9.561-16.298-16.301C172.857,374.857,172.732,375.099,172.618,375.274z"/>
			<path style="opacity:0.56;fill:#B99E30;" d="M198.755,391.356c-5.999,1.428-12.537,1.464-18.007-1.401
				c-4.403-2.305-8.05-5.983-8.441-10.515c-0.239,0.586-0.217,1.714-0.682,2.18c-0.535,0.536-1.55,0.199-2.234,0.205
				c1.412,1.037,3.479,1.9,4.393,2.692c1.048,0.909,2.221,3.966,7.56,7.255c2.577,1.066,5.698,2.038,8.502,2.236
				c4.474,0.316,8.867,0.587,13.034-0.923c7.162-2.594,10.429-7.222,11.732-8.246c1.426-1.118,3.105-2.111,3.464-3.882
				c0.294-1.463-0.362-2.957-1.089-4.265c-0.329-0.305-0.691-0.619-1.078-0.976c0.01,0.075,0.023,0.149,0.034,0.224
				c0.329,2.73-0.275,5.225-2.174,7.447C210.272,387.481,204.302,390.035,198.755,391.356z"/>
			<linearGradient id="SVGID_5_" gradientUnits="userSpaceOnUse" x1="193.4669" y1="379.7955" x2="194.7371" y2="365.2777">
				<stop  offset="0.0364" style="stop-color:#EFEA48"/>
				<stop  offset="0.8545" style="stop-color:#FCF5A5"/>
			</linearGradient>
			<path style="opacity:0.44;fill:url(#SVGID_5_);" d="M199.622,373.333c2.17,0.473,4.643,1.103,6.519,2.184
				c1.66,0.954,3.037,2.34,4.464,3.382c1.993-0.604,2.59-2.405,1.78-3.882c-3.528-6.442-10.561-9.701-18.433-9.701
				c-4.314,0-6.957,0.346-10.843,1.775c-2.994,1.101-8.016,4.033-8.469,11.058c3.26-4.177,7.401-5.629,11.258-5.791
				C190.442,372.167,195.281,372.387,199.622,373.333z"/>
			<path style="opacity:0.52;fill:#FAF8D3;" d="M180.072,371.732c1.334-0.675,2.8-1.197,4.226-1.581
				c2.976-0.802,6.099-1.365,9.413-1.365c2.038,0,3.97,0.198,5.912,0.444c1.347,0.171,4.432,1.467,5.679,1.034
				c1.947-0.677-2.12-2.267-2.876-2.556c-1.634-0.625-3.626-0.91-5.465-1.127c-3.803-0.447-7.831-0.065-11.461,0.945
				c-2.906,0.808-8.062,2.893-8.565,5.993l0.121,0.105C177.164,373.308,179.316,372.115,180.072,371.732z"/>
		</g>
	</g>
	<g>
		<g>
			<path style="fill:#D7DC43;" d="M177.055,400.967c-0.767-1.331-6.191-5.482-7.634-6.232c-6.939-3.607-18.655-3.21-22.432-1.552
				c-8.1,3.555-9.828,9.026-10.722,10.411c-0.871,1.35-2.326,1.704-3.571,2.726c-3.686,3.022,2.888,4.915,4.737,6.517
				c1.266,1.098,2.709,5.334,11.477,9.325c4.159,1.893,15.481,1.457,20.012-0.208c3.332-1.224,7.429-5.601,8.365-6.911
				c0.933-1.3,2.459-1.777,3.695-2.804c1.302-1.08,1.481-2.853,1.043-4.388C182.239,405.151,179.286,404.839,177.055,400.967z"/>
			<path style="fill:#D3D332;" d="M182.025,407.851c0.214-2.701-2.739-3.012-4.971-6.884c-0.333-0.577-1.542-1.683-2.922-2.813
				c-2.304,6.782-11.038,12.12-18.637,13.37c-5.074,0.835-11.288,0.483-14.441-3.646c-2.091-2.738-2.427-6.104-1.634-9.272
				c-1.913,2.232-2.664,4.225-3.155,4.987c-0.871,1.35-2.326,1.704-3.571,2.726c-3.686,3.022,2.888,4.915,4.737,6.517
				c1.266,1.098,2.709,5.334,11.477,9.325c4.159,1.893,15.481,1.457,20.012-0.208c3.332-1.224,7.429-5.601,8.365-6.911
				c0.933-1.3,2.459-1.777,3.695-2.804C182.284,411.159,182.463,409.386,182.025,407.851z"/>
			<path style="opacity:0.43;fill:#C2BD30;" d="M136.266,403.593c-0.871,1.35-2.326,1.704-3.571,2.726
				c-3.686,3.022,2.888,4.915,4.737,6.517c1.266,1.098,2.709,5.334,11.477,9.325c4.159,1.893,15.481,1.457,20.012-0.208
				c3.332-1.224,7.429-5.601,8.365-6.911c0.933-1.3,2.459-1.777,3.695-2.804c1.302-1.08,1.481-2.853,1.043-4.388
				c0.214-2.701-2.739-3.012-4.971-6.884c-0.767-1.331-6.191-5.482-7.634-6.232c-0.52-0.269-1.068-0.514-1.634-0.74
				c0.827,0.835,1.495,1.835,1.951,3.04c1.838,4.86,0.212,9.759-3.719,13.412c-3.337,3.102-7.967,5.54-12.795,6.326
				c-4.545,0.741-9.745,0.142-12.81-3.204c-2.045-2.231-3.358-5.126-3.296-8.01c0.047-2.153,0.723-4.162,1.623-6.116
				C137.318,401.324,136.695,402.929,136.266,403.593z"/>
			<path style="opacity:0.69;fill:#B8B433;" d="M136.266,403.593c-0.208,0.325-0.452,0.591-0.72,0.824
				c0.018,0.084,0.031,0.17,0.034,0.262c0.081,1.982-0.929,4.402-3.621,4.434h-0.003c1.08,1.517,4.274,2.683,5.476,3.723
				c1.266,1.098,2.709,5.334,11.477,9.325c4.159,1.893,15.481,1.457,20.012-0.208c3.332-1.224,7.429-5.601,8.365-6.911
				c0.933-1.3,2.459-1.777,3.695-2.804c1.302-1.08,1.481-2.853,1.043-4.388c0.185-2.355-2.036-2.894-4.088-5.561
				c0.105,1.23,0.061,2.464-0.129,3.665c-0.862,5.425-5.188,8.912-10.764,10.974c-4.416,1.634-9.32,2.77-14.09,2.256
				c-15.509-1.672-17.802-9.561-16.298-16.301C136.505,403.177,136.381,403.418,136.266,403.593z"/>
			<path style="opacity:0.56;fill:#B99E30;" d="M162.403,419.675c-5.999,1.428-12.538,1.464-18.007-1.401
				c-4.403-2.305-8.05-5.983-8.441-10.515c-0.239,0.586-0.217,1.714-0.682,2.18c-0.535,0.536-1.55,0.199-2.234,0.205
				c1.412,1.037,3.479,1.9,4.394,2.692c1.048,0.909,2.221,3.966,7.56,7.255c2.578,1.067,5.698,2.038,8.502,2.236
				c4.474,0.316,8.867,0.586,13.034-0.923c7.162-2.594,10.429-7.222,11.732-8.246c1.426-1.118,3.105-2.111,3.464-3.882
				c0.294-1.462-0.362-2.957-1.089-4.265c-0.329-0.305-0.691-0.619-1.078-0.976c0.01,0.075,0.023,0.149,0.033,0.224
				c0.33,2.731-0.275,5.226-2.174,7.447C173.921,415.801,167.95,418.355,162.403,419.675z"/>
			<linearGradient id="SVGID_6_" gradientUnits="userSpaceOnUse" x1="157.1153" y1="408.115" x2="158.3854" y2="393.5971">
				<stop  offset="0.0364" style="stop-color:#EFEA48"/>
				<stop  offset="0.8545" style="stop-color:#FCF5A5"/>
			</linearGradient>
			<path style="opacity:0.44;fill:url(#SVGID_6_);" d="M163.271,401.652c2.17,0.473,4.643,1.103,6.519,2.184
				c1.66,0.954,3.037,2.339,4.464,3.382c1.993-0.604,2.59-2.405,1.78-3.882c-3.528-6.442-10.561-9.701-18.433-9.701
				c-4.314,0-6.957,0.346-10.843,1.775c-2.994,1.101-8.015,4.033-8.469,11.058c3.26-4.177,7.401-5.629,11.259-5.791
				C154.09,400.486,158.929,400.707,163.271,401.652z"/>
			<path style="opacity:0.52;fill:#FAF8D3;" d="M143.72,400.051c1.334-0.675,2.8-1.197,4.226-1.581
				c2.976-0.802,6.099-1.365,9.413-1.365c2.038,0,3.97,0.198,5.912,0.444c1.347,0.171,4.432,1.467,5.679,1.034
				c1.947-0.677-2.12-2.267-2.876-2.556c-1.634-0.625-3.626-0.91-5.465-1.127c-3.803-0.447-7.831-0.064-11.46,0.945
				c-2.906,0.808-8.062,2.893-8.566,5.993l0.121,0.105C140.812,401.627,142.965,400.434,143.72,400.051z"/>
		</g>
	</g>
	<g>
		<g>
			<path style="fill:#D7DC43;" d="M254.769,397.413c-0.767-1.331-6.191-5.482-7.634-6.232c-6.939-3.607-18.655-3.21-22.432-1.552
				c-8.1,3.555-9.828,9.026-10.722,10.411c-0.871,1.35-2.326,1.704-3.571,2.726c-3.686,3.022,2.887,4.915,4.737,6.517
				c1.266,1.098,2.709,5.334,11.477,9.325c4.159,1.893,15.481,1.457,20.012-0.208c3.332-1.223,7.429-5.601,8.365-6.911
				c0.933-1.3,2.459-1.777,3.695-2.804c1.302-1.08,1.481-2.853,1.043-4.388C259.953,401.597,257,401.286,254.769,397.413z"/>
			<path style="fill:#D3D332;" d="M259.739,404.297c0.214-2.701-2.739-3.012-4.971-6.884c-0.333-0.577-1.542-1.683-2.922-2.813
				c-2.304,6.782-11.038,12.12-18.637,13.37c-5.074,0.835-11.288,0.483-14.441-3.645c-2.091-2.738-2.427-6.104-1.634-9.272
				c-1.913,2.232-2.664,4.225-3.155,4.987c-0.871,1.35-2.326,1.704-3.571,2.726c-3.686,3.022,2.887,4.915,4.737,6.517
				c1.266,1.098,2.709,5.334,11.477,9.325c4.159,1.893,15.481,1.457,20.012-0.208c3.332-1.223,7.429-5.601,8.365-6.911
				c0.933-1.3,2.459-1.777,3.695-2.804C259.998,407.605,260.177,405.832,259.739,404.297z"/>
			<path style="opacity:0.43;fill:#C2BD30;" d="M213.98,400.039c-0.871,1.35-2.326,1.704-3.571,2.726
				c-3.686,3.022,2.887,4.915,4.737,6.517c1.266,1.098,2.709,5.334,11.477,9.325c4.159,1.893,15.481,1.457,20.012-0.208
				c3.332-1.223,7.429-5.601,8.365-6.911c0.933-1.3,2.459-1.777,3.695-2.804c1.302-1.08,1.481-2.853,1.043-4.388
				c0.214-2.701-2.739-3.012-4.971-6.884c-0.767-1.331-6.191-5.482-7.634-6.232c-0.52-0.269-1.068-0.514-1.634-0.74
				c0.827,0.835,1.495,1.835,1.951,3.04c1.838,4.86,0.212,9.759-3.719,13.412c-3.337,3.102-7.967,5.54-12.795,6.327
				c-4.545,0.741-9.745,0.142-12.81-3.204c-2.045-2.231-3.358-5.126-3.296-8.01c0.047-2.153,0.723-4.162,1.623-6.116
				C215.032,397.77,214.409,399.375,213.98,400.039z"/>
			<path style="opacity:0.69;fill:#B8B433;" d="M213.98,400.039c-0.209,0.325-0.452,0.591-0.72,0.824
				c0.018,0.084,0.031,0.17,0.034,0.262c0.081,1.983-0.929,4.402-3.621,4.435h-0.003c1.08,1.517,4.274,2.683,5.476,3.723
				c1.266,1.098,2.709,5.334,11.477,9.325c4.159,1.893,15.481,1.457,20.012-0.208c3.332-1.223,7.429-5.601,8.365-6.911
				c0.933-1.3,2.459-1.777,3.695-2.804c1.302-1.08,1.481-2.853,1.043-4.388c0.185-2.355-2.036-2.894-4.088-5.561
				c0.105,1.23,0.061,2.464-0.128,3.665c-0.862,5.425-5.189,8.912-10.764,10.974c-4.416,1.634-9.32,2.77-14.09,2.256
				c-15.509-1.672-17.802-9.561-16.298-16.301C214.219,399.623,214.095,399.864,213.98,400.039z"/>
			<path style="opacity:0.56;fill:#B99E30;" d="M240.117,416.121c-5.999,1.428-12.537,1.464-18.007-1.401
				c-4.403-2.305-8.05-5.983-8.441-10.515c-0.239,0.586-0.217,1.714-0.682,2.18c-0.535,0.536-1.55,0.199-2.234,0.205
				c1.412,1.037,3.479,1.9,4.393,2.692c1.048,0.909,2.221,3.966,7.56,7.255c2.577,1.067,5.698,2.038,8.502,2.236
				c4.474,0.316,8.867,0.587,13.034-0.923c7.162-2.594,10.429-7.222,11.732-8.246c1.426-1.118,3.105-2.111,3.464-3.881
				c0.294-1.463-0.362-2.957-1.089-4.265c-0.329-0.305-0.691-0.619-1.078-0.976c0.01,0.075,0.023,0.149,0.034,0.224
				c0.329,2.731-0.275,5.225-2.174,7.447C251.634,412.247,245.664,414.801,240.117,416.121z"/>
			<linearGradient id="SVGID_7_" gradientUnits="userSpaceOnUse" x1="234.8291" y1="404.5611" x2="236.0993" y2="390.0432">
				<stop  offset="0.0364" style="stop-color:#EFEA48"/>
				<stop  offset="0.8545" style="stop-color:#FCF5A5"/>
			</linearGradient>
			<path style="opacity:0.44;fill:url(#SVGID_7_);" d="M240.985,398.098c2.17,0.473,4.643,1.103,6.519,2.184
				c1.66,0.954,3.037,2.34,4.464,3.382c1.993-0.604,2.59-2.405,1.78-3.882c-3.528-6.442-10.561-9.701-18.433-9.701
				c-4.314,0-6.957,0.346-10.843,1.775c-2.994,1.101-8.016,4.032-8.469,11.058c3.26-4.177,7.401-5.629,11.258-5.791
				C231.804,396.932,236.643,397.153,240.985,398.098z"/>
			<path style="opacity:0.52;fill:#FAF8D3;" d="M221.434,396.497c1.334-0.675,2.8-1.197,4.226-1.581
				c2.976-0.802,6.099-1.365,9.413-1.365c2.038,0,3.97,0.198,5.912,0.444c1.347,0.171,4.432,1.467,5.679,1.034
				c1.947-0.677-2.12-2.267-2.876-2.556c-1.634-0.625-3.626-0.91-5.465-1.127c-3.803-0.447-7.831-0.065-11.461,0.945
				c-2.906,0.808-8.062,2.893-8.565,5.993l0.121,0.105C218.526,398.073,220.678,396.88,221.434,396.497z"/>
		</g>
	</g>
</g>
<g>
	<g>
		<g>
			<path style="fill:#D7DC43;" d="M235.653,224.693c-0.767-1.331-6.191-5.482-7.634-6.232c-6.939-3.607-18.655-3.21-22.432-1.552
				c-8.1,3.555-9.828,9.026-10.722,10.411c-0.871,1.35-2.326,1.704-3.571,2.726c-3.686,3.022,2.887,4.915,4.737,6.517
				c1.266,1.098,2.709,5.334,11.477,9.325c4.159,1.893,15.481,1.457,20.012-0.208c3.332-1.223,7.429-5.601,8.365-6.911
				c0.933-1.3,2.459-1.777,3.695-2.804c1.302-1.08,1.481-2.853,1.043-4.388C240.838,228.876,237.885,228.565,235.653,224.693z"/>
			<path style="fill:#D3D332;" d="M240.624,231.577c0.214-2.701-2.739-3.012-4.971-6.884c-0.333-0.577-1.542-1.683-2.922-2.813
				c-2.304,6.782-11.038,12.12-18.637,13.37c-5.074,0.835-11.288,0.483-14.441-3.645c-2.09-2.738-2.427-6.104-1.634-9.272
				c-1.913,2.232-2.664,4.225-3.155,4.987c-0.871,1.35-2.326,1.704-3.571,2.726c-3.686,3.022,2.887,4.915,4.737,6.517
				c1.266,1.098,2.709,5.334,11.477,9.325c4.159,1.893,15.481,1.457,20.012-0.208c3.332-1.223,7.429-5.601,8.365-6.911
				c0.933-1.3,2.459-1.777,3.695-2.804C240.883,234.884,241.062,233.112,240.624,231.577z"/>
			<path style="opacity:0.43;fill:#C2BD30;" d="M194.865,227.319c-0.871,1.35-2.326,1.704-3.571,2.726
				c-3.686,3.022,2.887,4.915,4.737,6.517c1.266,1.098,2.709,5.334,11.477,9.325c4.159,1.893,15.481,1.457,20.012-0.208
				c3.332-1.223,7.429-5.601,8.365-6.911c0.933-1.3,2.459-1.777,3.695-2.804c1.302-1.08,1.481-2.853,1.043-4.388
				c0.214-2.701-2.739-3.012-4.971-6.884c-0.767-1.331-6.191-5.482-7.634-6.232c-0.52-0.269-1.068-0.514-1.634-0.74
				c0.827,0.835,1.495,1.835,1.951,3.04c1.838,4.861,0.212,9.759-3.719,13.412c-3.337,3.102-7.967,5.54-12.795,6.327
				c-4.545,0.741-9.745,0.142-12.81-3.204c-2.045-2.231-3.358-5.126-3.296-8.01c0.047-2.153,0.723-4.162,1.623-6.116
				C195.917,225.05,195.294,226.655,194.865,227.319z"/>
			<path style="opacity:0.69;fill:#B8B433;" d="M194.865,227.319c-0.209,0.325-0.452,0.591-0.72,0.824
				c0.018,0.084,0.031,0.17,0.034,0.262c0.081,1.983-0.929,4.402-3.621,4.434h-0.003c1.08,1.517,4.274,2.683,5.476,3.723
				c1.266,1.098,2.709,5.334,11.477,9.325c4.159,1.893,15.481,1.457,20.012-0.208c3.332-1.223,7.429-5.601,8.365-6.911
				c0.933-1.3,2.459-1.777,3.695-2.804c1.302-1.08,1.481-2.853,1.043-4.388c0.185-2.355-2.036-2.894-4.088-5.561
				c0.105,1.23,0.061,2.464-0.128,3.665c-0.862,5.425-5.189,8.912-10.764,10.974c-4.416,1.634-9.32,2.77-14.09,2.256
				c-15.509-1.672-17.802-9.561-16.298-16.301C195.104,226.902,194.98,227.144,194.865,227.319z"/>
			<path style="opacity:0.56;fill:#B99E30;" d="M221.002,243.401c-5.999,1.428-12.537,1.464-18.007-1.401
				c-4.403-2.305-8.05-5.982-8.441-10.515c-0.239,0.586-0.217,1.714-0.682,2.18c-0.535,0.536-1.55,0.199-2.234,0.205
				c1.412,1.037,3.479,1.9,4.393,2.692c1.048,0.909,2.221,3.966,7.56,7.255c2.577,1.067,5.698,2.038,8.502,2.236
				c4.474,0.316,8.867,0.587,13.034-0.923c7.162-2.594,10.429-7.222,11.732-8.246c1.426-1.118,3.105-2.111,3.464-3.881
				c0.294-1.463-0.362-2.957-1.089-4.265c-0.329-0.305-0.691-0.619-1.078-0.976c0.01,0.075,0.023,0.149,0.034,0.224
				c0.329,2.731-0.275,5.226-2.174,7.447C232.519,239.527,226.549,242.08,221.002,243.401z"/>
			<linearGradient id="SVGID_8_" gradientUnits="userSpaceOnUse" x1="215.7141" y1="231.8407" x2="216.9842" y2="217.3228">
				<stop  offset="0.0364" style="stop-color:#EFEA48"/>
				<stop  offset="0.8545" style="stop-color:#FCF5A5"/>
			</linearGradient>
			<path style="opacity:0.44;fill:url(#SVGID_8_);" d="M221.87,225.378c2.17,0.473,4.643,1.103,6.519,2.184
				c1.66,0.954,3.037,2.34,4.464,3.382c1.993-0.604,2.59-2.404,1.78-3.882c-3.528-6.442-10.561-9.701-18.434-9.701
				c-4.313,0-6.957,0.346-10.843,1.775c-2.994,1.101-8.016,4.033-8.469,11.058c3.26-4.177,7.401-5.629,11.258-5.791
				C212.689,224.212,217.528,224.433,221.87,225.378z"/>
			<path style="opacity:0.52;fill:#FAF8D3;" d="M202.319,223.777c1.334-0.675,2.8-1.197,4.226-1.581
				c2.976-0.802,6.099-1.365,9.413-1.365c2.038,0,3.97,0.198,5.912,0.444c1.347,0.171,4.432,1.467,5.679,1.034
				c1.947-0.677-2.12-2.267-2.876-2.556c-1.634-0.625-3.626-0.91-5.465-1.127c-3.803-0.447-7.831-0.064-11.461,0.945
				c-2.906,0.808-8.062,2.893-8.565,5.993l0.121,0.105C199.411,225.353,201.563,224.16,202.319,223.777z"/>
		</g>
	</g>
	<g>
		<g>
			<path style="fill:#D7DC43;" d="M292.115,236.803c-0.767-1.331-6.191-5.482-7.634-6.232c-6.939-3.607-18.655-3.21-22.432-1.552
				c-8.1,3.555-9.828,9.026-10.722,10.411c-0.871,1.35-2.326,1.704-3.571,2.726c-3.686,3.022,2.887,4.915,4.737,6.517
				c1.266,1.098,2.709,5.334,11.477,9.325c4.159,1.893,15.481,1.457,20.012-0.208c3.332-1.223,7.429-5.601,8.365-6.911
				c0.933-1.3,2.459-1.777,3.695-2.804c1.302-1.08,1.481-2.853,1.043-4.388C297.3,240.987,294.346,240.676,292.115,236.803z"/>
			<path style="fill:#D3D332;" d="M297.086,243.688c0.214-2.701-2.739-3.012-4.971-6.884c-0.333-0.577-1.542-1.683-2.922-2.813
				c-2.304,6.782-11.038,12.12-18.637,13.37c-5.074,0.835-11.288,0.483-14.441-3.645c-2.091-2.738-2.427-6.104-1.634-9.272
				c-1.913,2.232-2.664,4.225-3.155,4.987c-0.871,1.35-2.326,1.704-3.571,2.726c-3.686,3.022,2.887,4.915,4.737,6.517
				c1.266,1.098,2.709,5.334,11.477,9.325c4.159,1.893,15.481,1.457,20.012-0.208c3.332-1.223,7.429-5.601,8.365-6.911
				c0.933-1.3,2.459-1.777,3.695-2.804C297.344,246.995,297.523,245.222,297.086,243.688z"/>
			<path style="opacity:0.43;fill:#C2BD30;" d="M251.327,239.43c-0.871,1.35-2.326,1.704-3.571,2.726
				c-3.686,3.022,2.887,4.915,4.737,6.517c1.266,1.098,2.709,5.334,11.477,9.325c4.159,1.893,15.481,1.457,20.012-0.208
				c3.332-1.223,7.429-5.601,8.365-6.911c0.933-1.3,2.459-1.777,3.695-2.804c1.302-1.08,1.481-2.853,1.043-4.388
				c0.214-2.701-2.739-3.012-4.971-6.884c-0.767-1.331-6.191-5.482-7.634-6.232c-0.52-0.269-1.068-0.514-1.634-0.74
				c0.827,0.835,1.495,1.835,1.951,3.04c1.838,4.86,0.212,9.759-3.719,13.412c-3.337,3.102-7.967,5.54-12.795,6.327
				c-4.545,0.741-9.745,0.142-12.81-3.204c-2.045-2.231-3.357-5.126-3.296-8.01c0.047-2.153,0.723-4.162,1.624-6.116
				C252.378,237.16,251.756,238.766,251.327,239.43z"/>
			<path style="opacity:0.69;fill:#B8B433;" d="M251.327,239.43c-0.209,0.325-0.452,0.591-0.72,0.824
				c0.018,0.084,0.031,0.17,0.034,0.262c0.081,1.983-0.929,4.402-3.621,4.434h-0.003c1.08,1.517,4.274,2.683,5.476,3.723
				c1.266,1.098,2.709,5.334,11.477,9.325c4.159,1.893,15.481,1.457,20.012-0.208c3.332-1.223,7.429-5.601,8.365-6.911
				c0.933-1.3,2.459-1.777,3.695-2.804c1.302-1.08,1.481-2.853,1.043-4.388c0.185-2.355-2.036-2.894-4.088-5.561
				c0.105,1.23,0.061,2.464-0.128,3.665c-0.862,5.425-5.189,8.912-10.764,10.974c-4.416,1.634-9.32,2.77-14.09,2.256
				c-15.509-1.672-17.802-9.561-16.298-16.301C251.566,239.013,251.441,239.255,251.327,239.43z"/>
			<path style="opacity:0.56;fill:#B99E30;" d="M277.464,255.512c-5.999,1.428-12.538,1.464-18.007-1.401
				c-4.403-2.306-8.05-5.983-8.441-10.515c-0.239,0.586-0.217,1.714-0.682,2.18c-0.535,0.536-1.55,0.199-2.234,0.205
				c1.412,1.037,3.479,1.9,4.394,2.692c1.048,0.909,2.221,3.966,7.56,7.255c2.577,1.067,5.698,2.038,8.502,2.236
				c4.474,0.316,8.867,0.587,13.034-0.923c7.162-2.594,10.429-7.222,11.732-8.246c1.426-1.118,3.105-2.111,3.464-3.881
				c0.294-1.463-0.362-2.957-1.089-4.265c-0.329-0.305-0.691-0.619-1.078-0.976c0.01,0.075,0.023,0.149,0.033,0.224
				c0.329,2.731-0.275,5.226-2.174,7.447C288.981,251.637,283.01,254.191,277.464,255.512z"/>
			<linearGradient id="SVGID_9_" gradientUnits="userSpaceOnUse" x1="272.1756" y1="243.9516" x2="273.4457" y2="229.4337">
				<stop  offset="0.0364" style="stop-color:#EFEA48"/>
				<stop  offset="0.8545" style="stop-color:#FCF5A5"/>
			</linearGradient>
			<path style="opacity:0.44;fill:url(#SVGID_9_);" d="M278.331,237.489c2.17,0.473,4.643,1.103,6.519,2.184
				c1.66,0.954,3.037,2.34,4.464,3.382c1.993-0.604,2.59-2.405,1.78-3.882c-3.528-6.442-10.561-9.701-18.434-9.701
				c-4.313,0-6.957,0.346-10.843,1.775c-2.994,1.101-8.015,4.033-8.469,11.058c3.26-4.177,7.401-5.629,11.258-5.791
				C269.15,236.323,273.99,236.543,278.331,237.489z"/>
			<path style="opacity:0.52;fill:#FAF8D3;" d="M258.781,235.888c1.334-0.675,2.8-1.197,4.226-1.58
				c2.976-0.802,6.099-1.365,9.413-1.365c2.038,0,3.97,0.198,5.912,0.444c1.347,0.171,4.432,1.467,5.679,1.034
				c1.947-0.677-2.12-2.267-2.876-2.556c-1.634-0.625-3.626-0.91-5.465-1.127c-3.803-0.447-7.831-0.065-11.46,0.945
				c-2.906,0.808-8.062,2.893-8.566,5.993l0.121,0.105C255.873,237.464,258.025,236.271,258.781,235.888z"/>
		</g>
	</g>
	<g>
		<g>
			<path style="fill:#D7DC43;" d="M318.977,273.013c-0.767-1.331-6.191-5.482-7.634-6.232c-6.939-3.606-18.655-3.21-22.432-1.552
				c-8.1,3.555-9.828,9.026-10.722,10.411c-0.871,1.35-2.326,1.704-3.571,2.726c-3.686,3.022,2.887,4.915,4.737,6.517
				c1.266,1.098,2.709,5.334,11.477,9.325c4.159,1.893,15.481,1.457,20.012-0.208c3.332-1.224,7.429-5.601,8.365-6.911
				c0.933-1.3,2.459-1.777,3.695-2.804c1.302-1.08,1.481-2.853,1.043-4.388C324.162,277.197,321.208,276.885,318.977,273.013z"/>
			<path style="fill:#D3D332;" d="M323.948,279.897c0.214-2.701-2.74-3.012-4.971-6.884c-0.333-0.577-1.542-1.683-2.922-2.813
				c-2.304,6.782-11.038,12.12-18.637,13.37c-5.074,0.835-11.288,0.483-14.441-3.645c-2.091-2.738-2.427-6.104-1.634-9.272
				c-1.913,2.232-2.664,4.225-3.155,4.987c-0.871,1.35-2.326,1.704-3.571,2.726c-3.686,3.022,2.887,4.915,4.737,6.517
				c1.266,1.098,2.709,5.334,11.477,9.325c4.159,1.893,15.481,1.457,20.012-0.208c3.332-1.224,7.429-5.601,8.365-6.911
				c0.933-1.3,2.459-1.777,3.695-2.804C324.206,283.205,324.385,281.432,323.948,279.897z"/>
			<path style="opacity:0.43;fill:#C2BD30;" d="M278.189,275.639c-0.871,1.35-2.326,1.704-3.571,2.726
				c-3.686,3.022,2.887,4.915,4.737,6.517c1.266,1.098,2.709,5.334,11.477,9.325c4.159,1.893,15.481,1.457,20.012-0.208
				c3.332-1.224,7.429-5.601,8.365-6.911c0.933-1.3,2.459-1.777,3.695-2.804c1.302-1.08,1.481-2.853,1.043-4.388
				c0.214-2.701-2.74-3.012-4.971-6.884c-0.767-1.331-6.191-5.482-7.634-6.232c-0.52-0.269-1.068-0.514-1.634-0.74
				c0.827,0.835,1.495,1.835,1.951,3.04c1.838,4.86,0.212,9.758-3.719,13.412c-3.337,3.102-7.967,5.54-12.795,6.327
				c-4.545,0.741-9.745,0.142-12.81-3.204c-2.045-2.231-3.358-5.126-3.296-8.01c0.047-2.153,0.723-4.162,1.623-6.116
				C279.24,273.37,278.618,274.975,278.189,275.639z"/>
			<path style="opacity:0.69;fill:#B8B433;" d="M278.189,275.639c-0.209,0.325-0.452,0.591-0.72,0.824
				c0.018,0.084,0.031,0.17,0.034,0.262c0.081,1.983-0.929,4.402-3.621,4.435h-0.003c1.08,1.517,4.274,2.683,5.476,3.723
				c1.266,1.098,2.709,5.334,11.477,9.325c4.159,1.893,15.481,1.457,20.012-0.208c3.332-1.224,7.429-5.601,8.365-6.911
				c0.933-1.3,2.459-1.777,3.695-2.804c1.302-1.08,1.481-2.853,1.043-4.388c0.185-2.355-2.036-2.894-4.088-5.561
				c0.105,1.23,0.061,2.464-0.128,3.665c-0.862,5.425-5.189,8.912-10.764,10.974c-4.416,1.634-9.32,2.77-14.09,2.256
				c-15.509-1.672-17.802-9.561-16.298-16.301C278.428,275.223,278.303,275.464,278.189,275.639z"/>
			<path style="opacity:0.56;fill:#B99E30;" d="M304.326,291.721c-5.999,1.428-12.538,1.464-18.007-1.401
				c-4.403-2.305-8.05-5.983-8.441-10.515c-0.239,0.586-0.217,1.714-0.682,2.18c-0.535,0.536-1.55,0.199-2.234,0.205
				c1.412,1.037,3.479,1.9,4.394,2.692c1.048,0.909,2.221,3.966,7.56,7.255c2.577,1.067,5.698,2.038,8.502,2.236
				c4.474,0.316,8.867,0.587,13.034-0.923c7.162-2.594,10.429-7.222,11.732-8.246c1.426-1.118,3.105-2.111,3.464-3.881
				c0.294-1.463-0.362-2.957-1.089-4.265c-0.329-0.305-0.691-0.619-1.078-0.976c0.01,0.075,0.023,0.149,0.033,0.224
				c0.329,2.731-0.275,5.225-2.174,7.447C315.843,287.847,309.872,290.401,304.326,291.721z"/>
			<linearGradient id="SVGID_10_" gradientUnits="userSpaceOnUse" x1="299.0376" y1="280.161" x2="300.3078" y2="265.643">
				<stop  offset="0.0364" style="stop-color:#EFEA48"/>
				<stop  offset="0.8545" style="stop-color:#FCF5A5"/>
			</linearGradient>
			<path style="opacity:0.44;fill:url(#SVGID_10_);" d="M305.193,273.698c2.17,0.473,4.643,1.103,6.519,2.184
				c1.66,0.954,3.037,2.34,4.464,3.382c1.993-0.604,2.59-2.405,1.78-3.882c-3.528-6.442-10.561-9.701-18.434-9.701
				c-4.313,0-6.957,0.346-10.843,1.775c-2.994,1.101-8.016,4.032-8.469,11.058c3.26-4.177,7.401-5.629,11.258-5.791
				C296.012,272.532,300.852,272.753,305.193,273.698z"/>
			<path style="opacity:0.52;fill:#FAF8D3;" d="M285.643,272.097c1.334-0.675,2.8-1.197,4.226-1.581
				c2.976-0.802,6.099-1.365,9.413-1.365c2.038,0,3.97,0.198,5.912,0.444c1.347,0.171,4.432,1.467,5.679,1.034
				c1.947-0.677-2.12-2.267-2.876-2.556c-1.634-0.625-3.626-0.909-5.465-1.127c-3.803-0.447-7.831-0.065-11.461,0.945
				c-2.906,0.808-8.062,2.893-8.565,5.993l0.121,0.105C282.735,273.673,284.887,272.48,285.643,272.097z"/>
		</g>
	</g>
	<g>
		<g>
			<path style="fill:#D7DC43;" d="M245.551,263.169c-0.767-1.331-6.191-5.482-7.634-6.232c-6.939-3.606-18.655-3.21-22.432-1.552
				c-8.1,3.554-9.828,9.026-10.722,10.41c-0.871,1.35-2.326,1.704-3.571,2.726c-3.686,3.022,2.887,4.915,4.737,6.517
				c1.266,1.098,2.709,5.334,11.477,9.325c4.159,1.893,15.481,1.457,20.012-0.208c3.332-1.224,7.429-5.601,8.365-6.911
				c0.933-1.3,2.459-1.777,3.695-2.804c1.302-1.08,1.481-2.853,1.043-4.388C250.736,267.353,247.782,267.041,245.551,263.169z"/>
			<path style="fill:#D3D332;" d="M250.522,270.053c0.214-2.701-2.739-3.012-4.971-6.884c-0.333-0.577-1.542-1.683-2.922-2.813
				c-2.304,6.782-11.038,12.12-18.637,13.37c-5.074,0.835-11.288,0.483-14.441-3.645c-2.091-2.738-2.427-6.104-1.634-9.272
				c-1.913,2.232-2.664,4.225-3.155,4.987c-0.871,1.35-2.326,1.704-3.571,2.726c-3.686,3.022,2.887,4.915,4.737,6.517
				c1.266,1.098,2.709,5.334,11.477,9.325c4.159,1.893,15.481,1.457,20.012-0.208c3.332-1.224,7.429-5.601,8.365-6.911
				c0.933-1.3,2.459-1.777,3.695-2.804C250.781,273.361,250.959,271.588,250.522,270.053z"/>
			<path style="opacity:0.43;fill:#C2BD30;" d="M204.763,265.795c-0.871,1.35-2.326,1.704-3.571,2.726
				c-3.686,3.022,2.887,4.915,4.737,6.517c1.266,1.098,2.709,5.334,11.477,9.325c4.159,1.893,15.481,1.457,20.012-0.208
				c3.332-1.224,7.429-5.601,8.365-6.911c0.933-1.3,2.459-1.777,3.695-2.804c1.302-1.08,1.481-2.853,1.043-4.388
				c0.214-2.701-2.739-3.012-4.971-6.884c-0.767-1.331-6.191-5.482-7.634-6.232c-0.52-0.269-1.068-0.514-1.634-0.74
				c0.827,0.835,1.495,1.835,1.951,3.04c1.838,4.86,0.212,9.759-3.719,13.412c-3.337,3.102-7.967,5.539-12.795,6.326
				c-4.545,0.741-9.745,0.142-12.81-3.204c-2.045-2.231-3.358-5.126-3.296-8.01c0.047-2.153,0.723-4.162,1.623-6.116
				C205.815,263.526,205.192,265.131,204.763,265.795z"/>
			<path style="opacity:0.69;fill:#B8B433;" d="M204.763,265.795c-0.209,0.325-0.452,0.591-0.72,0.824
				c0.018,0.084,0.031,0.17,0.034,0.262c0.081,1.983-0.929,4.402-3.621,4.435h-0.003c1.08,1.517,4.274,2.683,5.476,3.723
				c1.266,1.098,2.709,5.334,11.477,9.325c4.159,1.893,15.481,1.457,20.012-0.208c3.332-1.224,7.429-5.601,8.365-6.911
				c0.933-1.3,2.459-1.777,3.695-2.804c1.302-1.08,1.481-2.853,1.043-4.388c0.185-2.355-2.036-2.894-4.088-5.561
				c0.105,1.23,0.061,2.464-0.128,3.665c-0.862,5.425-5.189,8.912-10.764,10.974c-4.416,1.634-9.32,2.77-14.09,2.256
				c-15.509-1.672-17.802-9.561-16.298-16.301C205.002,265.379,204.877,265.62,204.763,265.795z"/>
			<path style="opacity:0.56;fill:#B99E30;" d="M230.9,281.877c-5.999,1.428-12.537,1.464-18.007-1.401
				c-4.403-2.305-8.05-5.983-8.441-10.515c-0.239,0.586-0.217,1.714-0.682,2.18c-0.535,0.536-1.55,0.199-2.234,0.205
				c1.412,1.037,3.479,1.9,4.393,2.692c1.048,0.909,2.221,3.966,7.56,7.255c2.577,1.067,5.698,2.038,8.502,2.236
				c4.474,0.316,8.867,0.587,13.034-0.923c7.162-2.594,10.429-7.222,11.732-8.246c1.426-1.118,3.105-2.111,3.464-3.881
				c0.294-1.463-0.362-2.957-1.089-4.265c-0.329-0.305-0.691-0.619-1.078-0.976c0.01,0.075,0.023,0.149,0.034,0.224
				c0.329,2.73-0.275,5.225-2.174,7.447C242.417,278.003,236.447,280.557,230.9,281.877z"/>
			<linearGradient id="SVGID_11_" gradientUnits="userSpaceOnUse" x1="225.6118" y1="270.317" x2="226.882" y2="255.7991">
				<stop  offset="0.0364" style="stop-color:#EFEA48"/>
				<stop  offset="0.8545" style="stop-color:#FCF5A5"/>
			</linearGradient>
			<path style="opacity:0.44;fill:url(#SVGID_11_);" d="M231.767,263.854c2.17,0.473,4.643,1.103,6.519,2.184
				c1.66,0.954,3.037,2.34,4.464,3.382c1.993-0.604,2.589-2.405,1.78-3.882c-3.528-6.442-10.561-9.701-18.433-9.701
				c-4.314,0-6.957,0.346-10.843,1.775c-2.994,1.101-8.015,4.032-8.469,11.058c3.26-4.177,7.401-5.629,11.258-5.791
				C222.587,262.688,227.426,262.909,231.767,263.854z"/>
			<path style="opacity:0.52;fill:#FAF8D3;" d="M212.217,262.253c1.334-0.675,2.8-1.197,4.226-1.581
				c2.976-0.802,6.099-1.365,9.413-1.365c2.038,0,3.97,0.198,5.912,0.444c1.347,0.171,4.432,1.467,5.679,1.034
				c1.947-0.677-2.12-2.267-2.876-2.556c-1.634-0.625-3.626-0.909-5.465-1.127c-3.803-0.447-7.831-0.065-11.461,0.945
				c-2.906,0.808-8.062,2.893-8.565,5.993l0.121,0.105C209.309,263.829,211.461,262.636,212.217,262.253z"/>
		</g>
	</g>
	<g>
		<g>
			<path style="fill:#D7DC43;" d="M276.04,297.348c-0.767-1.331-6.191-5.482-7.634-6.232c-6.939-3.606-18.655-3.21-22.432-1.552
				c-8.1,3.555-9.828,9.026-10.722,10.41c-0.871,1.35-2.326,1.704-3.571,2.726c-3.686,3.022,2.887,4.915,4.737,6.517
				c1.266,1.098,2.709,5.334,11.477,9.325c4.159,1.893,15.481,1.457,20.012-0.208c3.332-1.224,7.429-5.601,8.365-6.911
				c0.933-1.3,2.459-1.777,3.695-2.804c1.302-1.08,1.481-2.853,1.043-4.388C281.224,301.532,278.271,301.221,276.04,297.348z"/>
			<path style="fill:#D3D332;" d="M281.01,304.232c0.214-2.701-2.739-3.012-4.971-6.884c-0.333-0.577-1.542-1.683-2.922-2.813
				c-2.304,6.782-11.038,12.12-18.637,13.37c-5.074,0.835-11.288,0.483-14.441-3.645c-2.091-2.738-2.427-6.104-1.634-9.272
				c-1.913,2.232-2.664,4.225-3.155,4.987c-0.871,1.35-2.326,1.704-3.571,2.726c-3.686,3.022,2.887,4.915,4.737,6.517
				c1.266,1.098,2.709,5.334,11.477,9.325c4.159,1.893,15.481,1.457,20.012-0.208c3.332-1.224,7.429-5.601,8.365-6.911
				c0.933-1.3,2.459-1.777,3.695-2.804C281.269,307.54,281.448,305.767,281.01,304.232z"/>
			<path style="opacity:0.43;fill:#C2BD30;" d="M235.251,299.974c-0.871,1.35-2.326,1.704-3.571,2.726
				c-3.686,3.022,2.887,4.915,4.737,6.517c1.266,1.098,2.709,5.334,11.477,9.325c4.159,1.893,15.481,1.457,20.012-0.208
				c3.332-1.224,7.429-5.601,8.365-6.911c0.933-1.3,2.459-1.777,3.695-2.804c1.302-1.08,1.481-2.853,1.043-4.388
				c0.214-2.701-2.739-3.012-4.971-6.884c-0.767-1.331-6.191-5.482-7.634-6.232c-0.52-0.269-1.068-0.514-1.634-0.74
				c0.827,0.835,1.495,1.835,1.951,3.04c1.838,4.86,0.212,9.759-3.719,13.412c-3.337,3.102-7.967,5.539-12.795,6.326
				c-4.545,0.741-9.745,0.142-12.81-3.204c-2.045-2.231-3.358-5.126-3.296-8.01c0.047-2.153,0.723-4.162,1.623-6.116
				C236.303,297.705,235.68,299.31,235.251,299.974z"/>
			<path style="opacity:0.69;fill:#B8B433;" d="M235.251,299.974c-0.209,0.325-0.452,0.591-0.72,0.824
				c0.018,0.083,0.031,0.17,0.034,0.262c0.081,1.983-0.929,4.402-3.621,4.434h-0.003c1.08,1.517,4.274,2.683,5.476,3.723
				c1.266,1.098,2.709,5.334,11.477,9.325c4.159,1.893,15.481,1.457,20.012-0.208c3.332-1.224,7.429-5.601,8.365-6.911
				c0.933-1.3,2.459-1.777,3.695-2.804c1.302-1.08,1.481-2.853,1.043-4.388c0.185-2.355-2.036-2.894-4.088-5.561
				c0.105,1.23,0.061,2.464-0.128,3.665c-0.862,5.425-5.189,8.912-10.764,10.974c-4.416,1.634-9.32,2.771-14.09,2.256
				c-15.509-1.672-17.802-9.561-16.298-16.301C235.49,299.558,235.366,299.8,235.251,299.974z"/>
			<path style="opacity:0.56;fill:#B99E30;" d="M261.388,316.056c-5.999,1.428-12.537,1.464-18.007-1.401
				c-4.403-2.305-8.05-5.983-8.441-10.515c-0.239,0.586-0.217,1.714-0.682,2.18c-0.535,0.536-1.55,0.199-2.234,0.205
				c1.412,1.037,3.479,1.9,4.393,2.692c1.048,0.909,2.221,3.966,7.56,7.255c2.577,1.067,5.698,2.038,8.502,2.236
				c4.474,0.316,8.867,0.587,13.034-0.923c7.162-2.594,10.429-7.222,11.732-8.246c1.426-1.118,3.105-2.111,3.464-3.881
				c0.294-1.463-0.362-2.957-1.089-4.265c-0.329-0.305-0.691-0.619-1.078-0.976c0.01,0.075,0.023,0.149,0.034,0.224
				c0.329,2.731-0.275,5.226-2.174,7.447C272.905,312.182,266.935,314.736,261.388,316.056z"/>
			<linearGradient id="SVGID_12_" gradientUnits="userSpaceOnUse" x1="256.1002" y1="304.4961" x2="257.3703" y2="289.9783">
				<stop  offset="0.0364" style="stop-color:#EFEA48"/>
				<stop  offset="0.8545" style="stop-color:#FCF5A5"/>
			</linearGradient>
			<path style="opacity:0.44;fill:url(#SVGID_12_);" d="M262.256,298.033c2.17,0.473,4.643,1.103,6.519,2.184
				c1.66,0.954,3.037,2.34,4.464,3.382c1.993-0.604,2.59-2.405,1.78-3.882c-3.528-6.442-10.561-9.701-18.433-9.701
				c-4.314,0-6.957,0.346-10.843,1.775c-2.994,1.101-8.016,4.033-8.469,11.058c3.26-4.177,7.401-5.629,11.258-5.791
				C253.075,296.867,257.914,297.088,262.256,298.033z"/>
			<path style="opacity:0.52;fill:#FAF8D3;" d="M242.705,296.432c1.334-0.675,2.8-1.197,4.226-1.581
				c2.976-0.802,6.099-1.365,9.413-1.365c2.038,0,3.97,0.198,5.912,0.444c1.347,0.171,4.432,1.467,5.679,1.034
				c1.947-0.677-2.12-2.267-2.876-2.556c-1.634-0.625-3.626-0.91-5.465-1.127c-3.803-0.447-7.831-0.065-11.461,0.945
				c-2.906,0.808-8.062,2.893-8.565,5.993l0.121,0.105C239.797,298.009,241.949,296.815,242.705,296.432z"/>
		</g>
	</g>
	<g>
		<g>
			<path style="fill:#D7DC43;" d="M301.364,367.969c-0.767-1.331-6.191-5.482-7.634-6.232c-6.939-3.607-18.655-3.21-22.432-1.552
				c-8.1,3.555-9.828,9.026-10.722,10.411c-0.871,1.35-2.326,1.704-3.571,2.726c-3.686,3.022,2.888,4.915,4.737,6.517
				c1.266,1.098,2.709,5.334,11.477,9.325c4.159,1.893,15.481,1.457,20.012-0.208c3.332-1.224,7.429-5.601,8.365-6.911
				c0.933-1.3,2.459-1.777,3.695-2.804c1.302-1.08,1.481-2.853,1.043-4.388C306.548,372.153,303.595,371.842,301.364,367.969z"/>
			<path style="fill:#D3D332;" d="M306.334,374.853c0.214-2.701-2.739-3.012-4.971-6.884c-0.333-0.577-1.543-1.683-2.922-2.813
				c-2.304,6.782-11.038,12.12-18.637,13.37c-5.074,0.835-11.288,0.483-14.441-3.646c-2.091-2.738-2.427-6.104-1.634-9.272
				c-1.913,2.232-2.664,4.225-3.155,4.987c-0.871,1.35-2.326,1.704-3.571,2.726c-3.686,3.022,2.888,4.915,4.737,6.517
				c1.266,1.098,2.709,5.334,11.477,9.325c4.159,1.893,15.481,1.457,20.012-0.208c3.332-1.224,7.429-5.601,8.365-6.911
				c0.933-1.3,2.459-1.777,3.695-2.804C306.593,378.161,306.772,376.388,306.334,374.853z"/>
			<path style="opacity:0.43;fill:#C2BD30;" d="M260.575,370.595c-0.871,1.35-2.326,1.704-3.571,2.726
				c-3.686,3.022,2.888,4.915,4.737,6.517c1.266,1.098,2.709,5.334,11.477,9.325c4.159,1.893,15.481,1.457,20.012-0.208
				c3.332-1.224,7.429-5.601,8.365-6.911c0.933-1.3,2.459-1.777,3.695-2.804c1.302-1.08,1.481-2.853,1.043-4.388
				c0.214-2.701-2.739-3.012-4.971-6.884c-0.767-1.331-6.191-5.482-7.634-6.232c-0.52-0.269-1.068-0.514-1.634-0.74
				c0.827,0.835,1.495,1.835,1.951,3.04c1.838,4.86,0.212,9.759-3.719,13.412c-3.337,3.102-7.967,5.54-12.795,6.326
				c-4.545,0.741-9.745,0.142-12.81-3.204c-2.045-2.231-3.358-5.126-3.296-8.01c0.047-2.153,0.723-4.162,1.623-6.116
				C261.627,368.326,261.004,369.931,260.575,370.595z"/>
			<path style="opacity:0.69;fill:#B8B433;" d="M260.575,370.595c-0.208,0.325-0.452,0.591-0.72,0.824
				c0.018,0.083,0.031,0.17,0.034,0.262c0.081,1.982-0.929,4.402-3.621,4.434h-0.003c1.08,1.517,4.274,2.683,5.476,3.723
				c1.266,1.098,2.709,5.334,11.477,9.325c4.159,1.893,15.481,1.457,20.012-0.208c3.332-1.224,7.429-5.601,8.365-6.911
				c0.933-1.3,2.459-1.777,3.695-2.804c1.302-1.08,1.481-2.853,1.043-4.388c0.185-2.355-2.036-2.894-4.088-5.561
				c0.105,1.23,0.061,2.464-0.129,3.665c-0.862,5.425-5.188,8.912-10.764,10.974c-4.416,1.634-9.32,2.77-14.09,2.256
				c-15.509-1.672-17.802-9.561-16.298-16.301C260.814,370.179,260.689,370.421,260.575,370.595z"/>
			<path style="opacity:0.56;fill:#B99E30;" d="M286.712,386.677c-5.999,1.428-12.538,1.464-18.007-1.401
				c-4.403-2.305-8.05-5.983-8.441-10.515c-0.239,0.586-0.217,1.714-0.682,2.18c-0.535,0.536-1.55,0.199-2.234,0.205
				c1.412,1.037,3.479,1.9,4.394,2.692c1.048,0.909,2.221,3.966,7.56,7.255c2.578,1.067,5.698,2.038,8.502,2.236
				c4.474,0.316,8.867,0.586,13.034-0.923c7.162-2.594,10.429-7.222,11.732-8.246c1.426-1.118,3.105-2.111,3.464-3.882
				c0.294-1.462-0.362-2.957-1.089-4.265c-0.329-0.305-0.691-0.619-1.078-0.976c0.01,0.075,0.023,0.149,0.033,0.224
				c0.33,2.731-0.275,5.226-2.174,7.447C298.229,382.803,292.259,385.357,286.712,386.677z"/>
			<linearGradient id="SVGID_13_" gradientUnits="userSpaceOnUse" x1="281.424" y1="375.1172" x2="282.6942" y2="360.5993">
				<stop  offset="0.0364" style="stop-color:#EFEA48"/>
				<stop  offset="0.8545" style="stop-color:#FCF5A5"/>
			</linearGradient>
			<path style="opacity:0.44;fill:url(#SVGID_13_);" d="M287.58,368.654c2.17,0.473,4.643,1.103,6.519,2.184
				c1.66,0.954,3.037,2.339,4.464,3.382c1.993-0.604,2.59-2.405,1.78-3.882c-3.528-6.442-10.561-9.701-18.433-9.701
				c-4.314,0-6.957,0.346-10.843,1.775c-2.994,1.101-8.015,4.033-8.469,11.058c3.26-4.177,7.401-5.629,11.259-5.791
				C278.399,367.488,283.238,367.709,287.58,368.654z"/>
			<path style="opacity:0.52;fill:#FAF8D3;" d="M268.029,367.053c1.334-0.675,2.8-1.197,4.226-1.581
				c2.976-0.802,6.099-1.365,9.413-1.365c2.038,0,3.97,0.198,5.912,0.444c1.347,0.171,4.432,1.467,5.679,1.034
				c1.947-0.677-2.12-2.267-2.876-2.556c-1.634-0.625-3.626-0.91-5.465-1.127c-3.803-0.447-7.831-0.064-11.461,0.945
				c-2.906,0.808-8.062,2.893-8.566,5.993l0.121,0.105C265.121,368.63,267.273,367.436,268.029,367.053z"/>
		</g>
	</g>
	<g>
		<g>
			<path style="fill:#D7DC43;" d="M317.402,322.114c-0.767-1.331-6.191-5.482-7.634-6.232c-6.939-3.607-18.655-3.21-22.432-1.552
				c-8.1,3.555-9.828,9.026-10.722,10.411c-0.871,1.35-2.326,1.704-3.571,2.726c-3.686,3.022,2.887,4.915,4.737,6.517
				c1.266,1.098,2.709,5.334,11.477,9.325c4.159,1.893,15.481,1.457,20.012-0.208c3.332-1.224,7.429-5.601,8.365-6.911
				c0.933-1.3,2.459-1.777,3.695-2.804c1.302-1.08,1.481-2.853,1.043-4.388C322.587,326.297,319.633,325.986,317.402,322.114z"/>
			<path style="fill:#D3D332;" d="M322.372,328.998c0.214-2.701-2.739-3.012-4.971-6.884c-0.333-0.577-1.542-1.683-2.922-2.813
				c-2.304,6.782-11.038,12.12-18.637,13.37c-5.074,0.835-11.288,0.483-14.441-3.645c-2.091-2.738-2.427-6.104-1.634-9.272
				c-1.913,2.232-2.664,4.225-3.155,4.987c-0.871,1.35-2.326,1.704-3.571,2.726c-3.686,3.022,2.887,4.915,4.737,6.517
				c1.266,1.098,2.709,5.334,11.477,9.325c4.159,1.893,15.481,1.457,20.012-0.208c3.332-1.224,7.429-5.601,8.365-6.911
				c0.933-1.3,2.459-1.777,3.695-2.804C322.631,332.305,322.81,330.533,322.372,328.998z"/>
			<path style="opacity:0.43;fill:#C2BD30;" d="M276.613,324.74c-0.871,1.35-2.326,1.704-3.571,2.726
				c-3.686,3.022,2.887,4.915,4.737,6.517c1.266,1.098,2.709,5.334,11.477,9.325c4.159,1.893,15.481,1.457,20.012-0.208
				c3.332-1.224,7.429-5.601,8.365-6.911c0.933-1.3,2.459-1.777,3.695-2.804c1.302-1.08,1.481-2.853,1.043-4.388
				c0.214-2.701-2.739-3.012-4.971-6.884c-0.767-1.331-6.191-5.482-7.634-6.232c-0.52-0.269-1.068-0.514-1.634-0.74
				c0.827,0.835,1.495,1.835,1.951,3.04c1.838,4.861,0.212,9.759-3.719,13.412c-3.337,3.102-7.967,5.54-12.795,6.327
				c-4.545,0.741-9.745,0.142-12.81-3.204c-2.045-2.231-3.358-5.126-3.296-8.01c0.047-2.153,0.723-4.162,1.623-6.116
				C277.665,322.471,277.042,324.076,276.613,324.74z"/>
			<path style="opacity:0.69;fill:#B8B433;" d="M276.613,324.74c-0.209,0.325-0.452,0.591-0.72,0.824
				c0.018,0.084,0.031,0.17,0.034,0.262c0.081,1.983-0.929,4.402-3.621,4.434h-0.003c1.08,1.517,4.274,2.683,5.476,3.723
				c1.266,1.098,2.709,5.334,11.477,9.325c4.159,1.893,15.481,1.457,20.012-0.208c3.332-1.224,7.429-5.601,8.365-6.911
				c0.933-1.3,2.459-1.777,3.695-2.804c1.302-1.08,1.481-2.853,1.043-4.388c0.185-2.355-2.036-2.894-4.088-5.561
				c0.105,1.23,0.061,2.464-0.128,3.665c-0.862,5.425-5.189,8.912-10.764,10.974c-4.416,1.634-9.32,2.77-14.09,2.256
				c-15.509-1.672-17.802-9.561-16.298-16.301C276.853,324.323,276.728,324.565,276.613,324.74z"/>
			<path style="opacity:0.56;fill:#B99E30;" d="M302.75,340.822c-5.999,1.428-12.537,1.464-18.007-1.401
				c-4.403-2.305-8.05-5.983-8.441-10.515c-0.239,0.586-0.217,1.714-0.682,2.18c-0.535,0.536-1.55,0.199-2.234,0.205
				c1.412,1.037,3.479,1.9,4.393,2.692c1.048,0.909,2.221,3.966,7.56,7.255c2.577,1.067,5.698,2.038,8.502,2.236
				c4.474,0.316,8.867,0.587,13.034-0.923c7.162-2.594,10.429-7.222,11.732-8.246c1.426-1.118,3.105-2.111,3.464-3.881
				c0.294-1.463-0.362-2.957-1.089-4.265c-0.329-0.305-0.691-0.619-1.078-0.976c0.01,0.075,0.023,0.149,0.034,0.224
				c0.329,2.731-0.275,5.226-2.174,7.447C314.268,336.948,308.297,339.501,302.75,340.822z"/>
			<linearGradient id="SVGID_14_" gradientUnits="userSpaceOnUse" x1="297.4624" y1="329.2617" x2="298.7325" y2="314.7437">
				<stop  offset="0.0364" style="stop-color:#EFEA48"/>
				<stop  offset="0.8545" style="stop-color:#FCF5A5"/>
			</linearGradient>
			<path style="opacity:0.44;fill:url(#SVGID_14_);" d="M303.618,322.799c2.17,0.473,4.643,1.103,6.519,2.184
				c1.66,0.954,3.037,2.34,4.464,3.382c1.993-0.604,2.59-2.405,1.78-3.882c-3.528-6.442-10.561-9.701-18.433-9.701
				c-4.314,0-6.957,0.346-10.843,1.775c-2.994,1.101-8.016,4.032-8.469,11.058c3.26-4.177,7.401-5.629,11.258-5.791
				C294.437,321.633,299.276,321.853,303.618,322.799z"/>
			<path style="opacity:0.52;fill:#FAF8D3;" d="M284.067,321.198c1.334-0.675,2.8-1.197,4.226-1.581
				c2.976-0.802,6.099-1.365,9.413-1.365c2.038,0,3.97,0.198,5.912,0.444c1.347,0.171,4.432,1.467,5.679,1.034
				c1.947-0.677-2.12-2.267-2.876-2.556c-1.634-0.625-3.626-0.91-5.465-1.127c-3.803-0.447-7.831-0.065-11.461,0.945
				c-2.906,0.808-8.062,2.893-8.565,5.993l0.121,0.105C281.16,322.774,283.312,321.581,284.067,321.198z"/>
		</g>
	</g>
</g>
<g>
	<path style="fill:#725EA9;" d="M133.472,234.893c1.703-1.037,3.577-2.915,5.62-5.626c0.99-1.333,1.911-2.471,2.76-3.414
		c0.849-0.943,1.849-1.379,3-1.307c1.151,0.073,2.111,0.483,2.884,1.229c-1.294,9.389-2.201,18.203-2.72,26.443
		c-0.52,8.243-0.705,15.357-0.556,21.349c-0.853,0.544-1.819,0.781-2.897,0.714c-1.078-0.068-1.915-0.718-2.509-1.952
		c-0.595-1.235-0.829-2.856-0.702-4.867c0.127-2.011,0.626-6.228,1.499-12.653c0.872-6.422,1.561-13.407,2.066-20.953
		c-0.352,0.477-0.953,1.435-1.804,2.877c-1.9,3.22-3.324,4.8-4.27,4.74c-0.947-0.06-1.609-0.699-1.985-1.92
		C133.482,238.334,133.353,236.782,133.472,234.893z"/>
</g>
</svg>
