<?xml version="1.0" encoding="iso-8859-1"?>
<!-- Generator: Adobe Illustrator 23.0.2, SVG Export Plug-In . SVG Version: 6.00 Build 0)  -->
<svg version="1.1" id="Layer_1" xmlns="http://www.w3.org/2000/svg" xmlns:xlink="http://www.w3.org/1999/xlink" x="0px" y="0px"
	 viewBox="0 0 595.276 841.89" style="enable-background:new 0 0 595.276 841.89;" xml:space="preserve">
<g>
	<g>
		<g>
			<path style="fill:#EF3F24;" d="M254.987,270.065c-6.11,1.11-9.69,8.34-10.29,13.67c-0.96,8.48-0.52,18.82,5.11,25.93
				c9.89,12.48,32.08,12.29,44.38,3.42c9.87-7.12,16.48-18.5,10.93-30.29c-2.14-4.55-5.79-8.49-10.56-10.57
				c-5.49-2.39-9.71-0.96-15.35-0.24c-4.25,0.54-9.57,0.67-13.76-0.32C261.877,270.825,258.837,269.365,254.987,270.065z"/>
			<path style="opacity:0.25;fill:#FFDE11;enable-background:new    ;" d="M292.007,293.395c4.35-2.04,8.56-5.15,9.39-9.43
				c0.25-1.32,0.54-3.89,0.35-6.34c-1.96-2.28-4.39-4.17-7.21-5.4c-5.49-2.39-9.71-0.96-15.35-0.24c-4.25,0.54-9.57,0.67-13.76-0.32
				c-3.56-0.84-6.6-2.31-10.45-1.6c-3.82,0.69-6.65,3.78-8.38,7.3c-0.08,0.65-0.11,1.3-0.09,1.93c0.18,5.26,3.21,9.36,8.04,11.71
				c8.85,4.31,20.85,5.81,30.56,4.12C287.367,294.725,289.707,294.155,292.007,293.395z"/>
			<path style="opacity:0.21;fill:#FDD41E;enable-background:new    ;" d="M270.467,303.575c0.76-0.13,1.46-0.28,2.07-0.44
				c4.66-1.22,8.66-4.32,11.71-7.6c1.52-1.63,3.14-4.16,3.23-6.32c0.07-1.87,0.38-4.69-1.32-6.09c-2.57-2.13-5.83-0.46-8.36,0.61
				c-1.24,0.52-2.52,0.59-3.87,0.46c-5.09-0.49-8.79-4.78-13.72-5.62c-3.73-0.64-7.75,0.16-8.54,3.88
				c-0.8,3.77-0.41,7.73,1.15,11.33c1.44,3.34,4.44,7.78,8.2,9.42C263.447,304.265,267.417,304.095,270.467,303.575z"/>
			<path style="opacity:0.37;fill:#C82127;enable-background:new    ;" d="M305.107,282.805c-2.14-4.55-5.79-8.49-10.56-10.57
				c-5.49-2.39-9.71-0.96-15.35-0.24c-4.25,0.54-9.57,0.67-13.76-0.32c-3.56-0.84-6.6-2.31-10.45-1.6
				c-6.11,1.11-9.69,8.34-10.29,13.67c-0.96,8.48-0.52,18.82,5.11,25.93c9.89,12.48,32.08,12.29,44.38,3.42
				C304.047,305.985,310.657,294.595,305.107,282.805z M270.487,309.365c-0.22,0.02-0.44,0.03-0.66,0.05
				c-4.51,0.26-10.01,0.02-13.86-2.52c-4.6-3.03-7.12-8.07-8.11-13.23c-1.3-6.76-0.68-12.39,4.46-17.64c3.39-3.46,7.07-4,11.7-3.07
				c3.31,0.67,6.79,0.59,10.29,0.6c3.55,0.01,7.18-1.52,10.5,0.2c7.92,4.1,8.75,9.89,7.7,17.99c-0.6,4.68-3.33,9-7.17,11.89
				C281.057,306.865,275.907,308.915,270.487,309.365z"/>
			<path style="opacity:0.37;fill:#971D20;enable-background:new    ;" d="M305.107,282.805c-2.14-4.55-5.79-8.49-10.56-10.57
				c-3.64-1.58-6.71-1.49-10.01-1.04c7.42,1.44,13.68,6.62,14.88,14.31c1.4,9-2.26,19.13-10.56,23.98
				c-7.61,4.44-19.02,6.01-27.64,3.6c-6.32-1.77-12.53-6.08-15.56-11.83c0.86,3.06,2.19,5.94,4.15,8.42
				c9.89,12.48,32.08,12.29,44.38,3.42C304.047,305.985,310.657,294.595,305.107,282.805z"/>
			<path style="opacity:0.22;fill:#DF2328;enable-background:new    ;" d="M300.177,277.495c-3.08-3.27-7.43-5.37-12.66-5.26
				c2.92,0.02,5.44,2.67,7.39,4.46c2.49,2.29,4,5.56,4.5,8.81c1.4,9-2.26,19.13-10.56,23.98c-7.61,4.44-19.02,6.01-27.64,3.6
				c-4.25-1.19-8.86-3.36-11.69-6.77c-0.89-1.07-1.38-2.46-1.95-3.53c-0.12,2.49,2.6,6.15,4.39,7.81c1.63,1.51,3.73,2.58,5.67,3.68
				c5.46,3.11,11.83,3.68,18.06,3.69c3.27,0,6.77-0.74,9.77-1.95c2.39-0.97,5.52-1.72,7.52-3.31c0.37-0.3,0.74-0.6,1.11-0.91
				c1.74-1.5,3.27-3.16,4.95-4.68c2.53-3.73,4.53-8.03,5.59-12.18C306.237,288.695,304.417,281.995,300.177,277.495z"/>
			<path style="opacity:0.41;fill:#9C1D21;enable-background:new    ;" d="M261.167,315.035c2.5,1.46,5.55,2.32,8.78,2.7
				c1.72,0.15,3.46,0.21,5.19,0.22c2.45-0.08,4.89-0.39,7.16-0.9c1.09-0.29,2.16-0.64,3.17-1.05c0.99-0.4,2.11-0.77,3.22-1.17
				c12.56-6.24,18.61-22.48,11.93-34.6c0.58,1.79,0.89,3.67,0.95,5.6c0.3,9.42-2.4,18.51-10.65,24.2
				c-7.15,4.93-15.36,6.6-24.04,5.39c-3.28-0.46-6.54-1.32-9.45-2.71C258.667,313.535,259.927,314.315,261.167,315.035z"/>
			<path style="opacity:0.37;fill:#971D20;enable-background:new    ;" d="M263.767,277.195c0.13,0.26,0.33,0.54,0.62,0.86
				c1.82,1.99,5.93,2.76,8.54,2.97c3.3,0.26,6.49-0.72,9.56-1.75c0.97-0.32,6.84-2.08,3.45-3.35c-1.2-0.45-2.81-0.56-4.13-0.45
				c-1.3,0.11-2.25,0.72-3.48,0.92c-1.79,0.28-3.34-0.72-5.06-1.03c-1.87-0.34-3.79-0.33-5.69-0.33
				C265.727,275.035,262.837,275.365,263.767,277.195z"/>
			<path style="opacity:0.41;fill:#9C1D21;enable-background:new    ;" d="M275.387,278.645c-0.85,0.13-1.7,0.2-2.57-0.1
				c-1.66-0.57-5.28-2.03-6.92-0.85c-2.55,1.86,5.66,3.22,7.03,3.33c3.3,0.26,6.49-0.72,9.56-1.75c0.09-0.03,0.22-0.07,0.38-0.12
				c-0.97-0.12-1.85-0.14-2.75-0.36c-0.85-0.21-1.39-0.51-2.33-0.49C276.977,278.325,276.177,278.515,275.387,278.645z"/>
			<path style="opacity:0.26;fill:#FFE303;enable-background:new    ;" d="M251.987,281.135c0.01,0.53,0.06,1.07,0.14,1.6
				c0.3,1.92,1.13,2.21,2.25,3.7c0.99,1.3,1.41,1.87,2.94,2.65c1.32,0.67,2.39,1.67,3.82,2.14c5.69,1.87,12.85-0.97,18.52-1.74
				c2.67-0.36,6.3-0.3,8.33-2.3c1.85-1.84,3.51-5.77,0.4-7.24c-2.28-1.08-4.72,0.61-6.47,1.91c-2.95,2.21-5.2,3.32-8.99,2.34
				c-3.21-0.83-6.91-1.5-9.31-3.81c-1-0.96-1.75-2.18-2.21-3.46c-0.31-0.87-0.3-1.84-1.07-2.49c-1.57-1.31-4.23-0.52-5.64,0.58
				C252.717,276.555,251.957,278.805,251.987,281.135z"/>
			<path style="opacity:0.34;fill:#FFD994;enable-background:new    ;" d="M256.597,283.145c1.06,1.86,1.49,2.72,3.76,3.36
				c1.94,0.55,3.79,1.48,5.66,1.96c3.31,0.84,7.98-0.01,11.27-0.57c1.65-0.28,4.1-0.58,5.5-1.42c1.08-0.64,2.87-3.19,0.56-3.47
				c-1.65-0.2-2.26,1.55-3.5,2.2c-1.39,0.72-3.71,0.87-5.22,0.6c-2.41-0.43-4.98-0.86-7.36-1.47c-3.04-0.79-5.83-2.45-6.43-5.61
				c-0.33-1.74-0.72-3.11-2.8-3.48C251.857,274.165,255.327,280.915,256.597,283.145z"/>
			<path style="opacity:0.86;fill:#FEF4A2;enable-background:new    ;" d="M261.627,284.565c2.4-0.52-1.71-5.77-3.04-6.09
				C254.047,277.365,256.787,285.615,261.627,284.565z"/>
			<path style="opacity:0.86;fill:#FEF4A2;enable-background:new    ;" d="M267.267,286.365c0.57-1.47-1.15-2.3-2.44-1.59
				C262.687,285.945,266.537,288.255,267.267,286.365z"/>
			<path style="opacity:0.86;fill:#FEF4A2;enable-background:new    ;" d="M282.797,283.505c-0.26,0-0.55,0.07-0.82,0.25
				c-1.11,0.7-0.71,1.74,0.5,1.68C283.787,285.375,284.357,283.505,282.797,283.505z"/>
		</g>
		<g>
			<path style="fill:#825A23;" d="M277.567,259.445c-1.47,1.37-3.1,3.74-3.77,5.73c-1.07,3.2-1.44,6.67-1.25,10.09h-0.01
				c0.01,0.3,0.04,0.59,0.07,0.88c0,0.04,0,0.07,0.01,0.11c0.13,1.5,0.35,3,0.68,4.44c0.02,0.09,0.04,0.21,0.07,0.34
				c0.58,0.03,1.17,0.02,1.74-0.02c-0.15-0.98-0.53-2.09-0.72-2.9l0,0c-0.04-0.17-0.07-0.33-0.09-0.47
				c-0.05-0.41-0.08-0.83-0.11-1.24c-0.01-0.27-0.03-0.55-0.03-0.83l0,0c-0.04-1.47,0.08-2.94,0.32-4.4
				c0.8-4.82,2.51-9.29,7.23-11.09C282.067,256.925,278.757,258.335,277.567,259.445z"/>
			<path style="fill:#6C451A;" d="M280.527,259.355c-0.55,0.29-1.07,0.65-1.58,1.03c-1.94,1.77-3.66,4.16-4.69,8.21
				c-1.06,4.13-0.85,7.92,0.33,12.45c0.17,0,0.34-0.01,0.51-0.02c-0.15-0.98-0.53-2.09-0.72-2.9l0,0c-0.04-0.17-0.07-0.33-0.09-0.47
				c-0.05-0.41-0.08-0.83-0.11-1.24c-0.01-0.27-0.03-0.55-0.03-0.83c-0.04-1.47,0.08-2.94,0.32-4.4c0.8-4.82,2.51-9.29,7.23-11.09
				c0.06-0.53,0-0.92-0.12-1.21C281.237,259.025,280.877,259.175,280.527,259.355z"/>
			<path style="fill:#A06C29;" d="M280.257,259.135c0.38,0.78,1.2,1.06,1.45,0.96c0.17-1.54-0.52-1.99-1.41-1.93
				C280.077,258.175,280.117,258.845,280.257,259.135z"/>
			<path style="fill:#C98F49;" d="M280.257,259.135c0.38,0.78,1.2,1.06,1.45,0.96c0,0-0.97-0.36-1.11-1.04
				c-0.14-0.66,0.12-0.88,0.12-0.88c-0.13-0.02-0.27-0.02-0.42-0.02C280.077,258.175,280.117,258.845,280.257,259.135z"/>
		</g>
		<g>
			<path style="fill:#97C13D;" d="M274.277,259.135c0.26,0.03,0.52,0.08,0.78,0.14c0.99,0.21,3.22,0.74,4.08,0.02
				c2.25-1.89-2.7-0.67-3.34-0.68c-4.63-0.08-2.95-4.51-3.38-7.46c-0.48-3.31-3.26-5.22-6.49-5.81c-1.6-0.3-3.22-0.47-4.85-0.44
				c-2.8,0.05-5.06,0.09-7.76-0.78c-0.93-0.3-1.94-0.71-2.71-1.31c-0.21,3.23,0.16,6.4,2.19,9c2.07,2.64,3.32,5.29,6.49,6.98
				c1.93,1.03,4.24,2.28,6.47,2.19c1.11-0.05,2.07-0.22,3.11-0.63C270.857,259.575,271.957,258.815,274.277,259.135z"/>
			<path style="opacity:0.46;fill:#A5CE3A;enable-background:new    ;" d="M253.617,247.075c0.32,0.22,0.87,0.79,0.8,1.04
				c-0.14,0.46-1.15,0.53-0.94,1.32c0.27,1,1.14-0.1,1.81,0.01c0.17,0.72-1.9,2.8-0.7,3.27c0.49,0.19,1-0.42,1.19-0.76
				c0.34-0.62,0.15-0.97,0.87-1.22c0.95-0.34,1.47-0.33,1.5,0.67c0.02,0.54,0.08,1.58-0.13,2.08c-0.27,0.63-0.91,0.68-0.81,1.45
				c0.07,0.55,0.64,1.16,1.25,1.16c0.17,0.93,1.07,0.01,1.26-0.41c0.2-0.44,0.12-1.05,0.39-1.45c0.15-0.22,0.43-0.28,0.56-0.45
				c0.4-0.58,0.22-1.36,0.89-1.82c0.62-0.42,1.4-0.32,1.27,0.54c-0.1,0.65-0.77,1.32-0.95,2.04c-0.13,0.49-1.02,1.98-0.72,2.46
				c0.74,1.17,1.96-1.97,2.44-2.28c-0.01,0.14,0.04,0.3,0.03,0.44c0.59-0.25,0.47-1.51,1.33-1.52c0.77-0.01,0.69,0.9,0.63,1.47
				c-0.09,1-1.03,3.19,0,3.95c0.81,0.59,0.87-0.33,1.32-0.63c0.59-0.38,1.13,0.03,1.62,0.15c0.91,0.23,2.7,0.04,3.62-0.22
				c-0.22-0.17-0.48-0.38-0.65-0.67c-0.33-0.59-0.04-0.48,0.1-0.93c0.22-0.74,0.29-1.77,0.3-2.56c-0.75-0.05-1.04,1.15-1.81,0.98
				c-1.04-0.23-0.08-2.48,0.06-3.13c0.12-0.59,0.31-2.47-0.68-2.69c-0.56-0.12-0.78,0.76-1.18,1.11c-0.75,0.65-2.74,2.66-2.79,0.51
				c-0.02-0.66,0.36-1.19,0.46-1.83c0.16-1.06-0.13-0.77-0.85-1.07c-0.7-0.29-0.95-1.16-1.82-0.61c-0.67,0.42-0.75,0.95-1.6,0.16
				c-0.6-0.57-0.9-1.25-1.88-1.15c-0.72,0.07-0.77,0.66-1.36,0.9c-1.59,0.63-2.03-1.09-2.98-1.66c-0.58-0.36-1.42-0.25-2.06-0.38
				c-0.58-0.11-0.87-0.5-1.33-0.76c0.23,0.13-0.38,1.67-0.26,1.91C251.997,246.865,253.197,246.785,253.617,247.075z"/>
			<path style="fill:#8AAE3F;" d="M271.547,257.975c-0.16-0.06-0.31-0.13-0.45-0.22c-0.44-0.3-0.88-0.71-1.31-1.05
				c-0.97-0.78-1.78-1.72-2.55-2.67c-1.45-1.77-3-4.14-5.27-5.03c-0.41-0.16-0.84-0.3-1.25-0.45c-2.72-0.67-6.44-0.89-8.19-3.22
				c0.54,1.12,1.45,1.99,2.67,2.54c0.65,0.29,1.99,0.07,1.63,1.16c0.49-0.74,2.1-0.13,2.72,0.21c0.3,0.16,0.31,0.42,0.53,0.58
				c0.18,0.13,0.59-0.02,0.73,0.11c0.24,0.21,0.04,1.27-0.03,1.51c0.2-0.35,0.51-0.85,0.83-1.13c0.57-0.5,0.56-0.04,0.95,0.28
				c0.42,0.34,0.89,0.27,1.03,0.91c0.07,0.34,0.05,0.93-0.15,1.21c0.26-0.41,0.4-0.53,0.75-0.4c0.54,0.2,1.1,0.63,1.41,1.09
				c0.37,0.55,0.43,0.78,0.46,1.41c0.4-0.4,0.82,0.08,0.85,0.46c0.04,0.55-0.43,1.04-0.17,1.61c-0.14-0.3,0.2-0.89,0.48-0.96
				c0.51-0.13,1.09,0.57,1.47,0.8c0.79,0.48,1.54,1.26,2.48,1.45c0.47,0.09,1.01,0.46,1.5,0.44
				C272.397,258.245,271.957,258.135,271.547,257.975z"/>
			<path style="fill:#A5CE3A;" d="M275.807,258.605c-0.66-0.01-1.18-0.12-1.61-0.29c-0.69-0.17-3.95-1.49-5.39-2.79
				c-2.19-1.98-2.83-3.79-4.51-5.17c-2.19-1.8-4.73-2.01-7.42-2.81c-1.93-0.58-3.7-1.28-4.55-2.33c1.57,2.97,7.56,3.16,10.58,5.08
				c1.94,1.23,2.44,2.81,3.98,4.41c1.8,1.87,4,3.37,6.4,4.36c0.31,0,0.64,0.02,1,0.07c0.26,0.03,0.52,0.08,0.78,0.14
				c0.99,0.21,3.22,0.74,4.08,0.02C281.397,257.395,276.447,258.625,275.807,258.605z"/>
			<path style="fill:#D2DF57;" d="M275.807,258.605c-0.66-0.01-1.18-0.12-1.61-0.29c-0.69-0.17-3.95-1.49-5.39-2.79
				c-2.19-1.98-2.83-3.79-4.51-5.17c-2.19-1.8-4.73-2.01-7.42-2.81c-1.93-0.58-3.7-1.28-4.55-2.33c1.57,2.97,7.46,2.61,10.48,4.53
				c1.94,1.23,2.89,3.13,4.43,4.73c1.8,1.87,6.25,4.22,8.04,4.42c0.57,0.07,2.45-0.4,3.35-0.31c0.69,0.07,0.52,0.71,0.52,0.71
				C281.397,257.395,276.447,258.625,275.807,258.605z"/>
			<g>
				<path style="fill:#8AAE3F;" d="M260.667,252.265c0.04-0.16,0.07-0.31,0.11-0.47
					C260.747,251.915,260.707,252.075,260.667,252.265z"/>
				<path style="fill:#8AAE3F;" d="M268.577,258.375c-0.07,0.56-0.49,1.71-1.03,2.02c-0.93,0.53-2.31,0.36-2.92-0.49
					c-1.2-1.7,0.09-4.61,0.22-6.34c-1.23,1.27-0.62,5.44-2.86,5.71c-2.37,0.28-1.14-3.93-0.8-4.91c0.17-0.49,0.32-0.97,0.58-1.42
					c0.25-0.45,0.69-0.8,0.9-1.24c-0.78,0.61-1.33,1.3-1.72,2.2c-0.44,1.03-0.44,2.65-1.29,3.48c-0.86,0.84-1.76,0.02-2.11-0.82
					c-0.83,0.15-1.54-0.89-1.68-1.54c-0.23-1.03,0.45-1.96,0.56-2.95c-0.02,0.19-1.27,1.54-1.53,1.59
					c-1.14,0.22-1.59-1.56-1.25-2.28c-1.33,0.53-1.48-1.16-1.62-1.92c-0.12-0.7-0.35-0.64,0.23-1.14c0.38-0.33,0.94-0.42,1.35-0.73
					c-0.51,0.38-1.84,0.44-2.34,0.07c-0.79-0.57-0.3-1.19-0.33-1.98c-0.03-0.86-0.54-1.69,0.66-1.87c0.96-0.14,1.81,0.75,2.69,0.97
					c0.69,0.18,1.49,0.11,2.14,0.43c0.9,0.45,0.91,1.32,1.07,2.23c0.1-0.7,0.06-1.79,0.68-2.16c0.6-0.36,1.68-0.02,2.36-0.12
					c1.65-0.24,1.75,0.87,2.42,1.97c0.16-0.37-0.11-1.28,0.21-1.61c0.59-0.61,0.85,0.2,1.28,0.26c0.55,0.07,0.97-0.43,1.66-0.25
					c0.69,0.17,1.56,1.13,1.6,1.81c0.06,1.05-0.74,2.26-0.88,3.32c0.49-0.81,0.97-2.63,1.65-3.17c1.24-0.96,1.02,0.7,1.11,1.44
					c0.1-0.42,0.49-1.05,1.02-0.81c0.36,0.16,0.55,0.56,0.7,0.87c0.19,0.39,0.16,0.74,0.24,1.14c0.16,0.8-0.32,1.68-0.67,2.38
					c0.3-0.28,0.57-0.69,0.99-0.78c0.41,1.13,0.43,1.95,0.29,3.07c-0.08,0.66-0.01,1.5,0.51,1.93c-0.51-1.57-0.04-3.82-0.29-5.56
					c-0.48-3.31-3.26-5.22-6.49-5.81c-1.6-0.3-3.22-0.47-4.85-0.44c-2.8,0.05-5.06,0.09-7.76-0.78c-0.93-0.3-1.94-0.71-2.71-1.31
					c-0.21,3.23,0.16,6.4,2.19,9c2.07,2.64,3.32,5.29,6.49,6.98c1.93,1.03,4.24,2.28,6.47,2.19c1.11-0.05,2.07-0.22,3.11-0.63
					c1.26-0.49,2.16-0.97,3.23-1.18C270.657,258.815,268.287,260.575,268.577,258.375z"/>
			</g>
		</g>
	</g>
	<g>
		<g>
			<path style="fill:#EF3F24;" d="M238.157,382.115c-6.11,1.11-9.69,8.34-10.29,13.67c-0.96,8.48-0.52,18.82,5.11,25.93
				c9.89,12.48,32.08,12.29,44.38,3.42c9.87-7.12,16.48-18.5,10.93-30.29c-2.14-4.55-5.8-8.49-10.56-10.57
				c-5.49-2.39-9.71-0.96-15.35-0.24c-4.25,0.54-9.57,0.67-13.76-0.32C245.057,382.875,242.007,381.405,238.157,382.115z"/>
			<path style="opacity:0.25;fill:#FFDE11;enable-background:new    ;" d="M275.187,405.445c4.35-2.04,8.56-5.15,9.39-9.43
				c0.25-1.32,0.54-3.89,0.35-6.34c-1.96-2.28-4.39-4.17-7.21-5.4c-5.49-2.39-9.71-0.96-15.35-0.24c-4.25,0.54-9.57,0.67-13.76-0.32
				c-3.56-0.84-6.6-2.31-10.45-1.6c-3.82,0.69-6.65,3.78-8.38,7.3c-0.08,0.65-0.11,1.3-0.09,1.93c0.18,5.26,3.21,9.36,8.04,11.71
				c8.85,4.31,20.85,5.81,30.56,4.12C270.537,406.775,272.877,406.205,275.187,405.445z"/>
			<path style="opacity:0.21;fill:#FDD41E;enable-background:new    ;" d="M253.647,415.625c0.76-0.13,1.46-0.28,2.07-0.44
				c4.66-1.22,8.66-4.32,11.71-7.6c1.52-1.63,3.14-4.16,3.23-6.32c0.07-1.87,0.38-4.69-1.32-6.09c-2.57-2.13-5.83-0.46-8.36,0.61
				c-1.24,0.52-2.52,0.59-3.87,0.46c-5.09-0.49-8.79-4.78-13.72-5.62c-3.73-0.64-7.75,0.16-8.54,3.88
				c-0.8,3.77-0.41,7.73,1.15,11.33c1.44,3.34,4.44,7.78,8.2,9.42C246.617,416.315,250.587,416.145,253.647,415.625z"/>
			<path style="opacity:0.37;fill:#C82127;enable-background:new    ;" d="M288.277,394.845c-2.14-4.55-5.8-8.49-10.56-10.57
				c-5.49-2.39-9.71-0.96-15.35-0.24c-4.25,0.54-9.57,0.67-13.76-0.32c-3.56-0.84-6.6-2.31-10.45-1.6
				c-6.11,1.11-9.69,8.34-10.29,13.67c-0.96,8.48-0.52,18.82,5.11,25.93c9.89,12.48,32.08,12.29,44.38,3.42
				C287.217,418.025,293.827,406.645,288.277,394.845z M253.657,421.415c-0.22,0.02-0.44,0.03-0.66,0.05
				c-4.51,0.26-10.01,0.02-13.86-2.52c-4.6-3.03-7.12-8.07-8.11-13.23c-1.3-6.76-0.68-12.39,4.46-17.64c3.39-3.46,7.07-4,11.7-3.07
				c3.31,0.67,6.79,0.59,10.29,0.6c3.55,0.01,7.18-1.52,10.5,0.2c7.92,4.1,8.75,9.89,7.7,17.99c-0.6,4.68-3.33,9-7.17,11.9
				C264.237,418.905,259.077,420.965,253.657,421.415z"/>
			<path style="opacity:0.37;fill:#971D20;enable-background:new    ;" d="M288.277,394.845c-2.14-4.55-5.8-8.49-10.56-10.57
				c-3.64-1.58-6.71-1.49-10.01-1.04c7.42,1.44,13.68,6.62,14.88,14.31c1.4,9-2.26,19.13-10.56,23.98
				c-7.61,4.44-19.02,6.01-27.64,3.6c-6.32-1.77-12.53-6.08-15.56-11.83c0.86,3.06,2.19,5.94,4.15,8.42
				c9.89,12.48,32.08,12.29,44.38,3.42C287.217,418.025,293.827,406.645,288.277,394.845z"/>
			<path style="opacity:0.22;fill:#DF2328;enable-background:new    ;" d="M283.347,389.545c-3.08-3.27-7.43-5.37-12.66-5.26
				c2.92,0.02,5.44,2.67,7.39,4.46c2.49,2.29,4,5.56,4.5,8.81c1.4,9-2.26,19.13-10.56,23.98c-7.61,4.44-19.02,6.01-27.64,3.6
				c-4.25-1.19-8.86-3.36-11.69-6.77c-0.89-1.07-1.38-2.46-1.95-3.53c-0.12,2.49,2.6,6.15,4.39,7.81c1.63,1.51,3.73,2.58,5.67,3.68
				c5.46,3.11,11.83,3.68,18.06,3.69c3.27,0,6.77-0.74,9.77-1.95c2.39-0.97,5.52-1.72,7.52-3.31c0.37-0.3,0.75-0.6,1.11-0.91
				c1.74-1.5,3.27-3.16,4.95-4.68c2.53-3.73,4.53-8.03,5.59-12.18C289.407,400.745,287.587,394.035,283.347,389.545z"/>
			<path style="opacity:0.41;fill:#9C1D21;enable-background:new    ;" d="M244.337,427.075c2.5,1.46,5.55,2.32,8.78,2.7
				c1.72,0.15,3.46,0.21,5.19,0.22c2.45-0.08,4.89-0.39,7.16-0.9c1.09-0.29,2.16-0.64,3.17-1.05c0.99-0.4,2.11-0.77,3.22-1.17
				c12.56-6.24,18.61-22.48,11.93-34.6c0.58,1.79,0.89,3.67,0.95,5.6c0.3,9.42-2.4,18.51-10.65,24.2
				c-7.15,4.93-15.36,6.6-24.04,5.39c-3.28-0.46-6.54-1.32-9.45-2.71C241.837,425.585,243.097,426.365,244.337,427.075z"/>
			<path style="opacity:0.37;fill:#971D20;enable-background:new    ;" d="M246.937,389.245c0.13,0.26,0.33,0.54,0.62,0.86
				c1.82,1.99,5.93,2.76,8.54,2.97c3.3,0.26,6.49-0.72,9.56-1.75c0.97-0.32,6.84-2.08,3.45-3.35c-1.2-0.45-2.81-0.56-4.13-0.45
				c-1.3,0.11-2.25,0.72-3.48,0.92c-1.79,0.28-3.34-0.72-5.06-1.03c-1.87-0.34-3.79-0.33-5.69-0.33
				C248.897,387.085,246.007,387.405,246.937,389.245z"/>
			<path style="opacity:0.41;fill:#9C1D21;enable-background:new    ;" d="M258.557,390.685c-0.85,0.13-1.7,0.2-2.57-0.1
				c-1.66-0.57-5.28-2.03-6.92-0.85c-2.55,1.86,5.66,3.22,7.03,3.33c3.3,0.26,6.49-0.72,9.56-1.75c0.09-0.03,0.22-0.07,0.38-0.12
				c-0.97-0.12-1.85-0.14-2.75-0.36c-0.85-0.21-1.39-0.51-2.33-0.49C260.147,390.375,259.347,390.565,258.557,390.685z"/>
			<path style="opacity:0.26;fill:#FFE303;enable-background:new    ;" d="M235.157,393.185c0.01,0.53,0.06,1.07,0.14,1.6
				c0.3,1.92,1.13,2.21,2.25,3.7c0.99,1.3,1.41,1.87,2.94,2.65c1.32,0.67,2.39,1.67,3.82,2.14c5.69,1.87,12.85-0.97,18.52-1.74
				c2.67-0.36,6.3-0.3,8.33-2.3c1.85-1.84,3.5-5.77,0.4-7.24c-2.28-1.08-4.72,0.61-6.47,1.91c-2.95,2.21-5.2,3.32-8.99,2.34
				c-3.21-0.83-6.91-1.5-9.31-3.81c-1-0.96-1.75-2.18-2.21-3.46c-0.31-0.87-0.3-1.84-1.07-2.49c-1.57-1.31-4.23-0.52-5.64,0.58
				C235.887,388.595,235.127,390.845,235.157,393.185z"/>
			<path style="opacity:0.34;fill:#FFD994;enable-background:new    ;" d="M239.767,395.195c1.06,1.86,1.49,2.72,3.76,3.36
				c1.94,0.55,3.79,1.48,5.66,1.96c3.31,0.84,7.98-0.01,11.27-0.57c1.65-0.28,4.1-0.58,5.5-1.42c1.08-0.64,2.87-3.19,0.56-3.47
				c-1.65-0.2-2.26,1.55-3.5,2.2c-1.39,0.72-3.71,0.87-5.22,0.6c-2.41-0.43-4.98-0.86-7.36-1.47c-3.04-0.79-5.83-2.45-6.43-5.61
				c-0.33-1.74-0.72-3.11-2.8-3.48C235.027,386.215,238.497,392.955,239.767,395.195z"/>
			<path style="opacity:0.86;fill:#FEF4A2;enable-background:new    ;" d="M244.797,396.615c2.4-0.52-1.71-5.77-3.04-6.09
				C237.217,389.415,239.957,397.655,244.797,396.615z"/>
			<path style="opacity:0.86;fill:#FEF4A2;enable-background:new    ;" d="M250.437,398.415c0.57-1.47-1.15-2.3-2.44-1.59
				C245.857,397.985,249.707,400.305,250.437,398.415z"/>
			<path style="opacity:0.86;fill:#FEF4A2;enable-background:new    ;" d="M265.967,395.555c-0.26,0-0.55,0.07-0.82,0.25
				c-1.11,0.7-0.71,1.74,0.5,1.68C266.957,397.425,267.527,395.555,265.967,395.555z"/>
		</g>
		<g>
			<path style="fill:#825A23;" d="M260.747,371.495c-1.47,1.37-3.1,3.75-3.77,5.73c-1.07,3.2-1.44,6.67-1.25,10.09h-0.01
				c0.01,0.3,0.04,0.59,0.07,0.88c0,0.04,0,0.07,0.01,0.11c0.13,1.5,0.35,3,0.68,4.44c0.02,0.09,0.04,0.21,0.07,0.34
				c0.58,0.03,1.17,0.02,1.74-0.02c-0.15-0.98-0.53-2.09-0.72-2.9l0,0c-0.04-0.17-0.07-0.33-0.09-0.47
				c-0.05-0.41-0.08-0.83-0.11-1.24c-0.01-0.27-0.03-0.55-0.03-0.83l0,0c-0.04-1.47,0.08-2.94,0.32-4.4
				c0.8-4.82,2.51-9.29,7.23-11.09C265.237,368.975,261.927,370.385,260.747,371.495z"/>
			<path style="fill:#6C451A;" d="M263.707,371.405c-0.55,0.29-1.07,0.65-1.58,1.03c-1.94,1.77-3.66,4.16-4.69,8.21
				c-1.06,4.13-0.85,7.92,0.33,12.45c0.17,0,0.34-0.01,0.51-0.02c-0.15-0.98-0.53-2.09-0.72-2.9l0,0c-0.04-0.17-0.07-0.33-0.09-0.47
				c-0.05-0.41-0.08-0.83-0.11-1.24c-0.01-0.27-0.03-0.55-0.03-0.83c-0.04-1.47,0.08-2.94,0.32-4.4c0.8-4.82,2.51-9.29,7.23-11.09
				c0.06-0.53,0-0.92-0.12-1.21C264.407,371.075,264.047,371.215,263.707,371.405z"/>
			<path style="fill:#A06C29;" d="M263.437,371.175c0.38,0.78,1.2,1.06,1.45,0.96c0.17-1.54-0.52-1.99-1.41-1.93
				C263.247,370.225,263.287,370.895,263.437,371.175z"/>
			<path style="fill:#C98F49;" d="M263.437,371.175c0.38,0.78,1.2,1.06,1.45,0.96c0,0-0.97-0.36-1.11-1.04
				c-0.14-0.66,0.12-0.88,0.12-0.88c-0.13-0.02-0.27-0.02-0.42-0.02C263.247,370.225,263.287,370.895,263.437,371.175z"/>
		</g>
		<g>
			<path style="fill:#97C13D;" d="M257.447,371.175c0.26,0.03,0.52,0.08,0.78,0.14c0.99,0.21,3.22,0.74,4.08,0.02
				c2.25-1.89-2.7-0.67-3.34-0.68c-4.63-0.08-2.95-4.51-3.38-7.46c-0.48-3.31-3.26-5.22-6.49-5.81c-1.6-0.3-3.22-0.47-4.85-0.44
				c-2.8,0.05-5.06,0.09-7.76-0.78c-0.93-0.3-1.94-0.71-2.71-1.31c-0.21,3.23,0.16,6.4,2.19,9c2.07,2.64,3.32,5.29,6.49,6.98
				c1.93,1.03,4.24,2.28,6.47,2.19c1.11-0.05,2.07-0.22,3.11-0.63C254.027,371.615,255.127,370.855,257.447,371.175z"/>
			<path style="opacity:0.46;fill:#A5CE3A;enable-background:new    ;" d="M236.787,359.115c0.32,0.21,0.87,0.79,0.8,1.04
				c-0.14,0.46-1.15,0.53-0.94,1.32c0.27,1,1.14-0.1,1.81,0.01c0.17,0.72-1.9,2.8-0.7,3.27c0.49,0.19,1-0.42,1.19-0.76
				c0.34-0.62,0.15-0.97,0.87-1.22c0.95-0.34,1.47-0.33,1.5,0.67c0.02,0.54,0.08,1.58-0.13,2.08c-0.27,0.63-0.91,0.67-0.81,1.45
				c0.07,0.55,0.64,1.16,1.25,1.16c0.17,0.93,1.07,0.01,1.26-0.41c0.2-0.44,0.12-1.05,0.39-1.45c0.15-0.22,0.43-0.28,0.56-0.45
				c0.4-0.58,0.22-1.36,0.89-1.82c0.62-0.42,1.4-0.32,1.27,0.54c-0.1,0.65-0.77,1.32-0.95,2.04c-0.13,0.49-1.02,1.98-0.72,2.46
				c0.74,1.17,1.96-1.97,2.44-2.28c-0.01,0.14,0.04,0.3,0.03,0.44c0.59-0.25,0.47-1.51,1.33-1.52c0.77-0.01,0.69,0.9,0.63,1.47
				c-0.09,1-1.03,3.19,0,3.95c0.81,0.59,0.87-0.33,1.32-0.63c0.59-0.38,1.13,0.03,1.62,0.15c0.91,0.23,2.7,0.04,3.62-0.22
				c-0.22-0.17-0.48-0.38-0.65-0.67c-0.33-0.59-0.04-0.48,0.1-0.93c0.22-0.74,0.29-1.77,0.3-2.56c-0.75-0.05-1.04,1.15-1.81,0.98
				c-1.04-0.23-0.08-2.48,0.06-3.13c0.12-0.59,0.31-2.47-0.68-2.69c-0.56-0.12-0.78,0.76-1.18,1.11c-0.75,0.65-2.74,2.66-2.79,0.51
				c-0.02-0.66,0.36-1.19,0.46-1.83c0.16-1.06-0.13-0.77-0.85-1.07c-0.7-0.29-0.95-1.16-1.82-0.61c-0.67,0.42-0.75,0.95-1.6,0.16
				c-0.6-0.57-0.9-1.25-1.88-1.15c-0.72,0.07-0.77,0.66-1.36,0.9c-1.59,0.63-2.03-1.09-2.98-1.66c-0.58-0.36-1.42-0.25-2.06-0.38
				c-0.58-0.11-0.87-0.5-1.33-0.76c0.23,0.13-0.38,1.67-0.26,1.91C235.167,358.915,236.367,358.835,236.787,359.115z"/>
			<path style="fill:#8AAE3F;" d="M254.717,370.025c-0.16-0.06-0.31-0.13-0.45-0.22c-0.44-0.3-0.88-0.71-1.31-1.05
				c-0.97-0.78-1.78-1.72-2.55-2.67c-1.45-1.77-3-4.14-5.27-5.03c-0.41-0.16-0.84-0.3-1.25-0.45c-2.72-0.67-6.44-0.89-8.19-3.22
				c0.54,1.12,1.45,1.99,2.67,2.54c0.65,0.29,1.99,0.07,1.63,1.16c0.49-0.74,2.1-0.13,2.72,0.21c0.3,0.16,0.31,0.42,0.53,0.58
				c0.18,0.13,0.59-0.02,0.73,0.11c0.24,0.21,0.04,1.27-0.03,1.51c0.2-0.35,0.51-0.85,0.83-1.13c0.57-0.5,0.56-0.04,0.95,0.28
				c0.42,0.34,0.89,0.27,1.03,0.91c0.07,0.34,0.05,0.93-0.15,1.21c0.26-0.41,0.4-0.53,0.75-0.4c0.54,0.2,1.1,0.63,1.41,1.09
				c0.37,0.55,0.43,0.78,0.46,1.41c0.4-0.4,0.82,0.08,0.85,0.46c0.04,0.55-0.43,1.04-0.17,1.61c-0.14-0.3,0.2-0.89,0.48-0.96
				c0.51-0.13,1.09,0.57,1.47,0.8c0.79,0.48,1.54,1.26,2.48,1.45c0.47,0.09,1.01,0.46,1.5,0.44
				C255.567,370.285,255.127,370.185,254.717,370.025z"/>
			<path style="fill:#A5CE3A;" d="M258.977,370.655c-0.66-0.01-1.18-0.12-1.61-0.29c-0.69-0.17-3.95-1.49-5.39-2.79
				c-2.19-1.98-2.83-3.79-4.51-5.17c-2.19-1.8-4.73-2.01-7.42-2.81c-1.93-0.58-3.7-1.28-4.55-2.33c1.57,2.97,7.56,3.16,10.58,5.08
				c1.94,1.23,2.44,2.81,3.98,4.41c1.8,1.87,4,3.37,6.4,4.36c0.31,0,0.64,0.02,1,0.07c0.26,0.03,0.52,0.08,0.78,0.14
				c0.99,0.21,3.22,0.74,4.08,0.02C264.567,369.445,259.617,370.665,258.977,370.655z"/>
			<path style="fill:#D2DF57;" d="M258.977,370.655c-0.66-0.01-1.18-0.12-1.61-0.29c-0.69-0.17-3.95-1.49-5.39-2.79
				c-2.19-1.98-2.83-3.79-4.51-5.17c-2.19-1.8-4.73-2.01-7.42-2.81c-1.93-0.58-3.7-1.28-4.55-2.33c1.57,2.97,7.46,2.61,10.48,4.53
				c1.94,1.23,2.89,3.13,4.43,4.73c1.8,1.87,6.25,4.22,8.04,4.42c0.57,0.07,2.45-0.4,3.35-0.31c0.69,0.07,0.52,0.71,0.52,0.71
				C264.567,369.445,259.617,370.665,258.977,370.655z"/>
			<g>
				<path style="fill:#8AAE3F;" d="M243.837,364.305c0.04-0.16,0.07-0.31,0.11-0.47
					C243.917,363.955,243.877,364.125,243.837,364.305z"/>
				<path style="fill:#8AAE3F;" d="M251.747,370.425c-0.07,0.56-0.49,1.71-1.03,2.02c-0.93,0.53-2.31,0.36-2.92-0.49
					c-1.2-1.7,0.09-4.61,0.22-6.34c-1.23,1.27-0.62,5.44-2.86,5.71c-2.37,0.28-1.14-3.93-0.8-4.91c0.17-0.49,0.32-0.97,0.58-1.42
					c0.25-0.45,0.69-0.8,0.9-1.24c-0.78,0.61-1.33,1.3-1.72,2.2c-0.44,1.03-0.44,2.65-1.29,3.48c-0.86,0.84-1.76,0.02-2.11-0.82
					c-0.83,0.15-1.54-0.89-1.68-1.54c-0.23-1.03,0.45-1.96,0.56-2.95c-0.02,0.19-1.27,1.54-1.53,1.59
					c-1.14,0.22-1.59-1.56-1.25-2.28c-1.33,0.53-1.48-1.16-1.62-1.92c-0.12-0.7-0.35-0.64,0.23-1.14c0.38-0.33,0.94-0.42,1.35-0.73
					c-0.51,0.38-1.84,0.44-2.34,0.07c-0.79-0.57-0.3-1.19-0.33-1.98c-0.03-0.86-0.54-1.69,0.66-1.87c0.96-0.14,1.81,0.75,2.69,0.97
					c0.69,0.18,1.49,0.11,2.14,0.43c0.9,0.45,0.91,1.32,1.07,2.23c0.1-0.7,0.06-1.79,0.68-2.16c0.6-0.36,1.68-0.02,2.36-0.12
					c1.65-0.24,1.75,0.87,2.42,1.97c0.16-0.37-0.11-1.28,0.21-1.61c0.59-0.61,0.85,0.2,1.28,0.26c0.55,0.07,0.97-0.43,1.66-0.25
					c0.69,0.17,1.56,1.13,1.6,1.81c0.06,1.05-0.74,2.26-0.88,3.32c0.49-0.81,0.97-2.63,1.65-3.17c1.24-0.96,1.02,0.7,1.11,1.44
					c0.1-0.42,0.49-1.05,1.02-0.81c0.36,0.16,0.55,0.56,0.7,0.87c0.19,0.39,0.16,0.74,0.24,1.14c0.16,0.8-0.32,1.68-0.67,2.38
					c0.3-0.28,0.57-0.69,0.99-0.78c0.41,1.13,0.43,1.95,0.29,3.07c-0.08,0.66-0.01,1.5,0.51,1.93c-0.51-1.57-0.04-3.82-0.29-5.56
					c-0.48-3.31-3.26-5.22-6.49-5.81c-1.6-0.3-3.22-0.47-4.85-0.44c-2.8,0.05-5.06,0.09-7.76-0.78c-0.93-0.3-1.94-0.71-2.71-1.31
					c-0.21,3.23,0.16,6.4,2.19,9c2.07,2.64,3.32,5.29,6.49,6.98c1.93,1.03,4.24,2.28,6.47,2.19c1.11-0.05,2.07-0.22,3.11-0.63
					c1.26-0.49,2.16-0.97,3.23-1.18C253.837,370.865,251.457,372.625,251.747,370.425z"/>
			</g>
		</g>
	</g>
	<g>
		<g>
			<path style="fill:#EF3F24;" d="M193.137,432.905c-6.11,1.11-9.69,8.34-10.29,13.67c-0.96,8.48-0.52,18.82,5.11,25.93
				c9.89,12.48,32.08,12.29,44.38,3.42c9.87-7.12,16.48-18.5,10.93-30.29c-2.14-4.55-5.79-8.49-10.56-10.57
				c-5.49-2.39-9.71-0.96-15.35-0.24c-4.25,0.54-9.57,0.67-13.76-0.32C200.027,433.665,196.987,432.205,193.137,432.905z"/>
			<path style="opacity:0.25;fill:#FFDE11;enable-background:new    ;" d="M230.157,456.235c4.35-2.04,8.56-5.15,9.39-9.43
				c0.25-1.32,0.54-3.89,0.35-6.34c-1.96-2.28-4.39-4.17-7.21-5.4c-5.49-2.39-9.71-0.96-15.35-0.24c-4.25,0.54-9.57,0.67-13.76-0.32
				c-3.56-0.84-6.6-2.31-10.45-1.6c-3.82,0.69-6.65,3.78-8.38,7.3c-0.08,0.65-0.11,1.3-0.09,1.93c0.18,5.26,3.21,9.36,8.04,11.71
				c8.85,4.31,20.85,5.81,30.56,4.12C225.517,457.565,227.857,457.005,230.157,456.235z"/>
			<path style="opacity:0.21;fill:#FDD41E;enable-background:new    ;" d="M208.617,466.415c0.76-0.13,1.46-0.28,2.07-0.44
				c4.66-1.22,8.66-4.32,11.71-7.6c1.52-1.63,3.14-4.16,3.23-6.32c0.07-1.87,0.38-4.69-1.32-6.09c-2.57-2.13-5.83-0.46-8.36,0.61
				c-1.24,0.52-2.52,0.59-3.87,0.46c-5.09-0.49-8.79-4.78-13.72-5.62c-3.73-0.64-7.75,0.16-8.54,3.88
				c-0.8,3.77-0.41,7.73,1.15,11.33c1.44,3.34,4.44,7.78,8.2,9.42C201.597,467.115,205.567,466.945,208.617,466.415z"/>
			<path style="opacity:0.37;fill:#C82127;enable-background:new    ;" d="M243.257,445.645c-2.14-4.55-5.79-8.49-10.56-10.57
				c-5.49-2.39-9.71-0.96-15.35-0.24c-4.25,0.54-9.57,0.67-13.76-0.32c-3.56-0.84-6.6-2.31-10.45-1.6
				c-6.11,1.11-9.69,8.34-10.29,13.67c-0.96,8.48-0.52,18.82,5.11,25.93c9.89,12.48,32.08,12.29,44.38,3.42
				C242.197,468.825,248.807,457.435,243.257,445.645z M208.637,472.205c-0.22,0.02-0.44,0.03-0.66,0.05
				c-4.51,0.26-10.01,0.02-13.86-2.52c-4.6-3.03-7.12-8.07-8.11-13.23c-1.3-6.76-0.68-12.39,4.46-17.64c3.39-3.46,7.07-4,11.7-3.07
				c3.31,0.67,6.79,0.59,10.29,0.6c3.55,0.01,7.18-1.52,10.5,0.2c7.92,4.1,8.75,9.89,7.7,17.99c-0.6,4.68-3.33,9-7.17,11.9
				C219.207,469.705,214.057,471.755,208.637,472.205z"/>
			<path style="opacity:0.37;fill:#971D20;enable-background:new    ;" d="M243.257,445.645c-2.14-4.55-5.79-8.49-10.56-10.57
				c-3.64-1.58-6.71-1.49-10.01-1.04c7.42,1.44,13.68,6.62,14.88,14.31c1.4,9-2.26,19.13-10.56,23.98
				c-7.61,4.44-19.02,6.01-27.64,3.6c-6.32-1.77-12.53-6.08-15.56-11.83c0.86,3.06,2.19,5.94,4.15,8.42
				c9.89,12.48,32.08,12.29,44.38,3.42C242.197,468.825,248.807,457.435,243.257,445.645z"/>
			<path style="opacity:0.22;fill:#DF2328;enable-background:new    ;" d="M238.327,440.335c-3.08-3.27-7.43-5.37-12.66-5.26
				c2.92,0.02,5.44,2.67,7.39,4.46c2.49,2.29,4,5.56,4.5,8.81c1.4,9-2.26,19.13-10.56,23.98c-7.61,4.44-19.02,6.01-27.64,3.6
				c-4.25-1.19-8.86-3.36-11.69-6.77c-0.89-1.07-1.38-2.46-1.95-3.53c-0.12,2.49,2.6,6.15,4.39,7.81c1.63,1.51,3.73,2.58,5.67,3.68
				c5.46,3.11,11.83,3.68,18.06,3.69c3.27,0,6.77-0.74,9.77-1.95c2.39-0.97,5.52-1.72,7.52-3.31c0.37-0.3,0.74-0.6,1.11-0.91
				c1.74-1.5,3.27-3.16,4.95-4.68c2.53-3.73,4.53-8.03,5.59-12.18C244.387,451.545,242.567,444.835,238.327,440.335z"/>
			<path style="opacity:0.41;fill:#9C1D21;enable-background:new    ;" d="M199.317,477.875c2.5,1.46,5.55,2.32,8.78,2.7
				c1.72,0.15,3.46,0.21,5.19,0.22c2.45-0.08,4.89-0.39,7.16-0.9c1.09-0.29,2.16-0.64,3.17-1.05c0.99-0.4,2.11-0.77,3.22-1.17
				c12.56-6.24,18.61-22.48,11.93-34.6c0.58,1.79,0.89,3.67,0.95,5.6c0.29,9.42-2.4,18.51-10.65,24.2
				c-7.15,4.93-15.36,6.6-24.04,5.39c-3.28-0.46-6.54-1.32-9.45-2.71C196.817,476.385,198.077,477.155,199.317,477.875z"/>
			<path style="opacity:0.37;fill:#971D20;enable-background:new    ;" d="M201.917,440.045c0.13,0.26,0.33,0.54,0.62,0.86
				c1.82,1.99,5.93,2.76,8.54,2.97c3.3,0.26,6.49-0.72,9.56-1.75c0.97-0.32,6.84-2.08,3.45-3.35c-1.2-0.45-2.81-0.56-4.13-0.45
				c-1.3,0.11-2.25,0.72-3.48,0.92c-1.79,0.28-3.34-0.72-5.06-1.03c-1.87-0.34-3.79-0.33-5.69-0.33
				C203.877,437.875,200.987,438.205,201.917,440.045z"/>
			<path style="opacity:0.41;fill:#9C1D21;enable-background:new    ;" d="M213.537,441.485c-0.85,0.13-1.7,0.2-2.57-0.1
				c-1.66-0.57-5.28-2.03-6.92-0.85c-2.55,1.86,5.66,3.22,7.03,3.33c3.3,0.26,6.49-0.72,9.56-1.75c0.09-0.03,0.22-0.07,0.38-0.12
				c-0.97-0.12-1.85-0.14-2.75-0.36c-0.85-0.21-1.39-0.51-2.33-0.49C215.127,441.165,214.327,441.355,213.537,441.485z"/>
			<path style="opacity:0.26;fill:#FFE303;enable-background:new    ;" d="M190.137,443.975c0.01,0.53,0.06,1.07,0.14,1.6
				c0.3,1.92,1.13,2.21,2.25,3.7c0.99,1.3,1.41,1.87,2.94,2.65c1.32,0.67,2.39,1.67,3.82,2.14c5.69,1.87,12.85-0.97,18.52-1.74
				c2.67-0.36,6.3-0.3,8.33-2.3c1.85-1.84,3.51-5.77,0.4-7.24c-2.28-1.08-4.72,0.61-6.47,1.91c-2.95,2.21-5.2,3.32-8.99,2.34
				c-3.21-0.83-6.91-1.5-9.31-3.81c-1-0.96-1.75-2.18-2.21-3.46c-0.31-0.87-0.3-1.84-1.07-2.49c-1.57-1.31-4.23-0.52-5.64,0.58
				C190.867,439.395,190.107,441.645,190.137,443.975z"/>
			<path style="opacity:0.34;fill:#FFD994;enable-background:new    ;" d="M194.747,445.995c1.06,1.86,1.49,2.72,3.76,3.36
				c1.94,0.55,3.79,1.48,5.66,1.96c3.31,0.84,7.98-0.01,11.27-0.57c1.65-0.28,4.1-0.58,5.5-1.42c1.08-0.64,2.87-3.19,0.56-3.47
				c-1.65-0.2-2.26,1.55-3.5,2.2c-1.39,0.72-3.71,0.87-5.22,0.6c-2.41-0.43-4.98-0.86-7.36-1.47c-3.04-0.79-5.83-2.45-6.43-5.61
				c-0.33-1.74-0.72-3.11-2.8-3.48C190.007,437.005,193.477,443.755,194.747,445.995z"/>
			<path style="opacity:0.86;fill:#FEF4A2;enable-background:new    ;" d="M199.777,447.415c2.4-0.52-1.71-5.77-3.04-6.09
				C192.197,440.205,194.937,448.455,199.777,447.415z"/>
			<path style="opacity:0.86;fill:#FEF4A2;enable-background:new    ;" d="M205.417,449.205c0.57-1.47-1.15-2.3-2.44-1.59
				C200.837,448.785,204.687,451.105,205.417,449.205z"/>
			<path style="opacity:0.86;fill:#FEF4A2;enable-background:new    ;" d="M220.947,446.345c-0.26,0-0.55,0.07-0.82,0.25
				c-1.11,0.7-0.71,1.74,0.5,1.68C221.937,448.215,222.507,446.355,220.947,446.345z"/>
		</g>
		<g>
			<path style="fill:#825A23;" d="M215.717,422.295c-1.47,1.37-3.1,3.75-3.77,5.73c-1.07,3.2-1.44,6.67-1.25,10.09h-0.01
				c0.01,0.3,0.04,0.59,0.07,0.88c0,0.04,0,0.07,0.01,0.11c0.13,1.5,0.35,3,0.68,4.44c0.02,0.09,0.04,0.21,0.07,0.34
				c0.58,0.03,1.17,0.02,1.74-0.02c-0.15-0.98-0.53-2.09-0.72-2.9l0,0c-0.04-0.17-0.07-0.33-0.09-0.47
				c-0.05-0.41-0.08-0.83-0.11-1.24c-0.01-0.27-0.03-0.55-0.03-0.83l0,0c-0.04-1.47,0.08-2.94,0.32-4.4
				c0.8-4.82,2.51-9.29,7.23-11.09C220.217,419.775,216.907,421.175,215.717,422.295z"/>
			<path style="fill:#6C451A;" d="M218.677,422.205c-0.55,0.29-1.07,0.65-1.58,1.03c-1.94,1.77-3.66,4.16-4.69,8.21
				c-1.06,4.13-0.85,7.92,0.33,12.45c0.17,0,0.34-0.01,0.51-0.02c-0.15-0.98-0.53-2.09-0.72-2.9l0,0c-0.04-0.17-0.07-0.33-0.09-0.47
				c-0.05-0.41-0.08-0.83-0.11-1.24c-0.01-0.27-0.03-0.55-0.03-0.83c-0.04-1.47,0.08-2.94,0.32-4.4c0.8-4.82,2.51-9.29,7.23-11.09
				c0.06-0.53,0-0.92-0.12-1.21C219.387,421.865,219.027,422.015,218.677,422.205z"/>
			<path style="fill:#A06C29;" d="M218.407,421.975c0.38,0.78,1.2,1.06,1.45,0.96c0.17-1.54-0.52-1.99-1.41-1.93
				C218.227,421.025,218.267,421.695,218.407,421.975z"/>
			<path style="fill:#C98F49;" d="M218.407,421.975c0.38,0.78,1.2,1.06,1.45,0.96c0,0-0.97-0.36-1.11-1.04
				c-0.14-0.66,0.12-0.88,0.12-0.88c-0.13-0.02-0.27-0.02-0.42-0.01C218.227,421.025,218.267,421.695,218.407,421.975z"/>
		</g>
		<g>
			<path style="fill:#97C13D;" d="M212.427,421.975c0.26,0.03,0.52,0.08,0.78,0.14c0.99,0.21,3.22,0.74,4.08,0.02
				c2.25-1.89-2.7-0.67-3.34-0.68c-4.63-0.08-2.95-4.51-3.38-7.46c-0.48-3.31-3.26-5.22-6.49-5.81c-1.6-0.3-3.22-0.47-4.85-0.44
				c-2.8,0.05-5.06,0.09-7.76-0.78c-0.93-0.3-1.94-0.71-2.71-1.31c-0.21,3.23,0.16,6.4,2.19,9c2.07,2.64,3.32,5.29,6.49,6.98
				c1.93,1.03,4.24,2.28,6.47,2.19c1.11-0.05,2.07-0.22,3.11-0.63C209.007,422.415,210.107,421.655,212.427,421.975z"/>
			<path style="opacity:0.46;fill:#A5CE3A;enable-background:new    ;" d="M191.767,409.915c0.32,0.22,0.87,0.79,0.8,1.04
				c-0.14,0.46-1.15,0.53-0.94,1.32c0.27,1,1.14-0.1,1.81,0.01c0.17,0.72-1.9,2.8-0.7,3.27c0.49,0.19,1-0.42,1.19-0.76
				c0.34-0.62,0.15-0.97,0.87-1.22c0.95-0.34,1.47-0.33,1.5,0.67c0.02,0.54,0.08,1.58-0.13,2.08c-0.27,0.63-0.91,0.67-0.81,1.45
				c0.07,0.55,0.64,1.16,1.25,1.16c0.17,0.93,1.07,0.01,1.26-0.41c0.2-0.44,0.12-1.05,0.39-1.45c0.15-0.22,0.43-0.28,0.56-0.45
				c0.4-0.58,0.22-1.36,0.89-1.82c0.62-0.41,1.4-0.32,1.27,0.54c-0.1,0.65-0.77,1.32-0.95,2.04c-0.13,0.49-1.02,1.98-0.72,2.46
				c0.74,1.17,1.96-1.97,2.44-2.28c-0.01,0.14,0.04,0.3,0.03,0.44c0.59-0.25,0.47-1.51,1.33-1.52c0.77-0.01,0.69,0.9,0.63,1.47
				c-0.09,1-1.03,3.19,0,3.95c0.81,0.59,0.87-0.33,1.32-0.63c0.59-0.38,1.13,0.03,1.62,0.15c0.91,0.23,2.7,0.04,3.62-0.22
				c-0.22-0.17-0.48-0.38-0.65-0.67c-0.33-0.59-0.04-0.48,0.1-0.93c0.22-0.74,0.29-1.77,0.3-2.56c-0.75-0.05-1.04,1.15-1.81,0.98
				c-1.04-0.23-0.08-2.48,0.06-3.13c0.12-0.59,0.31-2.47-0.68-2.69c-0.56-0.12-0.78,0.76-1.18,1.11c-0.75,0.65-2.74,2.66-2.79,0.51
				c-0.02-0.66,0.36-1.19,0.46-1.83c0.16-1.06-0.13-0.77-0.85-1.07c-0.7-0.29-0.95-1.16-1.82-0.61c-0.67,0.42-0.75,0.95-1.6,0.16
				c-0.6-0.57-0.9-1.25-1.88-1.15c-0.72,0.07-0.77,0.66-1.36,0.9c-1.59,0.63-2.03-1.09-2.98-1.66c-0.58-0.36-1.42-0.25-2.06-0.38
				c-0.58-0.11-0.87-0.5-1.33-0.76c0.23,0.13-0.38,1.67-0.26,1.91C190.147,409.705,191.347,409.625,191.767,409.915z"/>
			<path style="fill:#8AAE3F;" d="M209.697,420.825c-0.16-0.06-0.31-0.13-0.45-0.22c-0.44-0.3-0.88-0.71-1.31-1.05
				c-0.97-0.78-1.78-1.72-2.55-2.67c-1.45-1.77-3-4.14-5.27-5.03c-0.41-0.16-0.84-0.3-1.25-0.45c-2.72-0.67-6.44-0.89-8.19-3.22
				c0.54,1.12,1.45,1.99,2.67,2.54c0.65,0.29,1.99,0.07,1.63,1.16c0.49-0.74,2.1-0.13,2.72,0.21c0.3,0.16,0.31,0.42,0.53,0.58
				c0.18,0.13,0.59-0.02,0.73,0.11c0.24,0.21,0.04,1.27-0.03,1.51c0.2-0.35,0.51-0.85,0.83-1.13c0.57-0.5,0.56-0.04,0.95,0.28
				c0.42,0.34,0.89,0.27,1.03,0.91c0.07,0.34,0.05,0.93-0.15,1.21c0.27-0.41,0.4-0.53,0.75-0.4c0.54,0.2,1.1,0.63,1.41,1.09
				c0.37,0.55,0.43,0.78,0.46,1.41c0.4-0.4,0.82,0.08,0.85,0.46c0.04,0.55-0.43,1.04-0.17,1.61c-0.14-0.3,0.2-0.89,0.48-0.96
				c0.51-0.13,1.09,0.57,1.47,0.8c0.79,0.48,1.54,1.26,2.48,1.45c0.47,0.09,1.01,0.46,1.5,0.44
				C210.547,421.085,210.107,420.985,209.697,420.825z"/>
			<path style="fill:#A5CE3A;" d="M213.957,421.455c-0.66-0.01-1.18-0.12-1.61-0.29c-0.69-0.17-3.95-1.49-5.39-2.79
				c-2.19-1.98-2.83-3.79-4.51-5.17c-2.19-1.8-4.73-2.01-7.42-2.81c-1.93-0.58-3.7-1.28-4.55-2.33c1.57,2.97,7.56,3.16,10.58,5.08
				c1.94,1.23,2.44,2.81,3.98,4.41c1.8,1.87,4,3.37,6.4,4.36c0.31,0,0.64,0.02,1,0.07c0.26,0.03,0.52,0.08,0.78,0.14
				c0.99,0.21,3.22,0.74,4.08,0.02C219.547,420.235,214.597,421.465,213.957,421.455z"/>
			<path style="fill:#D2DF57;" d="M213.957,421.455c-0.66-0.01-1.18-0.12-1.61-0.29c-0.69-0.17-3.95-1.49-5.39-2.79
				c-2.19-1.98-2.83-3.79-4.51-5.17c-2.19-1.8-4.73-2.01-7.42-2.81c-1.93-0.58-3.7-1.28-4.55-2.33c1.57,2.97,7.46,2.61,10.48,4.53
				c1.94,1.23,2.89,3.13,4.43,4.73c1.8,1.87,6.25,4.22,8.04,4.42c0.57,0.07,2.45-0.4,3.35-0.31c0.69,0.07,0.52,0.71,0.52,0.71
				C219.547,420.235,214.597,421.465,213.957,421.455z"/>
			<g>
				<path style="fill:#8AAE3F;" d="M198.817,415.105c0.04-0.16,0.07-0.31,0.11-0.47
					C198.897,414.755,198.857,414.925,198.817,415.105z"/>
				<path style="fill:#8AAE3F;" d="M206.727,421.215c-0.07,0.56-0.49,1.71-1.03,2.02c-0.93,0.53-2.31,0.36-2.92-0.49
					c-1.2-1.7,0.09-4.61,0.22-6.34c-1.23,1.27-0.62,5.44-2.86,5.71c-2.37,0.28-1.14-3.93-0.8-4.91c0.17-0.49,0.32-0.97,0.58-1.42
					c0.25-0.45,0.69-0.8,0.9-1.24c-0.78,0.61-1.33,1.3-1.72,2.2c-0.44,1.03-0.44,2.65-1.29,3.48c-0.86,0.84-1.76,0.02-2.11-0.82
					c-0.83,0.15-1.54-0.89-1.68-1.54c-0.23-1.03,0.45-1.96,0.56-2.95c-0.02,0.19-1.27,1.54-1.53,1.59
					c-1.14,0.22-1.59-1.56-1.25-2.28c-1.33,0.53-1.48-1.16-1.62-1.92c-0.12-0.7-0.35-0.64,0.23-1.14c0.38-0.33,0.94-0.42,1.35-0.73
					c-0.51,0.38-1.84,0.44-2.34,0.07c-0.79-0.57-0.3-1.19-0.33-1.98c-0.03-0.86-0.54-1.69,0.66-1.87c0.96-0.14,1.81,0.75,2.69,0.97
					c0.69,0.18,1.49,0.11,2.14,0.43c0.9,0.45,0.91,1.32,1.07,2.23c0.1-0.7,0.06-1.79,0.68-2.16c0.6-0.36,1.68-0.02,2.36-0.12
					c1.65-0.24,1.75,0.87,2.42,1.97c0.16-0.37-0.11-1.28,0.21-1.61c0.59-0.61,0.85,0.2,1.28,0.26c0.55,0.07,0.97-0.43,1.66-0.25
					c0.69,0.17,1.56,1.13,1.6,1.81c0.06,1.05-0.74,2.26-0.88,3.32c0.49-0.81,0.97-2.63,1.65-3.17c1.24-0.96,1.02,0.7,1.11,1.44
					c0.1-0.42,0.49-1.05,1.02-0.81c0.36,0.16,0.55,0.56,0.7,0.87c0.19,0.39,0.16,0.74,0.24,1.14c0.16,0.8-0.32,1.68-0.67,2.38
					c0.3-0.28,0.57-0.69,0.99-0.78c0.41,1.13,0.43,1.95,0.29,3.07c-0.08,0.66-0.01,1.5,0.51,1.93c-0.51-1.57-0.04-3.82-0.29-5.56
					c-0.48-3.31-3.26-5.22-6.49-5.81c-1.6-0.3-3.22-0.47-4.85-0.44c-2.8,0.05-5.06,0.09-7.76-0.78c-0.93-0.3-1.94-0.71-2.71-1.31
					c-0.21,3.23,0.16,6.4,2.19,9c2.07,2.64,3.32,5.29,6.49,6.98c1.93,1.03,4.24,2.28,6.47,2.19c1.11-0.05,2.07-0.22,3.11-0.63
					c1.26-0.49,2.16-0.97,3.23-1.18C208.807,421.655,206.437,423.425,206.727,421.215z"/>
			</g>
		</g>
	</g>
	<g>
		<g>
			<path style="fill:#EF3F24;" d="M309.967,316.775c-6.11,1.11-9.69,8.34-10.29,13.67c-0.96,8.48-0.52,18.82,5.11,25.93
				c9.89,12.48,32.08,12.29,44.38,3.42c9.87-7.12,16.48-18.5,10.93-30.29c-2.14-4.55-5.8-8.49-10.56-10.57
				c-5.49-2.39-9.71-0.96-15.35-0.24c-4.25,0.54-9.57,0.67-13.76-0.32C316.867,317.535,313.827,316.075,309.967,316.775z"/>
			<path style="opacity:0.25;fill:#FFDE11;enable-background:new    ;" d="M346.997,340.105c4.35-2.04,8.56-5.15,9.39-9.43
				c0.25-1.32,0.54-3.89,0.35-6.34c-1.96-2.28-4.39-4.17-7.21-5.4c-5.49-2.39-9.71-0.96-15.35-0.24c-4.25,0.54-9.57,0.67-13.76-0.32
				c-3.56-0.84-6.6-2.31-10.45-1.6c-3.82,0.69-6.65,3.78-8.38,7.3c-0.08,0.65-0.11,1.3-0.09,1.93c0.18,5.26,3.21,9.36,8.04,11.71
				c8.85,4.31,20.85,5.81,30.56,4.12C342.347,341.435,344.697,340.875,346.997,340.105z"/>
			<path style="opacity:0.21;fill:#FDD41E;enable-background:new    ;" d="M325.457,350.285c0.76-0.13,1.46-0.28,2.07-0.44
				c4.66-1.22,8.66-4.32,11.71-7.6c1.52-1.63,3.14-4.16,3.23-6.32c0.07-1.87,0.38-4.69-1.32-6.09c-2.57-2.13-5.83-0.46-8.36,0.61
				c-1.24,0.52-2.52,0.59-3.87,0.46c-5.09-0.49-8.79-4.78-13.72-5.62c-3.73-0.64-7.75,0.16-8.54,3.88
				c-0.8,3.77-0.41,7.73,1.15,11.33c1.44,3.34,4.44,7.78,8.2,9.42C318.437,350.985,322.407,350.815,325.457,350.285z"/>
			<path style="opacity:0.37;fill:#C82127;enable-background:new    ;" d="M360.087,329.515c-2.14-4.55-5.8-8.49-10.56-10.57
				c-5.49-2.39-9.71-0.96-15.35-0.24c-4.25,0.54-9.57,0.67-13.76-0.32c-3.56-0.84-6.6-2.31-10.45-1.6
				c-6.11,1.11-9.69,8.34-10.29,13.67c-0.96,8.48-0.52,18.82,5.11,25.93c9.89,12.48,32.08,12.29,44.38,3.42
				C359.037,352.695,365.647,341.305,360.087,329.515z M325.477,356.075c-0.22,0.02-0.44,0.03-0.65,0.05
				c-4.51,0.26-10.01,0.02-13.86-2.52c-4.6-3.03-7.12-8.07-8.11-13.23c-1.3-6.76-0.68-12.39,4.46-17.64c3.39-3.46,7.07-4,11.7-3.07
				c3.31,0.67,6.79,0.59,10.29,0.6c3.55,0.01,7.18-1.52,10.5,0.2c7.92,4.1,8.75,9.89,7.7,17.99c-0.6,4.68-3.33,9-7.17,11.9
				C336.047,353.575,330.897,355.625,325.477,356.075z"/>
			<path style="opacity:0.37;fill:#971D20;enable-background:new    ;" d="M360.087,329.515c-2.14-4.55-5.8-8.49-10.56-10.57
				c-3.64-1.58-6.71-1.49-10.01-1.04c7.42,1.44,13.68,6.62,14.88,14.31c1.4,9-2.26,19.13-10.56,23.98
				c-7.61,4.44-19.02,6.01-27.64,3.6c-6.32-1.77-12.53-6.08-15.56-11.83c0.86,3.06,2.19,5.94,4.15,8.42
				c9.89,12.48,32.08,12.29,44.38,3.42C359.037,352.695,365.647,341.305,360.087,329.515z"/>
			<path style="opacity:0.22;fill:#DF2328;enable-background:new    ;" d="M355.167,324.205c-3.08-3.27-7.43-5.37-12.66-5.26
				c2.92,0.02,5.44,2.67,7.39,4.46c2.49,2.29,4,5.56,4.5,8.81c1.4,9-2.26,19.13-10.56,23.98c-7.61,4.44-19.02,6.01-27.64,3.6
				c-4.25-1.19-8.86-3.36-11.69-6.77c-0.89-1.07-1.38-2.46-1.95-3.53c-0.12,2.49,2.6,6.15,4.39,7.81c1.63,1.51,3.73,2.58,5.67,3.68
				c5.46,3.11,11.83,3.68,18.06,3.69c3.27,0,6.77-0.74,9.77-1.95c2.39-0.97,5.52-1.72,7.52-3.31c0.37-0.3,0.75-0.6,1.11-0.91
				c1.74-1.5,3.27-3.16,4.95-4.68c2.53-3.73,4.53-8.03,5.59-12.18C361.217,335.415,359.397,328.705,355.167,324.205z"/>
			<path style="opacity:0.41;fill:#9C1D21;enable-background:new    ;" d="M316.157,361.745c2.5,1.46,5.55,2.32,8.78,2.7
				c1.72,0.15,3.46,0.21,5.19,0.22c2.45-0.08,4.89-0.39,7.16-0.9c1.09-0.29,2.16-0.64,3.17-1.05c0.99-0.4,2.11-0.77,3.22-1.17
				c12.56-6.24,18.61-22.48,11.93-34.6c0.58,1.79,0.89,3.67,0.95,5.6c0.3,9.42-2.4,18.51-10.65,24.2
				c-7.15,4.93-15.36,6.6-24.04,5.39c-3.28-0.46-6.54-1.32-9.45-2.71C313.657,360.255,314.917,361.025,316.157,361.745z"/>
			<path style="opacity:0.37;fill:#971D20;enable-background:new    ;" d="M318.747,323.915c0.13,0.26,0.33,0.54,0.62,0.86
				c1.82,1.99,5.93,2.76,8.54,2.97c3.3,0.26,6.49-0.72,9.56-1.75c0.97-0.32,6.84-2.08,3.45-3.35c-1.2-0.45-2.81-0.56-4.13-0.45
				c-1.3,0.11-2.25,0.72-3.48,0.92c-1.79,0.28-3.34-0.72-5.06-1.03c-1.87-0.34-3.79-0.33-5.69-0.33
				C320.717,321.745,317.827,322.075,318.747,323.915z"/>
			<path style="opacity:0.41;fill:#9C1D21;enable-background:new    ;" d="M330.367,325.355c-0.85,0.13-1.7,0.2-2.57-0.1
				c-1.66-0.57-5.28-2.03-6.92-0.85c-2.55,1.86,5.66,3.22,7.03,3.33c3.3,0.26,6.49-0.72,9.56-1.75c0.09-0.03,0.22-0.07,0.38-0.12
				c-0.97-0.12-1.85-0.14-2.75-0.36c-0.85-0.21-1.39-0.51-2.33-0.49C331.967,325.035,331.167,325.225,330.367,325.355z"/>
			<path style="opacity:0.26;fill:#FFE303;enable-background:new    ;" d="M306.967,327.845c0.01,0.53,0.06,1.07,0.14,1.6
				c0.3,1.92,1.13,2.21,2.25,3.7c0.99,1.3,1.41,1.87,2.94,2.65c1.32,0.67,2.39,1.67,3.82,2.14c5.69,1.87,12.85-0.97,18.52-1.74
				c2.67-0.36,6.3-0.3,8.33-2.3c1.85-1.84,3.51-5.77,0.4-7.24c-2.28-1.08-4.72,0.61-6.47,1.91c-2.95,2.21-5.2,3.32-8.99,2.34
				c-3.21-0.83-6.91-1.5-9.31-3.81c-1-0.96-1.75-2.18-2.21-3.46c-0.31-0.87-0.3-1.84-1.07-2.49c-1.57-1.31-4.23-0.52-5.64,0.58
				C307.697,323.265,306.937,325.515,306.967,327.845z"/>
			<path style="opacity:0.34;fill:#FFD994;enable-background:new    ;" d="M311.587,329.865c1.06,1.86,1.49,2.72,3.76,3.36
				c1.94,0.55,3.79,1.48,5.66,1.96c3.31,0.84,7.98-0.01,11.27-0.57c1.65-0.28,4.1-0.58,5.5-1.42c1.08-0.64,2.87-3.19,0.56-3.47
				c-1.65-0.2-2.26,1.55-3.5,2.2c-1.39,0.72-3.71,0.87-5.22,0.6c-2.41-0.43-4.98-0.86-7.36-1.47c-3.04-0.79-5.83-2.45-6.43-5.61
				c-0.33-1.74-0.72-3.11-2.8-3.48C306.847,320.875,310.317,327.625,311.587,329.865z"/>
			<path style="opacity:0.86;fill:#FEF4A2;enable-background:new    ;" d="M316.617,331.285c2.4-0.52-1.71-5.77-3.04-6.09
				C309.037,324.075,311.767,332.325,316.617,331.285z"/>
			<path style="opacity:0.86;fill:#FEF4A2;enable-background:new    ;" d="M322.257,333.075c0.57-1.47-1.15-2.3-2.44-1.59
				C317.677,332.655,321.517,334.975,322.257,333.075z"/>
			<path style="opacity:0.86;fill:#FEF4A2;enable-background:new    ;" d="M337.787,330.215c-0.26,0-0.55,0.07-0.82,0.25
				c-1.11,0.7-0.71,1.74,0.5,1.68C338.777,332.085,339.347,330.225,337.787,330.215z"/>
		</g>
		<g>
			<path style="fill:#825A23;" d="M332.557,306.165c-1.47,1.37-3.1,3.75-3.77,5.73c-1.07,3.2-1.44,6.67-1.25,10.09h-0.01
				c0.01,0.3,0.04,0.59,0.07,0.88c0,0.04,0,0.07,0.01,0.11c0.13,1.5,0.35,3,0.68,4.44c0.02,0.09,0.04,0.21,0.07,0.34
				c0.58,0.03,1.17,0.02,1.74-0.02c-0.15-0.98-0.53-2.09-0.72-2.9l0,0c-0.04-0.17-0.07-0.33-0.09-0.47
				c-0.05-0.41-0.08-0.83-0.11-1.24c-0.01-0.27-0.03-0.55-0.03-0.83l0,0c-0.04-1.47,0.08-2.94,0.32-4.4
				c0.8-4.82,2.51-9.29,7.23-11.09C337.047,303.635,333.747,305.045,332.557,306.165z"/>
			<path style="fill:#6C451A;" d="M335.517,306.075c-0.55,0.29-1.07,0.65-1.58,1.03c-1.94,1.77-3.66,4.16-4.69,8.21
				c-1.06,4.13-0.85,7.92,0.33,12.45c0.17,0,0.34-0.01,0.51-0.02c-0.15-0.98-0.53-2.09-0.72-2.9l0,0c-0.04-0.17-0.07-0.33-0.09-0.47
				c-0.05-0.41-0.08-0.83-0.11-1.24c-0.01-0.27-0.03-0.55-0.03-0.83c-0.04-1.47,0.08-2.94,0.32-4.4c0.8-4.82,2.51-9.29,7.23-11.09
				c0.06-0.53,0-0.92-0.12-1.21C336.227,305.735,335.867,305.885,335.517,306.075z"/>
			<path style="fill:#A06C29;" d="M335.247,305.845c0.38,0.78,1.2,1.06,1.45,0.96c0.17-1.54-0.52-1.99-1.41-1.93
				C335.067,304.895,335.107,305.565,335.247,305.845z"/>
			<path style="fill:#C98F49;" d="M335.247,305.845c0.38,0.78,1.2,1.06,1.45,0.96c0,0-0.97-0.36-1.11-1.04
				c-0.14-0.66,0.12-0.88,0.12-0.88c-0.13-0.02-0.27-0.02-0.42-0.01C335.067,304.895,335.107,305.565,335.247,305.845z"/>
		</g>
	</g>
	<g>
		<g>
			<path style="fill:#EF3F24;" d="M311.097,392.025c-6.11,1.11-9.69,8.34-10.29,13.67c-0.96,8.48-0.52,18.82,5.11,25.93
				c9.89,12.48,32.08,12.29,44.38,3.42c9.87-7.12,16.48-18.5,10.93-30.29c-2.14-4.55-5.8-8.49-10.56-10.57
				c-5.49-2.39-9.71-0.96-15.35-0.24c-4.25,0.54-9.57,0.67-13.76-0.32C317.987,392.785,314.947,391.325,311.097,392.025z"/>
			<path style="opacity:0.25;fill:#FFDE11;enable-background:new    ;" d="M348.117,415.355c4.35-2.04,8.56-5.15,9.39-9.43
				c0.25-1.32,0.54-3.89,0.35-6.34c-1.96-2.28-4.39-4.17-7.21-5.4c-5.49-2.39-9.71-0.96-15.35-0.24c-4.25,0.54-9.57,0.67-13.76-0.32
				c-3.56-0.84-6.6-2.31-10.45-1.6c-3.82,0.69-6.65,3.78-8.38,7.3c-0.08,0.65-0.11,1.3-0.09,1.93c0.18,5.26,3.21,9.36,8.04,11.71
				c8.85,4.31,20.85,5.81,30.56,4.12C343.477,416.685,345.817,416.125,348.117,415.355z"/>
			<path style="opacity:0.21;fill:#FDD41E;enable-background:new    ;" d="M326.577,425.535c0.76-0.13,1.46-0.28,2.07-0.44
				c4.66-1.22,8.66-4.32,11.71-7.6c1.52-1.63,3.14-4.16,3.23-6.32c0.07-1.87,0.38-4.69-1.32-6.09c-2.57-2.13-5.83-0.46-8.36,0.61
				c-1.24,0.52-2.52,0.59-3.87,0.46c-5.09-0.49-8.79-4.78-13.72-5.62c-3.73-0.64-7.75,0.16-8.54,3.88
				c-0.8,3.77-0.41,7.73,1.15,11.33c1.44,3.34,4.44,7.78,8.2,9.42C319.557,426.235,323.527,426.065,326.577,425.535z"/>
			<path style="opacity:0.37;fill:#C82127;enable-background:new    ;" d="M361.217,404.765c-2.14-4.55-5.8-8.49-10.56-10.57
				c-5.49-2.39-9.71-0.96-15.35-0.24c-4.25,0.54-9.57,0.67-13.76-0.32c-3.56-0.84-6.6-2.31-10.45-1.6
				c-6.11,1.11-9.69,8.34-10.29,13.67c-0.96,8.48-0.52,18.82,5.11,25.93c9.89,12.48,32.08,12.29,44.38,3.42
				C360.157,427.945,366.767,416.555,361.217,404.765z M326.597,431.325c-0.22,0.02-0.44,0.03-0.66,0.05
				c-4.51,0.26-10.01,0.02-13.86-2.52c-4.6-3.03-7.12-8.07-8.11-13.23c-1.3-6.75-0.68-12.39,4.46-17.64c3.39-3.46,7.07-4,11.7-3.07
				c3.31,0.67,6.79,0.59,10.29,0.6c3.55,0.01,7.18-1.52,10.5,0.2c7.92,4.1,8.75,9.89,7.7,17.99c-0.6,4.68-3.33,9-7.17,11.9
				C337.167,428.825,332.017,430.875,326.597,431.325z"/>
			<path style="opacity:0.37;fill:#971D20;enable-background:new    ;" d="M361.217,404.765c-2.14-4.55-5.8-8.49-10.56-10.57
				c-3.64-1.58-6.71-1.49-10.01-1.04c7.42,1.44,13.68,6.62,14.88,14.31c1.4,9-2.26,19.13-10.56,23.98
				c-7.61,4.44-19.02,6.01-27.64,3.6c-6.32-1.77-12.53-6.08-15.56-11.83c0.86,3.06,2.19,5.94,4.15,8.42
				c9.89,12.48,32.08,12.29,44.38,3.42C360.157,427.945,366.767,416.555,361.217,404.765z"/>
			<path style="opacity:0.22;fill:#DF2328;enable-background:new    ;" d="M356.287,399.455c-3.08-3.27-7.43-5.37-12.66-5.26
				c2.92,0.02,5.44,2.67,7.39,4.46c2.49,2.29,4,5.56,4.5,8.81c1.4,9-2.26,19.13-10.56,23.98c-7.61,4.44-19.02,6.01-27.64,3.6
				c-4.25-1.19-8.86-3.36-11.69-6.77c-0.89-1.07-1.38-2.46-1.95-3.53c-0.12,2.49,2.6,6.15,4.39,7.81c1.63,1.51,3.73,2.58,5.67,3.68
				c5.46,3.11,11.83,3.68,18.06,3.69c3.27,0,6.77-0.74,9.78-1.95c2.39-0.97,5.52-1.72,7.52-3.31c0.37-0.3,0.75-0.6,1.11-0.91
				c1.74-1.5,3.27-3.16,4.95-4.68c2.53-3.73,4.53-8.03,5.59-12.18C362.347,410.665,360.527,403.955,356.287,399.455z"/>
			<path style="opacity:0.41;fill:#9C1D21;enable-background:new    ;" d="M317.277,436.995c2.5,1.46,5.55,2.32,8.78,2.7
				c1.72,0.15,3.46,0.21,5.19,0.22c2.45-0.08,4.89-0.39,7.16-0.9c1.09-0.29,2.16-0.64,3.17-1.05c0.99-0.41,2.11-0.77,3.22-1.17
				c12.56-6.24,18.61-22.48,11.93-34.6c0.58,1.79,0.89,3.67,0.95,5.6c0.3,9.42-2.4,18.51-10.65,24.2
				c-7.15,4.93-15.36,6.6-24.04,5.39c-3.28-0.46-6.54-1.32-9.45-2.71C314.777,435.505,316.037,436.275,317.277,436.995z"/>
			<path style="opacity:0.37;fill:#971D20;enable-background:new    ;" d="M319.877,399.165c0.13,0.26,0.33,0.54,0.62,0.86
				c1.82,1.99,5.93,2.76,8.54,2.97c3.3,0.26,6.49-0.72,9.56-1.75c0.97-0.32,6.84-2.08,3.45-3.35c-1.2-0.45-2.81-0.56-4.13-0.45
				c-1.3,0.11-2.25,0.72-3.48,0.92c-1.79,0.28-3.34-0.72-5.06-1.03c-1.87-0.34-3.79-0.33-5.69-0.33
				C321.837,396.995,318.947,397.325,319.877,399.165z"/>
			<path style="opacity:0.41;fill:#9C1D21;enable-background:new    ;" d="M331.497,400.605c-0.85,0.13-1.7,0.2-2.57-0.1
				c-1.66-0.57-5.28-2.03-6.92-0.85c-2.55,1.86,5.66,3.22,7.03,3.33c3.3,0.26,6.49-0.72,9.56-1.75c0.09-0.03,0.22-0.07,0.38-0.12
				c-0.97-0.12-1.85-0.14-2.75-0.36c-0.85-0.21-1.39-0.51-2.33-0.49C333.087,400.285,332.287,400.475,331.497,400.605z"/>
			<path style="opacity:0.26;fill:#FFE303;enable-background:new    ;" d="M308.097,403.095c0.01,0.53,0.06,1.07,0.14,1.61
				c0.3,1.92,1.13,2.21,2.25,3.7c0.99,1.3,1.41,1.87,2.94,2.65c1.32,0.67,2.39,1.67,3.82,2.14c5.69,1.87,12.85-0.97,18.52-1.74
				c2.67-0.36,6.3-0.3,8.33-2.3c1.85-1.84,3.51-5.77,0.4-7.24c-2.28-1.08-4.72,0.61-6.47,1.91c-2.95,2.21-5.2,3.32-8.99,2.34
				c-3.21-0.83-6.91-1.5-9.31-3.81c-1-0.96-1.75-2.18-2.21-3.46c-0.31-0.87-0.3-1.84-1.07-2.49c-1.57-1.31-4.23-0.52-5.64,0.58
				C308.827,398.515,308.067,400.765,308.097,403.095z"/>
			<path style="opacity:0.34;fill:#FFD994;enable-background:new    ;" d="M312.707,405.115c1.06,1.86,1.49,2.72,3.76,3.36
				c1.94,0.55,3.79,1.48,5.66,1.96c3.31,0.84,7.98-0.01,11.27-0.57c1.65-0.28,4.1-0.58,5.5-1.42c1.08-0.64,2.87-3.19,0.56-3.47
				c-1.65-0.2-2.26,1.55-3.5,2.2c-1.39,0.72-3.71,0.87-5.22,0.6c-2.41-0.43-4.98-0.86-7.36-1.47c-3.04-0.79-5.83-2.45-6.43-5.61
				c-0.33-1.74-0.72-3.11-2.8-3.48C307.967,396.125,311.437,402.875,312.707,405.115z"/>
			<path style="opacity:0.86;fill:#FEF4A2;enable-background:new    ;" d="M317.737,406.535c2.4-0.52-1.71-5.77-3.04-6.09
				C310.157,399.325,312.897,407.575,317.737,406.535z"/>
			<path style="opacity:0.86;fill:#FEF4A2;enable-background:new    ;" d="M323.377,408.325c0.57-1.47-1.15-2.3-2.44-1.59
				C318.797,407.905,322.647,410.225,323.377,408.325z"/>
			<path style="opacity:0.86;fill:#FEF4A2;enable-background:new    ;" d="M338.907,405.465c-0.26,0-0.55,0.07-0.82,0.25
				c-1.11,0.7-0.71,1.74,0.5,1.68C339.897,407.335,340.467,405.475,338.907,405.465z"/>
		</g>
		<g>
			<path style="fill:#825A23;" d="M333.677,381.415c-1.47,1.37-3.1,3.75-3.77,5.73c-1.07,3.2-1.44,6.67-1.25,10.09h-0.01
				c0.01,0.3,0.04,0.59,0.07,0.88c0,0.04,0,0.07,0.01,0.11c0.13,1.5,0.35,3,0.68,4.44c0.02,0.09,0.04,0.21,0.07,0.34
				c0.58,0.03,1.17,0.02,1.74-0.02c-0.15-0.98-0.53-2.09-0.72-2.9l0,0c-0.04-0.17-0.07-0.33-0.09-0.47
				c-0.05-0.41-0.08-0.83-0.11-1.24c-0.01-0.27-0.03-0.55-0.03-0.83l0,0c-0.04-1.47,0.08-2.94,0.32-4.4
				c0.8-4.82,2.51-9.29,7.23-11.09C338.177,378.885,334.867,380.295,333.677,381.415z"/>
			<path style="fill:#6C451A;" d="M336.637,381.325c-0.55,0.29-1.07,0.65-1.58,1.03c-1.94,1.77-3.66,4.16-4.69,8.21
				c-1.06,4.13-0.85,7.92,0.33,12.45c0.17,0,0.34-0.01,0.51-0.02c-0.15-0.98-0.53-2.09-0.72-2.9l0,0c-0.04-0.17-0.07-0.33-0.09-0.47
				c-0.05-0.41-0.08-0.83-0.11-1.24c-0.01-0.27-0.03-0.55-0.03-0.83c-0.04-1.47,0.08-2.94,0.32-4.4c0.8-4.82,2.51-9.29,7.23-11.09
				c0.06-0.53,0-0.92-0.12-1.21C337.347,380.985,336.987,381.135,336.637,381.325z"/>
			<path style="fill:#A06C29;" d="M336.367,381.095c0.38,0.78,1.2,1.06,1.45,0.96c0.17-1.54-0.52-1.99-1.41-1.93
				C336.187,380.145,336.227,380.815,336.367,381.095z"/>
			<path style="fill:#C98F49;" d="M336.367,381.095c0.38,0.78,1.2,1.06,1.45,0.96c0,0-0.97-0.36-1.11-1.04
				c-0.14-0.66,0.12-0.88,0.12-0.88c-0.13-0.02-0.27-0.02-0.42-0.02C336.187,380.145,336.227,380.815,336.367,381.095z"/>
		</g>
	</g>
	<g>
		<g>
			<path style="fill:#EF3F24;" d="M193.757,305.805c-6.11,1.11-9.69,8.34-10.29,13.67c-0.96,8.48-0.52,18.82,5.11,25.93
				c9.89,12.48,32.08,12.29,44.38,3.42c9.87-7.12,16.48-18.5,10.93-30.29c-2.14-4.55-5.79-8.49-10.56-10.57
				c-5.49-2.39-9.71-0.96-15.35-0.24c-4.25,0.54-9.57,0.67-13.76-0.32C200.657,306.565,197.607,305.105,193.757,305.805z"/>
			<path style="opacity:0.25;fill:#FFDE11;enable-background:new    ;" d="M230.787,329.135c4.35-2.04,8.56-5.15,9.39-9.43
				c0.25-1.32,0.54-3.89,0.35-6.34c-1.96-2.28-4.39-4.17-7.21-5.4c-5.49-2.39-9.71-0.96-15.35-0.24c-4.25,0.54-9.57,0.67-13.76-0.32
				c-3.56-0.84-6.6-2.31-10.45-1.6c-3.82,0.69-6.65,3.78-8.38,7.3c-0.08,0.65-0.11,1.3-0.09,1.93c0.18,5.26,3.21,9.36,8.04,11.71
				c8.85,4.31,20.85,5.81,30.56,4.12C226.137,330.465,228.477,329.905,230.787,329.135z"/>
			<path style="opacity:0.21;fill:#FDD41E;enable-background:new    ;" d="M209.247,339.315c0.76-0.13,1.46-0.28,2.07-0.44
				c4.66-1.22,8.66-4.32,11.71-7.6c1.52-1.63,3.14-4.16,3.23-6.32c0.07-1.87,0.38-4.69-1.32-6.09c-2.57-2.13-5.83-0.46-8.36,0.61
				c-1.24,0.52-2.52,0.59-3.87,0.46c-5.09-0.49-8.79-4.78-13.72-5.62c-3.73-0.64-7.75,0.16-8.54,3.88
				c-0.8,3.77-0.41,7.73,1.15,11.33c1.44,3.34,4.44,7.78,8.2,9.42C202.217,340.015,206.187,339.845,209.247,339.315z"/>
			<path style="opacity:0.37;fill:#C82127;enable-background:new    ;" d="M243.877,318.545c-2.14-4.55-5.79-8.49-10.56-10.57
				c-5.49-2.39-9.71-0.96-15.35-0.24c-4.25,0.54-9.57,0.67-13.76-0.32c-3.56-0.84-6.6-2.31-10.45-1.6
				c-6.11,1.11-9.69,8.34-10.29,13.67c-0.96,8.48-0.52,18.82,5.11,25.93c9.89,12.48,32.08,12.29,44.38,3.42
				C242.817,341.725,249.427,330.335,243.877,318.545z M209.267,345.105c-0.22,0.02-0.44,0.03-0.66,0.05
				c-4.51,0.26-10.01,0.02-13.86-2.52c-4.6-3.03-7.12-8.07-8.11-13.23c-1.3-6.75-0.68-12.39,4.46-17.64c3.39-3.46,7.07-4,11.7-3.07
				c3.31,0.67,6.79,0.59,10.29,0.6c3.55,0.01,7.18-1.52,10.5,0.2c7.92,4.1,8.75,9.89,7.7,17.99c-0.6,4.68-3.33,9-7.17,11.9
				C219.837,342.605,214.677,344.655,209.267,345.105z"/>
			<path style="opacity:0.37;fill:#971D20;enable-background:new    ;" d="M243.877,318.545c-2.14-4.55-5.79-8.49-10.56-10.57
				c-3.64-1.58-6.71-1.49-10.01-1.04c7.42,1.44,13.68,6.62,14.88,14.31c1.4,9-2.26,19.13-10.56,23.98
				c-7.61,4.44-19.02,6.01-27.64,3.6c-6.32-1.77-12.53-6.08-15.56-11.83c0.86,3.06,2.19,5.94,4.15,8.42
				c9.89,12.48,32.08,12.29,44.38,3.42C242.817,341.725,249.427,330.335,243.877,318.545z"/>
			<path style="opacity:0.22;fill:#DF2328;enable-background:new    ;" d="M238.957,313.235c-3.08-3.27-7.43-5.37-12.66-5.26
				c2.92,0.02,5.44,2.67,7.39,4.46c2.49,2.29,4,5.56,4.5,8.81c1.4,9-2.26,19.13-10.56,23.98c-7.61,4.44-19.02,6.01-27.64,3.6
				c-4.25-1.19-8.86-3.36-11.69-6.77c-0.89-1.07-1.38-2.46-1.95-3.53c-0.12,2.49,2.6,6.15,4.39,7.81c1.63,1.51,3.73,2.58,5.67,3.68
				c5.46,3.11,11.83,3.68,18.06,3.69c3.27,0,6.77-0.74,9.77-1.95c2.39-0.97,5.52-1.72,7.52-3.31c0.37-0.3,0.74-0.6,1.11-0.91
				c1.74-1.5,3.27-3.16,4.95-4.68c2.53-3.73,4.53-8.03,5.59-12.18C245.007,324.445,243.187,317.735,238.957,313.235z"/>
			<path style="opacity:0.41;fill:#9C1D21;enable-background:new    ;" d="M199.937,350.775c2.5,1.46,5.55,2.32,8.78,2.7
				c1.72,0.15,3.46,0.21,5.19,0.22c2.45-0.08,4.89-0.39,7.16-0.9c1.09-0.29,2.16-0.64,3.17-1.05c0.99-0.41,2.11-0.77,3.22-1.17
				c12.56-6.24,18.61-22.48,11.93-34.6c0.58,1.79,0.89,3.67,0.95,5.6c0.3,9.42-2.4,18.51-10.65,24.2
				c-7.15,4.93-15.36,6.6-24.04,5.39c-3.28-0.46-6.54-1.32-9.45-2.71C197.437,349.285,198.707,350.055,199.937,350.775z"/>
			<path style="opacity:0.37;fill:#971D20;enable-background:new    ;" d="M202.537,312.945c0.13,0.26,0.33,0.54,0.62,0.86
				c1.82,1.99,5.93,2.76,8.54,2.97c3.3,0.26,6.49-0.72,9.56-1.75c0.97-0.32,6.84-2.08,3.45-3.35c-1.2-0.45-2.81-0.56-4.13-0.45
				c-1.3,0.11-2.25,0.72-3.48,0.92c-1.79,0.28-3.34-0.72-5.06-1.03c-1.87-0.34-3.79-0.33-5.69-0.33
				C204.497,310.775,201.607,311.105,202.537,312.945z"/>
			<path style="opacity:0.41;fill:#9C1D21;enable-background:new    ;" d="M214.157,314.385c-0.85,0.13-1.7,0.2-2.57-0.1
				c-1.66-0.57-5.28-2.03-6.92-0.85c-2.55,1.86,5.66,3.22,7.03,3.33c3.3,0.26,6.49-0.72,9.56-1.75c0.09-0.03,0.22-0.07,0.38-0.12
				c-0.97-0.12-1.85-0.14-2.75-0.36c-0.85-0.21-1.39-0.51-2.33-0.49C215.747,314.065,214.947,314.255,214.157,314.385z"/>
			<path style="opacity:0.26;fill:#FFE303;enable-background:new    ;" d="M190.757,316.875c0.01,0.53,0.06,1.07,0.14,1.61
				c0.3,1.92,1.13,2.21,2.25,3.7c0.99,1.3,1.41,1.87,2.94,2.65c1.32,0.67,2.39,1.67,3.82,2.14c5.69,1.87,12.85-0.97,18.52-1.74
				c2.67-0.36,6.3-0.3,8.33-2.3c1.85-1.84,3.51-5.77,0.4-7.24c-2.28-1.08-4.72,0.61-6.47,1.91c-2.95,2.21-5.2,3.32-8.99,2.34
				c-3.21-0.83-6.91-1.5-9.31-3.81c-1-0.96-1.75-2.18-2.21-3.46c-0.31-0.87-0.3-1.84-1.07-2.49c-1.57-1.31-4.23-0.52-5.64,0.58
				C191.487,312.295,190.727,314.545,190.757,316.875z"/>
			<path style="opacity:0.34;fill:#FFD994;enable-background:new    ;" d="M195.367,318.895c1.06,1.86,1.49,2.72,3.76,3.36
				c1.94,0.55,3.79,1.48,5.66,1.96c3.31,0.84,7.98-0.01,11.27-0.57c1.65-0.28,4.1-0.58,5.5-1.42c1.08-0.64,2.87-3.19,0.56-3.47
				c-1.65-0.2-2.26,1.55-3.5,2.2c-1.39,0.72-3.71,0.87-5.22,0.6c-2.41-0.43-4.98-0.86-7.36-1.47c-3.04-0.79-5.83-2.45-6.43-5.61
				c-0.33-1.74-0.72-3.11-2.8-3.48C190.627,309.905,194.097,316.655,195.367,318.895z"/>
			<path style="opacity:0.86;fill:#FEF4A2;enable-background:new    ;" d="M200.397,320.315c2.4-0.52-1.71-5.77-3.04-6.09
				C192.817,313.105,195.557,321.355,200.397,320.315z"/>
			<path style="opacity:0.86;fill:#FEF4A2;enable-background:new    ;" d="M206.037,322.105c0.57-1.47-1.15-2.3-2.44-1.59
				C201.467,321.685,205.307,324.005,206.037,322.105z"/>
			<path style="opacity:0.86;fill:#FEF4A2;enable-background:new    ;" d="M221.567,319.245c-0.26,0-0.55,0.07-0.82,0.25
				c-1.11,0.7-0.71,1.74,0.5,1.68C222.557,321.115,223.127,319.255,221.567,319.245z"/>
		</g>
		<g>
			<path style="fill:#825A23;" d="M216.347,295.195c-1.47,1.37-3.1,3.75-3.77,5.73c-1.07,3.2-1.44,6.67-1.25,10.09h-0.01
				c0.01,0.3,0.04,0.59,0.07,0.88c0,0.04,0,0.07,0.01,0.11c0.13,1.5,0.35,3,0.68,4.44c0.02,0.09,0.04,0.21,0.07,0.34
				c0.58,0.03,1.17,0.02,1.74-0.02c-0.15-0.98-0.53-2.09-0.72-2.9l0,0c-0.04-0.17-0.07-0.33-0.09-0.47
				c-0.05-0.41-0.08-0.83-0.11-1.24c-0.01-0.27-0.03-0.55-0.03-0.83l0,0c-0.04-1.47,0.08-2.94,0.32-4.4
				c0.8-4.82,2.51-9.29,7.23-11.09C220.837,292.675,217.537,294.075,216.347,295.195z"/>
			<path style="fill:#6C451A;" d="M219.307,295.105c-0.55,0.29-1.07,0.65-1.58,1.03c-1.94,1.77-3.66,4.16-4.69,8.21
				c-1.06,4.13-0.85,7.92,0.33,12.45c0.17,0,0.34-0.01,0.51-0.02c-0.15-0.98-0.53-2.09-0.72-2.9l0,0c-0.04-0.17-0.07-0.33-0.09-0.47
				c-0.05-0.41-0.08-0.83-0.11-1.24c-0.01-0.27-0.03-0.55-0.03-0.83c-0.04-1.47,0.08-2.94,0.32-4.4c0.8-4.82,2.51-9.29,7.23-11.09
				c0.06-0.53,0-0.92-0.12-1.21C220.007,294.765,219.647,294.915,219.307,295.105z"/>
			<path style="fill:#A06C29;" d="M219.037,294.875c0.38,0.78,1.2,1.06,1.45,0.96c0.17-1.54-0.52-1.99-1.41-1.93
				C218.847,293.925,218.887,294.595,219.037,294.875z"/>
			<path style="fill:#C98F49;" d="M219.037,294.875c0.38,0.78,1.2,1.06,1.45,0.96c0,0-0.97-0.36-1.11-1.04
				c-0.14-0.66,0.12-0.88,0.12-0.88c-0.13-0.02-0.27-0.02-0.42-0.02C218.847,293.925,218.887,294.595,219.037,294.875z"/>
		</g>
	</g>
</g>
</svg>
