<?xml version="1.0" encoding="iso-8859-1"?>
<!-- Generator: Adobe Illustrator 23.0.2, SVG Export Plug-In . SVG Version: 6.00 Build 0)  -->
<svg version="1.1" id="Layer_1" xmlns="http://www.w3.org/2000/svg" xmlns:xlink="http://www.w3.org/1999/xlink" x="0px" y="0px"
	 viewBox="0 0 595.276 841.89" style="enable-background:new 0 0 595.276 841.89;" xml:space="preserve">
<g>
	<path style="fill:#7E499D;" d="M166.835,329.956c0.363-2.086,0.545-4.245,0.545-6.439c0-10.18-4.356-15.252-13.039-15.252
		c-3.933,0-7.261,0.935-10.014,2.842c-2.572,3.453-3.842,7.59-3.842,12.41c0,3.129,1.18,5.863,3.57,8.093
		c2.39,2.266,5.325,4.029,8.864,5.252c3.509,1.259,7.351,2.842,11.466,4.712c4.114,1.87,7.926,3.921,11.466,6.043
		c3.509,2.158,6.474,5.36,8.864,9.604c2.39,4.245,3.57,9.245,3.57,15c0,11.007-3.691,19.964-11.042,26.906
		c-7.382,6.942-16.216,10.396-26.562,10.396c-8.32,0-15.399-2.374-21.207-7.158c-5.809-4.748-8.713-11.439-8.713-20.072
		c0-4.388,1.18-8.093,3.509-11.079c2.329-2.986,5.113-4.46,8.38-4.46c3.267,0,5.657,0.468,7.2,1.403
		c-0.726,3.129-1.089,5.971-1.089,8.489c0,5.647,1.392,10.144,4.175,13.453c2.783,3.309,6.656,4.964,11.587,4.964
		c4.931,0,8.925-1.475,11.95-4.424c3.025-2.914,4.538-6.834,4.538-11.727c0-4.856-1.664-8.885-5.022-12.014
		c-3.328-3.129-7.382-5.647-12.162-7.554c-4.75-1.906-9.53-3.885-14.279-5.971c-4.75-2.086-8.804-5.216-12.131-9.352
		c-3.358-4.137-5.022-9.352-5.022-15.647c0-9.856,3.721-18.021,11.194-24.532c7.442-6.511,15.883-9.748,25.322-9.748
		c6.958,0,12.979,1.619,18.031,4.82c5.082,3.201,7.624,8.057,7.624,14.532c0,4.712-1.331,8.741-3.993,12.05
		c-2.662,3.309-5.99,4.964-10.014,4.964C169.437,330.424,168.227,330.244,166.835,329.956z"/>
	<path style="fill:#7E499D;" d="M222.289,405.746c-2.935,1.259-6.051,1.87-9.318,1.87c-3.298,0-6.141-1.187-8.562-3.633
		c-2.42-2.41-3.63-5.719-3.63-9.892c0-4.209,0.454-12.266,1.361-24.136c0.908-11.906,1.361-21.403,1.361-28.525
		c0-18.345-0.968-32.877-2.874-43.56c2.935-1.259,6.051-1.906,9.318-1.906c3.298,0,6.141,1.223,8.562,3.633
		c2.42,2.41,3.63,5.719,3.63,9.928c0,4.173-0.454,12.23-1.361,24.136c-0.908,11.906-1.361,21.403-1.361,28.561
		C219.415,380.531,220.353,395.063,222.289,405.746z"/>
	<path style="fill:#7E499D;" d="M310.93,397.545c0,2.95-1.029,5.504-3.086,7.698c-2.057,2.194-4.568,3.309-7.563,3.309
		c-2.995,0-5.839-1.043-8.562-3.129c-2.753-2.086-5.113-4.46-7.079-7.086c-1.966-2.626-4.084-6.331-6.383-11.187
		c-3.479-7.23-6.958-15.467-10.437-24.676c-11.799,16.259-18.243,31.295-19.362,45.143c-11.526,0-17.305-4.352-17.305-13.057
		c0-2.95,1.21-6.259,3.63-10c2.42-3.705,6.716-9.352,12.888-16.906c6.172-7.554,11.103-13.777,14.763-18.705
		c-10.619-26.726-20.996-40.107-31.16-40.107c0-3.957,0.998-7.122,3.025-9.424c1.997-2.302,4.75-3.453,8.229-3.453
		c6.141,0,11.92,3.633,17.365,10.863c5.445,7.23,10.226,16.618,14.34,28.165c9.681-12.266,15.005-25.575,15.913-39.963
		c11.526,0,17.305,4.029,17.305,12.122c0,2.95-1.24,6.223-3.691,9.82c-2.481,3.633-6.353,8.525-11.678,14.712
		c-5.294,6.187-9.62,11.547-12.888,16.043c2.844,7.662,4.75,12.554,5.688,14.64c0.968,2.086,2.208,4.892,3.691,8.417
		c1.513,3.525,2.814,6.079,3.903,7.734c1.089,1.619,2.39,3.489,3.842,5.575c1.452,2.086,2.935,3.597,4.387,4.46
		c1.452,0.899,2.935,1.331,4.387,1.331s2.844-0.324,4.114-0.935C310.385,391.754,310.93,394.631,310.93,397.545z"/>
</g>
</svg>
