<?xml version="1.0" encoding="iso-8859-1"?>
<!-- Generator: Adobe Illustrator 23.0.2, SVG Export Plug-In . SVG Version: 6.00 Build 0)  -->
<svg version="1.1" id="Layer_1" xmlns="http://www.w3.org/2000/svg" xmlns:xlink="http://www.w3.org/1999/xlink" x="0px" y="0px"
	 viewBox="0 0 595.276 841.89" style="enable-background:new 0 0 595.276 841.89;" xml:space="preserve">
<g>
	<path style="fill:#7E499D;" d="M224.771,311.777c8.823-5.321,18.996-7.994,30.518-7.994c11.522,0,20.518,2.118,26.988,6.379
		c6.47,4.235,9.723,10.112,9.723,17.603c0,9.953-4.844,18.476-14.567,25.517c-9.688,7.041-21.591,10.588-35.639,10.588
		c-14.048,0-24.809-3.706-32.213-11.091c-7.439-7.412-11.141-16.676-11.141-27.82s2.111-21.123,6.332-29.964
		s11.072-16.173,20.587-22.05s20.795-8.815,33.909-8.815c8.546,0,15.709,1.403,21.487,4.209c5.744,2.806,8.65,6.935,8.65,12.362
		c0,3.838-1.799,6.935-5.432,9.238c-3.598,2.303-7.578,3.468-11.833,3.468c-4.29,0-7.508-0.238-9.619-0.741
		c0.934-1.959,1.419-3.838,1.419-5.612c0-6.009-3.945-9.026-11.833-9.026c-6.159,0-11.903,1.429-17.266,4.288
		c-2.941,3.362-5.363,7.915-7.232,13.685C225.705,301.797,224.771,307.038,224.771,311.777z M224.183,324.35
		c0,17.073,6.816,25.597,20.484,25.597c6.159,0,11.141-1.721,14.947-5.188s5.709-7.57,5.709-12.362
		c0-4.791-1.557-8.576-4.706-11.382c-3.149-2.806-7.716-4.209-13.736-4.209C238.3,316.806,230.722,319.321,224.183,324.35z"/>
</g>
</svg>
