<?xml version="1.0" encoding="utf-8"?>
<!-- Generator: Adobe Illustrator 26.5.0, SVG Export Plug-In . SVG Version: 6.00 Build 0)  -->
<svg version="1.1" id="Layer_1" xmlns="http://www.w3.org/2000/svg" xmlns:xlink="http://www.w3.org/1999/xlink" x="0px" y="0px"
	 viewBox="0 0 612 792" style="enable-background:new 0 0 612 792;" xml:space="preserve">
<style type="text/css">
	.st0{fill:#9159A4;}
	.st1{fill:#FFFFFF;}
	.st2{fill:#7D489C;}
	.st3{fill:#EF3D23;}
	.st4{opacity:0.25;fill:#FFDE17;}
	.st5{opacity:0.21;fill:#FED41D;}
	.st6{opacity:0.37;fill:#C82026;}
	.st7{opacity:0.37;fill:#961B1E;}
	.st8{opacity:0.22;fill:#DF1F26;}
	.st9{opacity:0.41;fill:#9B1B1F;}
	.st10{opacity:0.26;fill:#FFE30E;}
	.st11{opacity:0.34;fill:#FFD994;}
	.st12{opacity:0.86;fill:#FEF3A0;}
	.st13{fill:#825923;}
	.st14{fill:#6B431A;}
	.st15{fill:#9F6B28;}
	.st16{fill:#C98F49;}
	.st17{fill:#97C13D;}
	.st18{opacity:0.46;fill:#A6CE38;}
	.st19{fill:#89AE3F;}
	.st20{fill:#A6CE38;}
	.st21{fill:#D3E053;}
</style>
<g>
	<path class="st0" d="M466,450.47c0,12.78-10.75,23.14-24,23.14H271.61c-13.26,0-24-10.36-24-23.14V221.14
		c0-12.78,10.75-23.14,24-23.14H442c13.26,0,24,10.36,24,23.14V450.47z"/>
	<path class="st1" d="M456.05,445.03c0,10.22-8.6,18.51-19.2,18.51H276.76c-10.61,0-19.2-8.29-19.2-18.51V226.57
		c0-10.22,8.6-18.51,19.2-18.51h160.08c10.6,0,19.2,8.29,19.2,18.51V445.03z"/>
</g>
<g>
	<path class="st2" d="M396.06,429.31c0.12-0.58,0.18-1.18,0.18-1.79c0-2.83-1.44-4.24-4.31-4.24c-1.3,0-2.4,0.26-3.31,0.79
		c-0.85,0.96-1.27,2.11-1.27,3.45c0,0.87,0.39,1.63,1.18,2.25c0.79,0.63,1.76,1.12,2.93,1.46c1.16,0.35,2.43,0.79,3.79,1.31
		c1.36,0.52,2.62,1.09,3.79,1.68c1.16,0.6,2.14,1.49,2.93,2.67c0.79,1.18,1.18,2.57,1.18,4.17c0,3.06-1.22,5.55-3.65,7.48
		c-2.44,1.93-5.36,2.89-8.78,2.89c-2.75,0-5.09-0.66-7.01-1.99c-1.92-1.32-2.88-3.18-2.88-5.58c0-1.22,0.39-2.25,1.16-3.08
		c0.77-0.83,1.69-1.24,2.77-1.24s1.87,0.13,2.38,0.39c-0.24,0.87-0.36,1.66-0.36,2.36c0,1.57,0.46,2.82,1.38,3.74
		c0.92,0.92,2.2,1.38,3.83,1.38c1.63,0,2.95-0.41,3.95-1.23c1-0.81,1.5-1.9,1.5-3.26c0-1.35-0.55-2.47-1.66-3.34
		c-1.1-0.87-2.44-1.57-4.02-2.1c-1.57-0.53-3.15-1.08-4.72-1.66c-1.57-0.58-2.91-1.45-4.01-2.6c-1.11-1.15-1.66-2.6-1.66-4.35
		c0-2.74,1.23-5.01,3.7-6.82c2.46-1.81,5.25-2.71,8.37-2.71c2.3,0,4.29,0.45,5.96,1.34c1.68,0.89,2.52,2.24,2.52,4.04
		c0,1.31-0.44,2.43-1.32,3.35c-0.88,0.92-1.98,1.38-3.31,1.38C396.92,429.44,396.52,429.39,396.06,429.31z"/>
	<path class="st2" d="M414.39,450.38c-0.97,0.35-2,0.52-3.08,0.52c-1.09,0-2.03-0.33-2.83-1.01c-0.8-0.67-1.2-1.59-1.2-2.75
		c0-1.17,0.15-3.41,0.45-6.71c0.3-3.31,0.45-5.95,0.45-7.93c0-5.1-0.32-9.14-0.95-12.11c0.97-0.35,2-0.53,3.08-0.53
		c1.09,0,2.03,0.34,2.83,1.01c0.8,0.67,1.2,1.59,1.2,2.76c0,1.16-0.15,3.4-0.45,6.71c-0.3,3.31-0.45,5.95-0.45,7.94
		C413.44,443.37,413.75,447.41,414.39,450.38z"/>
	<path class="st2" d="M443.69,448.1c0,0.82-0.34,1.53-1.02,2.14c-0.68,0.61-1.51,0.92-2.5,0.92s-1.93-0.29-2.83-0.87
		c-0.91-0.58-1.69-1.24-2.34-1.97c-0.65-0.73-1.35-1.76-2.11-3.11c-1.15-2.01-2.3-4.3-3.45-6.86c-3.9,4.52-6.03,8.7-6.4,12.55
		c-3.81,0-5.72-1.21-5.72-3.63c0-0.82,0.4-1.74,1.2-2.78c0.8-1.03,2.22-2.6,4.26-4.7c2.04-2.1,3.67-3.83,4.88-5.2
		c-3.51-7.43-6.94-11.15-10.3-11.15c0-1.1,0.33-1.98,1-2.62c0.66-0.64,1.57-0.96,2.72-0.96c2.03,0,3.94,1.01,5.74,3.02
		c1.8,2.01,3.38,4.62,4.74,7.83c3.2-3.41,4.96-7.11,5.26-11.11c3.81,0,5.72,1.12,5.72,3.37c0,0.82-0.41,1.73-1.22,2.73
		c-0.82,1.01-2.1,2.37-3.86,4.09c-1.75,1.72-3.18,3.21-4.26,4.46c0.94,2.13,1.57,3.49,1.88,4.07c0.32,0.58,0.73,1.36,1.22,2.34
		c0.5,0.98,0.93,1.69,1.29,2.15c0.36,0.45,0.79,0.97,1.27,1.55c0.48,0.58,0.97,1,1.45,1.24c0.48,0.25,0.97,0.37,1.45,0.37
		c0.48,0,0.94-0.09,1.36-0.26C443.51,446.49,443.69,447.29,443.69,448.1z"/>
</g>
<g>
	<path class="st2" d="M271.05,231.06c2.55-2.01,5.49-3.02,8.82-3.02c3.33,0,5.93,0.8,7.8,2.41c1.87,1.6,2.81,3.82,2.81,6.65
		c0,3.76-1.4,6.98-4.21,9.64c-2.8,2.66-6.24,4-10.3,4c-4.06,0-7.17-1.4-9.31-4.19c-2.15-2.8-3.22-6.3-3.22-10.51
		c0-4.21,0.61-7.98,1.83-11.32c1.22-3.34,3.2-6.11,5.95-8.33c2.75-2.22,6.01-3.33,9.8-3.33c2.47,0,4.54,0.53,6.21,1.59
		c1.66,1.06,2.5,2.62,2.5,4.67c0,1.45-0.52,2.62-1.57,3.49c-1.04,0.87-2.19,1.31-3.42,1.31c-1.24,0-2.17-0.09-2.78-0.28
		c0.27-0.74,0.41-1.45,0.41-2.12c0-2.27-1.14-3.41-3.42-3.41c-1.78,0-3.44,0.54-4.99,1.62c-0.85,1.27-1.55,2.99-2.09,5.17
		C271.32,227.29,271.05,229.27,271.05,231.06z M270.88,235.81c0,6.45,1.97,9.67,5.92,9.67c1.78,0,3.22-0.65,4.32-1.96
		c1.1-1.31,1.65-2.86,1.65-4.67c0-1.81-0.45-3.24-1.36-4.3c-0.91-1.06-2.23-1.59-3.97-1.59
		C274.96,232.96,272.77,233.91,270.88,235.81z"/>
</g>
<g>
	<g>
		<g>
			<path class="st3" d="M337,239.43c-6.11,1.11-9.69,8.34-10.29,13.67c-0.96,8.48-0.52,18.82,5.11,25.93
				c9.89,12.48,32.08,12.29,44.38,3.42c9.87-7.12,16.48-18.5,10.93-30.29c-2.14-4.55-5.79-8.49-10.56-10.57
				c-5.49-2.39-9.71-0.96-15.35-0.24c-4.25,0.54-9.57,0.67-13.76-0.32C343.89,240.19,340.85,238.73,337,239.43z"/>
			<path class="st4" d="M374.02,262.76c4.35-2.04,8.56-5.15,9.39-9.43c0.25-1.32,0.54-3.89,0.35-6.34c-1.96-2.28-4.39-4.17-7.21-5.4
				c-5.49-2.39-9.71-0.96-15.35-0.24c-4.25,0.54-9.57,0.67-13.76-0.32c-3.56-0.84-6.6-2.31-10.45-1.6c-3.82,0.69-6.65,3.78-8.38,7.3
				c-0.08,0.65-0.11,1.3-0.09,1.93c0.18,5.26,3.21,9.36,8.04,11.71c8.85,4.31,20.85,5.81,30.56,4.12
				C369.38,264.09,371.72,263.52,374.02,262.76z"/>
			<path class="st5" d="M352.48,272.94c0.76-0.13,1.46-0.28,2.07-0.44c4.66-1.22,8.66-4.32,11.71-7.6c1.52-1.63,3.14-4.16,3.23-6.32
				c0.07-1.87,0.38-4.69-1.32-6.09c-2.57-2.13-5.83-0.46-8.36,0.61c-1.24,0.52-2.52,0.59-3.87,0.46c-5.09-0.49-8.79-4.78-13.72-5.62
				c-3.73-0.64-7.75,0.16-8.54,3.88c-0.8,3.77-0.41,7.73,1.15,11.33c1.44,3.34,4.44,7.78,8.2,9.42
				C345.46,273.63,349.43,273.46,352.48,272.94z"/>
			<path class="st6" d="M387.12,252.17c-2.14-4.55-5.79-8.49-10.56-10.57c-5.49-2.39-9.71-0.96-15.35-0.24
				c-4.25,0.54-9.57,0.67-13.76-0.32c-3.56-0.84-6.6-2.31-10.45-1.6c-6.11,1.11-9.69,8.34-10.29,13.67
				c-0.96,8.48-0.52,18.82,5.11,25.93c9.89,12.48,32.08,12.29,44.38,3.42C386.06,275.35,392.67,263.96,387.12,252.17z M352.5,278.73
				c-0.22,0.02-0.44,0.03-0.66,0.05c-4.51,0.26-10.01,0.02-13.86-2.52c-4.6-3.03-7.12-8.07-8.11-13.23
				c-1.3-6.76-0.68-12.39,4.46-17.64c3.39-3.46,7.07-4,11.7-3.07c3.31,0.67,6.79,0.59,10.29,0.6c3.55,0.01,7.18-1.52,10.5,0.2
				c7.92,4.1,8.75,9.89,7.7,17.99c-0.6,4.68-3.33,9-7.17,11.89C363.07,276.23,357.92,278.28,352.5,278.73z"/>
			<path class="st7" d="M387.12,252.17c-2.14-4.55-5.79-8.49-10.56-10.57c-3.64-1.58-6.71-1.49-10.01-1.04
				c7.42,1.44,13.68,6.62,14.88,14.31c1.4,9-2.26,19.13-10.56,23.98c-7.61,4.44-19.02,6.01-27.64,3.6
				c-6.32-1.77-12.53-6.08-15.56-11.83c0.86,3.06,2.19,5.94,4.15,8.42c9.89,12.48,32.08,12.29,44.38,3.42
				C386.06,275.35,392.67,263.96,387.12,252.17z"/>
			<path class="st8" d="M382.19,246.86c-3.08-3.27-7.43-5.37-12.66-5.26c2.92,0.02,5.44,2.67,7.39,4.46c2.49,2.29,4,5.56,4.5,8.81
				c1.4,9-2.26,19.13-10.56,23.98c-7.61,4.44-19.02,6.01-27.64,3.6c-4.25-1.19-8.86-3.36-11.69-6.77c-0.89-1.07-1.38-2.46-1.95-3.53
				c-0.12,2.49,2.6,6.15,4.39,7.81c1.63,1.51,3.73,2.58,5.67,3.68c5.46,3.11,11.83,3.68,18.06,3.69c3.27,0,6.77-0.74,9.77-1.95
				c2.39-0.97,5.52-1.72,7.52-3.31c0.37-0.3,0.74-0.6,1.11-0.91c1.74-1.5,3.27-3.16,4.95-4.68c2.53-3.73,4.53-8.03,5.59-12.18
				C388.25,258.06,386.43,251.36,382.19,246.86z"/>
			<path class="st9" d="M343.18,284.4c2.5,1.46,5.55,2.32,8.78,2.7c1.72,0.15,3.46,0.21,5.19,0.22c2.45-0.08,4.89-0.39,7.16-0.9
				c1.09-0.29,2.16-0.64,3.17-1.05c0.99-0.4,2.11-0.77,3.22-1.17c12.56-6.24,18.61-22.48,11.93-34.6c0.58,1.79,0.89,3.67,0.95,5.6
				c0.3,9.42-2.4,18.51-10.65,24.2c-7.15,4.93-15.36,6.6-24.04,5.39c-3.28-0.46-6.54-1.32-9.45-2.71
				C340.68,282.9,341.94,283.68,343.18,284.4z"/>
			<path class="st7" d="M345.78,246.56c0.13,0.26,0.33,0.54,0.62,0.86c1.82,1.99,5.93,2.76,8.54,2.97c3.3,0.26,6.49-0.72,9.56-1.75
				c0.97-0.32,6.84-2.08,3.45-3.35c-1.2-0.45-2.81-0.56-4.13-0.45c-1.3,0.11-2.25,0.72-3.48,0.92c-1.79,0.28-3.34-0.72-5.06-1.03
				c-1.87-0.34-3.79-0.33-5.69-0.33C347.74,244.4,344.85,244.73,345.78,246.56z"/>
			<path class="st9" d="M357.4,248.01c-0.85,0.13-1.7,0.2-2.57-0.1c-1.66-0.57-5.28-2.03-6.92-0.85c-2.55,1.86,5.66,3.22,7.03,3.33
				c3.3,0.26,6.49-0.72,9.56-1.75c0.09-0.03,0.22-0.07,0.38-0.12c-0.97-0.12-1.85-0.14-2.75-0.36c-0.85-0.21-1.39-0.51-2.33-0.49
				C358.99,247.69,358.19,247.88,357.4,248.01z"/>
			<path class="st10" d="M334,250.5c0.01,0.53,0.06,1.07,0.14,1.6c0.3,1.92,1.13,2.21,2.25,3.7c0.99,1.3,1.41,1.87,2.94,2.65
				c1.32,0.67,2.39,1.67,3.82,2.14c5.69,1.87,12.85-0.97,18.52-1.74c2.67-0.36,6.3-0.3,8.33-2.3c1.85-1.84,3.51-5.77,0.4-7.24
				c-2.28-1.08-4.72,0.61-6.47,1.91c-2.95,2.21-5.2,3.32-8.99,2.34c-3.21-0.83-6.91-1.5-9.31-3.81c-1-0.96-1.75-2.18-2.21-3.46
				c-0.31-0.87-0.3-1.84-1.07-2.49c-1.57-1.31-4.23-0.52-5.64,0.58C334.73,245.92,333.97,248.17,334,250.5z"/>
			<path class="st11" d="M338.61,252.51c1.06,1.86,1.49,2.72,3.76,3.36c1.94,0.55,3.79,1.48,5.66,1.96
				c3.31,0.84,7.98-0.01,11.27-0.57c1.65-0.28,4.1-0.58,5.5-1.42c1.08-0.64,2.87-3.19,0.56-3.47c-1.65-0.2-2.26,1.55-3.5,2.2
				c-1.39,0.72-3.71,0.87-5.22,0.6c-2.41-0.43-4.98-0.86-7.36-1.47c-3.04-0.79-5.83-2.45-6.43-5.61c-0.33-1.74-0.72-3.11-2.8-3.48
				C333.87,243.53,337.34,250.28,338.61,252.51z"/>
			<path class="st12" d="M343.64,253.93c2.4-0.52-1.71-5.77-3.04-6.09C336.06,246.73,338.8,254.98,343.64,253.93z"/>
			<path class="st12" d="M349.28,255.73c0.57-1.47-1.15-2.3-2.44-1.59C344.7,255.31,348.55,257.62,349.28,255.73z"/>
			<path class="st12" d="M364.81,252.87c-0.26,0-0.55,0.07-0.82,0.25c-1.11,0.7-0.71,1.74,0.5,1.68
				C365.8,254.74,366.37,252.87,364.81,252.87z"/>
		</g>
		<g>
			<path class="st13" d="M359.58,228.81c-1.47,1.37-3.1,3.74-3.77,5.73c-1.07,3.2-1.44,6.67-1.25,10.09c0,0-0.01,0-0.01,0
				c0.01,0.3,0.04,0.59,0.07,0.88c0,0.04,0,0.07,0.01,0.11c0.13,1.5,0.35,3,0.68,4.44c0.02,0.09,0.04,0.21,0.07,0.34
				c0.58,0.03,1.17,0.02,1.74-0.02c-0.15-0.98-0.53-2.09-0.72-2.9l0,0c-0.04-0.17-0.07-0.33-0.09-0.47
				c-0.05-0.41-0.08-0.83-0.11-1.24c-0.01-0.27-0.03-0.55-0.03-0.83l0,0c-0.04-1.47,0.08-2.94,0.32-4.4
				c0.8-4.82,2.51-9.29,7.23-11.09C364.08,226.29,360.77,227.7,359.58,228.81z"/>
			<path class="st14" d="M362.54,228.72c-0.55,0.29-1.07,0.65-1.58,1.03c-1.94,1.77-3.66,4.16-4.69,8.21
				c-1.06,4.13-0.85,7.92,0.33,12.45c0.17,0,0.34-0.01,0.51-0.02c-0.15-0.98-0.53-2.09-0.72-2.9l0,0c-0.04-0.17-0.07-0.33-0.09-0.47
				c-0.05-0.41-0.08-0.83-0.11-1.24c-0.01-0.27-0.03-0.55-0.03-0.83c-0.04-1.47,0.08-2.94,0.32-4.4c0.8-4.82,2.51-9.29,7.23-11.09
				c0.06-0.53,0-0.92-0.12-1.21C363.25,228.39,362.89,228.54,362.54,228.72z"/>
			<path class="st15" d="M362.27,228.5c0.38,0.78,1.2,1.06,1.45,0.96c0.17-1.54-0.52-1.99-1.41-1.93
				C362.09,227.54,362.13,228.21,362.27,228.5z"/>
			<path class="st16" d="M362.27,228.5c0.38,0.78,1.2,1.06,1.45,0.96c0,0-0.97-0.36-1.11-1.04c-0.14-0.66,0.12-0.88,0.12-0.88
				c-0.13-0.02-0.27-0.02-0.42-0.02C362.09,227.54,362.13,228.21,362.27,228.5z"/>
		</g>
		<g>
			<path class="st17" d="M356.29,228.5c0.26,0.03,0.52,0.08,0.78,0.14c0.99,0.21,3.22,0.74,4.08,0.02c2.25-1.89-2.7-0.67-3.34-0.68
				c-4.63-0.08-2.95-4.51-3.38-7.46c-0.48-3.31-3.26-5.22-6.49-5.81c-1.6-0.3-3.22-0.47-4.85-0.44c-2.8,0.05-5.06,0.09-7.76-0.78
				c-0.93-0.3-1.94-0.71-2.71-1.31c-0.21,3.23,0.16,6.4,2.19,9c2.07,2.64,3.32,5.29,6.49,6.98c1.93,1.03,4.24,2.28,6.47,2.19
				c1.11-0.05,2.07-0.22,3.11-0.63C352.87,228.94,353.97,228.18,356.29,228.5z"/>
			<path class="st18" d="M335.63,216.44c0.32,0.22,0.87,0.79,0.8,1.04c-0.14,0.46-1.15,0.53-0.94,1.32c0.27,1,1.14-0.1,1.81,0.01
				c0.17,0.72-1.9,2.8-0.7,3.27c0.49,0.19,1-0.42,1.19-0.76c0.34-0.62,0.15-0.97,0.87-1.22c0.95-0.34,1.47-0.33,1.5,0.67
				c0.02,0.54,0.08,1.58-0.13,2.08c-0.27,0.63-0.91,0.68-0.81,1.45c0.07,0.55,0.64,1.16,1.25,1.16c0.17,0.93,1.07,0.01,1.26-0.41
				c0.2-0.44,0.12-1.05,0.39-1.45c0.15-0.22,0.43-0.28,0.56-0.45c0.4-0.58,0.22-1.36,0.89-1.82c0.62-0.42,1.4-0.32,1.27,0.54
				c-0.1,0.65-0.77,1.32-0.95,2.04c-0.13,0.49-1.02,1.98-0.72,2.46c0.74,1.17,1.96-1.97,2.44-2.28c-0.01,0.14,0.04,0.3,0.03,0.44
				c0.59-0.25,0.47-1.51,1.33-1.52c0.77-0.01,0.69,0.9,0.63,1.47c-0.09,1-1.03,3.19,0,3.95c0.81,0.59,0.87-0.33,1.32-0.63
				c0.59-0.38,1.13,0.03,1.62,0.15c0.91,0.23,2.7,0.04,3.62-0.22c-0.22-0.17-0.48-0.38-0.65-0.67c-0.33-0.59-0.04-0.48,0.1-0.93
				c0.22-0.74,0.29-1.77,0.3-2.56c-0.75-0.05-1.04,1.15-1.81,0.98c-1.04-0.23-0.08-2.48,0.06-3.13c0.12-0.59,0.31-2.47-0.68-2.69
				c-0.56-0.12-0.78,0.76-1.18,1.11c-0.75,0.65-2.74,2.66-2.79,0.51c-0.02-0.66,0.36-1.19,0.46-1.83c0.16-1.06-0.13-0.77-0.85-1.07
				c-0.7-0.29-0.95-1.16-1.82-0.61c-0.67,0.42-0.75,0.95-1.6,0.16c-0.6-0.57-0.9-1.25-1.88-1.15c-0.72,0.07-0.77,0.66-1.36,0.9
				c-1.59,0.63-2.03-1.09-2.98-1.66c-0.58-0.36-1.42-0.25-2.06-0.38c-0.58-0.11-0.87-0.5-1.33-0.76c0.23,0.13-0.38,1.67-0.26,1.91
				C334.01,216.23,335.21,216.15,335.63,216.44z"/>
			<path class="st19" d="M353.56,227.34c-0.16-0.06-0.31-0.13-0.45-0.22c-0.44-0.3-0.88-0.71-1.31-1.05
				c-0.97-0.78-1.78-1.72-2.55-2.67c-1.45-1.77-3-4.14-5.27-5.03c-0.41-0.16-0.84-0.3-1.25-0.45c-2.72-0.67-6.44-0.89-8.19-3.22
				c0.54,1.12,1.45,1.99,2.67,2.54c0.65,0.29,1.99,0.07,1.63,1.16c0.49-0.74,2.1-0.13,2.72,0.21c0.3,0.16,0.31,0.42,0.53,0.58
				c0.18,0.13,0.59-0.02,0.73,0.11c0.24,0.21,0.04,1.27-0.03,1.51c0.2-0.35,0.51-0.85,0.83-1.13c0.57-0.5,0.56-0.04,0.95,0.28
				c0.42,0.34,0.89,0.27,1.03,0.91c0.07,0.34,0.05,0.93-0.15,1.21c0.26-0.41,0.4-0.53,0.75-0.4c0.54,0.2,1.1,0.63,1.41,1.09
				c0.37,0.55,0.43,0.78,0.46,1.41c0.4-0.4,0.82,0.08,0.85,0.46c0.04,0.55-0.43,1.04-0.17,1.61c-0.14-0.3,0.2-0.89,0.48-0.96
				c0.51-0.13,1.09,0.57,1.47,0.8c0.79,0.48,1.54,1.26,2.48,1.45c0.47,0.09,1.01,0.46,1.5,0.44
				C354.41,227.61,353.97,227.5,353.56,227.34z"/>
			<path class="st20" d="M357.82,227.97c-0.66-0.01-1.18-0.12-1.61-0.29c-0.69-0.17-3.95-1.49-5.39-2.79
				c-2.19-1.98-2.83-3.79-4.51-5.17c-2.19-1.8-4.73-2.01-7.42-2.81c-1.93-0.58-3.7-1.28-4.55-2.33c1.57,2.97,7.56,3.16,10.58,5.08
				c1.94,1.23,2.44,2.81,3.98,4.41c1.8,1.87,4,3.37,6.4,4.36c0.31,0,0.64,0.02,1,0.07c0.26,0.03,0.52,0.08,0.78,0.14
				c0.99,0.21,3.22,0.74,4.08,0.02C363.41,226.76,358.46,227.99,357.82,227.97z"/>
			<path class="st21" d="M357.82,227.97c-0.66-0.01-1.18-0.12-1.61-0.29c-0.69-0.17-3.95-1.49-5.39-2.79
				c-2.19-1.98-2.83-3.79-4.51-5.17c-2.19-1.8-4.73-2.01-7.42-2.81c-1.93-0.58-3.7-1.28-4.55-2.33c1.57,2.97,7.46,2.61,10.48,4.53
				c1.94,1.23,2.89,3.13,4.43,4.73c1.8,1.87,6.25,4.22,8.04,4.42c0.57,0.07,2.45-0.4,3.35-0.31c0.69,0.07,0.52,0.71,0.52,0.71
				C363.41,226.76,358.46,227.99,357.82,227.97z"/>
			<g>
				<path class="st19" d="M342.68,221.63c0.04-0.16,0.07-0.31,0.11-0.47C342.76,221.28,342.72,221.44,342.68,221.63z"/>
				<path class="st19" d="M350.59,227.74c-0.07,0.56-0.49,1.71-1.03,2.02c-0.93,0.53-2.31,0.36-2.92-0.49
					c-1.2-1.7,0.09-4.61,0.22-6.34c-1.23,1.27-0.62,5.44-2.86,5.71c-2.37,0.28-1.14-3.93-0.8-4.91c0.17-0.49,0.32-0.97,0.58-1.42
					c0.25-0.45,0.69-0.8,0.9-1.24c-0.78,0.61-1.33,1.3-1.72,2.2c-0.44,1.03-0.44,2.65-1.29,3.48c-0.86,0.84-1.76,0.02-2.11-0.82
					c-0.83,0.15-1.54-0.89-1.68-1.54c-0.23-1.03,0.45-1.96,0.56-2.95c-0.02,0.19-1.27,1.54-1.53,1.59
					c-1.14,0.22-1.59-1.56-1.25-2.28c-1.33,0.53-1.48-1.16-1.62-1.92c-0.12-0.7-0.35-0.64,0.23-1.14c0.38-0.33,0.94-0.42,1.35-0.73
					c-0.51,0.38-1.84,0.44-2.34,0.07c-0.79-0.57-0.3-1.19-0.33-1.98c-0.03-0.86-0.54-1.69,0.66-1.87c0.96-0.14,1.81,0.75,2.69,0.97
					c0.69,0.18,1.49,0.11,2.14,0.43c0.9,0.45,0.91,1.32,1.07,2.23c0.1-0.7,0.06-1.79,0.68-2.16c0.6-0.36,1.68-0.02,2.36-0.12
					c1.65-0.24,1.75,0.87,2.42,1.97c0.16-0.37-0.11-1.28,0.21-1.61c0.59-0.61,0.85,0.2,1.28,0.26c0.55,0.07,0.97-0.43,1.66-0.25
					c0.69,0.17,1.56,1.13,1.6,1.81c0.06,1.05-0.74,2.26-0.88,3.32c0.49-0.81,0.97-2.63,1.65-3.17c1.24-0.96,1.02,0.7,1.11,1.44
					c0.1-0.42,0.49-1.05,1.02-0.81c0.36,0.16,0.55,0.56,0.7,0.87c0.19,0.39,0.16,0.74,0.24,1.14c0.16,0.8-0.32,1.68-0.67,2.38
					c0.3-0.28,0.57-0.69,0.99-0.78c0.41,1.13,0.43,1.95,0.29,3.07c-0.08,0.66-0.01,1.5,0.51,1.93c-0.51-1.57-0.04-3.82-0.29-5.56
					c-0.48-3.31-3.26-5.22-6.49-5.81c-1.6-0.3-3.22-0.47-4.85-0.44c-2.8,0.05-5.06,0.09-7.76-0.78c-0.93-0.3-1.94-0.71-2.71-1.31
					c-0.21,3.23,0.16,6.4,2.19,9c2.07,2.64,3.32,5.29,6.49,6.98c1.93,1.03,4.24,2.28,6.47,2.19c1.11-0.05,2.07-0.22,3.11-0.63
					c1.26-0.49,2.16-0.97,3.23-1.18C352.67,228.18,350.3,229.94,350.59,227.74z"/>
			</g>
		</g>
	</g>
	<g>
		<g>
			<path class="st3" d="M320.17,351.48c-6.11,1.11-9.69,8.34-10.29,13.67c-0.96,8.48-0.52,18.82,5.11,25.93
				c9.89,12.48,32.08,12.29,44.38,3.42c9.87-7.12,16.48-18.5,10.93-30.29c-2.14-4.55-5.8-8.49-10.56-10.57
				c-5.49-2.39-9.71-0.96-15.35-0.24c-4.25,0.54-9.57,0.67-13.76-0.32C327.07,352.24,324.02,350.77,320.17,351.48z"/>
			<path class="st4" d="M357.2,374.81c4.35-2.04,8.56-5.15,9.39-9.43c0.25-1.32,0.54-3.89,0.35-6.34c-1.96-2.28-4.39-4.17-7.21-5.4
				c-5.49-2.39-9.71-0.96-15.35-0.24c-4.25,0.54-9.57,0.67-13.76-0.32c-3.56-0.84-6.6-2.31-10.45-1.6c-3.82,0.69-6.65,3.78-8.38,7.3
				c-0.08,0.65-0.11,1.3-0.09,1.93c0.18,5.26,3.21,9.36,8.04,11.71c8.85,4.31,20.85,5.81,30.56,4.12
				C352.55,376.14,354.89,375.57,357.2,374.81z"/>
			<path class="st5" d="M335.66,384.99c0.76-0.13,1.46-0.28,2.07-0.44c4.66-1.22,8.66-4.32,11.71-7.6c1.52-1.63,3.14-4.16,3.23-6.32
				c0.07-1.87,0.38-4.69-1.32-6.09c-2.57-2.13-5.83-0.46-8.36,0.61c-1.24,0.52-2.52,0.59-3.87,0.46c-5.09-0.49-8.79-4.78-13.72-5.62
				c-3.73-0.64-7.75,0.16-8.54,3.88c-0.8,3.77-0.41,7.73,1.15,11.33c1.44,3.34,4.44,7.78,8.2,9.42
				C328.63,385.68,332.6,385.51,335.66,384.99z"/>
			<path class="st6" d="M370.29,364.21c-2.14-4.55-5.8-8.49-10.56-10.57c-5.49-2.39-9.71-0.96-15.35-0.24
				c-4.25,0.54-9.57,0.67-13.76-0.32c-3.56-0.84-6.6-2.31-10.45-1.6c-6.11,1.11-9.69,8.34-10.29,13.67
				c-0.96,8.48-0.52,18.82,5.11,25.93c9.89,12.48,32.08,12.29,44.38,3.42C369.23,387.39,375.84,376.01,370.29,364.21z
				 M335.67,390.78c-0.22,0.02-0.44,0.03-0.66,0.05c-4.51,0.26-10.01,0.02-13.86-2.52c-4.6-3.03-7.12-8.07-8.11-13.23
				c-1.3-6.76-0.68-12.39,4.46-17.64c3.39-3.46,7.07-4,11.7-3.07c3.31,0.67,6.79,0.59,10.29,0.6c3.55,0.01,7.18-1.52,10.5,0.2
				c7.92,4.1,8.75,9.89,7.7,17.99c-0.6,4.68-3.33,9-7.17,11.9C346.25,388.27,341.09,390.33,335.67,390.78z"/>
			<path class="st7" d="M370.29,364.21c-2.14-4.55-5.8-8.49-10.56-10.57c-3.64-1.58-6.71-1.49-10.01-1.04
				c7.42,1.44,13.68,6.62,14.88,14.31c1.4,9-2.26,19.13-10.56,23.98c-7.61,4.44-19.02,6.01-27.64,3.6
				c-6.32-1.77-12.53-6.08-15.56-11.83c0.86,3.06,2.19,5.94,4.15,8.42c9.89,12.48,32.08,12.29,44.38,3.42
				C369.23,387.39,375.84,376.01,370.29,364.21z"/>
			<path class="st8" d="M365.36,358.91c-3.08-3.27-7.43-5.37-12.66-5.26c2.92,0.02,5.44,2.67,7.39,4.46c2.49,2.29,4,5.56,4.5,8.81
				c1.4,9-2.26,19.13-10.56,23.98c-7.61,4.44-19.02,6.01-27.64,3.6c-4.25-1.19-8.86-3.36-11.69-6.77c-0.89-1.07-1.38-2.46-1.95-3.53
				c-0.12,2.49,2.6,6.15,4.39,7.81c1.63,1.51,3.73,2.58,5.67,3.68c5.46,3.11,11.83,3.68,18.06,3.69c3.27,0,6.77-0.74,9.77-1.95
				c2.39-0.97,5.52-1.72,7.52-3.31c0.37-0.3,0.75-0.6,1.11-0.91c1.74-1.5,3.27-3.16,4.95-4.68c2.53-3.73,4.53-8.03,5.59-12.18
				C371.42,370.11,369.6,363.4,365.36,358.91z"/>
			<path class="st9" d="M326.35,396.44c2.5,1.46,5.55,2.32,8.78,2.7c1.72,0.15,3.46,0.21,5.19,0.22c2.45-0.08,4.89-0.39,7.16-0.9
				c1.09-0.29,2.16-0.64,3.17-1.05c0.99-0.4,2.11-0.77,3.22-1.17c12.56-6.24,18.61-22.48,11.93-34.6c0.58,1.79,0.89,3.67,0.95,5.6
				c0.3,9.42-2.4,18.51-10.65,24.2c-7.15,4.93-15.36,6.6-24.04,5.39c-3.28-0.46-6.54-1.32-9.45-2.71
				C323.85,394.95,325.11,395.73,326.35,396.44z"/>
			<path class="st7" d="M328.95,358.61c0.13,0.26,0.33,0.54,0.62,0.86c1.82,1.99,5.93,2.76,8.54,2.97c3.3,0.26,6.49-0.72,9.56-1.75
				c0.97-0.32,6.84-2.08,3.45-3.35c-1.2-0.45-2.81-0.56-4.13-0.45c-1.3,0.11-2.25,0.72-3.48,0.92c-1.79,0.28-3.34-0.72-5.06-1.03
				c-1.87-0.34-3.79-0.33-5.69-0.33C330.91,356.45,328.02,356.77,328.95,358.61z"/>
			<path class="st9" d="M340.57,360.05c-0.85,0.13-1.7,0.2-2.57-0.1c-1.66-0.57-5.28-2.03-6.92-0.85c-2.55,1.86,5.66,3.22,7.03,3.33
				c3.3,0.26,6.49-0.72,9.56-1.75c0.09-0.03,0.22-0.07,0.38-0.12c-0.97-0.12-1.85-0.14-2.75-0.36c-0.85-0.21-1.39-0.51-2.33-0.49
				C342.16,359.74,341.36,359.93,340.57,360.05z"/>
			<path class="st10" d="M317.17,362.55c0.01,0.53,0.06,1.07,0.14,1.6c0.3,1.92,1.13,2.21,2.25,3.7c0.99,1.3,1.41,1.87,2.94,2.65
				c1.32,0.67,2.39,1.67,3.82,2.14c5.69,1.87,12.85-0.97,18.52-1.74c2.67-0.36,6.3-0.3,8.33-2.3c1.85-1.84,3.5-5.77,0.4-7.24
				c-2.28-1.08-4.72,0.61-6.47,1.91c-2.95,2.21-5.2,3.32-8.99,2.34c-3.21-0.83-6.91-1.5-9.31-3.81c-1-0.96-1.75-2.18-2.21-3.46
				c-0.31-0.87-0.3-1.84-1.07-2.49c-1.57-1.31-4.23-0.52-5.64,0.58C317.9,357.96,317.14,360.21,317.17,362.55z"/>
			<path class="st11" d="M321.78,364.56c1.06,1.86,1.49,2.72,3.76,3.36c1.94,0.55,3.79,1.48,5.66,1.96
				c3.31,0.84,7.98-0.01,11.27-0.57c1.65-0.28,4.1-0.58,5.5-1.42c1.08-0.64,2.87-3.19,0.56-3.47c-1.65-0.2-2.26,1.55-3.5,2.2
				c-1.39,0.72-3.71,0.87-5.22,0.6c-2.41-0.43-4.98-0.86-7.36-1.47c-3.04-0.79-5.83-2.45-6.43-5.61c-0.33-1.74-0.72-3.11-2.8-3.48
				C317.04,355.58,320.51,362.32,321.78,364.56z"/>
			<path class="st12" d="M326.81,365.98c2.4-0.52-1.71-5.77-3.04-6.09C319.23,358.78,321.97,367.02,326.81,365.98z"/>
			<path class="st12" d="M332.45,367.78c0.57-1.47-1.15-2.3-2.44-1.59C327.87,367.35,331.72,369.67,332.45,367.78z"/>
			<path class="st12" d="M347.98,364.92c-0.26,0-0.55,0.07-0.82,0.25c-1.11,0.7-0.71,1.74,0.5,1.68
				C348.97,366.79,349.54,364.92,347.98,364.92z"/>
		</g>
		<g>
			<path class="st13" d="M342.76,340.86c-1.47,1.37-3.1,3.75-3.77,5.73c-1.07,3.2-1.44,6.67-1.25,10.09c0,0-0.01,0-0.01,0
				c0.01,0.3,0.04,0.59,0.07,0.88c0,0.04,0,0.07,0.01,0.11c0.13,1.5,0.35,3,0.68,4.44c0.02,0.09,0.04,0.21,0.07,0.34
				c0.58,0.03,1.17,0.02,1.74-0.02c-0.15-0.98-0.53-2.09-0.72-2.9l0,0c-0.04-0.17-0.07-0.33-0.09-0.47
				c-0.05-0.41-0.08-0.83-0.11-1.24c-0.01-0.27-0.03-0.55-0.03-0.83l0,0c-0.04-1.47,0.08-2.94,0.32-4.4
				c0.8-4.82,2.51-9.29,7.23-11.09C347.25,338.34,343.94,339.75,342.76,340.86z"/>
			<path class="st14" d="M345.72,340.77c-0.55,0.29-1.07,0.65-1.58,1.03c-1.94,1.77-3.66,4.16-4.69,8.21
				c-1.06,4.13-0.85,7.92,0.33,12.45c0.17,0,0.34-0.01,0.51-0.02c-0.15-0.98-0.53-2.09-0.72-2.9l0,0c-0.04-0.17-0.07-0.33-0.09-0.47
				c-0.05-0.41-0.08-0.83-0.11-1.24c-0.01-0.27-0.03-0.55-0.03-0.83c-0.04-1.47,0.08-2.94,0.32-4.4c0.8-4.82,2.51-9.29,7.23-11.09
				c0.06-0.53,0-0.92-0.12-1.21C346.42,340.44,346.06,340.58,345.72,340.77z"/>
			<path class="st15" d="M345.45,340.54c0.38,0.78,1.2,1.06,1.45,0.96c0.17-1.54-0.52-1.99-1.41-1.93
				C345.26,339.59,345.3,340.26,345.45,340.54z"/>
			<path class="st16" d="M345.45,340.54c0.38,0.78,1.2,1.06,1.45,0.96c0,0-0.97-0.36-1.11-1.04c-0.14-0.66,0.12-0.88,0.12-0.88
				c-0.13-0.02-0.27-0.02-0.42-0.02C345.26,339.59,345.3,340.26,345.45,340.54z"/>
		</g>
		<g>
			<path class="st17" d="M339.46,340.54c0.26,0.03,0.52,0.08,0.78,0.14c0.99,0.21,3.22,0.74,4.08,0.02c2.25-1.89-2.7-0.67-3.34-0.68
				c-4.63-0.08-2.95-4.51-3.38-7.46c-0.48-3.31-3.26-5.22-6.49-5.81c-1.6-0.3-3.22-0.47-4.85-0.44c-2.8,0.05-5.06,0.09-7.76-0.78
				c-0.93-0.3-1.94-0.71-2.71-1.31c-0.21,3.23,0.16,6.4,2.19,9c2.07,2.64,3.32,5.29,6.49,6.98c1.93,1.03,4.24,2.28,6.47,2.19
				c1.11-0.05,2.07-0.22,3.11-0.63C336.04,340.98,337.14,340.22,339.46,340.54z"/>
			<path class="st18" d="M318.8,328.48c0.32,0.21,0.87,0.79,0.8,1.04c-0.14,0.46-1.15,0.53-0.94,1.32c0.27,1,1.14-0.1,1.81,0.01
				c0.17,0.72-1.9,2.8-0.7,3.27c0.49,0.19,1-0.42,1.19-0.76c0.34-0.62,0.15-0.97,0.87-1.22c0.95-0.34,1.47-0.33,1.5,0.67
				c0.02,0.54,0.08,1.58-0.13,2.08c-0.27,0.63-0.91,0.67-0.81,1.45c0.07,0.55,0.64,1.16,1.25,1.16c0.17,0.93,1.07,0.01,1.26-0.41
				c0.2-0.44,0.12-1.05,0.39-1.45c0.15-0.22,0.43-0.28,0.56-0.45c0.4-0.58,0.22-1.36,0.89-1.82c0.62-0.42,1.4-0.32,1.27,0.54
				c-0.1,0.65-0.77,1.32-0.95,2.04c-0.13,0.49-1.02,1.98-0.72,2.46c0.74,1.17,1.96-1.97,2.44-2.28c-0.01,0.14,0.04,0.3,0.03,0.44
				c0.59-0.25,0.47-1.51,1.33-1.52c0.77-0.01,0.69,0.9,0.63,1.47c-0.09,1-1.03,3.19,0,3.95c0.81,0.59,0.87-0.33,1.32-0.63
				c0.59-0.38,1.13,0.03,1.62,0.15c0.91,0.23,2.7,0.04,3.62-0.22c-0.22-0.17-0.48-0.38-0.65-0.67c-0.33-0.59-0.04-0.48,0.1-0.93
				c0.22-0.74,0.29-1.77,0.3-2.56c-0.75-0.05-1.04,1.15-1.81,0.98c-1.04-0.23-0.08-2.48,0.06-3.13c0.12-0.59,0.31-2.47-0.68-2.69
				c-0.56-0.12-0.78,0.76-1.18,1.11c-0.75,0.65-2.74,2.66-2.79,0.51c-0.02-0.66,0.36-1.19,0.46-1.83c0.16-1.06-0.13-0.77-0.85-1.07
				c-0.7-0.29-0.95-1.16-1.82-0.61c-0.67,0.42-0.75,0.95-1.6,0.16c-0.6-0.57-0.9-1.25-1.88-1.15c-0.72,0.07-0.77,0.66-1.36,0.9
				c-1.59,0.63-2.03-1.09-2.98-1.66c-0.58-0.36-1.42-0.25-2.06-0.38c-0.58-0.11-0.87-0.5-1.33-0.76c0.23,0.13-0.38,1.67-0.26,1.91
				C317.18,328.28,318.38,328.2,318.8,328.48z"/>
			<path class="st19" d="M336.73,339.39c-0.16-0.06-0.31-0.13-0.45-0.22c-0.44-0.3-0.88-0.71-1.31-1.05
				c-0.97-0.78-1.78-1.72-2.55-2.67c-1.45-1.77-3-4.14-5.27-5.03c-0.41-0.16-0.84-0.3-1.25-0.45c-2.72-0.67-6.44-0.89-8.19-3.22
				c0.54,1.12,1.45,1.99,2.67,2.54c0.65,0.29,1.99,0.07,1.63,1.16c0.49-0.74,2.1-0.13,2.72,0.21c0.3,0.16,0.31,0.42,0.53,0.58
				c0.18,0.13,0.59-0.02,0.73,0.11c0.24,0.21,0.04,1.27-0.03,1.51c0.2-0.35,0.51-0.85,0.83-1.13c0.57-0.5,0.56-0.04,0.95,0.28
				c0.42,0.34,0.89,0.27,1.03,0.91c0.07,0.34,0.05,0.93-0.15,1.21c0.26-0.41,0.4-0.53,0.75-0.4c0.54,0.2,1.1,0.63,1.41,1.09
				c0.37,0.55,0.43,0.78,0.46,1.41c0.4-0.4,0.82,0.08,0.85,0.46c0.04,0.55-0.43,1.04-0.17,1.61c-0.14-0.3,0.2-0.89,0.48-0.96
				c0.51-0.13,1.09,0.57,1.47,0.8c0.79,0.48,1.54,1.26,2.48,1.45c0.47,0.09,1.01,0.46,1.5,0.44
				C337.58,339.65,337.14,339.55,336.73,339.39z"/>
			<path class="st20" d="M340.99,340.02c-0.66-0.01-1.18-0.12-1.61-0.29c-0.69-0.17-3.95-1.49-5.39-2.79
				c-2.19-1.98-2.83-3.79-4.51-5.17c-2.19-1.8-4.73-2.01-7.42-2.81c-1.93-0.58-3.7-1.28-4.55-2.33c1.57,2.97,7.56,3.16,10.58,5.08
				c1.94,1.23,2.44,2.81,3.98,4.41c1.8,1.87,4,3.37,6.4,4.36c0.31,0,0.64,0.02,1,0.07c0.26,0.03,0.52,0.08,0.78,0.14
				c0.99,0.21,3.22,0.74,4.08,0.02C346.58,338.81,341.63,340.03,340.99,340.02z"/>
			<path class="st21" d="M340.99,340.02c-0.66-0.01-1.18-0.12-1.61-0.29c-0.69-0.17-3.95-1.49-5.39-2.79
				c-2.19-1.98-2.83-3.79-4.51-5.17c-2.19-1.8-4.73-2.01-7.42-2.81c-1.93-0.58-3.7-1.28-4.55-2.33c1.57,2.97,7.46,2.61,10.48,4.53
				c1.94,1.23,2.89,3.13,4.43,4.73c1.8,1.87,6.25,4.22,8.04,4.42c0.57,0.07,2.45-0.4,3.35-0.31c0.69,0.07,0.52,0.71,0.52,0.71
				C346.58,338.81,341.63,340.03,340.99,340.02z"/>
			<g>
				<path class="st19" d="M325.85,333.67c0.04-0.16,0.07-0.31,0.11-0.47C325.93,333.32,325.89,333.49,325.85,333.67z"/>
				<path class="st19" d="M333.76,339.79c-0.07,0.56-0.49,1.71-1.03,2.02c-0.93,0.53-2.31,0.36-2.92-0.49
					c-1.2-1.7,0.09-4.61,0.22-6.34c-1.23,1.27-0.62,5.44-2.86,5.71c-2.37,0.28-1.14-3.93-0.8-4.91c0.17-0.49,0.32-0.97,0.58-1.42
					c0.25-0.45,0.69-0.8,0.9-1.24c-0.78,0.61-1.33,1.3-1.72,2.2c-0.44,1.03-0.44,2.65-1.29,3.48c-0.86,0.84-1.76,0.02-2.11-0.82
					c-0.83,0.15-1.54-0.89-1.68-1.54c-0.23-1.03,0.45-1.96,0.56-2.95c-0.02,0.19-1.27,1.54-1.53,1.59
					c-1.14,0.22-1.59-1.56-1.25-2.28c-1.33,0.53-1.48-1.16-1.62-1.92c-0.12-0.7-0.35-0.64,0.23-1.14c0.38-0.33,0.94-0.42,1.35-0.73
					c-0.51,0.38-1.84,0.44-2.34,0.07c-0.79-0.57-0.3-1.19-0.33-1.98c-0.03-0.86-0.54-1.69,0.66-1.87c0.96-0.14,1.81,0.75,2.69,0.97
					c0.69,0.18,1.49,0.11,2.14,0.43c0.9,0.45,0.91,1.32,1.07,2.23c0.1-0.7,0.06-1.79,0.68-2.16c0.6-0.36,1.68-0.02,2.36-0.12
					c1.65-0.24,1.75,0.87,2.42,1.97c0.16-0.37-0.11-1.28,0.21-1.61c0.59-0.61,0.85,0.2,1.28,0.26c0.55,0.07,0.97-0.43,1.66-0.25
					c0.69,0.17,1.56,1.13,1.6,1.81c0.06,1.05-0.74,2.26-0.88,3.32c0.49-0.81,0.97-2.63,1.65-3.17c1.24-0.96,1.02,0.7,1.11,1.44
					c0.1-0.42,0.49-1.05,1.02-0.81c0.36,0.16,0.55,0.56,0.7,0.87c0.19,0.39,0.16,0.74,0.24,1.14c0.16,0.8-0.32,1.68-0.67,2.38
					c0.3-0.28,0.57-0.69,0.99-0.78c0.41,1.13,0.43,1.95,0.29,3.07c-0.08,0.66-0.01,1.5,0.51,1.93c-0.51-1.57-0.04-3.82-0.29-5.56
					c-0.48-3.31-3.26-5.22-6.49-5.81c-1.6-0.3-3.22-0.47-4.85-0.44c-2.8,0.05-5.06,0.09-7.76-0.78c-0.93-0.3-1.94-0.71-2.71-1.31
					c-0.21,3.23,0.16,6.4,2.19,9c2.07,2.64,3.32,5.29,6.49,6.98c1.93,1.03,4.24,2.28,6.47,2.19c1.11-0.05,2.07-0.22,3.11-0.63
					c1.26-0.49,2.16-0.97,3.23-1.18C335.85,340.23,333.47,341.99,333.76,339.79z"/>
			</g>
		</g>
	</g>
	<g>
		<g>
			<path class="st3" d="M275.15,402.27c-6.11,1.11-9.69,8.34-10.29,13.67c-0.96,8.48-0.52,18.82,5.11,25.93
				c9.89,12.48,32.08,12.29,44.38,3.42c9.87-7.12,16.48-18.5,10.93-30.29c-2.14-4.55-5.79-8.49-10.56-10.57
				c-5.49-2.39-9.71-0.96-15.35-0.24c-4.25,0.54-9.57,0.67-13.76-0.32C282.04,403.03,279,401.57,275.15,402.27z"/>
			<path class="st4" d="M312.17,425.6c4.35-2.04,8.56-5.15,9.39-9.43c0.25-1.32,0.54-3.89,0.35-6.34c-1.96-2.28-4.39-4.17-7.21-5.4
				c-5.49-2.39-9.71-0.96-15.35-0.24c-4.25,0.54-9.57,0.67-13.76-0.32c-3.56-0.84-6.6-2.31-10.45-1.6c-3.82,0.69-6.65,3.78-8.38,7.3
				c-0.08,0.65-0.11,1.3-0.09,1.93c0.18,5.26,3.21,9.36,8.04,11.71c8.85,4.31,20.85,5.81,30.56,4.12
				C307.53,426.93,309.87,426.37,312.17,425.6z"/>
			<path class="st5" d="M290.63,435.78c0.76-0.13,1.46-0.28,2.07-0.44c4.66-1.22,8.66-4.32,11.71-7.6c1.52-1.63,3.14-4.16,3.23-6.32
				c0.07-1.87,0.38-4.69-1.32-6.09c-2.57-2.13-5.83-0.46-8.36,0.61c-1.24,0.52-2.52,0.59-3.87,0.46c-5.09-0.49-8.79-4.78-13.72-5.62
				c-3.73-0.64-7.75,0.16-8.54,3.88c-0.8,3.77-0.41,7.73,1.15,11.33c1.44,3.34,4.44,7.78,8.2,9.42
				C283.61,436.48,287.58,436.31,290.63,435.78z"/>
			<path class="st6" d="M325.27,415.01c-2.14-4.55-5.79-8.49-10.56-10.57c-5.49-2.39-9.71-0.96-15.35-0.24
				c-4.25,0.54-9.57,0.67-13.76-0.32c-3.56-0.84-6.6-2.31-10.45-1.6c-6.11,1.11-9.69,8.34-10.29,13.67
				c-0.96,8.48-0.52,18.82,5.11,25.93c9.89,12.48,32.08,12.29,44.38,3.42C324.21,438.19,330.82,426.8,325.27,415.01z M290.65,441.57
				c-0.22,0.02-0.44,0.03-0.66,0.05c-4.51,0.26-10.01,0.02-13.86-2.52c-4.6-3.03-7.12-8.07-8.11-13.23
				c-1.3-6.76-0.68-12.39,4.46-17.64c3.39-3.46,7.07-4,11.7-3.07c3.31,0.67,6.79,0.59,10.29,0.6c3.55,0.01,7.18-1.52,10.5,0.2
				c7.92,4.1,8.75,9.89,7.7,17.99c-0.6,4.68-3.33,9-7.17,11.9C301.22,439.07,296.07,441.12,290.65,441.57z"/>
			<path class="st7" d="M325.27,415.01c-2.14-4.55-5.79-8.49-10.56-10.57c-3.64-1.58-6.71-1.49-10.01-1.04
				c7.42,1.44,13.68,6.62,14.88,14.31c1.4,9-2.26,19.13-10.56,23.98c-7.61,4.44-19.02,6.01-27.64,3.6
				c-6.32-1.77-12.53-6.08-15.56-11.83c0.86,3.06,2.19,5.94,4.15,8.42c9.89,12.48,32.08,12.29,44.38,3.42
				C324.21,438.19,330.82,426.8,325.27,415.01z"/>
			<path class="st8" d="M320.34,409.7c-3.08-3.27-7.43-5.37-12.66-5.26c2.92,0.02,5.44,2.67,7.39,4.46c2.49,2.29,4,5.56,4.5,8.81
				c1.4,9-2.26,19.13-10.56,23.98c-7.61,4.44-19.02,6.01-27.64,3.6c-4.25-1.19-8.86-3.36-11.69-6.77c-0.89-1.07-1.38-2.46-1.95-3.53
				c-0.12,2.49,2.6,6.15,4.39,7.81c1.63,1.51,3.73,2.58,5.67,3.68c5.46,3.11,11.83,3.68,18.06,3.69c3.27,0,6.77-0.74,9.77-1.95
				c2.39-0.97,5.52-1.72,7.52-3.31c0.37-0.3,0.74-0.6,1.11-0.91c1.74-1.5,3.27-3.16,4.95-4.68c2.53-3.73,4.53-8.03,5.59-12.18
				C326.4,420.91,324.58,414.2,320.34,409.7z"/>
			<path class="st9" d="M281.33,447.24c2.5,1.46,5.55,2.32,8.78,2.7c1.72,0.15,3.46,0.21,5.19,0.22c2.45-0.08,4.89-0.39,7.16-0.9
				c1.09-0.29,2.16-0.64,3.17-1.05c0.99-0.4,2.11-0.77,3.22-1.17c12.56-6.24,18.61-22.48,11.93-34.6c0.58,1.79,0.89,3.67,0.95,5.6
				c0.29,9.42-2.4,18.51-10.65,24.2c-7.15,4.93-15.36,6.6-24.04,5.39c-3.28-0.46-6.54-1.32-9.45-2.71
				C278.83,445.75,280.09,446.52,281.33,447.24z"/>
			<path class="st7" d="M283.93,409.41c0.13,0.26,0.33,0.54,0.62,0.86c1.82,1.99,5.93,2.76,8.54,2.97c3.3,0.26,6.49-0.72,9.56-1.75
				c0.97-0.32,6.84-2.08,3.45-3.35c-1.2-0.45-2.81-0.56-4.13-0.45c-1.3,0.11-2.25,0.72-3.48,0.92c-1.79,0.28-3.34-0.72-5.06-1.03
				c-1.87-0.34-3.79-0.33-5.69-0.33C285.89,407.24,283,407.57,283.93,409.41z"/>
			<path class="st9" d="M295.55,410.85c-0.85,0.13-1.7,0.2-2.57-0.1c-1.66-0.57-5.28-2.03-6.92-0.85c-2.55,1.86,5.66,3.22,7.03,3.33
				c3.3,0.26,6.49-0.72,9.56-1.75c0.09-0.03,0.22-0.07,0.38-0.12c-0.97-0.12-1.85-0.14-2.75-0.36c-0.85-0.21-1.39-0.51-2.33-0.49
				C297.14,410.53,296.34,410.72,295.55,410.85z"/>
			<path class="st10" d="M272.15,413.34c0.01,0.53,0.06,1.07,0.14,1.6c0.3,1.92,1.13,2.21,2.25,3.7c0.99,1.3,1.41,1.87,2.94,2.65
				c1.32,0.67,2.39,1.67,3.82,2.14c5.69,1.87,12.85-0.97,18.52-1.74c2.67-0.36,6.3-0.3,8.33-2.3c1.85-1.84,3.51-5.77,0.4-7.24
				c-2.28-1.08-4.72,0.61-6.47,1.91c-2.95,2.21-5.2,3.32-8.99,2.34c-3.21-0.83-6.91-1.5-9.31-3.81c-1-0.96-1.75-2.18-2.21-3.46
				c-0.31-0.87-0.3-1.84-1.07-2.49c-1.57-1.31-4.23-0.52-5.64,0.58C272.88,408.76,272.12,411.01,272.15,413.34z"/>
			<path class="st11" d="M276.76,415.36c1.06,1.86,1.49,2.72,3.76,3.36c1.94,0.55,3.79,1.48,5.66,1.96
				c3.31,0.84,7.98-0.01,11.27-0.57c1.65-0.28,4.1-0.58,5.5-1.42c1.08-0.64,2.87-3.19,0.56-3.47c-1.65-0.2-2.26,1.55-3.5,2.2
				c-1.39,0.72-3.71,0.87-5.22,0.6c-2.41-0.43-4.98-0.86-7.36-1.47c-3.04-0.79-5.83-2.45-6.43-5.61c-0.33-1.74-0.72-3.11-2.8-3.48
				C272.02,406.37,275.49,413.12,276.76,415.36z"/>
			<path class="st12" d="M281.79,416.78c2.4-0.52-1.71-5.77-3.04-6.09C274.21,409.57,276.95,417.82,281.79,416.78z"/>
			<path class="st12" d="M287.43,418.57c0.57-1.47-1.15-2.3-2.44-1.59C282.85,418.15,286.7,420.47,287.43,418.57z"/>
			<path class="st12" d="M302.96,415.71c-0.26,0-0.55,0.07-0.82,0.25c-1.11,0.7-0.71,1.74,0.5,1.68
				C303.95,417.58,304.52,415.72,302.96,415.71z"/>
		</g>
		<g>
			<path class="st13" d="M297.73,391.66c-1.47,1.37-3.1,3.75-3.77,5.73c-1.07,3.2-1.44,6.67-1.25,10.09c0,0-0.01,0-0.01,0
				c0.01,0.3,0.04,0.59,0.07,0.88c0,0.04,0,0.07,0.01,0.11c0.13,1.5,0.35,3,0.68,4.44c0.02,0.09,0.04,0.21,0.07,0.34
				c0.58,0.03,1.17,0.02,1.74-0.02c-0.15-0.98-0.53-2.09-0.72-2.9l0,0c-0.04-0.17-0.07-0.33-0.09-0.47
				c-0.05-0.41-0.08-0.83-0.11-1.24c-0.01-0.27-0.03-0.55-0.03-0.83l0,0c-0.04-1.47,0.08-2.94,0.32-4.4
				c0.8-4.82,2.51-9.29,7.23-11.09C302.23,389.14,298.92,390.54,297.73,391.66z"/>
			<path class="st14" d="M300.69,391.57c-0.55,0.29-1.07,0.65-1.58,1.03c-1.94,1.77-3.66,4.16-4.69,8.21
				c-1.06,4.13-0.85,7.92,0.33,12.45c0.17,0,0.34-0.01,0.51-0.02c-0.15-0.98-0.53-2.09-0.72-2.9l0,0c-0.04-0.17-0.07-0.33-0.09-0.47
				c-0.05-0.41-0.08-0.83-0.11-1.24c-0.01-0.27-0.03-0.55-0.03-0.83c-0.04-1.47,0.08-2.94,0.32-4.4c0.8-4.82,2.51-9.29,7.23-11.09
				c0.06-0.53,0-0.92-0.12-1.21C301.4,391.23,301.04,391.38,300.69,391.57z"/>
			<path class="st15" d="M300.42,391.34c0.38,0.78,1.2,1.06,1.45,0.96c0.17-1.54-0.52-1.99-1.41-1.93
				C300.24,390.39,300.28,391.06,300.42,391.34z"/>
			<path class="st16" d="M300.42,391.34c0.38,0.78,1.2,1.06,1.45,0.96c0,0-0.97-0.36-1.11-1.04c-0.14-0.66,0.12-0.88,0.12-0.88
				c-0.13-0.02-0.27-0.02-0.42-0.01C300.24,390.39,300.28,391.06,300.42,391.34z"/>
		</g>
		<g>
			<path class="st17" d="M294.44,391.34c0.26,0.03,0.52,0.08,0.78,0.14c0.99,0.21,3.22,0.74,4.08,0.02c2.25-1.89-2.7-0.67-3.34-0.68
				c-4.63-0.08-2.95-4.51-3.38-7.46c-0.48-3.31-3.26-5.22-6.49-5.81c-1.6-0.3-3.22-0.47-4.85-0.44c-2.8,0.05-5.06,0.09-7.76-0.78
				c-0.93-0.3-1.94-0.71-2.71-1.31c-0.21,3.23,0.16,6.4,2.19,9c2.07,2.64,3.32,5.29,6.49,6.98c1.93,1.03,4.24,2.28,6.47,2.19
				c1.11-0.05,2.07-0.22,3.11-0.63C291.02,391.78,292.12,391.02,294.44,391.34z"/>
			<path class="st18" d="M273.78,379.28c0.32,0.22,0.87,0.79,0.8,1.04c-0.14,0.46-1.15,0.53-0.94,1.32c0.27,1,1.14-0.1,1.81,0.01
				c0.17,0.72-1.9,2.8-0.7,3.27c0.49,0.19,1-0.42,1.19-0.76c0.34-0.62,0.15-0.97,0.87-1.22c0.95-0.34,1.47-0.33,1.5,0.67
				c0.02,0.54,0.08,1.58-0.13,2.08c-0.27,0.63-0.91,0.67-0.81,1.45c0.07,0.55,0.64,1.16,1.25,1.16c0.17,0.93,1.07,0.01,1.26-0.41
				c0.2-0.44,0.12-1.05,0.39-1.45c0.15-0.22,0.43-0.28,0.56-0.45c0.4-0.58,0.22-1.36,0.89-1.82c0.62-0.41,1.4-0.32,1.27,0.54
				c-0.1,0.65-0.77,1.32-0.95,2.04c-0.13,0.49-1.02,1.98-0.72,2.46c0.74,1.17,1.96-1.97,2.44-2.28c-0.01,0.14,0.04,0.3,0.03,0.44
				c0.59-0.25,0.47-1.51,1.33-1.52c0.77-0.01,0.69,0.9,0.63,1.47c-0.09,1-1.03,3.19,0,3.95c0.81,0.59,0.87-0.33,1.32-0.63
				c0.59-0.38,1.13,0.03,1.62,0.15c0.91,0.23,2.7,0.04,3.62-0.22c-0.22-0.17-0.48-0.38-0.65-0.67c-0.33-0.59-0.04-0.48,0.1-0.93
				c0.22-0.74,0.29-1.77,0.3-2.56c-0.75-0.05-1.04,1.15-1.81,0.98c-1.04-0.23-0.08-2.48,0.06-3.13c0.12-0.59,0.31-2.47-0.68-2.69
				c-0.56-0.12-0.78,0.76-1.18,1.11c-0.75,0.65-2.74,2.66-2.79,0.51c-0.02-0.66,0.36-1.19,0.46-1.83c0.16-1.06-0.13-0.77-0.85-1.07
				c-0.7-0.29-0.95-1.16-1.82-0.61c-0.67,0.42-0.75,0.95-1.6,0.16c-0.6-0.57-0.9-1.25-1.88-1.15c-0.72,0.07-0.77,0.66-1.36,0.9
				c-1.59,0.63-2.03-1.09-2.98-1.66c-0.58-0.36-1.42-0.25-2.06-0.38c-0.58-0.11-0.87-0.5-1.33-0.76c0.23,0.13-0.38,1.67-0.26,1.91
				C272.16,379.07,273.36,378.99,273.78,379.28z"/>
			<path class="st19" d="M291.71,390.19c-0.16-0.06-0.31-0.13-0.45-0.22c-0.44-0.3-0.88-0.71-1.31-1.05
				c-0.97-0.78-1.78-1.72-2.55-2.67c-1.45-1.77-3-4.14-5.27-5.03c-0.41-0.16-0.84-0.3-1.25-0.45c-2.72-0.67-6.44-0.89-8.19-3.22
				c0.54,1.12,1.45,1.99,2.67,2.54c0.65,0.29,1.99,0.07,1.63,1.16c0.49-0.74,2.1-0.13,2.72,0.21c0.3,0.16,0.31,0.42,0.53,0.58
				c0.18,0.13,0.59-0.02,0.73,0.11c0.24,0.21,0.04,1.27-0.03,1.51c0.2-0.35,0.51-0.85,0.83-1.13c0.57-0.5,0.56-0.04,0.95,0.28
				c0.42,0.34,0.89,0.27,1.03,0.91c0.07,0.34,0.05,0.93-0.15,1.21c0.27-0.41,0.4-0.53,0.75-0.4c0.54,0.2,1.1,0.63,1.41,1.09
				c0.37,0.55,0.43,0.78,0.46,1.41c0.4-0.4,0.82,0.08,0.85,0.46c0.04,0.55-0.43,1.04-0.17,1.61c-0.14-0.3,0.2-0.89,0.48-0.96
				c0.51-0.13,1.09,0.57,1.47,0.8c0.79,0.48,1.54,1.26,2.48,1.45c0.47,0.09,1.01,0.46,1.5,0.44
				C292.56,390.45,292.12,390.35,291.71,390.19z"/>
			<path class="st20" d="M295.97,390.82c-0.66-0.01-1.18-0.12-1.61-0.29c-0.69-0.17-3.95-1.49-5.39-2.79
				c-2.19-1.98-2.83-3.79-4.51-5.17c-2.19-1.8-4.73-2.01-7.42-2.81c-1.93-0.58-3.7-1.28-4.55-2.33c1.57,2.97,7.56,3.16,10.58,5.08
				c1.94,1.23,2.44,2.81,3.98,4.41c1.8,1.87,4,3.37,6.4,4.36c0.31,0,0.64,0.02,1,0.07c0.26,0.03,0.52,0.08,0.78,0.14
				c0.99,0.21,3.22,0.74,4.08,0.02C301.56,389.6,296.61,390.83,295.97,390.82z"/>
			<path class="st21" d="M295.97,390.82c-0.66-0.01-1.18-0.12-1.61-0.29c-0.69-0.17-3.95-1.49-5.39-2.79
				c-2.19-1.98-2.83-3.79-4.51-5.17c-2.19-1.8-4.73-2.01-7.42-2.81c-1.93-0.58-3.7-1.28-4.55-2.33c1.57,2.97,7.46,2.61,10.48,4.53
				c1.94,1.23,2.89,3.13,4.43,4.73c1.8,1.87,6.25,4.22,8.04,4.42c0.57,0.07,2.45-0.4,3.35-0.31c0.69,0.07,0.52,0.71,0.52,0.71
				C301.56,389.6,296.61,390.83,295.97,390.82z"/>
			<g>
				<path class="st19" d="M280.83,384.47c0.04-0.16,0.07-0.31,0.11-0.47C280.91,384.12,280.87,384.29,280.83,384.47z"/>
				<path class="st19" d="M288.74,390.58c-0.07,0.56-0.49,1.71-1.03,2.02c-0.93,0.53-2.31,0.36-2.92-0.49
					c-1.2-1.7,0.09-4.61,0.22-6.34c-1.23,1.27-0.62,5.44-2.86,5.71c-2.37,0.28-1.14-3.93-0.8-4.91c0.17-0.49,0.32-0.97,0.58-1.42
					c0.25-0.45,0.69-0.8,0.9-1.24c-0.78,0.61-1.33,1.3-1.72,2.2c-0.44,1.03-0.44,2.65-1.29,3.48c-0.86,0.84-1.76,0.02-2.11-0.82
					c-0.83,0.15-1.54-0.89-1.68-1.54c-0.23-1.03,0.45-1.96,0.56-2.95c-0.02,0.19-1.27,1.54-1.53,1.59
					c-1.14,0.22-1.59-1.56-1.25-2.28c-1.33,0.53-1.48-1.16-1.62-1.92c-0.12-0.7-0.35-0.64,0.23-1.14c0.38-0.33,0.94-0.42,1.35-0.73
					c-0.51,0.38-1.84,0.44-2.34,0.07c-0.79-0.57-0.3-1.19-0.33-1.98c-0.03-0.86-0.54-1.69,0.66-1.87c0.96-0.14,1.81,0.75,2.69,0.97
					c0.69,0.18,1.49,0.11,2.14,0.43c0.9,0.45,0.91,1.32,1.07,2.23c0.1-0.7,0.06-1.79,0.68-2.16c0.6-0.36,1.68-0.02,2.36-0.12
					c1.65-0.24,1.75,0.87,2.42,1.97c0.16-0.37-0.11-1.28,0.21-1.61c0.59-0.61,0.85,0.2,1.28,0.26c0.55,0.07,0.97-0.43,1.66-0.25
					c0.69,0.17,1.56,1.13,1.6,1.81c0.06,1.05-0.74,2.26-0.88,3.32c0.49-0.81,0.97-2.63,1.65-3.17c1.24-0.96,1.02,0.7,1.11,1.44
					c0.1-0.42,0.49-1.05,1.02-0.81c0.36,0.16,0.55,0.56,0.7,0.87c0.19,0.39,0.16,0.74,0.24,1.14c0.16,0.8-0.32,1.68-0.67,2.38
					c0.3-0.28,0.57-0.69,0.99-0.78c0.41,1.13,0.43,1.95,0.29,3.07c-0.08,0.66-0.01,1.5,0.51,1.93c-0.51-1.57-0.04-3.82-0.29-5.56
					c-0.48-3.31-3.26-5.22-6.49-5.81c-1.6-0.3-3.22-0.47-4.85-0.44c-2.8,0.05-5.06,0.09-7.76-0.78c-0.93-0.3-1.94-0.71-2.71-1.31
					c-0.21,3.23,0.16,6.4,2.19,9c2.07,2.64,3.32,5.29,6.49,6.98c1.93,1.03,4.24,2.28,6.47,2.19c1.11-0.05,2.07-0.22,3.11-0.63
					c1.26-0.49,2.16-0.97,3.23-1.18C290.82,391.02,288.45,392.79,288.74,390.58z"/>
			</g>
		</g>
	</g>
	<g>
		<g>
			<path class="st3" d="M391.98,286.14c-6.11,1.11-9.69,8.34-10.29,13.67c-0.96,8.48-0.52,18.82,5.11,25.93
				c9.89,12.48,32.08,12.29,44.38,3.42c9.87-7.12,16.48-18.5,10.93-30.29c-2.14-4.55-5.8-8.49-10.56-10.57
				c-5.49-2.39-9.71-0.96-15.35-0.24c-4.25,0.54-9.57,0.67-13.76-0.32C398.88,286.9,395.84,285.44,391.98,286.14z"/>
			<path class="st4" d="M429.01,309.47c4.35-2.04,8.56-5.15,9.39-9.43c0.25-1.32,0.54-3.89,0.35-6.34c-1.96-2.28-4.39-4.17-7.21-5.4
				c-5.49-2.39-9.71-0.96-15.35-0.24c-4.25,0.54-9.57,0.67-13.76-0.32c-3.56-0.84-6.6-2.31-10.45-1.6c-3.82,0.69-6.65,3.78-8.38,7.3
				c-0.08,0.65-0.11,1.3-0.09,1.93c0.18,5.26,3.21,9.36,8.04,11.71c8.85,4.31,20.85,5.81,30.56,4.12
				C424.36,310.8,426.71,310.24,429.01,309.47z"/>
			<path class="st5" d="M407.47,319.65c0.76-0.13,1.46-0.28,2.07-0.44c4.66-1.22,8.66-4.32,11.71-7.6c1.52-1.63,3.14-4.16,3.23-6.32
				c0.07-1.87,0.38-4.69-1.32-6.09c-2.57-2.13-5.83-0.46-8.36,0.61c-1.24,0.52-2.52,0.59-3.87,0.46c-5.09-0.49-8.79-4.78-13.72-5.62
				c-3.73-0.64-7.75,0.16-8.54,3.88c-0.8,3.77-0.41,7.73,1.15,11.33c1.44,3.34,4.44,7.78,8.2,9.42
				C400.45,320.35,404.42,320.18,407.47,319.65z"/>
			<path class="st6" d="M442.1,298.88c-2.14-4.55-5.8-8.49-10.56-10.57c-5.49-2.39-9.71-0.96-15.35-0.24
				c-4.25,0.54-9.57,0.67-13.76-0.32c-3.56-0.84-6.6-2.31-10.45-1.6c-6.11,1.11-9.69,8.34-10.29,13.67
				c-0.96,8.48-0.52,18.82,5.11,25.93c9.89,12.48,32.08,12.29,44.38,3.42C441.05,322.06,447.66,310.67,442.1,298.88z M407.49,325.44
				c-0.22,0.02-0.44,0.03-0.65,0.05c-4.51,0.26-10.01,0.02-13.86-2.52c-4.6-3.03-7.12-8.07-8.11-13.23
				c-1.3-6.76-0.68-12.39,4.46-17.64c3.39-3.46,7.07-4,11.7-3.07c3.31,0.67,6.79,0.59,10.29,0.6c3.55,0.01,7.18-1.52,10.5,0.2
				c7.92,4.1,8.75,9.89,7.7,17.99c-0.6,4.68-3.33,9-7.17,11.9C418.06,322.94,412.91,324.99,407.49,325.44z"/>
			<path class="st7" d="M442.1,298.88c-2.14-4.55-5.8-8.49-10.56-10.57c-3.64-1.58-6.71-1.49-10.01-1.04
				c7.42,1.44,13.68,6.62,14.88,14.31c1.4,9-2.26,19.13-10.56,23.98c-7.61,4.44-19.02,6.01-27.64,3.6
				c-6.32-1.77-12.53-6.08-15.56-11.83c0.86,3.06,2.19,5.94,4.15,8.42c9.89,12.48,32.08,12.29,44.38,3.42
				C441.05,322.06,447.66,310.67,442.1,298.88z"/>
			<path class="st8" d="M437.18,293.57c-3.08-3.27-7.43-5.37-12.66-5.26c2.92,0.02,5.44,2.67,7.39,4.46c2.49,2.29,4,5.56,4.5,8.81
				c1.4,9-2.26,19.13-10.56,23.98c-7.61,4.44-19.02,6.01-27.64,3.6c-4.25-1.19-8.86-3.36-11.69-6.77c-0.89-1.07-1.38-2.46-1.95-3.53
				c-0.12,2.49,2.6,6.15,4.39,7.81c1.63,1.51,3.73,2.58,5.67,3.68c5.46,3.11,11.83,3.68,18.06,3.69c3.27,0,6.77-0.74,9.77-1.95
				c2.39-0.97,5.52-1.72,7.52-3.31c0.37-0.3,0.75-0.6,1.11-0.91c1.74-1.5,3.27-3.16,4.95-4.68c2.53-3.73,4.53-8.03,5.59-12.18
				C443.23,304.78,441.41,298.07,437.18,293.57z"/>
			<path class="st9" d="M398.17,331.11c2.5,1.46,5.55,2.32,8.78,2.7c1.72,0.15,3.46,0.21,5.19,0.22c2.45-0.08,4.89-0.39,7.16-0.9
				c1.09-0.29,2.16-0.64,3.17-1.05c0.99-0.4,2.11-0.77,3.22-1.17c12.56-6.24,18.61-22.48,11.93-34.6c0.58,1.79,0.89,3.67,0.95,5.6
				c0.3,9.42-2.4,18.51-10.65,24.2c-7.15,4.93-15.36,6.6-24.04,5.39c-3.28-0.46-6.54-1.32-9.45-2.71
				C395.67,329.62,396.93,330.39,398.17,331.11z"/>
			<path class="st7" d="M400.76,293.28c0.13,0.26,0.33,0.54,0.62,0.86c1.82,1.99,5.93,2.76,8.54,2.97c3.3,0.26,6.49-0.72,9.56-1.75
				c0.97-0.32,6.84-2.08,3.45-3.35c-1.2-0.45-2.81-0.56-4.13-0.45c-1.3,0.11-2.25,0.72-3.48,0.92c-1.79,0.28-3.34-0.72-5.06-1.03
				c-1.87-0.34-3.79-0.33-5.69-0.33C402.73,291.11,399.84,291.44,400.76,293.28z"/>
			<path class="st9" d="M412.38,294.72c-0.85,0.13-1.7,0.2-2.57-0.1c-1.66-0.57-5.28-2.03-6.92-0.85c-2.55,1.86,5.66,3.22,7.03,3.33
				c3.3,0.26,6.49-0.72,9.56-1.75c0.09-0.03,0.22-0.07,0.38-0.12c-0.97-0.12-1.85-0.14-2.75-0.36c-0.85-0.21-1.39-0.51-2.33-0.49
				C413.98,294.4,413.18,294.59,412.38,294.72z"/>
			<path class="st10" d="M388.98,297.21c0.01,0.53,0.06,1.07,0.14,1.6c0.3,1.92,1.13,2.21,2.25,3.7c0.99,1.3,1.41,1.87,2.94,2.65
				c1.32,0.67,2.39,1.67,3.82,2.14c5.69,1.87,12.85-0.97,18.52-1.74c2.67-0.36,6.3-0.3,8.33-2.3c1.85-1.84,3.51-5.77,0.4-7.24
				c-2.28-1.08-4.72,0.61-6.47,1.91c-2.95,2.21-5.2,3.32-8.99,2.34c-3.21-0.83-6.91-1.5-9.31-3.81c-1-0.96-1.75-2.18-2.21-3.46
				c-0.31-0.87-0.3-1.84-1.07-2.49c-1.57-1.31-4.23-0.52-5.64,0.58C389.71,292.63,388.95,294.88,388.98,297.21z"/>
			<path class="st11" d="M393.6,299.23c1.06,1.86,1.49,2.72,3.76,3.36c1.94,0.55,3.79,1.48,5.66,1.96
				c3.31,0.84,7.98-0.01,11.27-0.57c1.65-0.28,4.1-0.58,5.5-1.42c1.08-0.64,2.87-3.19,0.56-3.47c-1.65-0.2-2.26,1.55-3.5,2.2
				c-1.39,0.72-3.71,0.87-5.22,0.6c-2.41-0.43-4.98-0.86-7.36-1.47c-3.04-0.79-5.83-2.45-6.43-5.61c-0.33-1.74-0.72-3.11-2.8-3.48
				C388.86,290.24,392.33,296.99,393.6,299.23z"/>
			<path class="st12" d="M398.63,300.65c2.4-0.52-1.71-5.77-3.04-6.09C391.05,293.44,393.78,301.69,398.63,300.65z"/>
			<path class="st12" d="M404.27,302.44c0.57-1.47-1.15-2.3-2.44-1.59C399.69,302.02,403.53,304.34,404.27,302.44z"/>
			<path class="st12" d="M419.8,299.58c-0.26,0-0.55,0.07-0.82,0.25c-1.11,0.7-0.71,1.74,0.5,1.68
				C420.79,301.45,421.36,299.59,419.8,299.58z"/>
		</g>
		<g>
			<path class="st13" d="M414.57,275.53c-1.47,1.37-3.1,3.75-3.77,5.73c-1.07,3.2-1.44,6.67-1.25,10.09c0,0-0.01,0-0.01,0
				c0.01,0.3,0.04,0.59,0.07,0.88c0,0.04,0,0.07,0.01,0.11c0.13,1.5,0.35,3,0.68,4.44c0.02,0.09,0.04,0.21,0.07,0.34
				c0.58,0.03,1.17,0.02,1.74-0.02c-0.15-0.98-0.53-2.09-0.72-2.9l0,0c-0.04-0.17-0.07-0.33-0.09-0.47
				c-0.05-0.41-0.08-0.83-0.11-1.24c-0.01-0.27-0.03-0.55-0.03-0.83l0,0c-0.04-1.47,0.08-2.94,0.32-4.4
				c0.8-4.82,2.51-9.29,7.23-11.09C419.06,273,415.76,274.41,414.57,275.53z"/>
			<path class="st14" d="M417.53,275.44c-0.55,0.29-1.07,0.65-1.58,1.03c-1.94,1.77-3.66,4.16-4.69,8.21
				c-1.06,4.13-0.85,7.92,0.33,12.45c0.17,0,0.34-0.01,0.51-0.02c-0.15-0.98-0.53-2.09-0.72-2.9l0,0c-0.04-0.17-0.07-0.33-0.09-0.47
				c-0.05-0.41-0.08-0.83-0.11-1.24c-0.01-0.27-0.03-0.55-0.03-0.83c-0.04-1.47,0.08-2.94,0.32-4.4c0.8-4.82,2.51-9.29,7.23-11.09
				c0.06-0.53,0-0.92-0.12-1.21C418.24,275.1,417.88,275.25,417.53,275.44z"/>
			<path class="st15" d="M417.26,275.21c0.38,0.78,1.2,1.06,1.45,0.96c0.17-1.54-0.52-1.99-1.41-1.93
				C417.08,274.26,417.12,274.93,417.26,275.21z"/>
			<path class="st16" d="M417.26,275.21c0.38,0.78,1.2,1.06,1.45,0.96c0,0-0.97-0.36-1.11-1.04c-0.14-0.66,0.12-0.88,0.12-0.88
				c-0.13-0.02-0.27-0.02-0.42-0.01C417.08,274.26,417.12,274.93,417.26,275.21z"/>
		</g>
	</g>
	<g>
		<g>
			<path class="st3" d="M393.11,361.39c-6.11,1.11-9.69,8.34-10.29,13.67c-0.96,8.48-0.52,18.82,5.11,25.93
				c9.89,12.48,32.08,12.29,44.38,3.42c9.87-7.12,16.48-18.5,10.93-30.29c-2.14-4.55-5.8-8.49-10.56-10.57
				c-5.49-2.39-9.71-0.96-15.35-0.24c-4.25,0.54-9.57,0.67-13.76-0.32C400,362.15,396.96,360.69,393.11,361.39z"/>
			<path class="st4" d="M430.13,384.72c4.35-2.04,8.56-5.15,9.39-9.43c0.25-1.32,0.54-3.89,0.35-6.34c-1.96-2.28-4.39-4.17-7.21-5.4
				c-5.49-2.39-9.71-0.96-15.35-0.24c-4.25,0.54-9.57,0.67-13.76-0.32c-3.56-0.84-6.6-2.31-10.45-1.6c-3.82,0.69-6.65,3.78-8.38,7.3
				c-0.08,0.65-0.11,1.3-0.09,1.93c0.18,5.26,3.21,9.36,8.04,11.71c8.85,4.31,20.85,5.81,30.56,4.12
				C425.49,386.05,427.83,385.49,430.13,384.72z"/>
			<path class="st5" d="M408.59,394.9c0.76-0.13,1.46-0.28,2.07-0.44c4.66-1.22,8.66-4.32,11.71-7.6c1.52-1.63,3.14-4.16,3.23-6.32
				c0.07-1.87,0.38-4.69-1.32-6.09c-2.57-2.13-5.83-0.46-8.36,0.61c-1.24,0.52-2.52,0.59-3.87,0.46c-5.09-0.49-8.79-4.78-13.72-5.62
				c-3.73-0.64-7.75,0.16-8.54,3.88c-0.8,3.77-0.41,7.73,1.15,11.33c1.44,3.34,4.44,7.78,8.2,9.42
				C401.57,395.6,405.54,395.43,408.59,394.9z"/>
			<path class="st6" d="M443.23,374.13c-2.14-4.55-5.8-8.49-10.56-10.57c-5.49-2.39-9.71-0.96-15.35-0.24
				c-4.25,0.54-9.57,0.67-13.76-0.32c-3.56-0.84-6.6-2.31-10.45-1.6c-6.11,1.11-9.69,8.34-10.29,13.67
				c-0.96,8.48-0.52,18.82,5.11,25.93c9.89,12.48,32.08,12.29,44.38,3.42C442.17,397.31,448.78,385.92,443.23,374.13z
				 M408.61,400.69c-0.22,0.02-0.44,0.03-0.66,0.05c-4.51,0.26-10.01,0.02-13.86-2.52c-4.6-3.03-7.12-8.07-8.11-13.23
				c-1.3-6.75-0.68-12.39,4.46-17.64c3.39-3.46,7.07-4,11.7-3.07c3.31,0.67,6.79,0.59,10.29,0.6c3.55,0.01,7.18-1.52,10.5,0.2
				c7.92,4.1,8.75,9.89,7.7,17.99c-0.6,4.68-3.33,9-7.17,11.9C419.18,398.19,414.03,400.24,408.61,400.69z"/>
			<path class="st7" d="M443.23,374.13c-2.14-4.55-5.8-8.49-10.56-10.57c-3.64-1.58-6.71-1.49-10.01-1.04
				c7.42,1.44,13.68,6.62,14.88,14.31c1.4,9-2.26,19.13-10.56,23.98c-7.61,4.44-19.02,6.01-27.64,3.6
				c-6.32-1.77-12.53-6.08-15.56-11.83c0.86,3.06,2.19,5.94,4.15,8.42c9.89,12.48,32.08,12.29,44.38,3.42
				C442.17,397.31,448.78,385.92,443.23,374.13z"/>
			<path class="st8" d="M438.3,368.82c-3.08-3.27-7.43-5.37-12.66-5.26c2.92,0.02,5.44,2.67,7.39,4.46c2.49,2.29,4,5.56,4.5,8.81
				c1.4,9-2.26,19.13-10.56,23.98c-7.61,4.44-19.02,6.01-27.64,3.6c-4.25-1.19-8.86-3.36-11.69-6.77c-0.89-1.07-1.38-2.46-1.95-3.53
				c-0.12,2.49,2.6,6.15,4.39,7.81c1.63,1.51,3.73,2.58,5.67,3.68c5.46,3.11,11.83,3.68,18.06,3.69c3.27,0,6.77-0.74,9.78-1.95
				c2.39-0.97,5.52-1.72,7.52-3.31c0.37-0.3,0.75-0.6,1.11-0.91c1.74-1.5,3.27-3.16,4.95-4.68c2.53-3.73,4.53-8.03,5.59-12.18
				C444.36,380.03,442.54,373.32,438.3,368.82z"/>
			<path class="st9" d="M399.29,406.36c2.5,1.46,5.55,2.32,8.78,2.7c1.72,0.15,3.46,0.21,5.19,0.22c2.45-0.08,4.89-0.39,7.16-0.9
				c1.09-0.29,2.16-0.64,3.17-1.05c0.99-0.41,2.11-0.77,3.22-1.17c12.56-6.24,18.61-22.48,11.93-34.6c0.58,1.79,0.89,3.67,0.95,5.6
				c0.3,9.42-2.4,18.51-10.65,24.2c-7.15,4.93-15.36,6.6-24.04,5.39c-3.28-0.46-6.54-1.32-9.45-2.71
				C396.79,404.87,398.05,405.64,399.29,406.36z"/>
			<path class="st7" d="M401.89,368.53c0.13,0.26,0.33,0.54,0.62,0.86c1.82,1.99,5.93,2.76,8.54,2.97c3.3,0.26,6.49-0.72,9.56-1.75
				c0.97-0.32,6.84-2.08,3.45-3.35c-1.2-0.45-2.81-0.56-4.13-0.45c-1.3,0.11-2.25,0.72-3.48,0.92c-1.79,0.28-3.34-0.72-5.06-1.03
				c-1.87-0.34-3.79-0.33-5.69-0.33C403.85,366.36,400.96,366.69,401.89,368.53z"/>
			<path class="st9" d="M413.51,369.97c-0.85,0.13-1.7,0.2-2.57-0.1c-1.66-0.57-5.28-2.03-6.92-0.85c-2.55,1.86,5.66,3.22,7.03,3.33
				c3.3,0.26,6.49-0.72,9.56-1.75c0.09-0.03,0.22-0.07,0.38-0.12c-0.97-0.12-1.85-0.14-2.75-0.36c-0.85-0.21-1.39-0.51-2.33-0.49
				C415.1,369.65,414.3,369.84,413.51,369.97z"/>
			<path class="st10" d="M390.11,372.46c0.01,0.53,0.06,1.07,0.14,1.61c0.3,1.92,1.13,2.21,2.25,3.7c0.99,1.3,1.41,1.87,2.94,2.65
				c1.32,0.67,2.39,1.67,3.82,2.14c5.69,1.87,12.85-0.97,18.52-1.74c2.67-0.36,6.3-0.3,8.33-2.3c1.85-1.84,3.51-5.77,0.4-7.24
				c-2.28-1.08-4.72,0.61-6.47,1.91c-2.95,2.21-5.2,3.32-8.99,2.34c-3.21-0.83-6.91-1.5-9.31-3.81c-1-0.96-1.75-2.18-2.21-3.46
				c-0.31-0.87-0.3-1.84-1.07-2.49c-1.57-1.31-4.23-0.52-5.64,0.58C390.84,367.88,390.08,370.13,390.11,372.46z"/>
			<path class="st11" d="M394.72,374.48c1.06,1.86,1.49,2.72,3.76,3.36c1.94,0.55,3.79,1.48,5.66,1.96
				c3.31,0.84,7.98-0.01,11.27-0.57c1.65-0.28,4.1-0.58,5.5-1.42c1.08-0.64,2.87-3.19,0.56-3.47c-1.65-0.2-2.26,1.55-3.5,2.2
				c-1.39,0.72-3.71,0.87-5.22,0.6c-2.41-0.43-4.98-0.86-7.36-1.47c-3.04-0.79-5.83-2.45-6.43-5.61c-0.33-1.74-0.72-3.11-2.8-3.48
				C389.98,365.49,393.45,372.24,394.72,374.48z"/>
			<path class="st12" d="M399.75,375.9c2.4-0.52-1.71-5.77-3.04-6.09C392.17,368.69,394.91,376.94,399.75,375.9z"/>
			<path class="st12" d="M405.39,377.69c0.57-1.47-1.15-2.3-2.44-1.59C400.81,377.27,404.66,379.59,405.39,377.69z"/>
			<path class="st12" d="M420.92,374.83c-0.26,0-0.55,0.07-0.82,0.25c-1.11,0.7-0.71,1.74,0.5,1.68
				C421.91,376.7,422.48,374.84,420.92,374.83z"/>
		</g>
		<g>
			<path class="st13" d="M415.69,350.78c-1.47,1.37-3.1,3.75-3.77,5.73c-1.07,3.2-1.44,6.67-1.25,10.09c0,0-0.01,0-0.01,0
				c0.01,0.3,0.04,0.59,0.07,0.88c0,0.04,0,0.07,0.01,0.11c0.13,1.5,0.35,3,0.68,4.44c0.02,0.09,0.04,0.21,0.07,0.34
				c0.58,0.03,1.17,0.02,1.74-0.02c-0.15-0.98-0.53-2.09-0.72-2.9l0,0c-0.04-0.17-0.07-0.33-0.09-0.47
				c-0.05-0.41-0.08-0.83-0.11-1.24c-0.01-0.27-0.03-0.55-0.03-0.83l0,0c-0.04-1.47,0.08-2.94,0.32-4.4
				c0.8-4.82,2.51-9.29,7.23-11.09C420.19,348.25,416.88,349.66,415.69,350.78z"/>
			<path class="st14" d="M418.65,350.69c-0.55,0.29-1.07,0.65-1.58,1.03c-1.94,1.77-3.66,4.16-4.69,8.21
				c-1.06,4.13-0.85,7.92,0.33,12.45c0.17,0,0.34-0.01,0.51-0.02c-0.15-0.98-0.53-2.09-0.72-2.9l0,0c-0.04-0.17-0.07-0.33-0.09-0.47
				c-0.05-0.41-0.08-0.83-0.11-1.24c-0.01-0.27-0.03-0.55-0.03-0.83c-0.04-1.47,0.08-2.94,0.32-4.4c0.8-4.82,2.51-9.29,7.23-11.09
				c0.06-0.53,0-0.92-0.12-1.21C419.36,350.35,419,350.5,418.65,350.69z"/>
			<path class="st15" d="M418.38,350.46c0.38,0.78,1.2,1.06,1.45,0.96c0.17-1.54-0.52-1.99-1.41-1.93
				C418.2,349.51,418.24,350.18,418.38,350.46z"/>
			<path class="st16" d="M418.38,350.46c0.38,0.78,1.2,1.06,1.45,0.96c0,0-0.97-0.36-1.11-1.04c-0.14-0.66,0.12-0.88,0.12-0.88
				c-0.13-0.02-0.27-0.02-0.42-0.02C418.2,349.51,418.24,350.18,418.38,350.46z"/>
		</g>
	</g>
	<g>
		<g>
			<path class="st3" d="M275.77,275.17c-6.11,1.11-9.69,8.34-10.29,13.67c-0.96,8.48-0.52,18.82,5.11,25.93
				c9.89,12.48,32.08,12.29,44.38,3.42c9.87-7.12,16.48-18.5,10.93-30.29c-2.14-4.55-5.79-8.49-10.56-10.57
				c-5.49-2.39-9.71-0.96-15.35-0.24c-4.25,0.54-9.57,0.67-13.76-0.32C282.67,275.93,279.62,274.47,275.77,275.17z"/>
			<path class="st4" d="M312.8,298.5c4.35-2.04,8.56-5.15,9.39-9.43c0.25-1.32,0.54-3.89,0.35-6.34c-1.96-2.28-4.39-4.17-7.21-5.4
				c-5.49-2.39-9.71-0.96-15.35-0.24c-4.25,0.54-9.57,0.67-13.76-0.32c-3.56-0.84-6.6-2.31-10.45-1.6c-3.82,0.69-6.65,3.78-8.38,7.3
				c-0.08,0.65-0.11,1.3-0.09,1.93c0.18,5.26,3.21,9.36,8.04,11.71c8.85,4.31,20.85,5.81,30.56,4.12
				C308.15,299.83,310.49,299.27,312.8,298.5z"/>
			<path class="st5" d="M291.26,308.68c0.76-0.13,1.46-0.28,2.07-0.44c4.66-1.22,8.66-4.32,11.71-7.6c1.52-1.63,3.14-4.16,3.23-6.32
				c0.07-1.87,0.38-4.69-1.32-6.09c-2.57-2.13-5.83-0.46-8.36,0.61c-1.24,0.52-2.52,0.59-3.87,0.46c-5.09-0.49-8.79-4.78-13.72-5.62
				c-3.73-0.64-7.75,0.16-8.54,3.88c-0.8,3.77-0.41,7.73,1.15,11.33c1.44,3.34,4.44,7.78,8.2,9.42
				C284.23,309.38,288.2,309.21,291.26,308.68z"/>
			<path class="st6" d="M325.89,287.91c-2.14-4.55-5.79-8.49-10.56-10.57c-5.49-2.39-9.71-0.96-15.35-0.24
				c-4.25,0.54-9.57,0.67-13.76-0.32c-3.56-0.84-6.6-2.31-10.45-1.6c-6.11,1.11-9.69,8.34-10.29,13.67
				c-0.96,8.48-0.52,18.82,5.11,25.93c9.89,12.48,32.08,12.29,44.38,3.42C324.83,311.09,331.44,299.7,325.89,287.91z M291.28,314.47
				c-0.22,0.02-0.44,0.03-0.66,0.05c-4.51,0.26-10.01,0.02-13.86-2.52c-4.6-3.03-7.12-8.07-8.11-13.23
				c-1.3-6.75-0.68-12.39,4.46-17.64c3.39-3.46,7.07-4,11.7-3.07c3.31,0.67,6.79,0.59,10.29,0.6c3.55,0.01,7.18-1.52,10.5,0.2
				c7.92,4.1,8.75,9.89,7.7,17.99c-0.6,4.68-3.33,9-7.17,11.9C301.85,311.97,296.69,314.02,291.28,314.47z"/>
			<path class="st7" d="M325.89,287.91c-2.14-4.55-5.79-8.49-10.56-10.57c-3.64-1.58-6.71-1.49-10.01-1.04
				c7.42,1.44,13.68,6.62,14.88,14.31c1.4,9-2.26,19.13-10.56,23.98c-7.61,4.44-19.02,6.01-27.64,3.6
				c-6.32-1.77-12.53-6.08-15.56-11.83c0.86,3.06,2.19,5.94,4.15,8.42c9.89,12.48,32.08,12.29,44.38,3.42
				C324.83,311.09,331.44,299.7,325.89,287.91z"/>
			<path class="st8" d="M320.97,282.6c-3.08-3.27-7.43-5.37-12.66-5.26c2.92,0.02,5.44,2.67,7.39,4.46c2.49,2.29,4,5.56,4.5,8.81
				c1.4,9-2.26,19.13-10.56,23.98c-7.61,4.44-19.02,6.01-27.64,3.6c-4.25-1.19-8.86-3.36-11.69-6.77c-0.89-1.07-1.38-2.46-1.95-3.53
				c-0.12,2.49,2.6,6.15,4.39,7.81c1.63,1.51,3.73,2.58,5.67,3.68c5.46,3.11,11.83,3.68,18.06,3.69c3.27,0,6.77-0.74,9.77-1.95
				c2.39-0.97,5.52-1.72,7.52-3.31c0.37-0.3,0.74-0.6,1.11-0.91c1.74-1.5,3.27-3.16,4.95-4.68c2.53-3.73,4.53-8.03,5.59-12.18
				C327.02,293.81,325.2,287.1,320.97,282.6z"/>
			<path class="st9" d="M281.95,320.14c2.5,1.46,5.55,2.32,8.78,2.7c1.72,0.15,3.46,0.21,5.19,0.22c2.45-0.08,4.89-0.39,7.16-0.9
				c1.09-0.29,2.16-0.64,3.17-1.05c0.99-0.41,2.11-0.77,3.22-1.17c12.56-6.24,18.61-22.48,11.93-34.6c0.58,1.79,0.89,3.67,0.95,5.6
				c0.3,9.42-2.4,18.51-10.65,24.2c-7.15,4.93-15.36,6.6-24.04,5.39c-3.28-0.46-6.54-1.32-9.45-2.71
				C279.45,318.65,280.72,319.42,281.95,320.14z"/>
			<path class="st7" d="M284.55,282.31c0.13,0.26,0.33,0.54,0.62,0.86c1.82,1.99,5.93,2.76,8.54,2.97c3.3,0.26,6.49-0.72,9.56-1.75
				c0.97-0.32,6.84-2.08,3.45-3.35c-1.2-0.45-2.81-0.56-4.13-0.45c-1.3,0.11-2.25,0.72-3.48,0.92c-1.79,0.28-3.34-0.72-5.06-1.03
				c-1.87-0.34-3.79-0.33-5.69-0.33C286.51,280.14,283.62,280.47,284.55,282.31z"/>
			<path class="st9" d="M296.17,283.75c-0.85,0.13-1.7,0.2-2.57-0.1c-1.66-0.57-5.28-2.03-6.92-0.85c-2.55,1.86,5.66,3.22,7.03,3.33
				c3.3,0.26,6.49-0.72,9.56-1.75c0.09-0.03,0.22-0.07,0.38-0.12c-0.97-0.12-1.85-0.14-2.75-0.36c-0.85-0.21-1.39-0.51-2.33-0.49
				C297.76,283.43,296.96,283.62,296.17,283.75z"/>
			<path class="st10" d="M272.77,286.24c0.01,0.53,0.06,1.07,0.14,1.61c0.3,1.92,1.13,2.21,2.25,3.7c0.99,1.3,1.41,1.87,2.94,2.65
				c1.32,0.67,2.39,1.67,3.82,2.14c5.69,1.87,12.85-0.97,18.52-1.74c2.67-0.36,6.3-0.3,8.33-2.3c1.85-1.84,3.51-5.77,0.4-7.24
				c-2.28-1.08-4.72,0.61-6.47,1.91c-2.95,2.21-5.2,3.32-8.99,2.34c-3.21-0.83-6.91-1.5-9.31-3.81c-1-0.96-1.75-2.18-2.21-3.46
				c-0.31-0.87-0.3-1.84-1.07-2.49c-1.57-1.31-4.23-0.52-5.64,0.58C273.5,281.66,272.74,283.91,272.77,286.24z"/>
			<path class="st11" d="M277.38,288.26c1.06,1.86,1.49,2.72,3.76,3.36c1.94,0.55,3.79,1.48,5.66,1.96
				c3.31,0.84,7.98-0.01,11.27-0.57c1.65-0.28,4.1-0.58,5.5-1.42c1.08-0.64,2.87-3.19,0.56-3.47c-1.65-0.2-2.26,1.55-3.5,2.2
				c-1.39,0.72-3.71,0.87-5.22,0.6c-2.41-0.43-4.98-0.86-7.36-1.47c-3.04-0.79-5.83-2.45-6.43-5.61c-0.33-1.74-0.72-3.11-2.8-3.48
				C272.64,279.27,276.11,286.02,277.38,288.26z"/>
			<path class="st12" d="M282.41,289.68c2.4-0.52-1.71-5.77-3.04-6.09C274.83,282.47,277.57,290.72,282.41,289.68z"/>
			<path class="st12" d="M288.05,291.47c0.57-1.47-1.15-2.3-2.44-1.59C283.48,291.05,287.32,293.37,288.05,291.47z"/>
			<path class="st12" d="M303.58,288.61c-0.26,0-0.55,0.07-0.82,0.25c-1.11,0.7-0.71,1.74,0.5,1.68
				C304.57,290.48,305.14,288.62,303.58,288.61z"/>
		</g>
		<g>
			<path class="st13" d="M298.36,264.56c-1.47,1.37-3.1,3.75-3.77,5.73c-1.07,3.2-1.44,6.67-1.25,10.09c0,0-0.01,0-0.01,0
				c0.01,0.3,0.04,0.59,0.07,0.88c0,0.04,0,0.07,0.01,0.11c0.13,1.5,0.35,3,0.68,4.44c0.02,0.09,0.04,0.21,0.07,0.34
				c0.58,0.03,1.17,0.02,1.74-0.02c-0.15-0.98-0.53-2.09-0.72-2.9l0,0c-0.04-0.17-0.07-0.33-0.09-0.47
				c-0.05-0.41-0.08-0.83-0.11-1.24c-0.01-0.27-0.03-0.55-0.03-0.83l0,0c-0.04-1.47,0.08-2.94,0.32-4.4
				c0.8-4.82,2.51-9.29,7.23-11.09C302.85,262.04,299.55,263.44,298.36,264.56z"/>
			<path class="st14" d="M301.32,264.47c-0.55,0.29-1.07,0.65-1.58,1.03c-1.94,1.77-3.66,4.16-4.69,8.21
				c-1.06,4.13-0.85,7.92,0.33,12.45c0.17,0,0.34-0.01,0.51-0.02c-0.15-0.98-0.53-2.09-0.72-2.9l0,0c-0.04-0.17-0.07-0.33-0.09-0.47
				c-0.05-0.41-0.08-0.83-0.11-1.24c-0.01-0.27-0.03-0.55-0.03-0.83c-0.04-1.47,0.08-2.94,0.32-4.4c0.8-4.82,2.51-9.29,7.23-11.09
				c0.06-0.53,0-0.92-0.12-1.21C302.02,264.13,301.66,264.28,301.32,264.47z"/>
			<path class="st15" d="M301.05,264.24c0.38,0.78,1.2,1.06,1.45,0.96c0.17-1.54-0.52-1.99-1.41-1.93
				C300.86,263.29,300.9,263.96,301.05,264.24z"/>
			<path class="st16" d="M301.05,264.24c0.38,0.78,1.2,1.06,1.45,0.96c0,0-0.97-0.36-1.11-1.04c-0.14-0.66,0.12-0.88,0.12-0.88
				c-0.13-0.02-0.27-0.02-0.42-0.02C300.86,263.29,300.9,263.96,301.05,264.24z"/>
		</g>
	</g>
</g>
</svg>
