<?xml version="1.0" encoding="iso-8859-1"?>
<!-- Generator: Adobe Illustrator 23.0.2, SVG Export Plug-In . SVG Version: 6.00 Build 0)  -->
<svg version="1.1" id="Layer_1" xmlns="http://www.w3.org/2000/svg" xmlns:xlink="http://www.w3.org/1999/xlink" x="0px" y="0px"
	 viewBox="0 0 595.276 841.89" style="enable-background:new 0 0 595.276 841.89;" xml:space="preserve">
<g>
	<g>
		
			<radialGradient id="SVGID_1_" cx="638.8322" cy="-3770.6375" r="27.071" fx="623.9311" fy="-3777.8953" gradientTransform="matrix(-1.7655 0 0 -1.2846 1360.5681 -4554.5151)" gradientUnits="userSpaceOnUse">
			<stop  offset="0" style="stop-color:#FCB431"/>
			<stop  offset="0.2034" style="stop-color:#FCB031"/>
			<stop  offset="0.4713" style="stop-color:#FAA42D"/>
			<stop  offset="0.7739" style="stop-color:#F79226"/>
			<stop  offset="1" style="stop-color:#F58020"/>
		</radialGradient>
		<path style="fill:url(#SVGID_1_);" d="M276.009,277.074c4.571,11.425,6.976,31.902-7.255,36.731
			c-2.905,0.983-6.631,0.354-9.577,1.483c-2.831,1.095-4.12,4.027-6.508,5.829c-5.81,4.389-13.213,4.009-19.278,0.681
			c-3.537-1.94-3.857-2.311-7.534-1.017c-3.004,1.052-6.41,2.294-9.7,2.302c-5.925,0-14.108-2.319-18.506-7.062
			c-2.142-2.311-2.569-5.639-4.522-7.933c-4.842-5.691-9.175-10.036-6.467-18.935c2.027-6.665,6.467-12.916,10.964-17.736
			c4.924-5.285,9.446-10.674,15.987-13.382c6.82-2.819,12.474,2.699,18.457,0.371c2.684-1.043,4.095-3.466,7.238-3.639
			c3.225-0.172,5.646,2.268,8.535,3.139c6.426,1.94,10.455-1.466,16.282,3.32C269.419,265.581,273.285,270.245,276.009,277.074z"/>
		<path style="opacity:0.46;fill:#F47423;enable-background:new    ;" d="M193.121,308.088c-4.842-5.691-9.175-10.036-6.467-18.935
			c0.353-1.155,0.78-2.302,1.264-3.423c0.115,0.5,0.205,1.121,0.41,1.759c1.412,4.406,2.7,4.104,6.262,2.5
			c1.945-0.871,2.905-2.371,4.021-4.303c1.674-2.897,4.35-3.233,6.352-5.553c2.035-2.371,1.945-5.786,3.677-8.07
			c1.847-2.431,4.727-3.897,6.213-6.734c0.287-0.56,0.369-1.233,0.673-1.716c0.435-0.698,1.067-0.888,1.526-1.5
			c1.059-1.405,0.533-2.294,0.238-3.846c2.774-0.043,5.187,1.906,7.206,3.57c1.568,1.293,6.204,3.863,5.088,6.837
			c-2.011,0.026-3.151-1.311-5.384-0.535c-1.674,0.586-2.881,2.181-4.44,2.949c-2.101,1.043-2.544,1.673-3.89,3.742
			c-0.936,1.44-2.339,2.199-3.135,3.811c-0.665,1.354-1.231,2.863-1.863,4.259c-0.681,1.526-0.328,2.751-0.763,4.294
			c-0.336,1.216-1.362,2.164-1.863,3.363c-0.591,1.431-1.067,3.018-1.477,4.484c-0.837,2.949-1.182,5.932-0.213,8.821
			c0.574,1.742,0.098,3.113,0.509,4.82c1.576,6.587,7.296,5.518,11.998,4.811c3.283-0.491,2.954-4.346,3.619-7.269
			c0.386-1.707,0.821-2.682,1.97-3.854c1.239-1.259,2.199-1.871,2.47-3.777c0.238-1.69-0.476-3.38-0.033-5.087
			c0.517-1.975,1.937-3.294,2.191-5.449c0.353-3.018,0.451-6.096,0.673-9.071c0.09-1.147,0.419-1.578,0.722-2.604
			c0.517-1.785,0.681-3.915,0.492-5.777c-0.057-0.526-0.96-5.173-1.182-5.234c0.936,0.259,1.682,0.879,2.684,1.095
			c0.591,0.129,2.667-0.017,3.004,0.604c0.788,1.405-1.526,3.147-2.093,4.156c-1.018,1.819-0.657,3.578-0.829,5.604
			c-0.164,1.966,0.246,4.19-0.213,6.087c-0.394,1.647-1.182,2.13-0.755,4.044c0.698,3.13,1.108,4.923,3.127,7.407
			c1.165,1.431,1.371,1.44,0.665,3.173c-0.624,1.518-1.19,2.509-0.574,4.182c0.23,0.629,1.001,1.207,1.149,1.811
			c0.222,0.905-0.312,1.035-0.295,1.768c0.025,1.483,0.985,2.285,1.658,3.458c1.305,2.25,3.102,4.242,5.597,4.734
			c1.141,0.224,2.692-0.138,3.947,0c1.354,0.155,2.314,0.431,3.414-0.586c1.953-1.811,2.577-5.622,3.324-8.131
			c0.599-2,2.191-1.474,3.192-2.966c1.239-1.854,0.049-4.044,0.025-6.018c-0.033-2.44,0.41-3.466-0.468-5.786
			c-0.763-2.035-0.287-4.113-0.747-6.165c-0.402-1.793-2.323-3.285-1.313-5.165c0.952,2.285,1.19,4.734,2.24,6.846
			c0.657,1.328,1.116,1.621,1.313,3.173c0.156,1.207,0.345,2.345,0.632,3.552c0.624,2.595,1.108,3.173,2.954,4.803
			c1.559,1.371,2.692,3.225,4.177,4.665c1.182,1.155,2.429,3.518,4.128,3.595c1.945,0.086,4.653-2.932,5.638-4.535
			c1.691-2.768,0.968-6.95,2.142-10.002c0.41-1.078,0.862-2.043,1.206-3.044c1.74,10.623,0.246,22.556-10.176,26.082
			c-2.905,0.983-6.631,0.354-9.577,1.483c-2.831,1.095-4.12,4.027-6.508,5.829c-5.81,4.389-13.213,4.009-19.278,0.681
			c-3.537-1.94-3.857-2.311-7.534-1.017c-3.004,1.052-6.41,2.294-9.7,2.302c-5.925,0-14.108-2.319-18.506-7.062
			C195.509,313.719,195.082,310.391,193.121,308.088z"/>
		<path style="opacity:0.47;fill:#DC6927;enable-background:new    ;" d="M190.437,301.51c-0.804-0.836-1.28-1.699-2.167-2.354
			c-0.788-0.578-1.797-0.673-2.085-1.88c0.968,4.087,3.849,7.174,6.943,10.812c1.953,2.294,2.38,5.622,4.522,7.932
			c4.399,4.742,12.581,7.07,18.506,7.062c3.299,0,6.697-1.242,9.7-2.302c3.677-1.293,3.997-0.923,7.534,1.017
			c6.065,3.337,13.467,3.708,19.278-0.681c2.388-1.802,3.677-4.742,6.508-5.829c2.946-1.13,6.672-0.5,9.577-1.483
			c6.368-2.156,9.397-7.458,10.398-13.675c-0.361,2.242-2.864,3.656-4.103,5.147c-1.543,1.854-2.191,2.173-4.604,2.751
			c-1.133,0.276-0.944,0.44-1.855-0.009c-0.476-0.224-0.624-0.888-1.272-1.086c-1.633-0.491-2.651-0.043-3.562-2
			c-0.944-2.026-1.174-4.708-1.773-6.906c-0.616-2.294-1.699-1.638-2.79-3.182c-0.747-1.078-0.689-3.371-1.149-4.656
			c-1.329-3.742-1.699-8.32-3.677-11.778c-0.394-0.698-0.78-0.819-1.059-1.681c-0.189-0.595-0.066-1.44-0.205-2.052
			c-0.287-1.311-1.19-2.388-1.354-3.725c-0.098-0.836,0.287-1.638,0.189-2.509c-0.156-1.354-2.142-3.63-1.215-4.889
			c0.648-0.879,2.281-0.552,3.045-1.173c0.591-0.483,0.419-1.181,1.354-1.414c1.083-0.267,2.7-0.198,3.882-0.362
			c1.485-0.207,3.028-0.095,4.497,0.181c-5.507-4.078-9.479-1-15.683-2.871c-2.889-0.871-5.302-3.311-8.535-3.139
			c-3.135,0.172-4.547,2.595-7.238,3.639c-5.704,2.225-11.12-2.682-17.53-0.69c1.075,0.44,7.641,3.432,5.425,4.837
			c1.756,0.491-0.098,1.578-0.714,2.035c-1.206,0.905-1.551,1.768-2.429,2.914c-0.722,0.948-1.674,1.638-2.388,2.544
			c-0.812,1.035-1.682,1.923-2.47,3.044c-1.42,2-3.184,3.802-4.735,5.682c-1.149,1.397-2.273,1.716-2.593,3.63
			c-0.369,2.173-0.213,1.966-1.847,3.587c-1.494,1.483-0.287,2.363-0.78,4.415c-0.156,0.647-0.583,1.13-0.706,1.811
			c-0.14,0.793,0.205,1.768,0,2.544c-0.673,2.457-5.252,2.587-4.801,6.148c-0.96,0.034-2.06,0.069-1.806,1.457
			c-1.412,0.336-1.6-1.061-2.47-1.336c-0.057-0.017-0.919-0.034-1.453,0.078C190.445,301.182,190.24,301.303,190.437,301.51z
			 M235.714,314.641c-2.716,4.811-3.545-7.967-3.947-9.157c-0.985-2.888,0.689-5.147,0-7.976c-0.443-1.811-0.468-2.294-0.197-4.19
			c0.213-1.492,0.361-2.888,0.566-4.363c0.254-1.871,1.477-3.113,1.699-5.001c0.189-1.655-0.238-3.337-0.254-5.001
			c-0.016-1.776,0.706-3.518,0.985-5.268c0.287-1.828,1.042-3.561,2.84-4.32c1.485-0.629,2.355,1.155,3.767,0.931
			c0.55-0.095,0.944-1.017,1.543-1.207c0.73-0.233,1.912,0.138,2.61,0.405c1.264,0.483,2.142,1.371,3.135,2.337
			c1.781,1.724,1.699,3.535,2.963,5.501c0.739,1.147,1.847,1.673,2.372,2.983c0.533,1.354,0.386,2.992,0.583,4.44
			c0.378,2.759,1.149,5.027,1.526,7.846c0.353,2.656,0.706,5.975,0.287,8.64c-0.353,2.276-0.427,5.139-1.042,7.338
			c-0.517,1.862-1.953,1.854-2.93,3.13c-1.141,1.492,0.312,2.095,0.172,3.449c-0.164,1.604-2.085,2.138-3.168,2.509
			c-1.387,0.483-2.437,0.836-3.915,0.129c-1.067-0.517-1.929-1.69-3.037-2.087c-0.041-0.009-0.082-0.026-0.123-0.034
			C240.22,315.193,236.978,318.418,235.714,314.641z M202.805,311.529c-0.025-0.966,0.895-2.181-0.057-3.095
			c-0.476-0.457-1.592,0.422-2.15-0.164c-1.108-1.181,0.895-3.561,1.198-4.596c0.607-2.087-0.96-2.457-1.157-4.363
			c-0.189-1.871,1.723-3.794,2.298-5.501c0.796-2.362,1.338-4.768,2.273-7.096c0.353-0.862,0.476-2.13,0.985-2.906
			c1.428-2.164,3.201-2.337,4.005-5.216c0.328-1.164,0.057-2.121,1.018-3.044c0.788-0.75,1.896-0.647,2.634-1.63
			c0.698-0.94,0.952-2.276,0.968-3.475c1.428-0.276,1.609-0.94,2.733-1.716c1.149-0.785,1.674-0.276,2.831,0
			c1.666,0.405,1.264,0.069,2.602-0.724c0.796-0.474,5.999-1.164,5.17,0.905c0.895,0.716,1.264,1.121,1.329,2.233
			c0.033,0.569-0.501,0.983-0.369,1.638c0.131,0.69,0.919,0.793,1.108,1.449c0.607,2.043,0.23,4.466,0.501,6.579
			c0.115,0.879,0.369,1.957,0.205,2.871c-0.181,1.026-1.042,1.673-0.952,2.863c0.057,0.802,0.771,1.466,0.788,2.406
			c0.016,1.224-0.706,1.983-0.985,3.104c-0.378,1.492,0.123,3.07-0.263,4.596c-0.295,1.164-0.993,1.914-1.428,2.966
			c-1.001,2.397,0.944,5.708-0.402,7.553c-1.067,1.466-1.568,1.043-1.863,3.044c-0.181,1.207,0.336,1.147-0.616,2.225
			c-0.369,0.423-0.944,0.543-1.313,0.897c-1.1,1.061-0.936,2.018-1.568,3.414c-0.977,2.19-1.338,1.38-2.93,0.724
			c-1.896-0.785-3.808,0.397-5.851,0.172c-0.763-0.086-1.97,0.216-2.618,0.06c-1.28-0.31-1.732-1.724-2.922-2.19
			c-0.689-0.276-1.256,0.276-1.937,0.147c-1.1-0.216-0.706-0.319-1.526-1.043c-0.944-0.828-1.543-1.44-1.707-2.578
			C202.821,311.891,202.813,311.718,202.805,311.529z"/>
		<path style="opacity:0.68;fill:#C86E29;enable-background:new    ;" d="M254.754,258.545c-0.87,0.241-1.74,0.586-2.52,0.957
			c-1.584,0.759-5.794,1.285-6.352,3.414c-0.279,1.061,0.419,2,1.288,2.888c0.862,0.879,1.888,1.707,2.29,2.535
			c0.952,1.931,2.396,4.949,2.561,7.096c-1.773-2-2.684-4.751-4.793-6.432c-1.149-0.923-2.323-0.854-3.414-1.716
			c-1.28-1.009-1.28-1.259-2.881-1.371c-2.946-0.207-3.529,0.655-5.515,3.095c-1.707,2.095-2.774,4.854-3.463,7.588
			c-0.238,0.974-0.336,1.828-0.821,2.673c-0.599-1.837-0.049-4.751,0.131-6.665c0.205-2.259,0.304-4.596-1.231-6.243
			c-1.641-1.759-3.307-1.164-5.359-1.026c-1.19,0.078-2.175-0.164-3.291,0.009c-1.001,0.155-1.912,0.914-2.946,0.862
			c1.215-1.621,3.028-2.768,4.949-2.906c0.993-0.069,3.783,0.923,4.177-0.759c0.304-1.25-3.151-3.294-4.03-3.708
			c-0.952-0.448-2.503-0.854-3.898-1.466c3.767,0.474,7.288,2.13,10.874,1.474c0.345,0.371,0.706,0.759,1.116,1.173
			c2.068,2.104,5.868,0.707,8.355,0.414c2.766-0.328,5.023-1.293,7.575-2.544c0.025-0.009,0.049-0.017,0.074-0.034
			c0.066,0.026,0.131,0.043,0.197,0.069C250.445,258.691,252.661,258.605,254.754,258.545z"/>
		<path style="opacity:0.68;fill:#BD5F28;enable-background:new    ;" d="M226.777,263.442c2.331-0.888,0.771-2.026-0.115-3.501
			c0.771,1.276,2.602,0.897,3.636,1.457c0.714,0.388,0.96,0.897,1.814,1.061c1.937,0.362,3.636,0.017,5.556,0
			c1.461-0.017,2.995,0.629,4.415,0.129c0.599-0.207,1.124-0.655,1.699-0.905c2.437-1.043,4.801-2.242,7.345-3.182
			c0.361,0.034,0.698,0.034,1.042,0.034c-2.782,0.914-6.672,2.845-6.787,5.656c-0.057,1.535,2.864,3.837,3.513,4.923
			c0.476,0.802,0.911,1.621,1.305,2.449c-3.102-3.673-7.591-8.148-12.097-5.613c-2.487,1.397-4.366,3.285-5.745,5.803
			c-0.304-3.397-1.362-6.889-4.793-7.519c-0.903-0.164-1.929-0.293-2.963-0.345C225.341,263.83,226.079,263.709,226.777,263.442z"/>
		<path style="opacity:0.68;fill:#80381B;enable-background:new    ;" d="M231.02,265.494c-1.009-0.552-1.986-1.13-3.004-1.612
			c0.074-0.034,0.14-0.069,0.213-0.121c0.509-0.336,0.657-1.086,0.336-1.612c0.074-0.026,0.14-0.06,0.222-0.078
			c0.829-0.198,1.65-0.129,2.478,0.026c0.23,0.164,0.484,0.302,0.854,0.371c1.937,0.362,3.636,0.017,5.556,0
			c1.461-0.017,2.995,0.629,4.415,0.129c0.304-0.112,0.591-0.276,0.878-0.448c0.689-0.172,1.395-0.224,2.109-0.267
			c-0.763,1.035-0.763,2.578,0.123,3.863c0.066,0.095,0.123,0.19,0.189,0.285c-2.126-1.19-4.678-1.552-6.984-0.776
			c-1.961,0.664-3.406,1.518-4.604,2.63C233.375,266.762,232.21,266.15,231.02,265.494z"/>
		<path style="opacity:0.75;fill:#C86E29;enable-background:new    ;" d="M193.121,308.088c-2.109-2.475-4.095-4.708-5.474-7.156
			c1.65,0.069,1.428,1.828,2.323,3.104c0.895,1.276,2.257,0.94,3.266,2.026c0.131-0.362,0.501-0.974,0.525-1.414
			c0.944,0.974,1.28,2.328,2.109,3.225c0.829-0.638,0.911-1.854,1.116-2.88c0.32-1.578,0.616-2.664,1.354-4.087
			c1.239-2.388,2.347-4.785,3.307-7.363c-0.788,3.035-1.74,6.174-2.158,9.364c-0.222,1.69-1.444,5.88-0.164,7.139
			c0.78-0.509,1.034-1.543,0.985-2.509c0.706,3.32-0.09,7.475,3.422,9.26c2.257,1.147,4.711,2.794,7.312,3.552
			c1.559,0.457,2.208-0.431,3.586-0.509c1.748-0.103,3.365,1.518,5.105,1.457c2.257-0.086,4.571-2.992,6.048-4.596
			c0.927-1.009,1.871-1.595,2.47-2.863c0.616-1.302,0.665-3.026,1.321-4.165c1.083,3.061,1.92,6.682,3.865,9.39
			c2.199,3.078,7.197,2.906,10.455,3.992c2.774,0.923,4.596-0.724,6.738-2.716c1.904-1.768,4.235-2.906,5.605-5.044
			c0.657-1.035,1.879-2.268,2.183-3.095c0.402-1.078,0.328-3.371,0.328-4.544c0-3.337-0.369-6.751-0.788-9.941
			c0.747,2.25,1.494,4.475,1.764,6.906c0.238,2.104-0.41,4.949,0.205,6.837c1.083-0.276,1.206-1.966,1.149-3.044
			c1.461,0.724,0.698,3.44,2.437,4.346c1.338,0.69,3.357-0.276,4.776-0.69c1.338-0.388,2.774-0.026,4.087-0.078
			c-1.075,0.724-2.273,1.345-3.636,1.802c-2.905,0.983-6.631,0.354-9.577,1.483c-2.831,1.095-4.12,4.027-6.508,5.829
			c-5.81,4.389-13.213,4.009-19.278,0.681c-3.537-1.94-3.857-2.311-7.534-1.017c-3.004,1.052-6.41,2.294-9.7,2.302
			c-5.925,0-14.108-2.319-18.506-7.062C195.509,313.719,195.082,310.391,193.121,308.088z"/>
		
			<linearGradient id="SVGID_2_" gradientUnits="userSpaceOnUse" x1="617.9157" y1="575.3704" x2="627.5256" y2="548.9675" gradientTransform="matrix(-1 0 0 -1 886.957 842.11)">
			<stop  offset="0" style="stop-color:#FDDB38"/>
			<stop  offset="0.5" style="stop-color:#FEC928"/>
			<stop  offset="1" style="stop-color:#FBB217"/>
		</linearGradient>
		<path style="opacity:0.44;fill:url(#SVGID_2_);enable-background:new    ;" d="M261.311,263.951
			c1.756,0.466,3.02,1.673,4.563,3.544c1.781,2.164,3.98,4.035,5.392,6.562c1.526,2.733,2.552,5.527,3.504,8.536
			c1.009,3.199,1.223,10.554-1.469,12.959c-3.701,3.311-7.706-0.362-9.044-4.492c-0.558-1.707-0.23-3.406-0.854-5.13
			c-0.796-2.173-1.994-4.19-2.995-6.243c-1.059-2.173-2.052-4.553-3.562-6.406c-1.543-1.88-3.603-3.32-3.102-6.329
			c0.517-3.113,2.848-3.07,5.137-3.199C259.809,263.692,260.605,263.761,261.311,263.951z"/>
		
			<linearGradient id="SVGID_3_" gradientUnits="userSpaceOnUse" x1="634.4053" y1="561.0096" x2="649.9909" y2="543.7001" gradientTransform="matrix(-1 0 0 -1 886.957 842.11)">
			<stop  offset="0" style="stop-color:#FDDB38"/>
			<stop  offset="0.5" style="stop-color:#FEC928"/>
			<stop  offset="1" style="stop-color:#FBB217"/>
		</linearGradient>
		<path style="opacity:0.52;fill:url(#SVGID_3_);enable-background:new    ;" d="M251.02,298.406
			c0.14,2.897-0.312,7.441-3.947,7.639c-3.652,0.198-6.254-5.587-6.549-8.907c-0.131-1.457,0.033-3.001-0.328-4.406
			c-0.345-1.336-1.1-2.561-1.568-3.906c-0.911-2.621-1.83-5.354-1.444-8.226c0.246-1.819,1.74-5.415,3.299-6.329
			c3.242-1.897,6.565,1.233,7.92,4.216c1.009,2.199,1.444,4.578,1.576,7.027c0.074,1.259-0.115,2.63,0.049,3.863
			c0.164,1.173,0.73,2.069,0.944,3.259C251.315,294.534,250.929,296.483,251.02,298.406z"/>
		
			<linearGradient id="SVGID_4_" gradientUnits="userSpaceOnUse" x1="656.9465" y1="564.928" x2="681.3203" y2="537.858" gradientTransform="matrix(-1 0 0 -1 886.957 842.11)">
			<stop  offset="0" style="stop-color:#FDDB38"/>
			<stop  offset="0.5" style="stop-color:#FEC928"/>
			<stop  offset="1" style="stop-color:#FBB217"/>
		</linearGradient>
		<path style="opacity:0.33;fill:url(#SVGID_4_);enable-background:new    ;" d="M222.435,297.328
			c-0.164,0.931-0.115,1.802-0.378,2.837c-1.108,4.406-5.121,10.545-9.815,9.381c-3.931-0.974-3.299-5.932-2.281-9.114
			c0.574-1.776,1.83-3.225,1.674-4.992c-0.074-0.888-0.903-1.552-0.788-2.638c0.107-1.078,0.919-2.069,1.346-2.966
			c2.618-5.475,1.141-13.865,7.124-17.02c2.298-1.216,5.925-1.026,7.247,1.647c1.896,3.828-0.443,8.872-0.96,12.683
			c-0.254,1.897,0.402,3.285-0.378,5.182c-0.591,1.423-1.814,2.38-2.429,3.751C222.624,296.509,222.509,296.922,222.435,297.328z"/>
		
			<linearGradient id="SVGID_5_" gradientUnits="userSpaceOnUse" x1="671.4534" y1="567.9702" x2="693.1025" y2="567.9702" gradientTransform="matrix(-1 0 0 -1 886.957 842.11)">
			<stop  offset="0" style="stop-color:#FDDB38"/>
			<stop  offset="0.5" style="stop-color:#FEC928"/>
			<stop  offset="1" style="stop-color:#FBB217"/>
		</linearGradient>
		<path style="opacity:0.26;fill:url(#SVGID_5_);enable-background:new    ;" d="M208.968,270.461
			c-1.239,1.336-1.74,3.139-2.716,4.622c-1.617,2.449-3.102,6.165-4.973,8.32c-1.083,1.242-1.896,0.931-3.291,1.267
			c-1.584,0.388-2.364,1.198-3.742,1.94c-2.306-5.518,6.237-13.02,9.052-16.451c1.477-1.811,2.7-4.768,4.276-6.217
			c1.141-1.052,7.673-4.121,7.928-0.698C215.648,265.399,210.207,269.107,208.968,270.461z"/>
		<path style="opacity:0.24;fill:#FCED82;enable-background:new    ;" d="M248.114,284.351c0.066,0.871,0.074,1.724,0.041,2.535
			c-0.066,1.449,0.369,9.536-0.443,9.855c-2.052,0.819-4.358-5.794-4.949-7.148c-1.707-3.88-9.503-11.856-4.185-15.477
			C244.717,269.935,247.737,279.143,248.114,284.351z"/>
		<path style="opacity:0.24;fill:#FCED82;enable-background:new    ;" d="M270.174,276.557c0.394,1.345,1.781,4.027,1.395,5.415
			c-0.755,2.673-3.316,0.241-4.456-1.233c-1.321-1.707-2.085-4.182-3.775-5.484c-1.576-1.216-3.529-1.414-5.146-2.647
			c-1.321-1.017-4.456-3.449-4.021-5.648c0.246-1.25,1.855-2.13,2.864-2.785c4.809-3.095,6.295,2.768,8.363,5.768
			C267.072,272.409,269.222,273.306,270.174,276.557z"/>
		<path style="opacity:0.24;fill:#FCED82;enable-background:new    ;" d="M225.693,286.153c-1.838,4.837-2.905,0.862-3.677-2.216
			c-0.657-2.604-3.316-5.941-2.634-8.864c0.714-3.07,4.079-3.527,6.098-1.673C228.229,275.91,226.883,283.015,225.693,286.153z"/>
		<g>
			<path style="fill:#806A2B;" d="M240.441,255.027c0.763,1.819,1.617,3.57,2.79,5.199c0.665,0.923,1.428,3.242,0.328,4.052
				c-0.771,0.578-2.249,0.121-3.11,0.069c-0.665-0.034-1.658-0.172-2.298,0c-0.558,0.155-1.067,0.742-1.625,0.983
				c-1.551,0.673-3.816,0.509-5.334-0.172c-0.845-0.379-1.42-0.897-1.674-1.88c-0.402-1.595,0.788-2.354,1.042-3.802
				c0.205-1.147-0.115-2.664-0.189-3.828c-0.09-1.397-0.64-2.837-1.157-4.096c-1.215-2.975-3.316-5.613-6.032-6.993
				c-3.865-1.966-9.29-2.319-12.819,0.664c-1.65,1.397-1.65,3.009-4.12,2.647c-1.526-0.224-3.242-0.923-4.506-1.914
				c-3.299-2.587,2.889-7.493,4.703-8.674c3.192-2.078,7.05-3.544,10.636-3.725c6.098-0.31,13.525,2.716,17.464,8.036
				c2.068,2.794,2.971,6.268,4.284,9.424C239.374,252.38,239.883,253.716,240.441,255.027z"/>
			<path style="fill:#6E5A24;" d="M208.402,238.093c-2.536,2.087-5.006,4.259-7.017,6.924c0-0.009,0-0.017,0.008-0.026
				c0.386-2.147,4.768-6.251,6.483-7.294c2.602-1.578,5.449-2.578,8.437-2.716c5.334-0.259,12.638,1.285,16.43,5.924
				c3.701,4.527,4.415,11.209,6.155,16.796c0.845,2.716,2.281,4.794,3.857,6.855c-0.763,0.069-1.691-0.164-2.298-0.198
				c-0.665-0.034-1.658-0.172-2.298,0c-0.033,0.009-0.066,0.034-0.098,0.043c-1.321-2.595-1.912-6.915-2.519-9.174
				c-0.648-2.397-0.082-5.915-1.083-8.053c-1.986-4.199-5.638-8.579-9.815-10.148c-4.481-1.69-9.2-1.285-13.73,0.009
				c-0.739,0.207-1.444,0.474-2.076,0.854C208.681,237.912,208.541,237.981,208.402,238.093z"/>
			<path style="fill:#6E5A24;" d="M206.662,244.525c0.066-0.069,0.148-0.121,0.213-0.19c2.142-2.225,1.912-4.63,5.687-5.311
				c5.802-1.052,11.941-1.569,16.332,3.794c2.388,2.914,3.562,5.449,3.808,9.39c0.14,2.319,1.157,4.751,1.756,6.967
				c0.73,2.664,0.747,4.57,1.641,6.32c-1.518,0.491-3.529,0.31-4.916-0.319c-0.845-0.379-1.42-0.897-1.674-1.88
				c-0.402-1.595,0.788-2.354,1.042-3.802c0.205-1.147-0.115-2.664-0.189-3.828c-0.09-1.397-0.64-2.837-1.157-4.096
				c-1.215-2.975-3.316-5.613-6.032-6.993c-3.865-1.966-9.29-2.319-12.819,0.664c-1.65,1.397-1.65,3.009-4.12,2.647
				c-0.583-0.086-1.182-0.25-1.781-0.466C205.332,246.551,206.104,245.568,206.662,244.525z"/>
			<path style="fill:#9F852F;" d="M240.753,257.191c0.525,0.983,2.61,3.759,1.994,5.027c-0.648,1.345-1.814-2.983-2.085-3.595
				c-0.443-1.026-1.149-1.854-1.674-2.837c-0.673-1.25-0.837-2.535-1.124-3.906c-0.279-1.302-0.796-2.526-1.157-3.785
				C237.995,251.19,239.202,254.303,240.753,257.191z"/>
			<path style="fill:#9F852F;" d="M233.26,247.965c0.468,1.673,1.174,3.018,1.436,4.76c0.32,2.13,0.55,4.346,0.96,6.449
				c0.361,1.862,1.091,3.371,1.067,5.372c-0.46-1.078-0.837-2.363-1.231-3.483c-1.001-2.906-1.124-5.751-1.65-8.76
				c-0.279-1.612-0.657-3.363-1.371-4.863c-0.369-0.776-0.525-1.621-0.936-2.328c-0.378-0.647-0.895-1.155-1.272-1.776
				c-0.78-1.259-1.535-2.207-2.757-3.009c-5.072-3.345-12.794-4.234-18.088-0.905c-1.444,0.914-2.38,2.406-3.562,3.682
				c-0.821,0.888-1.485,2.319-2.281,3.052c-0.098-0.733,0.46-2.423,0.755-3.095c0.451-1,1.239-1.837,2.101-2.397
				c1.313-0.862,2.495-2.225,3.824-2.957c1.625-0.897,3.283-1.388,5.08-1.483c4.686-0.25,8.937,1.164,12.762,4.121
				c0.558,0.431,1.198,0.793,1.682,1.319c0.739,0.785,1.797,1.768,2.355,2.716C232.768,245.447,232.924,246.784,233.26,247.965z"/>
			<path style="fill:#5A4C1F;" d="M226.645,236.592c0.796,0.319,1.559,0.802,2.306,1.25c1.461,0.888,2.7,2.138,3.718,3.595
				c2.027,2.88,3.225,6.406,4.021,9.907c0.378,1.681,0.739,3.268,1.075,4.975c0.287,1.5,1.018,2.845,1.551,4.337
				c0.287,0.785,1.666,2.492,2.134,3.82c-0.369-0.052-0.722-0.112-1.009-0.129c-0.492-0.026-1.165-0.103-1.748-0.078
				c-0.41-1.026-0.673-2.199-0.845-2.776c-0.427-1.449-1.149-3.225-1.346-4.76c-0.419-3.285-0.837-6.768-1.568-9.976
				c-0.583-2.552-2.47-4.397-4.054-6.234c-1.871-2.173-4.374-3.432-6.795-4.63C224.848,236.273,225.841,236.265,226.645,236.592z"/>
			<path style="fill:#5A4C1F;" d="M206.933,245.249c-0.55,0.759-1.05,1.612-1.551,2.457c-0.14-0.034-0.279-0.06-0.419-0.103
				c0.131-0.216,0.271-0.44,0.41-0.681c0.451-0.785,0.574-1.561,0.977-2.337c0.714-1.354,2.199-2.319,3.43-2.983
				c2.938-1.595,5.499-2.431,8.814-2.613c4.448-0.241,8.855,2.535,11.399,6.449c0.542,0.828,1.19,1.742,1.543,2.69
				c0.336,0.897,0.271,1.914,0.542,2.837c0.689,2.397,0.845,4.725,1.288,7.165c0.271,1.492,0.64,3.009,1.026,4.44
				c0.254,0.94,0.624,2.052,0.804,3.139c-0.369,0.052-0.747,0.069-1.124,0.069c-0.148-0.845-0.164-1.768-0.222-2.25
				c-0.205-1.561-0.64-3.121-0.985-4.656c-0.698-3.121-0.854-6.57-2.323-9.493c-0.927-1.837-2.142-3.501-3.119-5.346
				c-0.911-1.724-1.461-2.406-3.275-2.975c-0.361-0.112-0.722-0.207-1.091-0.293c-1.19-0.259-2.413-0.371-3.619-0.509
				c-3.209-0.354-6.434-0.06-9.101,1.983C209.181,243.128,207.86,243.982,206.933,245.249z"/>
			<path style="fill:#5A4C1F;" d="M206.686,247.931c0.23-0.371,0.476-0.716,0.665-1.043c0.632-1.043,1.526-1.975,2.429-2.733
				c1.206-1.026,2.831-1.078,4.218-1.483c2.938-0.854,6.574-1.181,9.586-0.112c1.239,0.44,2.889,1.328,3.545,2.544
				c0.739,1.362,1.485,2.707,2.273,4.044c0.96,1.638,1.009,2.992,1.346,4.837c0.312,1.716,0.673,3.397,0.977,5.079
				c0.295,1.595,0.509,3.44,0.574,5.07c0.025,0.517,0.049,0.992,0.041,1.405c-0.41-0.095-0.804-0.224-1.157-0.388
				c-0.845-0.379-1.42-0.897-1.674-1.88c-0.402-1.595,0.788-2.354,1.042-3.802c0.205-1.147-0.115-2.664-0.189-3.828
				c-0.09-1.397-0.64-2.837-1.157-4.096c-1.215-2.975-3.316-5.613-6.032-6.993c-3.865-1.966-9.29-2.319-12.819,0.664
				C208.812,246.542,208.705,248.043,206.686,247.931z"/>
			<path style="opacity:0.42;fill:#DDC251;enable-background:new    ;" d="M230.626,238.524c0.164,0.112,0.312,0.233,0.468,0.362
				c2.659,2.104,4.054,5.242,5.375,8.433c0.689,1.664,1.124,3.397,1.847,5.035c0.747,1.707,1.764,3.259,2.437,5.01
				c0.353,0.914,1.223,3.466-0.287,1.612c-1.403-1.724-2.101-4.294-3.135-6.277c-1.428-2.742-2.675-5.544-4.054-8.321
				c-0.706-1.423-1.174-2.897-2.347-3.992c-2.339-2.19-6.024-2.966-8.888-4.121c-3.496-1.405-7.509-0.992-10.882,0.638
				c-1.51,0.733-3.439,1.802-4.276,3.44c-0.419,0.819-1.444,4.294-2.757,3.725c0.271-1.552,0.492-2.94,1.494-4.113
				c0.944-1.104,2.117-1.923,3.168-2.897c1.001-0.923,2.446-1.336,3.668-1.854c3.709-1.578,8.289-1.19,11.924,0.293
				C226.514,236.36,228.722,237.136,230.626,238.524z"/>
			<path style="opacity:0.42;fill:#CECA47;enable-background:new    ;" d="M236.444,247.439c0.845,1.673,1.559,3.113,2.175,4.863
				c0.181,0.526,1.165,3.035,0.648,3.371c-0.492,0.319-0.944-0.966-1.108-1.276c-0.632-1.173-1.231-2.207-1.674-3.466
				c-0.41-1.164-0.476-2.509-1.239-3.466c-0.443-0.552-0.911-0.948-1.297-1.535c-0.345-0.535-0.583-1.199-1.256-1.224
				c-0.041,1.147,0.903,2.181,1.009,3.311c0.107,1.069,0.492,2.423,0.394,3.518c-0.821-0.966-1.034-2.371-1.321-3.561
				c-0.739-3.07-2.035-4.906-4.333-6.768c-1.477-1.199-2.938-1.931-4.596-2.828c-1.526-0.828-3.086-1.802-4.817-1.621
				c-1.74,0.19-3.529,0.94-5.302,0.629c0.057-1.13,5.556-1.604,6.565-1.457c-1.182-1.052-3.964-0.345-5.334-0.112
				c-1.313,0.224-3.997,2.009-5.162,0.776c1.74-1.449,3.824-1.742,5.966-1.871c2.405-0.155,4.834,0.224,7.173,0.862
				c1.863,0.509,3.586,1.13,5.417,1.957c1.477,0.664,2.708,1.88,3.947,2.957C234.524,242.412,235.148,244.861,236.444,247.439z"/>
			<path style="opacity:0.42;fill:#EFD462;enable-background:new    ;" d="M233.621,243.094c-1.633-1.38-2.897-3.475-4.867-4.328
				c-0.977-0.431-1.912-0.742-2.872-1.164c-0.78-0.345-2.183-0.543-2.675-1.354c1.559-0.052,3.348,0.992,4.785,1.543
				C229.846,238.507,233.67,240.291,233.621,243.094z"/>
		</g>
		<path style="opacity:0.68;fill:#BD5F28;enable-background:new    ;" d="M268.139,313.969c-2.807,0.724-6.213,0.259-8.954,1.319
			c-1.403,0.535-2.421,1.526-3.389,2.613c0.681-1.009,1.625-1.793,2.142-2.914c0.648-1.405,0.657-3.251,0.845-4.828
			c0.468-3.923,0.427-8.053-0.558-11.873c0.648,0.819,1.001,1.906,1.198,2.923c0.238,1.207,0.755,2.423,0.977,3.595
			c0.238,1.285-0.468,2.026-0.468,3.139c-0.008,1.173,0.517,4.303,1.518,5.053c0.41,0.302,1.412,0.259,1.896,0.543
			c1.477,0.871,1.609,0.862,3.299,0.457C267.204,313.848,267.737,313.865,268.139,313.969z"/>
		<path style="opacity:0.68;fill:#BD5F28;enable-background:new    ;" d="M225.858,320.789c-0.189,0.06-0.378,0.129-0.566,0.198
			c1.133-1.276,2.183-3.156,2.675-4.604c0.862-2.535,1.1-4.759,0.977-7.519c-0.131-2.914,0.509-5.544,0.509-8.433
			c0.96,2.837,0.336,6.484,0.673,9.743c0.189,1.888-1.1,7.941,1.502,8.622c0.189,0.647,0.074,1.509,0.263,2.19
			C229.666,319.789,228.935,319.703,225.858,320.789z"/>
		<path style="opacity:0.68;fill:#BD5F28;enable-background:new    ;" d="M197.651,316.021c-1.879-2.026-2.437-4.837-3.874-7.053
			c0.189,0.043,0.386,0.06,0.583,0.034c1.929-0.31,1.748-3.664,2.487-5.191c0.771-1.612,1.543-3.19,2.331-4.803
			c-0.492,2.009-1.067,3.983-1.354,6.113c-0.287,2.112-0.665,4.596-0.353,6.725c0.238,1.612,0.378,0.888,1.362,1.673
			c1.715,1.38,0.632,2.837,1.855,4.268c0.525,0.612,2.61,1.431,3.217,2.561C201.5,319.254,199.309,317.806,197.651,316.021z"/>
	</g>
	<g>
		
			<radialGradient id="SVGID_6_" cx="595.2027" cy="-3828.5286" r="27.0733" fx="580.3004" fy="-3835.7869" gradientTransform="matrix(-1.7655 0 0 -1.2846 1360.5681 -4554.5151)" gradientUnits="userSpaceOnUse">
			<stop  offset="0" style="stop-color:#FCB431"/>
			<stop  offset="0.2034" style="stop-color:#FCB031"/>
			<stop  offset="0.4713" style="stop-color:#FAA42D"/>
			<stop  offset="0.7739" style="stop-color:#F79226"/>
			<stop  offset="1" style="stop-color:#F58020"/>
		</radialGradient>
		<path style="fill:url(#SVGID_6_);" d="M353.039,351.45c4.571,11.425,6.976,31.902-7.255,36.731
			c-2.905,0.983-6.631,0.354-9.577,1.483c-2.831,1.095-4.12,4.027-6.508,5.829c-5.81,4.389-13.213,4.009-19.278,0.681
			c-3.537-1.94-3.857-2.311-7.534-1.017c-3.004,1.052-6.41,2.294-9.7,2.294c-5.925,0-14.108-2.319-18.506-7.062
			c-2.142-2.311-2.569-5.639-4.522-7.933c-4.842-5.691-9.175-10.036-6.467-18.935c2.027-6.665,6.467-12.916,10.964-17.745
			c4.924-5.285,9.446-10.674,15.987-13.382c6.82-2.819,12.474,2.699,18.457,0.371c2.684-1.043,4.095-3.466,7.238-3.639
			c3.225-0.172,5.646,2.268,8.535,3.139c6.426,1.94,10.455-1.466,16.282,3.32C346.448,339.956,350.306,344.612,353.039,351.45z"/>
		<path style="opacity:0.46;fill:#F47423;enable-background:new    ;" d="M270.15,382.464c-4.842-5.691-9.175-10.036-6.467-18.935
			c0.353-1.155,0.78-2.302,1.264-3.423c0.115,0.5,0.205,1.121,0.41,1.759c1.412,4.406,2.7,4.104,6.262,2.5
			c1.945-0.871,2.905-2.371,4.021-4.302c1.674-2.897,4.35-3.233,6.352-5.553c2.035-2.362,1.945-5.786,3.677-8.07
			c1.847-2.432,4.727-3.897,6.213-6.734c0.287-0.56,0.369-1.233,0.673-1.716c0.435-0.698,1.067-0.888,1.526-1.5
			c1.059-1.405,0.533-2.294,0.238-3.846c2.774-0.043,5.187,1.906,7.206,3.57c1.568,1.293,6.204,3.863,5.088,6.837
			c-2.011,0.026-3.151-1.311-5.384-0.535c-1.674,0.586-2.881,2.181-4.44,2.949c-2.101,1.043-2.544,1.664-3.89,3.742
			c-0.936,1.44-2.339,2.199-3.135,3.811c-0.665,1.354-1.231,2.863-1.863,4.259c-0.681,1.526-0.328,2.751-0.763,4.294
			c-0.336,1.216-1.362,2.164-1.863,3.363c-0.591,1.431-1.067,3.018-1.477,4.484c-0.837,2.949-1.182,5.932-0.213,8.821
			c0.574,1.742,0.098,3.113,0.509,4.82c1.576,6.587,7.296,5.518,11.998,4.811c3.283-0.491,2.954-4.346,3.619-7.269
			c0.386-1.707,0.821-2.682,1.97-3.854c1.239-1.259,2.199-1.871,2.47-3.777c0.238-1.69-0.476-3.38-0.033-5.087
			c0.517-1.975,1.937-3.294,2.191-5.449c0.353-3.018,0.451-6.096,0.673-9.071c0.09-1.147,0.419-1.578,0.722-2.604
			c0.517-1.785,0.681-3.915,0.492-5.777c-0.057-0.526-0.96-5.173-1.182-5.234c0.936,0.259,1.682,0.879,2.684,1.095
			c0.591,0.129,2.667-0.017,3.004,0.604c0.788,1.405-1.526,3.147-2.093,4.156c-1.009,1.819-0.657,3.578-0.829,5.613
			c-0.164,1.966,0.246,4.19-0.213,6.087c-0.394,1.647-1.182,2.13-0.755,4.044c0.698,3.13,1.108,4.923,3.127,7.407
			c1.165,1.431,1.371,1.44,0.665,3.173c-0.624,1.518-1.19,2.509-0.574,4.182c0.23,0.629,1.001,1.207,1.149,1.811
			c0.222,0.905-0.312,1.035-0.295,1.768c0.025,1.483,0.985,2.285,1.658,3.458c1.305,2.25,3.102,4.242,5.597,4.734
			c1.141,0.224,2.692-0.138,3.947,0c1.354,0.155,2.314,0.431,3.414-0.586c1.961-1.811,2.577-5.622,3.324-8.131
			c0.599-2,2.191-1.474,3.192-2.966c1.239-1.854,0.049-4.044,0.025-6.018c-0.033-2.44,0.41-3.466-0.468-5.786
			c-0.763-2.035-0.287-4.113-0.747-6.165c-0.402-1.793-2.323-3.285-1.313-5.165c0.952,2.285,1.19,4.734,2.24,6.846
			c0.657,1.328,1.116,1.621,1.313,3.173c0.156,1.199,0.345,2.345,0.632,3.552c0.624,2.595,1.108,3.173,2.954,4.803
			c1.559,1.371,2.692,3.225,4.177,4.665c1.182,1.155,2.429,3.518,4.128,3.595c1.945,0.086,4.653-2.923,5.638-4.535
			c1.691-2.768,0.968-6.95,2.142-10.002c0.41-1.078,0.862-2.043,1.206-3.044c1.74,10.623,0.246,22.556-10.176,26.082
			c-2.905,0.983-6.631,0.354-9.577,1.483c-2.831,1.095-4.12,4.027-6.508,5.829c-5.81,4.389-13.213,4.009-19.278,0.681
			c-3.537-1.94-3.857-2.311-7.534-1.017c-3.004,1.052-6.41,2.294-9.7,2.294c-5.925,0-14.108-2.319-18.506-7.062
			C272.53,388.086,272.103,384.758,270.15,382.464z"/>
		<path style="opacity:0.47;fill:#DC6927;enable-background:new    ;" d="M267.458,375.877c-0.804-0.836-1.28-1.699-2.167-2.354
			c-0.788-0.578-1.797-0.673-2.085-1.88c0.968,4.078,3.849,7.174,6.943,10.812c1.953,2.294,2.38,5.622,4.522,7.933
			c4.399,4.742,12.581,7.07,18.506,7.062c3.299,0,6.697-1.242,9.7-2.294c3.677-1.293,3.997-0.923,7.534,1.017
			c6.065,3.337,13.476,3.708,19.278-0.681c2.388-1.802,3.677-4.742,6.508-5.829c2.946-1.13,6.672-0.5,9.577-1.483
			c6.368-2.164,9.397-7.458,10.398-13.675c-0.361,2.242-2.864,3.656-4.103,5.148c-1.543,1.854-2.191,2.173-4.604,2.75
			c-1.133,0.276-0.944,0.44-1.855-0.009c-0.476-0.224-0.624-0.888-1.272-1.086c-1.633-0.491-2.651-0.043-3.562-2
			c-0.944-2.026-1.174-4.716-1.773-6.906c-0.616-2.294-1.699-1.638-2.79-3.182c-0.755-1.078-0.689-3.371-1.149-4.656
			c-1.329-3.742-1.699-8.32-3.677-11.778c-0.394-0.698-0.78-0.819-1.059-1.681c-0.189-0.595-0.066-1.44-0.205-2.052
			c-0.287-1.311-1.19-2.388-1.354-3.725c-0.098-0.836,0.287-1.638,0.189-2.509c-0.156-1.354-2.142-3.63-1.215-4.889
			c0.648-0.879,2.281-0.552,3.045-1.173c0.591-0.483,0.419-1.181,1.354-1.414c1.083-0.267,2.7-0.198,3.882-0.362
			c1.485-0.207,3.028-0.095,4.497,0.181c-5.507-4.078-9.479-1-15.683-2.871c-2.889-0.871-5.302-3.311-8.535-3.139
			c-3.135,0.172-4.547,2.595-7.238,3.639c-5.704,2.225-11.12-2.682-17.53-0.69c1.075,0.44,7.641,3.432,5.425,4.837
			c1.756,0.491-0.098,1.578-0.714,2.035c-1.206,0.905-1.551,1.768-2.429,2.914c-0.722,0.948-1.674,1.638-2.388,2.544
			c-0.812,1.035-1.682,1.923-2.47,3.044c-1.42,2-3.184,3.802-4.735,5.682c-1.149,1.397-2.273,1.716-2.593,3.63
			c-0.369,2.173-0.213,1.966-1.847,3.587c-1.494,1.483-0.287,2.362-0.78,4.415c-0.156,0.647-0.583,1.13-0.706,1.811
			c-0.14,0.793,0.205,1.768,0,2.544c-0.673,2.457-5.252,2.587-4.801,6.148c-0.96,0.035-2.06,0.069-1.806,1.457
			c-1.412,0.336-1.6-1.061-2.47-1.336c-0.057-0.017-0.919-0.034-1.453,0.078C267.466,375.558,267.261,375.678,267.458,375.877z
			 M312.735,389.009c-2.716,4.811-3.545-7.967-3.947-9.157c-0.985-2.888,0.689-5.147,0-7.976c-0.443-1.811-0.468-2.294-0.197-4.19
			c0.213-1.492,0.361-2.888,0.566-4.363c0.254-1.871,1.477-3.113,1.699-5.001c0.189-1.655-0.238-3.337-0.254-5.001
			c-0.016-1.768,0.706-3.518,0.985-5.268c0.287-1.828,1.042-3.561,2.84-4.32c1.485-0.629,2.355,1.155,3.767,0.931
			c0.55-0.095,0.944-1.017,1.543-1.207c0.73-0.233,1.912,0.138,2.61,0.405c1.264,0.483,2.142,1.371,3.135,2.337
			c1.781,1.724,1.699,3.535,2.963,5.51c0.739,1.147,1.847,1.673,2.372,2.983c0.533,1.354,0.386,2.992,0.583,4.44
			c0.378,2.759,1.149,5.027,1.526,7.846c0.353,2.656,0.706,5.975,0.287,8.64c-0.353,2.276-0.427,5.139-1.042,7.338
			c-0.517,1.862-1.953,1.854-2.93,3.13c-1.141,1.492,0.312,2.095,0.172,3.449c-0.164,1.604-2.085,2.138-3.168,2.509
			c-1.387,0.483-2.437,0.836-3.915,0.129c-1.067-0.517-1.929-1.69-3.037-2.087c-0.041-0.009-0.082-0.026-0.123-0.034
			C317.24,389.56,313.999,392.794,312.735,389.009z M279.826,385.904c-0.025-0.966,0.895-2.181-0.057-3.095
			c-0.476-0.457-1.592,0.422-2.15-0.164c-1.108-1.181,0.895-3.561,1.198-4.596c0.607-2.087-0.96-2.457-1.157-4.363
			c-0.189-1.871,1.723-3.794,2.298-5.501c0.796-2.362,1.338-4.768,2.273-7.096c0.345-0.862,0.476-2.13,0.985-2.906
			c1.428-2.164,3.201-2.337,4.005-5.216c0.328-1.164,0.057-2.121,1.018-3.044c0.788-0.75,1.896-0.647,2.634-1.63
			c0.698-0.94,0.952-2.276,0.968-3.475c1.428-0.276,1.609-0.94,2.733-1.716c1.149-0.785,1.674-0.276,2.831,0
			c1.666,0.405,1.264,0.069,2.602-0.724c0.796-0.474,5.999-1.164,5.17,0.905c0.895,0.716,1.264,1.121,1.329,2.233
			c0.033,0.569-0.501,0.983-0.369,1.638c0.131,0.69,0.919,0.793,1.116,1.449c0.607,2.043,0.23,4.466,0.501,6.579
			c0.115,0.879,0.369,1.957,0.205,2.871c-0.181,1.026-1.042,1.673-0.952,2.863c0.057,0.802,0.771,1.466,0.788,2.406
			c0.016,1.224-0.706,1.983-0.985,3.104c-0.378,1.492,0.123,3.07-0.263,4.596c-0.295,1.164-0.993,1.914-1.428,2.966
			c-1.001,2.397,0.944,5.708-0.402,7.553c-1.067,1.466-1.568,1.043-1.863,3.044c-0.181,1.207,0.336,1.147-0.616,2.225
			c-0.369,0.422-0.944,0.543-1.313,0.897c-1.1,1.061-0.936,2.018-1.568,3.414c-0.977,2.19-1.338,1.38-2.93,0.724
			c-1.896-0.785-3.808,0.397-5.851,0.172c-0.763-0.086-1.97,0.216-2.618,0.06c-1.28-0.31-1.732-1.724-2.922-2.19
			c-0.689-0.276-1.256,0.276-1.937,0.147c-1.1-0.216-0.706-0.319-1.526-1.043c-0.944-0.828-1.543-1.44-1.707-2.578
			C279.842,386.258,279.834,386.086,279.826,385.904z"/>
		<path style="opacity:0.68;fill:#C86E29;enable-background:new    ;" d="M331.775,332.912c-0.87,0.241-1.74,0.586-2.52,0.957
			c-1.584,0.759-5.794,1.285-6.352,3.414c-0.279,1.061,0.419,2,1.288,2.888c0.862,0.879,1.888,1.707,2.29,2.535
			c0.952,1.931,2.396,4.949,2.561,7.096c-1.773-2-2.684-4.751-4.793-6.432c-1.149-0.923-2.323-0.854-3.414-1.716
			c-1.28-1.009-1.28-1.259-2.881-1.371c-2.946-0.207-3.529,0.655-5.515,3.095c-1.707,2.095-2.774,4.854-3.463,7.588
			c-0.238,0.974-0.336,1.828-0.821,2.673c-0.599-1.837-0.049-4.751,0.131-6.665c0.205-2.259,0.304-4.596-1.231-6.243
			c-1.641-1.759-3.307-1.164-5.359-1.026c-1.19,0.078-2.175-0.164-3.291,0.009c-1.001,0.155-1.912,0.914-2.946,0.862
			c1.215-1.621,3.028-2.768,4.949-2.906c0.993-0.069,3.783,0.923,4.177-0.759c0.304-1.25-3.151-3.294-4.03-3.708
			c-0.952-0.448-2.503-0.854-3.898-1.466c3.767,0.474,7.288,2.13,10.874,1.474c0.345,0.371,0.706,0.759,1.116,1.173
			c2.06,2.104,5.868,0.707,8.355,0.414c2.766-0.328,5.023-1.293,7.575-2.544c0.025-0.009,0.049-0.017,0.074-0.034
			c0.066,0.026,0.131,0.043,0.197,0.069C327.466,333.067,329.682,332.972,331.775,332.912z"/>
		<path style="opacity:0.68;fill:#BD5F28;enable-background:new    ;" d="M303.798,337.809c2.331-0.888,0.771-2.026-0.115-3.501
			c0.771,1.276,2.602,0.897,3.636,1.457c0.714,0.388,0.96,0.897,1.814,1.061c1.937,0.362,3.636,0.017,5.556,0
			c1.461-0.017,2.995,0.629,4.415,0.129c0.599-0.207,1.124-0.655,1.699-0.905c2.437-1.043,4.801-2.242,7.345-3.182
			c0.361,0.034,0.698,0.034,1.042,0.034c-2.782,0.914-6.672,2.845-6.787,5.656c-0.057,1.535,2.864,3.837,3.513,4.923
			c0.476,0.802,0.911,1.621,1.305,2.449c-3.102-3.673-7.591-8.148-12.097-5.613c-2.487,1.397-4.366,3.285-5.745,5.803
			c-0.304-3.397-1.362-6.889-4.793-7.519c-0.903-0.164-1.929-0.293-2.963-0.345C302.37,338.197,303.1,338.077,303.798,337.809z"/>
		<path style="opacity:0.68;fill:#80381B;enable-background:new    ;" d="M308.041,339.861c-1.009-0.552-1.986-1.13-3.004-1.612
			c0.074-0.034,0.14-0.069,0.213-0.121c0.509-0.336,0.657-1.086,0.345-1.612c0.074-0.026,0.14-0.06,0.222-0.078
			c0.829-0.198,1.65-0.129,2.478,0.026c0.23,0.164,0.484,0.302,0.854,0.371c1.937,0.362,3.636,0.017,5.556,0
			c1.461-0.017,2.995,0.629,4.415,0.129c0.304-0.112,0.591-0.276,0.878-0.448c0.689-0.172,1.395-0.224,2.109-0.267
			c-0.763,1.035-0.763,2.578,0.123,3.863c0.066,0.095,0.123,0.19,0.189,0.285c-2.126-1.19-4.678-1.552-6.984-0.776
			c-1.961,0.664-3.406,1.518-4.604,2.63C310.396,341.129,309.231,340.517,308.041,339.861z"/>
		<path style="opacity:0.75;fill:#C86E29;enable-background:new    ;" d="M270.15,382.464c-2.109-2.475-4.095-4.708-5.474-7.165
			c1.65,0.069,1.428,1.828,2.323,3.104c0.895,1.276,2.257,0.94,3.266,2.026c0.131-0.362,0.501-0.974,0.525-1.414
			c0.944,0.974,1.28,2.328,2.109,3.225c0.829-0.638,0.911-1.854,1.116-2.88c0.32-1.578,0.616-2.664,1.354-4.087
			c1.239-2.388,2.347-4.785,3.307-7.363c-0.788,3.035-1.74,6.174-2.158,9.364c-0.222,1.69-1.444,5.88-0.164,7.139
			c0.78-0.509,1.034-1.543,0.985-2.509c0.706,3.32-0.09,7.476,3.422,9.26c2.257,1.147,4.711,2.794,7.312,3.552
			c1.559,0.457,2.208-0.431,3.586-0.509c1.748-0.103,3.365,1.518,5.105,1.457c2.257-0.086,4.571-2.992,6.048-4.596
			c0.927-1.009,1.871-1.595,2.47-2.863c0.616-1.302,0.665-3.026,1.321-4.165c1.083,3.061,1.92,6.682,3.865,9.39
			c2.199,3.078,7.197,2.906,10.455,3.992c2.774,0.923,4.596-0.724,6.738-2.716c1.904-1.768,4.235-2.906,5.605-5.044
			c0.657-1.035,1.879-2.268,2.183-3.095c0.402-1.078,0.328-3.371,0.328-4.544c0-3.337-0.369-6.751-0.788-9.941
			c0.747,2.25,1.494,4.475,1.764,6.906c0.238,2.104-0.41,4.949,0.205,6.837c1.083-0.276,1.206-1.966,1.149-3.044
			c1.461,0.724,0.698,3.44,2.437,4.346c1.338,0.69,3.357-0.276,4.776-0.69c1.346-0.388,2.774-0.026,4.087-0.078
			c-1.075,0.724-2.273,1.345-3.636,1.802c-2.905,0.983-6.631,0.354-9.577,1.483c-2.831,1.095-4.12,4.027-6.508,5.829
			c-5.81,4.389-13.213,4.009-19.278,0.681c-3.537-1.94-3.857-2.311-7.534-1.017c-3.004,1.052-6.41,2.294-9.7,2.294
			c-5.925,0-14.108-2.319-18.506-7.062C272.53,388.086,272.103,384.758,270.15,382.464z"/>
		
			<linearGradient id="SVGID_7_" gradientUnits="userSpaceOnUse" x1="540.8852" y1="500.994" x2="550.4951" y2="474.5911" gradientTransform="matrix(-1 0 0 -1 886.957 842.11)">
			<stop  offset="0" style="stop-color:#FDDB38"/>
			<stop  offset="0.5" style="stop-color:#FEC928"/>
			<stop  offset="1" style="stop-color:#FBB217"/>
		</linearGradient>
		<path style="opacity:0.44;fill:url(#SVGID_7_);enable-background:new    ;" d="M338.34,338.327
			c1.756,0.466,3.02,1.673,4.563,3.544c1.781,2.164,3.98,4.035,5.392,6.562c1.526,2.733,2.552,5.527,3.504,8.536
			c1.009,3.199,1.223,10.554-1.469,12.959c-3.701,3.311-7.706-0.362-9.044-4.492c-0.558-1.707-0.23-3.406-0.854-5.13
			c-0.796-2.173-1.994-4.19-2.995-6.243c-1.059-2.173-2.052-4.553-3.562-6.398c-1.543-1.88-3.603-3.32-3.102-6.329
			c0.517-3.113,2.848-3.07,5.137-3.199C336.83,338.068,337.626,338.137,338.34,338.327z"/>
		
			<linearGradient id="SVGID_8_" gradientUnits="userSpaceOnUse" x1="557.3845" y1="486.6424" x2="572.97" y2="469.3329" gradientTransform="matrix(-1 0 0 -1 886.957 842.11)">
			<stop  offset="0" style="stop-color:#FDDB38"/>
			<stop  offset="0.5" style="stop-color:#FEC928"/>
			<stop  offset="1" style="stop-color:#FBB217"/>
		</linearGradient>
		<path style="opacity:0.52;fill:url(#SVGID_8_);enable-background:new    ;" d="M328.041,372.773
			c0.14,2.897-0.312,7.441-3.947,7.639c-3.652,0.198-6.254-5.587-6.549-8.907c-0.131-1.457,0.033-3.001-0.328-4.406
			c-0.345-1.336-1.1-2.561-1.568-3.906c-0.911-2.621-1.83-5.354-1.444-8.226c0.246-1.819,1.74-5.415,3.299-6.329
			c3.242-1.897,6.565,1.233,7.92,4.216c1.009,2.199,1.444,4.578,1.576,7.027c0.074,1.259-0.115,2.63,0.049,3.863
			c0.164,1.173,0.73,2.069,0.944,3.259C328.336,368.901,327.95,370.85,328.041,372.773z"/>
		
			<linearGradient id="SVGID_9_" gradientUnits="userSpaceOnUse" x1="579.9256" y1="490.5607" x2="604.2994" y2="463.4908" gradientTransform="matrix(-1 0 0 -1 886.957 842.11)">
			<stop  offset="0" style="stop-color:#FDDB38"/>
			<stop  offset="0.5" style="stop-color:#FEC928"/>
			<stop  offset="1" style="stop-color:#FBB217"/>
		</linearGradient>
		<path style="opacity:0.33;fill:url(#SVGID_9_);enable-background:new    ;" d="M299.456,371.695
			c-0.164,0.931-0.115,1.802-0.378,2.837c-1.108,4.406-5.121,10.545-9.815,9.381c-3.931-0.974-3.299-5.932-2.281-9.114
			c0.574-1.776,1.83-3.225,1.674-4.992c-0.074-0.888-0.903-1.552-0.788-2.638c0.107-1.078,0.919-2.069,1.346-2.966
			c2.618-5.475,1.141-13.865,7.124-17.02c2.298-1.216,5.925-1.026,7.247,1.647c1.896,3.828-0.443,8.872-0.96,12.683
			c-0.254,1.897,0.402,3.285-0.378,5.182c-0.591,1.423-1.814,2.38-2.429,3.759C299.645,370.884,299.53,371.298,299.456,371.695z"/>
		
			<linearGradient id="SVGID_10_" gradientUnits="userSpaceOnUse" x1="594.4404" y1="493.6029" x2="616.0815" y2="493.6029" gradientTransform="matrix(-1 0 0 -1 886.957 842.11)">
			<stop  offset="0" style="stop-color:#FDDB38"/>
			<stop  offset="0.5" style="stop-color:#FEC928"/>
			<stop  offset="1" style="stop-color:#FBB217"/>
		</linearGradient>
		<path style="opacity:0.26;fill:url(#SVGID_10_);enable-background:new    ;" d="M285.989,344.828
			c-1.239,1.336-1.74,3.139-2.716,4.622c-1.617,2.449-3.102,6.165-4.973,8.32c-1.083,1.242-1.896,0.931-3.291,1.267
			c-1.584,0.388-2.364,1.199-3.742,1.94c-2.306-5.518,6.237-13.02,9.044-16.451c1.477-1.811,2.7-4.768,4.276-6.217
			c1.141-1.052,7.673-4.121,7.928-0.698C292.669,339.775,287.236,343.483,285.989,344.828z"/>
		<path style="opacity:0.24;fill:#FCED82;enable-background:new    ;" d="M325.135,358.727c0.066,0.871,0.074,1.724,0.041,2.535
			c-0.066,1.449,0.369,9.536-0.443,9.855c-2.052,0.819-4.358-5.794-4.949-7.148c-1.707-3.88-9.503-11.856-4.185-15.477
			C321.738,344.302,324.758,353.511,325.135,358.727z"/>
		<path style="opacity:0.24;fill:#FCED82;enable-background:new    ;" d="M347.195,350.924c0.394,1.345,1.781,4.027,1.395,5.415
			c-0.755,2.673-3.316,0.241-4.456-1.233c-1.321-1.707-2.085-4.182-3.775-5.484c-1.576-1.216-3.529-1.414-5.146-2.647
			c-1.321-1.017-4.456-3.449-4.021-5.648c0.246-1.25,1.855-2.13,2.864-2.785c4.809-3.095,6.295,2.768,8.363,5.768
			C344.093,346.785,346.243,347.682,347.195,350.924z"/>
		<path style="opacity:0.24;fill:#FCED82;enable-background:new    ;" d="M302.714,360.52c-1.838,4.837-2.905,0.862-3.677-2.216
			c-0.665-2.604-3.316-5.932-2.634-8.864c0.714-3.07,4.079-3.526,6.098-1.673C305.25,350.277,303.904,357.391,302.714,360.52z"/>
		<g>
			<path style="fill:#806A2B;" d="M317.462,329.403c0.763,1.819,1.617,3.57,2.79,5.199c0.665,0.923,1.428,3.242,0.328,4.052
				c-0.771,0.578-2.249,0.121-3.11,0.069c-0.665-0.034-1.658-0.172-2.298,0c-0.558,0.155-1.067,0.742-1.625,0.983
				c-1.551,0.673-3.816,0.509-5.334-0.172c-0.845-0.379-1.42-0.897-1.674-1.88c-0.402-1.595,0.788-2.354,1.042-3.802
				c0.205-1.147-0.115-2.664-0.189-3.828c-0.09-1.397-0.64-2.837-1.157-4.096c-1.215-2.975-3.316-5.613-6.032-6.993
				c-3.865-1.966-9.29-2.319-12.819,0.664c-1.65,1.397-1.65,3.009-4.12,2.647c-1.526-0.224-3.242-0.923-4.506-1.914
				c-3.299-2.587,2.889-7.493,4.703-8.674c3.192-2.078,7.05-3.544,10.636-3.725c6.098-0.31,13.525,2.716,17.464,8.036
				c2.068,2.794,2.971,6.268,4.284,9.424C316.395,326.756,316.904,328.092,317.462,329.403z"/>
			<path style="fill:#6E5A24;" d="M285.423,312.468c-2.536,2.087-5.014,4.259-7.017,6.924c0-0.009,0-0.017,0.008-0.026
				c0.386-2.147,4.768-6.251,6.483-7.294c2.602-1.578,5.449-2.578,8.437-2.716c5.334-0.259,12.638,1.285,16.43,5.923
				c3.701,4.527,4.415,11.209,6.155,16.796c0.845,2.716,2.281,4.794,3.857,6.855c-0.763,0.069-1.691-0.164-2.298-0.198
				c-0.665-0.034-1.658-0.172-2.298,0c-0.033,0.009-0.066,0.035-0.098,0.043c-1.321-2.595-1.912-6.915-2.52-9.174
				c-0.648-2.397-0.082-5.915-1.083-8.053c-1.986-4.199-5.638-8.579-9.815-10.148c-4.481-1.69-9.2-1.285-13.73,0.009
				c-0.739,0.207-1.444,0.474-2.076,0.854C285.702,312.287,285.562,312.348,285.423,312.468z"/>
			<path style="fill:#6E5A24;" d="M283.683,318.901c0.066-0.069,0.148-0.121,0.213-0.19c2.142-2.225,1.912-4.63,5.687-5.311
				c5.802-1.052,11.941-1.569,16.332,3.794c2.388,2.914,3.562,5.449,3.808,9.39c0.14,2.319,1.157,4.751,1.756,6.967
				c0.73,2.664,0.747,4.57,1.641,6.32c-1.518,0.491-3.529,0.31-4.916-0.319c-0.845-0.379-1.42-0.897-1.674-1.88
				c-0.402-1.595,0.788-2.354,1.042-3.802c0.205-1.147-0.115-2.664-0.189-3.828c-0.09-1.397-0.64-2.837-1.157-4.096
				c-1.215-2.975-3.316-5.613-6.032-6.993c-3.865-1.966-9.29-2.319-12.819,0.664c-1.65,1.397-1.65,3.009-4.12,2.647
				c-0.583-0.086-1.182-0.25-1.781-0.466C282.353,320.927,283.125,319.944,283.683,318.901z"/>
			<path style="fill:#9F852F;" d="M317.774,331.567c0.525,0.983,2.61,3.759,1.994,5.027c-0.648,1.345-1.814-2.983-2.085-3.595
				c-0.443-1.026-1.149-1.854-1.674-2.837c-0.673-1.25-0.837-2.535-1.124-3.906c-0.279-1.302-0.796-2.526-1.157-3.785
				C315.016,325.557,316.223,328.67,317.774,331.567z"/>
			<path style="fill:#9F852F;" d="M310.281,322.341c0.468,1.673,1.174,3.018,1.436,4.759c0.32,2.13,0.558,4.346,0.96,6.449
				c0.361,1.862,1.091,3.371,1.067,5.372c-0.46-1.078-0.837-2.362-1.231-3.483c-1.001-2.906-1.124-5.751-1.65-8.76
				c-0.279-1.612-0.657-3.363-1.371-4.863c-0.369-0.776-0.525-1.621-0.936-2.328c-0.378-0.647-0.895-1.155-1.272-1.776
				c-0.78-1.259-1.535-2.207-2.757-3.009c-5.072-3.345-12.794-4.234-18.088-0.905c-1.444,0.914-2.38,2.406-3.562,3.682
				c-0.821,0.888-1.485,2.319-2.281,3.052c-0.098-0.733,0.46-2.423,0.755-3.095c0.451-1,1.239-1.837,2.101-2.397
				c1.313-0.862,2.495-2.225,3.824-2.957c1.625-0.897,3.283-1.388,5.08-1.483c4.686-0.25,8.937,1.164,12.762,4.121
				c0.558,0.431,1.198,0.793,1.682,1.319c0.739,0.785,1.797,1.768,2.355,2.716C309.789,319.815,309.945,321.151,310.281,322.341z"/>
			<path style="fill:#5A4C1F;" d="M303.666,310.968c0.796,0.319,1.559,0.802,2.298,1.25c1.461,0.888,2.7,2.138,3.718,3.595
				c2.027,2.88,3.225,6.406,4.021,9.907c0.378,1.681,0.739,3.268,1.075,4.975c0.295,1.5,1.018,2.845,1.551,4.337
				c0.287,0.785,1.666,2.492,2.134,3.82c-0.369-0.052-0.722-0.112-1.009-0.129c-0.492-0.026-1.165-0.103-1.748-0.078
				c-0.41-1.026-0.673-2.199-0.845-2.776c-0.427-1.449-1.149-3.225-1.346-4.759c-0.419-3.285-0.837-6.768-1.568-9.976
				c-0.583-2.552-2.47-4.397-4.054-6.234c-1.871-2.173-4.374-3.432-6.795-4.63C301.869,310.649,302.862,310.641,303.666,310.968z"/>
			<path style="fill:#5A4C1F;" d="M283.954,319.616c-0.55,0.759-1.05,1.612-1.551,2.457c-0.14-0.034-0.279-0.06-0.419-0.103
				c0.131-0.216,0.271-0.44,0.41-0.681c0.451-0.785,0.574-1.561,0.977-2.337c0.714-1.354,2.199-2.319,3.43-2.983
				c2.938-1.595,5.499-2.431,8.814-2.613c4.448-0.241,8.855,2.535,11.399,6.449c0.542,0.828,1.19,1.742,1.543,2.69
				c0.336,0.897,0.271,1.914,0.542,2.837c0.689,2.397,0.845,4.725,1.288,7.165c0.271,1.492,0.64,3.009,1.026,4.44
				c0.254,0.94,0.624,2.052,0.796,3.139c-0.369,0.052-0.747,0.069-1.124,0.069c-0.148-0.845-0.164-1.768-0.222-2.25
				c-0.205-1.561-0.64-3.121-0.985-4.656c-0.698-3.121-0.854-6.57-2.323-9.493c-0.927-1.837-2.142-3.501-3.119-5.346
				c-0.911-1.724-1.461-2.406-3.275-2.975c-0.361-0.112-0.722-0.207-1.091-0.293c-1.19-0.259-2.413-0.371-3.619-0.509
				c-3.209-0.354-6.434-0.06-9.101,1.983C286.202,317.504,284.881,318.358,283.954,319.616z"/>
			<path style="fill:#5A4C1F;" d="M283.716,322.307c0.23-0.371,0.476-0.716,0.665-1.043c0.632-1.043,1.526-1.974,2.429-2.733
				c1.206-1.026,2.831-1.078,4.218-1.483c2.938-0.854,6.574-1.181,9.586-0.112c1.239,0.44,2.889,1.328,3.545,2.544
				c0.739,1.362,1.485,2.707,2.273,4.044c0.96,1.638,1.009,2.992,1.346,4.837c0.312,1.716,0.673,3.397,0.977,5.079
				c0.287,1.595,0.509,3.44,0.574,5.07c0.025,0.517,0.049,0.992,0.041,1.405c-0.41-0.095-0.804-0.224-1.157-0.388
				c-0.845-0.379-1.42-0.897-1.674-1.88c-0.402-1.595,0.788-2.354,1.042-3.802c0.205-1.147-0.115-2.664-0.189-3.828
				c-0.09-1.397-0.64-2.837-1.157-4.096c-1.215-2.975-3.316-5.613-6.032-6.993c-3.865-1.966-9.29-2.319-12.819,0.664
				C285.833,320.918,285.734,322.41,283.716,322.307z"/>
			<path style="opacity:0.42;fill:#DDC251;enable-background:new    ;" d="M307.647,312.891c0.164,0.112,0.312,0.233,0.468,0.362
				c2.659,2.104,4.054,5.242,5.375,8.433c0.689,1.664,1.124,3.397,1.847,5.035c0.747,1.707,1.764,3.259,2.437,5.01
				c0.353,0.914,1.223,3.466-0.287,1.612c-1.403-1.724-2.101-4.294-3.135-6.277c-1.428-2.742-2.675-5.544-4.054-8.32
				c-0.706-1.423-1.174-2.897-2.347-3.992c-2.339-2.19-6.024-2.966-8.888-4.121c-3.496-1.405-7.509-0.992-10.882,0.638
				c-1.51,0.733-3.439,1.802-4.276,3.44c-0.419,0.819-1.444,4.294-2.757,3.725c0.271-1.552,0.492-2.94,1.494-4.113
				c0.944-1.104,2.117-1.923,3.168-2.897c1.001-0.923,2.446-1.336,3.668-1.854c3.709-1.578,8.289-1.19,11.924,0.293
				C303.535,310.727,305.743,311.511,307.647,312.891z"/>
			<path style="opacity:0.42;fill:#CECA47;enable-background:new    ;" d="M313.465,321.815c0.845,1.673,1.559,3.113,2.175,4.863
				c0.181,0.526,1.165,3.035,0.648,3.371c-0.492,0.319-0.944-0.966-1.108-1.276c-0.632-1.173-1.231-2.207-1.674-3.466
				c-0.41-1.164-0.476-2.509-1.239-3.466c-0.443-0.552-0.911-0.948-1.297-1.535c-0.345-0.535-0.583-1.198-1.256-1.224
				c-0.041,1.147,0.903,2.181,1.009,3.311c0.107,1.069,0.492,2.423,0.394,3.518c-0.821-0.966-1.034-2.371-1.321-3.561
				c-0.739-3.07-2.035-4.906-4.333-6.768c-1.477-1.199-2.938-1.931-4.596-2.828c-1.526-0.828-3.086-1.802-4.817-1.621
				c-1.74,0.19-3.529,0.94-5.302,0.629c0.057-1.13,5.556-1.604,6.565-1.457c-1.182-1.052-3.964-0.345-5.334-0.112
				c-1.305,0.224-3.997,2.009-5.162,0.776c1.74-1.449,3.824-1.742,5.966-1.871c2.405-0.155,4.842,0.224,7.173,0.862
				c1.863,0.509,3.586,1.13,5.417,1.957c1.477,0.664,2.708,1.88,3.947,2.957C311.545,316.78,312.169,319.237,313.465,321.815z"/>
			<path style="opacity:0.42;fill:#EFD462;enable-background:new    ;" d="M310.642,317.469c-1.633-1.38-2.897-3.475-4.867-4.328
				c-0.977-0.431-1.912-0.742-2.872-1.164c-0.78-0.345-2.183-0.543-2.675-1.354c1.559-0.052,3.348,0.992,4.785,1.543
				C306.875,312.874,310.7,314.667,310.642,317.469z"/>
		</g>
		<path style="opacity:0.68;fill:#BD5F28;enable-background:new    ;" d="M345.16,388.345c-2.807,0.724-6.213,0.259-8.954,1.319
			c-1.403,0.535-2.421,1.526-3.389,2.613c0.681-1.009,1.625-1.793,2.142-2.914c0.648-1.405,0.657-3.251,0.845-4.828
			c0.468-3.923,0.427-8.053-0.558-11.873c0.648,0.819,1.001,1.906,1.198,2.923c0.238,1.207,0.755,2.423,0.977,3.595
			c0.238,1.285-0.468,2.026-0.468,3.139c-0.008,1.173,0.517,4.303,1.518,5.053c0.41,0.302,1.412,0.259,1.896,0.543
			c1.477,0.871,1.609,0.862,3.299,0.457C344.224,388.224,344.758,388.233,345.16,388.345z"/>
		<path style="opacity:0.68;fill:#BD5F28;enable-background:new    ;" d="M302.879,395.156c-0.189,0.06-0.378,0.129-0.566,0.198
			c1.133-1.276,2.183-3.156,2.675-4.613c0.862-2.535,1.1-4.759,0.977-7.519c-0.131-2.914,0.509-5.544,0.509-8.433
			c0.96,2.837,0.336,6.484,0.673,9.743c0.189,1.888-1.1,7.941,1.502,8.622c0.189,0.647,0.074,1.509,0.263,2.19
			C306.686,394.165,305.956,394.078,302.879,395.156z"/>
		<path style="opacity:0.68;fill:#BD5F28;enable-background:new    ;" d="M274.672,390.397c-1.879-2.026-2.437-4.837-3.874-7.053
			c0.189,0.043,0.386,0.06,0.583,0.035c1.929-0.31,1.748-3.664,2.487-5.191c0.771-1.612,1.543-3.19,2.331-4.803
			c-0.492,2.009-1.067,3.983-1.354,6.113c-0.287,2.112-0.665,4.596-0.353,6.725c0.238,1.612,0.378,0.888,1.354,1.673
			c1.715,1.38,0.632,2.837,1.855,4.268c0.525,0.612,2.61,1.431,3.217,2.561C278.521,393.621,276.329,392.182,274.672,390.397z"/>
	</g>
	<g>
		
			<radialGradient id="SVGID_11_" cx="641.1284" cy="-3868.0881" r="27.0727" fx="626.2264" fy="-3875.3464" gradientTransform="matrix(-1.7655 0 0 -1.2846 1360.5681 -4554.5151)" gradientUnits="userSpaceOnUse">
			<stop  offset="0" style="stop-color:#FCB431"/>
			<stop  offset="0.2034" style="stop-color:#FCB031"/>
			<stop  offset="0.4713" style="stop-color:#FAA42D"/>
			<stop  offset="0.7739" style="stop-color:#F79226"/>
			<stop  offset="1" style="stop-color:#F58020"/>
		</radialGradient>
		<path style="fill:url(#SVGID_11_);" d="M271.955,402.27c4.571,11.425,6.976,31.902-7.255,36.731
			c-2.905,0.983-6.631,0.354-9.577,1.483c-2.831,1.095-4.12,4.027-6.508,5.829c-5.81,4.389-13.213,4.009-19.278,0.681
			c-3.537-1.94-3.857-2.311-7.534-1.017c-3.004,1.052-6.41,2.294-9.7,2.302c-5.925,0-14.107-2.319-18.506-7.062
			c-2.142-2.311-2.569-5.639-4.522-7.933c-4.842-5.691-9.175-10.036-6.467-18.935c2.027-6.665,6.467-12.916,10.964-17.745
			c4.924-5.285,9.446-10.674,15.987-13.382c6.82-2.819,12.474,2.699,18.457,0.371c2.684-1.043,4.095-3.466,7.238-3.639
			c3.225-0.172,5.646,2.268,8.535,3.139c6.426,1.94,10.455-1.466,16.274,3.32C265.365,390.776,269.222,395.441,271.955,402.27z"/>
		<path style="opacity:0.46;fill:#F47423;enable-background:new    ;" d="M189.066,433.284c-4.842-5.691-9.175-10.036-6.467-18.935
			c0.353-1.155,0.78-2.302,1.264-3.423c0.115,0.5,0.205,1.121,0.41,1.759c1.412,4.406,2.7,4.104,6.262,2.5
			c1.945-0.871,2.905-2.371,4.021-4.303c1.674-2.897,4.35-3.233,6.352-5.553c2.035-2.371,1.945-5.786,3.677-8.07
			c1.847-2.431,4.727-3.897,6.213-6.734c0.287-0.56,0.369-1.233,0.673-1.716c0.435-0.698,1.067-0.888,1.526-1.5
			c1.059-1.405,0.533-2.294,0.238-3.846c2.774-0.043,5.187,1.906,7.206,3.57c1.568,1.293,6.204,3.863,5.088,6.837
			c-2.011,0.026-3.151-1.311-5.384-0.535c-1.674,0.586-2.881,2.181-4.44,2.949c-2.101,1.043-2.544,1.673-3.89,3.742
			c-0.936,1.44-2.339,2.199-3.135,3.811c-0.665,1.354-1.231,2.863-1.863,4.259c-0.681,1.526-0.328,2.751-0.763,4.294
			c-0.336,1.216-1.362,2.164-1.863,3.363c-0.591,1.431-1.067,3.018-1.477,4.484c-0.837,2.949-1.182,5.932-0.213,8.821
			c0.574,1.742,0.098,3.113,0.509,4.82c1.576,6.587,7.296,5.518,11.998,4.811c3.283-0.491,2.954-4.346,3.619-7.269
			c0.386-1.707,0.821-2.682,1.97-3.854c1.239-1.259,2.199-1.871,2.47-3.777c0.238-1.69-0.476-3.38-0.033-5.087
			c0.517-1.975,1.937-3.294,2.191-5.449c0.353-3.018,0.451-6.096,0.673-9.071c0.09-1.147,0.419-1.578,0.722-2.604
			c0.517-1.785,0.681-3.915,0.492-5.777c-0.057-0.526-0.96-5.173-1.182-5.234c0.936,0.259,1.682,0.879,2.684,1.095
			c0.591,0.129,2.667-0.017,3.004,0.604c0.788,1.405-1.526,3.147-2.093,4.156c-1.009,1.819-0.657,3.578-0.829,5.613
			c-0.164,1.966,0.246,4.19-0.213,6.087c-0.394,1.647-1.182,2.13-0.755,4.044c0.698,3.13,1.108,4.923,3.127,7.407
			c1.165,1.431,1.371,1.44,0.665,3.173c-0.624,1.518-1.19,2.509-0.574,4.182c0.23,0.629,1.001,1.207,1.149,1.811
			c0.222,0.905-0.312,1.035-0.295,1.768c0.025,1.483,0.985,2.285,1.658,3.458c1.305,2.25,3.102,4.242,5.597,4.734
			c1.141,0.224,2.692-0.138,3.947,0c1.354,0.155,2.314,0.431,3.414-0.586c1.953-1.811,2.577-5.622,3.324-8.131
			c0.599-2,2.191-1.474,3.192-2.966c1.239-1.854,0.049-4.044,0.025-6.018c-0.033-2.44,0.41-3.466-0.468-5.786
			c-0.763-2.035-0.287-4.113-0.747-6.165c-0.402-1.793-2.323-3.285-1.313-5.165c0.952,2.285,1.19,4.734,2.24,6.846
			c0.657,1.328,1.116,1.621,1.313,3.173c0.156,1.199,0.345,2.345,0.632,3.552c0.624,2.595,1.108,3.173,2.954,4.803
			c1.559,1.371,2.692,3.225,4.177,4.665c1.182,1.155,2.429,3.518,4.12,3.596c1.945,0.086,4.653-2.923,5.638-4.535
			c1.691-2.768,0.968-6.95,2.142-10.002c0.41-1.078,0.862-2.043,1.206-3.044c1.74,10.623,0.246,22.556-10.176,26.082
			c-2.905,0.983-6.631,0.354-9.577,1.483c-2.831,1.095-4.12,4.027-6.508,5.829c-5.81,4.389-13.213,4.009-19.278,0.681
			c-3.537-1.94-3.857-2.311-7.534-1.017c-3.004,1.052-6.41,2.294-9.7,2.302c-5.925,0-14.108-2.319-18.506-7.062
			C191.446,438.906,191.02,435.578,189.066,433.284z"/>
		<path style="opacity:0.47;fill:#DC6927;enable-background:new    ;" d="M186.375,426.697c-0.804-0.836-1.28-1.699-2.167-2.354
			c-0.788-0.578-1.797-0.673-2.085-1.88c0.968,4.078,3.849,7.174,6.943,10.812c1.953,2.294,2.38,5.622,4.522,7.933
			c4.399,4.742,12.581,7.07,18.506,7.062c3.299,0,6.697-1.242,9.7-2.302c3.677-1.293,3.997-0.923,7.534,1.017
			c6.065,3.337,13.467,3.708,19.278-0.681c2.388-1.802,3.677-4.742,6.508-5.829c2.946-1.13,6.672-0.5,9.577-1.483
			c6.368-2.156,9.397-7.458,10.398-13.675c-0.361,2.242-2.864,3.656-4.103,5.148c-1.543,1.854-2.191,2.173-4.604,2.75
			c-1.133,0.276-0.944,0.44-1.855-0.009c-0.476-0.224-0.624-0.888-1.272-1.086c-1.633-0.491-2.651-0.043-3.562-2
			c-0.944-2.026-1.174-4.716-1.773-6.906c-0.616-2.294-1.699-1.638-2.79-3.182c-0.747-1.078-0.689-3.371-1.149-4.656
			c-1.329-3.742-1.699-8.32-3.677-11.778c-0.394-0.698-0.78-0.819-1.059-1.681c-0.189-0.595-0.066-1.44-0.205-2.052
			c-0.287-1.311-1.19-2.388-1.354-3.725c-0.098-0.836,0.287-1.638,0.189-2.509c-0.156-1.354-2.142-3.63-1.215-4.889
			c0.648-0.879,2.281-0.552,3.045-1.173c0.591-0.483,0.419-1.181,1.354-1.414c1.083-0.267,2.7-0.198,3.882-0.362
			c1.485-0.207,3.028-0.095,4.497,0.181c-5.507-4.078-9.479-1-15.683-2.871c-2.889-0.871-5.302-3.311-8.535-3.139
			c-3.135,0.172-4.547,2.595-7.238,3.639c-5.704,2.225-11.12-2.682-17.53-0.69c1.075,0.44,7.641,3.432,5.425,4.837
			c1.756,0.491-0.098,1.578-0.714,2.035c-1.206,0.905-1.559,1.768-2.429,2.914c-0.722,0.948-1.674,1.638-2.388,2.544
			c-0.812,1.035-1.682,1.923-2.47,3.044c-1.42,2-3.184,3.802-4.735,5.682c-1.149,1.397-2.273,1.716-2.593,3.63
			c-0.369,2.173-0.213,1.966-1.847,3.587c-1.494,1.483-0.287,2.362-0.78,4.415c-0.156,0.647-0.583,1.13-0.706,1.811
			c-0.14,0.793,0.205,1.768,0,2.544c-0.673,2.457-5.252,2.587-4.801,6.148c-0.96,0.035-2.06,0.069-1.806,1.457
			c-1.412,0.336-1.6-1.061-2.47-1.336c-0.057-0.017-0.919-0.034-1.453,0.078C186.391,426.378,186.186,426.498,186.375,426.697z
			 M231.652,439.837c-2.716,4.811-3.545-7.967-3.947-9.157c-0.985-2.888,0.689-5.148,0-7.976c-0.443-1.811-0.468-2.294-0.197-4.19
			c0.213-1.492,0.361-2.888,0.566-4.363c0.254-1.871,1.477-3.113,1.699-5.001c0.189-1.656-0.238-3.337-0.254-5.001
			c-0.016-1.768,0.706-3.518,0.985-5.268c0.287-1.828,1.042-3.561,2.84-4.32c1.485-0.629,2.355,1.155,3.767,0.931
			c0.55-0.095,0.944-1.017,1.543-1.207c0.73-0.233,1.912,0.138,2.61,0.405c1.264,0.483,2.142,1.371,3.135,2.337
			c1.781,1.724,1.699,3.535,2.963,5.51c0.739,1.147,1.847,1.673,2.372,2.983c0.533,1.354,0.386,2.992,0.583,4.44
			c0.378,2.759,1.149,5.027,1.526,7.846c0.353,2.656,0.706,5.975,0.287,8.64c-0.353,2.276-0.427,5.139-1.042,7.338
			c-0.517,1.862-1.953,1.854-2.93,3.13c-1.141,1.492,0.312,2.095,0.172,3.449c-0.164,1.604-2.085,2.13-3.168,2.509
			c-1.387,0.474-2.437,0.836-3.915,0.129c-1.067-0.517-1.929-1.69-3.037-2.087c-0.041-0.009-0.082-0.026-0.123-0.035
			C236.165,440.38,232.915,443.613,231.652,439.837z M198.742,436.724c-0.025-0.966,0.895-2.181-0.057-3.095
			c-0.476-0.457-1.592,0.422-2.15-0.164c-1.108-1.181,0.895-3.561,1.198-4.596c0.607-2.087-0.968-2.457-1.157-4.363
			c-0.189-1.871,1.723-3.794,2.298-5.501c0.796-2.362,1.338-4.768,2.273-7.096c0.345-0.862,0.476-2.13,0.985-2.906
			c1.428-2.164,3.201-2.337,4.005-5.216c0.328-1.164,0.057-2.121,1.018-3.044c0.788-0.75,1.896-0.647,2.634-1.63
			c0.698-0.94,0.952-2.276,0.968-3.475c1.428-0.276,1.609-0.94,2.733-1.716c1.149-0.785,1.674-0.276,2.831,0
			c1.666,0.405,1.264,0.069,2.602-0.724c0.796-0.474,5.999-1.164,5.17,0.905c0.895,0.716,1.264,1.121,1.329,2.233
			c0.033,0.569-0.501,0.983-0.369,1.638c0.131,0.69,0.919,0.793,1.116,1.449c0.607,2.043,0.23,4.466,0.501,6.579
			c0.115,0.879,0.369,1.957,0.205,2.871c-0.181,1.026-1.042,1.673-0.952,2.863c0.057,0.802,0.771,1.466,0.788,2.406
			c0.016,1.224-0.706,1.983-0.985,3.104c-0.378,1.492,0.123,3.07-0.263,4.596c-0.295,1.164-0.993,1.914-1.428,2.966
			c-1.001,2.397,0.944,5.708-0.402,7.553c-1.067,1.466-1.568,1.043-1.863,3.044c-0.181,1.207,0.336,1.147-0.616,2.225
			c-0.369,0.422-0.944,0.543-1.313,0.897c-1.1,1.061-0.936,2.018-1.568,3.414c-0.977,2.19-1.338,1.38-2.93,0.724
			c-1.896-0.785-3.808,0.397-5.851,0.172c-0.763-0.086-1.97,0.216-2.618,0.06c-1.28-0.31-1.732-1.724-2.922-2.19
			c-0.689-0.276-1.256,0.276-1.937,0.147c-1.1-0.216-0.706-0.319-1.526-1.043c-0.944-0.828-1.543-1.44-1.707-2.578
			C198.767,437.086,198.751,436.905,198.742,436.724z"/>
		<path style="opacity:0.68;fill:#C86E29;enable-background:new    ;" d="M250.691,383.732c-0.87,0.241-1.74,0.586-2.52,0.957
			c-1.584,0.759-5.794,1.285-6.352,3.414c-0.279,1.061,0.419,2,1.288,2.888c0.862,0.879,1.888,1.707,2.29,2.535
			c0.952,1.931,2.396,4.949,2.561,7.096c-1.773-2-2.684-4.751-4.793-6.432c-1.149-0.923-2.323-0.854-3.414-1.716
			c-1.28-1.009-1.28-1.259-2.881-1.371c-2.946-0.207-3.529,0.655-5.515,3.095c-1.707,2.095-2.774,4.854-3.463,7.588
			c-0.238,0.974-0.336,1.828-0.821,2.673c-0.599-1.837-0.049-4.751,0.131-6.665c0.205-2.259,0.304-4.596-1.231-6.243
			c-1.641-1.759-3.307-1.164-5.359-1.026c-1.19,0.078-2.175-0.164-3.291,0.009c-1.001,0.155-1.912,0.914-2.946,0.862
			c1.215-1.621,3.028-2.768,4.949-2.906c0.993-0.069,3.783,0.923,4.177-0.759c0.304-1.25-3.151-3.294-4.03-3.708
			c-0.952-0.448-2.503-0.854-3.898-1.466c3.775,0.474,7.288,2.13,10.874,1.474c0.345,0.371,0.706,0.759,1.116,1.173
			c2.06,2.104,5.868,0.707,8.355,0.414c2.766-0.328,5.023-1.293,7.575-2.544c0.025-0.009,0.049-0.017,0.074-0.034
			c0.066,0.026,0.131,0.043,0.197,0.069C246.391,383.887,248.599,383.792,250.691,383.732z"/>
		<path style="opacity:0.68;fill:#BD5F28;enable-background:new    ;" d="M222.714,388.638c2.331-0.888,0.771-2.026-0.115-3.501
			c0.771,1.276,2.602,0.897,3.636,1.457c0.714,0.388,0.96,0.897,1.814,1.061c1.937,0.362,3.636,0.017,5.556,0
			c1.461-0.017,2.995,0.629,4.415,0.129c0.599-0.207,1.124-0.655,1.699-0.905c2.437-1.043,4.801-2.242,7.345-3.182
			c0.361,0.035,0.698,0.035,1.042,0.035c-2.782,0.914-6.672,2.845-6.787,5.656c-0.057,1.535,2.864,3.837,3.513,4.923
			c0.476,0.802,0.911,1.621,1.305,2.449c-3.102-3.673-7.591-8.157-12.097-5.613c-2.487,1.397-4.366,3.285-5.745,5.803
			c-0.304-3.397-1.362-6.889-4.793-7.519c-0.903-0.164-1.929-0.293-2.963-0.345C221.286,389.017,222.017,388.896,222.714,388.638z"
			/>
		<path style="opacity:0.68;fill:#80381B;enable-background:new    ;" d="M226.957,390.69c-1.009-0.552-1.986-1.13-3.004-1.612
			c0.074-0.034,0.14-0.069,0.213-0.121c0.509-0.336,0.657-1.086,0.345-1.612c0.074-0.026,0.14-0.06,0.222-0.078
			c0.829-0.198,1.65-0.129,2.478,0.026c0.23,0.164,0.484,0.302,0.854,0.371c1.937,0.362,3.636,0.017,5.556,0
			c1.461-0.017,2.995,0.629,4.415,0.129c0.304-0.112,0.591-0.276,0.878-0.448c0.689-0.172,1.395-0.224,2.109-0.267
			c-0.763,1.035-0.763,2.578,0.123,3.863c0.066,0.095,0.123,0.181,0.189,0.285c-2.126-1.19-4.678-1.552-6.984-0.776
			c-1.961,0.664-3.406,1.518-4.604,2.63C229.313,391.949,228.147,391.337,226.957,390.69z"/>
		<path style="opacity:0.75;fill:#C86E29;enable-background:new    ;" d="M189.066,433.284c-2.109-2.475-4.095-4.708-5.474-7.165
			c1.65,0.069,1.428,1.828,2.323,3.104c0.895,1.276,2.257,0.94,3.266,2.026c0.131-0.362,0.501-0.974,0.525-1.414
			c0.944,0.974,1.28,2.328,2.109,3.225c0.829-0.638,0.903-1.854,1.116-2.88c0.32-1.578,0.616-2.664,1.354-4.087
			c1.239-2.388,2.347-4.785,3.307-7.363c-0.788,3.035-1.74,6.174-2.158,9.364c-0.222,1.69-1.444,5.88-0.164,7.139
			c0.78-0.509,1.034-1.543,0.985-2.509c0.706,3.32-0.09,7.476,3.422,9.26c2.257,1.147,4.711,2.794,7.312,3.552
			c1.559,0.457,2.208-0.431,3.586-0.509c1.748-0.103,3.365,1.518,5.105,1.457c2.257-0.086,4.579-2.992,6.048-4.596
			c0.927-1.009,1.871-1.595,2.47-2.863c0.616-1.302,0.665-3.026,1.321-4.165c1.083,3.061,1.92,6.682,3.865,9.39
			c2.199,3.078,7.197,2.906,10.455,3.992c2.774,0.923,4.596-0.724,6.738-2.716c1.904-1.768,4.235-2.906,5.605-5.044
			c0.657-1.035,1.879-2.268,2.183-3.095c0.402-1.078,0.328-3.371,0.328-4.544c0-3.337-0.369-6.751-0.788-9.941
			c0.747,2.25,1.494,4.475,1.764,6.906c0.238,2.104-0.41,4.949,0.205,6.837c1.083-0.276,1.206-1.966,1.149-3.044
			c1.461,0.724,0.698,3.44,2.437,4.346c1.338,0.69,3.357-0.276,4.776-0.69c1.346-0.388,2.774-0.026,4.087-0.078
			c-1.075,0.724-2.273,1.336-3.636,1.802c-2.905,0.983-6.631,0.354-9.577,1.483c-2.831,1.095-4.12,4.027-6.508,5.829
			c-5.81,4.389-13.213,4.009-19.278,0.681c-3.537-1.94-3.857-2.311-7.534-1.017c-3.004,1.052-6.41,2.294-9.7,2.302
			c-5.925,0-14.107-2.319-18.506-7.062C191.446,438.906,191.02,435.578,189.066,433.284z"/>
		
			<linearGradient id="SVGID_12_" gradientUnits="userSpaceOnUse" x1="621.9698" y1="450.1747" x2="631.5797" y2="423.7719" gradientTransform="matrix(-1 0 0 -1 886.957 842.11)">
			<stop  offset="0" style="stop-color:#FDDB38"/>
			<stop  offset="0.5" style="stop-color:#FEC928"/>
			<stop  offset="1" style="stop-color:#FBB217"/>
		</linearGradient>
		<path style="opacity:0.44;fill:url(#SVGID_12_);enable-background:new    ;" d="M257.257,389.146
			c1.756,0.466,3.02,1.673,4.563,3.544c1.781,2.164,3.98,4.035,5.392,6.562c1.526,2.733,2.552,5.527,3.504,8.536
			c1.009,3.199,1.223,10.554-1.469,12.959c-3.701,3.311-7.706-0.362-9.044-4.492c-0.558-1.707-0.23-3.406-0.854-5.13
			c-0.796-2.173-1.994-4.19-2.995-6.243c-1.059-2.173-2.052-4.553-3.562-6.406c-1.543-1.88-3.603-3.32-3.102-6.329
			c0.517-3.113,2.848-3.07,5.137-3.199C255.747,388.888,256.543,388.957,257.257,389.146z"/>
		
			<linearGradient id="SVGID_13_" gradientUnits="userSpaceOnUse" x1="638.4677" y1="435.8227" x2="654.0533" y2="418.5132" gradientTransform="matrix(-1 0 0 -1 886.957 842.11)">
			<stop  offset="0" style="stop-color:#FDDB38"/>
			<stop  offset="0.5" style="stop-color:#FEC928"/>
			<stop  offset="1" style="stop-color:#FBB217"/>
		</linearGradient>
		<path style="opacity:0.52;fill:url(#SVGID_13_);enable-background:new    ;" d="M246.957,423.592
			c0.14,2.897-0.312,7.441-3.947,7.639c-3.652,0.198-6.254-5.587-6.549-8.907c-0.131-1.457,0.033-3.001-0.328-4.406
			c-0.345-1.336-1.1-2.569-1.568-3.906c-0.911-2.621-1.83-5.354-1.444-8.226c0.246-1.819,1.74-5.415,3.299-6.329
			c3.242-1.897,6.565,1.233,7.92,4.216c1.009,2.199,1.444,4.578,1.576,7.027c0.074,1.259-0.115,2.63,0.049,3.863
			c0.164,1.173,0.73,2.069,0.944,3.259C247.253,419.73,246.875,421.678,246.957,423.592z"/>
		
			<linearGradient id="SVGID_14_" gradientUnits="userSpaceOnUse" x1="661.0089" y1="439.741" x2="685.3827" y2="412.6711" gradientTransform="matrix(-1 0 0 -1 886.957 842.11)">
			<stop  offset="0" style="stop-color:#FDDB38"/>
			<stop  offset="0.5" style="stop-color:#FEC928"/>
			<stop  offset="1" style="stop-color:#FBB217"/>
		</linearGradient>
		<path style="opacity:0.33;fill:url(#SVGID_14_);enable-background:new    ;" d="M218.373,422.515
			c-0.164,0.931-0.115,1.802-0.378,2.837c-1.108,4.406-5.121,10.545-9.815,9.381c-3.931-0.974-3.299-5.932-2.281-9.114
			c0.574-1.776,1.83-3.225,1.674-4.992c-0.074-0.888-0.903-1.552-0.788-2.638c0.107-1.078,0.919-2.069,1.346-2.966
			c2.618-5.475,1.141-13.865,7.124-17.02c2.298-1.216,5.925-1.026,7.247,1.647c1.896,3.828-0.443,8.881-0.96,12.683
			c-0.254,1.897,0.402,3.294-0.378,5.182c-0.591,1.423-1.814,2.38-2.429,3.759C218.562,421.704,218.455,422.118,218.373,422.515z"/>
		
			<linearGradient id="SVGID_15_" gradientUnits="userSpaceOnUse" x1="675.5237" y1="442.7831" x2="697.1649" y2="442.7831" gradientTransform="matrix(-1 0 0 -1 886.957 842.11)">
			<stop  offset="0" style="stop-color:#FDDB38"/>
			<stop  offset="0.5" style="stop-color:#FEC928"/>
			<stop  offset="1" style="stop-color:#FBB217"/>
		</linearGradient>
		<path style="opacity:0.26;fill:url(#SVGID_15_);enable-background:new    ;" d="M204.906,395.648
			c-1.239,1.336-1.74,3.139-2.716,4.622c-1.617,2.449-3.102,6.165-4.973,8.32c-1.083,1.242-1.896,0.931-3.291,1.267
			c-1.584,0.388-2.364,1.199-3.742,1.94c-2.306-5.518,6.237-13.02,9.044-16.451c1.477-1.811,2.7-4.768,4.276-6.217
			c1.141-1.052,7.673-4.121,7.928-0.698C211.586,390.595,206.153,394.303,204.906,395.648z"/>
		<path style="opacity:0.24;fill:#FCED82;enable-background:new    ;" d="M244.06,409.547c0.066,0.871,0.074,1.724,0.041,2.535
			c-0.066,1.449,0.369,9.536-0.443,9.855c-2.052,0.819-4.358-5.794-4.949-7.148c-1.707-3.88-9.503-11.856-4.185-15.477
			C240.663,395.122,243.675,404.339,244.06,409.547z"/>
		<path style="opacity:0.24;fill:#FCED82;enable-background:new    ;" d="M266.112,401.752c0.394,1.345,1.781,4.027,1.395,5.415
			c-0.755,2.673-3.316,0.241-4.456-1.233c-1.321-1.707-2.085-4.182-3.775-5.484c-1.576-1.216-3.529-1.414-5.146-2.647
			c-1.321-1.017-4.456-3.449-4.021-5.648c0.246-1.25,1.855-2.13,2.864-2.785c4.809-3.095,6.295,2.768,8.363,5.768
			C263.01,397.605,265.16,398.502,266.112,401.752z"/>
		<path style="opacity:0.24;fill:#FCED82;enable-background:new    ;" d="M221.631,411.34c-1.838,4.837-2.905,0.862-3.677-2.216
			c-0.665-2.604-3.316-5.941-2.634-8.864c0.714-3.07,4.079-3.527,6.098-1.673C224.175,401.097,222.821,408.21,221.631,411.34z"/>
		<g>
			<path style="fill:#806A2B;" d="M236.379,380.222c0.763,1.819,1.617,3.57,2.79,5.199c0.665,0.923,1.428,3.242,0.328,4.052
				c-0.771,0.578-2.249,0.121-3.11,0.069c-0.665-0.034-1.658-0.172-2.298,0c-0.558,0.155-1.067,0.742-1.625,0.983
				c-1.551,0.673-3.816,0.509-5.334-0.172c-0.845-0.379-1.42-0.897-1.674-1.88c-0.402-1.595,0.788-2.354,1.042-3.802
				c0.205-1.147-0.115-2.664-0.189-3.828c-0.09-1.397-0.64-2.837-1.157-4.096c-1.215-2.975-3.316-5.613-6.032-6.993
				c-3.865-1.966-9.29-2.319-12.819,0.664c-1.65,1.397-1.65,3.009-4.12,2.647c-1.526-0.224-3.242-0.923-4.506-1.914
				c-3.299-2.587,2.889-7.493,4.703-8.674c3.192-2.078,7.05-3.544,10.636-3.725c6.098-0.31,13.525,2.716,17.464,8.036
				c2.068,2.794,2.971,6.268,4.284,9.424C235.32,377.575,235.829,378.912,236.379,380.222z"/>
			<path style="fill:#6E5A24;" d="M204.339,363.288c-2.536,2.087-5.014,4.259-7.017,6.924c0-0.009,0-0.017,0.008-0.026
				c0.386-2.147,4.768-6.251,6.483-7.294c2.602-1.578,5.449-2.578,8.437-2.716c5.334-0.259,12.638,1.285,16.43,5.923
				c3.701,4.527,4.415,11.209,6.155,16.796c0.845,2.716,2.281,4.794,3.857,6.855c-0.763,0.069-1.691-0.164-2.298-0.198
				c-0.665-0.034-1.658-0.172-2.298,0c-0.033,0.009-0.066,0.034-0.098,0.043c-1.321-2.595-1.912-6.915-2.52-9.174
				c-0.648-2.397-0.082-5.915-1.083-8.053c-1.986-4.199-5.638-8.579-9.815-10.148c-4.481-1.69-9.2-1.285-13.73,0.009
				c-0.739,0.207-1.444,0.474-2.076,0.854C204.618,363.107,204.479,363.168,204.339,363.288z"/>
			<path style="fill:#6E5A24;" d="M202.6,369.72c0.066-0.069,0.148-0.121,0.213-0.19c2.142-2.225,1.912-4.63,5.687-5.311
				c5.802-1.052,11.941-1.569,16.332,3.794c2.388,2.914,3.562,5.449,3.808,9.39c0.14,2.319,1.157,4.751,1.756,6.967
				c0.73,2.664,0.747,4.57,1.641,6.32c-1.518,0.491-3.529,0.31-4.916-0.319c-0.845-0.379-1.42-0.897-1.674-1.88
				c-0.402-1.595,0.788-2.354,1.042-3.802c0.205-1.147-0.115-2.664-0.189-3.828c-0.09-1.397-0.64-2.837-1.157-4.096
				c-1.215-2.975-3.316-5.613-6.032-6.993c-3.865-1.966-9.29-2.319-12.819,0.664c-1.65,1.397-1.65,3.009-4.12,2.647
				c-0.583-0.086-1.182-0.25-1.781-0.466C201.27,371.747,202.041,370.764,202.6,369.72z"/>
			<path style="fill:#9F852F;" d="M236.691,382.387c0.525,0.983,2.61,3.759,1.994,5.027c-0.648,1.345-1.814-2.983-2.085-3.595
				c-0.443-1.026-1.149-1.854-1.674-2.837c-0.673-1.25-0.837-2.535-1.124-3.906c-0.279-1.302-0.796-2.526-1.157-3.785
				C233.933,376.377,235.139,379.498,236.691,382.387z"/>
			<path style="fill:#9F852F;" d="M229.198,373.161c0.468,1.673,1.174,3.018,1.436,4.759c0.32,2.13,0.558,4.346,0.96,6.449
				c0.361,1.862,1.091,3.371,1.067,5.372c-0.46-1.078-0.837-2.362-1.231-3.483c-1.001-2.906-1.124-5.751-1.65-8.76
				c-0.279-1.612-0.657-3.363-1.371-4.863c-0.369-0.776-0.525-1.621-0.936-2.328c-0.378-0.647-0.895-1.155-1.272-1.776
				c-0.78-1.259-1.535-2.207-2.757-3.009c-5.072-3.345-12.794-4.234-18.088-0.905c-1.444,0.914-2.38,2.406-3.562,3.682
				c-0.821,0.888-1.485,2.319-2.281,3.052c-0.098-0.733,0.46-2.423,0.755-3.095c0.451-1,1.239-1.837,2.101-2.397
				c1.313-0.862,2.495-2.225,3.824-2.957c1.625-0.897,3.283-1.388,5.08-1.483c4.686-0.25,8.937,1.164,12.762,4.121
				c0.558,0.431,1.198,0.793,1.682,1.319c0.739,0.785,1.797,1.768,2.355,2.716C228.705,370.643,228.861,371.971,229.198,373.161z"/>
			<path style="fill:#5A4C1F;" d="M222.583,361.788c0.796,0.319,1.559,0.802,2.306,1.25c1.461,0.888,2.7,2.138,3.718,3.595
				c2.027,2.88,3.225,6.406,4.021,9.907c0.378,1.681,0.739,3.268,1.075,4.975c0.295,1.5,1.018,2.845,1.551,4.337
				c0.287,0.785,1.666,2.492,2.134,3.82c-0.369-0.052-0.722-0.112-1.009-0.129c-0.492-0.026-1.165-0.103-1.748-0.078
				c-0.41-1.026-0.673-2.199-0.845-2.776c-0.427-1.449-1.149-3.225-1.346-4.759c-0.419-3.285-0.837-6.768-1.567-9.976
				c-0.583-2.552-2.47-4.397-4.054-6.234c-1.871-2.164-4.374-3.432-6.795-4.63C220.786,361.469,221.787,361.46,222.583,361.788z"/>
			<path style="fill:#5A4C1F;" d="M202.87,370.436c-0.55,0.759-1.05,1.612-1.551,2.457c-0.14-0.034-0.279-0.06-0.419-0.103
				c0.131-0.216,0.271-0.44,0.41-0.681c0.451-0.785,0.574-1.561,0.977-2.337c0.714-1.354,2.199-2.319,3.43-2.983
				c2.938-1.595,5.499-2.431,8.814-2.613c4.448-0.241,8.855,2.535,11.399,6.449c0.542,0.828,1.19,1.742,1.543,2.69
				c0.336,0.897,0.271,1.914,0.542,2.837c0.689,2.397,0.845,4.725,1.288,7.165c0.271,1.492,0.64,3.009,1.026,4.44
				c0.254,0.94,0.624,2.052,0.796,3.139c-0.369,0.052-0.747,0.069-1.124,0.069c-0.148-0.845-0.164-1.768-0.222-2.25
				c-0.205-1.561-0.64-3.121-0.985-4.656c-0.698-3.121-0.854-6.57-2.323-9.493c-0.927-1.837-2.142-3.501-3.119-5.346
				c-0.911-1.724-1.461-2.406-3.275-2.975c-0.361-0.112-0.722-0.207-1.092-0.293c-1.19-0.259-2.413-0.371-3.619-0.509
				c-3.209-0.354-6.434-0.06-9.101,1.983C205.119,368.324,203.798,369.177,202.87,370.436z"/>
			<path style="fill:#5A4C1F;" d="M202.632,373.126c0.23-0.371,0.476-0.716,0.665-1.043c0.632-1.043,1.526-1.975,2.429-2.733
				c1.206-1.026,2.831-1.078,4.218-1.483c2.938-0.854,6.574-1.181,9.586-0.112c1.239,0.44,2.889,1.328,3.545,2.544
				c0.739,1.362,1.485,2.707,2.273,4.044c0.96,1.638,1.009,2.992,1.346,4.837c0.312,1.716,0.673,3.397,0.977,5.079
				c0.295,1.595,0.509,3.44,0.574,5.079c0.025,0.517,0.049,0.992,0.041,1.405c-0.41-0.095-0.804-0.224-1.157-0.388
				c-0.845-0.379-1.42-0.897-1.674-1.88c-0.402-1.595,0.788-2.354,1.042-3.802c0.205-1.147-0.115-2.664-0.189-3.828
				c-0.09-1.397-0.64-2.837-1.157-4.096c-1.215-2.975-3.316-5.613-6.032-6.993c-3.865-1.966-9.29-2.319-12.819,0.664
				C204.758,371.738,204.651,373.23,202.632,373.126z"/>
			<path style="opacity:0.42;fill:#DDC251;enable-background:new    ;" d="M226.563,363.711c0.164,0.112,0.312,0.233,0.468,0.362
				c2.651,2.104,4.054,5.242,5.375,8.433c0.689,1.664,1.124,3.397,1.847,5.035c0.747,1.707,1.764,3.259,2.437,5.01
				c0.353,0.914,1.223,3.466-0.287,1.612c-1.403-1.724-2.101-4.294-3.135-6.277c-1.428-2.742-2.675-5.544-4.054-8.312
				c-0.706-1.423-1.174-2.897-2.347-3.992c-2.339-2.19-6.024-2.966-8.888-4.121c-3.496-1.405-7.509-0.992-10.882,0.638
				c-1.51,0.733-3.439,1.802-4.276,3.44c-0.419,0.819-1.444,4.294-2.757,3.725c0.271-1.552,0.492-2.94,1.494-4.113
				c0.944-1.104,2.117-1.923,3.168-2.897c1.001-0.923,2.446-1.336,3.668-1.854c3.709-1.578,8.289-1.19,11.924,0.293
				C222.452,361.547,224.659,362.331,226.563,363.711z"/>
			<path style="opacity:0.42;fill:#CECA47;enable-background:new    ;" d="M232.382,372.635c0.845,1.673,1.559,3.113,2.175,4.863
				c0.181,0.526,1.165,3.035,0.648,3.371c-0.492,0.319-0.944-0.966-1.108-1.276c-0.632-1.173-1.231-2.207-1.674-3.466
				c-0.402-1.164-0.476-2.509-1.239-3.466c-0.443-0.552-0.911-0.948-1.297-1.535c-0.345-0.535-0.583-1.199-1.256-1.224
				c-0.041,1.147,0.903,2.181,1.009,3.311c0.107,1.069,0.492,2.423,0.394,3.518c-0.821-0.966-1.034-2.371-1.321-3.561
				c-0.739-3.07-2.035-4.906-4.333-6.768c-1.477-1.199-2.938-1.931-4.596-2.828c-1.526-0.828-3.086-1.802-4.817-1.621
				c-1.74,0.19-3.529,0.94-5.302,0.629c0.057-1.13,5.556-1.604,6.565-1.457c-1.182-1.052-3.964-0.345-5.334-0.112
				c-1.305,0.224-3.997,2.009-5.162,0.776c1.74-1.449,3.824-1.742,5.966-1.871c2.405-0.155,4.834,0.224,7.173,0.862
				c1.863,0.509,3.586,1.13,5.417,1.957c1.477,0.664,2.708,1.88,3.947,2.957C230.462,367.599,231.085,370.057,232.382,372.635z"/>
			<path style="opacity:0.42;fill:#EFD462;enable-background:new    ;" d="M229.559,368.289c-1.633-1.38-2.897-3.475-4.867-4.328
				c-0.977-0.431-1.912-0.741-2.872-1.164c-0.78-0.345-2.183-0.543-2.675-1.354c1.559-0.052,3.348,0.992,4.785,1.543
				C225.792,363.702,229.616,365.487,229.559,368.289z"/>
		</g>
		<path style="opacity:0.68;fill:#BD5F28;enable-background:new    ;" d="M264.077,439.164c-2.807,0.724-6.213,0.259-8.954,1.319
			c-1.403,0.535-2.421,1.526-3.389,2.613c0.681-1.009,1.625-1.793,2.142-2.914c0.648-1.405,0.657-3.251,0.845-4.828
			c0.468-3.923,0.427-8.053-0.558-11.873c0.648,0.819,1.001,1.906,1.198,2.923c0.238,1.207,0.755,2.423,0.977,3.595
			c0.238,1.285-0.468,2.026-0.468,3.139c-0.008,1.173,0.517,4.303,1.518,5.053c0.41,0.302,1.412,0.259,1.896,0.543
			c1.477,0.871,1.609,0.862,3.299,0.457C263.141,439.044,263.675,439.052,264.077,439.164z"/>
		<path style="opacity:0.68;fill:#BD5F28;enable-background:new    ;" d="M221.803,445.985c-0.189,0.06-0.378,0.129-0.566,0.198
			c1.133-1.276,2.183-3.156,2.675-4.604c0.862-2.535,1.1-4.759,0.977-7.519c-0.131-2.914,0.509-5.544,0.509-8.433
			c0.96,2.837,0.336,6.484,0.673,9.743c0.189,1.888-1.1,7.941,1.502,8.622c0.189,0.647,0.074,1.509,0.263,2.19
			C225.603,444.984,224.873,444.898,221.803,445.985z"/>
		<path style="opacity:0.68;fill:#BD5F28;enable-background:new    ;" d="M193.588,441.216c-1.879-2.026-2.437-4.837-3.874-7.053
			c0.189,0.043,0.386,0.06,0.583,0.035c1.929-0.31,1.748-3.664,2.487-5.191c0.771-1.612,1.543-3.19,2.331-4.803
			c-0.492,2.009-1.067,3.983-1.354,6.113c-0.287,2.112-0.665,4.596-0.353,6.725c0.238,1.612,0.378,0.888,1.354,1.673
			c1.715,1.38,0.632,2.837,1.855,4.268c0.525,0.612,2.61,1.431,3.217,2.561C197.446,444.441,195.246,443.001,193.588,441.216z"/>
	</g>
</g>
</svg>
