<?xml version="1.0" encoding="iso-8859-1"?>
<!-- Generator: Adobe Illustrator 23.0.2, SVG Export Plug-In . SVG Version: 6.00 Build 0)  -->
<svg version="1.1" id="Layer_1" xmlns="http://www.w3.org/2000/svg" xmlns:xlink="http://www.w3.org/1999/xlink" x="0px" y="0px"
	 viewBox="0 0 595.276 841.89" style="enable-background:new 0 0 595.276 841.89;" xml:space="preserve">
<g>
	<path style="fill:#5956A5;" d="M173.155,246.182l15.064,0.402c7.803,0,13.531-0.52,17.141-1.56c0.516,1.82,0.787,3.923,0.787,6.286
		c0,2.363-0.57,4.466-1.71,6.333c-1.14,1.867-2.524,2.812-4.139,2.812l-8.211-1.701c0,0.614-0.122,3.308-0.353,8.105
		c-0.679,11.768-1.004,23.583-1.004,35.422c0,11.862,0.502,23.701,1.493,35.54c-1.574,1.04-3.216,1.583-4.926,1.583
		c-1.71,0-3.189-0.898-4.424-2.67s-1.859-4.49-1.859-8.105s0.244-9.996,0.719-19.141s0.706-18.054,0.706-26.726
		c0-8.672-0.231-16.754-0.706-24.245c-5.768,0.52-10.26,2.009-13.503,4.443c-0.57-2.009-0.855-4.253-0.855-6.735
		c0-2.481,0.543-4.773,1.642-6.853C170.102,247.221,171.472,246.182,173.155,246.182z"/>
	<path style="fill:#5956A5;" d="M221.998,337.797c-1.52,1.04-3.135,1.583-4.858,1.583c-1.71,0-3.203-0.993-4.465-3.001
		c-1.262-2.009-1.886-4.75-1.886-8.247c0-3.474,0.231-10.161,0.706-20.062c0.475-9.877,0.719-17.794,0.719-23.725
		c0-15.242-0.502-27.317-1.506-36.202c1.52-1.04,3.149-1.56,4.858-1.56c1.71,0,3.203,0.993,4.465,3.001
		c1.262,2.009,1.9,4.466,1.9,7.373c0,2.93-0.054,5.742-0.176,8.436c-0.109,2.694-0.271,5.789-0.461,9.287
		c-0.204,3.474-0.339,6.546-0.434,9.145c1.9,0.354,5.198,0.52,9.853,0.52c4.669,0,8.251-0.354,10.789-1.04
		c0-13.847-0.502-25.828-1.506-35.942c1.52-1.04,3.149-1.56,4.858-1.56c1.724,0,3.203,0.993,4.465,3.001
		c1.262,2.009,1.886,4.773,1.886,8.294c0,3.521-0.244,9.783-0.719,18.763c-0.475,8.979-0.719,16.163-0.719,21.575
		c0,17.085,0.502,30.79,1.506,41.164c-1.52,1.04-3.149,1.56-4.859,1.56c-1.71,0-3.203-0.993-4.465-3.001
		c-1.262-2.009-1.9-4.655-1.9-7.987c0-3.308,0.19-8.72,0.57-16.21c0.38-7.491,0.624-12.619,0.719-15.431
		c-4.669-0.614-11.617-0.922-20.859-0.922v3.403C220.505,315.442,221.007,328.037,221.998,337.797z"/>
	<path style="fill:#5956A5;" d="M282.499,294.931c2.144,8.294,4.859,15.525,8.143,21.693c3.284,6.191,6.541,10.208,9.785,12.028
		c0,3.663-0.529,6.498-1.574,8.483c-1.045,2.009-2.538,3.001-4.506,3.001c-2.524,0-5.401-2.977-8.645-8.956
		c-3.244-5.978-6.053-13.02-8.468-21.173c-2.402-8.153-3.827-15.313-4.248-21.504c3.42,0,6.256-1.678,8.455-5.033
		c2.212-3.356,3.325-8.129,3.325-14.32c0-7.845-2.674-11.768-8.007-11.768c-1.71,0-3.8,0.52-6.284,1.56
		c-0.326,11.768-0.502,21.267-0.502,28.498c0,23.181,0.502,39.959,1.506,50.309c-1.534,1.04-3.149,1.583-4.858,1.583
		c-1.71,0-3.203-0.992-4.465-3.001c-1.262-2.009-1.886-4.655-1.886-7.987c0-3.308,0.231-9.074,0.719-17.321
		c0.475-8.223,0.719-14.84,0.719-19.802c0-15.242-0.597-28.805-1.791-40.644c6.433-3.214,12.54-4.844,18.362-4.844
		c10.613,0,15.919,6.924,15.919,20.771c0,6.097-1.126,11.815-3.393,17.179C288.565,289.118,285.783,292.828,282.499,294.931z"/>
	<path style="fill:#5956A5;" d="M337.639,321.326c0.57,2.339,0.855,5.01,0.855,7.963c0,2.977-0.556,5.506-1.683,7.656
		c-1.126,2.15-2.497,3.214-4.099,3.214c-5.049,0-12.961-0.52-23.709-1.56c-0.869-0.095-1.629-0.591-2.294-1.512
		s-1.004-2.079-1.004-3.474c0-4.608,0.204-12.406,0.611-23.394c0.407-10.965,0.611-21.244,0.611-30.767
		c0-9.547-0.502-20.488-1.493-32.87c3.529,0.52,8.265,0.78,14.223,0.78c5.944,0,11.644-0.78,17.073-2.363
		c0.57,1.914,0.855,4.206,0.855,6.853c0,2.67-0.556,5.01-1.683,7.065c-1.113,2.056-2.497,3.072-4.139,3.072s-4.261-0.425-7.858-1.3
		c-3.596-0.874-6.256-1.3-7.966-1.3c-0.38,8.814-0.597,17.085-0.651,24.836c2.999,0.52,6.229,0.78,9.676,0.78
		s6.419-0.922,8.889-2.741c0.57,1.914,0.855,4.206,0.855,6.853c0,2.67-0.556,5.057-1.669,7.184c-1.126,2.15-2.456,3.214-4.004,3.214
		c-1.547,0-3.841-0.544-6.894-1.63c-3.054-1.087-5.361-1.63-6.935-1.63c0,13.776,0.163,23.867,0.502,30.318
		c2.294,0.354,4.071,0.52,5.361,0.52C327.352,327.068,332.876,325.154,337.639,321.326z"/>
	<path style="fill:#5956A5;" d="M377.145,321.326c0.57,2.339,0.855,5.01,0.855,7.963c0,2.977-0.556,5.506-1.683,7.656
		c-1.126,2.15-2.484,3.214-4.112,3.214c-5.035,0-12.947-0.52-23.709-1.56c-0.855-0.095-1.615-0.591-2.294-1.512
		c-0.665-0.922-1.004-2.079-1.004-3.474c0-4.608,0.204-12.406,0.611-23.394c0.407-10.965,0.611-21.244,0.611-30.767
		c0-9.547-0.502-20.488-1.506-32.87c3.529,0.52,8.265,0.78,14.209,0.78c5.958,0,11.644-0.78,17.073-2.363
		c0.57,1.914,0.855,4.206,0.855,6.853c0,2.67-0.556,5.01-1.669,7.065c-1.126,2.056-2.497,3.072-4.139,3.072s-4.261-0.425-7.858-1.3
		c-3.596-0.874-6.256-1.3-7.966-1.3c-0.38,8.814-0.584,17.085-0.638,24.836c2.999,0.52,6.229,0.78,9.676,0.78
		c3.461,0,6.419-0.922,8.889-2.741c0.57,1.914,0.855,4.206,0.855,6.853c0,2.67-0.556,5.057-1.669,7.184
		c-1.126,2.15-2.456,3.214-4.004,3.214s-3.841-0.544-6.894-1.63c-3.04-1.087-5.361-1.63-6.935-1.63
		c0,13.776,0.163,23.867,0.502,30.318c2.294,0.354,4.071,0.52,5.361,0.52C366.858,327.068,372.382,325.154,377.145,321.326z"/>
</g>
</svg>
