<?xml version="1.0" encoding="utf-8"?>
<!-- Generator: Adobe Illustrator 26.5.0, SVG Export Plug-In . SVG Version: 6.00 Build 0)  -->
<svg version="1.1" id="Layer_1" xmlns="http://www.w3.org/2000/svg" xmlns:xlink="http://www.w3.org/1999/xlink" x="0px" y="0px"
	 viewBox="0 0 612 792" style="enable-background:new 0 0 612 792;" xml:space="preserve">
<style type="text/css">
	.st0{fill:#6D67AE;}
	.st1{fill:#FFFFFF;}
	.st2{fill:#5755A5;}
	.st3{fill:url(#SVGID_1_);}
	.st4{opacity:0.46;fill:#F37321;}
	.st5{opacity:0.47;fill:#DC6826;}
	.st6{opacity:0.68;fill:#C86D28;}
	.st7{opacity:0.68;fill:#BC5E27;}
	.st8{opacity:0.68;fill:#7F371A;}
	.st9{opacity:0.75;fill:#C86D28;}
	.st10{opacity:0.44;fill:url(#SVGID_00000053504387628508340350000016134346304873834150_);}
	.st11{opacity:0.52;fill:url(#SVGID_00000059991770603329823460000010518825643489302964_);}
	.st12{opacity:0.33;fill:url(#SVGID_00000156560219802350452010000006276044020925024698_);}
	.st13{opacity:0.26;fill:url(#SVGID_00000167377245293389958340000003413352810049335997_);}
	.st14{opacity:0.24;fill:#FDED81;}
	.st15{fill:#7F692A;}
	.st16{fill:#6D5924;}
	.st17{fill:#9F852F;}
	.st18{fill:#594B1E;}
	.st19{opacity:0.42;fill:#DDC251;}
	.st20{opacity:0.42;fill:#CECA48;}
	.st21{opacity:0.42;fill:#EFD461;}
	.st22{fill:url(#SVGID_00000139287300348573183440000007171055564623506615_);}
	.st23{opacity:0.44;fill:url(#SVGID_00000083795276088442785830000000715529795637243048_);}
	.st24{opacity:0.52;fill:url(#SVGID_00000177445790813216590480000016078122386974393754_);}
	.st25{opacity:0.33;fill:url(#SVGID_00000121240896632108487260000004006115670563949729_);}
	.st26{opacity:0.26;fill:url(#SVGID_00000132805850110391866870000014870515210010940348_);}
	.st27{fill:url(#SVGID_00000169550298142038165950000011169529392897481401_);}
	.st28{opacity:0.44;fill:url(#SVGID_00000074412362457075345630000011580274162685083280_);}
	.st29{opacity:0.52;fill:url(#SVGID_00000004509352474731586400000016202065953742013626_);}
	.st30{opacity:0.33;fill:url(#SVGID_00000045603951010935890150000006690049766483908492_);}
	.st31{opacity:0.26;fill:url(#SVGID_00000101821552744946472970000016128830146464086172_);}
</style>
<g>
	<path class="st0" d="M501,444.34c0,16.16-12.47,29.27-27.85,29.27H275.46c-15.38,0-27.85-13.1-27.85-29.27V154.27
		c0-16.16,12.47-29.27,27.85-29.27h197.69c15.38,0,27.85,13.1,27.85,29.27V444.34z"/>
	<path class="st1" d="M489.45,437.46c0,12.93-9.98,23.41-22.28,23.41H281.43c-12.3,0-22.28-10.48-22.28-23.41V161.14
		c0-12.93,9.98-23.41,22.28-23.41h185.74c12.3,0,22.28,10.48,22.28,23.41V437.46z"/>
</g>
<g>
	<path class="st2" d="M274.05,409.27l11.1,0.17c5.75,0,9.97-0.22,12.63-0.66c0.38,0.77,0.58,1.66,0.58,2.66c0,1-0.42,1.89-1.26,2.68
		c-0.84,0.79-1.86,1.19-3.05,1.19l-6.05-0.72c0,0.26-0.09,1.4-0.26,3.43c-0.5,4.98-0.74,9.98-0.74,14.99
		c0,5.02,0.37,10.03,1.1,15.04c-1.16,0.44-2.37,0.67-3.63,0.67c-1.26,0-2.35-0.38-3.26-1.13c-0.91-0.75-1.37-1.9-1.37-3.43
		c0-1.53,0.18-4.23,0.53-8.1c0.35-3.87,0.52-7.64,0.52-11.31c0-3.67-0.17-7.09-0.52-10.26c-4.25,0.22-7.56,0.85-9.95,1.88
		c-0.42-0.85-0.63-1.8-0.63-2.85c0-1.05,0.4-2.02,1.21-2.9C271.8,409.71,272.81,409.27,274.05,409.27z"/>
	<path class="st2" d="M310.04,448.04c-1.12,0.44-2.31,0.67-3.58,0.67c-1.26,0-2.36-0.42-3.29-1.27c-0.93-0.85-1.39-2.01-1.39-3.49
		c0-1.47,0.17-4.3,0.52-8.49c0.35-4.18,0.53-7.53,0.53-10.04c0-6.45-0.37-11.56-1.11-15.32c1.12-0.44,2.32-0.66,3.58-0.66
		c1.26,0,2.36,0.42,3.29,1.27c0.93,0.85,1.4,1.89,1.4,3.12c0,1.24-0.04,2.43-0.13,3.57c-0.08,1.14-0.2,2.45-0.34,3.93
		c-0.15,1.47-0.25,2.77-0.32,3.87c1.4,0.15,3.83,0.22,7.26,0.22c3.44,0,6.08-0.15,7.95-0.44c0-5.86-0.37-10.93-1.11-15.21
		c1.12-0.44,2.32-0.66,3.58-0.66c1.27,0,2.36,0.42,3.29,1.27c0.93,0.85,1.39,2.02,1.39,3.51c0,1.49-0.18,4.14-0.53,7.94
		c-0.35,3.8-0.53,6.84-0.53,9.13c0,7.23,0.37,13.03,1.11,17.42c-1.12,0.44-2.32,0.66-3.58,0.66c-1.26,0-2.36-0.42-3.29-1.27
		c-0.93-0.85-1.4-1.97-1.4-3.38c0-1.4,0.14-3.69,0.42-6.86c0.28-3.17,0.46-5.34,0.53-6.53c-3.44-0.26-8.56-0.39-15.37-0.39v1.44
		C308.94,438.58,309.31,443.91,310.04,448.04z"/>
	<path class="st2" d="M354.62,429.9c1.58,3.51,3.58,6.57,6,9.18c2.42,2.62,4.82,4.32,7.21,5.09c0,1.55-0.39,2.75-1.16,3.59
		c-0.77,0.85-1.87,1.27-3.32,1.27c-1.86,0-3.98-1.26-6.37-3.79c-2.39-2.53-4.46-5.51-6.24-8.96c-1.77-3.45-2.82-6.48-3.13-9.1
		c2.52,0,4.61-0.71,6.23-2.13c1.63-1.42,2.45-3.44,2.45-6.06c0-3.32-1.97-4.98-5.9-4.98c-1.26,0-2.8,0.22-4.63,0.66
		c-0.24,4.98-0.37,9-0.37,12.06c0,9.81,0.37,16.91,1.11,21.29c-1.13,0.44-2.32,0.67-3.58,0.67c-1.26,0-2.36-0.42-3.29-1.27
		c-0.93-0.85-1.39-1.97-1.39-3.38c0-1.4,0.17-3.84,0.53-7.33c0.35-3.48,0.53-6.28,0.53-8.38c0-6.45-0.44-12.19-1.32-17.2
		c4.74-1.36,9.24-2.05,13.53-2.05c7.82,0,11.73,2.93,11.73,8.79c0,2.58-0.83,5-2.5,7.27C359.09,427.44,357.04,429.01,354.62,429.9z"
		/>
	<path class="st2" d="M395.25,441.07c0.42,0.99,0.63,2.12,0.63,3.37c0,1.26-0.41,2.33-1.24,3.24c-0.83,0.91-1.84,1.36-3.02,1.36
		c-3.72,0-9.55-0.22-17.47-0.66c-0.64-0.04-1.2-0.25-1.69-0.64c-0.49-0.39-0.74-0.88-0.74-1.47c0-1.95,0.15-5.25,0.45-9.9
		c0.3-4.64,0.45-8.99,0.45-13.02c0-4.04-0.37-8.67-1.1-13.91c2.6,0.22,6.09,0.33,10.48,0.33c4.38,0,8.58-0.33,12.58-1
		c0.42,0.81,0.63,1.78,0.63,2.9c0,1.13-0.41,2.12-1.24,2.99c-0.82,0.87-1.84,1.3-3.05,1.3c-1.21,0-3.14-0.18-5.79-0.55
		c-2.65-0.37-4.61-0.55-5.87-0.55c-0.28,3.73-0.44,7.23-0.48,10.51c2.21,0.22,4.59,0.33,7.13,0.33c2.54,0,4.73-0.39,6.55-1.16
		c0.42,0.81,0.63,1.78,0.63,2.9c0,1.13-0.41,2.14-1.23,3.04c-0.83,0.91-1.81,1.36-2.95,1.36c-1.14,0-2.83-0.23-5.08-0.69
		c-2.25-0.46-3.95-0.69-5.11-0.69c0,5.83,0.12,10.1,0.37,12.83c1.69,0.15,3,0.22,3.95,0.22
		C387.67,443.5,391.74,442.69,395.25,441.07z"/>
	<path class="st2" d="M424.36,441.07c0.42,0.99,0.63,2.12,0.63,3.37c0,1.26-0.41,2.33-1.24,3.24c-0.83,0.91-1.83,1.36-3.03,1.36
		c-3.71,0-9.54-0.22-17.47-0.66c-0.63-0.04-1.19-0.25-1.69-0.64c-0.49-0.39-0.74-0.88-0.74-1.47c0-1.95,0.15-5.25,0.45-9.9
		c0.3-4.64,0.45-8.99,0.45-13.02c0-4.04-0.37-8.67-1.11-13.91c2.6,0.22,6.09,0.33,10.47,0.33c4.39,0,8.58-0.33,12.58-1
		c0.42,0.81,0.63,1.78,0.63,2.9c0,1.13-0.41,2.12-1.23,2.99c-0.83,0.87-1.84,1.3-3.05,1.3c-1.21,0-3.14-0.18-5.79-0.55
		c-2.65-0.37-4.61-0.55-5.87-0.55c-0.28,3.73-0.43,7.23-0.47,10.51c2.21,0.22,4.59,0.33,7.13,0.33c2.55,0,4.73-0.39,6.55-1.16
		c0.42,0.81,0.63,1.78,0.63,2.9c0,1.13-0.41,2.14-1.23,3.04c-0.83,0.91-1.81,1.36-2.95,1.36c-1.14,0-2.83-0.23-5.08-0.69
		c-2.24-0.46-3.95-0.69-5.11-0.69c0,5.83,0.12,10.1,0.37,12.83c1.69,0.15,3,0.22,3.95,0.22
		C416.78,443.5,420.85,442.69,424.36,441.07z"/>
</g>
<g>
	<path class="st2" d="M456.59,167.67c-0.9,0.24-1.64,0.35-2.22,0.35c-1.79,0-3.31-0.53-4.54-1.59c-1.24-1.06-1.85-2.49-1.85-4.28
		c0-3.44,1.53-6.25,4.58-8.42c3.05-2.17,6.45-3.25,10.2-3.25c3.75,0,6.82,0.95,9.22,2.86c2.4,1.91,3.6,4.68,3.6,8.31
		c0,4.24-1.8,7.69-5.38,10.33c2.37,0.8,4.21,2.1,5.48,3.89c1.28,1.79,1.92,3.89,1.92,6.3c0,4.76-1.86,8.62-5.59,11.56
		c-3.72,2.95-8.1,4.42-13.12,4.42c-3.45,0-6.44-0.73-8.95-2.19c-2.51-1.46-3.77-3.65-3.77-6.58c0-1.89,0.61-3.4,1.82-4.53
		c1.21-1.13,2.74-1.7,4.58-1.7c0.99,0,1.86,0.12,2.62,0.35c-0.32,0.94-0.47,1.84-0.47,2.69c0,1.7,0.61,3.01,1.82,3.93
		c1.21,0.92,2.86,1.38,4.95,1.38c2.09,0,3.8-0.7,5.15-2.09c1.35-1.39,2.02-3.22,2.02-5.48c0-2.26-0.58-4.01-1.75-5.23
		c-1.17-1.23-2.71-1.84-4.64-1.84c-1.03,0-1.92-0.29-2.66-0.88c-0.74-0.59-1.11-1.32-1.11-2.19c0-0.87,0.11-1.66,0.34-2.37
		c0.81,0.14,1.62,0.21,2.42,0.21c2.06,0,3.59-0.75,4.58-2.26c0.99-1.51,1.48-3.3,1.48-5.37c0-2.08-0.49-3.74-1.48-4.99
		c-0.99-1.25-2.33-1.87-4.04-1.87c-1.7,0-3.14,0.47-4.31,1.41c-0.85,1.6-1.28,3.25-1.28,4.95S456.32,166.59,456.59,167.67z"/>
</g>
<g>
	<g>
		
			<radialGradient id="SVGID_1_" cx="590.294" cy="4575.0327" r="27.0729" fx="575.3919" fy="4567.7744" gradientTransform="matrix(-2.1513 0 0 1.4899 1598.0833 -6604.4238)" gradientUnits="userSpaceOnUse">
			<stop  offset="0" style="stop-color:#FCB433"/>
			<stop  offset="0.2034" style="stop-color:#FCB031"/>
			<stop  offset="0.4713" style="stop-color:#FAA42C"/>
			<stop  offset="0.7739" style="stop-color:#F79124"/>
			<stop  offset="1" style="stop-color:#F57F20"/>
		</radialGradient>
		<path class="st3" d="M380.96,197.65c5.57,13.25,8.5,37-8.84,42.6c-3.54,1.14-8.08,0.41-11.67,1.72c-3.45,1.27-5.02,4.67-7.93,6.76
			c-7.08,5.09-16.1,4.65-23.49,0.79c-4.31-2.25-4.7-2.68-9.18-1.18c-3.66,1.22-7.81,2.66-11.82,2.67c-7.22,0-17.19-2.69-22.55-8.19
			c-2.61-2.68-3.13-6.54-5.51-9.2c-5.9-6.6-11.18-11.64-7.88-21.96c2.47-7.73,7.88-14.98,13.36-20.57
			c6-6.13,11.51-12.38,19.48-15.52c8.31-3.27,15.2,3.13,22.49,0.43c3.27-1.21,4.99-4.02,8.82-4.22c3.93-0.2,6.88,2.63,10.4,3.64
			c7.83,2.25,12.74-1.7,19.84,3.85C372.93,184.32,377.64,189.73,380.96,197.65z"/>
		<path class="st4" d="M279.96,233.62c-5.9-6.6-11.18-11.64-7.88-21.96c0.43-1.34,0.95-2.67,1.54-3.97c0.14,0.58,0.25,1.3,0.5,2.04
			c1.72,5.11,3.29,4.76,7.63,2.9c2.37-1.01,3.54-2.75,4.9-4.99c2.04-3.36,5.3-3.75,7.74-6.44c2.48-2.75,2.37-6.71,4.48-9.36
			c2.25-2.82,5.76-4.52,7.57-7.81c0.35-0.65,0.45-1.43,0.82-1.99c0.53-0.81,1.3-1.03,1.86-1.74c1.29-1.63,0.65-2.66,0.29-4.46
			c3.38-0.05,6.32,2.21,8.78,4.14c1.91,1.5,7.56,4.48,6.2,7.93c-2.45,0.03-3.84-1.52-6.56-0.62c-2.04,0.68-3.51,2.53-5.41,3.42
			c-2.56,1.21-3.1,1.94-4.74,4.34c-1.14,1.67-2.85,2.55-3.82,4.42c-0.81,1.57-1.5,3.32-2.27,4.94c-0.83,1.77-0.4,3.19-0.93,4.98
			c-0.41,1.41-1.66,2.51-2.27,3.9c-0.72,1.66-1.3,3.5-1.8,5.2c-1.02,3.42-1.44,6.88-0.26,10.23c0.7,2.02,0.12,3.61,0.62,5.59
			c1.92,7.64,8.89,6.4,14.62,5.58c4-0.57,3.6-5.04,4.41-8.43c0.47-1.98,1-3.11,2.4-4.47c1.51-1.46,2.68-2.17,3.01-4.38
			c0.29-1.96-0.58-3.92-0.04-5.9c0.63-2.29,2.36-3.82,2.67-6.32c0.43-3.5,0.55-7.07,0.82-10.52c0.11-1.33,0.51-1.83,0.88-3.02
			c0.63-2.07,0.83-4.54,0.6-6.7c-0.07-0.61-1.17-6-1.44-6.07c1.14,0.3,2.05,1.02,3.27,1.27c0.72,0.15,3.25-0.02,3.66,0.7
			c0.96,1.63-1.86,3.65-2.55,4.82c-1.24,2.11-0.8,4.15-1.01,6.5c-0.2,2.28,0.3,4.86-0.26,7.06c-0.48,1.91-1.44,2.47-0.92,4.69
			c0.85,3.63,1.35,5.71,3.81,8.59c1.42,1.66,1.67,1.67,0.81,3.68c-0.76,1.76-1.45,2.91-0.7,4.85c0.28,0.73,1.22,1.4,1.4,2.1
			c0.27,1.05-0.38,1.2-0.36,2.05c0.03,1.72,1.2,2.65,2.02,4.01c1.59,2.61,3.78,4.92,6.82,5.49c1.39,0.26,3.28-0.16,4.81,0
			c1.65,0.18,2.82,0.5,4.16-0.68c2.38-2.1,3.14-6.52,4.05-9.43c0.73-2.32,2.67-1.71,3.89-3.44c1.51-2.15,0.06-4.69,0.03-6.98
			c-0.04-2.83,0.5-4.02-0.57-6.71c-0.93-2.36-0.35-4.77-0.91-7.15c-0.49-2.08-2.83-3.81-1.6-5.99c1.16,2.65,1.45,5.49,2.73,7.94
			c0.8,1.54,1.36,1.88,1.6,3.68c0.19,1.4,0.42,2.72,0.77,4.12c0.76,3.01,1.35,3.68,3.6,5.57c1.9,1.59,3.28,3.74,5.09,5.41
			c1.44,1.34,2.96,4.08,5.03,4.17c2.37,0.1,5.67-3.4,6.87-5.26c2.06-3.21,1.18-8.06,2.61-11.6c0.5-1.25,1.05-2.37,1.47-3.53
			c2.12,12.32,0.3,26.16-12.4,30.25c-3.54,1.14-8.08,0.41-11.67,1.72c-3.45,1.27-5.02,4.67-7.93,6.76
			c-7.08,5.09-16.1,4.65-23.49,0.79c-4.31-2.25-4.7-2.68-9.18-1.18c-3.66,1.22-7.81,2.66-11.82,2.67c-7.22,0-17.19-2.69-22.55-8.19
			C282.87,240.15,282.35,236.29,279.96,233.62z"/>
		<path class="st5" d="M276.69,225.99c-0.98-0.97-1.56-1.97-2.64-2.73c-0.96-0.67-2.19-0.78-2.54-2.18
			c1.18,4.74,4.69,8.32,8.46,12.54c2.38,2.66,2.9,6.52,5.51,9.2c5.36,5.5,15.33,8.2,22.55,8.19c4.02,0,8.16-1.44,11.82-2.67
			c4.48-1.5,4.87-1.07,9.18,1.18c7.39,3.87,16.41,4.3,23.49-0.79c2.91-2.09,4.48-5.5,7.93-6.76c3.59-1.31,8.13-0.58,11.67-1.72
			c7.76-2.5,11.45-8.65,12.67-15.86c-0.44,2.6-3.49,4.24-5,5.97c-1.88,2.15-2.67,2.52-5.61,3.19c-1.38,0.32-1.15,0.51-2.26-0.01
			c-0.58-0.26-0.76-1.03-1.55-1.26c-1.99-0.57-3.23-0.05-4.34-2.32c-1.15-2.35-1.43-5.46-2.16-8.01c-0.75-2.66-2.07-1.9-3.4-3.69
			c-0.91-1.25-0.84-3.91-1.4-5.4c-1.62-4.34-2.07-9.65-4.48-13.66c-0.48-0.81-0.95-0.95-1.29-1.95c-0.23-0.69-0.08-1.67-0.25-2.38
			c-0.35-1.52-1.45-2.77-1.65-4.32c-0.12-0.97,0.35-1.9,0.23-2.91c-0.19-1.57-2.61-4.21-1.48-5.67c0.79-1.02,2.78-0.64,3.71-1.36
			c0.72-0.56,0.51-1.37,1.65-1.64c1.32-0.31,3.29-0.23,4.73-0.42c1.81-0.24,3.69-0.11,5.48,0.21c-6.71-4.73-11.55-1.16-19.11-3.33
			c-3.52-1.01-6.46-3.84-10.4-3.64c-3.82,0.2-5.54,3.01-8.82,4.22c-6.95,2.58-13.55-3.11-21.36-0.8c1.31,0.51,9.31,3.98,6.61,5.61
			c2.14,0.57-0.12,1.83-0.87,2.36c-1.47,1.05-1.89,2.05-2.96,3.38c-0.88,1.1-2.04,1.9-2.91,2.95c-0.99,1.2-2.05,2.23-3.01,3.53
			c-1.73,2.32-3.88,4.41-5.77,6.59c-1.4,1.62-2.77,1.99-3.16,4.21c-0.45,2.52-0.26,2.28-2.25,4.16c-1.82,1.72-0.35,2.74-0.95,5.12
			c-0.19,0.75-0.71,1.31-0.86,2.1c-0.17,0.92,0.25,2.05,0,2.95c-0.82,2.85-6.4,3-5.85,7.13c-1.17,0.04-2.51,0.08-2.2,1.69
			c-1.72,0.39-1.95-1.23-3.01-1.55c-0.07-0.02-1.12-0.04-1.77,0.09C276.7,225.61,276.45,225.75,276.69,225.99z M331.86,241.22
			c-3.31,5.58-4.32-9.24-4.81-10.62c-1.2-3.35,0.84-5.97,0-9.25c-0.54-2.1-0.57-2.66-0.24-4.86c0.26-1.73,0.44-3.35,0.69-5.06
			c0.31-2.17,1.8-3.61,2.07-5.8c0.23-1.92-0.29-3.87-0.31-5.8c-0.02-2.06,0.86-4.08,1.2-6.11c0.35-2.12,1.27-4.13,3.46-5.01
			c1.81-0.73,2.87,1.34,4.59,1.08c0.67-0.11,1.15-1.18,1.88-1.4c0.89-0.27,2.33,0.16,3.18,0.47c1.54,0.56,2.61,1.59,3.82,2.71
			c2.17,2,2.07,4.1,3.61,6.38c0.9,1.33,2.25,1.94,2.89,3.46c0.65,1.57,0.47,3.47,0.71,5.15c0.46,3.2,1.4,5.83,1.86,9.1
			c0.43,3.08,0.86,6.93,0.35,10.02c-0.43,2.64-0.52,5.96-1.27,8.51c-0.63,2.16-2.38,2.15-3.57,3.63c-1.39,1.73,0.38,2.43,0.21,4
			c-0.2,1.86-2.54,2.48-3.86,2.91c-1.69,0.56-2.97,0.97-4.77,0.15c-1.3-0.6-2.35-1.96-3.7-2.42c-0.05-0.01-0.1-0.03-0.15-0.04
			C337.35,241.86,333.4,245.6,331.86,241.22z M291.76,237.61c-0.03-1.12,1.09-2.53-0.07-3.59c-0.58-0.53-1.94,0.49-2.62-0.19
			c-1.35-1.37,1.09-4.13,1.46-5.33c0.74-2.42-1.17-2.85-1.41-5.06c-0.23-2.17,2.1-4.4,2.8-6.38c0.97-2.74,1.63-5.53,2.77-8.23
			c0.43-1,0.58-2.47,1.2-3.37c1.74-2.51,3.9-2.71,4.88-6.05c0.4-1.35,0.07-2.46,1.24-3.53c0.96-0.87,2.31-0.75,3.21-1.89
			c0.85-1.09,1.16-2.64,1.18-4.03c1.74-0.32,1.96-1.09,3.33-1.99c1.4-0.91,2.04-0.32,3.45,0c2.03,0.47,1.54,0.08,3.17-0.84
			c0.97-0.55,7.31-1.35,6.3,1.05c1.09,0.83,1.54,1.3,1.62,2.59c0.04,0.66-0.61,1.14-0.45,1.9c0.16,0.8,1.12,0.92,1.35,1.68
			c0.74,2.37,0.28,5.18,0.61,7.63c0.14,1.02,0.45,2.27,0.25,3.33c-0.22,1.19-1.27,1.94-1.16,3.32c0.07,0.93,0.94,1.7,0.96,2.79
			c0.02,1.42-0.86,2.3-1.2,3.6c-0.46,1.73,0.15,3.56-0.32,5.33c-0.36,1.35-1.21,2.22-1.74,3.44c-1.22,2.78,1.15,6.62-0.49,8.76
			c-1.3,1.7-1.91,1.21-2.27,3.53c-0.22,1.4,0.41,1.33-0.75,2.58c-0.45,0.49-1.15,0.63-1.6,1.04c-1.34,1.23-1.14,2.34-1.91,3.96
			c-1.19,2.54-1.63,1.6-3.57,0.84c-2.31-0.91-4.64,0.46-7.13,0.2c-0.93-0.1-2.4,0.25-3.19,0.07c-1.56-0.36-2.11-2-3.56-2.54
			c-0.84-0.32-1.53,0.32-2.36,0.17c-1.34-0.25-0.86-0.37-1.86-1.21c-1.15-0.96-1.88-1.67-2.08-2.99
			C291.78,238.03,291.77,237.83,291.76,237.61z"/>
		<path class="st6" d="M355.06,176.16c-1.06,0.28-2.12,0.68-3.07,1.11c-1.93,0.88-7.06,1.49-7.74,3.96
			c-0.34,1.23,0.51,2.32,1.57,3.35c1.05,1.02,2.3,1.98,2.79,2.94c1.16,2.24,2.92,5.74,3.12,8.23c-2.16-2.32-3.27-5.51-5.84-7.46
			c-1.4-1.07-2.83-0.99-4.16-1.99c-1.56-1.17-1.56-1.46-3.51-1.59c-3.59-0.24-4.3,0.76-6.72,3.59c-2.08,2.43-3.38,5.63-4.22,8.8
			c-0.29,1.13-0.41,2.12-1,3.1c-0.73-2.13-0.06-5.51,0.16-7.73c0.25-2.62,0.37-5.33-1.5-7.24c-2-2.04-4.03-1.35-6.53-1.19
			c-1.45,0.09-2.65-0.19-4.01,0.01c-1.22,0.18-2.33,1.06-3.59,1c1.48-1.88,3.69-3.21,6.03-3.37c1.21-0.08,4.61,1.07,5.09-0.88
			c0.37-1.45-3.84-3.82-4.91-4.3c-1.16-0.52-3.05-0.99-4.75-1.7c4.59,0.55,8.88,2.47,13.25,1.71c0.42,0.43,0.86,0.88,1.36,1.36
			c2.52,2.44,7.15,0.82,10.18,0.48c3.37-0.38,6.12-1.5,9.23-2.95c0.03-0.01,0.06-0.02,0.09-0.04c0.08,0.03,0.16,0.05,0.24,0.08
			C349.81,176.33,352.51,176.23,355.06,176.16z"/>
		<path class="st7" d="M320.97,181.84c2.84-1.03,0.94-2.35-0.14-4.06c0.94,1.48,3.17,1.04,4.43,1.69c0.87,0.45,1.17,1.04,2.21,1.23
			c2.36,0.42,4.43,0.02,6.77,0c1.78-0.02,3.65,0.73,5.38,0.15c0.73-0.24,1.37-0.76,2.07-1.05c2.97-1.21,5.85-2.6,8.95-3.69
			c0.44,0.04,0.85,0.04,1.27,0.04c-3.39,1.06-8.13,3.3-8.27,6.56c-0.07,1.78,3.49,4.45,4.28,5.71c0.58,0.93,1.11,1.88,1.59,2.84
			c-3.78-4.26-9.25-9.45-14.74-6.51c-3.03,1.62-5.32,3.81-7,6.73c-0.37-3.94-1.66-7.99-5.84-8.72c-1.1-0.19-2.35-0.34-3.61-0.4
			C319.22,182.29,320.12,182.15,320.97,181.84z"/>
		<path class="st8" d="M326.14,184.22c-1.23-0.64-2.42-1.31-3.66-1.87c0.09-0.04,0.17-0.08,0.26-0.14c0.62-0.39,0.8-1.26,0.41-1.87
			c0.09-0.03,0.17-0.07,0.27-0.09c1.01-0.23,2.01-0.15,3.02,0.03c0.28,0.19,0.59,0.35,1.04,0.43c2.36,0.42,4.43,0.02,6.77,0
			c1.78-0.02,3.65,0.73,5.38,0.15c0.37-0.13,0.72-0.32,1.07-0.52c0.84-0.2,1.7-0.26,2.57-0.31c-0.93,1.2-0.93,2.99,0.15,4.48
			c0.08,0.11,0.15,0.22,0.23,0.33c-2.59-1.38-5.7-1.8-8.51-0.9c-2.39,0.77-4.15,1.76-5.61,3.05
			C329.01,185.69,327.59,184.98,326.14,184.22z"/>
		<path class="st9" d="M279.96,233.62c-2.57-2.87-4.99-5.46-6.67-8.3c2.01,0.08,1.74,2.12,2.83,3.6c1.09,1.48,2.75,1.09,3.98,2.35
			c0.16-0.42,0.61-1.13,0.64-1.64c1.15,1.13,1.56,2.7,2.57,3.74c1.01-0.74,1.11-2.15,1.36-3.34c0.39-1.83,0.75-3.09,1.65-4.74
			c1.51-2.77,2.86-5.55,4.03-8.54c-0.96,3.52-2.12,7.16-2.63,10.86c-0.27,1.96-1.76,6.82-0.2,8.28c0.95-0.59,1.26-1.79,1.2-2.91
			c0.86,3.85-0.11,8.67,4.17,10.74c2.75,1.33,5.74,3.24,8.91,4.12c1.9,0.53,2.69-0.5,4.37-0.59c2.13-0.12,4.1,1.76,6.22,1.69
			c2.75-0.1,5.57-3.47,7.37-5.33c1.13-1.17,2.28-1.85,3.01-3.32c0.75-1.51,0.81-3.51,1.61-4.83c1.32,3.55,2.34,7.75,4.71,10.89
			c2.68,3.57,8.77,3.37,12.74,4.63c3.38,1.07,5.6-0.84,8.21-3.15c2.32-2.05,5.16-3.37,6.83-5.85c0.8-1.2,2.29-2.63,2.66-3.59
			c0.49-1.25,0.4-3.91,0.4-5.27c0-3.87-0.45-7.83-0.96-11.53c0.91,2.61,1.82,5.19,2.15,8.01c0.29,2.44-0.5,5.74,0.25,7.93
			c1.32-0.32,1.47-2.28,1.4-3.53c1.78,0.84,0.85,3.99,2.97,5.04c1.63,0.8,4.09-0.32,5.82-0.8c1.63-0.45,3.38-0.03,4.98-0.09
			c-1.31,0.84-2.77,1.56-4.43,2.09c-3.54,1.14-8.08,0.41-11.67,1.72c-3.45,1.27-5.02,4.67-7.93,6.76
			c-7.08,5.09-16.1,4.65-23.49,0.79c-4.31-2.25-4.7-2.68-9.18-1.18c-3.66,1.22-7.81,2.66-11.82,2.67c-7.22,0-17.19-2.69-22.55-8.19
			C282.87,240.15,282.35,236.29,279.96,233.62z"/>
		
			<linearGradient id="SVGID_00000047763694698160606100000005339224489962723227_" gradientUnits="userSpaceOnUse" x1="512.781" y1="185.7136" x2="523.8772" y2="216.2002" gradientTransform="matrix(-1 0 0 1 884.957 0)">
			<stop  offset="0" style="stop-color:#FEDC35"/>
			<stop  offset="0.5" style="stop-color:#FDC825"/>
			<stop  offset="1" style="stop-color:#FCB216"/>
		</linearGradient>
		<path style="opacity:0.44;fill:url(#SVGID_00000047763694698160606100000005339224489962723227_);" d="M363.05,182.43
			c2.14,0.54,3.68,1.94,5.56,4.11c2.17,2.51,4.85,4.68,6.57,7.61c1.86,3.17,3.11,6.41,4.27,9.9c1.23,3.71,1.49,12.24-1.79,15.03
			c-4.51,3.84-9.39-0.42-11.02-5.21c-0.68-1.98-0.28-3.95-1.04-5.95c-0.97-2.52-2.43-4.86-3.65-7.24c-1.29-2.52-2.5-5.28-4.34-7.43
			c-1.88-2.18-4.39-3.85-3.78-7.34c0.63-3.61,3.47-3.56,6.26-3.71C361.22,182.13,362.19,182.21,363.05,182.43z"/>
		
			<linearGradient id="SVGID_00000070087065255005571910000013040575772879477943_" gradientUnits="userSpaceOnUse" x1="533.0092" y1="202.2742" x2="551.1377" y2="222.408" gradientTransform="matrix(-1 0 0 1 884.957 0)">
			<stop  offset="0" style="stop-color:#FEDC35"/>
			<stop  offset="0.5" style="stop-color:#FDC825"/>
			<stop  offset="1" style="stop-color:#FCB216"/>
		</linearGradient>
		<path style="opacity:0.52;fill:url(#SVGID_00000070087065255005571910000013040575772879477943_);" d="M350.51,222.39
			c0.17,3.36-0.38,8.63-4.81,8.86c-4.45,0.23-7.62-6.48-7.98-10.33c-0.16-1.69,0.04-3.48-0.4-5.11c-0.42-1.55-1.34-2.97-1.91-4.53
			c-1.11-3.04-2.23-6.21-1.76-9.54c0.3-2.11,2.12-6.28,4.02-7.34c3.95-2.2,8,1.43,9.65,4.89c1.23,2.55,1.76,5.31,1.92,8.15
			c0.09,1.46-0.14,3.05,0.06,4.48c0.2,1.36,0.89,2.4,1.15,3.78C350.87,217.9,350.4,220.16,350.51,222.39z"/>
		
			<linearGradient id="SVGID_00000093890005287752940750000010699014230941941417_" gradientUnits="userSpaceOnUse" x1="560.5412" y1="197.5346" x2="589.2137" y2="229.3788" gradientTransform="matrix(-1 0 0 1 884.957 0)">
			<stop  offset="0" style="stop-color:#FEDC35"/>
			<stop  offset="0.5" style="stop-color:#FDC825"/>
			<stop  offset="1" style="stop-color:#FCB216"/>
		</linearGradient>
		<path style="opacity:0.33;fill:url(#SVGID_00000093890005287752940750000010699014230941941417_);" d="M315.68,221.14
			c-0.2,1.08-0.14,2.09-0.46,3.29c-1.35,5.11-6.24,12.23-11.96,10.88c-4.79-1.13-4.02-6.88-2.78-10.57c0.7-2.06,2.23-3.74,2.04-5.79
			c-0.09-1.03-1.1-1.8-0.96-3.06c0.13-1.25,1.12-2.4,1.64-3.44c3.19-6.35,1.39-16.08,8.68-19.74c2.8-1.41,7.22-1.19,8.83,1.91
			c2.31,4.44-0.54,10.29-1.17,14.71c-0.31,2.2,0.49,3.81-0.46,6.01c-0.72,1.65-2.21,2.76-2.96,4.35
			C315.91,220.19,315.77,220.67,315.68,221.14z"/>
		
			<linearGradient id="SVGID_00000070109580686650522420000003573490603866718080_" gradientUnits="userSpaceOnUse" x1="577.7363" y1="194.2407" x2="604.1129" y2="194.2407" gradientTransform="matrix(-1 0 0 1 884.957 0)">
			<stop  offset="0" style="stop-color:#FEDC35"/>
			<stop  offset="0.5" style="stop-color:#FDC825"/>
			<stop  offset="1" style="stop-color:#FCB216"/>
		</linearGradient>
		<path style="opacity:0.26;fill:url(#SVGID_00000070109580686650522420000003573490603866718080_);" d="M299.27,189.98
			c-1.51,1.55-2.12,3.64-3.31,5.36c-1.97,2.84-3.78,7.15-6.06,9.65c-1.32,1.44-2.31,1.08-4.01,1.47c-1.93,0.45-2.88,1.39-4.56,2.25
			c-2.81-6.4,7.6-15.1,11.03-19.08c1.8-2.1,3.29-5.53,5.21-7.21c1.39-1.22,9.35-4.78,9.66-0.81
			C307.41,184.11,300.78,188.41,299.27,189.98z"/>
		<path class="st14" d="M346.97,206.09c0.08,1.01,0.09,2,0.05,2.94c-0.08,1.68,0.45,11.06-0.54,11.43c-2.5,0.95-5.31-6.72-6.03-8.29
			c-2.08-4.5-11.58-13.75-5.1-17.95C342.83,189.37,346.51,200.05,346.97,206.09z"/>
		<path class="st14" d="M373.85,197.05c0.48,1.56,2.17,4.67,1.7,6.28c-0.92,3.1-4.04,0.28-5.43-1.43c-1.61-1.98-2.54-4.85-4.6-6.36
			c-1.92-1.41-4.3-1.64-6.27-3.07c-1.61-1.18-5.43-4-4.9-6.55c0.3-1.45,2.26-2.47,3.49-3.23c5.86-3.59,7.67,3.21,10.19,6.69
			C370.07,192.24,372.69,193.28,373.85,197.05z"/>
		<path class="st14" d="M319.65,208.18c-2.24,5.61-3.54,1-4.48-2.57c-0.8-3.02-4.04-6.89-3.21-10.28c0.87-3.56,4.97-4.09,7.43-1.94
			C322.74,196.3,321.1,204.54,319.65,208.18z"/>
		<g>
			<path class="st15" d="M337.62,172.08c0.93,2.11,1.97,4.14,3.4,6.03c0.81,1.07,1.74,3.76,0.4,4.7c-0.94,0.67-2.74,0.14-3.79,0.08
				c-0.81-0.04-2.02-0.2-2.8,0c-0.68,0.18-1.3,0.86-1.98,1.14c-1.89,0.78-4.65,0.59-6.5-0.2c-1.03-0.44-1.73-1.04-2.04-2.18
				c-0.49-1.85,0.96-2.73,1.27-4.41c0.25-1.33-0.14-3.09-0.23-4.44c-0.11-1.62-0.78-3.29-1.41-4.75c-1.48-3.45-4.04-6.51-7.35-8.11
				c-4.71-2.28-11.32-2.69-15.62,0.77c-2.01,1.62-2.01,3.49-5.02,3.07c-1.86-0.26-3.95-1.07-5.49-2.22c-4.02-3,3.52-8.69,5.73-10.06
				c3.89-2.41,8.59-4.11,12.96-4.32c7.43-0.36,16.48,3.15,21.28,9.32c2.52,3.24,3.62,7.27,5.22,10.93
				C336.32,169.01,336.94,170.56,337.62,172.08z"/>
			<path class="st16" d="M298.58,152.44c-3.09,2.42-6.1,4.94-8.55,8.03c0-0.01,0-0.02,0.01-0.03c0.47-2.49,5.81-7.25,7.9-8.46
				c3.17-1.83,6.64-2.99,10.28-3.15c6.5-0.3,15.4,1.49,20.02,6.87c4.51,5.25,5.38,13,7.5,19.48c1.03,3.15,2.78,5.56,4.7,7.95
				c-0.93,0.08-2.06-0.19-2.8-0.23c-0.81-0.04-2.02-0.2-2.8,0c-0.04,0.01-0.08,0.04-0.12,0.05c-1.61-3.01-2.33-8.02-3.07-10.64
				c-0.79-2.78-0.1-6.86-1.32-9.34c-2.42-4.87-6.87-9.95-11.96-11.77c-5.46-1.96-11.21-1.49-16.73,0.01
				c-0.9,0.24-1.76,0.55-2.53,0.99C298.92,152.23,298.75,152.31,298.58,152.44z"/>
			<path class="st16" d="M296.46,159.9c0.08-0.08,0.18-0.14,0.26-0.22c2.61-2.58,2.33-5.37,6.93-6.16c7.07-1.22,14.55-1.82,19.9,4.4
				c2.91,3.38,4.34,6.32,4.64,10.89c0.17,2.69,1.41,5.51,2.14,8.08c0.89,3.09,0.91,5.3,2,7.33c-1.85,0.57-4.3,0.36-5.99-0.37
				c-1.03-0.44-1.73-1.04-2.04-2.18c-0.49-1.85,0.96-2.73,1.27-4.41c0.25-1.33-0.14-3.09-0.23-4.44c-0.11-1.62-0.78-3.29-1.41-4.75
				c-1.48-3.45-4.04-6.51-7.35-8.11c-4.71-2.28-11.32-2.69-15.62,0.77c-2.01,1.62-2.01,3.49-5.02,3.07
				c-0.71-0.1-1.44-0.29-2.17-0.54C294.84,162.25,295.78,161.11,296.46,159.9z"/>
			<path class="st17" d="M338,174.59c0.64,1.14,3.18,4.36,2.43,5.83c-0.79,1.56-2.21-3.46-2.54-4.17c-0.54-1.19-1.4-2.15-2.04-3.29
				c-0.82-1.45-1.02-2.94-1.37-4.53c-0.34-1.51-0.97-2.93-1.41-4.39C334.64,167.63,336.11,171.24,338,174.59z"/>
			<path class="st17" d="M328.87,163.89c0.57,1.94,1.43,3.5,1.75,5.52c0.39,2.47,0.67,5.04,1.17,7.48c0.44,2.16,1.33,3.91,1.3,6.23
				c-0.56-1.25-1.02-2.74-1.5-4.04c-1.22-3.37-1.37-6.67-2.01-10.16c-0.34-1.87-0.8-3.9-1.67-5.64c-0.45-0.9-0.64-1.88-1.14-2.7
				c-0.46-0.75-1.09-1.34-1.55-2.06c-0.95-1.46-1.87-2.56-3.36-3.49c-6.18-3.88-15.59-4.91-22.04-1.05
				c-1.76,1.06-2.9,2.79-4.34,4.27c-1,1.03-1.81,2.69-2.78,3.54c-0.12-0.85,0.56-2.81,0.92-3.59c0.55-1.16,1.51-2.13,2.56-2.78
				c1.6-1,3.04-2.58,4.66-3.43c1.98-1.04,4-1.61,6.19-1.72c5.71-0.29,10.89,1.35,15.55,4.78c0.68,0.5,1.46,0.92,2.05,1.53
				c0.9,0.91,2.19,2.05,2.87,3.15C328.27,160.97,328.46,162.52,328.87,163.89z"/>
			<path class="st18" d="M320.81,150.7c0.97,0.37,1.9,0.93,2.81,1.45c1.78,1.03,3.29,2.48,4.53,4.17c2.47,3.34,3.93,7.43,4.9,11.49
				c0.46,1.95,0.9,3.79,1.31,5.77c0.35,1.74,1.24,3.3,1.89,5.03c0.35,0.91,2.03,2.89,2.6,4.43c-0.45-0.06-0.88-0.13-1.23-0.15
				c-0.6-0.03-1.42-0.12-2.13-0.09c-0.5-1.19-0.82-2.55-1.03-3.22c-0.52-1.68-1.4-3.74-1.64-5.52c-0.51-3.81-1.02-7.85-1.91-11.57
				c-0.71-2.96-3.01-5.1-4.94-7.23c-2.28-2.52-5.33-3.98-8.28-5.37C318.62,150.33,319.83,150.32,320.81,150.7z"/>
			<path class="st18" d="M296.79,160.74c-0.67,0.88-1.28,1.87-1.89,2.85c-0.17-0.04-0.34-0.07-0.51-0.12
				c0.16-0.25,0.33-0.51,0.5-0.79c0.55-0.91,0.7-1.81,1.19-2.71c0.87-1.57,2.68-2.69,4.18-3.46c3.58-1.85,6.7-2.82,10.74-3.03
				c5.42-0.28,10.79,2.94,13.89,7.48c0.66,0.96,1.45,2.02,1.88,3.12c0.41,1.04,0.33,2.22,0.66,3.29c0.84,2.78,1.03,5.48,1.57,8.31
				c0.33,1.73,0.78,3.49,1.25,5.15c0.31,1.09,0.76,2.38,0.98,3.64c-0.45,0.06-0.91,0.08-1.37,0.08c-0.18-0.98-0.2-2.05-0.27-2.61
				c-0.25-1.81-0.78-3.62-1.2-5.4c-0.85-3.62-1.04-7.62-2.83-11.01c-1.13-2.13-2.61-4.06-3.8-6.2c-1.11-2-1.78-2.79-3.99-3.45
				c-0.44-0.13-0.88-0.24-1.33-0.34c-1.45-0.3-2.94-0.43-4.41-0.59c-3.91-0.41-7.84-0.07-11.09,2.3
				C299.53,158.28,297.92,159.27,296.79,160.74z"/>
			<path class="st18" d="M296.49,163.85c0.28-0.43,0.58-0.83,0.81-1.21c0.77-1.21,1.86-2.29,2.96-3.17
				c1.47-1.19,3.45-1.25,5.14-1.72c3.58-0.99,8.01-1.37,11.68-0.13c1.51,0.51,3.52,1.54,4.32,2.95c0.9,1.58,1.81,3.14,2.77,4.69
				c1.17,1.9,1.23,3.47,1.64,5.61c0.38,1.99,0.82,3.94,1.19,5.89c0.36,1.85,0.62,3.99,0.7,5.88c0.03,0.6,0.06,1.15,0.05,1.63
				c-0.5-0.11-0.98-0.26-1.41-0.45c-1.03-0.44-1.73-1.04-2.04-2.18c-0.49-1.85,0.96-2.73,1.27-4.41c0.25-1.33-0.14-3.09-0.23-4.44
				c-0.11-1.62-0.78-3.29-1.41-4.75c-1.48-3.45-4.04-6.51-7.35-8.11c-4.71-2.28-11.32-2.69-15.62,0.77
				C299.08,162.24,298.95,163.98,296.49,163.85z"/>
			<path class="st19" d="M325.66,152.94c0.2,0.13,0.38,0.27,0.57,0.42c3.24,2.44,4.94,6.08,6.55,9.78c0.84,1.93,1.37,3.94,2.25,5.84
				c0.91,1.98,2.15,3.78,2.97,5.81c0.43,1.06,1.49,4.02-0.35,1.87c-1.71-2-2.56-4.98-3.82-7.28c-1.74-3.18-3.26-6.43-4.94-9.65
				c-0.86-1.65-1.43-3.36-2.86-4.63c-2.85-2.54-7.34-3.44-10.83-4.78c-4.26-1.63-9.15-1.15-13.26,0.74
				c-1.84,0.85-4.19,2.09-5.21,3.99c-0.51,0.95-1.76,4.98-3.36,4.32c0.33-1.8,0.6-3.41,1.82-4.77c1.15-1.28,2.58-2.23,3.86-3.36
				c1.22-1.07,2.98-1.55,4.47-2.15c4.52-1.83,10.1-1.38,14.53,0.34C320.65,150.43,323.34,151.33,325.66,152.94z"/>
			<path class="st20" d="M332.75,163.28c1.03,1.94,1.9,3.61,2.65,5.64c0.22,0.61,1.42,3.52,0.79,3.91c-0.6,0.37-1.15-1.12-1.35-1.48
				c-0.77-1.36-1.5-2.56-2.04-4.02c-0.5-1.35-0.58-2.91-1.51-4.02c-0.54-0.64-1.11-1.1-1.58-1.78c-0.42-0.62-0.71-1.39-1.53-1.42
				c-0.05,1.33,1.1,2.53,1.23,3.84c0.13,1.24,0.6,2.81,0.48,4.08c-1-1.12-1.26-2.75-1.61-4.13c-0.9-3.56-2.48-5.69-5.28-7.85
				c-1.8-1.39-3.58-2.24-5.6-3.28c-1.86-0.96-3.76-2.09-5.87-1.88c-2.12,0.22-4.3,1.09-6.46,0.73c0.07-1.31,6.77-1.86,8-1.69
				c-1.44-1.22-4.83-0.4-6.5-0.13c-1.6,0.26-4.87,2.33-6.29,0.9c2.12-1.68,4.66-2.02,7.27-2.17c2.93-0.18,5.89,0.26,8.74,1
				c2.27,0.59,4.37,1.31,6.6,2.27c1.8,0.77,3.3,2.18,4.81,3.43C330.41,157.45,331.17,160.29,332.75,163.28z"/>
			<path class="st21" d="M329.31,158.24c-1.99-1.6-3.53-4.03-5.93-5.02c-1.19-0.5-2.33-0.86-3.5-1.35c-0.95-0.4-2.66-0.63-3.26-1.57
				c1.9-0.06,4.08,1.15,5.83,1.79C324.71,152.92,329.37,154.99,329.31,158.24z"/>
		</g>
		<path class="st7" d="M371.37,240.44c-3.42,0.84-7.57,0.3-10.91,1.53c-1.71,0.62-2.95,1.77-4.13,3.03
			c0.83-1.17,1.98-2.08,2.61-3.38c0.79-1.63,0.8-3.77,1.03-5.6c0.57-4.55,0.52-9.34-0.68-13.77c0.79,0.95,1.22,2.21,1.46,3.39
			c0.29,1.4,0.92,2.81,1.19,4.17c0.29,1.49-0.57,2.35-0.57,3.64c-0.01,1.36,0.63,4.99,1.85,5.86c0.5,0.35,1.72,0.3,2.31,0.63
			c1.8,1.01,1.96,1,4.02,0.53C370.23,240.3,370.88,240.32,371.37,240.44z"/>
		<path class="st7" d="M319.85,248.35c-0.23,0.07-0.46,0.15-0.69,0.23c1.38-1.48,2.66-3.66,3.26-5.34c1.05-2.94,1.34-5.52,1.19-8.72
			c-0.16-3.38,0.62-6.43,0.62-9.78c1.17,3.29,0.41,7.52,0.82,11.3c0.23,2.19-1.34,9.21,1.83,10c0.23,0.75,0.09,1.75,0.32,2.54
			C324.49,247.19,323.6,247.09,319.85,248.35z"/>
		<path class="st7" d="M285.48,242.82c-2.29-2.35-2.97-5.61-4.72-8.18c0.23,0.05,0.47,0.07,0.71,0.04c2.35-0.36,2.13-4.25,3.03-6.02
			c0.94-1.87,1.88-3.7,2.84-5.57c-0.6,2.33-1.3,4.62-1.65,7.09c-0.35,2.45-0.81,5.33-0.43,7.8c0.29,1.87,0.46,1.03,1.66,1.94
			c2.09,1.6,0.77,3.29,2.26,4.95c0.64,0.71,3.18,1.66,3.92,2.97C290.17,246.57,287.5,244.89,285.48,242.82z"/>
	</g>
	<g>
		
			<radialGradient id="SVGID_00000181766869943084634790000016139342485431066044_" cx="546.6691" cy="4632.9238" r="27.0729" fx="531.767" fy="4625.6655" gradientTransform="matrix(-2.1513 0 0 1.4899 1598.0833 -6604.4238)" gradientUnits="userSpaceOnUse">
			<stop  offset="0" style="stop-color:#FCB433"/>
			<stop  offset="0.2034" style="stop-color:#FCB031"/>
			<stop  offset="0.4713" style="stop-color:#FAA42C"/>
			<stop  offset="0.7739" style="stop-color:#F79124"/>
			<stop  offset="1" style="stop-color:#F57F20"/>
		</radialGradient>
		<path style="fill:url(#SVGID_00000181766869943084634790000016139342485431066044_);" d="M474.82,283.91
			c5.57,13.25,8.5,37-8.84,42.6c-3.54,1.14-8.08,0.41-11.67,1.72c-3.45,1.27-5.02,4.67-7.93,6.76c-7.08,5.09-16.1,4.65-23.49,0.79
			c-4.31-2.25-4.7-2.68-9.18-1.18c-3.66,1.22-7.81,2.66-11.82,2.66c-7.22,0-17.19-2.69-22.55-8.19c-2.61-2.68-3.13-6.54-5.51-9.2
			c-5.9-6.6-11.18-11.64-7.88-21.96c2.47-7.73,7.88-14.98,13.36-20.58c6-6.13,11.51-12.38,19.48-15.52
			c8.31-3.27,15.2,3.13,22.49,0.43c3.27-1.21,4.99-4.02,8.82-4.22c3.93-0.2,6.88,2.63,10.4,3.64c7.83,2.25,12.74-1.7,19.84,3.85
			C466.79,270.58,471.49,275.98,474.82,283.91z"/>
		<path class="st4" d="M373.82,319.88c-5.9-6.6-11.18-11.64-7.88-21.96c0.43-1.34,0.95-2.67,1.54-3.97c0.14,0.58,0.25,1.3,0.5,2.04
			c1.72,5.11,3.29,4.76,7.63,2.9c2.37-1.01,3.54-2.75,4.9-4.99c2.04-3.36,5.3-3.75,7.74-6.44c2.48-2.74,2.37-6.71,4.48-9.36
			c2.25-2.82,5.76-4.52,7.57-7.81c0.35-0.65,0.45-1.43,0.82-1.99c0.53-0.81,1.3-1.03,1.86-1.74c1.29-1.63,0.65-2.66,0.29-4.46
			c3.38-0.05,6.32,2.21,8.78,4.14c1.91,1.5,7.56,4.48,6.2,7.93c-2.45,0.03-3.84-1.52-6.56-0.62c-2.04,0.68-3.51,2.53-5.41,3.42
			c-2.56,1.21-3.1,1.93-4.74,4.34c-1.14,1.67-2.85,2.55-3.82,4.42c-0.81,1.57-1.5,3.32-2.27,4.94c-0.83,1.77-0.4,3.19-0.93,4.98
			c-0.41,1.41-1.66,2.51-2.27,3.9c-0.72,1.66-1.3,3.5-1.8,5.2c-1.02,3.42-1.44,6.88-0.26,10.23c0.7,2.02,0.12,3.61,0.62,5.59
			c1.92,7.64,8.89,6.4,14.62,5.58c4-0.57,3.6-5.04,4.41-8.43c0.47-1.98,1-3.11,2.4-4.47c1.51-1.46,2.68-2.17,3.01-4.38
			c0.29-1.96-0.58-3.92-0.04-5.9c0.63-2.29,2.36-3.82,2.67-6.32c0.43-3.5,0.55-7.07,0.82-10.52c0.11-1.33,0.51-1.83,0.88-3.02
			c0.63-2.07,0.83-4.54,0.6-6.7c-0.07-0.61-1.17-6-1.44-6.07c1.14,0.3,2.05,1.02,3.27,1.27c0.72,0.15,3.25-0.02,3.66,0.7
			c0.96,1.63-1.86,3.65-2.55,4.82c-1.23,2.11-0.8,4.15-1.01,6.51c-0.2,2.28,0.3,4.86-0.26,7.06c-0.48,1.91-1.44,2.47-0.92,4.69
			c0.85,3.63,1.35,5.71,3.81,8.59c1.42,1.66,1.67,1.67,0.81,3.68c-0.76,1.76-1.45,2.91-0.7,4.85c0.28,0.73,1.22,1.4,1.4,2.1
			c0.27,1.05-0.38,1.2-0.36,2.05c0.03,1.72,1.2,2.65,2.02,4.01c1.59,2.61,3.78,4.92,6.82,5.49c1.39,0.26,3.28-0.16,4.81,0
			c1.65,0.18,2.82,0.5,4.16-0.68c2.39-2.1,3.14-6.52,4.05-9.43c0.73-2.32,2.67-1.71,3.89-3.44c1.51-2.15,0.06-4.69,0.03-6.98
			c-0.04-2.83,0.5-4.02-0.57-6.71c-0.93-2.36-0.35-4.77-0.91-7.15c-0.49-2.08-2.83-3.81-1.6-5.99c1.16,2.65,1.45,5.49,2.73,7.94
			c0.8,1.54,1.36,1.88,1.6,3.68c0.19,1.39,0.42,2.72,0.77,4.12c0.76,3.01,1.35,3.68,3.6,5.57c1.9,1.59,3.28,3.74,5.09,5.41
			c1.44,1.34,2.96,4.08,5.03,4.17c2.37,0.1,5.67-3.39,6.87-5.26c2.06-3.21,1.18-8.06,2.61-11.6c0.5-1.25,1.05-2.37,1.47-3.53
			c2.12,12.32,0.3,26.16-12.4,30.25c-3.54,1.14-8.08,0.41-11.67,1.72c-3.45,1.27-5.02,4.67-7.93,6.76
			c-7.08,5.09-16.1,4.65-23.49,0.79c-4.31-2.25-4.7-2.68-9.18-1.18c-3.66,1.22-7.81,2.66-11.82,2.66c-7.22,0-17.19-2.69-22.55-8.19
			C376.72,326.4,376.2,322.54,373.82,319.88z"/>
		<path class="st5" d="M370.54,312.24c-0.98-0.97-1.56-1.97-2.64-2.73c-0.96-0.67-2.19-0.78-2.54-2.18
			c1.18,4.73,4.69,8.32,8.46,12.54c2.38,2.66,2.9,6.52,5.51,9.2c5.36,5.5,15.33,8.2,22.55,8.19c4.02,0,8.16-1.44,11.82-2.66
			c4.48-1.5,4.87-1.07,9.18,1.18c7.39,3.87,16.42,4.3,23.49-0.79c2.91-2.09,4.48-5.5,7.93-6.76c3.59-1.31,8.13-0.58,11.67-1.72
			c7.76-2.51,11.45-8.65,12.67-15.86c-0.44,2.6-3.49,4.24-5,5.97c-1.88,2.15-2.67,2.52-5.61,3.19c-1.38,0.32-1.15,0.51-2.26-0.01
			c-0.58-0.26-0.76-1.03-1.55-1.26c-1.99-0.57-3.23-0.05-4.34-2.32c-1.15-2.35-1.43-5.47-2.16-8.01c-0.75-2.66-2.07-1.9-3.4-3.69
			c-0.92-1.25-0.84-3.91-1.4-5.4c-1.62-4.34-2.07-9.65-4.48-13.66c-0.48-0.81-0.95-0.95-1.29-1.95c-0.23-0.69-0.08-1.67-0.25-2.38
			c-0.35-1.52-1.45-2.77-1.65-4.32c-0.12-0.97,0.35-1.9,0.23-2.91c-0.19-1.57-2.61-4.21-1.48-5.67c0.79-1.02,2.78-0.64,3.71-1.36
			c0.72-0.56,0.51-1.37,1.65-1.64c1.32-0.31,3.29-0.23,4.73-0.42c1.81-0.24,3.69-0.11,5.48,0.21c-6.71-4.73-11.55-1.16-19.11-3.33
			c-3.52-1.01-6.46-3.84-10.4-3.64c-3.82,0.2-5.54,3.01-8.82,4.22c-6.95,2.58-13.55-3.11-21.36-0.8c1.31,0.51,9.31,3.98,6.61,5.61
			c2.14,0.57-0.12,1.83-0.87,2.36c-1.47,1.05-1.89,2.05-2.96,3.38c-0.88,1.1-2.04,1.9-2.91,2.95c-0.99,1.2-2.05,2.23-3.01,3.53
			c-1.73,2.32-3.88,4.41-5.77,6.59c-1.4,1.62-2.77,1.99-3.16,4.21c-0.45,2.52-0.26,2.28-2.25,4.16c-1.82,1.72-0.35,2.74-0.95,5.12
			c-0.19,0.75-0.71,1.31-0.86,2.1c-0.17,0.92,0.25,2.05,0,2.95c-0.82,2.85-6.4,3-5.85,7.13c-1.17,0.04-2.51,0.08-2.2,1.69
			c-1.72,0.39-1.95-1.23-3.01-1.55c-0.07-0.02-1.12-0.04-1.77,0.09C370.55,311.87,370.3,312.01,370.54,312.24z M425.71,327.47
			c-3.31,5.58-4.32-9.24-4.81-10.62c-1.2-3.35,0.84-5.97,0-9.25c-0.54-2.1-0.57-2.66-0.24-4.86c0.26-1.73,0.44-3.35,0.69-5.06
			c0.31-2.17,1.8-3.61,2.07-5.8c0.23-1.92-0.29-3.87-0.31-5.8c-0.02-2.05,0.86-4.08,1.2-6.11c0.35-2.12,1.27-4.13,3.46-5.01
			c1.81-0.73,2.87,1.34,4.59,1.08c0.67-0.11,1.15-1.18,1.88-1.4c0.89-0.27,2.33,0.16,3.18,0.47c1.54,0.56,2.61,1.59,3.82,2.71
			c2.17,2,2.07,4.1,3.61,6.39c0.9,1.33,2.25,1.94,2.89,3.46c0.65,1.57,0.47,3.47,0.71,5.15c0.46,3.2,1.4,5.83,1.86,9.1
			c0.43,3.08,0.86,6.93,0.35,10.02c-0.43,2.64-0.52,5.96-1.27,8.51c-0.63,2.16-2.38,2.15-3.57,3.63c-1.39,1.73,0.38,2.43,0.21,4
			c-0.2,1.86-2.54,2.48-3.86,2.91c-1.69,0.56-2.97,0.97-4.77,0.15c-1.3-0.6-2.35-1.96-3.7-2.42c-0.05-0.01-0.1-0.03-0.15-0.04
			C431.2,328.11,427.25,331.86,425.71,327.47z M385.61,323.87c-0.03-1.12,1.09-2.53-0.07-3.59c-0.58-0.53-1.94,0.49-2.62-0.19
			c-1.35-1.37,1.09-4.13,1.46-5.33c0.74-2.42-1.17-2.85-1.41-5.06c-0.23-2.17,2.1-4.4,2.8-6.38c0.97-2.74,1.63-5.53,2.77-8.23
			c0.42-1,0.58-2.47,1.2-3.37c1.74-2.51,3.9-2.71,4.88-6.05c0.4-1.35,0.07-2.46,1.24-3.53c0.96-0.87,2.31-0.75,3.21-1.89
			c0.85-1.09,1.16-2.64,1.18-4.03c1.74-0.32,1.96-1.09,3.33-1.99c1.4-0.91,2.04-0.32,3.45,0c2.03,0.47,1.54,0.08,3.17-0.84
			c0.97-0.55,7.31-1.35,6.3,1.05c1.09,0.83,1.54,1.3,1.62,2.59c0.04,0.66-0.61,1.14-0.45,1.9c0.16,0.8,1.12,0.92,1.36,1.68
			c0.74,2.37,0.28,5.18,0.61,7.63c0.14,1.02,0.45,2.27,0.25,3.33c-0.22,1.19-1.27,1.94-1.16,3.32c0.07,0.93,0.94,1.7,0.96,2.79
			c0.02,1.42-0.86,2.3-1.2,3.6c-0.46,1.73,0.15,3.56-0.32,5.33c-0.36,1.35-1.21,2.22-1.74,3.44c-1.22,2.78,1.15,6.62-0.49,8.76
			c-1.3,1.7-1.91,1.21-2.27,3.53c-0.22,1.4,0.41,1.33-0.75,2.58c-0.45,0.49-1.15,0.63-1.6,1.04c-1.34,1.23-1.14,2.34-1.91,3.96
			c-1.19,2.54-1.63,1.6-3.57,0.84c-2.31-0.91-4.64,0.46-7.13,0.2c-0.93-0.1-2.4,0.25-3.19,0.07c-1.56-0.36-2.11-2-3.56-2.54
			c-0.84-0.32-1.53,0.32-2.36,0.17c-1.34-0.25-0.86-0.37-1.86-1.21c-1.15-0.96-1.88-1.67-2.08-2.99
			C385.63,324.28,385.62,324.08,385.61,323.87z"/>
		<path class="st6" d="M448.91,262.41c-1.06,0.28-2.12,0.68-3.07,1.11c-1.93,0.88-7.06,1.49-7.74,3.96
			c-0.34,1.23,0.51,2.32,1.57,3.35c1.05,1.02,2.3,1.98,2.79,2.94c1.16,2.24,2.92,5.74,3.12,8.23c-2.16-2.32-3.27-5.51-5.84-7.46
			c-1.4-1.07-2.83-0.99-4.16-1.99c-1.56-1.17-1.56-1.46-3.51-1.59c-3.59-0.24-4.3,0.76-6.72,3.59c-2.08,2.43-3.38,5.63-4.22,8.8
			c-0.29,1.13-0.41,2.12-1,3.1c-0.73-2.13-0.06-5.51,0.16-7.73c0.25-2.62,0.37-5.33-1.5-7.24c-2-2.04-4.03-1.35-6.53-1.19
			c-1.45,0.09-2.65-0.19-4.01,0.01c-1.22,0.18-2.33,1.06-3.59,1c1.48-1.88,3.69-3.21,6.03-3.37c1.21-0.08,4.61,1.07,5.09-0.88
			c0.37-1.45-3.84-3.82-4.91-4.3c-1.16-0.52-3.05-0.99-4.75-1.7c4.59,0.55,8.88,2.47,13.25,1.71c0.42,0.43,0.86,0.88,1.36,1.36
			c2.51,2.44,7.15,0.82,10.18,0.48c3.37-0.38,6.12-1.5,9.23-2.95c0.03-0.01,0.06-0.02,0.09-0.04c0.08,0.03,0.16,0.05,0.24,0.08
			C443.66,262.59,446.36,262.48,448.91,262.41z"/>
		<path class="st7" d="M414.82,268.09c2.84-1.03,0.94-2.35-0.14-4.06c0.94,1.48,3.17,1.04,4.43,1.69c0.87,0.45,1.17,1.04,2.21,1.23
			c2.36,0.42,4.43,0.02,6.77,0c1.78-0.02,3.65,0.73,5.38,0.15c0.73-0.24,1.37-0.76,2.07-1.05c2.97-1.21,5.85-2.6,8.95-3.69
			c0.44,0.04,0.85,0.04,1.27,0.04c-3.39,1.06-8.13,3.3-8.27,6.56c-0.07,1.78,3.49,4.45,4.28,5.71c0.58,0.93,1.11,1.88,1.59,2.84
			c-3.78-4.26-9.25-9.45-14.74-6.51c-3.03,1.62-5.32,3.81-7,6.73c-0.37-3.94-1.66-7.99-5.84-8.72c-1.1-0.19-2.35-0.34-3.61-0.4
			C413.08,268.54,413.97,268.4,414.82,268.09z"/>
		<path class="st8" d="M419.99,270.47c-1.23-0.64-2.42-1.31-3.66-1.87c0.09-0.04,0.17-0.08,0.26-0.14c0.62-0.39,0.8-1.26,0.42-1.87
			c0.09-0.03,0.17-0.07,0.27-0.09c1.01-0.23,2.01-0.15,3.02,0.03c0.28,0.19,0.59,0.35,1.04,0.43c2.36,0.42,4.43,0.02,6.77,0
			c1.78-0.02,3.65,0.73,5.38,0.15c0.37-0.13,0.72-0.32,1.07-0.52c0.84-0.2,1.7-0.26,2.57-0.31c-0.93,1.2-0.93,2.99,0.15,4.48
			c0.08,0.11,0.15,0.22,0.23,0.33c-2.59-1.38-5.7-1.8-8.51-0.9c-2.39,0.77-4.15,1.76-5.61,3.05
			C422.86,271.94,421.44,271.23,419.99,270.47z"/>
		<path class="st9" d="M373.82,319.88c-2.57-2.87-4.99-5.46-6.67-8.31c2.01,0.08,1.74,2.12,2.83,3.6c1.09,1.48,2.75,1.09,3.98,2.35
			c0.16-0.42,0.61-1.13,0.64-1.64c1.15,1.13,1.56,2.7,2.57,3.74c1.01-0.74,1.11-2.15,1.36-3.34c0.39-1.83,0.75-3.09,1.65-4.74
			c1.51-2.77,2.86-5.55,4.03-8.54c-0.96,3.52-2.12,7.16-2.63,10.86c-0.27,1.96-1.76,6.82-0.2,8.28c0.95-0.59,1.26-1.79,1.2-2.91
			c0.86,3.85-0.11,8.67,4.17,10.74c2.75,1.33,5.74,3.24,8.91,4.12c1.9,0.53,2.69-0.5,4.37-0.59c2.13-0.12,4.1,1.76,6.22,1.69
			c2.75-0.1,5.57-3.47,7.37-5.33c1.13-1.17,2.28-1.85,3.01-3.32c0.75-1.51,0.81-3.51,1.61-4.83c1.32,3.55,2.34,7.75,4.71,10.89
			c2.68,3.57,8.77,3.37,12.74,4.63c3.38,1.07,5.6-0.84,8.21-3.15c2.32-2.05,5.16-3.37,6.83-5.85c0.8-1.2,2.29-2.63,2.66-3.59
			c0.49-1.25,0.4-3.91,0.4-5.27c0-3.87-0.45-7.83-0.96-11.53c0.91,2.61,1.82,5.19,2.15,8.01c0.29,2.44-0.5,5.74,0.25,7.93
			c1.32-0.32,1.47-2.28,1.4-3.53c1.78,0.84,0.85,3.99,2.97,5.04c1.63,0.8,4.09-0.32,5.82-0.8c1.64-0.45,3.38-0.03,4.98-0.09
			c-1.31,0.84-2.77,1.56-4.43,2.09c-3.54,1.14-8.08,0.41-11.67,1.72c-3.45,1.27-5.02,4.67-7.93,6.76
			c-7.08,5.09-16.1,4.65-23.49,0.79c-4.31-2.25-4.7-2.68-9.18-1.18c-3.66,1.22-7.81,2.66-11.82,2.66c-7.22,0-17.19-2.69-22.55-8.19
			C376.72,326.4,376.2,322.54,373.82,319.88z"/>
		
			<linearGradient id="SVGID_00000157296740707704873670000014612465023830827910_" gradientUnits="userSpaceOnUse" x1="418.9301" y1="271.9683" x2="430.0263" y2="302.455" gradientTransform="matrix(-1 0 0 1 884.957 0)">
			<stop  offset="0" style="stop-color:#FEDC35"/>
			<stop  offset="0.5" style="stop-color:#FDC825"/>
			<stop  offset="1" style="stop-color:#FCB216"/>
		</linearGradient>
		<path style="opacity:0.44;fill:url(#SVGID_00000157296740707704873670000014612465023830827910_);" d="M456.91,268.69
			c2.14,0.54,3.68,1.94,5.56,4.11c2.17,2.51,4.85,4.68,6.57,7.61c1.86,3.17,3.11,6.41,4.27,9.9c1.23,3.71,1.49,12.24-1.79,15.03
			c-4.51,3.84-9.39-0.42-11.02-5.21c-0.68-1.98-0.28-3.95-1.04-5.95c-0.97-2.52-2.43-4.86-3.65-7.24c-1.29-2.52-2.5-5.28-4.34-7.42
			c-1.88-2.18-4.39-3.85-3.78-7.34c0.63-3.61,3.47-3.56,6.26-3.71C455.07,268.39,456.04,268.47,456.91,268.69z"/>
		
			<linearGradient id="SVGID_00000170264074617754223710000016128619266280023681_" gradientUnits="userSpaceOnUse" x1="439.1583" y1="288.5289" x2="457.287" y2="308.6628" gradientTransform="matrix(-1 0 0 1 884.957 0)">
			<stop  offset="0" style="stop-color:#FEDC35"/>
			<stop  offset="0.5" style="stop-color:#FDC825"/>
			<stop  offset="1" style="stop-color:#FCB216"/>
		</linearGradient>
		<path style="opacity:0.52;fill:url(#SVGID_00000170264074617754223710000016128619266280023681_);" d="M444.36,308.64
			c0.17,3.36-0.38,8.63-4.81,8.86c-4.45,0.23-7.62-6.48-7.98-10.33c-0.16-1.69,0.04-3.48-0.4-5.11c-0.42-1.55-1.34-2.97-1.91-4.53
			c-1.11-3.04-2.23-6.21-1.76-9.54c0.3-2.11,2.12-6.28,4.02-7.34c3.95-2.2,8,1.43,9.65,4.89c1.23,2.55,1.76,5.31,1.92,8.15
			c0.09,1.46-0.14,3.05,0.06,4.48c0.2,1.36,0.89,2.4,1.15,3.78C444.72,304.15,444.25,306.41,444.36,308.64z"/>
		
			<linearGradient id="SVGID_00000048481048155653912810000014790370833560782491_" gradientUnits="userSpaceOnUse" x1="466.6904" y1="283.7895" x2="495.3629" y2="315.6335" gradientTransform="matrix(-1 0 0 1 884.957 0)">
			<stop  offset="0" style="stop-color:#FEDC35"/>
			<stop  offset="0.5" style="stop-color:#FDC825"/>
			<stop  offset="1" style="stop-color:#FCB216"/>
		</linearGradient>
		<path style="opacity:0.33;fill:url(#SVGID_00000048481048155653912810000014790370833560782491_);" d="M409.53,307.39
			c-0.2,1.08-0.14,2.09-0.46,3.29c-1.35,5.11-6.24,12.23-11.96,10.88c-4.79-1.13-4.02-6.88-2.78-10.57c0.7-2.06,2.23-3.74,2.04-5.79
			c-0.09-1.03-1.1-1.8-0.96-3.06c0.13-1.25,1.12-2.4,1.64-3.44c3.19-6.35,1.39-16.08,8.68-19.74c2.8-1.41,7.22-1.19,8.83,1.91
			c2.31,4.44-0.54,10.29-1.17,14.71c-0.31,2.2,0.49,3.81-0.46,6.01c-0.72,1.65-2.21,2.76-2.96,4.36
			C409.76,306.45,409.62,306.93,409.53,307.39z"/>
		
			<linearGradient id="SVGID_00000135660622476472919890000006083507573784580494_" gradientUnits="userSpaceOnUse" x1="483.8856" y1="280.4955" x2="510.2619" y2="280.4955" gradientTransform="matrix(-1 0 0 1 884.957 0)">
			<stop  offset="0" style="stop-color:#FEDC35"/>
			<stop  offset="0.5" style="stop-color:#FDC825"/>
			<stop  offset="1" style="stop-color:#FCB216"/>
		</linearGradient>
		<path style="opacity:0.26;fill:url(#SVGID_00000135660622476472919890000006083507573784580494_);" d="M393.12,276.23
			c-1.51,1.55-2.12,3.64-3.31,5.36c-1.97,2.84-3.78,7.15-6.06,9.65c-1.32,1.44-2.31,1.08-4.01,1.47c-1.93,0.45-2.88,1.39-4.56,2.25
			c-2.81-6.4,7.6-15.1,11.02-19.08c1.8-2.1,3.29-5.53,5.21-7.21c1.39-1.22,9.35-4.78,9.66-0.81
			C401.26,270.37,394.64,274.67,393.12,276.23z"/>
		<path class="st14" d="M440.82,292.35c0.08,1.01,0.09,2,0.05,2.94c-0.08,1.68,0.45,11.06-0.54,11.43c-2.5,0.95-5.31-6.72-6.03-8.29
			c-2.08-4.5-11.58-13.75-5.1-17.95C436.68,275.62,440.36,286.3,440.82,292.35z"/>
		<path class="st14" d="M467.7,283.3c0.48,1.56,2.17,4.67,1.7,6.28c-0.92,3.1-4.04,0.28-5.43-1.43c-1.61-1.98-2.54-4.85-4.6-6.36
			c-1.92-1.41-4.3-1.64-6.27-3.07c-1.61-1.18-5.43-4-4.9-6.55c0.3-1.45,2.26-2.47,3.49-3.23c5.86-3.59,7.67,3.21,10.19,6.69
			C463.92,278.5,466.54,279.54,467.7,283.3z"/>
		<path class="st14" d="M413.5,294.43c-2.24,5.61-3.54,1-4.48-2.57c-0.81-3.02-4.04-6.88-3.21-10.28c0.87-3.56,4.97-4.09,7.43-1.94
			C416.59,282.55,414.95,290.8,413.5,294.43z"/>
		<g>
			<path class="st15" d="M431.47,258.34c0.93,2.11,1.97,4.14,3.4,6.03c0.81,1.07,1.74,3.76,0.4,4.7c-0.94,0.67-2.74,0.14-3.79,0.08
				c-0.81-0.04-2.02-0.2-2.8,0c-0.68,0.18-1.3,0.86-1.98,1.14c-1.89,0.78-4.65,0.59-6.5-0.2c-1.03-0.44-1.73-1.04-2.04-2.18
				c-0.49-1.85,0.96-2.73,1.27-4.41c0.25-1.33-0.14-3.09-0.23-4.44c-0.11-1.62-0.78-3.29-1.41-4.75c-1.48-3.45-4.04-6.51-7.35-8.11
				c-4.71-2.28-11.32-2.69-15.62,0.77c-2.01,1.62-2.01,3.49-5.02,3.07c-1.86-0.26-3.95-1.07-5.49-2.22c-4.02-3,3.52-8.69,5.73-10.06
				c3.89-2.41,8.59-4.11,12.96-4.32c7.43-0.36,16.48,3.15,21.28,9.32c2.52,3.24,3.62,7.27,5.22,10.93
				C430.17,255.27,430.79,256.82,431.47,258.34z"/>
			<path class="st16" d="M392.43,238.7c-3.09,2.42-6.11,4.94-8.55,8.03c0-0.01,0-0.02,0.01-0.03c0.47-2.49,5.81-7.25,7.9-8.46
				c3.17-1.83,6.64-2.99,10.28-3.15c6.5-0.3,15.4,1.49,20.02,6.87c4.51,5.25,5.38,13,7.5,19.48c1.03,3.15,2.78,5.56,4.7,7.95
				c-0.93,0.08-2.06-0.19-2.8-0.23c-0.81-0.04-2.02-0.2-2.8,0c-0.04,0.01-0.08,0.04-0.12,0.05c-1.61-3.01-2.33-8.02-3.07-10.64
				c-0.79-2.78-0.1-6.86-1.32-9.34c-2.42-4.87-6.87-9.95-11.96-11.77c-5.46-1.96-11.21-1.49-16.73,0.01
				c-0.9,0.24-1.76,0.55-2.53,0.99C392.77,238.49,392.6,238.56,392.43,238.7z"/>
			<path class="st16" d="M390.31,246.16c0.08-0.08,0.18-0.14,0.26-0.22c2.61-2.58,2.33-5.37,6.93-6.16
				c7.07-1.22,14.55-1.82,19.9,4.4c2.91,3.38,4.34,6.32,4.64,10.89c0.17,2.69,1.41,5.51,2.14,8.08c0.89,3.09,0.91,5.3,2,7.33
				c-1.85,0.57-4.3,0.36-5.99-0.37c-1.03-0.44-1.73-1.04-2.04-2.18c-0.49-1.85,0.96-2.73,1.27-4.41c0.25-1.33-0.14-3.09-0.23-4.44
				c-0.11-1.62-0.78-3.29-1.41-4.75c-1.48-3.45-4.04-6.51-7.35-8.11c-4.71-2.28-11.32-2.69-15.62,0.77
				c-2.01,1.62-2.01,3.49-5.02,3.07c-0.71-0.1-1.44-0.29-2.17-0.54C388.69,248.51,389.63,247.37,390.31,246.16z"/>
			<path class="st17" d="M431.85,260.85c0.64,1.14,3.18,4.36,2.43,5.83c-0.79,1.56-2.21-3.46-2.54-4.17
				c-0.54-1.19-1.4-2.15-2.04-3.29c-0.82-1.45-1.02-2.94-1.37-4.53c-0.34-1.51-0.97-2.93-1.41-4.39
				C428.49,253.88,429.96,257.49,431.85,260.85z"/>
			<path class="st17" d="M422.72,250.15c0.57,1.94,1.43,3.5,1.75,5.52c0.39,2.47,0.68,5.04,1.17,7.48c0.44,2.16,1.33,3.91,1.3,6.23
				c-0.56-1.25-1.02-2.74-1.5-4.04c-1.22-3.37-1.37-6.67-2.01-10.16c-0.34-1.87-0.8-3.9-1.67-5.64c-0.45-0.9-0.64-1.88-1.14-2.7
				c-0.46-0.75-1.09-1.34-1.55-2.06c-0.95-1.46-1.87-2.56-3.36-3.49c-6.18-3.88-15.59-4.91-22.04-1.05
				c-1.76,1.06-2.9,2.79-4.34,4.27c-1,1.03-1.81,2.69-2.78,3.54c-0.12-0.85,0.56-2.81,0.92-3.59c0.55-1.16,1.51-2.13,2.56-2.78
				c1.6-1,3.04-2.58,4.66-3.43c1.98-1.04,4-1.61,6.19-1.72c5.71-0.29,10.89,1.35,15.55,4.78c0.68,0.5,1.46,0.92,2.05,1.53
				c0.9,0.91,2.19,2.05,2.87,3.15C422.12,247.22,422.31,248.77,422.72,250.15z"/>
			<path class="st18" d="M414.66,236.96c0.97,0.37,1.9,0.93,2.8,1.45c1.78,1.03,3.29,2.48,4.53,4.17c2.47,3.34,3.93,7.43,4.9,11.49
				c0.46,1.95,0.9,3.79,1.31,5.77c0.36,1.74,1.24,3.3,1.89,5.03c0.35,0.91,2.03,2.89,2.6,4.43c-0.45-0.06-0.88-0.13-1.23-0.15
				c-0.6-0.03-1.42-0.12-2.13-0.09c-0.5-1.19-0.82-2.55-1.03-3.22c-0.52-1.68-1.4-3.74-1.64-5.52c-0.51-3.81-1.02-7.85-1.91-11.57
				c-0.71-2.96-3.01-5.1-4.94-7.23c-2.28-2.52-5.33-3.98-8.28-5.37C412.47,236.59,413.68,236.58,414.66,236.96z"/>
			<path class="st18" d="M390.64,246.99c-0.67,0.88-1.28,1.87-1.89,2.85c-0.17-0.04-0.34-0.07-0.51-0.12
				c0.16-0.25,0.33-0.51,0.5-0.79c0.55-0.91,0.7-1.81,1.19-2.71c0.87-1.57,2.68-2.69,4.18-3.46c3.58-1.85,6.7-2.82,10.74-3.03
				c5.42-0.28,10.79,2.94,13.89,7.48c0.66,0.96,1.45,2.02,1.88,3.12c0.41,1.04,0.33,2.22,0.66,3.29c0.84,2.78,1.03,5.48,1.57,8.31
				c0.33,1.73,0.78,3.49,1.25,5.15c0.31,1.09,0.76,2.38,0.97,3.64c-0.45,0.06-0.91,0.08-1.37,0.08c-0.18-0.98-0.2-2.05-0.27-2.61
				c-0.25-1.81-0.78-3.62-1.2-5.4c-0.85-3.62-1.04-7.62-2.83-11.01c-1.13-2.13-2.61-4.06-3.8-6.2c-1.11-2-1.78-2.79-3.99-3.45
				c-0.44-0.13-0.88-0.24-1.33-0.34c-1.45-0.3-2.94-0.43-4.41-0.59c-3.91-0.41-7.84-0.07-11.09,2.3
				C393.38,244.54,391.77,245.53,390.64,246.99z"/>
			<path class="st18" d="M390.35,250.11c0.28-0.43,0.58-0.83,0.81-1.21c0.77-1.21,1.86-2.29,2.96-3.17
				c1.47-1.19,3.45-1.25,5.14-1.72c3.58-0.99,8.01-1.37,11.68-0.13c1.51,0.51,3.52,1.54,4.32,2.95c0.9,1.58,1.81,3.14,2.77,4.69
				c1.17,1.9,1.23,3.47,1.64,5.61c0.38,1.99,0.82,3.94,1.19,5.89c0.35,1.85,0.62,3.99,0.7,5.88c0.03,0.6,0.06,1.15,0.05,1.63
				c-0.5-0.11-0.98-0.26-1.41-0.45c-1.03-0.44-1.73-1.04-2.04-2.18c-0.49-1.85,0.96-2.73,1.27-4.41c0.25-1.33-0.14-3.09-0.23-4.44
				c-0.11-1.62-0.78-3.29-1.41-4.75c-1.48-3.45-4.04-6.51-7.35-8.11c-4.71-2.28-11.32-2.69-15.62,0.77
				C392.93,248.5,392.81,250.23,390.35,250.11z"/>
			<path class="st19" d="M419.51,239.19c0.2,0.13,0.38,0.27,0.57,0.42c3.24,2.44,4.94,6.08,6.55,9.78c0.84,1.93,1.37,3.94,2.25,5.84
				c0.91,1.98,2.15,3.78,2.97,5.81c0.43,1.06,1.49,4.02-0.35,1.87c-1.71-2-2.56-4.98-3.82-7.28c-1.74-3.18-3.26-6.43-4.94-9.65
				c-0.86-1.65-1.43-3.36-2.86-4.63c-2.85-2.54-7.34-3.44-10.83-4.78c-4.26-1.63-9.15-1.15-13.26,0.74
				c-1.84,0.85-4.19,2.09-5.21,3.99c-0.51,0.95-1.76,4.98-3.36,4.32c0.33-1.8,0.6-3.41,1.82-4.77c1.15-1.28,2.58-2.23,3.86-3.36
				c1.22-1.07,2.98-1.55,4.47-2.15c4.52-1.83,10.1-1.38,14.53,0.34C414.5,236.68,417.19,237.59,419.51,239.19z"/>
			<path class="st20" d="M426.6,249.54c1.03,1.94,1.9,3.61,2.65,5.64c0.22,0.61,1.42,3.52,0.79,3.91c-0.6,0.37-1.15-1.12-1.35-1.48
				c-0.77-1.36-1.5-2.56-2.04-4.02c-0.5-1.35-0.58-2.91-1.51-4.02c-0.54-0.64-1.11-1.1-1.58-1.78c-0.42-0.62-0.71-1.39-1.53-1.42
				c-0.05,1.33,1.1,2.53,1.23,3.84c0.13,1.24,0.6,2.81,0.48,4.08c-1-1.12-1.26-2.75-1.61-4.13c-0.9-3.56-2.48-5.69-5.28-7.85
				c-1.8-1.39-3.58-2.24-5.6-3.28c-1.86-0.96-3.76-2.09-5.87-1.88c-2.12,0.22-4.3,1.09-6.46,0.73c0.07-1.31,6.77-1.86,8-1.69
				c-1.44-1.22-4.83-0.4-6.5-0.13c-1.59,0.26-4.87,2.33-6.29,0.9c2.12-1.68,4.66-2.02,7.27-2.17c2.93-0.18,5.9,0.26,8.74,1
				c2.27,0.59,4.37,1.31,6.6,2.27c1.8,0.77,3.3,2.18,4.81,3.43C424.26,243.7,425.02,246.55,426.6,249.54z"/>
			<path class="st21" d="M423.16,244.5c-1.99-1.6-3.53-4.03-5.93-5.02c-1.19-0.5-2.33-0.86-3.5-1.35c-0.95-0.4-2.66-0.63-3.26-1.57
				c1.9-0.06,4.08,1.15,5.83,1.79C418.57,239.17,423.23,241.25,423.16,244.5z"/>
		</g>
		<path class="st7" d="M465.22,326.7c-3.42,0.84-7.57,0.3-10.91,1.53c-1.71,0.62-2.95,1.77-4.13,3.03c0.83-1.17,1.98-2.08,2.61-3.38
			c0.79-1.63,0.8-3.77,1.03-5.6c0.57-4.55,0.52-9.34-0.68-13.77c0.79,0.95,1.22,2.21,1.46,3.39c0.29,1.4,0.92,2.81,1.19,4.17
			c0.29,1.49-0.57,2.35-0.57,3.64c-0.01,1.36,0.63,4.99,1.85,5.86c0.5,0.35,1.72,0.3,2.31,0.63c1.8,1.01,1.96,1,4.02,0.53
			C464.08,326.56,464.73,326.57,465.22,326.7z"/>
		<path class="st7" d="M413.7,334.6c-0.23,0.07-0.46,0.15-0.69,0.23c1.38-1.48,2.66-3.66,3.26-5.35c1.05-2.94,1.34-5.52,1.19-8.72
			c-0.16-3.38,0.62-6.43,0.62-9.78c1.17,3.29,0.41,7.52,0.82,11.3c0.23,2.19-1.34,9.21,1.83,10c0.23,0.75,0.09,1.75,0.32,2.54
			C418.34,333.45,417.45,333.35,413.7,334.6z"/>
		<path class="st7" d="M379.33,329.08c-2.29-2.35-2.97-5.61-4.72-8.18c0.23,0.05,0.47,0.07,0.71,0.04c2.35-0.36,2.13-4.25,3.03-6.02
			c0.94-1.87,1.88-3.7,2.84-5.57c-0.6,2.33-1.3,4.62-1.65,7.09c-0.35,2.45-0.81,5.33-0.43,7.8c0.29,1.87,0.46,1.03,1.65,1.94
			c2.09,1.6,0.77,3.29,2.26,4.95c0.64,0.71,3.18,1.66,3.92,2.97C384.02,332.82,381.35,331.15,379.33,329.08z"/>
	</g>
	<g>
		
			<radialGradient id="SVGID_00000149377832669913074310000012680367951485034150_" cx="592.5937" cy="4672.4834" r="27.0729" fx="577.6916" fy="4665.2251" gradientTransform="matrix(-2.1513 0 0 1.4899 1598.0833 -6604.4238)" gradientUnits="userSpaceOnUse">
			<stop  offset="0" style="stop-color:#FCB433"/>
			<stop  offset="0.2034" style="stop-color:#FCB031"/>
			<stop  offset="0.4713" style="stop-color:#FAA42C"/>
			<stop  offset="0.7739" style="stop-color:#F79124"/>
			<stop  offset="1" style="stop-color:#F57F20"/>
		</radialGradient>
		<path style="fill:url(#SVGID_00000149377832669913074310000012680367951485034150_);" d="M376.02,342.85
			c5.57,13.25,8.5,37-8.84,42.6c-3.54,1.14-8.08,0.41-11.67,1.72c-3.45,1.27-5.02,4.67-7.93,6.76c-7.08,5.09-16.1,4.65-23.49,0.79
			c-4.31-2.25-4.7-2.68-9.18-1.18c-3.66,1.22-7.81,2.66-11.82,2.67c-7.22,0-17.19-2.69-22.55-8.19c-2.61-2.68-3.13-6.54-5.51-9.2
			c-5.9-6.6-11.18-11.64-7.88-21.96c2.47-7.73,7.88-14.98,13.36-20.58c6-6.13,11.51-12.38,19.48-15.52
			c8.31-3.27,15.2,3.13,22.49,0.43c3.27-1.21,4.99-4.02,8.82-4.22c3.93-0.2,6.88,2.63,10.4,3.64c7.83,2.25,12.74-1.7,19.83,3.85
			C367.99,329.52,372.69,334.93,376.02,342.85z"/>
		<path class="st4" d="M275.02,378.82c-5.9-6.6-11.18-11.64-7.88-21.96c0.43-1.34,0.95-2.67,1.54-3.97c0.14,0.58,0.25,1.3,0.5,2.04
			c1.72,5.11,3.29,4.76,7.63,2.9c2.37-1.01,3.54-2.75,4.9-4.99c2.04-3.36,5.3-3.75,7.74-6.44c2.48-2.75,2.37-6.71,4.48-9.36
			c2.25-2.82,5.76-4.52,7.57-7.81c0.35-0.65,0.45-1.43,0.82-1.99c0.53-0.81,1.3-1.03,1.86-1.74c1.29-1.63,0.65-2.66,0.29-4.46
			c3.38-0.05,6.32,2.21,8.78,4.14c1.91,1.5,7.56,4.48,6.2,7.93c-2.45,0.03-3.84-1.52-6.56-0.62c-2.04,0.68-3.51,2.53-5.41,3.42
			c-2.56,1.21-3.1,1.94-4.74,4.34c-1.14,1.67-2.85,2.55-3.82,4.42c-0.81,1.57-1.5,3.32-2.27,4.94c-0.83,1.77-0.4,3.19-0.93,4.98
			c-0.41,1.41-1.66,2.51-2.27,3.9c-0.72,1.66-1.3,3.5-1.8,5.2c-1.02,3.42-1.44,6.88-0.26,10.23c0.7,2.02,0.12,3.61,0.62,5.59
			c1.92,7.64,8.89,6.4,14.62,5.58c4-0.57,3.6-5.04,4.41-8.43c0.47-1.98,1-3.11,2.4-4.47c1.51-1.46,2.68-2.17,3.01-4.38
			c0.29-1.96-0.58-3.92-0.04-5.9c0.63-2.29,2.36-3.82,2.67-6.32c0.43-3.5,0.55-7.07,0.82-10.52c0.11-1.33,0.51-1.83,0.88-3.02
			c0.63-2.07,0.83-4.54,0.6-6.7c-0.07-0.61-1.17-6-1.44-6.07c1.14,0.3,2.05,1.02,3.27,1.27c0.72,0.15,3.25-0.02,3.66,0.7
			c0.96,1.63-1.86,3.65-2.55,4.82c-1.23,2.11-0.8,4.15-1.01,6.51c-0.2,2.28,0.3,4.86-0.26,7.06c-0.48,1.91-1.44,2.47-0.92,4.69
			c0.85,3.63,1.35,5.71,3.81,8.59c1.42,1.66,1.67,1.67,0.81,3.68c-0.76,1.76-1.45,2.91-0.7,4.85c0.28,0.73,1.22,1.4,1.4,2.1
			c0.27,1.05-0.38,1.2-0.36,2.05c0.03,1.72,1.2,2.65,2.02,4.01c1.59,2.61,3.78,4.92,6.82,5.49c1.39,0.26,3.28-0.16,4.81,0
			c1.65,0.18,2.82,0.5,4.16-0.68c2.38-2.1,3.14-6.52,4.05-9.43c0.73-2.32,2.67-1.71,3.89-3.44c1.51-2.15,0.06-4.69,0.03-6.98
			c-0.04-2.83,0.5-4.02-0.57-6.71c-0.93-2.36-0.35-4.77-0.91-7.15c-0.49-2.08-2.83-3.81-1.6-5.99c1.16,2.65,1.45,5.49,2.73,7.94
			c0.8,1.54,1.36,1.88,1.6,3.68c0.19,1.39,0.42,2.72,0.77,4.12c0.76,3.01,1.35,3.68,3.6,5.57c1.9,1.59,3.28,3.74,5.09,5.41
			c1.44,1.34,2.96,4.08,5.02,4.17c2.37,0.1,5.67-3.39,6.87-5.26c2.06-3.21,1.18-8.06,2.61-11.6c0.5-1.25,1.05-2.37,1.47-3.53
			c2.12,12.32,0.3,26.16-12.4,30.25c-3.54,1.14-8.08,0.41-11.67,1.72c-3.45,1.27-5.02,4.67-7.93,6.76
			c-7.08,5.09-16.1,4.65-23.49,0.79c-4.31-2.25-4.7-2.68-9.18-1.18c-3.66,1.22-7.81,2.66-11.82,2.67c-7.22,0-17.19-2.69-22.55-8.19
			C277.92,385.34,277.4,381.48,275.02,378.82z"/>
		<path class="st5" d="M271.74,371.18c-0.98-0.97-1.56-1.97-2.64-2.73c-0.96-0.67-2.19-0.78-2.54-2.18
			c1.18,4.73,4.69,8.32,8.46,12.54c2.38,2.66,2.9,6.52,5.51,9.2c5.36,5.5,15.33,8.2,22.55,8.19c4.02,0,8.16-1.44,11.82-2.67
			c4.48-1.5,4.87-1.07,9.18,1.18c7.39,3.87,16.41,4.3,23.49-0.79c2.91-2.09,4.48-5.5,7.93-6.76c3.59-1.31,8.13-0.58,11.67-1.72
			c7.76-2.5,11.45-8.65,12.67-15.86c-0.44,2.6-3.49,4.24-5,5.97c-1.88,2.15-2.67,2.52-5.61,3.19c-1.38,0.32-1.15,0.51-2.26-0.01
			c-0.58-0.26-0.76-1.03-1.55-1.26c-1.99-0.57-3.23-0.05-4.34-2.32c-1.15-2.35-1.43-5.47-2.16-8.01c-0.75-2.66-2.07-1.9-3.4-3.69
			c-0.91-1.25-0.84-3.91-1.4-5.4c-1.62-4.34-2.07-9.65-4.48-13.66c-0.48-0.81-0.95-0.95-1.29-1.95c-0.23-0.69-0.08-1.67-0.25-2.38
			c-0.35-1.52-1.45-2.77-1.65-4.32c-0.12-0.97,0.35-1.9,0.23-2.91c-0.19-1.57-2.61-4.21-1.48-5.67c0.79-1.02,2.78-0.64,3.71-1.36
			c0.72-0.56,0.51-1.37,1.65-1.64c1.32-0.31,3.29-0.23,4.73-0.42c1.81-0.24,3.69-0.11,5.48,0.21c-6.71-4.73-11.55-1.16-19.11-3.33
			c-3.52-1.01-6.46-3.84-10.4-3.64c-3.82,0.2-5.54,3.01-8.82,4.22c-6.95,2.58-13.55-3.11-21.36-0.8c1.31,0.51,9.31,3.98,6.61,5.61
			c2.14,0.57-0.12,1.83-0.87,2.36c-1.47,1.05-1.9,2.05-2.96,3.38c-0.88,1.1-2.04,1.9-2.91,2.95c-0.99,1.2-2.05,2.23-3.01,3.53
			c-1.73,2.32-3.88,4.41-5.77,6.59c-1.4,1.62-2.77,1.99-3.16,4.21c-0.45,2.52-0.26,2.28-2.25,4.16c-1.82,1.72-0.35,2.74-0.95,5.12
			c-0.19,0.75-0.71,1.31-0.86,2.1c-0.17,0.92,0.25,2.05,0,2.95c-0.82,2.85-6.4,3-5.85,7.13c-1.17,0.04-2.51,0.08-2.2,1.69
			c-1.72,0.39-1.95-1.23-3.01-1.55c-0.07-0.02-1.12-0.04-1.77,0.09C271.76,370.81,271.51,370.95,271.74,371.18z M326.91,386.42
			c-3.31,5.58-4.32-9.24-4.81-10.62c-1.2-3.35,0.84-5.97,0-9.25c-0.54-2.1-0.57-2.66-0.24-4.86c0.26-1.73,0.44-3.35,0.69-5.06
			c0.31-2.17,1.8-3.61,2.07-5.8c0.23-1.92-0.29-3.87-0.31-5.8c-0.02-2.05,0.86-4.08,1.2-6.11c0.35-2.12,1.27-4.13,3.46-5.01
			c1.81-0.73,2.87,1.34,4.59,1.08c0.67-0.11,1.15-1.18,1.88-1.4c0.89-0.27,2.33,0.16,3.18,0.47c1.54,0.56,2.61,1.59,3.82,2.71
			c2.17,2,2.07,4.1,3.61,6.39c0.9,1.33,2.25,1.94,2.89,3.46c0.65,1.57,0.47,3.47,0.71,5.15c0.46,3.2,1.4,5.83,1.86,9.1
			c0.43,3.08,0.86,6.93,0.35,10.02c-0.43,2.64-0.52,5.96-1.27,8.51c-0.63,2.16-2.38,2.15-3.57,3.63c-1.39,1.73,0.38,2.43,0.21,4
			c-0.2,1.86-2.54,2.47-3.86,2.91c-1.69,0.55-2.97,0.97-4.77,0.15c-1.3-0.6-2.35-1.96-3.7-2.42c-0.05-0.01-0.1-0.03-0.15-0.04
			C332.41,387.05,328.45,390.8,326.91,386.42z M286.81,382.81c-0.03-1.12,1.09-2.53-0.07-3.59c-0.58-0.53-1.94,0.49-2.62-0.19
			c-1.35-1.37,1.09-4.13,1.46-5.33c0.74-2.42-1.18-2.85-1.41-5.06c-0.23-2.17,2.1-4.4,2.8-6.38c0.97-2.74,1.63-5.53,2.77-8.23
			c0.42-1,0.58-2.47,1.2-3.37c1.74-2.51,3.9-2.71,4.88-6.05c0.4-1.35,0.07-2.46,1.24-3.53c0.96-0.87,2.31-0.75,3.21-1.89
			c0.85-1.09,1.16-2.64,1.18-4.03c1.74-0.32,1.96-1.09,3.33-1.99c1.4-0.91,2.04-0.32,3.45,0c2.03,0.47,1.54,0.08,3.17-0.84
			c0.97-0.55,7.31-1.35,6.3,1.05c1.09,0.83,1.54,1.3,1.62,2.59c0.04,0.66-0.61,1.14-0.45,1.9c0.16,0.8,1.12,0.92,1.36,1.68
			c0.74,2.37,0.28,5.18,0.61,7.63c0.14,1.02,0.45,2.27,0.25,3.33c-0.22,1.19-1.27,1.94-1.16,3.32c0.07,0.93,0.94,1.7,0.96,2.79
			c0.02,1.42-0.86,2.3-1.2,3.6c-0.46,1.73,0.15,3.56-0.32,5.33c-0.36,1.35-1.21,2.22-1.74,3.44c-1.22,2.78,1.15,6.62-0.49,8.76
			c-1.3,1.7-1.91,1.21-2.27,3.53c-0.22,1.4,0.41,1.33-0.75,2.58c-0.45,0.49-1.15,0.63-1.6,1.04c-1.34,1.23-1.14,2.34-1.91,3.96
			c-1.19,2.54-1.63,1.6-3.57,0.84c-2.31-0.91-4.64,0.46-7.13,0.2c-0.93-0.1-2.4,0.25-3.19,0.07c-1.56-0.36-2.11-2-3.56-2.54
			c-0.84-0.32-1.53,0.32-2.36,0.17c-1.34-0.25-0.86-0.37-1.86-1.21c-1.15-0.96-1.88-1.67-2.08-2.99
			C286.84,383.23,286.82,383.02,286.81,382.81z"/>
		<path class="st6" d="M350.11,321.35c-1.06,0.28-2.12,0.68-3.07,1.11c-1.93,0.88-7.06,1.49-7.74,3.96
			c-0.34,1.23,0.51,2.32,1.57,3.35c1.05,1.02,2.3,1.98,2.79,2.94c1.16,2.24,2.92,5.74,3.12,8.23c-2.16-2.32-3.27-5.51-5.84-7.46
			c-1.4-1.07-2.83-0.99-4.16-1.99c-1.56-1.17-1.56-1.46-3.51-1.59c-3.59-0.24-4.3,0.76-6.72,3.59c-2.08,2.43-3.38,5.63-4.22,8.8
			c-0.29,1.13-0.41,2.12-1,3.1c-0.73-2.13-0.06-5.51,0.16-7.73c0.25-2.62,0.37-5.33-1.5-7.24c-2-2.04-4.03-1.35-6.53-1.19
			c-1.45,0.09-2.65-0.19-4.01,0.01c-1.22,0.18-2.33,1.06-3.59,1c1.48-1.88,3.69-3.21,6.03-3.37c1.21-0.08,4.61,1.07,5.09-0.88
			c0.37-1.45-3.84-3.82-4.91-4.3c-1.16-0.52-3.05-0.99-4.75-1.7c4.6,0.55,8.88,2.47,13.25,1.71c0.42,0.43,0.86,0.88,1.36,1.36
			c2.51,2.44,7.15,0.82,10.18,0.48c3.37-0.38,6.12-1.5,9.23-2.95c0.03-0.01,0.06-0.02,0.09-0.04c0.08,0.03,0.16,0.05,0.24,0.08
			C344.87,321.53,347.56,321.42,350.11,321.35z"/>
		<path class="st7" d="M316.02,327.04c2.84-1.03,0.94-2.35-0.14-4.06c0.94,1.48,3.17,1.04,4.43,1.69c0.87,0.45,1.17,1.04,2.21,1.23
			c2.36,0.42,4.43,0.02,6.77,0c1.78-0.02,3.65,0.73,5.38,0.15c0.73-0.24,1.37-0.76,2.07-1.05c2.97-1.21,5.85-2.6,8.95-3.69
			c0.44,0.04,0.85,0.04,1.27,0.04c-3.39,1.06-8.13,3.3-8.27,6.56c-0.07,1.78,3.49,4.45,4.28,5.71c0.58,0.93,1.11,1.88,1.59,2.84
			c-3.78-4.26-9.25-9.46-14.74-6.51c-3.03,1.62-5.32,3.81-7,6.73c-0.37-3.94-1.66-7.99-5.84-8.72c-1.1-0.19-2.35-0.34-3.61-0.4
			C314.28,327.48,315.17,327.34,316.02,327.04z"/>
		<path class="st8" d="M321.19,329.42c-1.23-0.64-2.42-1.31-3.66-1.87c0.09-0.04,0.17-0.08,0.26-0.14c0.62-0.39,0.8-1.26,0.42-1.87
			c0.09-0.03,0.17-0.07,0.27-0.09c1.01-0.23,2.01-0.15,3.02,0.03c0.28,0.19,0.59,0.35,1.04,0.43c2.36,0.42,4.43,0.02,6.77,0
			c1.78-0.02,3.65,0.73,5.38,0.15c0.37-0.13,0.72-0.32,1.07-0.52c0.84-0.2,1.7-0.26,2.57-0.31c-0.93,1.2-0.93,2.99,0.15,4.48
			c0.08,0.11,0.15,0.21,0.23,0.33c-2.59-1.38-5.7-1.8-8.51-0.9c-2.39,0.77-4.15,1.76-5.61,3.05
			C324.06,330.88,322.64,330.17,321.19,329.42z"/>
		<path class="st9" d="M275.02,378.82c-2.57-2.87-4.99-5.46-6.67-8.31c2.01,0.08,1.74,2.12,2.83,3.6c1.09,1.48,2.75,1.09,3.98,2.35
			c0.16-0.42,0.61-1.13,0.64-1.64c1.15,1.13,1.56,2.7,2.57,3.74c1.01-0.74,1.1-2.15,1.36-3.34c0.39-1.83,0.75-3.09,1.65-4.74
			c1.51-2.77,2.86-5.55,4.03-8.54c-0.96,3.52-2.12,7.16-2.63,10.86c-0.27,1.96-1.76,6.82-0.2,8.28c0.95-0.59,1.26-1.79,1.2-2.91
			c0.86,3.85-0.11,8.67,4.17,10.74c2.75,1.33,5.74,3.24,8.91,4.12c1.9,0.53,2.69-0.5,4.37-0.59c2.13-0.12,4.1,1.76,6.22,1.69
			c2.75-0.1,5.58-3.47,7.37-5.33c1.13-1.17,2.28-1.85,3.01-3.32c0.75-1.51,0.81-3.51,1.61-4.83c1.32,3.55,2.34,7.75,4.71,10.89
			c2.68,3.57,8.77,3.37,12.74,4.63c3.38,1.07,5.6-0.84,8.21-3.15c2.32-2.05,5.16-3.37,6.83-5.85c0.8-1.2,2.29-2.63,2.66-3.59
			c0.49-1.25,0.4-3.91,0.4-5.27c0-3.87-0.45-7.83-0.96-11.53c0.91,2.61,1.82,5.19,2.15,8.01c0.29,2.44-0.5,5.74,0.25,7.93
			c1.32-0.32,1.47-2.28,1.4-3.53c1.78,0.84,0.85,3.99,2.97,5.04c1.63,0.8,4.09-0.32,5.82-0.8c1.64-0.45,3.38-0.03,4.98-0.09
			c-1.31,0.84-2.77,1.55-4.43,2.09c-3.54,1.14-8.08,0.41-11.67,1.72c-3.45,1.27-5.02,4.67-7.93,6.76
			c-7.08,5.09-16.1,4.65-23.49,0.79c-4.31-2.25-4.7-2.68-9.18-1.18c-3.66,1.22-7.81,2.66-11.82,2.67c-7.22,0-17.19-2.69-22.55-8.19
			C277.92,385.34,277.4,381.48,275.02,378.82z"/>
		
			<linearGradient id="SVGID_00000081649143722943422490000009299029918848506527_" gradientUnits="userSpaceOnUse" x1="517.7282" y1="330.9098" x2="528.8245" y2="361.3965" gradientTransform="matrix(-1 0 0 1 884.957 0)">
			<stop  offset="0" style="stop-color:#FEDC35"/>
			<stop  offset="0.5" style="stop-color:#FDC825"/>
			<stop  offset="1" style="stop-color:#FCB216"/>
		</linearGradient>
		<path style="opacity:0.44;fill:url(#SVGID_00000081649143722943422490000009299029918848506527_);" d="M358.11,327.63
			c2.14,0.54,3.68,1.94,5.56,4.11c2.17,2.51,4.85,4.68,6.57,7.61c1.86,3.17,3.11,6.41,4.27,9.9c1.23,3.71,1.49,12.24-1.79,15.03
			c-4.51,3.84-9.39-0.42-11.02-5.21c-0.68-1.98-0.28-3.95-1.04-5.95c-0.97-2.52-2.43-4.86-3.65-7.24c-1.29-2.52-2.5-5.28-4.34-7.43
			c-1.88-2.18-4.39-3.85-3.78-7.34c0.63-3.61,3.47-3.56,6.26-3.71C356.27,327.33,357.24,327.41,358.11,327.63z"/>
		
			<linearGradient id="SVGID_00000121270833255318489330000008130680106508785840_" gradientUnits="userSpaceOnUse" x1="537.9564" y1="347.4705" x2="556.085" y2="367.6044" gradientTransform="matrix(-1 0 0 1 884.957 0)">
			<stop  offset="0" style="stop-color:#FEDC35"/>
			<stop  offset="0.5" style="stop-color:#FDC825"/>
			<stop  offset="1" style="stop-color:#FCB216"/>
		</linearGradient>
		<path style="opacity:0.52;fill:url(#SVGID_00000121270833255318489330000008130680106508785840_);" d="M345.56,367.58
			c0.17,3.36-0.38,8.63-4.81,8.86c-4.45,0.23-7.62-6.48-7.98-10.33c-0.16-1.69,0.04-3.48-0.4-5.11c-0.42-1.55-1.34-2.98-1.91-4.53
			c-1.11-3.04-2.23-6.21-1.76-9.54c0.3-2.11,2.12-6.28,4.02-7.34c3.95-2.2,8,1.43,9.65,4.89c1.23,2.55,1.76,5.31,1.92,8.15
			c0.09,1.46-0.14,3.05,0.06,4.48c0.2,1.36,0.89,2.4,1.15,3.78C345.92,363.1,345.46,365.36,345.56,367.58z"/>
		
			<linearGradient id="SVGID_00000054249313058529320630000013316446431927824057_" gradientUnits="userSpaceOnUse" x1="565.4885" y1="342.7309" x2="594.161" y2="374.575" gradientTransform="matrix(-1 0 0 1 884.957 0)">
			<stop  offset="0" style="stop-color:#FEDC35"/>
			<stop  offset="0.5" style="stop-color:#FDC825"/>
			<stop  offset="1" style="stop-color:#FCB216"/>
		</linearGradient>
		<path style="opacity:0.33;fill:url(#SVGID_00000054249313058529320630000013316446431927824057_);" d="M310.73,366.33
			c-0.2,1.08-0.14,2.09-0.46,3.29c-1.35,5.11-6.24,12.23-11.96,10.88c-4.79-1.13-4.02-6.88-2.78-10.57c0.7-2.06,2.23-3.74,2.04-5.79
			c-0.09-1.03-1.1-1.8-0.96-3.06c0.13-1.25,1.12-2.4,1.64-3.44c3.19-6.35,1.39-16.08,8.68-19.74c2.8-1.41,7.22-1.19,8.83,1.91
			c2.31,4.44-0.54,10.3-1.17,14.71c-0.31,2.2,0.49,3.82-0.46,6.01c-0.72,1.65-2.21,2.76-2.96,4.36
			C310.96,365.39,310.83,365.87,310.73,366.33z"/>
		
			<linearGradient id="SVGID_00000093895417863274902660000012364059575373330611_" gradientUnits="userSpaceOnUse" x1="582.6837" y1="339.4369" x2="609.0601" y2="339.4369" gradientTransform="matrix(-1 0 0 1 884.957 0)">
			<stop  offset="0" style="stop-color:#FEDC35"/>
			<stop  offset="0.5" style="stop-color:#FDC825"/>
			<stop  offset="1" style="stop-color:#FCB216"/>
		</linearGradient>
		<path style="opacity:0.26;fill:url(#SVGID_00000093895417863274902660000012364059575373330611_);" d="M294.32,335.17
			c-1.51,1.55-2.12,3.64-3.31,5.36c-1.97,2.84-3.78,7.15-6.06,9.65c-1.32,1.44-2.31,1.08-4.01,1.47c-1.93,0.45-2.88,1.39-4.56,2.25
			c-2.81-6.4,7.6-15.1,11.02-19.08c1.8-2.1,3.29-5.53,5.21-7.21c1.39-1.22,9.35-4.78,9.66-0.81
			C302.46,329.31,295.84,333.61,294.32,335.17z"/>
		<path class="st14" d="M342.03,351.29c0.08,1.01,0.09,2,0.05,2.94c-0.08,1.68,0.45,11.06-0.54,11.43c-2.5,0.95-5.31-6.72-6.03-8.29
			c-2.08-4.5-11.58-13.75-5.1-17.95C337.89,334.56,341.56,345.25,342.03,351.29z"/>
		<path class="st14" d="M368.9,342.25c0.48,1.56,2.17,4.67,1.7,6.28c-0.92,3.1-4.04,0.28-5.43-1.43c-1.61-1.98-2.54-4.85-4.6-6.36
			c-1.92-1.41-4.3-1.64-6.27-3.07c-1.61-1.18-5.43-4-4.9-6.55c0.3-1.45,2.26-2.47,3.49-3.23c5.86-3.59,7.67,3.21,10.19,6.69
			C365.12,337.44,367.74,338.48,368.9,342.25z"/>
		<path class="st14" d="M314.7,353.37c-2.24,5.61-3.54,1-4.48-2.57c-0.81-3.02-4.04-6.89-3.21-10.28c0.87-3.56,4.97-4.09,7.43-1.94
			C317.8,341.49,316.15,349.74,314.7,353.37z"/>
		<g>
			<path class="st15" d="M332.67,317.28c0.93,2.11,1.97,4.14,3.4,6.03c0.81,1.07,1.74,3.76,0.4,4.7c-0.94,0.67-2.74,0.14-3.79,0.08
				c-0.81-0.04-2.02-0.2-2.8,0c-0.68,0.18-1.3,0.86-1.98,1.14c-1.89,0.78-4.65,0.59-6.5-0.2c-1.03-0.44-1.73-1.04-2.04-2.18
				c-0.49-1.85,0.96-2.73,1.27-4.41c0.25-1.33-0.14-3.09-0.23-4.44c-0.11-1.62-0.78-3.29-1.41-4.75c-1.48-3.45-4.04-6.51-7.35-8.11
				c-4.71-2.28-11.32-2.69-15.62,0.77c-2.01,1.62-2.01,3.49-5.02,3.07c-1.86-0.26-3.95-1.07-5.49-2.22c-4.02-3,3.52-8.69,5.73-10.06
				c3.89-2.41,8.59-4.11,12.96-4.32c7.43-0.36,16.48,3.15,21.28,9.32c2.52,3.24,3.62,7.27,5.22,10.93
				C331.38,314.21,332,315.76,332.67,317.28z"/>
			<path class="st16" d="M293.63,297.64c-3.09,2.42-6.11,4.94-8.55,8.03c0-0.01,0-0.02,0.01-0.03c0.47-2.49,5.81-7.25,7.9-8.46
				c3.17-1.83,6.64-2.99,10.28-3.15c6.5-0.3,15.4,1.49,20.02,6.87c4.51,5.25,5.38,13,7.5,19.48c1.03,3.15,2.78,5.56,4.7,7.95
				c-0.93,0.08-2.06-0.19-2.8-0.23c-0.81-0.04-2.02-0.2-2.8,0c-0.04,0.01-0.08,0.04-0.12,0.05c-1.61-3.01-2.33-8.02-3.07-10.64
				c-0.79-2.78-0.1-6.86-1.32-9.34c-2.42-4.87-6.87-9.95-11.96-11.77c-5.46-1.96-11.21-1.49-16.73,0.01
				c-0.9,0.24-1.76,0.55-2.53,0.99C293.97,297.43,293.8,297.5,293.63,297.64z"/>
			<path class="st16" d="M291.51,305.1c0.08-0.08,0.18-0.14,0.26-0.22c2.61-2.58,2.33-5.37,6.93-6.16c7.07-1.22,14.55-1.82,19.9,4.4
				c2.91,3.38,4.34,6.32,4.64,10.89c0.17,2.69,1.41,5.51,2.14,8.08c0.89,3.09,0.91,5.3,2,7.33c-1.85,0.57-4.3,0.36-5.99-0.37
				c-1.03-0.44-1.73-1.04-2.04-2.18c-0.49-1.85,0.96-2.73,1.27-4.41c0.25-1.33-0.14-3.09-0.23-4.44c-0.11-1.62-0.78-3.29-1.41-4.75
				c-1.48-3.45-4.04-6.51-7.35-8.11c-4.71-2.28-11.32-2.69-15.62,0.77c-2.01,1.62-2.01,3.49-5.02,3.07
				c-0.71-0.1-1.44-0.29-2.17-0.54C289.89,307.45,290.83,306.31,291.51,305.1z"/>
			<path class="st17" d="M333.05,319.79c0.64,1.14,3.18,4.36,2.43,5.83c-0.79,1.56-2.21-3.46-2.54-4.17
				c-0.54-1.19-1.4-2.15-2.04-3.29c-0.82-1.45-1.02-2.94-1.37-4.53c-0.34-1.51-0.97-2.93-1.41-4.39
				C329.69,312.82,331.16,316.44,333.05,319.79z"/>
			<path class="st17" d="M323.92,309.09c0.57,1.94,1.43,3.5,1.75,5.52c0.39,2.47,0.68,5.04,1.17,7.48c0.44,2.16,1.33,3.91,1.3,6.23
				c-0.56-1.25-1.02-2.74-1.5-4.04c-1.22-3.37-1.37-6.67-2.01-10.16c-0.34-1.87-0.8-3.9-1.67-5.64c-0.45-0.9-0.64-1.88-1.14-2.7
				c-0.46-0.75-1.09-1.34-1.55-2.06c-0.95-1.46-1.87-2.56-3.36-3.49c-6.18-3.88-15.59-4.91-22.04-1.05
				c-1.76,1.06-2.9,2.79-4.34,4.27c-1,1.03-1.81,2.69-2.78,3.54c-0.12-0.85,0.56-2.81,0.92-3.59c0.55-1.16,1.51-2.13,2.56-2.78
				c1.6-1,3.04-2.58,4.66-3.43c1.98-1.04,4-1.61,6.19-1.72c5.71-0.29,10.89,1.35,15.55,4.78c0.68,0.5,1.46,0.92,2.05,1.53
				c0.9,0.91,2.19,2.05,2.87,3.15C323.32,306.17,323.51,307.71,323.92,309.09z"/>
			<path class="st18" d="M315.86,295.9c0.97,0.37,1.9,0.93,2.81,1.45c1.78,1.03,3.29,2.48,4.53,4.17c2.47,3.34,3.93,7.43,4.9,11.49
				c0.46,1.95,0.9,3.79,1.31,5.77c0.36,1.74,1.24,3.3,1.89,5.03c0.35,0.91,2.03,2.89,2.6,4.43c-0.45-0.06-0.88-0.13-1.23-0.15
				c-0.6-0.03-1.42-0.12-2.13-0.09c-0.5-1.19-0.82-2.55-1.03-3.22c-0.52-1.68-1.4-3.74-1.64-5.52c-0.51-3.81-1.02-7.85-1.91-11.57
				c-0.71-2.96-3.01-5.1-4.94-7.23c-2.28-2.51-5.33-3.98-8.28-5.37C313.67,295.53,314.89,295.52,315.86,295.9z"/>
			<path class="st18" d="M291.84,305.93c-0.67,0.88-1.28,1.87-1.89,2.85c-0.17-0.04-0.34-0.07-0.51-0.12
				c0.16-0.25,0.33-0.51,0.5-0.79c0.55-0.91,0.7-1.81,1.19-2.71c0.87-1.57,2.68-2.69,4.18-3.46c3.58-1.85,6.7-2.82,10.74-3.03
				c5.42-0.28,10.79,2.94,13.89,7.48c0.66,0.96,1.45,2.02,1.88,3.12c0.41,1.04,0.33,2.22,0.66,3.29c0.84,2.78,1.03,5.48,1.57,8.31
				c0.33,1.73,0.78,3.49,1.25,5.15c0.31,1.09,0.76,2.38,0.97,3.64c-0.45,0.06-0.91,0.08-1.37,0.08c-0.18-0.98-0.2-2.05-0.27-2.61
				c-0.25-1.81-0.78-3.62-1.2-5.4c-0.85-3.62-1.04-7.62-2.83-11.01c-1.13-2.13-2.61-4.06-3.8-6.2c-1.11-2-1.78-2.79-3.99-3.45
				c-0.44-0.13-0.88-0.24-1.33-0.34c-1.45-0.3-2.94-0.43-4.41-0.59c-3.91-0.41-7.84-0.07-11.09,2.3
				C294.58,303.48,292.97,304.47,291.84,305.93z"/>
			<path class="st18" d="M291.55,309.05c0.28-0.43,0.58-0.83,0.81-1.21c0.77-1.21,1.86-2.29,2.96-3.17
				c1.47-1.19,3.45-1.25,5.14-1.72c3.58-0.99,8.01-1.37,11.68-0.13c1.51,0.51,3.52,1.54,4.32,2.95c0.9,1.58,1.81,3.14,2.77,4.69
				c1.17,1.9,1.23,3.47,1.64,5.61c0.38,1.99,0.82,3.94,1.19,5.89c0.36,1.85,0.62,3.99,0.7,5.89c0.03,0.6,0.06,1.15,0.05,1.63
				c-0.5-0.11-0.98-0.26-1.41-0.45c-1.03-0.44-1.73-1.04-2.04-2.18c-0.49-1.85,0.96-2.73,1.27-4.41c0.25-1.33-0.14-3.09-0.23-4.44
				c-0.11-1.62-0.78-3.29-1.41-4.75c-1.48-3.45-4.04-6.51-7.35-8.11c-4.71-2.28-11.32-2.69-15.62,0.77
				C294.14,307.44,294.01,309.17,291.55,309.05z"/>
			<path class="st19" d="M320.71,298.13c0.2,0.13,0.38,0.27,0.57,0.42c3.23,2.44,4.94,6.08,6.55,9.78c0.84,1.93,1.37,3.94,2.25,5.84
				c0.91,1.98,2.15,3.78,2.97,5.81c0.43,1.06,1.49,4.02-0.35,1.87c-1.71-2-2.56-4.98-3.82-7.28c-1.74-3.18-3.26-6.43-4.94-9.64
				c-0.86-1.65-1.43-3.36-2.86-4.63c-2.85-2.54-7.34-3.44-10.83-4.78c-4.26-1.63-9.15-1.15-13.26,0.74
				c-1.84,0.85-4.19,2.09-5.21,3.99c-0.51,0.95-1.76,4.98-3.36,4.32c0.33-1.8,0.6-3.41,1.82-4.77c1.15-1.28,2.58-2.23,3.86-3.36
				c1.22-1.07,2.98-1.55,4.47-2.15c4.52-1.83,10.1-1.38,14.53,0.34C315.7,295.62,318.39,296.53,320.71,298.13z"/>
			<path class="st20" d="M327.8,308.48c1.03,1.94,1.9,3.61,2.65,5.64c0.22,0.61,1.42,3.52,0.79,3.91c-0.6,0.37-1.15-1.12-1.35-1.48
				c-0.77-1.36-1.5-2.56-2.04-4.02c-0.49-1.35-0.58-2.91-1.51-4.02c-0.54-0.64-1.11-1.1-1.58-1.78c-0.42-0.62-0.71-1.39-1.53-1.42
				c-0.05,1.33,1.1,2.53,1.23,3.84c0.13,1.24,0.6,2.81,0.48,4.08c-1-1.12-1.26-2.75-1.61-4.13c-0.9-3.56-2.48-5.69-5.28-7.85
				c-1.8-1.39-3.58-2.24-5.6-3.28c-1.86-0.96-3.76-2.09-5.87-1.88c-2.12,0.22-4.3,1.09-6.46,0.73c0.07-1.31,6.77-1.86,8-1.69
				c-1.44-1.22-4.83-0.4-6.5-0.13c-1.59,0.26-4.87,2.33-6.29,0.9c2.12-1.68,4.66-2.02,7.27-2.17c2.93-0.18,5.89,0.26,8.74,1
				c2.27,0.59,4.37,1.31,6.6,2.27c1.8,0.77,3.3,2.18,4.81,3.43C325.46,302.64,326.22,305.49,327.8,308.48z"/>
			<path class="st21" d="M324.36,303.44c-1.99-1.6-3.53-4.03-5.93-5.02c-1.19-0.5-2.33-0.86-3.5-1.35c-0.95-0.4-2.66-0.63-3.26-1.57
				c1.9-0.06,4.08,1.15,5.83,1.79C319.77,298.12,324.43,300.19,324.36,303.44z"/>
		</g>
		<path class="st7" d="M366.42,385.64c-3.42,0.84-7.57,0.3-10.91,1.53c-1.71,0.62-2.95,1.77-4.13,3.03
			c0.83-1.17,1.98-2.08,2.61-3.38c0.79-1.63,0.8-3.77,1.03-5.6c0.57-4.55,0.52-9.34-0.68-13.77c0.79,0.95,1.22,2.21,1.46,3.39
			c0.29,1.4,0.92,2.81,1.19,4.17c0.29,1.49-0.57,2.35-0.57,3.64c-0.01,1.36,0.63,4.99,1.85,5.86c0.5,0.35,1.72,0.3,2.31,0.63
			c1.8,1.01,1.96,1,4.02,0.53C365.28,385.5,365.93,385.51,366.42,385.64z"/>
		<path class="st7" d="M314.91,393.55c-0.23,0.07-0.46,0.15-0.69,0.23c1.38-1.48,2.66-3.66,3.26-5.34c1.05-2.94,1.34-5.52,1.19-8.72
			c-0.16-3.38,0.62-6.43,0.62-9.78c1.17,3.29,0.41,7.52,0.82,11.3c0.23,2.19-1.34,9.21,1.83,10c0.23,0.75,0.09,1.75,0.32,2.54
			C319.54,392.39,318.65,392.29,314.91,393.55z"/>
		<path class="st7" d="M280.53,388.02c-2.29-2.35-2.97-5.61-4.72-8.18c0.23,0.05,0.47,0.07,0.71,0.04c2.35-0.36,2.13-4.25,3.03-6.02
			c0.94-1.87,1.88-3.7,2.84-5.57c-0.6,2.33-1.3,4.62-1.65,7.09c-0.35,2.45-0.81,5.33-0.43,7.8c0.29,1.87,0.46,1.03,1.65,1.94
			c2.09,1.6,0.77,3.29,2.26,4.95c0.64,0.71,3.18,1.66,3.92,2.97C285.23,391.76,282.55,390.09,280.53,388.02z"/>
	</g>
</g>
</svg>
