<?xml version="1.0" encoding="iso-8859-1"?>
<!-- Generator: Adobe Illustrator 23.0.2, SVG Export Plug-In . SVG Version: 6.00 Build 0)  -->
<svg version="1.1" id="Layer_1" xmlns="http://www.w3.org/2000/svg" xmlns:xlink="http://www.w3.org/1999/xlink" x="0px" y="0px"
	 viewBox="0 0 595.276 841.89" style="enable-background:new 0 0 595.276 841.89;" xml:space="preserve">
<g>
	<path style="fill:#5956A5;" d="M234.207,316.751c-3.804,0.806-6.931,1.176-9.382,1.176c-7.565,0-13.989-1.781-19.187-5.342
		c-5.24-3.561-7.819-8.365-7.819-14.379c0-11.557,6.466-20.997,19.356-28.287c12.89-7.29,27.259-10.919,43.107-10.919
		c15.848,0,28.823,3.192,38.966,9.608c10.143,6.417,15.214,15.723,15.214,27.918c0,14.245-7.607,25.835-22.737,34.704
		c10.016,2.688,17.792,7.055,23.16,13.069c5.41,6.014,8.114,13.069,8.114,21.165c0,15.991-7.861,28.959-23.625,38.836
		c-15.722,9.911-34.232,14.849-55.448,14.849c-14.581,0-27.217-2.452-37.825-7.357c-10.608-4.905-15.933-12.262-15.933-22.106
		c0-6.35,2.578-11.422,7.692-15.219c5.114-3.796,11.58-5.711,19.356-5.711c4.184,0,7.861,0.403,11.073,1.176
		c-1.352,3.158-1.986,6.182-1.986,9.037c0,5.711,2.578,10.112,7.692,13.203c5.114,3.091,12.087,4.636,20.92,4.636
		c8.833,0,16.06-2.352,21.765-7.021c5.705-4.67,8.537-10.818,8.537-18.41s-2.451-13.472-7.396-17.57
		c-4.945-4.132-11.453-6.182-19.61-6.182c-4.353,0-8.114-0.974-11.242-2.956c-3.127-1.982-4.691-4.435-4.691-7.357
		s0.465-5.577,1.437-7.962c3.423,0.47,6.846,0.706,10.228,0.706c8.706,0,15.172-2.52,19.356-7.593
		c4.184-5.073,6.255-11.087,6.255-18.041c0-6.988-2.071-12.565-6.255-16.764c-4.184-4.199-9.847-6.282-17.074-6.282
		c-7.185,0-13.27,1.579-18.215,4.737c-3.592,5.375-5.41,10.919-5.41,16.63C232.601,308.453,233.066,313.122,234.207,316.751z"/>
</g>
</svg>
