<?xml version="1.0" encoding="iso-8859-1"?>
<!-- Generator: Adobe Illustrator 23.0.2, SVG Export Plug-In . SVG Version: 6.00 Build 0)  -->
<svg version="1.1" id="Layer_1" xmlns="http://www.w3.org/2000/svg" xmlns:xlink="http://www.w3.org/1999/xlink" x="0px" y="0px"
	 viewBox="0 0 595.276 841.89" style="enable-background:new 0 0 595.276 841.89;" xml:space="preserve">
<g>
	<path style="fill:#5956A5;" d="M111.741,413.237v-4.321c3.936-0.738,4.349-2.004,4.349-11.811v-24.991
		c0-12.759-2.198-18.77-6.546-18.665c-2.335,0-4.99,2.638-6.821,7.7v35.955c0,9.806,0.412,10.86,4.441,11.811v4.321H92.056v-4.321
		c4.349-0.951,4.807-1.794,4.807-12.126v-76.976c-3.8-0.843-7.371-1.053-13.733-1.053h-4.441v74.656
		c0,13.182,0.595,14.446,6.776,15.397v4.429H65.78v-4.429c5.951-0.951,6.546-2.215,6.546-15.397V318.76h-3.982
		c-6.409,0-7.599,1.368-8.698,5.059c-0.777,2.743-1.465,6.434-2.335,13.816h-1.969c0.32-9.596,0.641-20.036,0.779-28.576h1.282
		c1.053,3.586,1.923,3.901,3.936,3.901H90.27c5.447,0,6.592-0.948,6.592-4.006v-2.002c1.465-0.423,3.936-2.11,5.859-3.694v52.093
		c2.61-6.116,6.089-11.07,9.568-11.178c5.768-0.318,9.705,7.592,9.705,26.677v26.152c0,10.23,0.503,11.181,4.532,11.916v4.321
		h-14.785L111.741,413.237L111.741,413.237z"/>
	<path style="fill:#5956A5;" d="M129.947,413.237v-4.111c4.258-0.948,4.761-1.899,4.761-12.654V365.47
		c0-9.701-0.229-10.44-4.258-12.021v-3.691c3.662-1.368,7.095-3.163,10.163-5.906v52.619c0,10.65,0.458,11.493,4.807,12.654v4.111
		H129.947z M133.518,322.76c0-4.954,1.739-8.645,3.754-8.645c2.014,0,3.571,3.691,3.571,8.645c0,4.432-1.556,8.333-3.662,8.333
		C135.257,331.094,133.518,327.193,133.518,322.76z"/>
	<path style="fill:#5956A5;" d="M159.426,360.828c2.244-8.435,5.036-16.658,8.195-16.658c2.472,0,4.12,4.111,4.12,7.907
		c0,3.586-0.915,6.749-2.38,8.33c-0.823,0.741-1.42,0.42-1.831-0.42c-1.053-2.212-1.831-3.163-2.976-3.163
		c-1.739,0-3.8,4.537-5.264,12.759v27.52c0,10.122,0.32,11.073,5.63,12.021v4.111h-16.25v-4.111
		c4.12-0.948,4.715-1.899,4.715-12.021v-31.949c0-9.806-0.366-10.44-4.166-11.706v-3.481c3.387-1.263,6.592-3.058,10.071-6.329
		v17.189H159.426z"/>
	<path style="fill:#5956A5;" d="M188.215,412.919c-1.236,1.581-2.289,2.109-2.884,2.109c-4.533,0-7.05-5.906-7.05-18.35V352.39
		h-4.623l-0.32-1.794l1.877-4.639h3.067v-11.178l4.989-10.755l0.915,0.42v21.51h7.599c0.687,1.689,0.458,5.062-0.458,6.434h-7.141
		v38.908c0,12.444,2.335,14.554,4.028,14.554c1.602,0,3.113-1.479,4.12-2.638l0.595,4.216L188.215,412.919z"/>
	<path style="fill:#5956A5;" d="M220.668,399.529c-4.395,12.759-9.293,15.502-11.49,15.502c-8.377,0-13.322-15.502-13.322-32.69
		c0-10.23,1.602-19.508,4.349-26.362c2.93-7.382,6.638-11.808,10.254-11.808h0.046c5.814,0,10.438,11.493,10.438,23.724
		c0,2.95-0.367,4.321-1.602,4.954c-1.236,0.42-9.751,2.004-17.624,2.638c0.138,19.931,5.218,28.363,9.933,28.363
		c2.792,0,5.402-2.425,7.873-7.697L220.668,399.529z M208.857,349.966c-2.93,0-5.859,6.011-6.821,18.875
		c3.617,0,7.233,0,11.033-0.315c1.19-0.105,1.602-0.951,1.602-2.953c0-8.12-2.197-15.607-5.768-15.607H208.857z"/>
	<path style="fill:#5956A5;" d="M249.869,399.529c-4.395,12.759-9.294,15.502-11.49,15.502c-8.377,0-13.322-15.502-13.322-32.69
		c0-10.23,1.602-19.508,4.349-26.362c2.93-7.382,6.638-11.808,10.253-11.808h0.046c5.814,0,10.438,11.493,10.438,23.724
		c0,2.95-0.367,4.321-1.603,4.954c-1.236,0.42-9.751,2.004-17.624,2.638c0.138,19.931,5.22,28.363,9.933,28.363
		c2.792,0,5.402-2.425,7.874-7.697L249.869,399.529z M238.058,349.966c-2.93,0-5.859,6.011-6.821,18.875
		c3.617,0,7.232,0,11.033-0.315c1.189-0.105,1.602-0.951,1.602-2.953c0-8.12-2.198-15.607-5.768-15.607H238.058z"/>
	<path style="fill:#5956A5;" d="M273.44,413.237v-4.111c3.891-0.948,4.348-2.215,4.348-13.074v-25.098
		c0-10.755-1.877-17.189-6.043-17.189c-2.563,0-5.081,3.691-7.14,7.595v35.64c0,10.545,0.366,11.181,4.302,12.126v4.111h-15.106
		v-4.111c4.532-1.266,4.898-2.004,4.898-12.339v-31.001c0-10.017-0.459-10.65-4.028-12.126v-3.901
		c3.25-1.158,6.776-3.163,9.933-6.116v12.444c1.373-2.32,2.838-4.744,4.577-7.382c1.923-2.848,3.617-4.534,5.63-4.534
		c5.402,0,8.835,8.75,8.835,24.042v28.786c0,10.545,0.413,10.965,4.349,12.126v4.111L273.44,413.237L273.44,413.237z"/>
</g>
</svg>
