<?xml version="1.0" encoding="iso-8859-1"?>
<!-- Generator: Adobe Illustrator 23.0.2, SVG Export Plug-In . SVG Version: 6.00 Build 0)  -->
<svg version="1.1" id="Layer_1" xmlns="http://www.w3.org/2000/svg" xmlns:xlink="http://www.w3.org/1999/xlink" x="0px" y="0px"
	 viewBox="0 0 595.276 841.89" style="enable-background:new 0 0 595.276 841.89;" xml:space="preserve">
<g>
	<path style="fill:#5956A5;" d="M274.456,340.144c-1.651,0.718-3.013,1.072-4.077,1.072c-3.294,0-6.078-1.61-8.341-4.826
		c-2.268-3.223-3.398-7.546-3.398-12.986c0-10.434,2.8-18.948,8.402-25.533c5.599-6.578,11.839-9.871,18.72-9.871
		c6.877,0,12.51,2.897,16.923,8.691c4.408,5.794,6.613,14.197,6.613,25.21c0,12.872-3.305,23.319-9.884,31.33
		c4.357,2.432,7.72,6.367,10.062,11.8c2.349,5.44,3.525,11.8,3.525,19.1c0,14.447-3.421,26.14-10.259,35.078
		c-6.833,8.941-14.862,13.413-24.09,13.413c-6.34,0-11.813-2.22-16.428-6.651c-4.612-4.434-6.919-11.085-6.919-19.957
		c0-5.721,1.114-10.301,3.336-13.729c2.221-3.435,5.02-5.152,8.402-5.152c1.812,0,3.414,0.357,4.816,1.075
		c-0.579,2.862-0.868,5.579-0.868,8.153c0,5.146,1.114,9.118,3.336,11.908c2.23,2.786,5.253,4.181,9.082,4.181
		c3.833,0,6.981-2.109,9.448-6.329c2.479-4.216,3.713-9.76,3.713-16.63c0-6.866-1.072-12.157-3.217-15.877
		c-2.14-3.716-4.982-5.579-8.522-5.579c-1.897,0-3.525-0.895-4.878-2.682c-1.362-1.79-2.043-4.001-2.043-6.651
		c0-2.644,0.204-5.045,0.621-7.189c1.485,0.433,2.965,0.645,4.447,0.645c3.787,0,6.586-2.287,8.399-6.869
		c1.816-4.573,2.719-10.01,2.719-16.307s-0.903-11.335-2.719-15.127c-1.812-3.792-4.281-5.687-7.412-5.687
		c-3.123,0-5.765,1.43-7.91,4.292c-1.557,4.864-2.34,9.864-2.34,15.016C273.715,332.632,273.963,336.854,274.456,340.144z"/>
</g>
<g>
	<path style="fill:#5956A5;" d="M202.328,318.128c4.623-2.979,9.691-8.41,15.198-16.275c2.668-3.868,5.152-7.167,7.445-9.899
		c2.293-2.733,5.013-3.976,8.16-3.723c3.145,0.253,5.781,1.486,7.912,3.694c-3.284,27.436-5.522,53.206-6.718,77.306
		c-1.198,24.109-1.513,44.926-0.945,62.467c-2.316,1.562-4.946,2.227-7.894,1.989c-2.946-0.234-5.249-2.166-6.907-5.797
		c-1.659-3.634-2.34-8.388-2.048-14.27c0.292-5.883,1.543-18.208,3.755-36.985c2.208-18.767,3.905-39.189,5.08-61.255
		c-0.95,1.385-2.566,4.165-4.851,8.359c-5.103,9.358-8.95,13.935-11.535,13.729c-2.588-0.206-4.413-2.1-5.474-5.687
		C202.448,328.201,202.055,323.653,202.328,318.128z"/>
</g>
</svg>
