<?xml version="1.0" encoding="iso-8859-1"?>
<!-- Generator: Adobe Illustrator 23.0.2, SVG Export Plug-In . SVG Version: 6.00 Build 0)  -->
<svg version="1.1" id="Layer_1" xmlns="http://www.w3.org/2000/svg" xmlns:xlink="http://www.w3.org/1999/xlink" x="0px" y="0px"
	 viewBox="0 0 595.276 841.89" style="enable-background:new 0 0 595.276 841.89;" xml:space="preserve">
<g>
	<g>
		<g>
			<path style="fill:#D8DC41;" d="M205.784,236.082c-1.593-2.775-12.859-11.424-15.856-12.987
				c-14.414-7.516-38.747-6.69-46.593-3.235c-16.824,7.407-20.413,18.809-22.271,21.695c-1.81,2.813-4.832,3.551-7.417,5.681
				c-7.656,6.297,5.997,10.243,9.839,13.581c2.63,2.288,5.626,11.115,23.839,19.433c8.639,3.946,32.154,3.037,41.566-0.433
				c6.921-2.55,15.43-11.672,17.375-14.401c1.937-2.709,5.108-3.704,7.674-5.844c2.705-2.251,3.076-5.946,2.167-9.144
				C216.553,244.801,210.419,244.152,205.784,236.082z"/>
			<path style="fill:#D3D331;" d="M216.109,250.428c0.445-5.628-5.69-6.276-10.324-14.346c-0.692-1.203-3.204-3.507-6.069-5.862
				c-4.785,14.133-22.926,25.256-38.71,27.862c-10.539,1.74-23.446,1.007-29.995-7.597c-4.342-5.706-5.04-12.72-3.393-19.322
				c-3.973,4.652-5.533,8.805-6.552,10.392c-1.81,2.813-4.832,3.551-7.417,5.681c-7.656,6.297,5.997,10.243,9.839,13.581
				c2.63,2.288,5.626,11.115,23.839,19.433c8.639,3.946,32.154,3.037,41.566-0.433c6.921-2.55,15.43-11.672,17.375-14.401
				c1.937-2.709,5.108-3.704,7.674-5.844C216.646,257.321,217.017,253.626,216.109,250.428z"/>
			<path style="opacity:0.43;fill:#C3BE30;enable-background:new    ;" d="M121.065,241.555c-1.81,2.813-4.832,3.551-7.417,5.681
				c-7.656,6.297,5.997,10.243,9.839,13.581c2.63,2.288,5.626,11.115,23.839,19.433c8.639,3.946,32.154,3.037,41.566-0.433
				c6.921-2.55,15.43-11.672,17.375-14.401c1.937-2.709,5.108-3.704,7.674-5.844c2.705-2.251,3.076-5.946,2.167-9.144
				c0.445-5.628-5.69-6.276-10.324-14.346c-1.593-2.775-12.859-11.424-15.856-12.987c-1.081-0.561-2.218-1.072-3.393-1.542
				c1.717,1.741,3.105,3.824,4.053,6.335c3.818,10.129,0.441,20.336-7.724,27.949c-6.931,6.465-16.548,11.544-26.576,13.184
				c-9.441,1.543-20.241,0.296-26.607-6.677c-4.248-4.649-6.974-10.683-6.846-16.693c0.097-4.486,1.502-8.674,3.372-12.745
				C123.25,236.826,121.957,240.171,121.065,241.555z"/>
			<path style="opacity:0.69;fill:#B8B533;enable-background:new    ;" d="M121.065,241.555c-0.433,0.677-0.94,1.232-1.495,1.717
				c0.037,0.174,0.064,0.354,0.07,0.546c0.168,4.131-1.93,9.174-7.521,9.241h-0.006c2.243,3.162,8.878,5.591,11.374,7.758
				c2.63,2.288,5.626,11.115,23.839,19.433c8.639,3.946,32.154,3.037,41.566-0.433c6.921-2.55,15.43-11.672,17.375-14.401
				c1.937-2.709,5.108-3.704,7.674-5.844c2.705-2.251,3.076-5.946,2.167-9.144c0.385-4.908-4.228-6.031-8.491-11.588
				c0.218,2.563,0.128,5.135-0.267,7.637c-1.79,11.306-10.777,18.572-22.358,22.87c-9.172,3.405-19.357,5.773-29.266,4.7
				c-32.212-3.484-36.976-19.924-33.852-33.971C121.562,240.687,121.303,241.191,121.065,241.555z"/>
			<path style="opacity:0.56;fill:#B99E30;enable-background:new    ;" d="M175.353,275.068c-12.461,2.976-26.041,3.05-37.401-2.919
				c-9.145-4.804-16.72-12.467-17.532-21.912c-0.497,1.221-0.451,3.572-1.417,4.542c-1.112,1.118-3.219,0.415-4.64,0.428
				c2.933,2.16,7.227,3.96,9.125,5.61c2.177,1.894,4.613,8.265,15.703,15.119c5.353,2.223,11.834,4.247,17.66,4.66
				c9.292,0.658,18.417,1.222,27.071-1.923c14.876-5.406,21.662-15.051,24.368-17.184c2.962-2.329,6.45-4.398,7.194-8.088
				c0.611-3.048-0.752-6.163-2.262-8.889c-0.682-0.635-1.434-1.289-2.239-2.034c0.021,0.156,0.048,0.31,0.07,0.467
				c0.684,5.69-0.572,10.89-4.515,15.518C199.275,266.995,186.874,272.317,175.353,275.068z"/>
			
				<linearGradient id="SVGID_1_" gradientUnits="userSpaceOnUse" x1="164.37" y1="591.1436" x2="167.0157" y2="621.3841" gradientTransform="matrix(1 0 0 -1 0 842.11)">
				<stop  offset="0.0364" style="stop-color:#EEEA4C"/>
				<stop  offset="0.8545" style="stop-color:#FCF5A7"/>
			</linearGradient>
			<path style="opacity:0.44;fill:url(#SVGID_1_);enable-background:new    ;" d="M177.155,237.51
				c4.507,0.985,9.644,2.299,13.54,4.551c3.447,1.988,6.308,4.875,9.273,7.047c4.139-1.258,5.379-5.011,3.697-8.09
				c-7.328-13.424-21.936-20.215-38.287-20.215c-8.959,0-14.45,0.72-22.522,3.699c-6.218,2.295-16.649,8.404-17.59,23.043
				c6.771-8.705,15.372-11.73,23.384-12.067C158.086,235.08,168.137,235.54,177.155,237.51z"/>
			<path style="opacity:0.52;fill:#FAF9D5;enable-background:new    ;" d="M136.548,234.174c2.771-1.406,5.816-2.494,8.778-3.294
				c6.181-1.671,12.667-2.844,19.55-2.844c4.232,0,8.246,0.412,12.279,0.926c2.797,0.357,9.205,3.058,11.796,2.155
				c4.044-1.41-4.402-4.724-5.974-5.326c-3.393-1.303-7.53-1.895-11.351-2.348c-7.898-0.932-16.266-0.134-23.804,1.969
				c-6.036,1.683-16.745,6.029-17.791,12.488l0.251,0.219C130.508,237.458,134.978,234.972,136.548,234.174z"/>
		</g>
	</g>
	<g>
		<g>
			<path style="fill:#D8DC41;" d="M323.057,261.32c-1.593-2.775-12.859-11.424-15.856-12.987
				c-14.414-7.516-38.747-6.69-46.593-3.235c-16.824,7.407-20.413,18.809-22.271,21.695c-1.81,2.813-4.832,3.551-7.417,5.681
				c-7.656,6.297,5.997,10.243,9.839,13.581c2.629,2.288,5.626,11.115,23.838,19.433c8.639,3.945,32.155,3.037,41.566-0.433
				c6.921-2.55,15.43-11.672,17.375-14.401c1.937-2.709,5.108-3.704,7.674-5.844c2.705-2.251,3.076-5.946,2.167-9.144
				C333.826,270.039,327.691,269.39,323.057,261.32z"/>
			<path style="fill:#D3D331;" d="M333.381,275.666c0.445-5.628-5.69-6.276-10.324-14.346c-0.692-1.203-3.204-3.507-6.069-5.862
				c-4.785,14.133-22.926,25.256-38.71,27.862c-10.539,1.74-23.446,1.007-29.995-7.597c-4.342-5.706-5.04-12.72-3.393-19.322
				c-3.973,4.652-5.534,8.805-6.552,10.392c-1.81,2.813-4.832,3.551-7.417,5.681c-7.656,6.297,5.997,10.243,9.839,13.581
				c2.629,2.288,5.626,11.115,23.838,19.433c8.639,3.945,32.155,3.037,41.566-0.433c6.921-2.55,15.43-11.672,17.375-14.401
				c1.937-2.709,5.108-3.704,7.674-5.844C333.919,282.559,334.29,278.864,333.381,275.666z"/>
			<path style="opacity:0.43;fill:#C3BE30;enable-background:new    ;" d="M238.338,266.793c-1.81,2.813-4.832,3.551-7.417,5.681
				c-7.656,6.297,5.997,10.243,9.839,13.581c2.629,2.288,5.626,11.115,23.838,19.433c8.639,3.945,32.155,3.037,41.566-0.433
				c6.921-2.55,15.43-11.672,17.375-14.401c1.937-2.709,5.108-3.704,7.674-5.844c2.705-2.251,3.076-5.946,2.167-9.144
				c0.445-5.628-5.69-6.276-10.324-14.346c-1.593-2.775-12.859-11.424-15.856-12.987c-1.081-0.561-2.218-1.072-3.393-1.542
				c1.717,1.741,3.105,3.824,4.053,6.335c3.818,10.129,0.441,20.336-7.724,27.949c-6.931,6.465-16.548,11.544-26.576,13.184
				c-9.441,1.543-20.241,0.296-26.607-6.677c-4.248-4.649-6.974-10.683-6.846-16.693c0.097-4.486,1.502-8.674,3.372-12.745
				C240.523,262.064,239.229,265.409,238.338,266.793z"/>
			<path style="opacity:0.69;fill:#B8B533;enable-background:new    ;" d="M238.338,266.793c-0.433,0.677-0.939,1.232-1.495,1.717
				c0.037,0.174,0.064,0.354,0.07,0.546c0.168,4.131-1.93,9.174-7.521,9.241h-0.006c2.243,3.162,8.878,5.591,11.374,7.758
				c2.629,2.288,5.626,11.115,23.838,19.433c8.639,3.945,32.155,3.037,41.566-0.433c6.921-2.55,15.43-11.672,17.375-14.401
				c1.937-2.709,5.108-3.704,7.674-5.844c2.705-2.251,3.076-5.946,2.167-9.144c0.385-4.908-4.228-6.031-8.492-11.588
				c0.218,2.563,0.128,5.135-0.267,7.637c-1.79,11.306-10.777,18.572-22.358,22.87c-9.172,3.405-19.357,5.773-29.266,4.7
				c-32.212-3.484-36.976-19.924-33.851-33.971C238.835,265.925,238.576,266.429,238.338,266.793z"/>
			<path style="opacity:0.56;fill:#B99E30;enable-background:new    ;" d="M292.626,300.307c-12.461,2.976-26.041,3.05-37.402-2.919
				c-9.145-4.805-16.72-12.467-17.532-21.912c-0.497,1.221-0.451,3.572-1.417,4.542c-1.111,1.118-3.219,0.415-4.64,0.428
				c2.933,2.16,7.227,3.96,9.126,5.61c2.177,1.894,4.613,8.265,15.703,15.119c5.353,2.223,11.834,4.247,17.66,4.66
				c9.292,0.658,18.417,1.222,27.071-1.923c14.876-5.406,21.662-15.051,24.368-17.184c2.962-2.329,6.45-4.398,7.194-8.088
				c0.611-3.048-0.752-6.163-2.262-8.889c-0.683-0.635-1.435-1.289-2.239-2.034c0.021,0.156,0.048,0.31,0.069,0.467
				c0.684,5.69-0.572,10.89-4.515,15.518C316.547,292.233,304.146,297.555,292.626,300.307z"/>
			
				<linearGradient id="SVGID_2_" gradientUnits="userSpaceOnUse" x1="281.642" y1="565.9055" x2="284.2878" y2="596.1461" gradientTransform="matrix(1 0 0 -1 0 842.11)">
				<stop  offset="0.0364" style="stop-color:#EEEA4C"/>
				<stop  offset="0.8545" style="stop-color:#FCF5A7"/>
			</linearGradient>
			<path style="opacity:0.44;fill:url(#SVGID_2_);enable-background:new    ;" d="M294.427,262.748
				c4.507,0.985,9.644,2.299,13.54,4.551c3.447,1.988,6.309,4.875,9.273,7.047c4.139-1.258,5.379-5.011,3.697-8.09
				c-7.328-13.424-21.936-20.215-38.287-20.215c-8.959,0-14.45,0.72-22.522,3.699c-6.218,2.295-16.648,8.404-17.59,23.043
				c6.771-8.705,15.372-11.73,23.384-12.067C275.358,260.318,285.41,260.778,294.427,262.748z"/>
			<path style="opacity:0.52;fill:#FAF9D5;enable-background:new    ;" d="M253.821,259.412c2.77-1.406,5.815-2.494,8.777-3.294
				c6.181-1.671,12.668-2.844,19.551-2.844c4.232,0,8.246,0.412,12.279,0.926c2.798,0.357,9.205,3.058,11.796,2.155
				c4.045-1.41-4.402-4.724-5.974-5.326c-3.393-1.303-7.53-1.895-11.351-2.348c-7.898-0.932-16.266-0.134-23.804,1.969
				c-6.036,1.683-16.745,6.029-17.791,12.488l0.252,0.219C247.781,262.696,252.25,260.21,253.821,259.412z"/>
		</g>
	</g>
	<g>
		<g>
			<path style="fill:#D8DC41;" d="M378.851,336.777c-1.593-2.775-12.859-11.424-15.856-12.987
				c-14.414-7.516-38.747-6.69-46.593-3.235c-16.824,7.407-20.413,18.809-22.27,21.695c-1.81,2.814-4.832,3.551-7.417,5.681
				c-7.656,6.297,5.997,10.243,9.839,13.582c2.629,2.287,5.626,11.115,23.838,19.433c8.639,3.945,32.154,3.037,41.566-0.433
				c6.921-2.55,15.43-11.673,17.375-14.402c1.937-2.709,5.108-3.704,7.674-5.844c2.705-2.251,3.076-5.946,2.167-9.144
				C389.619,345.496,383.485,344.848,378.851,336.777z"/>
			<path style="fill:#D3D331;" d="M389.175,351.124c0.445-5.628-5.69-6.276-10.324-14.347c-0.692-1.203-3.204-3.507-6.069-5.862
				c-4.785,14.134-22.926,25.256-38.71,27.862c-10.539,1.74-23.446,1.007-29.995-7.597c-4.342-5.706-5.04-12.72-3.393-19.322
				c-3.973,4.651-5.534,8.805-6.552,10.392c-1.81,2.814-4.832,3.551-7.417,5.681c-7.656,6.297,5.997,10.243,9.839,13.582
				c2.629,2.287,5.626,11.115,23.838,19.433c8.639,3.945,32.154,3.037,41.566-0.433c6.921-2.55,15.43-11.673,17.375-14.402
				c1.937-2.709,5.108-3.704,7.674-5.844C389.712,358.016,390.083,354.322,389.175,351.124z"/>
			<path style="opacity:0.43;fill:#C3BE30;enable-background:new    ;" d="M294.131,342.251c-1.81,2.814-4.832,3.551-7.417,5.681
				c-7.656,6.297,5.997,10.243,9.839,13.582c2.629,2.287,5.626,11.115,23.838,19.433c8.639,3.945,32.154,3.037,41.566-0.433
				c6.921-2.55,15.43-11.673,17.375-14.402c1.937-2.709,5.108-3.704,7.674-5.844c2.705-2.251,3.076-5.946,2.167-9.144
				c0.445-5.628-5.69-6.276-10.324-14.347c-1.593-2.775-12.859-11.424-15.856-12.987c-1.081-0.561-2.218-1.072-3.393-1.542
				c1.717,1.741,3.105,3.824,4.053,6.335c3.818,10.129,0.441,20.336-7.724,27.949c-6.931,6.465-16.548,11.544-26.576,13.184
				c-9.441,1.544-20.241,0.296-26.607-6.677c-4.248-4.649-6.974-10.682-6.846-16.692c0.097-4.487,1.502-8.674,3.372-12.745
				C296.316,337.521,295.023,340.867,294.131,342.251z"/>
			<path style="opacity:0.69;fill:#B8B533;enable-background:new    ;" d="M294.131,342.251c-0.433,0.677-0.94,1.232-1.495,1.717
				c0.037,0.174,0.064,0.354,0.07,0.546c0.168,4.132-1.93,9.174-7.521,9.241h-0.006c2.243,3.162,8.878,5.591,11.374,7.758
				c2.629,2.287,5.626,11.115,23.838,19.433c8.639,3.945,32.154,3.037,41.566-0.433c6.921-2.55,15.43-11.673,17.375-14.402
				c1.937-2.709,5.108-3.704,7.674-5.844c2.705-2.251,3.076-5.946,2.167-9.144c0.385-4.909-4.228-6.031-8.492-11.588
				c0.218,2.563,0.128,5.135-0.267,7.637c-1.79,11.306-10.777,18.572-22.358,22.87c-9.172,3.405-19.357,5.773-29.266,4.701
				c-32.212-3.484-36.976-19.925-33.852-33.971C294.628,341.382,294.369,341.886,294.131,342.251z"/>
			<path style="opacity:0.56;fill:#B99E30;enable-background:new    ;" d="M348.419,375.764c-12.461,2.976-26.041,3.05-37.402-2.919
				c-9.145-4.804-16.72-12.467-17.532-21.912c-0.497,1.221-0.451,3.572-1.417,4.542c-1.112,1.118-3.219,0.415-4.64,0.428
				c2.933,2.16,7.227,3.96,9.126,5.61c2.177,1.893,4.613,8.264,15.703,15.119c5.353,2.223,11.834,4.247,17.66,4.66
				c9.292,0.658,18.417,1.222,27.071-1.923c14.876-5.406,21.662-15.051,24.368-17.184c2.962-2.329,6.45-4.399,7.194-8.089
				c0.611-3.048-0.752-6.163-2.262-8.889c-0.683-0.635-1.435-1.289-2.239-2.034c0.021,0.156,0.048,0.31,0.069,0.467
				c0.684,5.69-0.572,10.89-4.515,15.518C372.341,367.69,359.94,373.012,348.419,375.764z"/>
			
				<linearGradient id="SVGID_3_" gradientUnits="userSpaceOnUse" x1="337.436" y1="490.4477" x2="340.0817" y2="520.6891" gradientTransform="matrix(1 0 0 -1 0 842.11)">
				<stop  offset="0.0364" style="stop-color:#EEEA4C"/>
				<stop  offset="0.8545" style="stop-color:#FCF5A7"/>
			</linearGradient>
			<path style="opacity:0.44;fill:url(#SVGID_3_);enable-background:new    ;" d="M350.221,338.205
				c4.507,0.985,9.644,2.299,13.54,4.551c3.447,1.988,6.309,4.875,9.273,7.047c4.139-1.258,5.379-5.011,3.697-8.09
				c-7.328-13.424-21.936-20.215-38.287-20.215c-8.959,0-14.45,0.72-22.522,3.7c-6.218,2.295-16.649,8.403-17.59,23.043
				c6.771-8.705,15.372-11.73,23.384-12.067C331.152,335.776,341.204,336.236,350.221,338.205z"/>
			<path style="opacity:0.52;fill:#FAF9D5;enable-background:new    ;" d="M309.614,334.869c2.771-1.406,5.816-2.494,8.778-3.294
				c6.181-1.671,12.667-2.844,19.551-2.844c4.232,0,8.246,0.412,12.279,0.926c2.797,0.357,9.205,3.058,11.796,2.155
				c4.045-1.41-4.402-4.724-5.974-5.326c-3.393-1.303-7.53-1.895-11.351-2.348c-7.898-0.932-16.266-0.134-23.804,1.969
				c-6.036,1.683-16.745,6.03-17.791,12.488l0.251,0.219C303.574,338.154,308.044,335.668,309.614,334.869z"/>
		</g>
	</g>
	<g>
		<g>
			<path style="fill:#D8DC41;" d="M226.342,316.263c-1.593-2.775-12.859-11.424-15.856-12.987
				c-14.414-7.516-38.747-6.69-46.593-3.234c-16.824,7.407-20.413,18.809-22.271,21.695c-1.81,2.814-4.832,3.551-7.417,5.681
				c-7.656,6.297,5.997,10.243,9.839,13.582c2.63,2.287,5.626,11.115,23.839,19.433c8.639,3.945,32.154,3.037,41.566-0.433
				c6.922-2.55,15.43-11.673,17.375-14.401c1.937-2.709,5.108-3.704,7.674-5.844c2.705-2.251,3.076-5.946,2.167-9.144
				C237.112,324.982,230.977,324.334,226.342,316.263z"/>
			<path style="fill:#D3D331;" d="M236.667,330.61c0.445-5.628-5.69-6.276-10.324-14.347c-0.692-1.203-3.204-3.507-6.069-5.862
				c-4.785,14.134-22.926,25.256-38.711,27.862c-10.539,1.74-23.446,1.007-29.995-7.597c-4.342-5.706-5.04-12.72-3.393-19.322
				c-3.973,4.651-5.533,8.805-6.552,10.392c-1.81,2.814-4.832,3.551-7.417,5.681c-7.656,6.297,5.997,10.243,9.839,13.582
				c2.63,2.287,5.626,11.115,23.839,19.433c8.639,3.945,32.154,3.037,41.566-0.433c6.922-2.55,15.43-11.673,17.375-14.401
				c1.937-2.709,5.108-3.704,7.674-5.844C237.204,337.502,237.576,333.808,236.667,330.61z"/>
			<path style="opacity:0.43;fill:#C3BE30;enable-background:new    ;" d="M141.624,321.736c-1.81,2.814-4.832,3.551-7.417,5.681
				c-7.656,6.297,5.997,10.243,9.839,13.582c2.63,2.287,5.626,11.115,23.839,19.433c8.639,3.945,32.154,3.037,41.566-0.433
				c6.922-2.55,15.43-11.673,17.375-14.401c1.937-2.709,5.108-3.704,7.674-5.844c2.705-2.251,3.076-5.946,2.167-9.144
				c0.445-5.628-5.69-6.276-10.324-14.347c-1.593-2.775-12.859-11.424-15.856-12.987c-1.081-0.561-2.218-1.072-3.393-1.542
				c1.717,1.741,3.105,3.824,4.052,6.335c3.818,10.129,0.441,20.336-7.724,27.949c-6.931,6.465-16.548,11.544-26.576,13.184
				c-9.441,1.544-20.241,0.296-26.607-6.677c-4.248-4.649-6.974-10.682-6.846-16.692c0.097-4.487,1.502-8.674,3.372-12.745
				C143.808,317.007,142.515,320.353,141.624,321.736z"/>
			<path style="opacity:0.69;fill:#B8B533;enable-background:new    ;" d="M141.624,321.736c-0.433,0.677-0.94,1.232-1.495,1.717
				c0.037,0.174,0.064,0.354,0.07,0.546c0.168,4.132-1.93,9.174-7.521,9.241h-0.006c2.243,3.162,8.878,5.591,11.374,7.758
				c2.63,2.287,5.626,11.115,23.839,19.433c8.639,3.945,32.154,3.037,41.566-0.433c6.922-2.55,15.43-11.673,17.375-14.401
				c1.937-2.709,5.108-3.704,7.674-5.844c2.705-2.251,3.076-5.946,2.167-9.144c0.385-4.909-4.228-6.031-8.491-11.588
				c0.218,2.563,0.128,5.135-0.267,7.637c-1.79,11.306-10.777,18.572-22.358,22.87c-9.172,3.405-19.357,5.773-29.266,4.701
				c-32.212-3.484-36.976-19.925-33.852-33.971C142.12,320.868,141.861,321.372,141.624,321.736z"/>
			<path style="opacity:0.56;fill:#B99E30;enable-background:new    ;" d="M195.911,355.25c-12.461,2.976-26.041,3.05-37.401-2.919
				c-9.145-4.804-16.72-12.467-17.532-21.912c-0.497,1.221-0.451,3.572-1.417,4.542c-1.111,1.118-3.219,0.415-4.64,0.428
				c2.933,2.16,7.227,3.96,9.125,5.61c2.177,1.893,4.613,8.264,15.703,15.119c5.353,2.223,11.834,4.247,17.66,4.66
				c9.292,0.658,18.417,1.222,27.071-1.923c14.876-5.406,21.662-15.051,24.368-17.184c2.962-2.329,6.45-4.399,7.194-8.089
				c0.611-3.048-0.752-6.163-2.262-8.889c-0.682-0.635-1.434-1.289-2.239-2.034c0.021,0.156,0.048,0.31,0.07,0.468
				c0.684,5.69-0.572,10.889-4.515,15.518C219.833,347.176,207.432,352.498,195.911,355.25z"/>
			
				<linearGradient id="SVGID_4_" gradientUnits="userSpaceOnUse" x1="184.9272" y1="510.9626" x2="187.5728" y2="541.2031" gradientTransform="matrix(1 0 0 -1 0 842.11)">
				<stop  offset="0.0364" style="stop-color:#EEEA4C"/>
				<stop  offset="0.8545" style="stop-color:#FCF5A7"/>
			</linearGradient>
			<path style="opacity:0.44;fill:url(#SVGID_4_);enable-background:new    ;" d="M197.713,317.691
				c4.507,0.985,9.644,2.299,13.54,4.551c3.447,1.988,6.308,4.875,9.273,7.047c4.139-1.258,5.378-5.011,3.696-8.09
				c-7.327-13.424-21.936-20.215-38.287-20.215c-8.959,0-14.45,0.72-22.522,3.699c-6.218,2.295-16.648,8.403-17.59,23.043
				c6.771-8.705,15.372-11.73,23.384-12.067C178.644,315.262,188.696,315.721,197.713,317.691z"/>
			<path style="opacity:0.52;fill:#FAF9D5;enable-background:new    ;" d="M157.106,314.355c2.77-1.406,5.816-2.494,8.778-3.294
				c6.181-1.67,12.667-2.844,19.55-2.844c4.232,0,8.246,0.412,12.279,0.926c2.797,0.357,9.205,3.058,11.796,2.155
				c4.044-1.41-4.402-4.724-5.974-5.326c-3.393-1.303-7.53-1.895-11.351-2.348c-7.898-0.932-16.266-0.134-23.804,1.969
				c-6.036,1.683-16.745,6.03-17.791,12.488l0.251,0.219C151.066,317.64,155.536,315.153,157.106,314.355z"/>
		</g>
	</g>
	<g>
		<g>
			<path style="fill:#D8DC41;" d="M289.668,387.49c-1.593-2.775-12.859-11.424-15.856-12.987
				c-14.414-7.516-38.747-6.69-46.593-3.234c-16.824,7.407-20.413,18.809-22.271,21.695c-1.81,2.814-4.832,3.551-7.417,5.681
				c-7.656,6.298,5.997,10.243,9.839,13.582c2.63,2.287,5.626,11.115,23.839,19.433c8.639,3.945,32.154,3.037,41.566-0.433
				c6.921-2.55,15.43-11.673,17.375-14.401c1.937-2.709,5.108-3.704,7.674-5.844c2.705-2.251,3.076-5.946,2.167-9.144
				C300.437,396.209,294.302,395.56,289.668,387.49z"/>
			<path style="fill:#D3D331;" d="M299.992,401.837c0.445-5.628-5.69-6.276-10.324-14.347c-0.692-1.203-3.204-3.507-6.069-5.862
				c-4.785,14.134-22.926,25.256-38.71,27.862c-10.539,1.74-23.446,1.007-29.995-7.597c-4.342-5.705-5.04-12.72-3.393-19.322
				c-3.973,4.651-5.533,8.805-6.552,10.392c-1.81,2.814-4.832,3.551-7.417,5.681c-7.656,6.298,5.997,10.243,9.839,13.582
				c2.63,2.287,5.626,11.115,23.839,19.433c8.639,3.945,32.154,3.037,41.566-0.433c6.921-2.55,15.43-11.673,17.375-14.401
				c1.937-2.709,5.108-3.704,7.674-5.844C300.53,408.729,300.901,405.035,299.992,401.837z"/>
			<path style="opacity:0.43;fill:#C3BE30;enable-background:new    ;" d="M204.949,392.963c-1.81,2.814-4.832,3.551-7.417,5.681
				c-7.656,6.298,5.997,10.243,9.839,13.582c2.63,2.287,5.626,11.115,23.839,19.433c8.639,3.945,32.154,3.037,41.566-0.433
				c6.921-2.55,15.43-11.673,17.375-14.401c1.937-2.709,5.108-3.704,7.674-5.844c2.705-2.251,3.076-5.946,2.167-9.144
				c0.445-5.628-5.69-6.276-10.324-14.347c-1.593-2.775-12.859-11.424-15.856-12.987c-1.081-0.561-2.218-1.072-3.393-1.542
				c1.717,1.741,3.105,3.824,4.053,6.335c3.818,10.129,0.441,20.336-7.724,27.949c-6.931,6.465-16.548,11.544-26.576,13.184
				c-9.441,1.544-20.241,0.296-26.607-6.677c-4.248-4.649-6.974-10.682-6.846-16.692c0.097-4.487,1.502-8.674,3.372-12.745
				C207.133,388.234,205.84,391.579,204.949,392.963z"/>
			<path style="opacity:0.69;fill:#B8B533;enable-background:new    ;" d="M204.949,392.963c-0.433,0.677-0.94,1.232-1.495,1.717
				c0.037,0.174,0.064,0.354,0.07,0.546c0.168,4.131-1.93,9.174-7.521,9.241h-0.006c2.243,3.162,8.878,5.591,11.374,7.758
				c2.63,2.287,5.626,11.115,23.839,19.433c8.639,3.945,32.154,3.037,41.566-0.433c6.921-2.55,15.43-11.673,17.375-14.401
				c1.937-2.709,5.108-3.704,7.674-5.844c2.705-2.251,3.076-5.946,2.167-9.144c0.385-4.908-4.228-6.031-8.491-11.588
				c0.218,2.563,0.128,5.135-0.267,7.637c-1.79,11.305-10.777,18.572-22.358,22.87c-9.172,3.405-19.357,5.773-29.266,4.701
				c-32.212-3.484-36.976-19.925-33.852-33.971C205.446,392.095,205.187,392.599,204.949,392.963z"/>
			<path style="opacity:0.56;fill:#B99E30;enable-background:new    ;" d="M259.236,426.476c-12.461,2.976-26.041,3.05-37.401-2.919
				c-9.145-4.804-16.72-12.467-17.532-21.912c-0.497,1.221-0.451,3.572-1.417,4.542c-1.111,1.118-3.219,0.415-4.64,0.428
				c2.933,2.16,7.227,3.96,9.125,5.61c2.177,1.894,4.613,8.265,15.703,15.119c5.353,2.223,11.834,4.247,17.66,4.66
				c9.292,0.658,18.417,1.222,27.071-1.923c14.876-5.406,21.662-15.051,24.368-17.184c2.962-2.329,6.45-4.399,7.194-8.089
				c0.611-3.048-0.752-6.163-2.262-8.888c-0.682-0.635-1.434-1.29-2.239-2.034c0.021,0.155,0.048,0.31,0.07,0.467
				c0.684,5.69-0.572,10.89-4.515,15.518C283.158,418.403,270.757,423.725,259.236,426.476z"/>
			
				<linearGradient id="SVGID_5_" gradientUnits="userSpaceOnUse" x1="248.2524" y1="439.7356" x2="250.8981" y2="469.9761" gradientTransform="matrix(1 0 0 -1 0 842.11)">
				<stop  offset="0.0364" style="stop-color:#EEEA4C"/>
				<stop  offset="0.8545" style="stop-color:#FCF5A7"/>
			</linearGradient>
			<path style="opacity:0.44;fill:url(#SVGID_5_);enable-background:new    ;" d="M261.038,388.918
				c4.507,0.985,9.644,2.299,13.54,4.551c3.447,1.988,6.308,4.875,9.273,7.047c4.139-1.258,5.379-5.011,3.696-8.09
				c-7.327-13.424-21.936-20.215-38.287-20.215c-8.959,0-14.45,0.72-22.522,3.699c-6.218,2.295-16.649,8.404-17.59,23.043
				c6.771-8.705,15.372-11.73,23.384-12.067C241.969,386.488,252.021,386.948,261.038,388.918z"/>
			<path style="opacity:0.52;fill:#FAF9D5;enable-background:new    ;" d="M220.431,385.582c2.771-1.406,5.816-2.494,8.778-3.294
				c6.181-1.67,12.667-2.844,19.55-2.844c4.232,0,8.246,0.412,12.279,0.926c2.797,0.357,9.205,3.058,11.796,2.155
				c4.044-1.41-4.402-4.724-5.974-5.326c-3.393-1.303-7.53-1.895-11.351-2.348c-7.898-0.932-16.266-0.134-23.804,1.969
				c-6.036,1.683-16.745,6.03-17.791,12.488l0.251,0.219C214.391,388.866,218.861,386.38,220.431,385.582z"/>
		</g>
	</g>
	<g>
		<g>
			<path style="fill:#D8DC41;" d="M214.164,446.505c-1.593-2.775-12.859-11.424-15.856-12.987
				c-14.413-7.516-38.747-6.69-46.593-3.235c-16.824,7.407-20.413,18.809-22.271,21.695c-1.81,2.813-4.831,3.551-7.417,5.681
				c-7.656,6.297,5.998,10.243,9.839,13.582c2.63,2.287,5.626,11.115,23.839,19.433c8.638,3.945,32.154,3.037,41.566-0.433
				c6.922-2.55,15.43-11.672,17.375-14.401c1.937-2.709,5.108-3.704,7.674-5.844c2.705-2.251,3.076-5.946,2.167-9.144
				C224.933,455.224,218.799,454.576,214.164,446.505z"/>
			<path style="fill:#D3D331;" d="M224.488,460.852c0.445-5.628-5.69-6.276-10.324-14.347c-0.692-1.203-3.204-3.507-6.069-5.862
				c-4.785,14.134-22.926,25.257-38.71,27.862c-10.539,1.74-23.446,1.007-29.995-7.597c-4.342-5.705-5.04-12.72-3.393-19.322
				c-3.973,4.651-5.534,8.805-6.552,10.392c-1.81,2.813-4.831,3.551-7.417,5.681c-7.656,6.297,5.998,10.243,9.839,13.582
				c2.63,2.287,5.626,11.115,23.839,19.433c8.638,3.945,32.154,3.037,41.566-0.433c6.922-2.55,15.43-11.672,17.375-14.401
				c1.937-2.709,5.108-3.704,7.674-5.844C225.026,467.745,225.397,464.05,224.488,460.852z"/>
			<path style="opacity:0.43;fill:#C3BE30;enable-background:new    ;" d="M129.445,451.979c-1.81,2.813-4.831,3.551-7.417,5.681
				c-7.656,6.297,5.998,10.243,9.839,13.582c2.63,2.287,5.626,11.115,23.839,19.433c8.638,3.945,32.154,3.037,41.566-0.433
				c6.922-2.55,15.43-11.672,17.375-14.401c1.937-2.709,5.108-3.704,7.674-5.844c2.705-2.251,3.076-5.946,2.167-9.144
				c0.445-5.628-5.69-6.276-10.324-14.347c-1.593-2.775-12.859-11.424-15.856-12.987c-1.081-0.561-2.217-1.072-3.393-1.542
				c1.717,1.741,3.105,3.824,4.052,6.335c3.818,10.129,0.441,20.336-7.724,27.949c-6.931,6.465-16.548,11.544-26.576,13.184
				c-9.441,1.544-20.241,0.296-26.607-6.677c-4.248-4.649-6.974-10.682-6.846-16.692c0.097-4.487,1.502-8.674,3.372-12.745
				C131.63,447.249,130.337,450.595,129.445,451.979z"/>
			<path style="opacity:0.69;fill:#B8B533;enable-background:new    ;" d="M129.445,451.979c-0.433,0.677-0.94,1.232-1.495,1.717
				c0.037,0.174,0.064,0.354,0.07,0.546c0.168,4.131-1.929,9.174-7.521,9.241h-0.006c2.243,3.162,8.878,5.591,11.374,7.758
				c2.63,2.287,5.626,11.115,23.839,19.433c8.638,3.945,32.154,3.037,41.566-0.433c6.922-2.55,15.43-11.672,17.375-14.401
				c1.937-2.709,5.108-3.704,7.674-5.844c2.705-2.251,3.076-5.946,2.167-9.144c0.385-4.908-4.228-6.031-8.491-11.588
				c0.218,2.563,0.127,5.135-0.267,7.637c-1.79,11.305-10.777,18.572-22.358,22.87c-9.172,3.405-19.357,5.773-29.266,4.7
				c-32.212-3.484-36.976-19.924-33.851-33.971C129.942,451.11,129.683,451.614,129.445,451.979z"/>
			<path style="opacity:0.56;fill:#B99E30;enable-background:new    ;" d="M183.733,485.492c-12.461,2.976-26.041,3.05-37.401-2.919
				c-9.145-4.804-16.72-12.467-17.532-21.912c-0.497,1.221-0.45,3.572-1.417,4.542c-1.112,1.118-3.219,0.415-4.64,0.428
				c2.933,2.16,7.227,3.96,9.126,5.61c2.177,1.894,4.613,8.265,15.703,15.119c5.354,2.223,11.834,4.247,17.66,4.66
				c9.292,0.658,18.417,1.222,27.071-1.923c14.875-5.406,21.661-15.051,24.368-17.184c2.962-2.329,6.45-4.399,7.194-8.089
				c0.611-3.048-0.752-6.163-2.262-8.888c-0.682-0.635-1.435-1.289-2.239-2.034c0.021,0.155,0.048,0.31,0.069,0.467
				c0.685,5.69-0.572,10.89-4.515,15.518C207.655,477.418,195.254,482.74,183.733,485.492z"/>
			
				<linearGradient id="SVGID_6_" gradientUnits="userSpaceOnUse" x1="172.749" y1="380.7206" x2="175.3947" y2="410.9611" gradientTransform="matrix(1 0 0 -1 0 842.11)">
				<stop  offset="0.0364" style="stop-color:#EEEA4C"/>
				<stop  offset="0.8545" style="stop-color:#FCF5A7"/>
			</linearGradient>
			<path style="opacity:0.44;fill:url(#SVGID_6_);enable-background:new    ;" d="M185.534,447.933
				c4.507,0.985,9.644,2.299,13.54,4.551c3.447,1.988,6.309,4.875,9.273,7.047c4.139-1.258,5.379-5.011,3.697-8.09
				c-7.327-13.424-21.936-20.215-38.287-20.215c-8.959,0-14.45,0.72-22.522,3.699c-6.218,2.295-16.648,8.404-17.59,23.043
				c6.771-8.705,15.372-11.73,23.385-12.067C166.466,445.504,176.517,445.963,185.534,447.933z"/>
			<path style="opacity:0.52;fill:#FAF9D5;enable-background:new    ;" d="M144.928,444.597c2.77-1.406,5.816-2.494,8.778-3.294
				c6.181-1.67,12.667-2.844,19.55-2.844c4.232,0,8.246,0.412,12.279,0.926c2.798,0.357,9.205,3.058,11.796,2.155
				c4.044-1.41-4.402-4.724-5.974-5.326c-3.393-1.303-7.531-1.895-11.351-2.348c-7.898-0.932-16.265-0.134-23.804,1.969
				c-6.036,1.683-16.745,6.03-17.791,12.488l0.252,0.219C138.888,447.882,143.358,445.395,144.928,444.597z"/>
		</g>
	</g>
	<g>
		<g>
			<path style="fill:#D8DC41;" d="M375.579,439.099c-1.593-2.775-12.859-11.424-15.856-12.987
				c-14.414-7.516-38.747-6.69-46.593-3.235c-16.824,7.407-20.413,18.809-22.271,21.695c-1.81,2.814-4.832,3.551-7.417,5.681
				c-7.656,6.297,5.997,10.243,9.839,13.582c2.63,2.287,5.626,11.115,23.839,19.433c8.639,3.945,32.154,3.037,41.566-0.433
				c6.921-2.55,15.43-11.672,17.375-14.401c1.937-2.709,5.108-3.704,7.674-5.844c2.705-2.251,3.076-5.946,2.167-9.144
				C386.348,447.818,380.213,447.17,375.579,439.099z"/>
			<path style="fill:#D3D331;" d="M385.903,453.446c0.445-5.628-5.69-6.276-10.324-14.347c-0.692-1.203-3.204-3.507-6.069-5.862
				c-4.785,14.134-22.926,25.256-38.71,27.862c-10.539,1.74-23.446,1.007-29.995-7.597c-4.342-5.706-5.04-12.72-3.393-19.322
				c-3.973,4.652-5.533,8.805-6.552,10.392c-1.81,2.814-4.832,3.551-7.417,5.681c-7.656,6.297,5.997,10.243,9.839,13.582
				c2.63,2.287,5.626,11.115,23.839,19.433c8.639,3.945,32.154,3.037,41.566-0.433c6.921-2.55,15.43-11.672,17.375-14.401
				c1.937-2.709,5.108-3.704,7.674-5.844C386.44,460.338,386.812,456.644,385.903,453.446z"/>
			<path style="opacity:0.43;fill:#C3BE30;enable-background:new    ;" d="M290.86,444.573c-1.81,2.814-4.832,3.551-7.417,5.681
				c-7.656,6.297,5.997,10.243,9.839,13.582c2.63,2.287,5.626,11.115,23.839,19.433c8.639,3.945,32.154,3.037,41.566-0.433
				c6.921-2.55,15.43-11.672,17.375-14.401c1.937-2.709,5.108-3.704,7.674-5.844c2.705-2.251,3.076-5.946,2.167-9.144
				c0.445-5.628-5.69-6.276-10.324-14.347c-1.593-2.775-12.859-11.424-15.856-12.987c-1.081-0.561-2.218-1.072-3.393-1.542
				c1.717,1.741,3.105,3.824,4.052,6.335c3.818,10.129,0.441,20.336-7.724,27.949c-6.931,6.465-16.548,11.544-26.576,13.184
				c-9.441,1.544-20.241,0.296-26.607-6.677c-4.248-4.649-6.974-10.682-6.846-16.693c0.097-4.486,1.502-8.674,3.372-12.745
				C293.044,439.843,291.751,443.189,290.86,444.573z"/>
			<path style="opacity:0.69;fill:#B8B533;enable-background:new    ;" d="M290.86,444.573c-0.433,0.677-0.94,1.232-1.495,1.717
				c0.037,0.174,0.064,0.354,0.07,0.546c0.168,4.132-1.93,9.174-7.521,9.241h-0.006c2.243,3.162,8.878,5.591,11.374,7.758
				c2.63,2.287,5.626,11.115,23.839,19.433c8.639,3.945,32.154,3.037,41.566-0.433c6.921-2.55,15.43-11.672,17.375-14.401
				c1.937-2.709,5.108-3.704,7.674-5.844c2.705-2.251,3.076-5.946,2.167-9.144c0.385-4.909-4.228-6.031-8.491-11.588
				c0.218,2.563,0.128,5.135-0.267,7.637c-1.79,11.306-10.777,18.572-22.358,22.87c-9.172,3.405-19.357,5.773-29.266,4.7
				c-32.212-3.484-36.976-19.924-33.852-33.971C291.356,443.704,291.097,444.208,290.86,444.573z"/>
			<path style="opacity:0.56;fill:#B99E30;enable-background:new    ;" d="M345.147,478.086c-12.461,2.976-26.041,3.05-37.401-2.919
				c-9.145-4.804-16.72-12.467-17.532-21.912c-0.497,1.221-0.451,3.572-1.417,4.542c-1.112,1.118-3.219,0.415-4.64,0.428
				c2.933,2.16,7.227,3.96,9.125,5.61c2.177,1.893,4.613,8.264,15.703,15.119c5.353,2.223,11.834,4.247,17.66,4.66
				c9.292,0.658,18.417,1.223,27.071-1.923c14.876-5.406,21.662-15.051,24.368-17.184c2.962-2.329,6.45-4.399,7.194-8.089
				c0.611-3.048-0.752-6.163-2.262-8.889c-0.682-0.635-1.434-1.289-2.239-2.034c0.021,0.156,0.048,0.31,0.07,0.467
				c0.684,5.69-0.572,10.89-4.515,15.518C369.069,470.012,356.668,475.334,345.147,478.086z"/>
			
				<linearGradient id="SVGID_7_" gradientUnits="userSpaceOnUse" x1="334.164" y1="388.1255" x2="336.8098" y2="418.3671" gradientTransform="matrix(1 0 0 -1 0 842.11)">
				<stop  offset="0.0364" style="stop-color:#EEEA4C"/>
				<stop  offset="0.8545" style="stop-color:#FCF5A7"/>
			</linearGradient>
			<path style="opacity:0.44;fill:url(#SVGID_7_);enable-background:new    ;" d="M346.949,440.527
				c4.507,0.985,9.643,2.299,13.54,4.551c3.447,1.988,6.308,4.875,9.273,7.047c4.139-1.258,5.379-5.011,3.697-8.09
				c-7.327-13.424-21.936-20.215-38.287-20.215c-8.959,0-14.45,0.72-22.522,3.7c-6.218,2.295-16.649,8.403-17.59,23.043
				c6.771-8.705,15.372-11.73,23.384-12.067C327.88,438.098,337.932,438.558,346.949,440.527z"/>
			<path style="opacity:0.52;fill:#FAF9D5;enable-background:new    ;" d="M306.342,437.191c2.77-1.406,5.816-2.494,8.778-3.294
				c6.181-1.671,12.667-2.844,19.55-2.844c4.232,0,8.246,0.412,12.279,0.926c2.797,0.357,9.205,3.058,11.796,2.155
				c4.044-1.41-4.402-4.724-5.974-5.326c-3.393-1.303-7.53-1.895-11.351-2.348c-7.898-0.932-16.266-0.134-23.804,1.969
				c-6.036,1.683-16.745,6.03-17.791,12.488l0.251,0.219C300.302,440.476,304.772,437.989,306.342,437.191z"/>
		</g>
	</g>
</g>
</svg>
