<?xml version="1.0" encoding="iso-8859-1"?>
<!-- Generator: Adobe Illustrator 23.0.2, SVG Export Plug-In . SVG Version: 6.00 Build 0)  -->
<svg version="1.1" id="Layer_1" xmlns="http://www.w3.org/2000/svg" xmlns:xlink="http://www.w3.org/1999/xlink" x="0px" y="0px"
	 viewBox="0 0 595.276 841.89" style="enable-background:new 0 0 595.276 841.89;" xml:space="preserve">
<g>
	<path style="fill:#1587C6;" d="M139.756,329.42c0.184-0.801,0.276-1.627,0.276-2.47c0-3.883-2.176-5.828-6.532-5.828
		c-1.97,0-3.643,0.36-5.02,1.08c-1.283,1.325-1.924,2.909-1.924,4.748c0,1.202,0.594,2.242,1.787,3.098
		c1.192,0.864,2.67,1.536,4.436,2.014c1.762,0.482,3.679,1.08,5.74,1.807c2.062,0.72,3.975,1.493,5.741,2.314
		c1.765,0.823,3.243,2.04,4.434,3.667c1.192,1.62,1.788,3.538,1.788,5.744c0,4.205-1.846,7.633-5.534,10.277
		c-3.691,2.65-8.125,3.968-13.304,3.968c-4.172,0-7.714-0.91-10.623-2.734c-2.913-1.822-4.366-4.376-4.366-7.666
		c0-1.685,0.585-3.094,1.754-4.239c1.168-1.142,2.568-1.711,4.194-1.711s2.829,0.18,3.61,0.54c-0.369,1.205-0.552,2.285-0.552,3.25
		c0,2.16,0.698,3.876,2.098,5.139c1.398,1.26,3.333,1.896,5.81,1.896c2.474,0,4.47-0.562,5.98-1.685
		c1.513-1.123,2.271-2.616,2.271-4.481s-0.839-3.396-2.51-4.599c-1.674-1.203-3.704-2.167-6.086-2.887
		c-2.384-0.723-4.769-1.483-7.151-2.285c-2.382-0.799-4.412-1.992-6.084-3.581c-1.674-1.579-2.51-3.576-2.51-5.981
		c0-3.766,1.866-6.893,5.604-9.378c3.735-2.484,7.963-3.73,12.684-3.73c3.484,0,6.498,0.614,9.042,1.834
		c2.546,1.224,3.818,3.077,3.818,5.561c0,1.807-0.665,3.339-1.995,4.606c-1.33,1.26-3.001,1.891-5.017,1.891
		C141.064,329.6,140.447,329.54,139.756,329.42z"/>
	<path style="fill:#1587C6;" d="M187.68,350.822c0.55,1.087,0.823,2.311,0.823,3.672s-0.536,2.532-1.614,3.514
		c-1.076,0.984-2.395,1.471-3.952,1.471c-4.859,0-12.468-0.238-22.829-0.72c-0.825-0.036-1.559-0.271-2.198-0.689
		c-0.644-0.425-0.965-0.953-0.965-1.594c0-2.126,0.195-5.712,0.586-10.762c0.388-5.052,0.583-9.773,0.583-14.161
		c0-4.392-0.479-9.43-1.443-15.126c3.394,0.245,7.952,0.36,13.684,0.36c5.728,0,11.206-0.36,16.431-1.08
		c0.55,0.886,0.825,1.935,0.825,3.159c0,1.222-0.536,2.304-1.615,3.247c-1.079,0.943-2.407,1.414-3.986,1.414
		c-1.582,0-4.103-0.202-7.565-0.605c-3.461-0.401-6.017-0.598-7.666-0.598c-0.368,4.047-0.574,7.851-0.619,11.422
		c2.889,0.238,5.991,0.36,9.316,0.36c3.321,0,6.178-0.418,8.561-1.26c0.549,0.878,0.823,1.932,0.823,3.156s-0.541,2.326-1.617,3.307
		c-1.076,0.979-2.36,1.471-3.85,1.471c-1.488,0-3.7-0.247-6.632-0.751c-2.937-0.504-5.158-0.754-6.67-0.754
		c0,6.339,0.16,10.99,0.48,13.95c2.201,0.166,3.922,0.245,5.157,0.245C177.779,353.472,183.096,352.586,187.68,350.822z"/>
	<path style="fill:#1587C6;" d="M217.797,358.642c-1.927,0.557-3.669,0.838-5.227,0.838c-2.34,0-4.159-0.746-5.466-2.251
		c-1.309-1.505-2.374-3.639-3.199-6.406c-0.185-0.598-0.825-2.801-1.924-6.61c-2.154-7.46-3.899-12.86-5.226-16.208
		c-1.331-3.348-3.277-5.88-5.846-7.601c0.55-1.21,1.456-2.167,2.716-2.887c1.26-0.727,2.74-1.087,4.436-1.087
		c1.693,0,3.094,0.574,4.195,1.716c1.099,1.145,1.98,2.532,2.646,4.181c0.665,1.642,1.249,3.226,1.755,4.748
		c0.502,1.524,1.039,3.411,1.615,5.652c0.571,2.246,1.031,4.059,1.374,5.441c0.343,1.382,0.896,3.751,1.649,7.1
		c0.757,3.348,1.317,5.78,1.686,7.301c7.697-17.559,11.55-29.284,11.55-35.174c0-0.518-0.025-0.9-0.07-1.145
		c0.689-0.115,1.4-0.18,2.131-0.18c1.833,0,3.337,0.391,4.504,1.176c1.169,0.78,1.754,1.891,1.754,3.339
		c0,2.002-2.259,7.926-6.771,17.764C221.565,348.189,218.802,354.955,217.797,358.642z"/>
	<path style="fill:#1587C6;" d="M268.33,350.822c0.549,1.087,0.823,2.311,0.823,3.672s-0.538,2.532-1.614,3.514
		c-1.076,0.984-2.396,1.471-3.952,1.471c-4.861,0-12.468-0.238-22.829-0.72c-0.826-0.036-1.559-0.271-2.199-0.689
		c-0.645-0.425-0.963-0.953-0.963-1.594c0-2.126,0.195-5.712,0.585-10.762c0.387-5.052,0.582-9.773,0.582-14.161
		c0-4.392-0.477-9.43-1.444-15.126c3.392,0.245,7.954,0.36,13.687,0.36c5.725,0,11.206-0.36,16.431-1.08
		c0.549,0.886,0.823,1.935,0.823,3.159c0,1.222-0.538,2.304-1.617,3.247c-1.076,0.943-2.407,1.414-3.988,1.414
		s-4.1-0.202-7.564-0.605c-3.461-0.401-6.016-0.598-7.666-0.598c-0.368,4.047-0.574,7.851-0.617,11.422
		c2.887,0.238,5.991,0.36,9.315,0.36c3.324,0,6.178-0.418,8.56-1.26c0.552,0.878,0.826,1.932,0.826,3.156s-0.541,2.326-1.617,3.307
		c-1.079,0.979-2.363,1.471-3.85,1.471s-3.7-0.247-6.631-0.751c-2.939-0.504-5.162-0.754-6.672-0.754
		c0,6.339,0.162,10.99,0.48,13.95c2.201,0.166,3.919,0.245,5.157,0.245C258.428,353.472,263.746,352.586,268.33,350.822z"/>
	<path style="fill:#1587C6;" d="M303.805,317.033c1.465-0.641,3.013-0.965,4.641-0.965c1.63,0,2.956,0.444,3.985,1.325
		c1.035,0.883,1.551,1.944,1.551,3.19c0,1.239-0.209,3.972-0.621,8.206c-0.411,4.227-0.617,7.587-0.617,10.071
		c0,7.973,0.415,14.612,1.238,19.899c-1.468,0.482-3.107,0.72-4.918,0.72c-1.809,0-3.22-0.259-4.227-0.778
		c-2.934-1.483-9.787-10.861-20.553-28.144c-0.189,1.57-0.28,5.225-0.28,10.978c0,5.748,0.502,11.37,1.515,16.864
		c-1.424,0.482-2.958,0.72-4.605,0.72c-1.655,0-2.994-0.456-4.024-1.383c-1.032-0.917-1.548-2.019-1.548-3.305
		c0-1.284,0.217-3.97,0.651-8.06c0.436-4.09,0.656-7.174,0.656-9.26c0-7.973-0.436-14.59-1.307-19.837
		c1.282-0.566,3.162-0.847,5.637-0.847c2.478,0,4.218,0.864,5.223,2.585c6.784,12.07,13.272,22.29,19.458,30.672
		c-0.134-7.7-0.206-11.768-0.206-12.207C305.455,329.982,304.906,323.168,303.805,317.033z"/>
</g>
</svg>
