<?xml version="1.0" encoding="iso-8859-1"?>
<!-- Generator: Adobe Illustrator 23.0.2, SVG Export Plug-In . SVG Version: 6.00 Build 0)  -->
<svg version="1.1" id="Layer_1" xmlns="http://www.w3.org/2000/svg" xmlns:xlink="http://www.w3.org/1999/xlink" x="0px" y="0px"
	 viewBox="0 0 595.276 841.89" style="enable-background:new 0 0 595.276 841.89;" xml:space="preserve">
<g>
	<path style="fill:#1587C6;" d="M184.33,239c11.062,1.869,25.018,2.809,41.856,2.809c4.991,0,12.115-0.409,21.391-1.222
		c9.275-0.806,16.253-1.214,20.923-1.214c4.678,0,8.268,0.876,10.764,2.624c2.481,1.747,3.736,4.931,3.736,9.538
		c0,4.627-2.029,10.142-6.079,16.567c-4.05,6.425-10.99,15.813-20.808,28.162c-9.831,12.349-16.873,23.396-21.157,33.122
		c-4.3,9.738-6.438,20.276-6.438,31.632c-4.84,1.618-9.898,2.431-15.195,2.431c-5.3,0-9.626-0.998-12.977-2.996
		c-3.356-1.986-5.029-5.204-5.029-9.633c0-4.427,2.875-11.04,8.656-19.838c5.757-8.798,12.304-17.244,19.638-25.358
		c19.785-22.333,31.243-38.362,34.368-48.092c-6.233,0.375-15.902,1.465-28.996,3.271c-13.094,1.806-22.523,2.716-28.289,2.716
		c-5.773,0-10.443-1.309-14.027-3.926c-3.582-2.624-5.38-5.712-5.38-9.27C181.293,246.769,182.309,242.996,184.33,239z"/>
</g>
</svg>
