<?xml version="1.0" encoding="iso-8859-1"?>
<!-- Generator: Adobe Illustrator 23.0.2, SVG Export Plug-In . SVG Version: 6.00 Build 0)  -->
<svg version="1.1" id="Layer_1" xmlns="http://www.w3.org/2000/svg" xmlns:xlink="http://www.w3.org/1999/xlink" x="0px" y="0px"
	 viewBox="0 0 595.276 841.89" style="enable-background:new 0 0 595.276 841.89;" xml:space="preserve">
<g>
	<path style="fill:#499BD5;" d="M420.482,486.24c0,17.576-16.289,31.819-36.381,31.819H125.846
		c-20.093,0-36.381-14.242-36.381-31.819V170.875c0-17.574,16.289-31.816,36.381-31.816H384.1c20.092,0,36.381,14.242,36.381,31.816
		V486.24z"/>
	<path style="fill:#FFFFFF;" d="M405.401,478.768c0,14.06-13.031,25.458-29.108,25.458H133.654
		c-16.077,0-29.107-11.398-29.107-25.458V178.346c0-14.06,13.03-25.456,29.107-25.456h242.639c16.077,0,29.108,11.396,29.108,25.456
		V478.768z"/>
</g>
<g>
	<path style="fill:#1087C6;" d="M212.891,461.686c0.184-0.801,0.276-1.627,0.276-2.47c0-3.883-2.176-5.828-6.532-5.828
		c-1.97,0-3.643,0.36-5.02,1.08c-1.283,1.325-1.924,2.909-1.924,4.748c0,1.202,0.594,2.242,1.787,3.098
		c1.192,0.864,2.67,1.536,4.436,2.014c1.762,0.482,3.679,1.08,5.74,1.807c2.062,0.72,3.975,1.493,5.741,2.314
		c1.765,0.823,3.243,2.04,4.434,3.667c1.192,1.62,1.788,3.538,1.788,5.744c0,4.205-1.846,7.633-5.534,10.277
		c-3.691,2.65-8.125,3.968-13.304,3.968c-4.172,0-7.714-0.91-10.623-2.734c-2.913-1.822-4.366-4.376-4.366-7.666
		c0-1.685,0.585-3.094,1.754-4.239c1.168-1.142,2.568-1.711,4.194-1.711s2.829,0.18,3.61,0.54c-0.369,1.205-0.552,2.285-0.552,3.25
		c0,2.16,0.698,3.876,2.098,5.139c1.398,1.26,3.333,1.896,5.81,1.896c2.474,0,4.47-0.562,5.98-1.685
		c1.513-1.123,2.271-2.616,2.271-4.481s-0.839-3.396-2.51-4.599c-1.674-1.203-3.704-2.167-6.086-2.887
		c-2.384-0.723-4.769-1.483-7.151-2.285c-2.382-0.799-4.412-1.992-6.084-3.581c-1.674-1.579-2.51-3.576-2.51-5.981
		c0-3.766,1.866-6.893,5.604-9.378c3.735-2.484,7.963-3.73,12.684-3.73c3.484,0,6.498,0.614,9.042,1.834
		c2.546,1.224,3.818,3.077,3.818,5.561c0,1.807-0.665,3.339-1.995,4.606c-1.33,1.26-3.001,1.891-5.017,1.891
		C214.199,461.866,213.582,461.806,212.891,461.686z"/>
	<path style="fill:#1087C6;" d="M260.815,483.088c0.55,1.087,0.823,2.311,0.823,3.672c0,1.361-0.536,2.532-1.614,3.514
		c-1.076,0.984-2.395,1.471-3.952,1.471c-4.859,0-12.468-0.238-22.829-0.72c-0.825-0.036-1.559-0.271-2.198-0.689
		c-0.644-0.425-0.965-0.953-0.965-1.594c0-2.126,0.195-5.712,0.586-10.762c0.388-5.052,0.583-9.773,0.583-14.161
		c0-4.392-0.479-9.43-1.443-15.126c3.394,0.245,7.952,0.36,13.684,0.36c5.728,0,11.206-0.36,16.431-1.08
		c0.55,0.886,0.825,1.935,0.825,3.159c0,1.222-0.536,2.304-1.615,3.247c-1.079,0.943-2.407,1.414-3.986,1.414
		c-1.582,0-4.103-0.202-7.565-0.605c-3.461-0.401-6.017-0.598-7.666-0.598c-0.368,4.047-0.574,7.851-0.619,11.422
		c2.889,0.238,5.991,0.36,9.316,0.36c3.321,0,6.178-0.418,8.561-1.26c0.549,0.878,0.823,1.932,0.823,3.156
		c0,1.224-0.541,2.326-1.617,3.307c-1.076,0.979-2.36,1.471-3.85,1.471c-1.488,0-3.7-0.247-6.632-0.751
		c-2.937-0.504-5.158-0.754-6.67-0.754c0,6.339,0.16,10.99,0.48,13.95c2.201,0.166,3.922,0.245,5.157,0.245
		C250.914,485.738,256.231,484.852,260.815,483.088z"/>
	<path style="fill:#1087C6;" d="M290.932,490.908c-1.927,0.557-3.669,0.838-5.227,0.838c-2.34,0-4.159-0.746-5.466-2.251
		c-1.309-1.505-2.374-3.639-3.199-6.406c-0.185-0.598-0.825-2.801-1.924-6.61c-2.154-7.46-3.899-12.86-5.226-16.208
		c-1.331-3.348-3.277-5.88-5.846-7.601c0.55-1.21,1.456-2.167,2.716-2.887c1.26-0.727,2.74-1.087,4.436-1.087
		c1.693,0,3.094,0.574,4.195,1.716c1.099,1.145,1.98,2.532,2.646,4.181c0.665,1.642,1.249,3.226,1.755,4.748
		c0.502,1.524,1.039,3.411,1.615,5.652c0.571,2.246,1.031,4.059,1.374,5.441c0.343,1.382,0.896,3.751,1.649,7.1
		c0.757,3.348,1.317,5.78,1.686,7.301c7.697-17.559,11.55-29.284,11.55-35.174c0-0.518-0.025-0.9-0.07-1.145
		c0.689-0.115,1.4-0.18,2.131-0.18c1.833,0,3.337,0.391,4.504,1.176c1.169,0.78,1.754,1.891,1.754,3.339
		c0,2.002-2.259,7.926-6.771,17.764C294.7,480.455,291.937,487.221,290.932,490.908z"/>
	<path style="fill:#1087C6;" d="M341.465,483.088c0.549,1.087,0.823,2.311,0.823,3.672c0,1.361-0.538,2.532-1.614,3.514
		c-1.076,0.984-2.396,1.471-3.952,1.471c-4.861,0-12.468-0.238-22.829-0.72c-0.826-0.036-1.559-0.271-2.199-0.689
		c-0.645-0.425-0.963-0.953-0.963-1.594c0-2.126,0.195-5.712,0.585-10.762c0.387-5.052,0.582-9.773,0.582-14.161
		c0-4.392-0.477-9.43-1.444-15.126c3.392,0.245,7.954,0.36,13.687,0.36c5.725,0,11.206-0.36,16.431-1.08
		c0.549,0.886,0.823,1.935,0.823,3.159c0,1.222-0.538,2.304-1.617,3.247c-1.076,0.943-2.407,1.414-3.988,1.414
		c-1.581,0-4.1-0.202-7.564-0.605c-3.461-0.401-6.016-0.598-7.666-0.598c-0.368,4.047-0.574,7.851-0.617,11.422
		c2.887,0.238,5.991,0.36,9.315,0.36c3.324,0,6.178-0.418,8.56-1.26c0.552,0.878,0.826,1.932,0.826,3.156
		c0,1.224-0.541,2.326-1.617,3.307c-1.079,0.979-2.363,1.471-3.85,1.471s-3.7-0.247-6.631-0.751
		c-2.939-0.504-5.162-0.754-6.672-0.754c0,6.339,0.162,10.99,0.48,13.95c2.201,0.166,3.919,0.245,5.157,0.245
		C331.563,485.738,336.881,484.852,341.465,483.088z"/>
	<path style="fill:#1087C6;" d="M376.94,449.299c1.465-0.641,3.013-0.965,4.641-0.965c1.63,0,2.956,0.444,3.985,1.325
		c1.035,0.883,1.551,1.944,1.551,3.19c0,1.239-0.209,3.972-0.621,8.206c-0.411,4.227-0.617,7.587-0.617,10.071
		c0,7.973,0.415,14.612,1.238,19.899c-1.468,0.482-3.107,0.72-4.918,0.72c-1.809,0-3.22-0.259-4.227-0.778
		c-2.934-1.483-9.787-10.861-20.553-28.144c-0.189,1.57-0.28,5.225-0.28,10.978c0,5.748,0.502,11.37,1.515,16.864
		c-1.424,0.482-2.958,0.72-4.605,0.72c-1.655,0-2.994-0.456-4.024-1.383c-1.032-0.917-1.548-2.019-1.548-3.305
		c0-1.284,0.217-3.97,0.651-8.06c0.436-4.09,0.656-7.174,0.656-9.26c0-7.973-0.436-14.59-1.307-19.837
		c1.282-0.566,3.162-0.847,5.637-0.847c2.478,0,4.218,0.864,5.223,2.585c6.784,12.07,13.272,22.29,19.458,30.672
		c-0.134-7.7-0.206-11.768-0.206-12.207C378.59,462.248,378.041,455.434,376.94,449.299z"/>
</g>
<g>
	<path style="fill:#1087C6;" d="M349.432,165.316c4.16,0.768,9.408,1.154,15.74,1.154c1.877,0,4.556-0.168,8.044-0.502
		c3.488-0.331,6.112-0.499,7.868-0.499c1.759,0,3.109,0.36,4.048,1.078c0.933,0.718,1.405,2.026,1.405,3.919
		c0,1.901-0.763,4.167-2.286,6.807c-1.523,2.64-4.133,6.497-7.825,11.571c-3.697,5.074-6.345,9.613-7.956,13.609
		c-1.617,4.001-2.421,8.331-2.421,12.997c-1.82,0.665-3.722,0.999-5.714,0.999c-1.993,0-3.62-0.41-4.88-1.231
		c-1.262-0.816-1.891-2.138-1.891-3.958c0-1.819,1.081-4.536,3.255-8.151c2.165-3.615,4.627-7.085,7.385-10.419
		c7.44-9.176,11.749-15.762,12.924-19.76c-2.344,0.154-5.98,0.602-10.904,1.344c-4.924,0.742-8.47,1.116-10.638,1.116
		c-2.171,0-3.927-0.538-5.275-1.613c-1.347-1.078-2.023-2.347-2.023-3.809C348.29,168.508,348.672,166.958,349.432,165.316z"/>
</g>
<g>
	<g>
		<g>
			<path style="fill:#D7DC43;" d="M202.712,183.233c-1.593-2.775-12.859-11.424-15.856-12.987
				c-14.414-7.516-38.747-6.69-46.593-3.235c-16.824,7.407-20.413,18.809-22.271,21.695c-1.81,2.813-4.832,3.551-7.417,5.681
				c-7.656,6.297,5.997,10.243,9.839,13.581c2.63,2.288,5.626,11.115,23.839,19.433c8.639,3.946,32.154,3.037,41.566-0.433
				c6.921-2.55,15.43-11.672,17.375-14.401c1.937-2.709,5.108-3.704,7.674-5.844c2.705-2.251,3.076-5.946,2.167-9.144
				C213.481,191.952,207.347,191.303,202.712,183.233z"/>
			<path style="fill:#D3D332;" d="M213.037,197.579c0.445-5.628-5.69-6.276-10.324-14.346c-0.692-1.203-3.204-3.507-6.069-5.862
				c-4.785,14.133-22.926,25.256-38.71,27.862c-10.539,1.74-23.446,1.007-29.995-7.597c-4.342-5.706-5.04-12.72-3.393-19.322
				c-3.973,4.652-5.533,8.805-6.552,10.392c-1.81,2.813-4.832,3.551-7.417,5.681c-7.656,6.297,5.997,10.243,9.839,13.581
				c2.63,2.288,5.626,11.115,23.839,19.433c8.639,3.946,32.154,3.037,41.566-0.433c6.921-2.55,15.43-11.672,17.375-14.401
				c1.937-2.709,5.108-3.704,7.674-5.844C213.574,204.472,213.945,200.777,213.037,197.579z"/>
			<path style="opacity:0.43;fill:#C2BD30;" d="M117.993,188.706c-1.81,2.813-4.832,3.551-7.417,5.681
				c-7.656,6.297,5.997,10.243,9.839,13.581c2.63,2.288,5.626,11.115,23.839,19.433c8.639,3.946,32.154,3.037,41.566-0.433
				c6.921-2.55,15.43-11.672,17.375-14.401c1.937-2.709,5.108-3.704,7.674-5.844c2.705-2.251,3.076-5.946,2.167-9.144
				c0.445-5.628-5.69-6.276-10.324-14.346c-1.593-2.775-12.859-11.424-15.856-12.987c-1.081-0.561-2.218-1.072-3.393-1.542
				c1.717,1.741,3.105,3.824,4.053,6.335c3.818,10.129,0.441,20.336-7.724,27.949c-6.931,6.465-16.548,11.544-26.576,13.184
				c-9.441,1.543-20.241,0.296-26.607-6.677c-4.248-4.649-6.974-10.683-6.846-16.693c0.097-4.486,1.502-8.674,3.372-12.745
				C120.178,183.977,118.885,187.322,117.993,188.706z"/>
			<path style="opacity:0.69;fill:#B8B433;" d="M117.993,188.706c-0.433,0.677-0.94,1.232-1.495,1.717
				c0.037,0.174,0.064,0.354,0.07,0.546c0.168,4.131-1.93,9.174-7.521,9.241h-0.006c2.243,3.162,8.878,5.591,11.374,7.758
				c2.63,2.288,5.626,11.115,23.839,19.433c8.639,3.946,32.154,3.037,41.566-0.433c6.921-2.55,15.43-11.672,17.375-14.401
				c1.937-2.709,5.108-3.704,7.674-5.844c2.705-2.251,3.076-5.946,2.167-9.144c0.385-4.908-4.228-6.031-8.491-11.588
				c0.218,2.563,0.128,5.135-0.267,7.637c-1.79,11.306-10.777,18.572-22.358,22.87c-9.172,3.405-19.357,5.773-29.266,4.7
				c-32.212-3.484-36.976-19.924-33.852-33.971C118.49,187.838,118.231,188.342,117.993,188.706z"/>
			<path style="opacity:0.56;fill:#B99E30;" d="M172.281,222.219c-12.461,2.976-26.041,3.05-37.401-2.919
				c-9.145-4.804-16.72-12.467-17.532-21.912c-0.497,1.221-0.451,3.572-1.417,4.542c-1.112,1.118-3.219,0.415-4.64,0.428
				c2.933,2.16,7.227,3.96,9.125,5.61c2.177,1.894,4.613,8.265,15.703,15.119c5.353,2.223,11.834,4.247,17.66,4.66
				c9.292,0.658,18.417,1.222,27.071-1.923c14.876-5.406,21.662-15.051,24.368-17.184c2.962-2.329,6.45-4.398,7.194-8.088
				c0.611-3.048-0.752-6.163-2.262-8.889c-0.682-0.635-1.434-1.289-2.239-2.034c0.021,0.156,0.048,0.31,0.07,0.467
				c0.684,5.69-0.572,10.89-4.515,15.518C196.203,214.146,183.802,219.468,172.281,222.219z"/>
			<linearGradient id="SVGID_1_" gradientUnits="userSpaceOnUse" x1="161.297" y1="198.1176" x2="163.9427" y2="167.8765">
				<stop  offset="0.0364" style="stop-color:#EFEA48"/>
				<stop  offset="0.8545" style="stop-color:#FCF5A5"/>
			</linearGradient>
			<path style="opacity:0.44;fill:url(#SVGID_1_);" d="M174.083,184.661c4.507,0.985,9.644,2.299,13.54,4.551
				c3.447,1.988,6.308,4.875,9.273,7.047c4.139-1.258,5.379-5.011,3.697-8.09c-7.328-13.424-21.936-20.215-38.287-20.215
				c-8.959,0-14.45,0.72-22.522,3.699c-6.218,2.295-16.649,8.404-17.59,23.043c6.771-8.705,15.372-11.73,23.384-12.067
				C155.014,182.231,165.065,182.691,174.083,184.661z"/>
			<path style="opacity:0.52;fill:#FAF8D3;" d="M133.476,181.325c2.771-1.406,5.816-2.494,8.778-3.294
				c6.181-1.671,12.667-2.844,19.55-2.844c4.232,0,8.246,0.412,12.279,0.926c2.797,0.357,9.205,3.058,11.796,2.155
				c4.044-1.41-4.402-4.724-5.974-5.326c-3.393-1.303-7.53-1.895-11.351-2.348c-7.898-0.932-16.266-0.134-23.804,1.969
				c-6.036,1.683-16.745,6.029-17.791,12.488l0.251,0.219C127.436,184.609,131.906,182.123,133.476,181.325z"/>
		</g>
	</g>
	<g>
		<g>
			<path style="fill:#D7DC43;" d="M319.985,208.471c-1.593-2.775-12.859-11.424-15.856-12.987
				c-14.414-7.516-38.747-6.69-46.593-3.235c-16.824,7.407-20.413,18.809-22.271,21.695c-1.81,2.813-4.832,3.551-7.417,5.681
				c-7.656,6.297,5.997,10.243,9.839,13.581c2.629,2.288,5.626,11.115,23.838,19.433c8.639,3.945,32.155,3.037,41.566-0.433
				c6.921-2.55,15.43-11.672,17.375-14.401c1.937-2.709,5.108-3.704,7.674-5.844c2.705-2.251,3.076-5.946,2.167-9.144
				C330.754,217.19,324.619,216.541,319.985,208.471z"/>
			<path style="fill:#D3D332;" d="M330.309,222.817c0.445-5.628-5.69-6.276-10.324-14.346c-0.692-1.203-3.204-3.507-6.069-5.862
				c-4.785,14.133-22.926,25.256-38.71,27.862c-10.539,1.74-23.446,1.007-29.995-7.597c-4.342-5.706-5.04-12.72-3.393-19.322
				c-3.973,4.652-5.534,8.805-6.552,10.392c-1.81,2.813-4.832,3.551-7.417,5.681c-7.656,6.297,5.997,10.243,9.839,13.581
				c2.629,2.288,5.626,11.115,23.838,19.433c8.639,3.945,32.155,3.037,41.566-0.433c6.921-2.55,15.43-11.672,17.375-14.401
				c1.937-2.709,5.108-3.704,7.674-5.844C330.847,229.71,331.218,226.015,330.309,222.817z"/>
			<path style="opacity:0.43;fill:#C2BD30;" d="M235.266,213.944c-1.81,2.813-4.832,3.551-7.417,5.681
				c-7.656,6.297,5.997,10.243,9.839,13.581c2.629,2.288,5.626,11.115,23.838,19.433c8.639,3.945,32.155,3.037,41.566-0.433
				c6.921-2.55,15.43-11.672,17.375-14.401c1.937-2.709,5.108-3.704,7.674-5.844c2.705-2.251,3.076-5.946,2.167-9.144
				c0.445-5.628-5.69-6.276-10.324-14.346c-1.593-2.775-12.859-11.424-15.856-12.987c-1.081-0.561-2.218-1.072-3.393-1.542
				c1.717,1.741,3.105,3.824,4.053,6.335c3.818,10.129,0.441,20.336-7.724,27.949c-6.931,6.465-16.548,11.544-26.576,13.184
				c-9.441,1.543-20.241,0.296-26.607-6.677c-4.248-4.649-6.974-10.683-6.846-16.693c0.097-4.486,1.502-8.674,3.372-12.745
				C237.451,209.215,236.157,212.56,235.266,213.944z"/>
			<path style="opacity:0.69;fill:#B8B433;" d="M235.266,213.944c-0.433,0.677-0.939,1.232-1.495,1.717
				c0.037,0.174,0.064,0.354,0.07,0.546c0.168,4.131-1.93,9.174-7.521,9.241h-0.006c2.243,3.162,8.878,5.591,11.374,7.758
				c2.629,2.288,5.626,11.115,23.838,19.433c8.639,3.945,32.155,3.037,41.566-0.433c6.921-2.55,15.43-11.672,17.375-14.401
				c1.937-2.709,5.108-3.704,7.674-5.844c2.705-2.251,3.076-5.946,2.167-9.144c0.385-4.908-4.228-6.031-8.492-11.588
				c0.218,2.563,0.128,5.135-0.267,7.637c-1.79,11.306-10.777,18.572-22.358,22.87c-9.172,3.405-19.357,5.773-29.266,4.7
				c-32.212-3.484-36.976-19.924-33.851-33.971C235.763,213.076,235.504,213.58,235.266,213.944z"/>
			<path style="opacity:0.56;fill:#B99E30;" d="M289.554,247.458c-12.461,2.976-26.041,3.05-37.402-2.919
				c-9.145-4.805-16.72-12.467-17.532-21.912c-0.497,1.221-0.451,3.572-1.417,4.542c-1.111,1.118-3.219,0.415-4.64,0.428
				c2.933,2.16,7.227,3.96,9.126,5.61c2.177,1.894,4.613,8.265,15.703,15.119c5.353,2.223,11.834,4.247,17.66,4.66
				c9.292,0.658,18.417,1.222,27.071-1.923c14.876-5.406,21.662-15.051,24.368-17.184c2.962-2.329,6.45-4.398,7.194-8.088
				c0.611-3.048-0.752-6.163-2.262-8.889c-0.683-0.635-1.435-1.289-2.239-2.034c0.021,0.156,0.048,0.31,0.069,0.467
				c0.684,5.69-0.572,10.89-4.515,15.518C313.475,239.384,301.074,244.706,289.554,247.458z"/>
			<linearGradient id="SVGID_2_" gradientUnits="userSpaceOnUse" x1="278.5695" y1="223.3557" x2="281.2153" y2="193.1146">
				<stop  offset="0.0364" style="stop-color:#EFEA48"/>
				<stop  offset="0.8545" style="stop-color:#FCF5A5"/>
			</linearGradient>
			<path style="opacity:0.44;fill:url(#SVGID_2_);" d="M291.355,209.899c4.507,0.985,9.644,2.299,13.54,4.551
				c3.447,1.988,6.309,4.875,9.273,7.047c4.139-1.258,5.379-5.011,3.697-8.09c-7.328-13.424-21.936-20.215-38.287-20.215
				c-8.959,0-14.45,0.72-22.522,3.699c-6.218,2.295-16.648,8.404-17.59,23.043c6.771-8.705,15.372-11.73,23.384-12.067
				C272.286,207.469,282.338,207.929,291.355,209.899z"/>
			<path style="opacity:0.52;fill:#FAF8D3;" d="M250.749,206.563c2.77-1.406,5.815-2.494,8.777-3.294
				c6.181-1.671,12.668-2.844,19.551-2.844c4.232,0,8.246,0.412,12.279,0.926c2.798,0.357,9.205,3.058,11.796,2.155
				c4.045-1.41-4.402-4.724-5.974-5.326c-3.393-1.303-7.53-1.895-11.351-2.348c-7.898-0.932-16.266-0.134-23.804,1.969
				c-6.036,1.683-16.745,6.029-17.791,12.488l0.252,0.219C244.709,209.847,249.178,207.361,250.749,206.563z"/>
		</g>
	</g>
	<g>
		<g>
			<path style="fill:#D7DC43;" d="M375.779,283.928c-1.593-2.775-12.859-11.424-15.856-12.987
				c-14.414-7.516-38.747-6.69-46.593-3.235c-16.824,7.407-20.413,18.809-22.27,21.695c-1.81,2.814-4.832,3.551-7.417,5.681
				c-7.656,6.297,5.997,10.243,9.839,13.582c2.629,2.287,5.626,11.115,23.838,19.433c8.639,3.945,32.154,3.037,41.566-0.433
				c6.921-2.55,15.43-11.673,17.375-14.402c1.937-2.709,5.108-3.704,7.674-5.844c2.705-2.251,3.076-5.946,2.167-9.144
				C386.547,292.647,380.413,291.999,375.779,283.928z"/>
			<path style="fill:#D3D332;" d="M386.103,298.275c0.445-5.628-5.69-6.276-10.324-14.347c-0.692-1.203-3.204-3.507-6.069-5.862
				c-4.785,14.134-22.926,25.256-38.71,27.862c-10.539,1.74-23.446,1.007-29.995-7.597c-4.342-5.706-5.04-12.72-3.393-19.322
				c-3.973,4.651-5.534,8.805-6.552,10.392c-1.81,2.814-4.832,3.551-7.417,5.681c-7.656,6.297,5.997,10.243,9.839,13.582
				c2.629,2.287,5.626,11.115,23.838,19.433c8.639,3.945,32.154,3.037,41.566-0.433c6.921-2.55,15.43-11.673,17.375-14.402
				c1.937-2.709,5.108-3.704,7.674-5.844C386.64,305.167,387.011,301.473,386.103,298.275z"/>
			<path style="opacity:0.43;fill:#C2BD30;" d="M291.059,289.402c-1.81,2.814-4.832,3.551-7.417,5.681
				c-7.656,6.297,5.997,10.243,9.839,13.582c2.629,2.287,5.626,11.115,23.838,19.433c8.639,3.945,32.154,3.037,41.566-0.433
				c6.921-2.55,15.43-11.673,17.375-14.402c1.937-2.709,5.108-3.704,7.674-5.844c2.705-2.251,3.076-5.946,2.167-9.144
				c0.445-5.628-5.69-6.276-10.324-14.347c-1.593-2.775-12.859-11.424-15.856-12.987c-1.081-0.561-2.218-1.072-3.393-1.542
				c1.717,1.741,3.105,3.824,4.053,6.335c3.818,10.129,0.441,20.336-7.724,27.949c-6.931,6.465-16.548,11.544-26.576,13.184
				c-9.441,1.544-20.241,0.296-26.607-6.677c-4.248-4.649-6.974-10.682-6.846-16.692c0.097-4.487,1.502-8.674,3.372-12.745
				C293.244,284.672,291.951,288.018,291.059,289.402z"/>
			<path style="opacity:0.69;fill:#B8B433;" d="M291.059,289.402c-0.433,0.677-0.94,1.232-1.495,1.717
				c0.037,0.174,0.064,0.354,0.07,0.546c0.168,4.132-1.93,9.174-7.521,9.241h-0.006c2.243,3.162,8.878,5.591,11.374,7.758
				c2.629,2.287,5.626,11.115,23.838,19.433c8.639,3.945,32.154,3.037,41.566-0.433c6.921-2.55,15.43-11.673,17.375-14.402
				c1.937-2.709,5.108-3.704,7.674-5.844c2.705-2.251,3.076-5.946,2.167-9.144c0.385-4.909-4.228-6.031-8.492-11.588
				c0.218,2.563,0.128,5.135-0.267,7.637c-1.79,11.306-10.777,18.572-22.358,22.87c-9.172,3.405-19.357,5.773-29.266,4.701
				c-32.212-3.484-36.976-19.925-33.852-33.971C291.556,288.533,291.297,289.037,291.059,289.402z"/>
			<path style="opacity:0.56;fill:#B99E30;" d="M345.347,322.915c-12.461,2.976-26.041,3.05-37.402-2.919
				c-9.145-4.804-16.72-12.467-17.532-21.912c-0.497,1.221-0.451,3.572-1.417,4.542c-1.112,1.118-3.219,0.415-4.64,0.428
				c2.933,2.16,7.227,3.96,9.126,5.61c2.177,1.893,4.613,8.264,15.703,15.119c5.353,2.223,11.834,4.247,17.66,4.66
				c9.292,0.658,18.417,1.222,27.071-1.923c14.876-5.406,21.662-15.051,24.368-17.184c2.962-2.329,6.45-4.399,7.194-8.089
				c0.611-3.048-0.752-6.163-2.262-8.889c-0.683-0.635-1.435-1.289-2.239-2.034c0.021,0.156,0.048,0.31,0.069,0.467
				c0.684,5.69-0.572,10.89-4.515,15.518C369.269,314.841,356.868,320.163,345.347,322.915z"/>
			<linearGradient id="SVGID_3_" gradientUnits="userSpaceOnUse" x1="334.363" y1="298.8133" x2="337.0087" y2="268.572">
				<stop  offset="0.0364" style="stop-color:#EFEA48"/>
				<stop  offset="0.8545" style="stop-color:#FCF5A5"/>
			</linearGradient>
			<path style="opacity:0.44;fill:url(#SVGID_3_);" d="M347.149,285.356c4.507,0.985,9.644,2.299,13.54,4.551
				c3.447,1.988,6.309,4.875,9.273,7.047c4.139-1.258,5.379-5.011,3.697-8.09c-7.328-13.424-21.936-20.215-38.287-20.215
				c-8.959,0-14.45,0.72-22.522,3.7c-6.218,2.295-16.649,8.403-17.59,23.043c6.771-8.705,15.372-11.73,23.384-12.067
				C328.08,282.927,338.132,283.387,347.149,285.356z"/>
			<path style="opacity:0.52;fill:#FAF8D3;" d="M306.542,282.02c2.771-1.406,5.816-2.494,8.778-3.294
				c6.181-1.671,12.667-2.844,19.551-2.844c4.232,0,8.246,0.412,12.279,0.926c2.797,0.357,9.205,3.058,11.796,2.155
				c4.045-1.41-4.402-4.724-5.974-5.326c-3.393-1.303-7.53-1.895-11.351-2.348c-7.898-0.932-16.266-0.134-23.804,1.969
				c-6.036,1.683-16.745,6.03-17.791,12.488l0.251,0.219C300.502,285.305,304.972,282.819,306.542,282.02z"/>
		</g>
	</g>
	<g>
		<g>
			<path style="fill:#D7DC43;" d="M223.27,263.414c-1.593-2.775-12.859-11.424-15.856-12.987
				c-14.414-7.516-38.747-6.69-46.593-3.234c-16.824,7.407-20.413,18.809-22.271,21.695c-1.81,2.814-4.832,3.551-7.417,5.681
				c-7.656,6.297,5.997,10.243,9.839,13.582c2.63,2.287,5.626,11.115,23.839,19.433c8.639,3.945,32.154,3.037,41.566-0.433
				c6.922-2.55,15.43-11.673,17.375-14.401c1.937-2.709,5.108-3.704,7.674-5.844c2.705-2.251,3.076-5.946,2.167-9.144
				C234.04,272.133,227.905,271.485,223.27,263.414z"/>
			<path style="fill:#D3D332;" d="M233.595,277.761c0.445-5.628-5.69-6.276-10.324-14.347c-0.692-1.203-3.204-3.507-6.069-5.862
				c-4.785,14.134-22.926,25.256-38.711,27.862c-10.539,1.74-23.446,1.007-29.995-7.597c-4.342-5.706-5.04-12.72-3.393-19.322
				c-3.973,4.651-5.533,8.805-6.552,10.392c-1.81,2.814-4.832,3.551-7.417,5.681c-7.656,6.297,5.997,10.243,9.839,13.582
				c2.63,2.287,5.626,11.115,23.839,19.433c8.639,3.945,32.154,3.037,41.566-0.433c6.922-2.55,15.43-11.673,17.375-14.401
				c1.937-2.709,5.108-3.704,7.674-5.844C234.132,284.653,234.504,280.959,233.595,277.761z"/>
			<path style="opacity:0.43;fill:#C2BD30;" d="M138.552,268.887c-1.81,2.814-4.832,3.551-7.417,5.681
				c-7.656,6.297,5.997,10.243,9.839,13.582c2.63,2.287,5.626,11.115,23.839,19.433c8.639,3.945,32.154,3.037,41.566-0.433
				c6.922-2.55,15.43-11.673,17.375-14.401c1.937-2.709,5.108-3.704,7.674-5.844c2.705-2.251,3.076-5.946,2.167-9.144
				c0.445-5.628-5.69-6.276-10.324-14.347c-1.593-2.775-12.859-11.424-15.856-12.987c-1.081-0.561-2.218-1.072-3.393-1.542
				c1.717,1.741,3.105,3.824,4.052,6.335c3.818,10.129,0.441,20.336-7.724,27.949c-6.931,6.465-16.548,11.544-26.576,13.184
				c-9.441,1.544-20.241,0.296-26.607-6.677c-4.248-4.649-6.974-10.682-6.846-16.692c0.097-4.487,1.502-8.674,3.372-12.745
				C140.736,264.158,139.443,267.504,138.552,268.887z"/>
			<path style="opacity:0.69;fill:#B8B433;" d="M138.552,268.887c-0.433,0.677-0.94,1.232-1.495,1.717
				c0.037,0.174,0.064,0.354,0.07,0.546c0.168,4.132-1.93,9.174-7.521,9.241H129.6c2.243,3.162,8.878,5.591,11.374,7.758
				c2.63,2.287,5.626,11.115,23.839,19.433c8.639,3.945,32.154,3.037,41.566-0.433c6.922-2.55,15.43-11.673,17.375-14.401
				c1.937-2.709,5.108-3.704,7.674-5.844c2.705-2.251,3.076-5.946,2.167-9.144c0.385-4.909-4.228-6.031-8.491-11.588
				c0.218,2.563,0.128,5.135-0.267,7.637c-1.79,11.306-10.777,18.572-22.358,22.87c-9.172,3.405-19.357,5.773-29.266,4.701
				c-32.212-3.484-36.976-19.925-33.852-33.971C139.048,268.019,138.789,268.523,138.552,268.887z"/>
			<path style="opacity:0.56;fill:#B99E30;" d="M192.839,302.401c-12.461,2.976-26.041,3.05-37.401-2.919
				c-9.145-4.804-16.72-12.467-17.532-21.912c-0.497,1.221-0.451,3.572-1.417,4.542c-1.111,1.118-3.219,0.415-4.64,0.428
				c2.933,2.16,7.227,3.96,9.125,5.61c2.177,1.893,4.613,8.264,15.703,15.119c5.353,2.223,11.834,4.247,17.66,4.66
				c9.292,0.658,18.417,1.222,27.071-1.923c14.876-5.406,21.662-15.051,24.368-17.184c2.962-2.329,6.45-4.399,7.194-8.089
				c0.611-3.048-0.752-6.163-2.262-8.889c-0.682-0.635-1.434-1.289-2.239-2.034c0.021,0.156,0.048,0.31,0.07,0.468
				c0.684,5.69-0.572,10.889-4.515,15.518C216.761,294.327,204.36,299.649,192.839,302.401z"/>
			<linearGradient id="SVGID_4_" gradientUnits="userSpaceOnUse" x1="181.855" y1="278.2992" x2="184.5007" y2="248.0581">
				<stop  offset="0.0364" style="stop-color:#EFEA48"/>
				<stop  offset="0.8545" style="stop-color:#FCF5A5"/>
			</linearGradient>
			<path style="opacity:0.44;fill:url(#SVGID_4_);" d="M194.641,264.842c4.507,0.985,9.644,2.299,13.54,4.551
				c3.447,1.988,6.308,4.875,9.273,7.047c4.139-1.258,5.378-5.011,3.696-8.09c-7.327-13.424-21.936-20.215-38.287-20.215
				c-8.959,0-14.45,0.72-22.522,3.699c-6.218,2.295-16.648,8.403-17.59,23.043c6.771-8.705,15.372-11.73,23.384-12.067
				C175.572,262.413,185.624,262.872,194.641,264.842z"/>
			<path style="opacity:0.52;fill:#FAF8D3;" d="M154.034,261.506c2.77-1.406,5.816-2.494,8.778-3.294
				c6.181-1.67,12.667-2.844,19.55-2.844c4.232,0,8.246,0.412,12.279,0.926c2.797,0.357,9.205,3.058,11.796,2.155
				c4.044-1.41-4.402-4.724-5.974-5.326c-3.393-1.303-7.53-1.895-11.351-2.348c-7.898-0.932-16.266-0.134-23.804,1.969
				c-6.036,1.683-16.745,6.03-17.791,12.488l0.251,0.219C147.994,264.791,152.464,262.304,154.034,261.506z"/>
		</g>
	</g>
	<g>
		<g>
			<path style="fill:#D7DC43;" d="M286.596,334.641c-1.593-2.775-12.859-11.424-15.856-12.987
				c-14.414-7.516-38.747-6.69-46.593-3.234c-16.824,7.407-20.413,18.809-22.271,21.695c-1.81,2.814-4.832,3.551-7.417,5.681
				c-7.656,6.298,5.997,10.243,9.839,13.582c2.63,2.287,5.626,11.115,23.839,19.433c8.639,3.945,32.154,3.037,41.566-0.433
				c6.921-2.55,15.43-11.673,17.375-14.401c1.937-2.709,5.108-3.704,7.674-5.844c2.705-2.251,3.076-5.946,2.167-9.144
				C297.365,343.36,291.23,342.711,286.596,334.641z"/>
			<path style="fill:#D3D332;" d="M296.92,348.988c0.445-5.628-5.69-6.276-10.324-14.347c-0.692-1.203-3.204-3.507-6.069-5.862
				c-4.785,14.134-22.926,25.256-38.71,27.862c-10.539,1.74-23.446,1.007-29.995-7.597c-4.342-5.705-5.04-12.72-3.393-19.322
				c-3.973,4.651-5.533,8.805-6.552,10.392c-1.81,2.814-4.832,3.551-7.417,5.681c-7.656,6.298,5.997,10.243,9.839,13.582
				c2.63,2.287,5.626,11.115,23.839,19.433c8.639,3.945,32.154,3.037,41.566-0.433c6.921-2.55,15.43-11.673,17.375-14.401
				c1.937-2.709,5.108-3.704,7.674-5.844C297.458,355.88,297.829,352.186,296.92,348.988z"/>
			<path style="opacity:0.43;fill:#C2BD30;" d="M201.877,340.114c-1.81,2.814-4.832,3.551-7.417,5.681
				c-7.656,6.298,5.997,10.243,9.839,13.582c2.63,2.287,5.626,11.115,23.839,19.433c8.639,3.945,32.154,3.037,41.566-0.433
				c6.921-2.55,15.43-11.673,17.375-14.401c1.937-2.709,5.108-3.704,7.674-5.844c2.705-2.251,3.076-5.946,2.167-9.144
				c0.445-5.628-5.69-6.276-10.324-14.347c-1.593-2.775-12.859-11.424-15.856-12.987c-1.081-0.561-2.218-1.072-3.393-1.542
				c1.717,1.741,3.105,3.824,4.053,6.335c3.818,10.129,0.441,20.336-7.724,27.949c-6.931,6.465-16.548,11.544-26.576,13.184
				c-9.441,1.544-20.241,0.296-26.607-6.677c-4.248-4.649-6.974-10.682-6.846-16.692c0.097-4.487,1.502-8.674,3.372-12.745
				C204.061,335.385,202.768,338.73,201.877,340.114z"/>
			<path style="opacity:0.69;fill:#B8B433;" d="M201.877,340.114c-0.433,0.677-0.94,1.232-1.495,1.717
				c0.037,0.174,0.064,0.354,0.07,0.546c0.168,4.131-1.93,9.174-7.521,9.241h-0.006c2.243,3.162,8.878,5.591,11.374,7.758
				c2.63,2.287,5.626,11.115,23.839,19.433c8.639,3.945,32.154,3.037,41.566-0.433c6.921-2.55,15.43-11.673,17.375-14.401
				c1.937-2.709,5.108-3.704,7.674-5.844c2.705-2.251,3.076-5.946,2.167-9.144c0.385-4.908-4.228-6.031-8.491-11.588
				c0.218,2.563,0.128,5.135-0.267,7.637c-1.79,11.305-10.777,18.572-22.358,22.87c-9.172,3.405-19.357,5.773-29.266,4.701
				c-32.212-3.484-36.976-19.925-33.852-33.971C202.374,339.246,202.115,339.75,201.877,340.114z"/>
			<path style="opacity:0.56;fill:#B99E30;" d="M256.164,373.627c-12.461,2.976-26.041,3.05-37.401-2.919
				c-9.145-4.804-16.72-12.467-17.532-21.912c-0.497,1.221-0.451,3.572-1.417,4.542c-1.111,1.118-3.219,0.415-4.64,0.428
				c2.933,2.16,7.227,3.96,9.125,5.61c2.177,1.894,4.613,8.265,15.703,15.119c5.353,2.223,11.834,4.247,17.66,4.66
				c9.292,0.658,18.417,1.222,27.071-1.923c14.876-5.406,21.662-15.051,24.368-17.184c2.962-2.329,6.45-4.399,7.194-8.089
				c0.611-3.048-0.752-6.163-2.262-8.888c-0.682-0.635-1.434-1.29-2.239-2.034c0.021,0.155,0.048,0.31,0.07,0.467
				c0.684,5.69-0.572,10.89-4.515,15.518C280.086,365.554,267.685,370.876,256.164,373.627z"/>
			<linearGradient id="SVGID_5_" gradientUnits="userSpaceOnUse" x1="245.1803" y1="349.5258" x2="247.826" y2="319.2847">
				<stop  offset="0.0364" style="stop-color:#EFEA48"/>
				<stop  offset="0.8545" style="stop-color:#FCF5A5"/>
			</linearGradient>
			<path style="opacity:0.44;fill:url(#SVGID_5_);" d="M257.966,336.069c4.507,0.985,9.644,2.299,13.54,4.551
				c3.447,1.988,6.308,4.875,9.273,7.047c4.139-1.258,5.379-5.011,3.696-8.09c-7.327-13.424-21.936-20.215-38.287-20.215
				c-8.959,0-14.45,0.72-22.522,3.699c-6.218,2.295-16.649,8.404-17.59,23.043c6.771-8.705,15.372-11.73,23.384-12.067
				C238.897,333.639,248.949,334.099,257.966,336.069z"/>
			<path style="opacity:0.52;fill:#FAF8D3;" d="M217.359,332.733c2.771-1.406,5.816-2.494,8.778-3.294
				c6.181-1.67,12.667-2.844,19.55-2.844c4.232,0,8.246,0.412,12.279,0.926c2.797,0.357,9.205,3.058,11.796,2.155
				c4.044-1.41-4.402-4.724-5.974-5.326c-3.393-1.303-7.53-1.895-11.351-2.348c-7.898-0.932-16.266-0.134-23.804,1.969
				c-6.036,1.683-16.745,6.03-17.791,12.488l0.251,0.219C211.319,336.017,215.789,333.531,217.359,332.733z"/>
		</g>
	</g>
	<g>
		<g>
			<path style="fill:#D7DC43;" d="M211.092,393.656c-1.593-2.775-12.859-11.424-15.856-12.987
				c-14.413-7.516-38.747-6.69-46.593-3.235c-16.824,7.407-20.413,18.809-22.271,21.695c-1.81,2.813-4.831,3.551-7.417,5.681
				c-7.656,6.297,5.998,10.243,9.839,13.582c2.63,2.287,5.626,11.115,23.839,19.433c8.638,3.945,32.154,3.037,41.566-0.433
				c6.922-2.55,15.43-11.672,17.375-14.401c1.937-2.709,5.108-3.704,7.674-5.844c2.705-2.251,3.076-5.946,2.167-9.144
				C221.861,402.375,215.727,401.727,211.092,393.656z"/>
			<path style="fill:#D3D332;" d="M221.416,408.003c0.445-5.628-5.69-6.276-10.324-14.347c-0.692-1.203-3.204-3.507-6.069-5.862
				c-4.785,14.134-22.926,25.257-38.71,27.862c-10.539,1.74-23.446,1.007-29.995-7.597c-4.342-5.705-5.04-12.72-3.393-19.322
				c-3.973,4.651-5.534,8.805-6.552,10.392c-1.81,2.813-4.831,3.551-7.417,5.681c-7.656,6.297,5.998,10.243,9.839,13.582
				c2.63,2.287,5.626,11.115,23.839,19.433c8.638,3.945,32.154,3.037,41.566-0.433c6.922-2.55,15.43-11.672,17.375-14.401
				c1.937-2.709,5.108-3.704,7.674-5.844C221.954,414.896,222.325,411.201,221.416,408.003z"/>
			<path style="opacity:0.43;fill:#C2BD30;" d="M126.373,399.13c-1.81,2.813-4.831,3.551-7.417,5.681
				c-7.656,6.297,5.998,10.243,9.839,13.582c2.63,2.287,5.626,11.115,23.839,19.433c8.638,3.945,32.154,3.037,41.566-0.433
				c6.922-2.55,15.43-11.672,17.375-14.401c1.937-2.709,5.108-3.704,7.674-5.844c2.705-2.251,3.076-5.946,2.167-9.144
				c0.445-5.628-5.69-6.276-10.324-14.347c-1.593-2.775-12.859-11.424-15.856-12.987c-1.081-0.561-2.217-1.072-3.393-1.542
				c1.717,1.741,3.105,3.824,4.052,6.335c3.818,10.129,0.441,20.336-7.724,27.949c-6.931,6.465-16.548,11.544-26.576,13.184
				c-9.441,1.544-20.241,0.296-26.607-6.677c-4.248-4.649-6.974-10.682-6.846-16.692c0.097-4.487,1.502-8.674,3.372-12.745
				C128.558,394.4,127.265,397.746,126.373,399.13z"/>
			<path style="opacity:0.69;fill:#B8B433;" d="M126.373,399.13c-0.433,0.677-0.94,1.232-1.495,1.717
				c0.037,0.174,0.064,0.354,0.07,0.546c0.168,4.131-1.929,9.174-7.521,9.241h-0.006c2.243,3.162,8.878,5.591,11.374,7.758
				c2.63,2.287,5.626,11.115,23.839,19.433c8.638,3.945,32.154,3.037,41.566-0.433c6.922-2.55,15.43-11.672,17.375-14.401
				c1.937-2.709,5.108-3.704,7.674-5.844c2.705-2.251,3.076-5.946,2.167-9.144c0.385-4.908-4.228-6.031-8.491-11.588
				c0.218,2.563,0.127,5.135-0.267,7.637c-1.79,11.305-10.777,18.572-22.358,22.87c-9.172,3.405-19.357,5.773-29.266,4.7
				c-32.212-3.484-36.976-19.924-33.851-33.971C126.87,398.261,126.611,398.765,126.373,399.13z"/>
			<path style="opacity:0.56;fill:#B99E30;" d="M180.661,432.643c-12.461,2.976-26.041,3.05-37.401-2.919
				c-9.145-4.804-16.72-12.467-17.532-21.912c-0.497,1.221-0.45,3.572-1.417,4.542c-1.112,1.118-3.219,0.415-4.64,0.428
				c2.933,2.16,7.227,3.96,9.126,5.61c2.177,1.894,4.613,8.265,15.703,15.119c5.354,2.223,11.834,4.247,17.66,4.66
				c9.292,0.658,18.417,1.222,27.071-1.923c14.875-5.406,21.661-15.051,24.368-17.184c2.962-2.329,6.45-4.399,7.194-8.089
				c0.611-3.048-0.752-6.163-2.262-8.888c-0.682-0.635-1.435-1.289-2.239-2.034c0.021,0.155,0.048,0.31,0.069,0.467
				c0.685,5.69-0.572,10.89-4.515,15.518C204.583,424.569,192.182,429.891,180.661,432.643z"/>
			<linearGradient id="SVGID_6_" gradientUnits="userSpaceOnUse" x1="169.6767" y1="408.5413" x2="172.3224" y2="378.3002">
				<stop  offset="0.0364" style="stop-color:#EFEA48"/>
				<stop  offset="0.8545" style="stop-color:#FCF5A5"/>
			</linearGradient>
			<path style="opacity:0.44;fill:url(#SVGID_6_);" d="M182.462,395.084c4.507,0.985,9.644,2.299,13.54,4.551
				c3.447,1.988,6.309,4.875,9.273,7.047c4.139-1.258,5.379-5.011,3.697-8.09c-7.327-13.424-21.936-20.215-38.287-20.215
				c-8.959,0-14.45,0.72-22.522,3.699c-6.218,2.295-16.648,8.404-17.59,23.043c6.771-8.705,15.372-11.73,23.385-12.067
				C163.394,392.655,173.445,393.114,182.462,395.084z"/>
			<path style="opacity:0.52;fill:#FAF8D3;" d="M141.856,391.748c2.77-1.406,5.816-2.494,8.778-3.294
				c6.181-1.67,12.667-2.844,19.55-2.844c4.232,0,8.246,0.412,12.279,0.926c2.798,0.357,9.205,3.058,11.796,2.155
				c4.044-1.41-4.402-4.724-5.974-5.326c-3.393-1.303-7.531-1.895-11.351-2.348c-7.898-0.932-16.265-0.134-23.804,1.969
				c-6.036,1.683-16.745,6.03-17.791,12.488l0.252,0.219C135.816,395.033,140.286,392.546,141.856,391.748z"/>
		</g>
	</g>
	<g>
		<g>
			<path style="fill:#D7DC43;" d="M372.507,386.25c-1.593-2.775-12.859-11.424-15.856-12.987
				c-14.414-7.516-38.747-6.69-46.593-3.235c-16.824,7.407-20.413,18.809-22.271,21.695c-1.81,2.814-4.832,3.551-7.417,5.681
				c-7.656,6.297,5.997,10.243,9.839,13.582c2.63,2.287,5.626,11.115,23.839,19.433c8.639,3.945,32.154,3.037,41.566-0.433
				c6.921-2.55,15.43-11.672,17.375-14.401c1.937-2.709,5.108-3.704,7.674-5.844c2.705-2.251,3.076-5.946,2.167-9.144
				C383.276,394.969,377.141,394.321,372.507,386.25z"/>
			<path style="fill:#D3D332;" d="M382.831,400.597c0.445-5.628-5.69-6.276-10.324-14.347c-0.692-1.203-3.204-3.507-6.069-5.862
				c-4.785,14.134-22.926,25.256-38.71,27.862c-10.539,1.74-23.446,1.007-29.995-7.597c-4.342-5.706-5.04-12.72-3.393-19.322
				c-3.973,4.652-5.533,8.805-6.552,10.392c-1.81,2.814-4.832,3.551-7.417,5.681c-7.656,6.297,5.997,10.243,9.839,13.582
				c2.63,2.287,5.626,11.115,23.839,19.433c8.639,3.945,32.154,3.037,41.566-0.433c6.921-2.55,15.43-11.672,17.375-14.401
				c1.937-2.709,5.108-3.704,7.674-5.844C383.368,407.489,383.74,403.795,382.831,400.597z"/>
			<path style="opacity:0.43;fill:#C2BD30;" d="M287.788,391.724c-1.81,2.814-4.832,3.551-7.417,5.681
				c-7.656,6.297,5.997,10.243,9.839,13.582c2.63,2.287,5.626,11.115,23.839,19.433c8.639,3.945,32.154,3.037,41.566-0.433
				c6.921-2.55,15.43-11.672,17.375-14.401c1.937-2.709,5.108-3.704,7.674-5.844c2.705-2.251,3.076-5.946,2.167-9.144
				c0.445-5.628-5.69-6.276-10.324-14.347c-1.593-2.775-12.859-11.424-15.856-12.987c-1.081-0.561-2.218-1.072-3.393-1.542
				c1.717,1.741,3.105,3.824,4.052,6.335c3.818,10.129,0.441,20.336-7.724,27.949c-6.931,6.465-16.548,11.544-26.576,13.184
				c-9.441,1.544-20.241,0.296-26.607-6.677c-4.248-4.649-6.974-10.682-6.846-16.693c0.097-4.486,1.502-8.674,3.372-12.745
				C289.972,386.994,288.679,390.34,287.788,391.724z"/>
			<path style="opacity:0.69;fill:#B8B433;" d="M287.788,391.724c-0.433,0.677-0.94,1.232-1.495,1.717
				c0.037,0.174,0.064,0.354,0.07,0.546c0.168,4.132-1.93,9.174-7.521,9.241h-0.006c2.243,3.162,8.878,5.591,11.374,7.758
				c2.63,2.287,5.626,11.115,23.839,19.433c8.639,3.945,32.154,3.037,41.566-0.433c6.921-2.55,15.43-11.672,17.375-14.401
				c1.937-2.709,5.108-3.704,7.674-5.844c2.705-2.251,3.076-5.946,2.167-9.144c0.385-4.909-4.228-6.031-8.491-11.588
				c0.218,2.563,0.128,5.135-0.267,7.637c-1.79,11.306-10.777,18.572-22.358,22.87c-9.172,3.405-19.357,5.773-29.266,4.7
				c-32.212-3.484-36.976-19.924-33.852-33.971C288.284,390.855,288.025,391.359,287.788,391.724z"/>
			<path style="opacity:0.56;fill:#B99E30;" d="M342.075,425.237c-12.461,2.976-26.041,3.05-37.401-2.919
				c-9.145-4.804-16.72-12.467-17.532-21.912c-0.497,1.221-0.451,3.572-1.417,4.542c-1.112,1.118-3.219,0.415-4.64,0.428
				c2.933,2.16,7.227,3.96,9.125,5.61c2.177,1.893,4.613,8.264,15.703,15.119c5.353,2.223,11.834,4.247,17.66,4.66
				c9.292,0.658,18.417,1.223,27.071-1.923c14.876-5.406,21.662-15.051,24.368-17.184c2.962-2.329,6.45-4.399,7.194-8.089
				c0.611-3.048-0.752-6.163-2.262-8.889c-0.682-0.635-1.434-1.289-2.239-2.034c0.021,0.156,0.048,0.31,0.07,0.467
				c0.684,5.69-0.572,10.89-4.515,15.518C365.997,417.163,353.596,422.485,342.075,425.237z"/>
			<linearGradient id="SVGID_7_" gradientUnits="userSpaceOnUse" x1="331.0911" y1="401.1353" x2="333.7369" y2="370.894">
				<stop  offset="0.0364" style="stop-color:#EFEA48"/>
				<stop  offset="0.8545" style="stop-color:#FCF5A5"/>
			</linearGradient>
			<path style="opacity:0.44;fill:url(#SVGID_7_);" d="M343.877,387.678c4.507,0.985,9.643,2.299,13.54,4.551
				c3.447,1.988,6.308,4.875,9.273,7.047c4.139-1.258,5.379-5.011,3.697-8.09c-7.327-13.424-21.936-20.215-38.287-20.215
				c-8.959,0-14.45,0.72-22.522,3.7c-6.218,2.295-16.649,8.403-17.59,23.043c6.771-8.705,15.372-11.73,23.384-12.067
				C324.808,385.249,334.86,385.709,343.877,387.678z"/>
			<path style="opacity:0.52;fill:#FAF8D3;" d="M303.27,384.342c2.77-1.406,5.816-2.494,8.778-3.294
				c6.181-1.671,12.667-2.844,19.55-2.844c4.232,0,8.246,0.412,12.279,0.926c2.797,0.357,9.205,3.058,11.796,2.155
				c4.044-1.41-4.402-4.724-5.974-5.326c-3.393-1.303-7.53-1.895-11.351-2.348c-7.898-0.932-16.266-0.134-23.804,1.969
				c-6.036,1.683-16.745,6.03-17.791,12.488l0.251,0.219C297.23,387.627,301.7,385.14,303.27,384.342z"/>
		</g>
	</g>
</g>
</svg>
