<?xml version="1.0" encoding="iso-8859-1"?>
<!-- Generator: Adobe Illustrator 23.0.2, SVG Export Plug-In . SVG Version: 6.00 Build 0)  -->
<svg version="1.1" id="Layer_1" xmlns="http://www.w3.org/2000/svg" xmlns:xlink="http://www.w3.org/1999/xlink" x="0px" y="0px"
	 viewBox="0 0 595.276 841.89" style="enable-background:new 0 0 595.276 841.89;" xml:space="preserve">
<g>
	<g>
		<g>
			<path style="fill:#D7DC43;" d="M205.557,186.412c-1.058-2.134-8.504-8.779-10.472-9.969c-9.525-5.777-25.604-5.136-30.785-2.492
				c-11.122,5.683-13.48,14.444-14.705,16.672c-1.188,2.152-3.194,2.719-4.902,4.361c-5.05,4.833,3.955,7.873,6.499,10.441
				c1.745,1.756,3.713,8.534,15.745,14.935c5.7,3.04,21.241,2.341,27.461-0.34c4.568-1.964,10.194-8.968,11.475-11.064
				c1.281-2.077,3.379-2.851,5.069-4.494c1.782-1.737,2.024-4.569,1.43-7.024C212.668,193.114,208.602,192.605,205.557,186.412z"/>
			<path style="fill:#D3D332;" d="M212.371,197.419c0.297-4.324-3.751-4.815-6.814-11.026c-0.464-0.925-2.117-2.7-4.011-4.512
				c-3.156,10.856-15.151,19.409-25.567,21.411c-6.963,1.34-15.485,0.774-19.811-5.834c-2.859-4.38-3.324-9.78-2.247-14.84
				c-2.618,3.568-3.658,6.759-4.326,7.987c-1.188,2.152-3.194,2.719-4.902,4.361c-5.05,4.833,3.955,7.873,6.499,10.441
				c1.745,1.756,3.713,8.534,15.745,14.935c5.7,3.04,21.241,2.341,27.461-0.34c4.568-1.964,10.194-8.968,11.475-11.064
				c1.281-2.077,3.379-2.851,5.069-4.494C212.724,202.725,212.965,199.893,212.371,197.419z"/>
			
				<image style="overflow:visible;enable-background:new    ;" width="163" height="104" xlink:href="4966267C.png"  transform="matrix(0.4292 0 0 0.4365 142.8877 176.1056)">
			</image>
			
				<image style="overflow:visible;enable-background:new    ;" width="163" height="75" xlink:href="4966267D.png"  transform="matrix(0.4265 0 0 0.4337 143.3333 189.1089)">
			</image>
			
				<image style="overflow:visible;enable-background:new    ;" width="154" height="71" xlink:href="4966267B.png"  transform="matrix(0.4142 0 0 0.4212 146.8638 191.098)">
			</image>
			
				<image style="overflow:visible;enable-background:new    ;" width="121" height="54" xlink:href="49662684.png"  transform="matrix(0.4044 0 0 0.4112 154.0735 174.3319)">
			</image>
			
				<image style="overflow:visible;enable-background:new    ;" width="92" height="29" xlink:href="49662687.png"  transform="matrix(0.4149 0 0 0.4219 156.3331 176.1445)">
			</image>
		</g>
	</g>
	<g>
		<g>
			<path style="fill:#D7DC43;" d="M283.02,205.802c-1.058-2.134-8.504-8.779-10.472-9.969c-9.525-5.777-25.604-5.136-30.785-2.492
				c-11.122,5.683-13.48,14.444-14.705,16.672c-1.188,2.152-3.194,2.738-4.902,4.361c-5.05,4.833,3.955,7.873,6.499,10.441
				c1.745,1.756,3.713,8.534,15.745,14.935c5.7,3.04,21.241,2.341,27.461-0.34c4.568-1.964,10.194-8.968,11.475-11.064
				c1.281-2.077,3.379-2.851,5.069-4.494c1.782-1.737,2.024-4.569,1.43-7.024C290.15,212.486,286.084,211.995,283.02,205.802z"/>
			<path style="fill:#D3D332;" d="M289.853,216.81c0.297-4.324-3.751-4.815-6.814-11.026c-0.464-0.925-2.117-2.7-4.011-4.513
				c-3.156,10.856-15.151,19.409-25.567,21.411c-6.963,1.341-15.485,0.774-19.811-5.834c-2.878-4.38-3.324-9.78-2.247-14.84
				c-2.618,3.568-3.658,6.759-4.326,7.987c-1.188,2.152-3.194,2.738-4.902,4.361c-5.05,4.833,3.955,7.873,6.499,10.441
				c1.745,1.756,3.713,8.534,15.745,14.935c5.7,3.04,21.241,2.341,27.461-0.34c4.568-1.964,10.194-8.968,11.475-11.064
				c1.281-2.077,3.379-2.851,5.069-4.494C290.206,222.115,290.447,219.264,289.853,216.81z"/>
			
				<image style="overflow:visible;enable-background:new    ;" width="158" height="108" xlink:href="49662685.png"  transform="matrix(0.4332 0 0 0.4405 221.1803 194.2699)">
			</image>
			
				<image style="overflow:visible;enable-background:new    ;" width="158" height="79" xlink:href="4966268B.png"  transform="matrix(0.4231 0 0 0.4302 222.2077 207.864)">
			</image>
			
				<image style="overflow:visible;enable-background:new    ;" width="154" height="71" xlink:href="4966268C.png"  transform="matrix(0.4142 0 0 0.4212 224.1784 210.5828)">
			</image>
			
				<image style="overflow:visible;enable-background:new    ;" width="121" height="54" xlink:href="4966268F.png"  transform="matrix(0.4044 0 0 0.4112 231.611 193.8168)">
			</image>
			
				<image style="overflow:visible;enable-background:new    ;" width="96" height="33" xlink:href="9BC3904B.png"  transform="matrix(0.3511 0 0 0.357 236.1028 195.6293)">
			</image>
		</g>
	</g>
	<g>
		<g>
			<path style="fill:#D7DC43;" d="M297.443,265.225c-1.058-2.134-8.504-8.78-10.472-9.969c-9.525-5.777-25.604-5.136-30.785-2.492
				c-11.122,5.683-13.48,14.444-14.705,16.672c-1.188,2.152-3.194,2.738-4.902,4.361c-5.05,4.833,3.955,7.873,6.499,10.441
				c1.745,1.756,3.713,8.534,15.745,14.935c5.7,3.04,21.241,2.341,27.461-0.34c4.568-1.964,10.194-8.968,11.475-11.064
				c1.281-2.077,3.379-2.851,5.069-4.494c1.783-1.737,2.024-4.569,1.43-7.024C304.555,271.927,300.507,271.417,297.443,265.225z"/>
			<path style="fill:#D3D332;" d="M304.258,276.251c0.297-4.324-3.751-4.815-6.814-11.026c-0.464-0.925-2.117-2.7-4.011-4.513
				c-3.156,10.856-15.151,19.409-25.567,21.411c-6.963,1.341-15.485,0.774-19.811-5.834c-2.878-4.38-3.324-9.78-2.247-14.84
				c-2.618,3.568-3.658,6.759-4.326,7.987c-1.188,2.152-3.194,2.738-4.902,4.361c-5.05,4.833,3.955,7.873,6.499,10.441
				c1.745,1.756,3.713,8.534,15.745,14.935c5.7,3.04,21.241,2.341,27.461-0.34c4.568-1.964,10.194-8.968,11.475-11.064
				c1.281-2.077,3.379-2.851,5.069-4.494C304.61,281.537,304.852,278.705,304.258,276.251z"/>
			
				<image style="overflow:visible;enable-background:new    ;" width="158" height="113" xlink:href="9BC39049.png"  transform="matrix(0.4141 0 0 0.4211 237.2294 253.73)">
			</image>
			
				<image style="overflow:visible;enable-background:new    ;" width="158" height="79" xlink:href="9BC3904F.png"  transform="matrix(0.4231 0 0 0.4302 236.7423 267.3241)">
			</image>
			
				<image style="overflow:visible;enable-background:new    ;" width="154" height="71" xlink:href="9BC3904A.png"  transform="matrix(0.4142 0 0 0.4212 238.4903 270.0429)">
			</image>
			
				<image style="overflow:visible;enable-background:new    ;" width="125" height="54" xlink:href="9BC39055.png"  transform="matrix(0.4044 0 0 0.4112 245.1142 253.2768)">
			</image>
			
				<image style="overflow:visible;enable-background:new    ;" width="96" height="29" xlink:href="9BC39056.png"  transform="matrix(0.3995 0 0 0.4063 247.8674 255.0894)">
			</image>
		</g>
	</g>
	<g>
		<g>
			<path style="fill:#D7DC43;" d="M219.13,248.001c-1.058-2.134-8.504-8.779-10.472-9.969c-9.525-5.777-25.604-5.136-30.785-2.492
				c-11.122,5.683-13.48,14.444-14.705,16.672c-1.188,2.152-3.194,2.738-4.902,4.361c-5.05,4.833,3.955,7.873,6.499,10.441
				c1.745,1.756,3.713,8.534,15.745,14.935c5.7,3.04,21.241,2.341,27.461-0.34c4.568-1.964,10.194-8.968,11.475-11.064
				c1.281-2.077,3.379-2.851,5.069-4.494c1.782-1.737,2.024-4.569,1.43-7.024C226.241,254.703,222.193,254.212,219.13,248.001z"/>
			<path style="fill:#D3D332;" d="M225.944,259.027c0.297-4.324-3.751-4.815-6.814-11.026c-0.464-0.925-2.117-2.7-4.011-4.512
				c-3.156,10.856-15.151,19.409-25.567,21.411c-6.963,1.341-15.485,0.774-19.811-5.834c-2.878-4.38-3.324-9.78-2.247-14.84
				c-2.618,3.568-3.658,6.759-4.326,7.987c-1.188,2.152-3.194,2.738-4.902,4.361c-5.05,4.833,3.955,7.873,6.499,10.441
				c1.745,1.756,3.713,8.534,15.745,14.935c5.7,3.04,21.241,2.341,27.461-0.34c4.568-1.964,10.194-8.968,11.475-11.064
				c1.281-2.077,3.379-2.851,5.069-4.494C226.315,264.313,226.557,261.481,225.944,259.027z"/>
			
				<image style="overflow:visible;enable-background:new    ;" width="163" height="108" xlink:href="9BC39057.png"  transform="matrix(0.4292 0 0 0.4365 156.7018 236.6326)">
			</image>
			
				<image style="overflow:visible;enable-background:new    ;" width="158" height="79" xlink:href="9BC39059.png"  transform="matrix(0.4231 0 0 0.4302 158.4843 250.0057)">
			</image>
			
				<image style="overflow:visible;enable-background:new    ;" width="158" height="67" xlink:href="9BC3905B.png"  transform="matrix(0.4259 0 0 0.4331 158.4843 253.1704)">
			</image>
			
				<image style="overflow:visible;enable-background:new    ;" width="125" height="50" xlink:href="9BC3905E.png"  transform="matrix(0.4242 0 0 0.4314 165.6142 236.2756)">
			</image>
			
				<image style="overflow:visible;enable-background:new    ;" width="92" height="29" xlink:href="9BC39072.png"  transform="matrix(0.4149 0 0 0.4219 169.7016 237.771)">
			</image>
		</g>
	</g>
</g>
</svg>
