<?xml version="1.0" encoding="iso-8859-1"?>
<!-- Generator: Adobe Illustrator 23.0.2, SVG Export Plug-In . SVG Version: 6.00 Build 0)  -->
<svg version="1.1" id="Layer_1" xmlns="http://www.w3.org/2000/svg" xmlns:xlink="http://www.w3.org/1999/xlink" x="0px" y="0px"
	 viewBox="0 0 595.276 841.89" style="enable-background:new 0 0 595.276 841.89;" xml:space="preserve">
<g>
	<path style="fill:#735FA9;" d="M187.188,315.936c0,18.205,0.628,32.747,1.852,43.568c-1.883,1.136-3.892,1.704-6.01,1.704
		c-2.134,0-3.97-1.079-5.54-3.266c-1.554-2.187-2.338-5.169-2.338-9.003c0-3.834,0.298-11.048,0.879-21.727
		c0.581-10.651,0.895-18.915,0.895-24.766c0-14.428-0.628-28.345-1.867-41.75c4.363,0.568,10.232,0.852,17.608,0.852
		c7.36,0,14.422-0.852,21.139-2.556c0.706,2.073,1.067,4.544,1.067,7.441c0,2.869-0.691,5.425-2.072,7.64
		c-1.381,2.215-3.092,3.323-5.132,3.323c-2.024,0-5.273-0.483-9.73-1.42c-4.457-0.937-7.737-1.42-9.855-1.42
		c-0.471,10.281-0.769,19.711-0.895,28.288c3.421,0.568,7.203,0.852,11.362,0.852c4.159,0,7.768-0.994,10.844-2.982
		c0.706,2.073,1.067,4.544,1.067,7.413c0,2.869-0.691,5.481-2.087,7.782c-1.381,2.329-3.013,3.465-4.896,3.465
		c-1.899,0-4.614-0.568-8.145-1.761C191.786,316.532,189.072,315.936,187.188,315.936z"/>
	<path style="fill:#735FA9;" d="M245.206,362.912c-8.616,0-15.16-4.544-19.632-13.661c-4.488-9.117-6.732-21.046-6.732-35.786
		c0-14.769,2.778-27.521,8.317-38.257c5.54-10.764,12.602-16.132,21.186-16.132s15.128,4.629,19.648,13.86
		c4.52,9.259,6.764,21.273,6.764,36.07c0,14.826-2.778,27.493-8.317,38.058C260.899,357.629,253.822,362.912,245.206,362.912z
		 M263.081,309.716c0-11.219-1.428-20.307-4.3-27.237c-2.856-6.93-7.329-10.395-13.402-10.395c-3.656,0-6.889,1.903-9.73,5.652
		c-1.601,3.976-2.84,9.287-3.766,15.99c-0.91,6.703-1.365,13.065-1.365,19.114c0,11.133,1.412,20.052,4.253,26.754
		c2.825,6.703,7.313,10.054,13.449,10.054c3.358,0,6.214-2.159,8.584-6.504C260.993,335.277,263.081,324.144,263.081,309.716z"/>
	<path style="fill:#735FA9;" d="M296.429,272.226c0,7.072-0.424,16.416-1.271,28.004c-0.863,11.588-1.287,20.563-1.287,26.868
		c0,6.334,1.067,11.588,3.186,15.791c2.119,4.203,5.273,6.305,9.463,6.305c1.711,0,3.782-0.653,6.199-1.988
		c2.417-1.335,4.331-3.011,5.744-5.112c0.769-10.452,1.161-23.943,1.161-40.387c0-16.473-0.738-29.822-2.213-40.103
		c1.883-1.136,3.892-1.704,6.01-1.704c2.119,0,3.955,1.079,5.524,3.266c1.569,2.159,2.338,4.999,2.338,8.492
		c0,3.493-0.251,9.486-0.753,17.978s-0.753,18.007-0.753,28.515s0.298,19.796,0.895,27.805
		c-8.616,11.332-17.341,16.984-26.192,16.984c-6.717,0-11.958-2.755-15.693-8.293c-3.751-5.51-5.618-13.519-5.618-23.971
		c0-3.295,0.188-9.259,0.581-17.893c0.392-8.634,0.581-14.939,0.581-18.887c0-14.258-0.596-24.709-1.773-31.412
		c1.883-1.136,3.892-1.704,6.01-1.704c2.119,0,3.97,1.079,5.54,3.266C295.644,266.176,296.429,268.931,296.429,272.226z"/>
	<path style="fill:#735FA9;" d="M369.512,313.096c2.652,8.975,6.01,16.785,10.091,23.488c4.065,6.703,8.113,11.048,12.115,13.036
		c0,3.948-0.659,7.015-1.946,9.202s-3.154,3.266-5.571,3.266c-3.139,0-6.701-3.238-10.703-9.685
		c-4.002-6.447-7.501-14.116-10.483-22.92c-2.982-8.805-4.724-16.558-5.257-23.261c4.237,0,7.737-1.818,10.483-5.453
		s4.112-8.805,4.112-15.507c0-8.492-3.311-12.724-9.902-12.724c-2.119,0-4.724,0.568-7.784,1.704
		c-0.408,12.724-0.612,23.005-0.612,30.844c0,25.107,0.612,43.256,1.852,54.474c-1.883,1.136-3.892,1.704-6.01,1.704
		c-2.119,0-3.97-1.079-5.524-3.266c-1.569-2.187-2.338-5.055-2.338-8.634c0-3.579,0.298-9.827,0.895-18.745
		c0.581-8.918,0.879-16.047,0.879-21.443c0-16.501-0.738-31.157-2.213-43.994c7.956-3.493,15.536-5.226,22.724-5.226
		c13.151,0,19.726,7.498,19.726,22.494c0,6.618-1.397,12.809-4.206,18.603C376.997,306.819,373.576,310.852,369.512,313.096z"/>
</g>
</svg>
