<?xml version="1.0" encoding="iso-8859-1"?>
<!-- Generator: Adobe Illustrator 23.0.2, SVG Export Plug-In . SVG Version: 6.00 Build 0)  -->
<svg version="1.1" id="Layer_1" xmlns="http://www.w3.org/2000/svg" xmlns:xlink="http://www.w3.org/1999/xlink" x="0px" y="0px"
	 viewBox="0 0 595.276 841.89" style="enable-background:new 0 0 595.276 841.89;" xml:space="preserve">
<g>
	<path style="fill:#735FA9;" d="M268.458,403.387c-8.082,2.25-16.322,3.353-24.771,3.353c-8.449,0-15.272-2.03-20.415-6.045
		c-5.143-4.015-7.767-9.619-7.767-16.722c0-1.853,0.892-11.339,2.624-28.371c-40.62-0.397-67.858-1.147-81.713-2.25
		c-19.156-1.5-28.76-8.516-28.76-21.09c36.317-41.21,71.899-75.625,106.694-103.158c8.082-6.751,17.214-10.104,27.395-10.104
		c10.234,0,19.261,0.927,27.028,2.824c-5.563,28.106-8.292,62.874-8.292,104.261c10.339-1.5,21.202-3.662,32.538-6.442
		c1.784,4.103,2.677,9.266,2.677,15.443c0,6.177-3.044,11.251-9.079,15.178c-6.035,3.927-14.485,5.912-25.348,5.912
		C262.528,375.104,264.942,390.812,268.458,403.387z M149.641,328.335c12.385,1.677,25.033,2.515,38.049,2.515
		c12.963,0,23.879-0.265,32.696-0.838c1.784-12.178,2.677-25.635,2.677-40.328c0-14.693-0.367-25.326-1.102-31.9
		C203.014,272.388,178.925,295.905,149.641,328.335z"/>
</g>
</svg>
